<svg xmlns="http://www.w3.org/2000/svg" preserveAspectRatio="xMidYMid" width="33" height="30" viewBox="0 0 33 30"><defs><style>.cls-2{fill:#000}</style></defs><path d="M31.255 25.713c-1.038 1.75-2.922 2.727-4.858 2.727a5.695 5.695 0 0 1-2.797-.73c-2.68-1.506-3.598-4.842-2.051-7.452 1.038-1.749 2.922-2.728 4.858-2.728.951 0 1.914.236 2.797.731 2.68 1.507 3.598 4.843 2.051 7.452zM23.041 9.165a7.617 7.617 0 0 0 .842-2.336c2.848 2.067 4.813 5.224 5.24 8.829a8.194 8.194 0 0 0-2.499-.462c-.462-2.394-1.758-4.503-3.583-6.031zm-7.038 1.743c-3.095 0-5.604-2.442-5.604-5.455 0-3.012 2.509-5.454 5.604-5.454s5.604 2.442 5.604 5.454c0 3.013-2.509 5.455-5.604 5.455zM8.406 27.71a5.695 5.695 0 0 1-2.797.73c-1.937 0-3.82-.977-4.858-2.727-1.548-2.609-.629-5.945 2.051-7.452a5.703 5.703 0 0 1 2.796-.731c1.937 0 3.821.978 4.859 2.728 1.547 2.609.629 5.946-2.051 7.452zM2.883 15.658c.427-3.605 2.392-6.762 5.24-8.829.153.831.441 1.618.842 2.336-1.825 1.528-3.122 3.638-3.583 6.031a8.194 8.194 0 0 0-2.499.462zm13.12 12.003c1.255 0 2.46-.21 3.581-.594a7.768 7.768 0 0 0 1.657 1.876 13.43 13.43 0 0 1-5.238 1.056c-1.861 0-3.632-.377-5.239-1.056a7.785 7.785 0 0 0 1.662-1.875 11.04 11.04 0 0 0 3.577.593z" id="path-1" class="cls-2" fill-rule="evenodd"/></svg>