<?xml version="1.0" encoding="utf-8"?>
<!-- Generator: Avocode 2.6.0 - http://avocode.com -->
<svg height="60" width="80" xmlns:xlink="http://www.w3.org/1999/xlink" xmlns="http://www.w3.org/2000/svg" viewBox="0 0 80 60">
    <path fill="#171717" fill-rule="evenodd" d="M 80.01 19.33 C 80.01 19.33 63.12 19.33 63.12 19.33 C 63.12 19.33 63.12 19.33 63.12 19.33 C 63.23 17.54 64.72 16.12 66.56 16.12 C 66.56 16.12 66.56 16.12 66.56 16.12 C 66.56 16.12 66.56 8.64 66.56 8.64 C 66.56 8.64 66.56 8.64 66.56 8.64 C 50.96 8.1 43.66 3.05 40.31 0.5 C 36.95 3.05 29.63 8.1 14.03 8.64 C 14.03 8.64 14.03 8.64 14.03 8.64 C 14.03 8.64 14.03 16.12 14.03 16.12 C 14.03 16.12 14.03 16.12 14.03 16.12 C 15.87 16.12 17.37 17.54 17.47 19.33 C 17.47 19.33 17.47 19.33 17.47 19.33 C 17.47 19.33 0.49 19.33 0.49 19.33 C 0.49 19.33 0.49 40.03 0.49 40.03 C 0.49 40.03 16.27 40.03 16.27 40.03 C 16.27 40.03 16.27 40.03 16.27 40.03 C 16.27 40.69 15.92 42.65 11.68 43.11 C 14.58 45.76 31.52 60 40.31 60 C 49.1 60 66.07 45.76 68.98 43.11 C 65.01 42.69 64.39 40.96 64.39 40.03 C 64.39 40.03 64.39 40.03 64.39 40.03 C 64.39 40.03 80.01 40.03 80.01 40.03 C 80.01 40.03 80.01 19.33 80.01 19.33 C 80.01 19.33 80.01 19.33 80.01 19.33 C 80.01 19.33 80.01 19.33 80.01 19.33 Z M 15.76 14.84 C 15.76 14.84 15.76 10.18 15.76 10.18 C 15.76 10.18 15.76 10.18 15.76 10.18 C 29.87 9.45 36.84 5.25 40.31 2.67 C 44.03 5.29 50.72 9.45 64.83 10.18 C 64.83 10.18 64.83 10.18 64.83 10.18 C 64.83 10.18 64.83 14.84 64.83 14.84 C 64.83 14.84 64.83 14.84 64.83 14.84 C 62.9 15.53 61.52 17.21 61.45 19.33 C 61.45 19.33 61.45 19.33 61.45 19.33 C 61.45 19.33 59.76 19.33 59.76 19.33 C 59.76 19.33 59.76 19.33 59.76 19.33 C 59.82 16.93 61.14 14.95 63.1 13.8 C 63.1 13.8 63.1 13.8 63.1 13.8 C 63.1 13.8 63.11 11.69 63.11 11.69 C 63.11 11.69 63.11 11.69 63.11 11.69 C 51.71 10.89 44.27 7.39 40.31 4.69 C 36.85 7.21 29.89 10.58 17.49 11.69 C 17.49 11.69 17.49 11.69 17.49 11.69 C 17.49 11.69 17.49 13.8 17.49 13.8 C 17.49 13.8 17.49 13.8 17.49 13.8 C 19.45 14.95 20.78 16.93 20.83 19.33 C 20.83 19.33 20.83 19.33 20.83 19.33 C 20.83 19.33 19.14 19.33 19.14 19.33 C 19.14 19.33 19.14 19.33 19.14 19.33 C 19.07 17.21 17.68 15.53 15.76 14.84 C 15.76 14.84 15.76 14.84 15.76 14.84 C 15.76 14.84 15.76 14.84 15.76 14.84 C 15.76 14.84 15.76 14.84 15.76 14.84 Z M 58.22 17.43 C 58.22 17.74 58.22 19.33 58.22 19.33 C 58.22 19.33 58.22 19.33 58.22 19.33 C 58.22 19.33 56.38 19.33 56.38 19.33 C 56.38 19.33 56.38 17.84 56.38 17.84 C 56.38 17.84 56.38 17.84 56.38 17.84 C 56.38 17.37 55.81 17.16 55.56 17.16 C 55.56 17.16 55.56 17.16 55.56 17.16 C 55.56 17.16 53.79 17.16 53.79 17.16 C 53.79 17.16 53.79 19.33 53.79 19.33 C 53.79 19.33 51.94 19.33 51.94 19.33 C 51.94 19.33 51.94 11.3 51.94 11.3 C 51.94 11.3 56.38 12.22 56.38 12.22 C 56.38 12.22 56.38 12.22 56.38 12.22 C 57.01 12.35 58.22 12.76 58.22 13.97 C 58.22 13.97 58.22 13.97 58.22 13.97 C 58.22 13.97 58.22 15.27 58.22 15.27 C 58.22 15.27 58.22 15.27 58.22 15.27 C 58.22 15.74 58.16 16.15 57.58 16.44 C 57.85 16.59 58.22 17.12 58.22 17.43 C 58.22 17.43 58.22 17.43 58.22 17.43 C 58.22 17.43 58.22 17.43 58.22 17.43 C 58.22 17.43 58.22 17.43 58.22 17.43 Z M 50.38 12.64 C 50.38 12.64 50.38 17.55 50.38 17.55 C 50.38 17.55 50.38 17.55 50.38 17.55 C 50.39 18.15 50.04 19.33 48.43 19.33 C 48.43 19.33 48.43 19.33 48.43 19.33 C 48.43 19.33 46.02 19.33 46.02 19.33 C 46.02 19.33 46.02 19.33 46.02 19.33 C 45.21 19.33 44.17 18.91 44.17 17.47 C 44.17 17.47 44.17 17.47 44.17 17.47 C 44.17 17.47 44.17 10.31 44.17 10.31 C 44.17 10.31 44.17 10.31 44.17 10.31 C 44.17 9.45 45.06 8.91 46.04 9.26 C 46.04 9.26 46.04 9.26 46.04 9.26 C 46.04 9.26 49.26 10.48 49.26 10.48 C 49.26 10.48 49.26 10.48 49.26 10.48 C 50.04 10.8 50.39 11.48 50.38 12.64 C 50.38 12.64 50.38 12.64 50.38 12.64 C 50.38 12.64 50.38 12.64 50.38 12.64 C 50.38 12.64 50.38 12.64 50.38 12.64 Z M 36.95 10.41 C 36.95 10.41 36.95 8.38 36.95 8.38 C 36.95 8.38 40.31 6.57 40.31 6.57 C 40.31 6.57 43.82 8.48 43.82 8.48 C 43.82 8.48 43.82 10.5 43.82 10.5 C 43.82 10.5 41.39 9.2 41.39 9.2 C 41.39 9.2 41.39 19.33 41.39 19.33 C 41.39 19.33 39.39 19.33 39.39 19.33 C 39.39 19.33 39.39 9.08 39.39 9.08 C 39.39 9.08 36.95 10.41 36.95 10.41 C 36.95 10.41 36.95 10.41 36.95 10.41 C 36.95 10.41 36.95 10.41 36.95 10.41 Z M 36.72 10.31 C 36.72 10.31 36.72 17.47 36.72 17.47 C 36.72 17.47 36.72 17.47 36.72 17.47 C 36.72 18.91 35.68 19.33 34.87 19.33 C 34.87 19.33 34.87 19.33 34.87 19.33 C 34.87 19.33 32.46 19.33 32.46 19.33 C 32.46 19.33 32.46 19.33 32.46 19.33 C 30.85 19.33 30.5 18.15 30.52 17.55 C 30.52 17.55 30.52 17.55 30.52 17.55 C 30.52 17.55 30.52 12.64 30.52 12.64 C 30.52 12.64 30.52 12.64 30.52 12.64 C 30.5 11.48 30.85 10.8 31.64 10.48 C 31.64 10.48 31.64 10.48 31.64 10.48 C 31.64 10.48 34.85 9.26 34.85 9.26 C 34.85 9.26 34.85 9.26 34.85 9.26 C 35.84 8.91 36.72 9.45 36.72 10.31 C 36.72 10.31 36.72 10.31 36.72 10.31 C 36.72 10.31 36.72 10.31 36.72 10.31 C 36.72 10.31 36.72 10.31 36.72 10.31 Z M 26.14 19.33 C 26.14 19.33 24.63 16.13 24.63 16.13 C 24.63 16.13 24.63 19.33 24.63 19.33 C 24.63 19.33 22.79 19.33 22.79 19.33 C 22.79 19.33 22.79 12.59 22.79 12.59 C 22.79 12.59 24.63 12.25 24.63 12.25 C 24.63 12.25 26.08 15.33 26.08 15.33 C 26.08 15.33 27.69 11.61 27.69 11.61 C 27.69 11.61 29.42 11.16 29.42 11.16 C 29.42 11.16 29.42 19.33 29.42 19.33 C 29.42 19.33 27.57 19.33 27.57 19.33 C 27.57 19.33 27.57 16.01 27.57 16.01 C 27.57 16.01 26.14 19.33 26.14 19.33 C 26.14 19.33 26.14 19.33 26.14 19.33 C 26.14 19.33 26.14 19.33 26.14 19.33 Z M 65.05 43.81 C 60.42 48.48 46.43 58.21 40.31 58.21 C 34.18 58.21 20.23 48.48 15.6 43.81 C 18 42.76 18.39 41.23 18.55 40.03 C 18.55 40.03 18.55 40.03 18.55 40.03 C 18.55 40.03 20.47 40.03 20.47 40.03 C 20.47 40.03 20.47 40.03 20.47 40.03 C 20.35 41.16 20.12 42.96 18.55 44.05 C 20.35 45.76 33.87 56.5 40.31 56.5 C 46.74 56.5 60.3 45.76 62.11 44.05 C 60.54 42.96 60.3 41.16 60.19 40.03 C 60.19 40.03 60.19 40.03 60.19 40.03 C 60.19 40.03 62.11 40.03 62.11 40.03 C 62.11 40.03 62.11 40.03 62.11 40.03 C 62.27 41.23 62.66 42.76 65.05 43.81 C 65.05 43.81 65.05 43.81 65.05 43.81 C 65.05 43.81 65.05 43.81 65.05 43.81 C 65.05 43.81 65.05 43.81 65.05 43.81 Z M 24.46 44.9 C 24.57 44.97 28.71 48.17 28.71 48.17 C 28.71 48.17 28.71 48.17 28.71 48.17 C 28.71 48.17 28.71 50.12 28.71 50.12 C 28.71 50.12 28.71 50.12 28.71 50.12 C 28.71 50.12 22.88 45.8 22.71 45.7 C 22.49 45.56 22.21 45.07 22.14 44.73 C 22.07 44.38 22.14 41.59 22.14 41.28 C 22.14 40.97 22.49 40.03 22.99 40.03 C 22.99 40.03 22.99 40.03 22.99 40.03 C 22.99 40.03 27.52 40.03 27.52 40.03 C 27.52 40.03 27.52 41.87 27.52 41.87 C 27.52 41.87 24.81 41.87 24.81 41.87 C 24.81 41.87 24.81 41.87 24.81 41.87 C 24.39 41.84 24.14 41.97 24.14 42.36 C 24.14 42.36 24.14 42.36 24.14 42.36 C 24.14 42.36 24.14 44.41 24.14 44.41 C 24.14 44.41 24.14 44.41 24.14 44.41 C 24.14 44.55 24.32 44.83 24.46 44.9 C 24.46 44.9 24.46 44.9 24.46 44.9 C 24.46 44.9 24.46 44.9 24.46 44.9 C 24.46 44.9 24.46 44.9 24.46 44.9 Z M 28.6 40.03 C 28.6 40.03 30.5 40.03 30.5 40.03 C 30.5 40.03 31.52 43.16 31.52 43.16 C 31.52 43.16 33.17 40.03 33.17 40.03 C 33.17 40.03 34.96 40.03 34.96 40.03 C 34.96 40.03 32.39 45.53 32.39 45.53 C 32.39 45.53 32.39 52.11 32.39 52.11 C 32.39 52.11 32.39 52.11 32.39 52.11 C 32.39 52.42 30.6 51.45 30.57 51.2 C 30.5 50.96 30.57 45.46 30.57 45.46 C 30.57 45.46 30.57 45.46 30.57 45.46 C 30.57 45.46 28.6 40.03 28.6 40.03 C 28.6 40.03 28.6 40.03 28.6 40.03 C 28.6 40.03 28.6 40.03 28.6 40.03 Z M 37.45 51.96 C 37.56 52.17 39.88 53.25 39.88 53.25 C 39.88 53.25 39.88 53.25 39.88 53.25 C 39.88 53.25 39.88 55.41 39.88 55.41 C 39.88 55.41 39.88 55.41 39.88 55.41 C 39.88 55.41 36.15 53.84 35.8 53.49 C 35.42 53.11 35.38 52.69 35.38 52.52 C 35.38 52.52 35.38 52.52 35.38 52.52 C 35.38 52.52 35.38 41.59 35.38 41.59 C 35.38 41.59 35.38 41.59 35.38 41.59 C 35.38 40.93 36.72 40.03 37.03 40.03 C 37.03 40.03 37.03 40.03 37.03 40.03 C 37.03 40.03 39.77 40.03 39.77 40.03 C 39.77 40.03 39.77 42.01 39.77 42.01 C 39.77 42.01 39.77 42.01 39.77 42.01 C 39.77 42.07 38.19 42.07 37.81 42.01 C 37.59 41.97 37.31 42.25 37.31 43.22 C 37.31 43.22 37.31 43.22 37.31 43.22 C 37.31 43.22 37.31 51.3 37.31 51.3 C 37.31 51.3 37.31 51.3 37.31 51.3 C 37.31 51.47 37.31 51.79 37.45 51.96 C 37.45 51.96 37.45 51.96 37.45 51.96 C 37.45 51.96 37.45 51.96 37.45 51.96 C 37.45 51.96 37.45 51.96 37.45 51.96 Z M 45.35 51.44 C 45.35 51.44 45.35 53.32 45.35 53.32 C 45.35 53.32 45.35 53.32 45.35 53.32 C 45.35 53.32 42.26 54.68 41.77 54.92 C 41.49 55.06 41.17 54.82 41.17 54.4 C 41.17 54.4 41.17 54.4 41.17 54.4 C 41.17 54.4 41.17 40.03 41.17 40.03 C 41.17 40.03 43.28 40.03 43.28 40.03 C 43.28 40.03 43.28 52.28 43.28 52.28 C 43.28 52.28 45.35 51.44 45.35 51.44 C 45.35 51.44 45.35 51.44 45.35 51.44 C 45.35 51.44 45.35 51.44 45.35 51.44 Z M 49.88 44.83 C 49.88 44.83 49.88 46.43 49.88 46.43 C 49.88 46.43 47.91 46.43 47.91 46.43 C 47.91 46.43 47.91 50.3 47.91 50.3 C 47.91 50.3 50.3 49.18 50.3 49.18 C 50.3 49.18 50.3 50.89 50.3 50.89 C 50.3 50.89 47.14 52.45 47.14 52.45 C 47.14 52.45 47.14 52.45 47.14 52.45 C 46.76 52.63 46.26 52.45 46.26 52.11 C 46.26 52.11 46.26 52.11 46.26 52.11 C 46.26 52.11 46.26 40.72 46.26 40.72 C 46.26 40.72 46.26 40.72 46.26 40.72 C 46.26 40.27 46.65 40.03 46.96 40.03 C 46.96 40.03 46.96 40.03 46.96 40.03 C 46.96 40.03 50.65 40.03 50.65 40.03 C 50.65 40.03 50.65 42.01 50.65 42.01 C 50.65 42.01 47.91 42.01 47.91 42.01 C 47.91 42.01 47.91 44.83 47.91 44.83 C 47.91 44.83 49.88 44.83 49.88 44.83 C 49.88 44.83 49.88 44.83 49.88 44.83 C 49.88 44.83 49.88 44.83 49.88 44.83 Z M 55.95 44.96 C 55.95 44.96 52.86 45.03 52.3 44.96 C 51.77 44.89 51.56 44.79 51.56 44.41 C 51.56 44.06 51.53 41.76 51.56 41.1 C 51.63 40.44 52.68 40.09 53.18 40.03 C 53.63 39.99 57.81 40.03 57.81 40.03 C 57.81 40.03 57.81 40.03 57.81 40.03 C 57.81 40.03 57.81 41.83 57.81 41.83 C 57.81 41.83 53.35 41.83 53.35 41.83 C 53.35 41.83 53.35 41.83 53.35 41.83 C 53.18 41.83 53.21 43.33 53.35 43.33 C 53.35 43.33 53.35 43.33 53.35 43.33 C 53.35 43.33 57.35 43.33 57.35 43.33 C 57.35 43.33 57.35 43.33 57.35 43.33 C 57.92 43.33 57.85 43.47 57.85 43.71 C 57.85 43.71 57.85 43.71 57.85 43.71 C 57.85 43.71 57.85 45.94 57.85 45.94 C 57.85 45.94 57.85 45.94 57.85 45.94 C 57.85 46.18 57.49 46.46 57.35 46.6 C 57.25 46.7 51.38 50.22 51.38 50.22 C 51.38 50.22 51.38 50.22 51.38 50.22 C 51.38 50.22 51.38 48.65 51.38 48.65 C 51.38 48.65 51.38 48.65 51.38 48.65 C 51.38 48.65 56.06 45.73 56.09 45.52 C 56.16 45.21 55.95 44.96 55.95 44.96 C 55.95 44.96 55.95 44.96 55.95 44.96 C 55.95 44.96 55.95 44.96 55.95 44.96 C 55.95 44.96 55.95 44.96 55.95 44.96 Z M 78.32 38.29 C 78.32 38.29 2.26 38.29 2.26 38.29 C 2.26 38.29 2.26 21.32 2.26 21.32 C 2.26 21.32 78.32 21.32 78.32 21.32 C 78.32 21.32 78.32 38.29 78.32 38.29 C 78.32 38.29 78.32 38.29 78.32 38.29 C 78.32 38.29 78.32 38.29 78.32 38.29 Z M 32.79 12.04 C 32.79 12.04 34.29 11.46 34.29 11.46 C 34.29 11.46 34.29 11.46 34.29 11.46 C 34.56 11.34 34.87 11.46 34.87 11.89 C 34.87 11.89 34.87 11.89 34.87 11.89 C 34.87 11.89 34.87 16.86 34.87 16.86 C 34.87 16.86 34.87 16.86 34.87 16.86 C 34.87 17.2 34.72 17.47 34.3 17.47 C 34.3 17.47 34.3 17.47 34.3 17.47 C 34.3 17.47 32.95 17.47 32.95 17.47 C 32.95 17.47 32.95 17.47 32.95 17.47 C 32.52 17.47 32.36 17.26 32.36 16.9 C 32.36 16.9 32.36 16.9 32.36 16.9 C 32.36 16.9 32.36 12.93 32.36 12.93 C 32.36 12.93 32.36 12.93 32.36 12.93 C 32.36 12.51 32.4 12.23 32.79 12.04 C 32.79 12.04 32.79 12.04 32.79 12.04 C 32.79 12.04 32.79 12.04 32.79 12.04 C 32.79 12.04 32.79 12.04 32.79 12.04 Z M 48.53 12.93 C 48.53 12.93 48.53 16.9 48.53 16.9 C 48.53 16.9 48.53 16.9 48.53 16.9 C 48.53 17.26 48.37 17.47 47.94 17.47 C 47.94 17.47 47.94 17.47 47.94 17.47 C 47.94 17.47 46.59 17.47 46.59 17.47 C 46.59 17.47 46.59 17.47 46.59 17.47 C 46.18 17.47 46.02 17.2 46.02 16.86 C 46.02 16.86 46.02 16.86 46.02 16.86 C 46.02 16.86 46.02 11.89 46.02 11.89 C 46.02 11.89 46.02 11.89 46.02 11.89 C 46.02 11.46 46.33 11.34 46.61 11.46 C 46.61 11.46 46.61 11.46 46.61 11.46 C 46.61 11.46 48.1 12.04 48.1 12.04 C 48.1 12.04 48.1 12.04 48.1 12.04 C 48.49 12.23 48.53 12.51 48.53 12.93 C 48.53 12.93 48.53 12.93 48.53 12.93 C 48.53 12.93 48.53 12.93 48.53 12.93 C 48.53 12.93 48.53 12.93 48.53 12.93 Z M 55.99 13.91 C 56.38 13.99 56.38 14.36 56.38 14.69 C 56.38 15.02 56.32 15.33 55.97 15.33 C 55.97 15.33 55.97 15.33 55.97 15.33 C 55.97 15.33 53.79 15.33 53.79 15.33 C 53.79 15.33 53.79 13.46 53.79 13.46 C 53.79 13.46 55.99 13.91 55.99 13.91 C 55.99 13.91 55.99 13.91 55.99 13.91 C 55.99 13.91 55.99 13.91 55.99 13.91 Z M 4.03 22.88 C 4.03 22.88 4.03 36.54 4.03 36.54 C 4.03 36.54 76.59 36.54 76.59 36.54 C 76.59 36.54 76.59 22.88 76.59 22.88 C 76.59 22.88 4.03 22.88 4.03 22.88 C 4.03 22.88 4.03 22.88 4.03 22.88 C 4.03 22.88 4.03 22.88 4.03 22.88 Z M 10.8 34.94 C 10.8 34.94 9.2 34.94 9.2 34.94 C 9.2 34.94 9.2 30.37 9.2 30.37 C 9.2 30.37 7.94 30.37 7.94 30.37 C 7.94 30.37 7.94 34.94 7.94 34.94 C 7.94 34.94 6.34 34.94 6.34 34.94 C 6.34 34.94 6.34 24.3 6.34 24.3 C 6.34 24.3 7.94 24.3 7.94 24.3 C 7.94 24.3 7.94 28.56 7.94 28.56 C 7.94 28.56 9.2 28.56 9.2 28.56 C 9.2 28.56 9.2 24.3 9.2 24.3 C 9.2 24.3 10.8 24.3 10.8 24.3 C 10.8 24.3 10.8 34.94 10.8 34.94 C 10.8 34.94 10.8 34.94 10.8 34.94 C 10.8 34.94 10.8 34.94 10.8 34.94 Z M 14.52 34.94 C 14.52 34.94 14.23 32.17 14.23 32.17 C 14.23 32.17 13.06 32.17 13.06 32.17 C 13.06 32.17 12.74 34.94 12.74 34.94 C 12.74 34.94 11.29 34.94 11.29 34.94 C 11.29 34.94 12.51 24.3 12.51 24.3 C 12.51 24.3 14.91 24.3 14.91 24.3 C 14.91 24.3 16.13 34.94 16.13 34.94 C 16.13 34.94 14.52 34.94 14.52 34.94 C 14.52 34.94 14.52 34.94 14.52 34.94 C 14.52 34.94 14.52 34.94 14.52 34.94 Z M 21.2 27.64 C 21.2 28.43 21.06 29.05 20.48 29.5 C 20.57 29.59 21.18 30 21.2 30.72 C 21.2 30.72 21.2 30.72 21.2 30.72 C 21.2 30.72 21.2 34.94 21.2 34.94 C 21.2 34.94 19.61 34.94 19.61 34.94 C 19.61 34.94 19.61 31.38 19.61 31.38 C 19.61 31.38 19.61 31.38 19.61 31.38 C 19.61 30.74 19.33 30.54 18.31 30.54 C 18.31 30.54 18.31 30.54 18.31 30.54 C 18.31 30.54 18.31 34.94 18.31 34.94 C 18.31 34.94 16.72 34.94 16.72 34.94 C 16.72 34.94 16.72 24.3 16.72 24.3 C 16.72 24.3 19.36 24.3 19.36 24.3 C 19.36 24.3 19.36 24.3 19.36 24.3 C 20.64 24.3 21.2 24.75 21.2 26.13 C 21.2 26.13 21.2 26.13 21.2 26.13 C 21.2 26.13 21.2 27.64 21.2 27.64 C 21.2 27.64 21.2 27.64 21.2 27.64 C 21.2 27.64 21.2 27.64 21.2 27.64 Z M 25.35 34.94 C 25.35 34.94 22.13 34.94 22.13 34.94 C 22.13 34.94 22.13 24.3 22.13 24.3 C 22.13 24.3 23.73 24.3 23.73 24.3 C 23.73 24.3 23.73 33.26 23.73 33.26 C 23.73 33.26 25.35 33.26 25.35 33.26 C 25.35 33.26 25.35 34.94 25.35 34.94 C 25.35 34.94 25.35 34.94 25.35 34.94 C 25.35 34.94 25.35 34.94 25.35 34.94 Z M 29.21 34.94 C 29.21 34.94 25.88 34.94 25.88 34.94 C 25.88 34.94 25.88 24.3 25.88 24.3 C 25.88 24.3 29.18 24.3 29.18 24.3 C 29.18 24.3 29.18 25.96 29.18 25.96 C 29.18 25.96 27.48 25.96 27.48 25.96 C 27.48 25.96 27.48 28.56 27.48 28.56 C 27.48 28.56 29.11 28.56 29.11 28.56 C 29.11 28.56 29.11 30.24 29.11 30.24 C 29.11 30.24 27.48 30.24 27.48 30.24 C 27.48 30.24 27.48 33.26 27.48 33.26 C 27.48 33.26 29.21 33.26 29.21 33.26 C 29.21 33.26 29.21 34.94 29.21 34.94 C 29.21 34.94 29.21 34.94 29.21 34.94 C 29.21 34.94 29.21 34.94 29.21 34.94 Z M 32.92 34.94 C 32.92 34.94 31.32 34.94 31.32 34.94 C 31.32 34.94 31.32 30.97 31.32 30.97 C 31.32 30.97 29.68 24.3 29.68 24.3 C 29.68 24.3 31.32 24.3 31.32 24.3 C 31.32 24.3 32.18 28.02 32.18 28.02 C 32.18 28.02 33.07 24.3 33.07 24.3 C 33.07 24.3 34.56 24.3 34.56 24.3 C 34.56 24.3 32.92 30.89 32.92 30.89 C 32.92 30.89 32.92 34.94 32.92 34.94 C 32.92 34.94 32.92 34.94 32.92 34.94 C 32.92 34.94 32.92 34.94 32.92 34.94 Z M 36.99 30.25 C 36.99 30.25 34.07 30.25 34.07 30.25 C 34.07 30.25 34.07 28.91 34.07 28.91 C 34.07 28.91 36.99 28.91 36.99 28.91 C 36.99 28.91 36.99 30.25 36.99 30.25 C 36.99 30.25 36.99 30.25 36.99 30.25 C 36.99 30.25 36.99 30.25 36.99 30.25 Z M 42.03 33.01 C 42.03 34.03 41.36 34.94 40.13 34.94 C 40.13 34.94 40.13 34.94 40.13 34.94 C 40.13 34.94 37.85 34.94 37.85 34.94 C 37.85 34.94 37.85 24.3 37.85 24.3 C 37.85 24.3 39.78 24.3 39.78 24.3 C 39.78 24.3 39.78 24.3 39.78 24.3 C 41.36 24.3 42.03 24.84 42.03 26.71 C 42.03 26.71 42.03 26.71 42.03 26.71 C 42.03 26.71 42.03 33.01 42.03 33.01 C 42.03 33.01 42.03 33.01 42.03 33.01 C 42.03 33.01 42.03 33.01 42.03 33.01 Z M 45.68 34.94 C 45.68 34.94 45.39 32.17 45.39 32.17 C 45.39 32.17 44.22 32.17 44.22 32.17 C 44.22 32.17 43.9 34.94 43.9 34.94 C 43.9 34.94 42.45 34.94 42.45 34.94 C 42.45 34.94 43.67 24.3 43.67 24.3 C 43.67 24.3 46.07 24.3 46.07 24.3 C 46.07 24.3 47.29 34.94 47.29 34.94 C 47.29 34.94 45.68 34.94 45.68 34.94 C 45.68 34.94 45.68 34.94 45.68 34.94 C 45.68 34.94 45.68 34.94 45.68 34.94 Z M 50.07 34.94 C 50.07 34.94 48.29 34.94 48.29 34.94 C 48.29 34.94 46.79 24.3 46.79 24.3 C 46.79 24.3 48.41 24.3 48.41 24.3 C 48.41 24.3 49.19 30.7 49.19 30.7 C 49.19 30.7 49.96 24.3 49.96 24.3 C 49.96 24.3 51.57 24.3 51.57 24.3 C 51.57 24.3 50.07 34.94 50.07 34.94 C 50.07 34.94 50.07 34.94 50.07 34.94 C 50.07 34.94 50.07 34.94 50.07 34.94 Z M 53.62 34.94 C 53.62 34.94 52.02 34.94 52.02 34.94 C 52.02 34.94 52.02 24.3 52.02 24.3 C 52.02 24.3 53.62 24.3 53.62 24.3 C 53.62 24.3 53.62 34.94 53.62 34.94 C 53.62 34.94 53.62 34.94 53.62 34.94 C 53.62 34.94 53.62 34.94 53.62 34.94 Z M 58.74 33.01 C 58.74 34.03 58.08 34.94 56.85 34.94 C 56.85 34.94 56.85 34.94 56.85 34.94 C 56.85 34.94 54.57 34.94 54.57 34.94 C 54.57 34.94 54.57 24.3 54.57 24.3 C 54.57 24.3 56.5 24.3 56.5 24.3 C 56.5 24.3 56.5 24.3 56.5 24.3 C 58.08 24.3 58.74 24.84 58.74 26.71 C 58.74 26.71 58.74 26.71 58.74 26.71 C 58.74 26.71 58.74 33.01 58.74 33.01 C 58.74 33.01 58.74 33.01 58.74 33.01 C 58.74 33.01 58.74 33.01 58.74 33.01 Z M 63.94 27.91 C 63.94 27.91 62.35 27.91 62.35 27.91 C 62.35 27.91 62.35 26.43 62.35 26.43 C 62.35 26.43 62.35 26.43 62.35 26.43 C 62.35 25.89 62.02 25.77 61.71 25.77 C 61.38 25.77 61.07 25.89 61.07 26.43 C 61.07 26.43 61.07 26.43 61.07 26.43 C 61.07 26.43 61.07 27.61 61.07 27.61 C 61.07 27.61 61.07 27.61 61.07 27.61 C 61.07 28.37 63.92 29.72 63.92 30.79 C 63.92 30.79 63.92 30.79 63.92 30.79 C 63.92 30.79 63.92 33.36 63.92 33.36 C 63.92 33.36 63.92 33.36 63.92 33.36 C 63.92 34.75 62.69 35.15 61.69 35.15 C 60.71 35.15 59.49 34.75 59.49 33.36 C 59.49 33.36 59.49 33.36 59.49 33.36 C 59.49 33.36 59.49 31.04 59.49 31.04 C 59.49 31.04 61.09 31.04 61.09 31.04 C 61.09 31.04 61.09 32.93 61.09 32.93 C 61.09 32.93 61.09 32.93 61.09 32.93 C 61.09 33.47 61.38 33.59 61.71 33.59 C 62.02 33.59 62.33 33.47 62.33 32.93 C 62.33 32.93 62.33 32.93 62.33 32.93 C 62.33 32.93 62.33 31.81 62.33 31.81 C 62.33 31.81 62.33 31.81 62.33 31.81 C 62.33 30.32 59.47 29.9 59.47 28.17 C 59.47 28.17 59.47 28.17 59.47 28.17 C 59.47 28.17 59.47 25.89 59.47 25.89 C 59.47 25.89 59.47 25.89 59.47 25.89 C 59.47 24.5 60.71 24.09 61.69 24.09 C 62.69 24.09 63.94 24.5 63.94 25.89 C 63.94 25.89 63.94 25.89 63.94 25.89 C 63.94 25.89 63.94 27.91 63.94 27.91 C 63.94 27.91 63.94 27.91 63.94 27.91 C 63.94 27.91 63.94 27.91 63.94 27.91 Z M 69.13 33.36 C 69.13 34.75 67.84 35.15 66.86 35.15 C 65.88 35.15 64.63 34.75 64.63 33.36 C 64.63 33.36 64.63 33.36 64.63 33.36 C 64.63 33.36 64.63 25.89 64.63 25.89 C 64.63 25.89 64.63 25.89 64.63 25.89 C 64.63 24.5 65.88 24.09 66.86 24.09 C 67.84 24.09 69.13 24.5 69.13 25.89 C 69.13 25.89 69.13 25.89 69.13 25.89 C 69.13 25.89 69.13 33.36 69.13 33.36 C 69.13 33.36 69.13 33.36 69.13 33.36 C 69.13 33.36 69.13 33.36 69.13 33.36 Z M 74.62 34.94 C 74.62 34.94 72.66 34.94 72.66 34.94 C 72.66 34.94 71.39 28.89 71.39 28.89 C 71.39 28.89 71.39 34.94 71.39 34.94 C 71.39 34.94 69.79 34.94 69.79 34.94 C 69.79 34.94 69.79 24.3 69.79 24.3 C 69.79 24.3 71.95 24.3 71.95 24.3 C 71.95 24.3 72.99 29.71 72.99 29.71 C 72.99 29.71 72.99 24.3 72.99 24.3 C 72.99 24.3 74.62 24.3 74.62 24.3 C 74.62 24.3 74.62 34.94 74.62 34.94 C 74.62 34.94 74.62 34.94 74.62 34.94 C 74.62 34.94 74.62 34.94 74.62 34.94 Z M 13.25 30.38 C 13.25 30.38 13.63 26.24 13.63 26.24 C 13.63 26.24 13.73 26.24 13.73 26.24 C 13.73 26.24 14.04 30.38 14.04 30.38 C 14.04 30.38 13.25 30.38 13.25 30.38 C 13.25 30.38 13.25 30.38 13.25 30.38 C 13.25 30.38 13.25 30.38 13.25 30.38 Z M 18.31 25.77 C 18.31 25.77 18.94 25.77 18.94 25.77 C 18.94 25.77 18.94 25.77 18.94 25.77 C 19.31 25.77 19.55 26.02 19.55 26.43 C 19.55 26.43 19.55 26.43 19.55 26.43 C 19.55 26.43 19.55 28.02 19.55 28.02 C 19.55 28.02 19.55 28.02 19.55 28.02 C 19.55 28.41 19.43 28.89 18.87 28.89 C 18.87 28.89 18.87 28.89 18.87 28.89 C 18.87 28.89 18.31 28.89 18.31 28.89 C 18.31 28.89 18.31 25.77 18.31 25.77 C 18.31 25.77 18.31 25.77 18.31 25.77 C 18.31 25.77 18.31 25.77 18.31 25.77 Z M 39.45 25.98 C 39.45 25.98 39.83 25.98 39.83 25.98 C 39.83 25.98 39.83 25.98 39.83 25.98 C 40.23 25.98 40.43 26.09 40.43 26.77 C 40.43 26.77 40.43 26.77 40.43 26.77 C 40.43 26.77 40.43 32.47 40.43 32.47 C 40.43 32.47 40.43 32.47 40.43 32.47 C 40.43 33.16 40.23 33.26 39.83 33.26 C 39.83 33.26 39.83 33.26 39.83 33.26 C 39.83 33.26 39.45 33.26 39.45 33.26 C 39.45 33.26 39.45 25.98 39.45 25.98 C 39.45 25.98 39.45 25.98 39.45 25.98 C 39.45 25.98 39.45 25.98 39.45 25.98 Z M 44.41 30.38 C 44.41 30.38 44.79 26.24 44.79 26.24 C 44.79 26.24 44.89 26.24 44.89 26.24 C 44.89 26.24 45.2 30.38 45.2 30.38 C 45.2 30.38 44.41 30.38 44.41 30.38 C 44.41 30.38 44.41 30.38 44.41 30.38 C 44.41 30.38 44.41 30.38 44.41 30.38 Z M 56.17 25.98 C 56.17 25.98 56.55 25.98 56.55 25.98 C 56.55 25.98 56.55 25.98 56.55 25.98 C 56.95 25.98 57.15 26.09 57.15 26.77 C 57.15 26.77 57.15 26.77 57.15 26.77 C 57.15 26.77 57.15 32.47 57.15 32.47 C 57.15 32.47 57.15 32.47 57.15 32.47 C 57.15 33.16 56.95 33.26 56.55 33.26 C 56.55 33.26 56.55 33.26 56.55 33.26 C 56.55 33.26 56.17 33.26 56.17 33.26 C 56.17 33.26 56.17 25.98 56.17 25.98 C 56.17 25.98 56.17 25.98 56.17 25.98 C 56.17 25.98 56.17 25.98 56.17 25.98 Z M 66.22 32.72 C 66.22 32.72 66.22 26.47 66.22 26.47 C 66.22 26.47 66.22 26.47 66.22 26.47 C 66.22 25.93 66.55 25.81 66.88 25.81 C 67.21 25.81 67.53 25.93 67.53 26.47 C 67.53 26.47 67.53 26.47 67.53 26.47 C 67.53 26.47 67.53 32.72 67.53 32.72 C 67.53 32.72 67.53 32.72 67.53 32.72 C 67.53 33.26 67.21 33.38 66.88 33.38 C 66.55 33.38 66.22 33.26 66.22 32.72 C 66.22 32.72 66.22 32.72 66.22 32.72 C 66.22 32.72 66.22 32.72 66.22 32.72 C 66.22 32.72 66.22 32.72 66.22 32.72 Z" />
</svg>