<svg xmlns="http://www.w3.org/2000/svg" width="52" height="49"><g fill="none" fill-rule="evenodd" stroke-width="2"><path stroke="#1476F2" d="M30.348 43.628C30.348 46.042 28.4 48 26 48s-4.348-1.958-4.348-4.372c0-2.415 1.947-4.372 4.348-4.372s4.348 1.957 4.348 4.372zm0-21.861c0 2.415-1.947 4.373-4.348 4.373s-4.348-1.958-4.348-4.373c0-2.414 1.947-4.372 4.348-4.372s4.348 1.958 4.348 4.372z"/><path stroke="#505050" d="M21.652 5.372c0 2.415-1.947 4.372-4.348 4.372-2.4 0-4.347-1.957-4.347-4.372C12.957 2.958 14.903 1 17.304 1c2.401 0 4.348 1.958 4.348 4.372z"/><path stroke="#1476F2" d="M26 37.07V26.14"/><path stroke="#505050" d="M22.74 15.21l-3.262-5.466"/><path stroke="#1476F2" d="M33.609 29.419c0 2.414 1.946 4.372 4.348 4.372 2.4 0 4.347-1.958 4.347-4.372 0-2.415-1.946-4.372-4.347-4.372-2.402 0-4.348 1.957-4.348 4.372z"/><path stroke="#505050" d="M30.348 5.372c0 2.415 1.947 4.372 4.348 4.372 2.4 0 4.347-1.957 4.347-4.372C39.043 2.958 37.097 1 34.696 1c-2.401 0-4.348 1.958-4.348 4.372zM42.304 22.86l2.174-3.279"/><path stroke="#1476F2" d="M31.435 38.163l3.836-5.465"/><path stroke="#505050" d="M51 15.21c0 2.414-1.947 4.371-4.348 4.371-2.4 0-4.348-1.957-4.348-4.372 0-2.414 1.947-4.372 4.348-4.372S51 12.795 51 15.21z"/><path stroke="#1476F2" d="M18.391 29.419c0 2.414-1.946 4.372-4.348 4.372-2.4 0-4.347-1.958-4.347-4.372 0-2.415 1.946-4.372 4.347-4.372 2.402 0 4.348 1.957 4.348 4.372z"/><path stroke="#505050" d="M9.696 22.86l-2.174-3.279"/><path stroke="#1476F2" d="M20.565 38.163l-3.836-5.465"/><path stroke="#505050" d="M1 15.21c0 2.414 1.947 4.371 4.348 4.371 2.4 0 4.348-1.957 4.348-4.372 0-2.414-1.947-4.372-4.348-4.372S1 12.795 1 15.21zm28.26 0l3.262-5.466"/></g></svg>