<svg xmlns="http://www.w3.org/2000/svg" width="52" height="52"><g fill="none" fill-rule="evenodd" stroke-linejoin="round" stroke-width="2"><path stroke="#323232" d="M28.907 7.977V2.163h-9.302v5.26a18.488 18.488 0 0 0-4.785 1.982l-3.72-3.72-6.578 6.578 3.72 3.72a18.488 18.488 0 0 0-1.982 4.784H1v9.303h5.26a18.488 18.488 0 0 0 1.982 4.785l-3.72 3.72 6.578 6.577 3.72-3.72a18.488 18.488 0 0 0 4.785 1.982v5.26h9.302V42.86"/><path stroke="#3F7FE7" d="M31.233 12.628h1.162l5.814-5.814m.001 38.372l-6.977-6.977h-6.977c-7.064 0-12.79-5.726-12.79-12.79 0-7.064 5.726-12.791 12.79-12.791"/><path stroke="#3F7FE7" d="M25.419 31.233h-1.163a5.815 5.815 0 0 1 0-11.628h9.302l4.651-4.652h5.814m0 22.094h-4.65l-5.815-5.814h-1.163M44.023 4.488a3.488 3.488 0 1 1-6.976 0 3.488 3.488 0 0 1 6.976 0zM51 14.953a3.488 3.488 0 1 1-6.976 0 3.488 3.488 0 0 1 6.976 0zm0 10.466a3.488 3.488 0 1 1-6.976 0 3.488 3.488 0 0 1 6.976 0zm0 11.628a3.488 3.488 0 1 1-6.976 0 3.488 3.488 0 0 1 6.976 0zm-6.977 10.465a3.488 3.488 0 1 1-6.976 0 3.488 3.488 0 0 1 6.976 0zM32.395 25.419H42.86m-19.767 0h2.326m2.325 0h2.326m-2.326 5.814h2.326m-3.489-18.605h2.326"/></g></svg>