<?xml version="1.0" encoding="utf-8"?>
<!-- Generator: Adobe Illustrator 19.1.0, SVG Export Plug-In . SVG Version: 6.00 Build 0)  -->
<svg version="1.1" id="Слой_1" xmlns="http://www.w3.org/2000/svg" xmlns:xlink="http://www.w3.org/1999/xlink" x="0px" y="0px"
	 viewBox="0 0 18.626 13.337" style="enable-background:new 0 0 18.626 13.337;" xml:space="preserve">
<style type="text/css">
	.st0{fill-rule:evenodd;clip-rule:evenodd;fill:#FFFFFF;}
	.st1{fill:#1E1E1C;}
</style>
<g>
	<g>
		<g>
			<path class="st0" d="M15.04,6.823l-0.431-0.431l-1.538,1.535c-0.206-0.128-0.444-0.196-0.693-0.196
				c-0.354,0-0.686,0.137-0.936,0.387c-0.516,0.516-0.516,1.356,0,1.871c0.25,0.25,0.582,0.388,0.936,0.388
				c0.353,0,0.686-0.138,0.936-0.388c0.249-0.249,0.388-0.582,0.388-0.935c0-0.25-0.069-0.489-0.197-0.696L15.04,6.823z
				 M12.881,9.558c-0.134,0.133-0.318,0.201-0.503,0.201c-0.184,0-0.369-0.068-0.504-0.201c-0.277-0.278-0.277-0.731,0-1.008
				c0.135-0.135,0.313-0.209,0.504-0.209c0.189,0,0.369,0.075,0.503,0.209c0.136,0.135,0.21,0.314,0.21,0.504
				C13.091,9.244,13.017,9.422,12.881,9.558z"/>
			<path class="st1" d="M12.378,10.526c-0.394,0-0.764-0.153-1.041-0.432c-0.574-0.574-0.574-1.509,0-2.083
				c0.443-0.444,1.159-0.553,1.709-0.271l1.457-1.455c0.06-0.059,0.154-0.059,0.213,0l0.43,0.431c0.059,0.059,0.059,0.153,0,0.212
				L13.69,8.384c0.105,0.207,0.16,0.437,0.16,0.67c0,0.393-0.153,0.763-0.432,1.04C13.142,10.373,12.771,10.526,12.378,10.526z
				 M12.378,7.881c-0.314,0-0.608,0.122-0.829,0.343c-0.457,0.458-0.457,1.201,0,1.659c0.441,0.444,1.215,0.444,1.658,0
				c0.222-0.221,0.344-0.516,0.344-0.828c0-0.219-0.06-0.432-0.175-0.618c-0.036-0.059-0.027-0.135,0.022-0.184l1.43-1.429
				l-0.219-0.219l-1.432,1.429c-0.049,0.049-0.125,0.057-0.184,0.022C12.81,7.941,12.597,7.881,12.378,7.881z M12.379,9.91
				c-0.231,0-0.453-0.089-0.61-0.245c-0.337-0.337-0.337-0.885,0-1.221c0.327-0.327,0.895-0.326,1.219,0.001
				c0.163,0.162,0.253,0.379,0.253,0.609c0,0.229-0.09,0.446-0.253,0.61C12.831,9.819,12.61,9.909,12.379,9.91z M12.378,8.491
				c-0.15,0-0.291,0.059-0.397,0.166c-0.22,0.219-0.22,0.576,0,0.795c0.201,0.201,0.595,0.199,0.794,0
				c0.107-0.107,0.166-0.248,0.166-0.398c0-0.15-0.059-0.292-0.166-0.398C12.669,8.549,12.528,8.491,12.378,8.491z"/>
		</g>
		<g>
			<path class="st0" d="M12.632,2.955v1.526c1.074,0.059,2.048,0.487,2.799,1.16l1.08-1.081C15.482,3.614,14.126,3.016,12.632,2.955
				z"/>
			<path class="st1" d="M15.431,5.792c-0.035,0-0.071-0.013-0.1-0.038c-0.747-0.668-1.708-1.067-2.707-1.122
				c-0.08-0.005-0.142-0.07-0.142-0.15V2.955c0-0.041,0.017-0.08,0.046-0.108c0.029-0.028,0.066-0.043,0.109-0.041
				c1.476,0.06,2.888,0.645,3.975,1.645c0.031,0.028,0.048,0.066,0.049,0.107c0.001,0.041-0.016,0.08-0.044,0.109l-1.08,1.081
				C15.508,5.777,15.47,5.792,15.431,5.792z M12.782,4.341c0.969,0.083,1.896,0.468,2.642,1.095l0.869-0.87
				c-0.98-0.855-2.215-1.366-3.511-1.454V4.341z"/>
		</g>
		<g>
			<path class="st0" d="M16.949,9.308c-0.059,1.072-0.487,2.046-1.16,2.797l1.081,1.081c0.947-1.029,1.545-2.384,1.607-3.878H16.949
				z"/>
			<path class="st1" d="M16.87,13.336c-0.04,0-0.078-0.016-0.106-0.044l-1.08-1.081c-0.057-0.056-0.059-0.147-0.006-0.206
				c0.669-0.747,1.067-1.708,1.122-2.705c0.004-0.08,0.07-0.142,0.149-0.142h1.527c0.041,0,0.079,0.017,0.108,0.046
				c0.028,0.029,0.043,0.069,0.041,0.109c-0.06,1.476-0.645,2.887-1.647,3.974C16.952,13.319,16.915,13.341,16.87,13.336z
				 M15.994,12.099l0.87,0.87c0.854-0.978,1.367-2.214,1.454-3.51H17.09C17.007,10.426,16.622,11.353,15.994,12.099z"/>
		</g>
		<g>
			<path class="st0" d="M7.807,9.308H6.279c0.062,1.494,0.659,2.849,1.606,3.878l1.08-1.081C8.293,11.354,7.866,10.38,7.807,9.308z"
				/>
			<path class="st1" d="M7.886,13.336c-0.04-0.002-0.081-0.018-0.109-0.048C6.774,12.201,6.19,10.79,6.13,9.314
				c-0.002-0.04,0.014-0.08,0.041-0.109C6.2,9.175,6.238,9.158,6.279,9.158h1.527c0.079,0,0.145,0.062,0.149,0.142
				c0.056,0.999,0.453,1.96,1.121,2.705c0.053,0.059,0.051,0.15-0.006,0.206l-1.079,1.081C7.964,13.32,7.926,13.336,7.886,13.336z
				 M6.437,9.458c0.088,1.295,0.6,2.531,1.454,3.51l0.869-0.87c-0.627-0.744-1.011-1.672-1.094-2.64H6.437z"/>
		</g>
		<g>
			<path class="st0" d="M9.325,5.642c0.752-0.673,1.726-1.101,2.799-1.16V2.955c-1.494,0.061-2.85,0.659-3.879,1.606L9.325,5.642z"
				/>
			<path class="st1" d="M9.325,5.792c-0.039,0-0.076-0.015-0.106-0.044L8.139,4.667C8.11,4.638,8.095,4.599,8.095,4.558
				c0.001-0.041,0.019-0.08,0.049-0.107c1.088-1.001,2.5-1.585,3.975-1.645c0.038-0.001,0.08,0.013,0.109,0.041
				c0.029,0.029,0.046,0.067,0.046,0.108v1.526c0,0.08-0.062,0.145-0.142,0.15c-0.998,0.055-1.959,0.454-2.706,1.122
				C9.396,5.779,9.361,5.792,9.325,5.792z M8.463,4.567l0.869,0.87c0.745-0.627,1.674-1.012,2.642-1.095V3.113
				C10.679,3.201,9.443,3.712,8.463,4.567z"/>
		</g>
		<g>
			<path class="st0" d="M7.807,8.799c0.06-1.073,0.486-2.047,1.159-2.798l-1.08-1.081C6.938,5.95,6.341,7.306,6.279,8.799H7.807z"/>
			<path class="st1" d="M7.807,8.949H6.279c-0.041,0-0.079-0.017-0.108-0.046C6.143,8.874,6.128,8.833,6.13,8.793
				C6.19,7.317,6.774,5.906,7.776,4.819c0.027-0.031,0.066-0.044,0.109-0.048c0.04,0,0.078,0.016,0.106,0.044l1.079,1.08
				C9.128,5.952,9.13,6.043,9.077,6.102C8.409,6.847,8.012,7.808,7.956,8.807C7.952,8.887,7.886,8.949,7.807,8.949z M6.437,8.649
				h1.23C7.75,7.68,8.134,6.753,8.761,6.008l-0.869-0.87C7.037,6.117,6.525,7.353,6.437,8.649z"/>
		</g>
		<g>
			<path class="st0" d="M15.789,6.002c0.673,0.751,1.102,1.725,1.16,2.798h1.527c-0.062-1.494-0.659-2.85-1.607-3.878L15.789,6.002z
				"/>
			<path class="st1" d="M18.477,8.949h-1.527c-0.079,0-0.146-0.062-0.149-0.142c-0.055-0.998-0.453-1.959-1.122-2.706
				c-0.053-0.059-0.051-0.15,0.006-0.207l1.08-1.08c0.029-0.029,0.069-0.048,0.109-0.044c0.041,0.001,0.079,0.018,0.106,0.048
				c1.002,1.086,1.587,2.498,1.647,3.974c0.002,0.04-0.013,0.08-0.041,0.109C18.556,8.933,18.518,8.949,18.477,8.949z M17.09,8.649
				h1.229c-0.087-1.296-0.6-2.532-1.454-3.51l-0.87,0.87C16.622,6.753,17.007,7.682,17.09,8.649z"/>
		</g>
	</g>
	<g>
		<g>
			<path class="st0" d="M10.482,5.708V4.924l-1.141-0.23C9.297,4.397,9.22,4.11,9.112,3.838l0.872-0.766l-0.39-0.679L8.492,2.765
				c0,0,0.001,0,0.001,0.002L8.491,2.766l0.001,0C8.304,2.533,8.09,2.32,7.856,2.133l0.01,0.006l0.371-1.102l-0.68-0.392L6.79,1.518
				L6.8,1.523C6.52,1.414,6.226,1.334,5.921,1.289h0.015L5.708,0.15H5.313H4.922l-0.23,1.139h0.02
				C4.405,1.334,4.11,1.414,3.831,1.523L3.84,1.518L3.073,0.645L2.393,1.037l0.371,1.101l0.011-0.006
				C2.54,2.319,2.325,2.531,2.138,2.765v0L2.137,2.767c0-0.002,0.001-0.002,0.001-0.002L1.037,2.393L0.645,3.072l0.872,0.766
				C1.41,4.11,1.333,4.397,1.287,4.695L0.15,4.924v0.784l1.136,0.228c0.046,0.297,0.124,0.585,0.23,0.857l-0.87,0.764l0.392,0.681
				l1.101-0.373c0.187,0.234,0.4,0.445,0.636,0.633l-0.01-0.006L2.393,9.594l0.681,0.392L3.84,9.113
				c0.275,0.107,0.566,0.185,0.865,0.23H4.692l0.23,1.14h0.392h0.392l0.23-1.14h-0.01c0.3-0.045,0.589-0.123,0.864-0.23l0.768,0.874
				l0.68-0.392L7.864,8.493L7.857,8.498C8.091,8.311,8.304,8.1,8.491,7.866l1.103,0.373l0.39-0.681L9.113,6.793
				C9.22,6.521,9.297,6.234,9.342,5.937L10.482,5.708z M5.316,6.648H5.313C4.575,6.647,3.981,6.05,3.981,5.317
				c0-0.736,0.594-1.332,1.332-1.333h0.003c0.734,0,1.331,0.595,1.331,1.333C6.647,6.051,6.051,6.648,5.316,6.648z"/>
			<path class="st1" d="M5.705,10.632H4.922c-0.071,0-0.133-0.05-0.148-0.121l-0.209-1.04C4.334,9.43,4.105,9.369,3.884,9.29
				l-0.697,0.796c-0.048,0.054-0.126,0.067-0.188,0.031L2.317,9.724c-0.063-0.036-0.09-0.11-0.067-0.178l0.339-1.004
				C2.406,8.388,2.237,8.22,2.087,8.041L1.085,8.38C1.017,8.405,0.942,8.375,0.907,8.314L0.515,7.632
				C0.479,7.57,0.493,7.491,0.546,7.444l0.793-0.695c-0.08-0.222-0.142-0.452-0.184-0.686L0.121,5.856C0.051,5.841,0,5.78,0,5.708
				V4.924c0-0.071,0.051-0.133,0.12-0.147l1.036-0.209c0.042-0.235,0.105-0.465,0.185-0.687L0.546,3.184
				C0.492,3.137,0.479,3.059,0.515,2.997l0.393-0.679c0.036-0.061,0.11-0.089,0.178-0.067L2.089,2.59
				c0.146-0.175,0.316-0.344,0.5-0.5L2.25,1.086C2.227,1.017,2.255,0.943,2.317,0.907l0.681-0.392
				C3.06,0.481,3.139,0.493,3.185,0.546l0.7,0.795c0.22-0.079,0.447-0.139,0.68-0.181L4.774,0.12C4.789,0.05,4.851,0,4.922,0h0.786
				C5.78,0,5.841,0.05,5.855,0.121l0.207,1.04c0.233,0.041,0.462,0.102,0.683,0.182l0.7-0.797c0.047-0.054,0.127-0.066,0.188-0.031
				l0.68,0.392c0.063,0.036,0.091,0.11,0.067,0.178L8.04,2.09c0.181,0.153,0.349,0.32,0.502,0.5L9.546,2.25
				c0.068-0.023,0.143,0.005,0.179,0.067l0.39,0.679c0.036,0.062,0.023,0.141-0.031,0.188L9.29,3.882
				c0.08,0.222,0.142,0.453,0.183,0.686l1.04,0.209c0.069,0.014,0.12,0.076,0.12,0.147v0.784c0,0.071-0.051,0.133-0.121,0.147
				L9.473,6.063C9.432,6.295,9.371,6.524,9.29,6.748l0.793,0.697c0.054,0.047,0.067,0.125,0.031,0.187l-0.39,0.682
				c-0.035,0.062-0.11,0.091-0.179,0.068l-1.005-0.34C8.39,8.221,8.222,8.389,8.04,8.542l0.34,1.004
				c0.023,0.067-0.005,0.142-0.067,0.178l-0.68,0.393c-0.061,0.036-0.141,0.023-0.188-0.031L6.746,9.29
				C6.523,9.369,6.294,9.43,6.062,9.472l-0.21,1.041C5.839,10.582,5.776,10.632,5.705,10.632z M5.045,10.333h0.538l0.198-0.982
				C5.776,9.274,5.827,9.206,5.903,9.194c0.283-0.043,0.564-0.117,0.833-0.221c0.058-0.022,0.126-0.006,0.167,0.041L7.59,9.795
				l0.466-0.269L7.733,8.575c-0.04-0.064-0.029-0.147,0.03-0.194C7.99,8.2,8.195,7.995,8.374,7.772
				c0.039-0.049,0.103-0.068,0.165-0.049l0.986,0.333l0.268-0.468L9.015,6.905C8.967,6.863,8.95,6.796,8.974,6.738
				c0.103-0.267,0.178-0.544,0.22-0.823C9.203,5.852,9.25,5.802,9.312,5.79l1.021-0.204V5.047L9.311,4.842
				C9.25,4.83,9.203,4.78,9.193,4.717c-0.043-0.282-0.117-0.56-0.22-0.824C8.95,3.834,8.966,3.767,9.014,3.726l0.78-0.685
				L9.525,2.575L8.564,2.899C8.521,2.921,8.471,2.923,8.426,2.901C8.403,2.889,8.384,2.873,8.37,2.853
				C8.189,2.631,7.985,2.429,7.763,2.25C7.7,2.2,7.688,2.109,7.736,2.045c0.002-0.003,0.003-0.005,0.006-0.008l0.314-0.931
				L7.59,0.836l-0.66,0.75v0.002C6.894,1.657,6.818,1.692,6.745,1.663C6.476,1.557,6.19,1.481,5.898,1.437
				C5.821,1.425,5.765,1.356,5.77,1.277c0.001-0.009,0.002-0.018,0.005-0.026L5.585,0.3h-0.54L4.851,1.266
				c0,0.004,0.001,0.008,0.001,0.012c0.006,0.079-0.04,0.148-0.118,0.16C4.442,1.481,4.157,1.556,3.886,1.662
				C3.813,1.69,3.73,1.658,3.696,1.587C3.694,1.584,3.692,1.58,3.691,1.576l-0.649-0.74l-0.468,0.27L2.893,2.05
				C2.936,2.115,2.929,2.2,2.868,2.249C2.64,2.431,2.434,2.636,2.255,2.859c-0.04,0.049-0.108,0.07-0.167,0.049
				c-0.005-0.002-0.01-0.004-0.015-0.006L1.105,2.575L0.837,3.04l0.779,0.685c0.048,0.041,0.064,0.108,0.041,0.168
				c-0.104,0.262-0.178,0.54-0.222,0.825C1.427,4.78,1.379,4.83,1.317,4.842L0.3,5.047v0.539L1.315,5.79
				c0.063,0.013,0.109,0.063,0.119,0.125c0.043,0.282,0.117,0.56,0.222,0.825c0.023,0.059,0.006,0.125-0.041,0.167L0.836,7.588
				l0.27,0.468L2.09,7.724C2.15,7.702,2.216,7.723,2.255,7.772c0.177,0.222,0.383,0.427,0.611,0.609
				C2.929,8.431,2.941,8.52,2.895,8.585c-0.002,0.003-0.005,0.007-0.008,0.01l-0.313,0.93l0.468,0.269l0.685-0.782
				c0.042-0.047,0.108-0.063,0.167-0.041c0.27,0.104,0.55,0.179,0.834,0.221c0.078,0.012,0.133,0.081,0.127,0.16
				c0,0.006-0.001,0.013-0.002,0.019L5.045,10.333z M5.316,6.798C4.497,6.797,3.831,6.132,3.831,5.317
				c0-0.816,0.666-1.482,1.482-1.483l0,0h0.003c0.816,0,1.481,0.665,1.481,1.483C6.798,6.134,6.133,6.798,5.316,6.798z M5.313,3.984
				v0.15C4.662,4.136,4.132,4.666,4.132,5.317c0,0.65,0.53,1.18,1.182,1.181c0.654,0,1.184-0.53,1.184-1.181
				c0-0.652-0.529-1.183-1.181-1.183L5.313,3.984z"/>
		</g>
		<g>
			<path class="st0" d="M5.319,2.159H5.315C3.575,2.161,2.158,3.575,2.158,5.32c0,1.744,1.417,3.151,3.157,3.154h0.004
				c1.745,0,3.154-1.409,3.154-3.154C8.474,3.573,7.064,2.159,5.319,2.159z M5.319,7.26H5.315C4.237,7.257,3.372,6.389,3.372,5.32
				c0-1.072,0.865-1.939,1.943-1.942h0.004c1.069,0,1.938,0.869,1.938,1.942C7.258,6.39,6.389,7.26,5.319,7.26z"/>
			<path class="st1" d="M5.319,8.624H5.315C3.491,8.622,2.008,7.14,2.008,5.32c0-1.823,1.483-3.309,3.308-3.312
				c1.826,0,3.309,1.485,3.309,3.312C8.624,7.142,7.142,8.624,5.319,8.624z M5.319,2.309C3.657,2.311,2.308,3.662,2.308,5.32
				c0,1.654,1.35,3.002,3.008,3.003l0.004,0.15v-0.15c1.657,0,3.005-1.348,3.005-3.003C8.324,3.66,6.977,2.309,5.319,2.309z
				 M5.319,7.411C4.161,7.408,3.222,6.469,3.222,5.32c0-1.151,0.939-2.089,2.093-2.092c0.001,0,0.001,0,0.001,0h0.004
				c1.152,0,2.088,0.938,2.088,2.092C7.407,6.473,6.472,7.411,5.319,7.411z M5.315,3.378v0.15C4.327,3.531,3.522,4.335,3.522,5.32
				c0,0.984,0.805,1.787,1.793,1.79c0.99,0,1.792-0.803,1.792-1.79c0-0.988-0.802-1.792-1.788-1.792L5.315,3.378z"/>
		</g>
	</g>
</g>
</svg>
