<?xml version="1.0" encoding="utf-8"?>
<!-- Generator: Avocode 2.6.0 - http://avocode.com -->
<svg height="39" width="40" xmlns:xlink="http://www.w3.org/1999/xlink" xmlns="http://www.w3.org/2000/svg" viewBox="0 0 40 39">
    <path fill="#078cf0" fill-rule="evenodd" d="M 29.03 10.51 C 29.03 10.51 20.36 18.63 20.36 18.63 C 20.25 18.6 20.14 18.59 20.03 18.59 C 19.86 18.59 19.7 18.62 19.55 18.67 C 19.55 18.67 14.91 14.61 14.91 14.61 C 14.91 14.61 13.6 16.12 13.6 16.12 C 13.6 16.12 18.33 20.26 18.33 20.26 C 18.32 20.29 18.32 20.33 18.32 20.36 C 18.32 21.34 19.08 22.13 20.03 22.13 C 20.97 22.13 21.74 21.34 21.74 20.36 C 21.74 20.27 21.73 20.18 21.71 20.1 C 21.71 20.1 30.39 11.98 30.39 11.98 C 30.39 11.98 29.03 10.51 29.03 10.51 Z M 9.53 13 C 9.53 13 9.06 11.05 9.06 11.05 C 9.06 11.05 4.47 12.16 4.47 12.16 C 7.19 6.05 13.33 2 20.06 2 C 29.47 2 37.13 9.69 37.13 19.14 C 37.13 19.14 39.13 19.14 39.13 19.14 C 39.13 8.58 30.57 0 20.06 0 C 12.76 0 6.08 4.26 2.92 10.77 C 2.92 10.77 1.94 6.68 1.94 6.68 C 1.94 6.68 0 7.14 0 7.14 C 0 7.14 1.85 14.86 1.85 14.86 C 1.85 14.86 9.53 13 9.53 13 Z M 38.15 24.14 C 38.15 24.14 30.47 26 30.47 26 C 30.47 26 30.93 27.94 30.93 27.94 C 30.93 27.94 35.52 26.83 35.52 26.83 C 32.8 32.95 26.67 36.99 19.94 36.99 C 10.52 36.99 2.86 29.31 2.86 19.86 C 2.86 19.86 0.87 19.86 0.87 19.86 C 0.87 30.41 9.42 38.99 19.94 38.99 C 27.24 38.99 33.91 34.73 37.08 28.23 C 37.08 28.23 38.06 32.32 38.06 32.32 C 38.06 32.32 40 31.85 40 31.85 C 40 31.85 38.15 24.14 38.15 24.14 Z" />
</svg>