<?xml version="1.0" encoding="utf-8"?>
<!-- Generator: Avocode 2.6.0 - http://avocode.com -->
<svg height="36" width="137" xmlns:xlink="http://www.w3.org/1999/xlink" xmlns="http://www.w3.org/2000/svg" viewBox="0 0 137 36">
    <path fill="#078cf0" fill-rule="evenodd" d="M 126.99 3.24 C 126.99 3.24 128.01 1.7 128.01 1.7 C 128.17 1.46 128.23 1.16 128.17 0.88 C 128.12 0.59 127.95 0.35 127.71 0.18 C 127.23 -0.14 126.52 0 126.2 0.49 C 126.2 0.49 124.97 2.34 124.97 2.34 C 122.76 1.63 120.25 1.63 118.04 2.34 C 118.04 2.34 116.81 0.49 116.81 0.49 C 116.49 0 115.8 -0.15 115.3 0.18 C 114.8 0.52 114.67 1.2 115 1.7 C 115 1.7 116.03 3.24 116.03 3.24 C 113.5 4.74 111.9 7.34 111.9 10.06 C 111.9 10.49 112.25 10.84 112.67 10.84 C 112.67 10.84 130.41 10.84 130.41 10.84 C 130.83 10.84 131.18 10.49 131.18 10.06 C 131.18 7.35 129.56 4.76 126.99 3.24 Z M 113.5 9.29 C 113.8 7.18 115.29 5.25 117.47 4.23 C 117.56 4.19 117.65 4.13 117.72 4.05 C 117.81 4.06 117.92 4.04 118.01 4 C 120.21 3.14 122.8 3.14 125 4 C 125.1 4.04 125.2 4.05 125.3 4.05 C 125.37 4.13 125.45 4.19 125.55 4.23 C 127.76 5.27 129.27 7.19 129.58 9.29 C 129.58 9.29 113.5 9.29 113.5 9.29 Z M 130.38 11.61 C 130.38 11.61 112.63 11.61 112.63 11.61 C 112.21 11.61 111.86 11.96 111.86 12.38 C 111.86 12.38 111.86 26.74 111.86 26.74 C 111.86 28.28 113.11 29.53 114.64 29.53 C 114.64 29.53 115.24 29.53 115.24 29.53 C 115.24 29.53 115.24 33.32 115.24 33.32 C 115.24 34.8 116.44 36.01 117.91 36.01 C 119.39 36.01 120.59 34.8 120.59 33.32 C 120.59 33.32 120.59 29.53 120.59 29.53 C 120.59 29.53 122.43 29.53 122.43 29.53 C 122.43 29.53 122.43 33.32 122.43 33.32 C 122.43 34.8 123.63 36.01 125.1 36.01 C 126.57 36.01 127.77 34.8 127.77 33.32 C 127.77 33.32 127.77 29.53 127.77 29.53 C 127.77 29.53 128.38 29.53 128.38 29.53 C 129.91 29.53 131.15 28.28 131.15 26.74 C 131.15 26.74 131.15 12.38 131.15 12.38 C 131.15 11.95 130.81 11.61 130.38 11.61 Z M 129.61 26.74 C 129.61 27.42 129.06 27.98 128.37 27.98 C 128.37 27.98 126.92 27.98 126.92 27.98 C 126.68 27.98 126.46 28.1 126.31 28.29 C 126.16 28.49 126.12 28.74 126.18 28.97 C 126.22 29.08 126.23 29.18 126.23 29.29 C 126.23 29.29 126.23 33.32 126.23 33.32 C 126.23 33.95 125.72 34.46 125.1 34.46 C 124.48 34.46 123.97 33.95 123.97 33.32 C 123.97 33.32 123.97 29.29 123.97 29.29 C 123.97 29.18 123.98 29.08 124.01 28.97 C 124.08 28.74 124.04 28.49 123.89 28.29 C 123.75 28.1 123.52 27.98 123.27 27.98 C 123.27 27.98 119.74 27.98 119.74 27.98 C 119.5 27.98 119.27 28.09 119.13 28.29 C 118.98 28.48 118.93 28.74 119 28.97 C 119.03 29.08 119.05 29.18 119.05 29.29 C 119.05 29.29 119.05 33.32 119.05 33.32 C 119.05 33.95 118.54 34.46 117.91 34.46 C 117.29 34.46 116.78 33.95 116.78 33.32 C 116.78 33.32 116.78 29.29 116.78 29.29 C 116.78 29.18 116.8 29.08 116.83 28.97 C 116.9 28.74 116.85 28.49 116.71 28.29 C 116.56 28.1 116.33 27.98 116.09 27.98 C 116.09 27.98 114.64 27.98 114.64 27.98 C 113.96 27.98 113.4 27.42 113.4 26.74 C 113.4 26.74 113.4 13.16 113.4 13.16 C 113.4 13.16 129.61 13.16 129.61 13.16 C 129.61 13.16 129.61 26.74 129.61 26.74 Z M 108.69 11.95 C 107.22 11.95 106.02 13.16 106.02 14.64 C 106.02 14.64 106.02 22.81 106.02 22.81 C 106.02 24.29 107.22 25.5 108.69 25.5 C 110.17 25.5 111.37 24.29 111.37 22.81 C 111.37 22.81 111.37 14.64 111.37 14.64 C 111.37 13.16 110.16 11.95 108.69 11.95 Z M 109.82 22.81 C 109.82 23.44 109.32 23.95 108.69 23.95 C 108.07 23.95 107.56 23.44 107.56 22.81 C 107.56 22.81 107.56 14.64 107.56 14.64 C 107.56 14.01 108.07 13.5 108.69 13.5 C 109.32 13.5 109.82 14.01 109.82 14.64 C 109.82 14.64 109.82 22.81 109.82 22.81 Z M 134.32 11.95 C 132.85 11.95 131.65 13.16 131.65 14.64 C 131.65 14.64 131.65 22.81 131.65 22.81 C 131.65 24.29 132.85 25.5 134.32 25.5 C 135.8 25.5 136.99 24.29 136.99 22.81 C 136.99 22.81 136.99 14.64 136.99 14.64 C 136.99 13.16 135.8 11.95 134.32 11.95 Z M 135.45 22.81 C 135.45 23.44 134.95 23.95 134.32 23.95 C 133.7 23.95 133.19 23.44 133.19 22.81 C 133.19 22.81 133.19 14.64 133.19 14.64 C 133.19 14.01 133.7 13.5 134.32 13.5 C 134.95 13.5 135.45 14.01 135.45 14.64 C 135.45 14.64 135.45 22.81 135.45 22.81 Z M 125.19 5.83 C 124.68 5.83 124.27 6.24 124.27 6.75 C 124.27 7.26 124.68 7.67 125.19 7.67 C 125.69 7.67 126.1 7.26 126.1 6.75 C 126.1 6.24 125.69 5.83 125.19 5.83 Z M 118.25 5.83 C 117.74 5.83 117.33 6.24 117.33 6.75 C 117.33 7.26 117.74 7.67 118.25 7.67 C 118.75 7.67 119.16 7.26 119.16 6.75 C 119.16 6.24 118.75 5.83 118.25 5.83 Z" />
    <path fill="#078cf0" fill-rule="evenodd" d="M 29.26 26.48 C 28.49 28.16 28.11 28.93 27.11 30.42 C 25.49 32.85 23.45 35.34 20.75 35.37 C 19.56 35.37 18.81 35.03 18.08 34.7 C 17.32 34.36 16.61 34.04 15.3 34.04 C 13.93 34.05 13.19 34.37 12.41 34.71 C 11.67 35.04 10.9 35.38 9.76 35.38 C 9.75 35.38 9.7 35.38 9.7 35.38 C 6.93 35.35 4.9 32.85 3.44 30.67 C -0.33 25.04 -1.11 18 1.59 13.92 C 3.38 11.23 6.24 9.56 9.07 9.56 C 10.54 9.56 11.71 9.97 12.75 10.33 C 13.63 10.64 14.39 10.9 15.23 10.9 C 15.98 10.9 16.64 10.66 17.4 10.38 C 18.44 9.99 19.62 9.55 21.36 9.55 C 23.85 9.55 26.42 10.87 28.21 13.07 C 28.38 13.27 28.44 13.53 28.39 13.78 C 28.34 14.03 28.18 14.25 27.95 14.37 C 25.79 15.53 24.61 17.64 24.78 20.01 C 24.95 22.43 26.48 24.47 28.77 25.32 C 29 25.4 29.18 25.57 29.27 25.8 C 29.37 26.02 29.37 26.27 29.26 26.48 Z M 23.02 20.13 C 22.82 17.43 23.99 14.99 26.17 13.43 C 24.78 12.08 23.04 11.29 21.36 11.29 C 19.94 11.29 18.97 11.65 18.03 12 C 17.18 12.31 16.3 12.64 15.23 12.64 C 14.09 12.64 13.11 12.3 12.15 11.96 C 11.17 11.62 10.23 11.29 9.07 11.29 C 6.84 11.29 4.54 12.66 3.08 14.87 C 1.12 17.82 1.11 24.02 4.92 29.72 C 6.14 31.53 7.79 33.62 9.72 33.64 C 9.72 33.64 9.76 34.51 9.76 34.51 C 9.76 34.51 9.76 33.64 9.76 33.64 C 10.52 33.64 11.04 33.41 11.69 33.13 C 12.51 32.77 13.54 32.32 15.25 32.31 C 17 32.31 18.01 32.76 18.82 33.13 C 19.45 33.41 19.95 33.63 20.71 33.63 C 22.62 33.62 24.34 31.4 25.64 29.47 C 26.4 28.33 26.77 27.66 27.29 26.57 C 24.82 25.32 23.22 22.93 23.02 20.13 Z M 14.35 10.29 C 14.34 10.29 14.2 10.29 14.19 10.29 C 13.77 10.28 13.42 9.98 13.34 9.58 C 13 7.76 13.67 5.63 15.13 3.89 C 16.48 2.29 18.7 1.12 20.67 0.99 C 21.13 0.95 21.53 1.28 21.6 1.73 C 21.89 3.64 21.26 5.74 19.86 7.49 C 18.51 9.19 16.34 10.29 14.35 10.29 Z M 16.5 5 C 16.13 5.43 15.06 6.85 15.02 8.5 C 16.29 8.29 17.6 7.51 18.46 6.43 C 18.9 5.87 19.82 4.53 19.89 2.88 C 18.65 3.2 17.32 4.02 16.5 5 Z" />
    <path fill="#078cf0" fill-rule="evenodd" d="M 34 17 C 34 17 45 17 45 17 C 45 17 45 18 45 18 C 45 18 34 18 34 18 C 34 18 34 17 34 17 Z" />
    <path fill="#078cf0" fill-rule="evenodd" d="M 89 17 C 89 17 100 17 100 17 C 100 17 100 18 100 18 C 100 18 89 18 89 18 C 89 18 89 17 89 17 Z" />
    <path fill="#078cf0" fill-rule="evenodd" d="M 62.19 16.81 C 62.19 16.81 50.56 16.81 50.56 16.81 C 50.56 16.81 50.56 6.64 50.56 6.64 C 50.56 6.64 62.19 4.04 62.19 4.04 C 62.19 4.04 62.19 16.81 62.19 16.81 Z M 51.92 15.37 C 51.92 15.37 60.61 15.37 60.61 15.37 C 60.61 15.37 60.61 5.84 60.61 5.84 C 60.61 5.84 51.92 7.79 51.92 7.79 C 51.92 7.79 51.92 15.37 51.92 15.37 Z M 83.17 16.81 C 83.17 16.81 64.56 16.81 64.56 16.81 C 64.56 16.81 64.56 3.61 64.56 3.61 C 64.56 3.61 83.1 0 83.1 0 C 83.1 0 83.1 16.81 83.1 16.81 C 83.1 16.81 83.17 16.81 83.17 16.81 Z M 66.07 15.37 C 66.07 15.37 81.73 15.37 81.73 15.37 C 81.73 15.37 81.73 1.73 81.73 1.73 C 81.73 1.73 66.07 4.76 66.07 4.76 C 66.07 4.76 66.07 15.37 66.07 15.37 Z M 62.19 31.88 C 62.19 31.88 50.56 29.29 50.56 29.29 C 50.56 29.29 50.56 19.12 50.56 19.12 C 50.56 19.12 62.19 19.12 62.19 19.12 C 62.19 19.12 62.19 31.88 62.19 31.88 Z M 51.92 28.13 C 51.92 28.13 60.61 30.01 60.61 30.01 C 60.61 30.01 60.61 20.56 60.61 20.56 C 60.61 20.56 51.92 20.56 51.92 20.56 C 51.92 20.56 51.92 28.13 51.92 28.13 Z M 83.17 36 C 83.17 36 64.63 32.39 64.63 32.39 C 64.63 32.39 64.63 19.19 64.63 19.19 C 64.63 19.19 83.17 19.19 83.17 19.19 C 83.17 19.19 83.17 36 83.17 36 Z M 66.07 31.09 C 66.07 31.09 81.73 34.12 81.73 34.12 C 81.73 34.12 81.73 20.56 81.73 20.56 C 81.73 20.56 66.07 20.56 66.07 20.56 C 66.07 20.56 66.07 31.09 66.07 31.09 Z" />
</svg>