<?xml version="1.0" encoding="utf-8"?>
<!-- Generator: Avocode 2.6.0 - http://avocode.com -->
<svg height="29" width="132" xmlns:xlink="http://www.w3.org/1999/xlink" xmlns="http://www.w3.org/2000/svg" viewBox="0 0 132 29">
    <path fill="#171717" fill-rule="evenodd" d="M 130.14 27.71 C 129.76 28.65 129.34 29 128.67 29 C 128.3 29 128.02 28.92 127.73 28.77 C 127.73 28.77 127.95 28.23 127.95 28.23 C 128.16 28.34 128.36 28.4 128.64 28.4 C 129.04 28.4 129.28 28.18 129.55 27.54 C 129.55 27.54 127.54 22.99 127.54 22.99 C 127.54 22.99 128.26 22.99 128.26 22.99 C 128.26 22.99 129.88 26.8 129.88 26.8 C 129.88 26.8 131.3 22.99 131.3 22.99 C 131.3 22.99 132 22.99 132 22.99 C 132 22.99 130.14 27.71 130.14 27.71 Z M 125.28 26.26 C 125.28 26.82 125.58 27.02 126.03 27.02 C 126.25 27.02 126.44 26.98 126.67 26.86 C 126.67 26.86 126.67 27.44 126.67 27.44 C 126.44 27.57 126.19 27.64 125.87 27.64 C 125.16 27.64 124.62 27.28 124.62 26.35 C 124.62 26.35 124.62 23.59 124.62 23.59 C 124.62 23.59 124.01 23.59 124.01 23.59 C 124.01 23.59 124.01 22.99 124.01 22.99 C 124.01 22.99 124.62 22.99 124.62 22.99 C 124.62 22.99 124.62 21.61 124.62 21.61 C 124.62 21.61 125.28 21.61 125.28 21.61 C 125.28 21.61 125.28 22.99 125.28 22.99 C 125.28 22.99 126.69 22.99 126.69 22.99 C 126.69 22.99 126.69 23.59 126.69 23.59 C 126.69 23.59 125.28 23.59 125.28 23.59 C 125.28 23.59 125.28 26.26 125.28 26.26 Z M 120.84 14.08 C 120.84 14.08 120.84 12.93 120.84 12.93 C 120.84 11.01 120.46 10.51 119.43 10.51 C 119.43 10.51 118.3 10.51 118.3 10.51 C 118.3 10.51 118.3 17.31 118.3 17.31 C 118.3 17.31 114.01 17.31 114.01 17.31 C 114.01 17.31 114.01 0.33 114.01 0.33 C 114.01 0.33 120.72 0.33 120.72 0.33 C 124 0.33 125.24 2.24 125.24 4.85 C 125.24 7.11 124.39 8.58 122.43 8.9 C 122.43 8.9 122.43 8.94 122.43 8.94 C 124.51 9.13 125.13 10.48 125.13 12.75 C 125.13 12.75 125.13 14.2 125.13 14.2 C 125.13 15.07 125.13 16.21 125.34 16.55 C 125.45 16.74 125.55 16.93 125.82 17.07 C 125.82 17.07 125.82 17.31 125.82 17.31 C 125.82 17.31 121.25 17.31 121.25 17.31 C 120.84 16.41 120.84 14.79 120.84 14.08 Z M 119.13 3.52 C 119.13 3.52 118.3 3.52 118.3 3.52 C 118.3 3.52 118.3 7.52 118.3 7.52 C 118.3 7.52 119.15 7.52 119.15 7.52 C 120.38 7.52 120.95 6.71 120.95 5.49 C 120.95 4.11 120.42 3.52 119.13 3.52 Z M 115.89 25.26 C 115.89 25.26 115.89 25.28 115.89 25.28 C 115.89 26.77 114.85 27.66 113.78 27.66 C 112.95 27.66 112.42 27.2 112.08 26.68 C 112.08 26.68 112.08 27.56 112.08 27.56 C 112.08 27.56 111.42 27.56 111.42 27.56 C 111.42 27.56 111.42 21.11 111.42 21.11 C 111.42 21.11 112.08 21.11 112.08 21.11 C 112.08 21.11 112.08 23.91 112.08 23.91 C 112.44 23.36 112.96 22.89 113.78 22.89 C 114.84 22.89 115.89 23.76 115.89 25.26 Z M 113.66 23.5 C 112.83 23.5 112.05 24.22 112.05 25.26 C 112.05 25.26 112.05 25.28 112.05 25.28 C 112.05 26.34 112.83 27.05 113.66 27.05 C 114.51 27.05 115.22 26.39 115.22 25.29 C 115.22 25.29 115.22 25.27 115.22 25.27 C 115.22 24.19 114.5 23.5 113.66 23.5 Z M 102.48 0.33 C 102.48 0.33 112.23 0.33 112.23 0.33 C 112.23 0.33 112.23 3.95 112.23 3.95 C 112.23 3.95 106.76 3.95 106.76 3.95 C 106.76 3.95 106.76 6.85 106.76 6.85 C 106.76 6.85 111.89 6.85 111.89 6.85 C 111.89 6.85 111.89 10.32 111.89 10.32 C 111.89 10.32 106.76 10.32 106.76 10.32 C 106.76 10.32 106.76 13.7 106.76 13.7 C 106.76 13.7 112.44 13.7 112.44 13.7 C 112.44 13.7 112.44 17.31 112.44 17.31 C 112.44 17.31 102.48 17.31 102.48 17.31 C 102.48 17.31 102.48 0.33 102.48 0.33 Z M 104.19 24.73 C 104.19 24.73 104.19 27.56 104.19 27.56 C 104.19 27.56 103.53 27.56 103.53 27.56 C 103.53 27.56 103.53 24.89 103.53 24.89 C 103.53 24.01 103.1 23.51 102.38 23.51 C 101.71 23.51 101.17 24.03 101.17 24.93 C 101.17 24.93 101.17 27.56 101.17 27.56 C 101.17 27.56 100.51 27.56 100.51 27.56 C 100.51 27.56 100.51 24.87 100.51 24.87 C 100.51 24.02 100.07 23.51 99.37 23.51 C 98.66 23.51 98.13 24.11 98.13 24.95 C 98.13 24.95 98.13 27.56 98.13 27.56 C 98.13 27.56 97.47 27.56 97.47 27.56 C 97.47 27.56 97.47 22.99 97.47 22.99 C 97.47 22.99 98.13 22.99 98.13 22.99 C 98.13 22.99 98.13 23.76 98.13 23.76 C 98.42 23.31 98.82 22.89 99.56 22.89 C 100.28 22.89 100.75 23.29 100.99 23.8 C 101.3 23.3 101.77 22.89 102.55 22.89 C 103.57 22.89 104.19 23.6 104.19 24.73 Z M 96.26 0.33 C 96.26 0.33 100.55 0.33 100.55 0.33 C 100.55 0.33 100.55 17.31 100.55 17.31 C 100.55 17.31 96.26 17.31 96.26 17.31 C 96.26 17.31 96.26 0.33 96.26 0.33 Z M 89.32 17.31 C 89.32 17.31 83.09 17.31 83.09 17.31 C 83.09 17.31 83.09 0.33 83.09 0.33 C 83.09 0.33 89.32 0.33 89.32 0.33 C 94.28 0.33 94.53 4.38 94.53 8.82 C 94.53 13.27 94.28 17.31 89.32 17.31 Z M 88.24 3.52 C 88.24 3.52 87.39 3.52 87.39 3.52 C 87.39 3.52 87.39 14.13 87.39 14.13 C 87.39 14.13 88.24 14.13 88.24 14.13 C 89.9 14.13 90.11 13.41 90.11 8.82 C 90.11 4.24 89.9 3.52 88.24 3.52 Z M 76.82 14.08 C 76.82 14.08 76.82 12.93 76.82 12.93 C 76.82 11.01 76.45 10.51 75.42 10.51 C 75.42 10.51 74.28 10.51 74.28 10.51 C 74.28 10.51 74.28 17.31 74.28 17.31 C 74.28 17.31 69.99 17.31 69.99 17.31 C 69.99 17.31 69.99 0.33 69.99 0.33 C 69.99 0.33 76.71 0.33 76.71 0.33 C 79.98 0.33 81.23 2.24 81.23 4.85 C 81.23 7.11 80.37 8.58 78.42 8.9 C 78.42 8.9 78.42 8.94 78.42 8.94 C 80.49 9.13 81.11 10.48 81.11 12.75 C 81.11 12.75 81.11 14.2 81.11 14.2 C 81.11 15.07 81.11 16.21 81.32 16.55 C 81.44 16.74 81.53 16.93 81.81 17.07 C 81.81 17.07 81.81 17.31 81.81 17.31 C 81.81 17.31 77.24 17.31 77.24 17.31 C 76.82 16.41 76.82 14.79 76.82 14.08 Z M 75.11 3.52 C 75.11 3.52 74.28 3.52 74.28 3.52 C 74.28 3.52 74.28 7.52 74.28 7.52 C 74.28 7.52 75.14 7.52 75.14 7.52 C 76.36 7.52 76.93 6.71 76.93 5.49 C 76.93 4.11 76.41 3.52 75.11 3.52 Z M 70.44 21.99 C 70.44 21.99 69.69 21.99 69.69 21.99 C 69.69 21.99 69.69 21.24 69.69 21.24 C 69.69 21.24 70.44 21.24 70.44 21.24 C 70.44 21.24 70.44 21.99 70.44 21.99 Z M 63.81 14.33 C 63.81 14.33 60.4 14.33 60.4 14.33 C 60.4 14.33 59.96 17.31 59.96 17.31 C 59.96 17.31 55.4 17.31 55.4 17.31 C 55.4 17.31 59.41 0.33 59.41 0.33 C 59.41 0.33 64.81 0.33 64.81 0.33 C 64.81 0.33 68.82 17.31 68.82 17.31 C 68.82 17.31 64.25 17.31 64.25 17.31 C 64.25 17.31 63.81 14.33 63.81 14.33 Z M 62.13 3.81 C 62.13 3.81 62.09 3.81 62.09 3.81 C 62.09 3.81 60.91 11.01 60.91 11.01 C 60.91 11.01 63.31 11.01 63.31 11.01 C 63.31 11.01 62.13 3.81 62.13 3.81 Z M 55.17 12.29 C 55.17 15.24 53.77 17.31 50.2 17.31 C 50.2 17.31 43.72 17.31 43.72 17.31 C 43.72 17.31 43.72 0.33 43.72 0.33 C 43.72 0.33 50.2 0.33 50.2 0.33 C 53.27 0.33 54.7 2.03 54.7 4.57 C 54.7 6.37 53.94 7.99 52.12 8.37 C 52.12 8.37 52.12 8.42 52.12 8.42 C 54.28 8.64 55.17 10.54 55.17 12.29 Z M 49.05 3.52 C 49.05 3.52 48.01 3.52 48.01 3.52 C 48.01 3.52 48.01 6.99 48.01 6.99 C 48.01 6.99 49.05 6.99 49.05 6.99 C 49.92 6.99 50.41 6.19 50.41 5.28 C 50.41 4.33 49.92 3.52 49.05 3.52 Z M 49.21 9.99 C 49.21 9.99 48.01 9.99 48.01 9.99 C 48.01 9.99 48.01 14.13 48.01 14.13 C 48.01 14.13 49.21 14.13 49.21 14.13 C 49.99 14.13 50.74 13.41 50.74 12.03 C 50.74 10.72 49.99 9.99 49.21 9.99 Z M 44.58 22.89 C 45.89 22.89 46.64 23.97 46.64 25.31 C 46.64 25.4 46.64 25.45 46.64 25.53 C 46.64 25.53 43.12 25.53 43.12 25.53 C 43.22 26.52 43.89 27.07 44.68 27.07 C 45.29 27.07 45.72 26.82 46.08 26.43 C 46.08 26.43 46.49 26.81 46.49 26.81 C 46.04 27.32 45.51 27.66 44.67 27.66 C 43.45 27.66 42.46 26.7 42.46 25.29 C 42.46 25.29 42.46 25.27 42.46 25.27 C 42.46 23.95 43.35 22.89 44.58 22.89 Z M 45.98 25.02 C 45.91 24.19 45.45 23.47 44.56 23.47 C 43.79 23.47 43.21 24.13 43.12 25.02 C 43.12 25.02 45.98 25.02 45.98 25.02 Z M 37.82 4.66 C 37.82 4.66 37.77 4.66 37.77 4.66 C 37.77 4.66 35.49 17.31 35.49 17.31 C 35.49 17.31 32.39 17.31 32.39 17.31 C 32.39 17.31 30.11 4.66 30.11 4.66 C 30.11 4.66 30.07 4.66 30.07 4.66 C 30.07 4.66 30.07 17.31 30.07 17.31 C 30.07 17.31 26.05 17.31 26.05 17.31 C 26.05 17.31 26.05 0.33 26.05 0.33 C 26.05 0.33 32.19 0.33 32.19 0.33 C 32.19 0.33 33.92 10.39 33.92 10.39 C 33.92 10.39 33.97 10.39 33.97 10.39 C 33.97 10.39 35.7 0.33 35.7 0.33 C 35.7 0.33 41.83 0.33 41.83 0.33 C 41.83 0.33 41.83 17.31 41.83 17.31 C 41.83 17.31 37.82 17.31 37.82 17.31 C 37.82 17.31 37.82 4.66 37.82 4.66 Z M 26.06 21.61 C 26.06 21.61 26.72 21.61 26.72 21.61 C 26.72 21.61 26.72 22.99 26.72 22.99 C 26.72 22.99 28.12 22.99 28.12 22.99 C 28.12 22.99 28.12 23.59 28.12 23.59 C 28.12 23.59 26.72 23.59 26.72 23.59 C 26.72 23.59 26.72 26.26 26.72 26.26 C 26.72 26.82 27.02 27.02 27.46 27.02 C 27.68 27.02 27.87 26.98 28.1 26.86 C 28.1 26.86 28.1 27.44 28.1 27.44 C 27.87 27.57 27.63 27.64 27.31 27.64 C 26.6 27.64 26.06 27.28 26.06 26.35 C 26.06 26.35 26.06 23.59 26.06 23.59 C 26.06 23.59 25.44 23.59 25.44 23.59 C 25.44 23.59 25.44 22.99 25.44 22.99 C 25.44 22.99 26.06 22.99 26.06 22.99 C 26.06 22.99 26.06 21.61 26.06 21.61 Z M 18.56 17.65 C 14.17 17.65 12.67 15.18 12.67 8.82 C 12.67 2.47 14.17 0 18.56 0 C 22.94 0 24.44 2.47 24.44 8.82 C 24.44 15.18 22.94 17.65 18.56 17.65 Z M 18.56 3 C 17.24 3 17.11 4.24 17.11 8.82 C 17.11 13.41 17.24 14.65 18.56 14.65 C 19.87 14.65 20.01 13.41 20.01 8.82 C 20.01 4.24 19.87 3 18.56 3 Z M 11.44 12.29 C 11.44 15.24 10.06 17.31 6.48 17.31 C 6.48 17.31 0 17.31 0 17.31 C 0 17.31 0 0.33 0 0.33 C 0 0.33 6.48 0.33 6.48 0.33 C 9.55 0.33 10.98 2.03 10.98 4.57 C 10.98 6.37 10.22 7.99 8.39 8.37 C 8.39 8.37 8.39 8.42 8.39 8.42 C 10.56 8.64 11.44 10.54 11.44 12.29 Z M 5.33 3.52 C 5.33 3.52 4.29 3.52 4.29 3.52 C 4.29 3.52 4.29 6.99 4.29 6.99 C 4.29 6.99 5.33 6.99 5.33 6.99 C 6.2 6.99 6.69 6.19 6.69 5.28 C 6.69 4.33 6.2 3.52 5.33 3.52 Z M 5.49 9.99 C 5.49 9.99 4.29 9.99 4.29 9.99 C 4.29 9.99 4.29 14.13 4.29 14.13 C 4.29 14.13 5.49 14.13 5.49 14.13 C 6.27 14.13 7.01 13.41 7.01 12.03 C 7.01 10.72 6.27 9.99 5.49 9.99 Z M 30.08 23.79 C 30.37 23.29 30.83 22.89 31.59 22.89 C 32.66 22.89 33.29 23.64 33.29 24.72 C 33.29 24.72 33.29 27.56 33.29 27.56 C 33.29 27.56 32.63 27.56 32.63 27.56 C 32.63 27.56 32.63 24.89 32.63 24.89 C 32.63 24.04 32.18 23.51 31.4 23.51 C 30.64 23.51 30.08 24.09 30.08 24.94 C 30.08 24.94 30.08 27.56 30.08 27.56 C 30.08 27.56 29.42 27.56 29.42 27.56 C 29.42 27.56 29.42 21.11 29.42 21.11 C 29.42 21.11 30.08 21.11 30.08 21.11 C 30.08 21.11 30.08 23.79 30.08 23.79 Z M 36.68 22.89 C 37.99 22.89 38.74 23.97 38.74 25.31 C 38.74 25.4 38.74 25.45 38.73 25.53 C 38.73 25.53 35.22 25.53 35.22 25.53 C 35.32 26.52 35.99 27.07 36.78 27.07 C 37.39 27.07 37.82 26.82 38.18 26.43 C 38.18 26.43 38.59 26.81 38.59 26.81 C 38.14 27.32 37.6 27.66 36.76 27.66 C 35.55 27.66 34.55 26.7 34.55 25.29 C 34.55 25.29 34.55 25.27 34.55 25.27 C 34.55 23.95 35.45 22.89 36.68 22.89 Z M 38.07 25.02 C 38 24.19 37.54 23.47 36.66 23.47 C 35.89 23.47 35.31 24.13 35.22 25.02 C 35.22 25.02 38.07 25.02 38.07 25.02 Z M 49.5 26.78 C 49.5 26.78 51 22.99 51 22.99 C 51 22.99 51.71 22.99 51.71 22.99 C 51.71 22.99 49.78 27.59 49.78 27.59 C 49.78 27.59 49.2 27.59 49.2 27.59 C 49.2 27.59 47.28 22.99 47.28 22.99 C 47.28 22.99 48.01 22.99 48.01 22.99 C 48.01 22.99 49.5 26.78 49.5 26.78 Z M 54.66 22.89 C 55.99 22.89 56.97 23.97 56.97 25.26 C 56.97 25.26 56.97 25.28 56.97 25.28 C 56.97 26.57 55.98 27.66 54.64 27.66 C 53.32 27.66 52.35 26.59 52.35 25.3 C 52.35 25.3 52.35 25.28 52.35 25.28 C 52.35 23.99 53.33 22.89 54.66 22.89 Z M 53.02 25.28 C 53.02 26.26 53.73 27.05 54.66 27.05 C 55.62 27.05 56.29 26.26 56.29 25.3 C 56.29 25.3 56.29 25.28 56.29 25.28 C 56.29 24.3 55.58 23.5 54.64 23.5 C 53.69 23.5 53.02 24.3 53.02 25.26 C 53.02 25.26 53.02 25.28 53.02 25.28 Z M 59.01 27.56 C 59.01 27.56 58.35 27.56 58.35 27.56 C 58.35 27.56 58.35 21.11 58.35 21.11 C 58.35 21.11 59.01 21.11 59.01 21.11 C 59.01 21.11 59.01 27.56 59.01 27.56 Z M 61.26 25.66 C 61.26 26.51 61.71 27.04 62.49 27.04 C 63.24 27.04 63.82 26.46 63.82 25.61 C 63.82 25.61 63.82 22.99 63.82 22.99 C 63.82 22.99 64.47 22.99 64.47 22.99 C 64.47 22.99 64.47 27.56 64.47 27.56 C 64.47 27.56 63.82 27.56 63.82 27.56 C 63.82 27.56 63.82 26.76 63.82 26.76 C 63.52 27.26 63.06 27.66 62.3 27.66 C 61.23 27.66 60.6 26.91 60.6 25.83 C 60.6 25.83 60.6 22.99 60.6 22.99 C 60.6 22.99 61.26 22.99 61.26 22.99 C 61.26 22.99 61.26 25.66 61.26 25.66 Z M 66.31 21.61 C 66.31 21.61 66.97 21.61 66.97 21.61 C 66.97 21.61 66.97 22.99 66.97 22.99 C 66.97 22.99 68.38 22.99 68.38 22.99 C 68.38 22.99 68.38 23.59 68.38 23.59 C 68.38 23.59 66.97 23.59 66.97 23.59 C 66.97 23.59 66.97 26.26 66.97 26.26 C 66.97 26.82 67.27 27.02 67.72 27.02 C 67.94 27.02 68.13 26.98 68.36 26.86 C 68.36 26.86 68.36 27.44 68.36 27.44 C 68.13 27.57 67.88 27.64 67.56 27.64 C 66.85 27.64 66.31 27.28 66.31 26.35 C 66.31 26.35 66.31 23.59 66.31 23.59 C 66.31 23.59 65.7 23.59 65.7 23.59 C 65.7 23.59 65.7 22.99 65.7 22.99 C 65.7 22.99 66.31 22.99 66.31 22.99 C 66.31 22.99 66.31 21.61 66.31 21.61 Z M 70.39 27.56 C 70.39 27.56 69.73 27.56 69.73 27.56 C 69.73 27.56 69.73 22.99 69.73 22.99 C 69.73 22.99 70.39 22.99 70.39 22.99 C 70.39 22.99 70.39 27.56 70.39 27.56 Z M 74.09 22.89 C 75.42 22.89 76.4 23.97 76.4 25.26 C 76.4 25.26 76.4 25.28 76.4 25.28 C 76.4 26.57 75.41 27.66 74.08 27.66 C 72.75 27.66 71.78 26.59 71.78 25.3 C 71.78 25.3 71.78 25.28 71.78 25.28 C 71.78 23.99 72.76 22.89 74.09 22.89 Z M 72.46 25.28 C 72.46 26.26 73.16 27.05 74.09 27.05 C 75.05 27.05 75.72 26.26 75.72 25.3 C 75.72 25.3 75.72 25.28 75.72 25.28 C 75.72 24.3 75.01 23.5 74.08 23.5 C 73.12 23.5 72.46 24.3 72.46 25.26 C 72.46 25.26 72.46 25.28 72.46 25.28 Z M 78.38 23.79 C 78.67 23.29 79.14 22.89 79.9 22.89 C 80.97 22.89 81.59 23.64 81.59 24.72 C 81.59 24.72 81.59 27.56 81.59 27.56 C 81.59 27.56 80.93 27.56 80.93 27.56 C 80.93 27.56 80.93 24.89 80.93 24.89 C 80.93 24.04 80.49 23.51 79.71 23.51 C 78.95 23.51 78.38 24.09 78.38 24.94 C 78.38 24.94 78.38 27.56 78.38 27.56 C 78.38 27.56 77.72 27.56 77.72 27.56 C 77.72 27.56 77.72 22.99 77.72 22.99 C 77.72 22.99 78.38 22.99 78.38 22.99 C 78.38 22.99 78.38 23.79 78.38 23.79 Z M 87.87 22.89 C 89.2 22.89 90.18 23.97 90.18 25.26 C 90.18 25.26 90.18 25.28 90.18 25.28 C 90.18 26.57 89.19 27.66 87.85 27.66 C 86.53 27.66 85.56 26.59 85.56 25.3 C 85.56 25.3 85.56 25.28 85.56 25.28 C 85.56 23.99 86.53 22.89 87.87 22.89 Z M 86.23 25.28 C 86.23 26.26 86.94 27.05 87.87 27.05 C 88.83 27.05 89.5 26.26 89.5 25.3 C 89.5 25.3 89.5 25.28 89.5 25.28 C 89.5 24.3 88.79 23.5 87.85 23.5 C 86.89 23.5 86.23 24.3 86.23 25.26 C 86.23 25.26 86.23 25.28 86.23 25.28 Z M 91.75 22.6 C 91.75 22.08 91.88 21.69 92.13 21.43 C 92.36 21.2 92.68 21.08 93.08 21.08 C 93.39 21.08 93.6 21.11 93.81 21.19 C 93.81 21.19 93.81 21.78 93.81 21.78 C 93.57 21.71 93.39 21.67 93.17 21.67 C 92.65 21.67 92.4 21.99 92.4 22.64 C 92.4 22.64 92.4 23.01 92.4 23.01 C 92.4 23.01 93.8 23.01 93.8 23.01 C 93.8 23.01 93.8 23.59 93.8 23.59 C 93.8 23.59 92.41 23.59 92.41 23.59 C 92.41 23.59 92.41 27.56 92.41 27.56 C 92.41 27.56 91.75 27.56 91.75 27.56 C 91.75 27.56 91.75 23.59 91.75 23.59 C 91.75 23.59 91.14 23.59 91.14 23.59 C 91.14 23.59 91.14 23 91.14 23 C 91.14 23 91.75 23 91.75 23 C 91.75 23 91.75 22.6 91.75 22.6 Z M 107.79 22.89 C 109.12 22.89 110.1 23.97 110.1 25.26 C 110.1 25.26 110.1 25.28 110.1 25.28 C 110.1 26.57 109.11 27.66 107.78 27.66 C 106.45 27.66 105.48 26.59 105.48 25.3 C 105.48 25.3 105.48 25.28 105.48 25.28 C 105.48 23.99 106.46 22.89 107.79 22.89 Z M 106.16 25.28 C 106.16 26.26 106.86 27.05 107.79 27.05 C 108.75 27.05 109.42 26.26 109.42 25.3 C 109.42 25.3 109.42 25.28 109.42 25.28 C 109.42 24.3 108.71 23.5 107.78 23.5 C 106.82 23.5 106.16 24.3 106.16 25.26 C 106.16 25.26 106.16 25.28 106.16 25.28 Z M 118.01 21.99 C 118.01 21.99 117.26 21.99 117.26 21.99 C 117.26 21.99 117.26 21.24 117.26 21.24 C 117.26 21.24 118.01 21.24 118.01 21.24 C 118.01 21.24 118.01 21.99 118.01 21.99 Z M 117.96 27.56 C 117.96 27.56 117.3 27.56 117.3 27.56 C 117.3 27.56 117.3 22.99 117.3 22.99 C 117.3 22.99 117.96 22.99 117.96 22.99 C 117.96 22.99 117.96 27.56 117.96 27.56 Z M 120.35 27.56 C 120.35 27.56 119.68 27.56 119.68 27.56 C 119.68 27.56 119.68 21.11 119.68 21.11 C 119.68 21.11 120.35 21.11 120.35 21.11 C 120.35 21.11 120.35 27.56 120.35 27.56 Z M 122.78 21.99 C 122.78 21.99 122.02 21.99 122.02 21.99 C 122.02 21.99 122.02 21.24 122.02 21.24 C 122.02 21.24 122.78 21.24 122.78 21.24 C 122.78 21.24 122.78 21.99 122.78 21.99 Z M 122.73 27.56 C 122.73 27.56 122.07 27.56 122.07 27.56 C 122.07 27.56 122.07 22.99 122.07 22.99 C 122.07 22.99 122.73 22.99 122.73 22.99 C 122.73 22.99 122.73 27.56 122.73 27.56 Z" />
</svg>