<?xml version="1.0" encoding="UTF-8"?>
<svg width="120px" height="120px" viewBox="0 0 120 120" version="1.1" xmlns="http://www.w3.org/2000/svg" xmlns:xlink="http://www.w3.org/1999/xlink">
    <!-- Generator: Sketch 41.2 (35397) - http://www.bohemiancoding.com/sketch -->
    <title>build_knowledge</title>
    <desc>Created with Sketch.</desc>
    <defs></defs>
    <g id="LP_Icons" stroke="none" stroke-width="1" fill="none" fill-rule="evenodd">
        <g id="build_knowledge" fill="#006EFA">
            <g id="Group" transform="translate(22.000000, 21.000000)">
                <path d="M44.8908932,42.8083689 C44.0442524,42.8083689 43.2082136,43.1574757 42.6008738,43.7663301 C41.9912621,44.3759417 41.6413981,45.2112233 41.6413981,46.0586214 C41.6413981,46.9181359 41.9814175,47.7322136 42.5993592,48.3509126 C43.1741359,48.924932 44.010932,49.252835 44.8992233,49.252835 L44.9067961,49.252835 C45.7875146,49.2505631 46.6152233,48.924932 47.1756117,48.3584854 C47.8162718,47.7291845 48.1419029,46.9423689 48.1419029,46.0586214 C48.1419029,45.1869903 47.8071845,44.3797282 47.1998447,43.7829903 C46.5644854,43.1483883 45.7504078,42.8083689 44.8908932,42.8083689 Z M44.8992233,53.9661553 C42.7697476,53.9661553 40.7182718,53.1354175 39.2665631,51.6837087 C37.7580583,50.1759612 36.9273204,48.1774951 36.9273204,46.0586214 C36.9273204,43.9700388 37.7800194,41.9193204 39.2665631,40.433534 C40.7743107,38.9250291 42.7720194,38.0942913 44.8908932,38.0942913 C47.009767,38.0942913 49.0067184,38.9250291 50.5159806,40.433534 C52.0191845,41.9079612 52.8559806,43.9117282 52.8559806,46.0586214 C52.8559806,48.2055146 52.0191845,50.2085243 50.5015922,51.6996117 C49.0869903,53.1270874 47.0430874,53.9616117 44.9189126,53.9661553 L44.8992233,53.9661553 L44.8992233,53.9661553 Z" id="Fill-88"></path>
                <path d="M12.8798447,10.1089515 L19.2796311,16.5087379 L19.5015146,14.5072427 L13.1017282,8.10745631 L12.8798447,10.1089515 Z M21.0804466,23.999767 C20.465534,23.999767 19.8627379,23.7597087 19.4136699,23.3098835 L8.74584466,12.6405437 C8.2392233,12.1346796 7.99083495,11.4258641 8.07034951,10.7140194 L8.95864078,2.71333981 C9.05784466,1.81293204 9.66518447,1.04883495 10.5201553,0.749708738 C11.3781553,0.449067961 12.3262718,0.665650485 12.966932,1.30706796 L23.6355146,11.9748932 C24.1413786,12.4807573 24.3905243,13.1895728 24.3110097,13.9014175 L23.4227184,21.9036117 C23.3235146,22.8040194 22.7154175,23.5673592 21.8604466,23.8672427 C21.6052427,23.9566019 21.3417087,23.999767 21.0804466,23.999767 L21.0804466,23.999767 Z" id="Fill-89"></path>
                <path d="M7.54403883,13.6643883 L13.9438252,20.064932 L15.946835,19.8422913 L9.54704854,13.4417476 L7.54403883,13.6643883 Z M13.0790097,24.8888155 C12.4572816,24.8888155 11.8567573,24.6434563 11.412233,24.198932 L0.744407767,13.5295922 C0.102990291,12.8896893 -0.112834951,11.9385437 0.186291262,11.0835728 C0.486174757,10.2278447 1.24951456,9.62126214 2.15067961,9.52130097 L10.1521165,8.63225243 C10.8601748,8.55046602 11.573534,8.80112621 12.0786408,9.30774757 L22.746466,19.9770874 C23.3878835,20.6169903 23.604466,21.5681359 23.3053398,22.4231068 C23.004699,23.278835 22.2413592,23.8854175 21.3401942,23.9853786 L13.3387573,24.8744272 C13.2524272,24.8842718 13.1653398,24.8888155 13.0790097,24.8888155 L13.0790097,24.8888155 Z" id="Fill-90"></path>
                <path d="M44.4183495,47.3369126 C43.8147961,47.3369126 43.212,47.106699 42.7515728,46.6462718 L8.74584466,12.6405437 C7.82499029,11.7204466 7.82499029,10.2278447 8.74584466,9.30774757 C9.66669903,8.38765049 11.1577864,8.38765049 12.0786408,9.30774757 L46.0843689,43.3134757 C47.0052233,44.2335728 47.0052233,45.7261748 46.0843689,46.6462718 C45.6239417,47.106699 45.0211456,47.3369126 44.4183495,47.3369126" id="Fill-91"></path>
                <path d="M44.8908932,19.4909126 C37.7959223,19.4909126 31.1250291,22.2549903 26.105767,27.2734951 C15.7484272,37.6315922 15.7484272,54.4856505 26.105767,64.8437476 C31.1250291,69.8630097 37.7959223,72.6270874 44.8908932,72.6270874 C51.9858641,72.6270874 58.6575146,69.8630097 63.6760194,64.8437476 C68.6854369,59.8343301 71.4442136,53.1634369 71.4442136,46.0586214 C71.4442136,38.9538058 68.6854369,32.2829126 63.6760194,27.2734951 C58.6575146,22.2549903 51.9858641,19.4909126 44.8908932,19.4909126 Z M44.8908932,77.341165 C36.5373204,77.341165 28.6812816,74.0863689 22.7729709,68.1765437 C10.5769515,55.9805243 10.5777087,36.1359612 22.7729709,23.940699 C28.6812816,18.0316311 36.5373204,14.776835 44.8908932,14.776835 C53.244466,14.776835 61.1005049,18.0316311 67.0088155,23.940699 C72.9087961,29.8399223 76.157534,37.6952039 76.157534,46.0586214 C76.157534,54.4220388 72.9087961,62.2773204 67.0088155,68.1765437 C61.1005049,74.0863689 53.244466,77.341165 44.8908932,77.341165 L44.8908932,77.341165 Z" id="Fill-92"></path>
                <path d="M44.8924078,66.2765243 C39.5013204,66.2765243 34.4313204,64.1735534 30.6138641,60.3553398 C26.7956505,56.5371262 24.6941942,51.4572816 24.6972233,46.0502913 C24.7010097,40.6516311 26.802466,35.5839029 30.6161359,31.7800777 C32.6297476,29.7649515 34.9848932,28.2269126 37.6096311,27.2121553 C38.8227961,26.7456699 40.1896893,27.3454369 40.6584466,28.5601165 C41.1279612,29.7740388 40.5244078,31.1386602 39.3104854,31.6081748 C37.3014175,32.3851456 35.4968155,33.5649903 33.9466602,35.1151456 C31.0235534,38.0314369 29.4135728,41.9147767 29.411301,46.0533204 C29.4090291,50.1994369 31.0190097,54.0948932 33.9466602,57.0225437 C36.8743107,59.9501942 40.7606796,61.5624466 44.8924078,61.5624466 C49.0339806,61.5624466 52.9264078,59.9501942 55.8540583,57.0225437 C61.8850485,50.9756505 61.8865631,41.1476505 55.8540583,35.1151456 C53.7503301,33.0114175 51.119534,31.5665243 48.2433786,30.936466 C46.9726602,30.6577864 46.1669126,29.4014563 46.4455922,28.1299806 C46.7242718,26.8585049 47.9843883,26.0504854 49.252835,26.3321942 C53.0097087,27.1553592 56.4454951,29.0409903 59.1868544,31.7823495 C67.0550097,39.6505049 67.055767,52.4674951 59.1891262,60.3538252 C55.3693981,64.1735534 50.2933398,66.2765243 44.8924078,66.2765243" id="Fill-93"></path>
            </g>
        </g>
    </g>
</svg>