<?xml version="1.0" encoding="UTF-8"?>
<svg width="120px" height="120px" viewBox="0 0 120 120" version="1.1" xmlns="http://www.w3.org/2000/svg" xmlns:xlink="http://www.w3.org/1999/xlink">
    <!-- Generator: Sketch 41.2 (35397) - http://www.bohemiancoding.com/sketch -->
    <title>educated_experts</title>
    <desc>Created with Sketch.</desc>
    <defs></defs>
    <g id="LP_Icons" stroke="none" stroke-width="1" fill="none" fill-rule="evenodd">
        <g id="educated_experts" fill="#3B3C39">
            <path d="M40.4215623,20.162131 C40.8740582,21.0240964 40.5420366,22.090438 39.6800712,22.543651 L36.0565179,24.4468591 C35.794773,24.5845441 35.5143833,24.6498011 35.2382962,24.6498011 C34.6036545,24.6498011 33.990526,24.3063057 33.6749979,23.7060852 C33.2225019,22.8441198 33.5538064,21.7770612 34.4157718,21.3245652 L38.0400422,19.4213571 C38.8991392,18.968144 39.966915,19.2994485 40.4215623,20.162131 Z M56.7221739,11.1645606 C57.1897292,12.0193549 56.8742011,13.089999 56.0201239,13.5568372 L44.0558722,20.083249 C43.7876733,20.2295393 43.4986783,20.2990989 43.2125517,20.2990989 C42.5879495,20.2990989 41.9827092,19.9670773 41.6635956,19.3797648 C41.1967574,18.5249705 41.5122855,17.4536092 42.3663627,16.986771 L54.3298973,10.4603592 C55.1868429,9.99567239 56.2574871,10.3090492 56.7221739,11.1645606 Z M110.615807,71.9725613 L112.774306,61.6074634 C112.81303,61.6081805 112.851036,61.6132003 112.890477,61.6132003 C113.232539,61.6132003 113.566712,61.5780619 113.890128,61.512805 L116.067989,71.9725613 L110.615807,71.9725613 Z M91.9336751,45.2301211 L91.9336751,36.8270342 C91.9336751,36.0798063 91.4632514,35.4136118 90.7583329,35.1647748 C90.057,34.9159379 73.3827744,29.0815366 57.6709095,29.0815366 C38.0027526,29.0815366 21.9689056,34.9238261 21.2955399,35.1733801 C20.6035295,35.4286711 20.1438624,36.0884116 20.1438624,36.8270342 L20.1438624,44.6112557 L5.2193835,34.8499638 L57.7834957,6.76079231 L109.702209,34.2791448 L91.9336751,45.2301211 Z M25.5609061,59.1255481 C28.2177961,57.5027297 39.7173609,55.4503629 56.6031338,55.4503629 C73.4889066,55.4503629 84.9877543,57.5027297 87.6439272,59.1255481 C84.9863201,60.7476493 73.4874724,62.8000162 56.6031338,62.8000162 C39.718078,62.8000162 28.2185132,60.7476493 25.5609061,59.1255481 Z M88.272115,55.6554562 C80.5043869,52.1423377 61.2320743,51.9236193 56.6031338,51.9236193 C51.7483038,51.9236193 30.782179,52.1645681 23.8792848,56.1947224 C23.7882119,55.7078051 23.7143496,55.195072 23.670606,54.6981152 L23.670606,43.3584658 C25.6569987,42.7969692 42.716312,38.1350416 57.6630213,39.1311064 C58.6153425,39.1770014 59.4744394,38.4606092 59.5396964,37.4889261 C59.6042362,36.517243 58.8691992,35.677508 57.8967989,35.612251 C43.6471199,34.6599299 28.0643347,38.5086555 23.670606,39.6969056 L23.670606,38.0869953 C27.6713588,36.7696655 41.5882991,32.6082802 57.6709095,32.6082802 C70.4497974,32.6082802 84.3430731,36.7811392 88.4069315,38.0970348 L88.4083657,54.7189114 C88.4076486,54.7267996 88.3882867,55.1068675 88.272115,55.6554562 Z M112.890477,58.0864567 C112.06365,58.0864567 111.391002,57.4145253 111.391002,56.5884154 C111.391002,55.7601541 112.06365,55.0875056 112.890477,55.0875056 C113.718022,55.0875056 114.39067,55.7601541 114.39067,56.5884154 C114.39067,57.4145253 113.718022,58.0864567 112.890477,58.0864567 Z M119.963327,73.3766613 L117.053297,59.4016352 C117.5983,58.5984728 117.917414,57.6296581 117.917414,56.5884154 C117.917414,54.3108762 116.394991,52.3854377 114.314657,51.7694408 L114.314657,35.5505796 C114.761416,35.2070843 115.030332,34.6771405 115.011687,34.1063215 C114.990891,33.4745482 114.63377,32.902295 114.075142,32.6061288 L58.6053029,3.20536436 C58.0861158,2.9307115 57.4650991,2.93142861 56.9487804,3.2082328 L0.932504069,33.1425266 C0.38319834,33.4358243 0.0296634516,33.9973209 0.00169618862,34.6190546 C-0.025553965,35.2415055 0.277066162,35.8324036 0.799121738,36.1730305 L20.1438624,48.82499 L20.1438624,54.7741288 C20.1438624,54.8221751 20.1452966,54.8695044 20.1495993,54.9175507 C20.2342182,55.9552078 20.6243256,59.4683263 22.0958339,61.0646117 C23.1356424,62.1904733 24.5906572,62.726871 25.862092,62.9800106 C34.1389676,66.1245349 52.149885,66.3267597 56.6031338,66.3267597 C62.4375351,66.3267597 91.5406992,65.980396 91.5406992,59.1255481 C91.6590222,58.1108384 91.9336751,55.9795896 91.9336751,54.7741288 L91.9336751,49.3728615 L110.787913,37.7521052 L110.787913,52.0276002 C109.064699,52.8257428 107.864258,54.5668842 107.864258,56.5884154 C107.864258,58.0298051 108.478821,59.32849 109.455524,60.2463899 L106.720469,73.3766613 C106.612903,73.8958485 106.744851,74.4365489 107.079024,74.8488867 C107.413914,75.2612246 107.917324,75.500022 108.447268,75.500022 L118.236527,75.500022 C118.767188,75.500022 119.269882,75.2612246 119.605489,74.8488867 C119.938945,74.4365489 120.070893,73.8958485 119.963327,73.3766613 Z M63.7878519,112.760304 L59.117319,109.360489 C58.5214012,108.926638 57.7175216,108.909427 57.1051103,109.316746 L51.6471913,112.938148 L51.6471913,97.8810035 L52.5966441,97.8810035 L52.5966441,101.152456 C52.5966441,102.126291 53.3861814,102.915828 54.3600158,102.915828 C55.3331332,102.915828 56.1233876,102.126291 56.1233876,101.152456 L56.1233876,97.8810035 L58.192248,97.8810035 L58.192248,98.9150751 C58.192248,99.8889095 58.9817853,100.678447 59.9556198,100.678447 C60.9287371,100.678447 61.7189916,99.8889095 61.7189916,98.9150751 L61.7189916,97.8810035 L63.7878519,97.8810035 L63.7878519,112.760304 Z M44.0436814,84.3513022 C44.0436814,79.9618761 45.6600457,75.2884748 46.4510173,73.2612067 L48.5098381,73.2612067 C48.1670599,74.2228503 47.7905775,75.5430486 47.6830111,76.937109 C47.6069975,77.908075 48.3341463,78.7564154 49.3036781,78.8309947 C49.3510073,78.8360145 49.3969023,78.8367316 49.4427973,78.8367316 C50.3542433,78.8367316 51.1272871,78.1346816 51.1982809,77.2103277 C51.3510252,75.2425798 52.2796817,73.3436743 52.2897213,73.3243124 C52.3004779,73.3035162 52.3040635,73.2820029 52.3133859,73.2612067 L55.0355328,73.2612067 C54.6927546,74.2228503 54.3169893,75.5437657 54.2094229,76.9378262 C54.1334093,77.9095093 54.8605581,78.7564154 55.8315241,78.8309947 C55.8774191,78.8360145 55.9233141,78.8367316 55.9692091,78.8367316 C56.8806551,78.8367316 57.6536989,78.1346816 57.7246927,77.2088935 C57.8752857,75.2619417 58.7874487,73.3816811 58.815416,73.3264637 C58.8261726,73.3049504 58.8304753,73.28272 58.8405148,73.2612067 L60.1320287,73.2612067 C59.2951621,75.7409707 58.192248,79.7288156 58.192248,83.5345147 C58.192248,88.141942 59.196201,91.9526608 60.0273307,94.3176873 L49.8838196,94.3176873 C49.761911,94.3176873 49.6428708,94.3305953 49.5281333,94.3535428 L46.3190692,94.3535428 C45.5488938,92.800284 44.0436814,89.152349 44.0436814,84.3513022 Z M13.5988058,84.3233349 L13.5988058,83.9619118 C13.5988058,81.4513121 14.1832498,73.2612067 21.7057265,73.2612067 L35.8284771,73.2612067 C35.3243493,74.5699312 34.7463592,76.3426254 34.6301875,77.8442523 C34.5556081,78.8152183 35.2820399,79.6621244 36.2530059,79.7374209 C36.2989009,79.7417235 36.3447958,79.7431578 36.3899737,79.7431578 C37.3028539,79.7431578 38.0758977,79.0403906 38.1468915,78.1146025 C38.2609119,76.6266007 39.1616012,74.3497787 39.6463671,73.2612067 L42.6854763,73.2612067 C41.7596882,75.8643135 40.5169378,80.1397192 40.5169378,84.3513022 C40.5169378,88.6525238 41.5474239,92.1276355 42.4524158,94.3535428 L21.7057265,94.3535428 C14.6522393,94.3535428 13.5988058,88.0695139 13.5988058,84.3233349 Z M85.9336215,73.2612067 C83.601582,75.8786557 82.1207513,79.6994141 82.1207513,83.9619118 C82.1207513,88.0594744 83.4904301,91.7482847 85.6682911,94.3535428 L65.9061928,94.3535428 C65.7914553,94.3305953 65.6724152,94.3176873 65.5512237,94.3176873 L63.8029112,94.3176873 C63.0807821,92.5492958 61.7189916,88.5514114 61.7189916,83.5345147 C61.7189916,79.5925648 63.1474733,75.2303889 63.8767735,73.2612067 L85.9336215,73.2612067 Z M97.6375625,74.6086551 C95.2230555,74.2163963 92.930457,75.1837768 91.3391915,77.2719991 C88.5589587,80.9170657 88.7468413,85.8701397 90.3359555,88.6790568 C91.3979944,90.5607517 93.0473458,91.5202439 94.82004,91.3266244 C95.9064606,91.2047158 97.5135026,90.1770982 98.3539547,88.5141217 C99.1721764,86.8905862 99.0610245,85.0246678 98.041295,83.2605789 C97.5522265,82.4165413 96.4744112,82.1296975 95.6318078,82.6166148 C94.7892043,83.1042491 94.5009264,84.1834986 94.9878436,85.026102 C95.3664773,85.6815399 95.4640042,86.2416023 95.2840098,86.7414275 C95.0774823,87.3143978 94.5590122,87.7009197 94.334557,87.8213941 C93.9093112,87.7776504 93.520638,87.1473114 93.4059005,86.9436523 C92.3574867,85.0906419 92.3460129,81.7668402 94.143806,79.4111362 C94.9405144,78.3641566 95.9494872,77.9016211 97.0667435,78.0895037 C98.6006403,78.3412091 100.006892,79.7288156 100.649422,81.627721 C101.279044,83.484317 101.190839,85.6758031 100.38696,88.1383564 L100.336045,88.2946862 C99.2001437,91.8565682 96.7985446,94.2596015 94.0864372,94.6454063 L94.0864372,94.3535428 L91.4044484,94.3535428 C88.0992916,93.1581216 85.6474949,88.9594466 85.6474949,83.9619118 C85.6474949,78.3354722 88.7525782,73.7137027 92.6880741,73.2612067 L92.9684638,73.2612067 L92.9684638,73.2411277 C93.0853526,73.2339566 93.2008072,73.2160289 93.3198474,73.2160289 C94.2929647,73.2160289 95.0832191,72.4264915 95.0832191,71.4526571 C95.0832191,70.4795397 94.2929647,69.6892853 93.3198474,69.6892853 C93.0860697,69.6892853 92.8573119,69.7158183 92.6271198,69.7344632 L21.7057265,69.7344632 C14.5296136,69.7344632 10.0720622,75.1859281 10.0720622,83.9619118 L10.0720622,84.3233349 C10.0720622,92.8117578 14.420613,97.8810035 21.7057265,97.8810035 L48.1204478,97.8810035 L48.1204478,116.22466 C48.1204478,116.874361 48.4775682,117.471713 49.0498214,117.777918 C49.6220747,118.088427 50.3183878,118.054005 50.8583711,117.694016 L58.0323326,112.933128 L64.5128494,117.65099 C64.8204893,117.874728 65.1847808,117.988031 65.5512237,117.988031 C65.8244423,117.988031 66.0983781,117.924926 66.3508006,117.796563 C66.9424157,117.496094 67.3145955,116.888703 67.3145955,116.22466 L67.3145955,97.8810035 L90.876656,97.8810035 C91.664042,98.1047416 92.4801124,98.2331041 93.3198474,98.2331041 C97.9050443,98.2331041 101.978225,94.7522556 103.697853,89.362462 L103.739446,89.2326652 C104.783557,86.0293379 104.868893,83.090624 103.990434,80.4961225 C102.91979,77.3308021 100.484486,75.0747762 97.6375625,74.6086551 L97.6375625,74.6086551 Z" id="Fill-110"></path>
        </g>
    </g>
</svg>