<?xml version="1.0" encoding="UTF-8"?>
<svg width="120px" height="120px" viewBox="0 0 120 120" version="1.1" xmlns="http://www.w3.org/2000/svg" xmlns:xlink="http://www.w3.org/1999/xlink">
    <!-- Generator: Sketch 41.2 (35397) - http://www.bohemiancoding.com/sketch -->
    <title>niche_skills</title>
    <desc>Created with Sketch.</desc>
    <defs></defs>
    <g id="LP_Icons" stroke="none" stroke-width="1" fill="none" fill-rule="evenodd">
        <g id="niche_skills" fill="#006EFA">
            <g id="Group-3" transform="translate(35.000000, 23.000000)">
                <path d="M24.7893204,25.7235437 C22.9463592,25.7235437 21.4463592,27.2235437 21.4463592,29.0665049 C21.4463592,30.909466 22.9463592,32.409466 24.7893204,32.409466 C26.6322816,32.409466 28.1315534,30.909466 28.1315534,29.0665049 C28.1315534,27.2235437 26.6322816,25.7235437 24.7893204,25.7235437 Z M24.7893204,36.9415049 C20.4473301,36.9415049 16.9143204,33.4084951 16.9143204,29.0665049 C16.9143204,24.7237864 20.4473301,21.1915049 24.7893204,21.1915049 C29.1320388,21.1915049 32.6643204,24.7237864 32.6643204,29.0665049 C32.6643204,33.4084951 29.1320388,36.9415049 24.7893204,36.9415049 L24.7893204,36.9415049 Z" id="Fill-75"></path>
                <path d="M5.37815534,56.193932 L9.55194175,69.0677184 L15.8832524,65.0723301 C14.4058252,62.3825243 13.0427184,59.6009709 11.8230583,56.7830097 C9.89781553,52.331068 8.16043689,48.3145631 6.96043689,44.2966019 C4.97038835,47.8725728 4.36019417,52.1410194 5.37815534,56.193932 Z M8.29514563,74.8070388 C8.03519417,74.8070388 7.77378641,74.7618932 7.52402913,74.6723301 C6.86650485,74.4334951 6.35533981,73.9048544 6.13980583,73.2393204 L1.04417476,57.5206311 C1.02961165,57.4754854 1.01650485,57.4303398 1.00412621,57.3837379 C-0.807524272,50.3031553 1.27718447,42.6946602 6.44635922,37.5262136 C7.0434466,36.9291262 7.92597087,36.7121359 8.72985437,36.9677184 C9.53592233,37.2218447 10.1330097,37.9033981 10.2800971,38.7349515 C11.1924757,43.9084951 13.3070388,48.7951456 15.9822816,54.9822816 C17.1779126,57.7456311 18.5177184,60.4711165 19.9725728,63.1012136 C20.7364078,63.201699 21.4055825,63.6859223 21.7354369,64.3987864 C22.2116505,65.4313107 21.8519417,66.6648058 20.8900485,67.2720874 L9.50461165,74.4575243 C9.13834951,74.6883495 8.71820388,74.8070388 8.29514563,74.8070388 L8.29514563,74.8070388 Z" id="Fill-76"></path>
                <path d="M41.282767,74.8070388 C40.8604369,74.8070388 40.4395631,74.6883495 40.073301,74.4575243 L34.8131068,71.1364078 C33.7536408,70.4679612 33.4376214,69.0684466 34.106068,68.0104369 C34.7752427,66.9524272 36.1762136,66.6364078 37.2320388,67.3033981 L40.026699,69.0677184 L44.1997573,56.193932 C45.2177184,52.1410194 44.6082524,47.8725728 42.6174757,44.2966019 C41.4182039,48.3145631 39.6808252,52.3303398 37.7555825,56.7815534 C36.3225728,60.093932 34.692233,63.3538835 32.9097087,66.473301 C32.2885922,67.5589806 30.9043689,67.9398058 29.8179612,67.3157767 C28.7315534,66.6946602 28.3536408,65.3097087 28.9747573,64.223301 C30.6742718,61.2495146 32.2288835,58.1402913 33.5949029,54.9837379 C36.2716019,48.7951456 38.386165,43.9084951 39.2978155,38.7349515 C39.4449029,37.9033981 40.0427184,37.2218447 40.8480583,36.9677184 C41.6504854,36.7114078 42.5337379,36.9276699 43.1322816,37.5262136 C48.3007282,42.6946602 50.3854369,50.3031553 48.5737864,57.3837379 C48.5621359,57.4303398 48.548301,57.4754854 48.534466,57.5206311 L43.438835,73.2393204 C43.2225728,73.9048544 42.7114078,74.4342233 42.0546117,74.6723301 C41.8041262,74.7618932 41.5427184,74.8070388 41.282767,74.8070388" id="Fill-77"></path>
                <path d="M19.9616505,63.088835 L29.6162621,63.088835 C31.0718447,60.45 32.4058252,57.7281553 33.5890777,54.9800971 C33.5898058,54.9786408 33.5898058,54.9771845 33.5912621,54.9757282 L33.5949029,54.9677184 C37.4322816,46.1089806 40.2050971,39.707767 39.7179612,31.4716019 C39.2337379,23.1407767 35.6548544,16.9944175 34.138835,14.7385922 C34.1046117,14.6868932 34.0725728,14.6351942 34.0427184,14.5820388 C31.5786408,10.9470874 28.4708738,7.87135922 24.7893204,5.42038835 C21.0961165,7.88082524 17.9919903,10.9587379 15.5497573,14.5856796 C15.538835,14.601699 15.4711165,14.6949029 15.4601942,14.7116505 L15.375,14.8281553 C13.9230583,16.9944175 10.3449029,23.1407767 9.86067961,31.4694175 C9.37281553,39.707767 12.1463592,46.1089806 15.9837379,54.9677184 C17.1720874,57.7259709 18.5067961,60.4492718 19.9616505,63.088835 Z M30.9444175,67.6216019 L18.6334951,67.6216019 C17.8194175,67.6216019 17.0679612,67.1847087 16.6652913,66.4776699 C14.8762136,63.3385922 13.2480583,60.0728155 11.8259709,56.7728155 C7.89101942,47.690534 4.78543689,40.5182039 5.33592233,31.2043689 C5.8842233,21.7616505 9.95315534,14.7757282 11.676699,12.2097087 C11.6876214,12.1929612 11.7553398,12.0990291 11.7677184,12.0830097 L11.8529126,11.9657767 C14.8550971,7.50291262 18.8308252,3.7157767 23.6089806,0.798786408 C24.332767,0.356067961 25.2458738,0.356796117 25.968932,0.798786408 C30.782767,3.73398058 34.7970874,7.56917476 37.9026699,12.1980583 C37.9376214,12.2512136 37.9711165,12.3058252 38.001699,12.3618932 C39.7791262,15.0429612 43.7038835,21.942233 44.2427184,31.2065534 C44.7932039,40.5182039 41.6868932,47.690534 37.7526699,56.7691748 L35.6701456,55.8764563 L37.7519417,56.7728155 C36.3298544,60.0728155 34.7024272,63.3385922 32.9126214,66.4776699 C32.5099515,67.1847087 31.7584951,67.6216019 30.9444175,67.6216019 L30.9444175,67.6216019 Z" id="Fill-78"></path>
                <path d="M25.4898058,17.3104369 C21.2417476,17.3104369 17.0548544,16.6558252 13.0449029,15.3648058 C11.8536408,14.981068 11.1990291,13.7046117 11.582767,12.5126214 C11.9657767,11.3220874 13.2429612,10.668932 14.4342233,11.0504854 C21.1842233,13.2240291 28.6259709,13.3427184 35.4502427,11.3803398 C36.6538835,11.0330097 37.9092233,11.7298544 38.2543689,12.9320388 C38.6009709,14.1349515 37.9055825,15.3902913 36.7026699,15.736165 C33.0699029,16.781068 29.2980583,17.3104369 25.4898058,17.3104369" id="Fill-79"></path>
                <path d="M27.4609223,59.1837379 L14.3650485,59.1837379 C13.1133495,59.1837379 12.098301,58.1686893 12.098301,56.9169903 C12.098301,55.6660194 13.1133495,54.6509709 14.3650485,54.6509709 L27.4609223,54.6509709 C28.7126214,54.6509709 29.7269417,55.6660194 29.7269417,56.9169903 C29.7269417,58.1686893 28.7126214,59.1837379 27.4609223,59.1837379" id="Fill-80"></path>
            </g>
        </g>
    </g>
</svg>