<?xml version="1.0" encoding="UTF-8"?>
<svg width="120px" height="120px" viewBox="0 0 120 120" version="1.1" xmlns="http://www.w3.org/2000/svg" xmlns:xlink="http://www.w3.org/1999/xlink">
    <!-- Generator: Sketch 41.2 (35397) - http://www.bohemiancoding.com/sketch -->
    <title>saved_time</title>
    <desc>Created with Sketch.</desc>
    <defs></defs>
    <g id="LP_Icons" stroke="none" stroke-width="1" fill="none" fill-rule="evenodd">
        <g id="saved_time" fill="#006EFA">
            <path d="M77.5806516,86.0553333 L43.2604253,86.0553333 C42.1553716,86.0553333 41.2416663,85.1866667 41.1800905,84.076 C41.1589032,83.7066667 41.1430126,83.5673333 41.1324189,83.476 C41.1118937,83.302 41.0999758,83.206 41.0999758,82.9373333 C41.0999758,75.3146667 44.5435853,67.9993333 50.0893789,63.8286667 C50.3932853,63.574 50.6925568,63.3326667 50.9825589,63.0986667 C52.0644389,62.2273333 52.9192168,61.538 53.2807263,60.712 C53.3575305,60.526 53.5859568,59.824 53.5859568,59.1533333 C53.5859568,58.4286667 53.3608411,57.56 53.2449726,57.1906667 C52.8583032,56.384 52.0088221,55.6966667 50.9428326,54.834 C50.6647484,54.6093333 50.3793811,54.3786667 50.0893789,54.1346667 C44.8090895,50.1653333 41.4601611,43.4906667 41.1271221,36.2673333 C41.0741537,35.1093333 41.9633611,34.1273333 43.1127758,34.074 C44.2621905,34.014 45.2374716,34.9146667 45.2911021,36.0726667 C45.5625653,41.984 48.3718779,47.6273333 52.6212695,50.8006667 C52.6530505,50.8253333 52.6848316,50.85 52.7152884,50.876 C52.9999937,51.116 53.2807263,51.3426667 53.5535137,51.5626667 C54.9114916,52.6613333 56.3158168,53.798 57.0944526,55.5753333 C57.1169642,55.6273333 57.1381516,55.68 57.1560284,55.7333333 C57.2176042,55.9106667 57.7539095,57.5126667 57.7539095,59.1533333 C57.7539095,60.8186667 57.1679463,62.234 57.1010737,62.3906667 C56.3211137,64.172 54.9306926,65.2926667 53.5866189,66.3753333 C53.3045621,66.6033333 53.0125737,66.8386667 52.7152884,67.088 C52.6848316,67.1133333 52.6537126,67.1386667 52.6212695,67.162 C48.3434074,70.358 45.5943463,75.9166667 45.2950747,81.8586667 L75.5433537,81.8586667 C75.2367989,75.97 72.5128979,70.454 68.2820453,67.26 C68.1953095,67.1946667 68.1145326,67.1233333 68.0390526,67.0453333 C67.6258989,66.6186667 67.2518095,66.2466667 66.9141358,65.9113333 C65.6912274,64.698 64.7245537,63.7393333 64.1789789,62.3233333 C64.1266726,62.1866667 63.6936558,61.0193333 63.5095905,59.53 C63.4943621,59.4146667 63.4897274,59.2986667 63.4950242,59.1826667 C63.5572621,57.6633333 64.0783389,55.9886667 64.1372663,55.8026667 C64.1498463,55.7626667 64.1630884,55.7233333 64.1789789,55.684 C64.7245537,54.2673333 65.6899032,53.3093333 66.9121495,52.0953333 C67.2511474,51.76 67.6258989,51.3873333 68.0390526,50.9606667 C68.1145326,50.8826667 68.1953095,50.8106667 68.2820453,50.7453333 C72.5016421,47.5606667 75.2871189,41.9193333 75.5512989,36.0226667 C75.6029432,34.866 76.5676305,33.972 77.7276389,34.0213333 C78.8770537,34.074 79.7669232,35.0546667 79.7152789,36.2126667 C79.3941579,43.3766667 76.1074674,50.014 70.9139137,54.0033333 C70.5219474,54.406 70.1637484,54.7606667 69.8386547,55.084 C68.8249716,56.09 68.31184,56.614 68.0860621,57.1473333 C67.9708558,57.5306667 67.7285253,58.4493333 67.6695979,59.1893333 C67.8033432,60.096 68.0675232,60.8126667 68.0701716,60.82 C68.2774105,61.3573333 68.7905421,61.882 69.8393168,62.9226667 C70.1644105,63.246 70.5219474,63.6006667 70.9132516,64.0026667 C76.3623779,68.19 79.7404389,75.4373333 79.7404389,82.962 C79.7404389,83.2413333 79.7285211,83.334 79.7073337,83.502 C79.69674,83.5846667 79.6821737,83.7133333 79.6609863,84.076 C79.5987484,85.1866667 78.6863674,86.0553333 77.5806516,86.0553333" id="Fill-37"></path>
            <path d="M40.3544453,30.3746667 C39.8697842,30.3746667 39.4751695,30.7706667 39.4751695,31.2573333 L39.4751695,32.774 C39.4751695,33.2613333 39.8697842,33.6573333 40.3544453,33.6573333 L78.9995432,33.6573333 C79.4835421,33.6573333 79.8781568,33.2613333 79.8781568,32.774 L79.8781568,31.2573333 C79.8781568,30.7706667 79.4835421,30.3746667 78.9995432,30.3746667 L40.3544453,30.3746667 Z M78.9995432,37.854 L40.3544453,37.854 C37.5716168,37.854 35.3072168,35.5753333 35.3072168,32.774 L35.3072168,31.2573333 C35.3072168,28.4566667 37.5716168,26.178 40.3544453,26.178 L78.9995432,26.178 C81.7817095,26.178 84.0461095,28.4566667 84.0461095,31.2573333 L84.0461095,32.774 C84.0461095,35.5753333 81.7817095,37.854 78.9995432,37.854 L78.9995432,37.854 Z" id="Fill-38"></path>
            <path d="M45.2752116,81.8586667 L75.8207758,81.8586667 C75.7320537,81.5486667 75.6188337,81.1853333 75.4764811,80.7573333 C74.7104253,80.208 73.9026568,79.7113333 72.3950432,79.478 C69.2116411,78.9846667 67.9225221,78.0813333 66.2354779,76.2426667 C63.4605947,73.2126667 62.8766179,67.592 62.7541284,65.316 L62.7117537,64.5373333 C62.6567989,63.5313333 62.5833053,62.2053333 62.5415926,61.2346667 C62.4124821,58.2453333 63.8307116,55.7293333 63.9929274,55.452 C64.0366263,55.3786667 64.0842979,55.3073333 64.1359421,55.2386667 C64.6556947,54.5593333 65.3780516,53.8506667 66.2944053,52.954 C66.8459389,52.414 67.4789116,51.7946667 68.1807432,51.0686667 C68.2555611,50.9906667 68.337,50.9186667 68.4237358,50.854 C68.9845389,50.43 69.5181958,49.9573333 70.0273547,49.432 C66.3023505,49.9513333 61.1928842,50.0553333 56.2840358,48.16 C54.1652989,47.342 51.4572884,47.4326667 49.4266116,47.6866667 C50.3489242,48.8526667 51.4169,49.8906667 52.6212695,50.7906667 C52.6537126,50.8146667 52.6854937,50.8393333 52.7152884,50.866 C53.0410442,51.1393333 53.3608411,51.3933333 53.66872,51.6386667 C54.9783642,52.6806667 56.3317074,53.758 57.0944526,55.5 C57.2017137,55.758 58.0035232,57.7646667 58.12204,60.5113333 C58.1472,61.0586667 58.1961958,64.2386667 58.12204,66.024 C58.1074737,66.3253333 58.09688,66.6306667 58.0856242,66.954 C57.9777011,70.0746667 57.7962842,75.2966667 53.7442,77.4933333 C51.7234547,78.5886667 50.0893789,79.0646667 48.6479758,79.4846667 C47.5442463,79.8066667 46.5643305,80.092 45.5082726,80.626 C45.4586147,80.7706667 45.41624,80.8873333 45.3798242,80.984 C45.3228832,81.1386667 45.2884537,81.2306667 45.2752116,81.8586667 Z M78.2215695,86.0553333 L43.2604253,86.0553333 C42.1553716,86.0553333 41.2416663,85.1866667 41.1800905,84.076 C41.1589032,83.7106667 41.1416884,83.498 41.1297705,83.3446667 C41.1099074,83.09 41.0999758,82.9473333 41.0999758,82.7186667 C41.0999758,80.7853333 41.1754558,80.3233333 41.4760516,79.5133333 C41.5409379,79.34 41.6237011,79.116 41.7296379,78.6933333 C41.8640453,78.1486667 42.2103263,77.682 42.6903526,77.396 C44.4813474,76.3306667 46.0101484,75.8853333 47.4886295,75.454 C48.8519042,75.0566667 50.1390368,74.6813333 51.7684779,73.7986667 C53.7144053,72.7433333 53.8382189,69.1713333 53.92032,66.808 C53.9329,66.4593333 53.9434937,66.1313333 53.9587221,65.8293333 C54.0242705,64.2406667 53.9799095,61.1753333 53.9587221,60.6966667 C53.8706621,58.6693333 53.2701326,57.1686667 53.2648358,57.154 C52.9351074,56.4046667 52.15912,55.7866667 51.0845232,54.9313333 C50.76274,54.674 50.4283768,54.4093333 50.0893789,54.124 C47.6184021,52.268 45.6122232,49.9406667 44.1257968,47.2073333 C43.8192421,46.6433333 43.7867989,45.968 44.0370747,45.3766667 C44.2880126,44.7846667 44.7945232,44.3413333 45.4109432,44.174 C45.7029316,44.0946667 52.6212695,42.2513333 57.7757589,44.242 C65.4124811,47.1886667 74.1026126,44.2473333 74.1893484,44.2173333 C75.0024137,43.9373333 75.9028768,44.1853333 76.4577211,44.8446667 C77.0132274,45.504 77.1112189,46.4386667 76.7027,47.1986667 C75.1235789,50.1393333 73.2749811,52.402 71.0562663,54.1106667 C70.3683389,54.818 69.74596,55.428 69.1997232,55.9626667 C68.4707453,56.676 67.8827958,57.2526667 67.5305558,57.6826667 C67.3312621,58.07 66.6400242,59.5293333 66.7055726,61.052 C66.7466232,62.008 66.8187926,63.314 66.8730853,64.3053333 L66.9161221,65.0893333 C67.0737032,68.02 67.7821558,71.7413333 69.2983768,73.396 C70.3531105,74.546 70.7483874,74.9773333 73.0286779,75.3306667 C75.7161632,75.746 77.2118589,76.8393333 78.2023684,77.5626667 L78.4433747,77.738 C78.7942905,77.99 79.0584705,78.344 79.2001611,78.7533333 C80.2191411,81.6866667 80.3707632,82.8466667 80.3025663,84.0746667 C80.2409905,85.186 79.3272853,86.0553333 78.2215695,86.0553333 L78.2215695,86.0553333 Z" id="Fill-39"></path>
            <path d="M41.1781042,86.0553333 C40.6947674,86.0553333 40.3008147,86.4513333 40.3008147,86.9386667 L40.3008147,88.4546667 C40.3008147,88.9413333 40.6947674,89.338 41.1781042,89.338 L79.8258505,89.338 C80.3091874,89.338 80.70314,88.9413333 80.70314,88.4546667 L80.70314,86.9386667 C80.70314,86.4513333 80.3091874,86.0553333 79.8258505,86.0553333 L41.1781042,86.0553333 Z M79.8258505,93.5346667 L41.1781042,93.5346667 C38.3959379,93.5346667 36.1335242,91.256 36.1335242,88.4546667 L36.1335242,86.9386667 C36.1335242,84.1373333 38.3959379,81.8586667 41.1781042,81.8586667 L79.8258505,81.8586667 C82.6073547,81.8586667 84.8710926,84.1373333 84.8710926,86.9386667 L84.8710926,88.4546667 C84.8710926,91.256 82.6073547,93.5346667 79.8258505,93.5346667 L79.8258505,93.5346667 Z" id="Fill-40"></path>
        </g>
    </g>
</svg>