<svg xmlns="http://www.w3.org/2000/svg" width="19.125" height="18.81" viewBox="0 0 19.125 18.81">
  <defs>
    <style>
      .cls-1 {
        fill: #999;
        fill-rule: evenodd;
      }
    </style>
  </defs>
  <path id="Linkedin" class="cls-1" d="M847.605,6901.59a2.057,2.057,0,0,1-.628,1.56,2.3,2.3,0,0,1-1.687.63h-0.025a2.2,2.2,0,0,1-1.642-.63,2.128,2.128,0,0,1-.623-1.56,2.076,2.076,0,0,1,.64-1.57,2.289,2.289,0,0,1,1.675-.63,2.223,2.223,0,0,1,1.656.63A2.147,2.147,0,0,1,847.605,6901.59Zm-0.261,3.92v12.71h-4.107v-12.71h4.107Zm14.778,5.42v7.29h-4.1v-6.8a3.8,3.8,0,0,0-.5-2.11,1.748,1.748,0,0,0-1.576-.76,2,2,0,0,0-1.312.44,2.687,2.687,0,0,0-.79,1.1,3.079,3.079,0,0,0-.138,1.03v7.1h-4.1q0.024-5.115.025-8.3c0-2.12,0-3.39-.013-3.79l-0.012-.62h4.1v1.85H853.68a4.993,4.993,0,0,1,.512-0.72,5.11,5.11,0,0,1,.7-0.67,3.141,3.141,0,0,1,1.084-.56,4.877,4.877,0,0,1,1.425-.2,4.361,4.361,0,0,1,3.422,1.46A6.216,6.216,0,0,1,862.122,6910.93Z" transform="translate(-843 -6899.41)"/>
</svg>
