<?xml version="1.0" encoding="utf-8"?>
<!-- Generator: Avocode 2.5.4 - http://avocode.com -->
<svg height="42" width="38" xmlns:xlink="http://www.w3.org/1999/xlink" xmlns="http://www.w3.org/2000/svg" viewBox="0 0 38 42">
    <path fill="#ba9444" fill-rule="evenodd" d="M 16.73 37.62 C 16.73 37.62 16.73 22.62 16.73 22.62 C 16.73 22.62 37.58 22.62 37.58 22.62 C 37.58 22.62 37.58 41.74 37.58 41.74 C 37.58 41.74 16.73 37.62 16.73 37.62 Z M 36.36 23.78 C 36.36 23.78 17.95 23.78 17.95 23.78 C 17.95 23.78 17.95 36.46 17.95 36.46 C 17.95 36.46 36.36 40.08 36.36 40.08 C 36.36 40.08 36.36 23.78 36.36 23.78 Z M 16.64 4.41 C 16.64 4.41 37.5 0.28 37.5 0.28 C 37.5 0.28 37.5 19.4 37.5 19.4 C 37.5 19.4 16.64 19.4 16.64 19.4 C 16.64 19.4 16.64 4.41 16.64 4.41 Z M 17.95 18.16 C 17.95 18.16 36.36 18.16 36.36 18.16 C 36.36 18.16 36.36 1.77 36.36 1.77 C 36.36 1.77 17.95 5.39 17.95 5.39 C 17.95 5.39 17.95 18.16 17.95 18.16 Z M 0.56 22.53 C 0.56 22.53 13.5 22.53 13.5 22.53 C 13.5 22.53 13.5 36.93 13.5 36.93 C 13.5 36.93 0.56 34 0.56 34 C 0.56 34 0.56 22.53 0.56 22.53 Z M 1.7 33.01 C 1.7 33.01 12.11 35.29 12.11 35.29 C 12.11 35.29 12.11 23.78 12.11 23.78 C 12.11 23.78 1.7 23.78 1.7 23.78 C 1.7 23.78 1.7 33.01 1.7 33.01 Z M 0.56 7.93 C 0.56 7.93 13.5 5 13.5 5 C 13.5 5 13.5 19.4 13.5 19.4 C 13.5 19.4 0.56 19.4 0.56 19.4 C 0.56 19.4 0.56 7.93 0.56 7.93 Z M 1.7 18.16 C 1.7 18.16 12.11 18.16 12.11 18.16 C 12.11 18.16 12.11 6.56 12.11 6.56 C 12.11 6.56 1.7 8.93 1.7 8.93 C 1.7 8.93 1.7 18.16 1.7 18.16 Z" />
</svg>