<svg xmlns="http://www.w3.org/2000/svg" preserveAspectRatio="xMidYMid" width="28" height="28" viewBox="0 0 28 28"><defs><style>.cls-2{fill:#000}</style></defs><path d="M0 27.999v-28h3.2v24.799H28v3.201H0zm25.733-17.755l-4.338 5.599a2.002 2.002 0 0 1-1.988 2.217 1.989 1.989 0 0 1-1.922-1.449l-4.318-2.413a1.994 1.994 0 0 1-.878.153L8.73 18.254a2.002 2.002 0 0 1-1.989 2.206c-1.103 0-2-.897-2-1.999 0-1.084.866-1.97 1.943-2l3.71-4.069v-.038a2.002 2.002 0 0 1 3.894-.646l4.428 2.476c.197-.073.405-.115.619-.123l4.303-5.554a2.003 2.003 0 0 1 1.983-2.26c1.102 0 2 .898 2 2a2.003 2.003 0 0 1-1.888 1.997z" id="path-1" class="cls-2" fill-rule="evenodd"/></svg>