<?xml version="1.0" encoding="utf-8"?>
<!-- Generator: Adobe Illustrator 19.1.0, SVG Export Plug-In . SVG Version: 6.00 Build 0)  -->
<svg version="1.1" id="Слой_1" xmlns="http://www.w3.org/2000/svg" xmlns:xlink="http://www.w3.org/1999/xlink" x="0px" y="0px"
	 viewBox="0 0 19.08 14.356" style="enable-background:new 0 0 19.08 14.356;" xml:space="preserve">
<style type="text/css">
	.st0{fill-rule:evenodd;clip-rule:evenodd;fill:#FFFFFF;}
	.st1{fill:#1E1E1C;}
</style>
<g>
	<g>
		<g>
			<path class="st0" d="M4.815,4.835c-0.023-0.27-0.239-1.056-0.819-2.18c-0.58-1.123-0.114-1.809,0.773-1.768
				C5.655,0.927,5.54,0.15,6.262,0.15s0.607,0.776,1.494,0.736c0.887-0.041,1.354,0.644,0.773,1.768
				c-0.58,1.124-0.795,1.911-0.819,2.18C7.498,7.224,5.026,7.224,4.815,4.835z"/>
			<path class="st1" d="M6.262,6.777c-0.71,0-1.479-0.596-1.597-1.929C4.642,4.573,4.408,3.781,3.862,2.724
				C3.55,2.119,3.504,1.579,3.733,1.204c0.184-0.302,0.526-0.469,0.963-0.469l0.138,0.003c0.357,0,0.498-0.158,0.664-0.34
				C5.666,0.212,5.857,0,6.262,0c0.405,0,0.596,0.212,0.765,0.398c0.165,0.182,0.307,0.34,0.664,0.34l0.138-0.003
				c0.436,0,0.778,0.167,0.962,0.469c0.229,0.375,0.183,0.916-0.129,1.52C8.118,3.779,7.883,4.572,7.859,4.848
				C7.741,6.181,6.972,6.777,6.262,6.777z M4.696,1.035c-0.328,0-0.579,0.116-0.707,0.325C3.817,1.643,3.867,2.078,4.128,2.586
				c0.61,1.181,0.814,1.979,0.836,2.236c0.101,1.143,0.725,1.655,1.298,1.655c0.573,0,1.197-0.512,1.298-1.655
				c0.022-0.258,0.227-1.057,0.836-2.236c0.262-0.508,0.311-0.943,0.14-1.227C8.408,1.15,8.157,1.035,7.829,1.035L7.691,1.038
				c-0.49,0-0.71-0.244-0.887-0.439C6.653,0.432,6.534,0.3,6.262,0.3C5.99,0.3,5.871,0.432,5.72,0.599
				C5.543,0.795,5.324,1.038,4.834,1.038L4.696,1.035z"/>
		</g>
		<g>
			<path class="st0" d="M6.294,4.846c2.271,0,4.111,1.827,4.111,4.081s0.187,4.081-4.111,4.081c-4.297,0-4.111-1.827-4.111-4.081
				S4.024,4.846,6.294,4.846z"/>
			<path class="st1" d="M6.294,13.157c-1.768,0-2.89-0.3-3.532-0.944c-0.737-0.739-0.733-1.845-0.729-3.017l0-0.269
				c0-2.332,1.911-4.231,4.261-4.231c2.35,0,4.261,1.898,4.261,4.231l0,0.27c0.004,1.171,0.008,2.277-0.729,3.016
				C9.185,12.857,8.062,13.157,6.294,13.157z M6.294,4.996c-2.184,0-3.961,1.763-3.961,3.931l0,0.271
				C2.329,10.352,2.325,11.35,2.974,12c0.574,0.576,1.66,0.857,3.32,0.857c1.66,0,2.746-0.28,3.32-0.857
				c0.649-0.651,0.646-1.648,0.642-2.803l0-0.271C10.255,6.759,8.478,4.996,6.294,4.996z"/>
		</g>
		<g>
			<path class="st0" d="M6.294,4.846c1.138,0,2.168,0.459,2.913,1.201C9.462,6.577,9.605,7.172,9.605,7.8
				c0.933,4.626-2.915,5.973-7.251,3.419c-0.198-0.653-0.171-1.443-0.171-2.293C2.183,6.672,4.024,4.846,6.294,4.846z"/>
			<path class="st1" d="M6.401,12.646c-1.256,0-2.682-0.449-4.123-1.298c-0.032-0.02-0.057-0.05-0.067-0.086
				C2.027,10.658,2.03,9.948,2.033,9.197l0-0.271c0-2.332,1.911-4.231,4.261-4.231c1.142,0,2.213,0.442,3.018,1.244
				c0.013,0.012,0.022,0.026,0.029,0.042C9.616,6.551,9.755,7.163,9.755,7.8c0.314,1.539,0.104,2.828-0.608,3.697
				C8.532,12.249,7.582,12.646,6.401,12.646z M2.481,11.12c1.377,0.802,2.732,1.226,3.919,1.226c1.089,0,1.958-0.359,2.514-1.038
				c0.653-0.798,0.841-2,0.542-3.478C9.455,7.218,9.33,6.657,9.082,6.134C8.336,5.4,7.347,4.996,6.294,4.996
				c-2.184,0-3.961,1.763-3.961,3.931l0,0.272C2.33,9.902,2.328,10.568,2.481,11.12z"/>
		</g>
		<g>
			<path class="st0" d="M4.774,4.226h3.045c0.116,0,0.211,0.202,0.211,0.45l0,0c0,0.246-0.095,0.449-0.211,0.449H4.774
				c-0.116,0-0.211-0.202-0.211-0.449l0,0C4.562,4.428,4.658,4.226,4.774,4.226z"/>
			<path class="st1" d="M7.819,5.274H4.774c-0.209,0-0.361-0.252-0.361-0.599c0-0.348,0.152-0.6,0.361-0.6h3.045
				c0.209,0,0.361,0.253,0.361,0.6C8.18,5.022,8.028,5.274,7.819,5.274z M7.799,4.371L4.774,4.376c0,0.009-0.061,0.112-0.061,0.3
				c0,0.187,0.061,0.29,0.082,0.303l3.01-0.004C7.829,4.948,7.88,4.848,7.88,4.675C7.88,4.487,7.819,4.385,7.799,4.371z"/>
		</g>
		<g>
			<path class="st0" d="M7.48,8.805C7.344,8.669,7.109,8.554,6.776,8.46C6.699,8.438,6.617,8.417,6.53,8.398V7.454
				c0.105,0.037,0.186,0.093,0.246,0.168c0.049,0.061,0.083,0.133,0.104,0.219l0.735-0.08C7.564,7.52,7.448,7.327,7.266,7.183
				C7.135,7.079,6.972,7.005,6.776,6.96C6.699,6.943,6.617,6.93,6.53,6.92V6.682h-0.42V6.92C6.044,6.926,5.982,6.934,5.921,6.945
				C5.674,6.992,5.47,7.087,5.308,7.232C5.107,7.411,5.007,7.632,5.007,7.896c0,0.261,0.089,0.483,0.266,0.665
				C5.42,8.712,5.636,8.831,5.921,8.919c0.06,0.019,0.123,0.036,0.188,0.051v1.011C6.043,9.954,5.98,9.917,5.921,9.87
				C5.888,9.843,5.855,9.813,5.824,9.778C5.739,9.685,5.681,9.574,5.649,9.445L4.891,9.513c0.058,0.317,0.191,0.562,0.4,0.735
				c0.169,0.14,0.379,0.235,0.63,0.284c0.061,0.012,0.123,0.021,0.188,0.027V11h0.42v-0.452c0.086-0.01,0.169-0.025,0.246-0.043
				c0.263-0.062,0.477-0.17,0.64-0.324c0.211-0.2,0.318-0.445,0.318-0.736C7.734,9.184,7.649,8.971,7.48,8.805z M6.109,8.282
				C6.036,8.256,5.974,8.225,5.921,8.189C5.884,8.163,5.853,8.135,5.827,8.104C5.765,8.032,5.734,7.952,5.734,7.867
				c0-0.093,0.034-0.179,0.102-0.256C5.861,7.582,5.89,7.556,5.921,7.534c0.054-0.038,0.116-0.067,0.188-0.087V8.282z M6.885,9.847
				c-0.033,0.032-0.069,0.06-0.109,0.083C6.706,9.972,6.623,10,6.53,10.015V9.074C6.627,9.097,6.709,9.125,6.776,9.16
				C6.83,9.188,6.873,9.219,6.907,9.253c0.077,0.078,0.116,0.17,0.116,0.279C7.022,9.653,6.977,9.758,6.885,9.847z"/>
			<path class="st1" d="M6.53,11.15h-0.42c-0.083,0-0.15-0.067-0.15-0.15v-0.309c-0.023-0.004-0.045-0.008-0.067-0.012
				c-0.274-0.053-0.508-0.159-0.697-0.315C4.96,10.17,4.808,9.893,4.743,9.541C4.736,9.499,4.746,9.456,4.771,9.422
				c0.026-0.034,0.064-0.055,0.106-0.059l0.759-0.068c0.08-0.002,0.142,0.042,0.159,0.114c0.026,0.103,0.073,0.193,0.14,0.267
				c0.008,0.009,0.016,0.018,0.024,0.026V9.087C5.932,9.079,5.904,9.07,5.877,9.063C5.568,8.967,5.329,8.833,5.165,8.666
				C4.96,8.454,4.857,8.194,4.857,7.896c0-0.307,0.118-0.568,0.351-0.776c0.182-0.162,0.412-0.27,0.687-0.321
				c0.021-0.004,0.043-0.007,0.065-0.011V6.682c0-0.083,0.067-0.15,0.15-0.15h0.42c0.083,0,0.15,0.067,0.15,0.15v0.107
				c0.045,0.007,0.088,0.016,0.13,0.025c0.216,0.049,0.401,0.134,0.549,0.251c0.208,0.165,0.344,0.389,0.402,0.664
				c0.009,0.042,0,0.085-0.025,0.119C7.711,7.883,7.673,7.905,7.631,7.91L6.895,7.99C6.822,7.998,6.751,7.949,6.733,7.875
				c-0.012-0.05-0.03-0.094-0.054-0.13v0.534c0.047,0.012,0.093,0.024,0.137,0.037c0.362,0.102,0.613,0.227,0.77,0.383
				c0.197,0.194,0.297,0.446,0.297,0.747c0,0.332-0.123,0.616-0.365,0.845c-0.182,0.172-0.421,0.293-0.709,0.361
				c-0.042,0.01-0.085,0.019-0.13,0.027V11C6.68,11.083,6.613,11.15,6.53,11.15z M6.259,10.85H6.38v-0.301
				c0-0.076,0.057-0.14,0.132-0.149c0.08-0.01,0.157-0.023,0.229-0.04c0.237-0.056,0.429-0.152,0.572-0.288
				c0.182-0.171,0.27-0.376,0.27-0.626c0-0.221-0.068-0.396-0.208-0.534c-0.118-0.117-0.333-0.22-0.641-0.308
				c-0.074-0.021-0.153-0.041-0.238-0.06C6.428,8.528,6.38,8.468,6.38,8.398V7.454c0-0.048,0.024-0.095,0.064-0.122
				c0.04-0.029,0.091-0.035,0.137-0.019c0.13,0.046,0.235,0.119,0.313,0.215c0.036,0.044,0.066,0.095,0.09,0.15L7.42,7.631
				C7.367,7.498,7.285,7.389,7.173,7.3c-0.112-0.089-0.257-0.154-0.43-0.193C6.671,7.09,6.595,7.078,6.514,7.069
				C6.438,7.062,6.38,6.997,6.38,6.92V6.832H6.259V6.92c0,0.078-0.06,0.143-0.137,0.149c-0.06,0.005-0.118,0.013-0.173,0.023
				c-0.222,0.042-0.399,0.123-0.541,0.25C5.239,7.494,5.157,7.675,5.157,7.896c0,0.222,0.073,0.405,0.224,0.561
				c0.127,0.131,0.325,0.239,0.585,0.319c0.057,0.017,0.116,0.033,0.178,0.048C6.211,8.839,6.259,8.9,6.259,8.97v1.011
				c0,0.05-0.025,0.097-0.066,0.125c-0.042,0.027-0.094,0.033-0.14,0.015c-0.08-0.032-0.156-0.077-0.226-0.133
				C5.788,9.955,5.75,9.92,5.713,9.879c-0.073-0.08-0.13-0.171-0.17-0.274L5.077,9.647c0.061,0.205,0.164,0.365,0.31,0.486
				c0.149,0.124,0.338,0.208,0.563,0.252c0.056,0.011,0.114,0.02,0.173,0.025c0.077,0.007,0.136,0.072,0.136,0.149V10.85z
				 M6.53,10.165c-0.036,0-0.07-0.013-0.098-0.037C6.399,10.1,6.38,10.058,6.38,10.015V9.074c0-0.046,0.021-0.089,0.057-0.118
				c0.036-0.029,0.083-0.04,0.128-0.028c0.11,0.026,0.202,0.059,0.28,0.099c0.067,0.034,0.124,0.075,0.169,0.122
				c0.106,0.107,0.159,0.236,0.159,0.384c0,0.162-0.062,0.304-0.182,0.422c-0.042,0.041-0.088,0.076-0.139,0.105
				c-0.087,0.051-0.188,0.086-0.299,0.102C6.545,10.164,6.537,10.165,6.53,10.165z M6.68,9.28v0.532
				C6.686,9.809,6.693,9.805,6.7,9.802c0.03-0.018,0.056-0.038,0.08-0.061c0.064-0.062,0.093-0.128,0.093-0.208
				c0-0.068-0.023-0.123-0.073-0.174C6.776,9.335,6.746,9.313,6.707,9.293C6.699,9.289,6.689,9.284,6.68,9.28z M6.109,8.432
				c-0.017,0-0.034-0.003-0.05-0.009c-0.083-0.029-0.157-0.066-0.222-0.11c-0.049-0.035-0.089-0.07-0.124-0.11
				C5.628,8.103,5.584,7.986,5.584,7.867c0-0.13,0.046-0.249,0.138-0.355c0.036-0.039,0.073-0.073,0.113-0.101
				c0.068-0.048,0.147-0.084,0.233-0.108C6.113,7.29,6.163,7.299,6.2,7.327c0.038,0.029,0.06,0.073,0.06,0.12v0.835
				c0,0.049-0.023,0.094-0.063,0.123C6.17,8.423,6.14,8.432,6.109,8.432z"/>
		</g>
		<g>
			<path class="st0" d="M4.186,3.037c-0.058-0.123-0.122-0.25-0.19-0.382c-0.58-1.123-0.114-1.809,0.773-1.768
				C5.655,0.927,5.54,0.15,6.262,0.15c0.722,0,0.607,0.776,1.494,0.736C7.928,0.879,8.084,0.899,8.22,0.943
				C8.108,1.295,8.049,1.552,7.987,1.716C7.618,3.599,5.808,4.201,4.186,3.037z"/>
			<path class="st1" d="M5.87,3.781c-0.592,0-1.204-0.215-1.771-0.622C4.078,3.145,4.061,3.125,4.05,3.102
				C3.993,2.98,3.93,2.855,3.862,2.724C3.55,2.119,3.504,1.579,3.733,1.204c0.184-0.302,0.526-0.469,0.963-0.469l0.138,0.003
				c0.357,0,0.498-0.158,0.664-0.34C5.666,0.212,5.857,0,6.262,0c0.406,0,0.596,0.212,0.765,0.398
				c0.165,0.182,0.307,0.34,0.664,0.34l0.137-0.003c0.159,0,0.307,0.022,0.439,0.066c0.078,0.026,0.121,0.11,0.096,0.188
				C8.31,1.155,8.269,1.3,8.234,1.423C8.194,1.565,8.162,1.68,8.127,1.769C7.888,3.001,7.02,3.781,5.87,3.781z M4.304,2.938
				C4.811,3.293,5.352,3.481,5.87,3.481c0.998,0,1.753-0.688,1.971-1.794c0.038-0.106,0.068-0.214,0.105-0.346
				C7.97,1.255,7.998,1.158,8.03,1.051C7.966,1.04,7.898,1.035,7.828,1.035L7.691,1.038c-0.49,0-0.71-0.243-0.887-0.439
				C6.653,0.432,6.535,0.3,6.262,0.3C5.99,0.3,5.871,0.432,5.72,0.599C5.543,0.795,5.324,1.038,4.834,1.038L4.696,1.035
				c-0.328,0-0.579,0.116-0.707,0.325C3.817,1.643,3.867,2.078,4.128,2.586C4.191,2.707,4.249,2.824,4.304,2.938z"/>
		</g>
	</g>
	<g>
		<path class="st0" d="M17.121,9.356c-1.443-1.103-3.556-2.454-5.448-1.816C10.398,7.971,9.358,8.689,7.939,8.9
			C7.525,8.962,7.128,8.943,6.743,8.981c-0.878,0.086-3.014,0.761-1.415,1.663c0.596,0.337,1.228,0.331,1.89,0.268
			c0.61-0.058,0.942-0.119,1.545,0.078c0.178,0.058,0.288,0.109,0.208,0.231c-0.292,0.45-1.635,0.978-2.147,1.012
			c-0.48,0.032-2.897-0.511-3.443-0.838c-0.234-0.141-0.466-0.317-0.682-0.48c-0.482-0.365-0.885-0.57-1.475-0.704
			c-1.019-0.231-1.421-0.009-0.726,1.036c0.562,0.846,1.198,1.146,2.023,1.666c0.383,0.241,0.786,0.432,1.268,0.612
			c1.717,0.643,2.896,0.67,4.647,0.679c0.859,0.004,2.002-0.758,2.884-1.058c0.609-0.207,1.624-0.632,2.237-0.622
			c1.388,0.021,2.412,1.141,3.334,1.359c0.02,0.004,0.039,0.007,0.058,0.009l1.981-2.475C18.939,10.743,17.606,9.727,17.121,9.356z"
			/>
		<path class="st1" d="M8.442,14.356c0,0-0.008,0-0.008,0c-1.795-0.009-2.983-0.047-4.698-0.689
			c-0.508-0.19-0.919-0.389-1.295-0.626c-0.124-0.078-0.244-0.151-0.36-0.222c-0.651-0.398-1.213-0.742-1.708-1.488
			c-0.344-0.518-0.446-0.868-0.32-1.102C0.193,9.963,0.57,9.91,1.256,10.066c0.583,0.132,1.013,0.337,1.533,0.73
			c0.231,0.175,0.449,0.339,0.668,0.471c0.519,0.311,2.794,0.818,3.321,0.818c0.523-0.034,1.746-0.529,2.044-0.914
			c-0.023-0.01-0.056-0.022-0.106-0.038c-0.461-0.15-0.797-0.139-1.31-0.088l-0.176,0.017c-0.245,0.023-0.442,0.034-0.621,0.034
			c-0.538,0-0.969-0.102-1.356-0.321C4.762,10.497,4.546,10.2,4.611,9.89c0.138-0.65,1.511-0.999,2.117-1.059
			C6.891,8.816,7.057,8.81,7.225,8.803C7.45,8.795,7.683,8.787,7.916,8.752c0.878-0.131,1.596-0.455,2.356-0.798
			c0.431-0.194,0.877-0.396,1.352-0.556c0.338-0.114,0.7-0.172,1.076-0.172c1.685,0,3.381,1.148,4.511,2.011
			c0.878,0.671,1.877,1.521,1.868,2.184c-0.001,0.033-0.012,0.065-0.033,0.092l-1.981,2.475c-0.031,0.039-0.08,0.059-0.131,0.056
			c-0.026-0.002-0.053-0.006-0.08-0.013c-0.381-0.09-0.771-0.321-1.184-0.565c-0.615-0.364-1.312-0.777-2.118-0.79h0
			c-0.485,0-1.205,0.261-1.784,0.471c-0.146,0.053-0.282,0.102-0.402,0.143c-0.299,0.102-0.629,0.258-0.979,0.424
			C9.723,14.029,9.034,14.356,8.442,14.356z M0.618,10.279c-0.094,0-0.259,0.012-0.302,0.091c-0.023,0.043-0.07,0.229,0.306,0.795
			c0.459,0.691,0.969,1.003,1.616,1.397c0.117,0.072,0.238,0.146,0.363,0.225c0.358,0.226,0.752,0.417,1.24,0.599
			c1.67,0.625,2.779,0.661,4.594,0.67l0.007,0.15v-0.15c0.524,0,1.182-0.312,1.818-0.613c0.357-0.169,0.695-0.33,1.011-0.437
			c0.119-0.04,0.253-0.089,0.397-0.141c0.601-0.218,1.348-0.489,1.868-0.489c0.909,0.014,1.642,0.448,2.289,0.832
			c0.378,0.224,0.736,0.436,1.064,0.523l1.889-2.361c-0.058-0.602-1.319-1.565-1.74-1.888c-1.102-0.842-2.743-1.955-4.336-1.955
			c-0.343,0-0.672,0.053-0.979,0.156c-0.461,0.156-0.9,0.354-1.325,0.546C9.65,8.564,8.88,8.912,7.96,9.048
			c-0.25,0.038-0.491,0.046-0.725,0.055C7.074,9.109,6.915,9.115,6.757,9.13c-0.683,0.066-1.77,0.428-1.852,0.822
			c-0.046,0.219,0.291,0.445,0.497,0.561c0.34,0.192,0.724,0.282,1.208,0.282c0.169,0,0.357-0.011,0.593-0.033l0.174-0.017
			c0.54-0.054,0.93-0.063,1.433,0.102c0.152,0.05,0.281,0.101,0.325,0.226c0.018,0.051,0.026,0.132-0.038,0.23
			c-0.332,0.511-1.739,1.045-2.263,1.08l-0.055,0.002c-0.576,0-2.921-0.529-3.476-0.861c-0.233-0.14-0.457-0.31-0.674-0.473
			c-0.51-0.387-0.895-0.57-1.439-0.694C0.958,10.306,0.766,10.279,0.618,10.279z"/>
	</g>
</g>
</svg>
