<?xml version="1.0" encoding="utf-8"?>
<!-- Generator: Avocode 2.5.4 - http://avocode.com -->
<svg height="13" width="13" xmlns:xlink="http://www.w3.org/1999/xlink" xmlns="http://www.w3.org/2000/svg" viewBox="0 0 13 13">
    <path fill="#999999" fill-rule="evenodd" d="M 6.5 0 C 2.91 0 0 2.91 0 6.5 C 0 10.09 2.91 13 6.5 13 C 10.09 13 13 10.09 13 6.5 C 13 2.91 10.09 0 6.5 0 Z M 10.48 3.37 C 11.12 4.18 11.51 5.17 11.56 6.26 C 10.83 6.11 10.14 6.03 9.49 6.03 C 9.49 6.03 9.49 6.03 9.49 6.03 C 9.49 6.03 9.48 6.03 9.48 6.03 C 8.96 6.03 8.48 6.08 8.02 6.16 C 7.9 5.89 7.79 5.62 7.68 5.37 C 8.7 4.92 9.69 4.28 10.48 3.37 Z M 6.5 1.43 C 7.7 1.43 8.79 1.85 9.66 2.54 C 9 3.34 8.12 3.92 7.17 4.32 C 6.51 3.03 5.86 2.11 5.42 1.55 C 5.77 1.47 6.13 1.43 6.5 1.43 Z M 4.26 1.96 C 4.61 2.37 5.32 3.29 6.07 4.72 C 4.54 5.17 3 5.28 2.06 5.28 C 2.04 5.28 2.01 5.28 1.99 5.28 C 1.99 5.28 1.98 5.28 1.98 5.28 C 1.83 5.28 1.69 5.27 1.58 5.27 C 1.94 3.82 2.94 2.61 4.26 1.96 Z M 1.43 6.5 C 1.43 6.48 1.43 6.45 1.43 6.43 C 1.58 6.43 1.76 6.44 1.98 6.44 C 1.98 6.44 1.99 6.44 1.99 6.44 C 3.01 6.43 4.79 6.35 6.59 5.78 C 6.69 5.99 6.79 6.22 6.88 6.45 C 5.68 6.85 4.73 7.49 4.03 8.13 C 3.35 8.75 2.89 9.36 2.63 9.76 C 1.88 8.88 1.43 7.74 1.43 6.5 Z M 6.5 11.57 C 5.37 11.57 4.33 11.2 3.49 10.57 C 3.67 10.28 4.05 9.71 4.66 9.12 C 5.29 8.52 6.16 7.9 7.3 7.53 C 7.68 8.61 8.03 9.85 8.3 11.24 C 7.74 11.45 7.13 11.57 6.5 11.57 Z M 9.37 10.67 C 9.11 9.41 8.79 8.28 8.43 7.26 C 8.76 7.22 9.11 7.19 9.47 7.19 C 9.47 7.19 9.49 7.19 9.49 7.19 C 9.49 7.19 9.49 7.19 9.49 7.19 C 9.49 7.19 9.49 7.19 9.49 7.19 C 10.09 7.19 10.76 7.26 11.48 7.43 C 11.23 8.77 10.45 9.92 9.37 10.67 Z" />
</svg>