<svg xmlns="http://www.w3.org/2000/svg" preserveAspectRatio="xMidYMid" width="34" height="58" viewBox="0 0 34 58"><defs><style>.cls-2{fill:#c5c5c5}</style></defs><path d="M28.369 37.751v-7.37c0-16.436-7.044-26.364-9.992-29.798a1.686 1.686 0 0 0-1.276-.588 1.692 1.692 0 0 0-1.284.577C12.821 3.997 5.634 13.931 5.634 30.384v7.369l-1.379.916a9.492 9.492 0 0 0-4.252 7.895v8.794c0 .519.292 1.001.757 1.247a1.454 1.454 0 0 0 1.472-.07l4.478-2.946a7.74 7.74 0 0 1 4.244-1.269h3.293v4.265c0 .781.643 1.416 1.435 1.416h2.637c.793 0 1.436-.635 1.436-1.416V52.32h3.291c1.511 0 2.988.441 4.248 1.272l4.475 2.943c.44.287 1.005.317 1.472.07a1.42 1.42 0 0 0 .758-1.247v-8.794c0-3.164-1.596-6.124-4.252-7.895l-1.378-.918zM17.003 26.209c-2.736 0-4.956-2.191-4.956-4.891s2.22-4.888 4.956-4.888c2.733 0 4.953 2.188 4.953 4.888 0 2.7-2.22 4.891-4.953 4.891z" id="path-1" class="cls-2" fill-rule="evenodd"/></svg>