<svg xmlns="http://www.w3.org/2000/svg" width="25" height="29.03" viewBox="0 0 25 29.03"><defs><style>.cls-1{fill-rule:evenodd}</style></defs><path id="tech_4" class="cls-1" d="M1142.82 4797.44h-.07a1.748 1.748 0 0 0-1.75 1.73v7.53a1.748 1.748 0 0 0 1.75 1.73h.07a1.741 1.741 0 0 0 1.75-1.73v-7.53a1.748 1.748 0 0 0-1.75-1.73zm2.59 12.16a1.6 1.6 0 0 0 1.6 1.59h1.72v4.07a1.748 1.748 0 0 0 1.75 1.73h.07a1.748 1.748 0 0 0 1.75-1.73v-4.07h2.4v4.07a1.748 1.748 0 0 0 1.75 1.73h.07a1.741 1.741 0 0 0 1.75-1.73v-4.07h1.72a1.6 1.6 0 0 0 1.6-1.59v-11.88h-16.18v11.88zm12.12-19.09l1.36-2.08a.288.288 0 0 0-.48-.32l-1.42 2.16a9.451 9.451 0 0 0-6.99 0l-1.41-2.16a.288.288 0 1 0-.48.32l1.36 2.08a6.826 6.826 0 0 0-4.12 6.02 3.708 3.708 0 0 0 .03.47h16.24a3.708 3.708 0 0 0 .03-.47 6.826 6.826 0 0 0-4.12-6.02zm-7.8 3.73a.781.781 0 0 1-.78-.78.785.785 0 0 1 1.57 0 .783.783 0 0 1-.79.78zm7.54 0a.783.783 0 0 1-.79-.78.785.785 0 1 1 .79.78zm6.98 3.2h-.07a1.748 1.748 0 0 0-1.75 1.73v7.53a1.748 1.748 0 0 0 1.75 1.73h.07a1.748 1.748 0 0 0 1.75-1.73v-7.53a1.748 1.748 0 0 0-1.75-1.73z" transform="translate(-1141 -4787.97)"/></svg>