<?xml version="1.0" encoding="utf-8"?>
<!-- Generator: Avocode 2.6.0 - http://avocode.com -->
<svg height="396" width="479" xmlns:xlink="http://www.w3.org/1999/xlink" xmlns="http://www.w3.org/2000/svg" viewBox="0 0 479 396">
    <path stroke-linejoin="miter" stroke-linecap="butt" stroke-dasharray="4,2" stroke-width="1" stroke="#ba9444" fill="none" fill-rule="evenodd" d="M 240 0 C 349.35 0 438 88.65 438 198 C 438 307.35 349.35 396 240 396 C 130.65 396 42 307.35 42 198 C 42 88.65 130.65 0 240 0 Z" />
    <text font-weight="300" font-size="28" font-family="ProximaNova" fill="#000000" y="246" x="117">
        <tspan>Mobile AppDevelopmentProcess</tspan>
        <tspan>Mobile AppDevelopmentProcess</tspan>
        <tspan>Mobile AppDevelopmentProcess</tspan>
    </text>
    <path fill="#ba9444" fill-rule="evenodd" d="M 91.5 313 C 100.61 313 108 320.39 108 329.5 C 108 338.61 100.61 346 91.5 346 C 82.39 346 75 338.61 75 329.5 C 75 320.39 82.39 313 91.5 313 Z" />
    <path fill="#ba9444" fill-rule="evenodd" d="M 388.5 313 C 397.61 313 405 320.39 405 329.5 C 405 338.61 397.61 346 388.5 346 C 379.39 346 372 338.61 372 329.5 C 372 320.39 379.39 313 388.5 313 Z" />
    <path fill="#ba9444" fill-rule="evenodd" d="M 91.5 50 C 100.61 50 108 57.39 108 66.5 C 108 75.61 100.61 83 91.5 83 C 82.39 83 75 75.61 75 66.5 C 75 57.39 82.39 50 91.5 50 Z" />
    <path fill="#ba9444" fill-rule="evenodd" d="M 388.5 50 C 397.61 50 405 57.39 405 66.5 C 405 75.61 397.61 83 388.5 83 C 379.39 83 372 75.61 372 66.5 C 372 57.39 379.39 50 388.5 50 Z" />
    <path fill="#ba9444" fill-rule="evenodd" d="M 346.81 31.84 C 346.81 31.84 345.17 17.79 345.17 17.79 C 345.14 17.51 344.88 17.31 344.6 17.34 C 344.6 17.34 343.25 17.5 343.25 17.5 C 343.12 17.51 342.99 17.58 342.91 17.69 C 342.83 17.79 342.79 17.93 342.8 18.06 C 342.8 18.06 344.23 30.25 344.23 30.25 C 344.23 30.25 332.03 31.65 332.03 31.65 C 331.9 31.67 331.78 31.74 331.69 31.84 C 331.61 31.95 331.57 32.08 331.59 32.22 C 331.59 32.22 331.74 33.57 331.74 33.57 C 331.76 33.71 331.83 33.83 331.93 33.91 C 332.04 33.99 332.17 34.03 332.31 34.02 C 332.31 34.02 346.37 32.41 346.37 32.41 C 346.65 32.37 346.85 32.12 346.81 31.84 Z" />
    <text font-weight="400" font-size="18" font-family="AvenirNext" fill="#ffffff" y="73" x="88">
        <tspan>1</tspan>
    </text>
    <text font-weight="400" font-size="18" font-family="AvenirNext" fill="#ffffff" y="73" x="383">
        <tspan>2</tspan>
    </text>
    <text font-weight="400" font-size="18" font-family="AvenirNext" fill="#ffffff" y="336" x="85">
        <tspan>4</tspan>
    </text>
    <text font-weight="400" font-size="18" font-family="AvenirNext" fill="#ffffff" y="337" x="383">
        <tspan>3</tspan>
    </text>
    <path stroke-linejoin="miter" stroke-linecap="butt" stroke-dasharray="4,2" stroke-width="1" stroke="#ba9444" fill="none" fill-rule="evenodd" d="M 1 37.57 C 46.12 20.86 75.97 50.43 75.97 50.43" />
    <path stroke-linejoin="miter" stroke-linecap="butt" stroke-dasharray="4,2" stroke-width="1" stroke="#ba9444" fill="none" fill-rule="evenodd" d="M 478 37.57 C 432.88 20.86 403.03 50.43 403.03 50.43" />
    <path stroke-linejoin="miter" stroke-linecap="butt" stroke-dasharray="4,2" stroke-width="1" stroke="#ba9444" fill="none" fill-rule="evenodd" d="M 1 357.43 C 46.12 374.15 75.97 344.57 75.97 344.57" />
    <path stroke-linejoin="miter" stroke-linecap="butt" stroke-dasharray="4,2" stroke-width="1" stroke="#ba9444" fill="none" fill-rule="evenodd" d="M 478 357.43 C 432.88 374.15 403.03 344.57 403.03 344.57" />
</svg>