<svg xmlns="http://www.w3.org/2000/svg" width="100" height="100" viewBox="0 0 100 100">
    <defs>
        <linearGradient id="a" x1="0%" x2="50%" y1="0%" y2="100%">
            <stop offset="0%" stop-color="#AB8AEB" stop-opacity=".3"/>
            <stop offset="100%" stop-color="#AB8AEB"/>
        </linearGradient>
    </defs>
    <g fill="none" fill-rule="evenodd">
        <path fill="url(#a)" fill-rule="nonzero" d="M6.135 0h87.73A6.135 6.135 0 0 1 100 6.135v87.73A6.135 6.135 0 0 1 93.865 100H6.135A6.135 6.135 0 0 1 0 93.865V6.135A6.135 6.135 0 0 1 6.135 0z" opacity=".2"/>
        <g stroke-width="3">
            <path stroke="#AB8AEB" d="M54.696 71.256C54.696 73.876 52.593 76 50 76c-2.593 0-4.696-2.124-4.696-4.744 0-2.62 2.103-4.744 4.696-4.744 2.593 0 4.696 2.124 4.696 4.744zM54.696 47.535c0 2.62-2.103 4.744-4.696 4.744-2.593 0-4.696-2.124-4.696-4.744 0-2.62 2.103-4.744 4.696-4.744 2.593 0 4.696 2.124 4.696 4.744z"/>
            <path stroke="#755DD3" d="M45.304 29.744c0 2.62-2.102 4.744-4.695 4.744-2.593 0-4.696-2.124-4.696-4.744 0-2.62 2.103-4.744 4.696-4.744 2.593 0 4.695 2.124 4.695 4.744z"/>
            <path stroke="#AB8AEB" d="M50 64.14V52.28"/>
            <path stroke="#755DD3" d="M46.478 40.419l-3.521-5.93"/>
            <path stroke="#AB8AEB" d="M58.217 55.837c0 2.62 2.103 4.744 4.696 4.744 2.593 0 4.696-2.124 4.696-4.744 0-2.62-2.103-4.744-4.696-4.744-2.593 0-4.696 2.124-4.696 4.744z"/>
            <path stroke="#755DD3" d="M54.696 29.744c0 2.62 2.102 4.744 4.695 4.744 2.593 0 4.696-2.124 4.696-4.744 0-2.62-2.103-4.744-4.696-4.744-2.593 0-4.695 2.124-4.695 4.744zM67.609 48.72l2.348-3.557"/>
            <path stroke="#AB8AEB" d="M55.87 65.326l4.142-5.93"/>
            <path stroke="#755DD3" d="M77 40.419c0 2.62-2.102 4.744-4.696 4.744-2.593 0-4.695-2.124-4.695-4.744 0-2.62 2.102-4.745 4.695-4.745C74.898 35.674 77 37.8 77 40.42z"/>
            <path stroke="#AB8AEB" d="M41.783 55.837c0 2.62-2.103 4.744-4.696 4.744-2.593 0-4.696-2.124-4.696-4.744 0-2.62 2.103-4.744 4.696-4.744 2.593 0 4.696 2.124 4.696 4.744z"/>
            <path stroke="#755DD3" d="M32.391 48.72l-2.348-3.557"/>
            <path stroke="#AB8AEB" d="M44.13 65.326l-4.142-5.93"/>
            <path stroke="#755DD3" d="M23 40.419c0 2.62 2.102 4.744 4.696 4.744 2.593 0 4.695-2.124 4.695-4.744 0-2.62-2.102-4.745-4.695-4.745C25.102 35.674 23 37.8 23 40.42zM53.522 40.419l3.521-5.93"/>
        </g>
    </g>
</svg>
