<svg xmlns="http://www.w3.org/2000/svg" width="100" height="100" viewBox="0 0 100 100">
    <defs>
        <linearGradient id="a" x1="0%" x2="50%" y1="0%" y2="100%">
            <stop offset="0%" stop-color="#A5D6A7" stop-opacity=".3"/>
            <stop offset="100%" stop-color="#A5D6A7"/>
        </linearGradient>
    </defs>
    <g fill="none" fill-rule="evenodd">
        <path fill="url(#a)" fill-rule="nonzero" d="M6.135 0h87.73A6.135 6.135 0 0 1 100 6.135v87.73A6.135 6.135 0 0 1 93.865 100H6.135A6.135 6.135 0 0 1 0 93.865V6.135A6.135 6.135 0 0 1 6.135 0z" opacity=".2"/>
        <g stroke-width="3">
            <path stroke="#66BB69" d="M39.642 40.917a14.366 14.366 0 0 1 10.8-4.874h2.4v2.399l10.8-7.2-10.8-7.2v2.4h-2.4a23.92 23.92 0 0 0-16.8 6.861M40.917 61.242a14.366 14.366 0 0 1-4.874-10.8v-2.4h2.399l-7.2-10.8-7.2 10.8h2.4v2.4a23.92 23.92 0 0 0 6.861 16.8"/>
            <path stroke="#A5D6A7" d="M61.242 59.967a14.366 14.366 0 0 1-10.8 4.875h-2.4v-2.4l-10.8 7.2 10.8 7.2v-2.4h2.4a23.92 23.92 0 0 0 16.8-6.86M59.967 39.642a14.366 14.366 0 0 1 4.875 10.8v2.4h-2.4l7.2 10.8 7.2-10.8h-2.4v-2.4a23.92 23.92 0 0 0-6.86-16.8M54.423 44.442a7.173 7.173 0 0 0-3.98-1.2 7.174 7.174 0 0 0-3.982 1.2M44.205 54.043a7.166 7.166 0 0 1-.963-3.6c0-1.312.35-2.542.963-3.601"/>
            <path stroke="#66BB69" d="M56.679 54.043c.613-1.06.964-2.29.964-3.6 0-1.312-.35-2.542-.964-3.601M54.423 56.443a7.173 7.173 0 0 1-3.98 1.2 7.174 7.174 0 0 1-3.982-1.2"/>
        </g>
    </g>
</svg>
