<?xml version="1.0" encoding="utf-8"?>
<!-- Generator: Adobe Illustrator 19.1.0, SVG Export Plug-In . SVG Version: 6.00 Build 0)  -->
<svg version="1.1" id="Слой_1" xmlns="http://www.w3.org/2000/svg" xmlns:xlink="http://www.w3.org/1999/xlink" x="0px" y="0px"
	 viewBox="0 0 15.141 17.761" style="enable-background:new 0 0 15.141 17.761;" xml:space="preserve">
<style type="text/css">
	.st0{fill-rule:evenodd;clip-rule:evenodd;fill:#FFFFFF;}
	.st1{fill:#1E1E1C;}
</style>
<g>
	<g>
		<g>
			<path class="st0" d="M7.151,5.191l0.537-0.764l0.536,0.764h-0.35v1.833H7.502V5.191H7.151z"/>
			<path class="st1" d="M7.874,7.174H7.502c-0.083,0-0.15-0.067-0.15-0.15V5.341H7.151c-0.056,0-0.107-0.031-0.133-0.081
				c-0.026-0.05-0.022-0.11,0.01-0.155l0.537-0.764c0.028-0.04,0.074-0.064,0.122-0.064l0,0c0.049,0,0.095,0.024,0.123,0.064
				l0.536,0.764c0.032,0.045,0.036,0.105,0.011,0.155C8.332,5.311,8.28,5.341,8.224,5.341h-0.2v1.683
				C8.024,7.107,7.956,7.174,7.874,7.174z M7.652,6.874h0.072V5.191c0-0.082,0.067-0.15,0.15-0.15h0.062L7.688,4.689L7.44,5.042
				h0.062c0.083,0,0.15,0.067,0.15,0.15V6.874z"/>
		</g>
		<g>
			<path class="st0" d="M8.224,12.754l-0.536,0.764l-0.537-0.764h0.351v-1.833h0.372v1.833H8.224z"/>
			<path class="st1" d="M7.688,13.668c-0.049,0-0.095-0.024-0.122-0.064L7.029,12.84c-0.032-0.046-0.036-0.105-0.01-0.155
				c0.026-0.05,0.077-0.081,0.133-0.081h0.201v-1.683c0-0.083,0.067-0.15,0.15-0.15h0.372c0.082,0,0.15,0.067,0.15,0.15v1.683h0.2
				c0.056,0,0.107,0.031,0.133,0.081c0.025,0.05,0.021,0.109-0.011,0.155L7.81,13.604C7.783,13.644,7.737,13.668,7.688,13.668z
				 M7.44,12.904l0.247,0.352l0.248-0.352H7.874c-0.083,0-0.15-0.067-0.15-0.15v-1.684H7.652v1.684c0,0.082-0.067,0.15-0.15,0.15
				H7.44z"/>
		</g>
		<g>
			<path class="st0" d="M0.833,6.49l0.536-0.764L1.905,6.49h-0.35v0.764c0,0.245,0.116,0.475,0.327,0.649
				C2.093,8.076,2.372,8.17,2.67,8.17h0.279v0.306H2.67c-0.397,0-0.77-0.126-1.051-0.358C1.338,7.887,1.183,7.581,1.183,7.254V6.49
				H0.833z"/>
			<path class="st1" d="M2.949,8.626H2.67c-0.432,0-0.839-0.14-1.146-0.392c-0.316-0.261-0.49-0.609-0.49-0.98V6.64H0.833
				c-0.056,0-0.107-0.031-0.133-0.081C0.674,6.509,0.678,6.45,0.71,6.404L1.247,5.64c0.056-0.08,0.189-0.08,0.246,0l0.536,0.764
				C2.06,6.45,2.064,6.509,2.038,6.559C2.013,6.609,1.961,6.64,1.905,6.64h-0.2v0.614c0,0.199,0.097,0.389,0.272,0.533
				c0.184,0.15,0.43,0.234,0.693,0.234h0.279c0.083,0,0.15,0.067,0.15,0.15v0.306C3.099,8.559,3.032,8.626,2.949,8.626z M1.122,6.34
				h0.062c0.083,0,0.15,0.067,0.15,0.15v0.764c0,0.281,0.135,0.546,0.381,0.749C1.968,8.211,2.308,8.326,2.67,8.326L2.799,8.32H2.67
				c-0.332,0-0.646-0.107-0.883-0.302C1.54,7.816,1.405,7.544,1.405,7.254V6.49c0-0.082,0.067-0.15,0.15-0.15h0.062L1.369,5.987
				L1.122,6.34z"/>
		</g>
		<g>
			<path class="st0" d="M0.833,11.455l0.536,0.764l0.536-0.764h-0.35v-0.764c0-0.245,0.116-0.475,0.327-0.649
				C2.093,9.87,2.372,9.775,2.67,9.775h0.279V9.47H2.67c-0.397,0-0.77,0.127-1.051,0.356c-0.281,0.231-0.436,0.539-0.436,0.865
				v0.764H0.833z"/>
			<path class="st1" d="M1.369,12.37c-0.049,0-0.095-0.024-0.123-0.064L0.71,11.542c-0.032-0.046-0.036-0.106-0.01-0.155
				c0.026-0.05,0.077-0.081,0.133-0.081h0.201v-0.614c0-0.372,0.174-0.72,0.49-0.981C1.832,9.459,2.239,9.32,2.67,9.32h0.279
				c0.083,0,0.15,0.067,0.15,0.15v0.305c0,0.082-0.067,0.15-0.15,0.15H2.67c-0.264,0-0.509,0.083-0.693,0.234
				c-0.175,0.145-0.272,0.334-0.272,0.533v0.614h0.2c0.056,0,0.107,0.031,0.133,0.081c0.026,0.05,0.022,0.109-0.01,0.155
				l-0.536,0.764C1.464,12.346,1.418,12.37,1.369,12.37z M1.122,11.606l0.248,0.353l0.248-0.353H1.555
				c-0.083,0-0.15-0.067-0.15-0.15v-0.764c0-0.29,0.135-0.562,0.381-0.764c0.238-0.195,0.551-0.302,0.881-0.302L2.799,9.62H2.67
				c-0.362,0-0.702,0.115-0.956,0.323c-0.245,0.202-0.38,0.468-0.38,0.749v0.764c0,0.083-0.067,0.15-0.15,0.15H1.122z"/>
		</g>
		<g>
			<path class="st0" d="M14.544,6.49l-0.537-0.764L13.471,6.49h0.351v0.764c0,0.245-0.116,0.475-0.327,0.649
				c-0.211,0.173-0.49,0.268-0.788,0.268h-0.279v0.306h0.279c0.398,0,0.77-0.126,1.051-0.358c0.281-0.231,0.436-0.538,0.436-0.864
				V6.49H14.544z"/>
			<path class="st1" d="M12.706,8.626h-0.279c-0.083,0-0.15-0.067-0.15-0.15V8.17c0-0.082,0.067-0.15,0.15-0.15h0.279
				c0.263,0,0.509-0.084,0.693-0.234c0.175-0.144,0.271-0.333,0.271-0.533V6.64h-0.2c-0.056,0-0.108-0.031-0.133-0.081
				c-0.026-0.05-0.022-0.109,0.01-0.155l0.536-0.764c0.057-0.08,0.189-0.08,0.246,0l0.537,0.764c0.032,0.046,0.036,0.106,0.01,0.155
				S14.6,6.64,14.544,6.64h-0.201v0.614c0,0.372-0.174,0.72-0.49,0.98C13.545,8.487,13.138,8.626,12.706,8.626z M12.577,8.326h0.129
				c0.363,0,0.702-0.115,0.956-0.324c0.245-0.202,0.381-0.468,0.381-0.749V6.49c0-0.082,0.067-0.15,0.15-0.15h0.062l-0.248-0.353
				L13.759,6.34h0.062c0.083,0,0.15,0.067,0.15,0.15v0.764c0,0.291-0.135,0.562-0.381,0.765c-0.237,0.195-0.551,0.302-0.884,0.302
				L12.577,8.326z"/>
		</g>
		<g>
			<path class="st0" d="M14.544,11.455l-0.537,0.764l-0.536-0.764h0.351v-0.764c0-0.245-0.116-0.475-0.327-0.649
				c-0.211-0.173-0.49-0.267-0.789-0.267h-0.278V9.47h0.279c0.398,0,0.77,0.127,1.051,0.356c0.281,0.231,0.436,0.539,0.436,0.865
				v0.764H14.544z"/>
			<path class="st1" d="M14.007,12.37L14.007,12.37c-0.049,0-0.095-0.024-0.123-0.064l-0.536-0.764
				c-0.032-0.046-0.036-0.106-0.01-0.155c0.025-0.05,0.077-0.081,0.133-0.081h0.2v-0.614c0-0.199-0.097-0.388-0.272-0.533
				c-0.184-0.15-0.43-0.233-0.693-0.233h-0.278c-0.083,0-0.15-0.067-0.15-0.15V9.47c0-0.083,0.067-0.15,0.15-0.15h0.279
				c0.431,0,0.838,0.139,1.146,0.391c0.317,0.261,0.491,0.609,0.491,0.981v0.614h0.201c0.056,0,0.107,0.031,0.133,0.081
				s0.022,0.109-0.01,0.155l-0.537,0.764C14.101,12.346,14.056,12.37,14.007,12.37z M13.759,11.606l0.248,0.353l0.248-0.353h-0.062
				c-0.083,0-0.15-0.067-0.15-0.15v-0.764c0-0.281-0.136-0.547-0.381-0.749c-0.253-0.208-0.593-0.323-0.956-0.323l-0.129,0.005
				h0.128c0.333,0,0.647,0.107,0.884,0.302c0.246,0.203,0.381,0.475,0.381,0.765v0.764c0,0.083-0.067,0.15-0.15,0.15H13.759z"/>
		</g>
	</g>
	<g>
		<g>
			<path class="st0" d="M11.903,10.61H3.474V7.336h8.429V10.61z"/>
			<path class="st1" d="M11.903,10.76H3.474c-0.083,0-0.15-0.067-0.15-0.15V7.336c0-0.082,0.067-0.15,0.15-0.15h8.429
				c0.083,0,0.15,0.067,0.15,0.15v3.274C12.053,10.692,11.986,10.76,11.903,10.76z M3.624,10.459h8.129V7.486H3.624V10.459z"/>
		</g>
		<g>
			<g>
				<g>
					<path class="st0" d="M1.556,4.804c0.774,0,1.406-0.632,1.406-1.406S2.33,1.992,1.556,1.992c-0.774,0-1.406,0.632-1.406,1.406
						S0.782,4.804,1.556,4.804z"/>
					<path class="st1" d="M1.556,4.954C0.698,4.954,0,4.256,0,3.398s0.698-1.556,1.556-1.556c0.858,0,1.556,0.698,1.556,1.556
						S2.414,4.954,1.556,4.954z M1.556,2.142C0.864,2.142,0.3,2.705,0.3,3.398s0.564,1.256,1.256,1.256
						c0.693,0,1.256-0.564,1.256-1.256S2.249,2.142,1.556,2.142z"/>
				</g>
				<g>
					<path class="st0" d="M7.528,2.962c0.774,0,1.406-0.631,1.406-1.406c0-0.774-0.632-1.406-1.406-1.406S6.122,0.782,6.122,1.556
						C6.122,2.331,6.753,2.962,7.528,2.962z"/>
					<path class="st1" d="M7.528,3.113c-0.858,0-1.556-0.698-1.556-1.557S6.67,0,7.528,0c0.858,0,1.556,0.698,1.556,1.556
						S8.386,3.113,7.528,3.113z M7.528,0.3c-0.693,0-1.256,0.563-1.256,1.256c0,0.693,0.563,1.256,1.256,1.256
						c0.692,0,1.256-0.563,1.256-1.256C8.784,0.864,8.22,0.3,7.528,0.3z"/>
				</g>
				<g>
					<path class="st0" d="M13.585,4.769c0.774,0,1.406-0.631,1.406-1.406c0-0.774-0.632-1.406-1.406-1.406s-1.406,0.632-1.406,1.406
						C12.179,4.138,12.811,4.769,13.585,4.769z"/>
					<path class="st1" d="M13.585,4.919c-0.858,0-1.556-0.698-1.556-1.556s0.698-1.556,1.556-1.556c0.858,0,1.556,0.698,1.556,1.556
						S14.443,4.919,13.585,4.919z M13.585,2.107c-0.692,0-1.256,0.564-1.256,1.256c0,0.693,0.563,1.256,1.256,1.256
						s1.256-0.563,1.256-1.256C14.841,2.671,14.277,2.107,13.585,2.107z"/>
				</g>
			</g>
			<g>
				<g>
					<path class="st0" d="M1.556,15.769c0.774,0,1.406-0.632,1.406-1.406c0-0.775-0.631-1.406-1.406-1.406
						c-0.774,0-1.406,0.631-1.406,1.406C0.15,15.138,0.782,15.769,1.556,15.769z"/>
					<path class="st1" d="M1.556,15.919C0.698,15.919,0,15.222,0,14.363c0-0.858,0.698-1.556,1.556-1.556
						c0.858,0,1.556,0.698,1.556,1.556C3.112,15.222,2.414,15.919,1.556,15.919z M1.556,13.107c-0.692,0-1.256,0.563-1.256,1.256
						c0,0.692,0.564,1.256,1.256,1.256c0.693,0,1.256-0.564,1.256-1.256C2.812,13.67,2.249,13.107,1.556,13.107z"/>
				</g>
				<g>
					<path class="st0" d="M7.528,17.611c0.774,0,1.406-0.631,1.406-1.406c0-0.774-0.632-1.406-1.406-1.406s-1.406,0.632-1.406,1.406
						C6.122,16.979,6.753,17.611,7.528,17.611z"/>
					<path class="st1" d="M7.528,17.761c-0.858,0-1.556-0.698-1.556-1.557c0-0.858,0.698-1.556,1.556-1.556
						c0.858,0,1.556,0.698,1.556,1.556C9.084,17.063,8.386,17.761,7.528,17.761z M7.528,14.949c-0.693,0-1.256,0.564-1.256,1.256
						c0,0.693,0.563,1.256,1.256,1.256c0.692,0,1.256-0.563,1.256-1.256C8.784,15.512,8.22,14.949,7.528,14.949z"/>
				</g>
				<g>
					<path class="st0" d="M13.585,15.803c0.774,0,1.406-0.631,1.406-1.406c0-0.774-0.632-1.406-1.406-1.406
						s-1.406,0.632-1.406,1.406C12.179,15.172,12.811,15.803,13.585,15.803z"/>
					<path class="st1" d="M13.585,15.954c-0.858,0-1.556-0.698-1.556-1.557c0-0.858,0.698-1.556,1.556-1.556
						c0.858,0,1.556,0.698,1.556,1.556C15.141,15.255,14.443,15.954,13.585,15.954z M13.585,13.141
						c-0.692,0-1.256,0.564-1.256,1.256c0,0.693,0.563,1.256,1.256,1.256s1.256-0.564,1.256-1.256
						C14.841,13.705,14.277,13.141,13.585,13.141z"/>
				</g>
			</g>
		</g>
	</g>
</g>
</svg>
