<?xml version="1.0" encoding="utf-8"?>
<!-- Generator: Avocode 2.6.0 - http://avocode.com -->
<svg height="46" width="45" xmlns:xlink="http://www.w3.org/1999/xlink" xmlns="http://www.w3.org/2000/svg" viewBox="0 0 45 46">
    <path fill="#323337" fill-rule="evenodd" d="M 22.5 0.75 C 10.26 0.75 0.25 10.76 0.25 23 C 0.25 35.24 10.26 45.25 22.5 45.25 C 34.73 45.25 44.75 35.24 44.75 23 C 44.75 10.76 34.73 0.75 22.5 0.75 Z" />
    <path fill="#ffffff" fill-rule="evenodd" d="M 13 25 C 13 25 13 21 13 21 C 13 21 32 21 32 21 C 32 21 32 25 32 25 C 32 25 13 25 13 25 Z M 13 15 C 13 15 28 15 28 15 C 28 15 28 19 28 19 C 28 19 13 19 13 19 C 13 19 13 15 13 15 Z M 22 31 C 22 31 13 31 13 31 C 13 31 13 27 13 27 C 13 27 22 27 22 27 C 22 27 22 31 22 31 Z" />
</svg>