<svg xmlns="http://www.w3.org/2000/svg" width="68" height="36" viewBox="0 0 68 36">
    <path fill="#282E33" fill-rule="evenodd" d="M57.529 30.776c-7.019 3.621-15.662 5.028-23.5 5.028-7.838 0-16.478-1.41-23.498-5.028C5.73 28.3.54 24.071.54 18.17c0-5.903 5.19-10.129 9.99-12.604C17.55 1.943 26.19.532 34.03.532c7.837 0 16.48 1.41 23.499 5.033 4.803 2.475 9.993 6.7 9.993 12.604 0 5.902-5.19 10.13-9.993 12.607zm-.845-23.58c-6.03-3.111-14.07-4.822-22.65-4.822-8.576 0-16.625 1.71-22.658 4.822-5.798 2.993-8.995 6.887-8.995 10.973 0 4.084 3.197 7.982 8.995 10.974.377.194.762.382 1.153.566l.002.001c5.885 2.75 13.458 4.257 21.499 4.257 8.579 0 16.625-1.713 22.654-4.824 5.076-2.617 8.157-5.929 8.849-9.452.061-.315.103-.63.127-.95.004-.063.009-.127.011-.19a8.08 8.08 0 0 0 .01-.382c0-4.086-3.196-7.98-8.997-10.973zM34.03 32.866c-7.35 0-15.548-1.301-22.135-4.697a22.87 22.87 0 0 1-.704-.376c-.12-.067-.24-.133-.358-.202a18.38 18.38 0 0 1-.328-.19l-.32-.19-.317-.198h-.002c-3.186-2.01-6.365-5.018-6.365-8.835 0-4.64 4.694-8.08 8.394-9.988 6.587-3.397 14.783-4.7 22.135-4.7 7.351 0 15.55 1.3 22.137 4.7 2.986 1.54 6.624 4.079 7.916 7.443a7.008 7.008 0 0 1 .223.681l.047.178a6.8 6.8 0 0 1 .177 1.048c.02.212.031.425.03.638 0 4.639-4.693 8.081-8.393 9.99-6.588 3.399-14.787 4.698-22.137 4.698zm0-28.643c-16.455 0-29.882 6.651-29.882 13.955 0 7.273 13.427 13.954 29.882 13.954 16.455 0 29.882-6.68 29.882-13.954 0-7.304-13.427-13.955-29.882-13.955zM53.696 23.03c-.3.27-.603.44-1.204.539l1.035 2.809h-2.202l-.828-2.747h-.741l-.938 2.747h-2.194l2.4-6.921c.127-.367.135-.538-.012-.68l-.139-.135.069-.207h3.434c1.223 0 1.867.341 2.174.798.22.331.43.978.084 2.109-.236.78-.522 1.31-.938 1.688zm-1.509-2.782h-1.268l-.566 1.641H51.4c.268 0 .546-.017.682-.071.194-.08.346-.162.483-.502.094-.242.16-.503.157-.648-.002-.224-.159-.42-.536-.42zm-6.106-4.646l.257-.678 4.166-1.411h-3.668l.689-1.89h5.295l-.734 2.009-6.005 1.97zm-5.415 1.114H37.16l2.375-6.92c.127-.367.132-.538-.014-.681l-.137-.135.067-.206h3.183c1.834 0 2.706.88 2.73 2.225.027 1.32-.772 3.716-1.644 4.64-.696.746-1.553 1.077-3.054 1.077zm1.646-6.058h-.853l-1.438 4.164h.708c.755 0 1.085-.117 1.33-.377.31-.331.526-.78.798-1.56.307-.872.389-1.276.384-1.572-.01-.458-.337-.655-.93-.655zm-8.476 6.055l-1.019-5.14-1.739 5.14h-1.995l2.37-6.918c.128-.366.134-.537-.014-.68l-.137-.135.069-.206h2.814l.829 4.316 1.453-4.316 2.086-.003-2.72 7.942h-1.997zm-7.405-1.756h-2.39l-1 1.756h-2.312l3.751-6.27c.61-.97.679-1.203.514-1.366l-.101-.097.067-.206h3.138l.454 7.939h-2.097l-.024-1.756zm-.07-3.988h-.072l-1.356 2.399h1.466l-.038-2.4zm-6.22 5.746l-5.43.001 2.375-6.92c.129-.367.133-.538-.013-.681l-.137-.135.066-.206h2.725l-2.085 6.048h3.156l-.656 1.893zm-2.972 3.421l-4.166 1.41h3.667l-.688 1.893h-5.295l.736-2.01 6.004-1.97-.258.677zm2.434-1.36l-.137-.134.069-.207h3.433c1.223 0 1.869.341 2.174.798.222.331.432.978.084 2.109-.237.78-.521 1.31-.937 1.688-.3.27-.603.44-1.204.539l1.034 2.809h-2.202l-.826-2.747-.743-.003-.936 2.75h-2.194l2.399-6.921c.128-.367.135-.538-.014-.68zm2.386 3.113c.273 0 .552-.017.685-.071.197-.08.349-.162.485-.502.094-.242.161-.503.158-.648-.004-.224-.161-.42-.539-.42h-1.266l-.57 1.641h1.047zm8.35-3.553h.251c1.835 0 2.707.934 2.723 2.28.017 1.318-.789 3.813-1.66 4.738-.706.745-1.563 1.148-3.062 1.148h-.27c-1.834 0-2.707-.932-2.723-2.278-.016-1.32.807-3.815 1.68-4.74.704-.745 1.558-1.148 3.06-1.148zm-1.759 6.275c.756 0 1.085-.192 1.332-.451.318-.331.532-.834.804-1.614.316-.872.397-1.32.393-1.617 0-.457-.33-.7-.924-.7-.755 0-1.084.188-1.33.45-.316.33-.531.833-.805 1.615-.315.87-.397 1.318-.392 1.615 0 .457.33.702.922.702zm7.685-6.176l.146 5.707h.063l2.91-5.707h2.266l-4.379 7.943h-2.714l-.33-6.93c-.027-.395-.082-.54-.284-.681l-.208-.125.094-.207h2.436zm6.116.362l-.138-.134.08-.233h5.719l-.666 1.833h-3.03l-.433 1.268h2.796l-.607 1.66h-2.76l-.459 1.337h3.12l-.648 1.848h-5.342l2.38-6.896c.129-.369.135-.54-.012-.683z"/>
</svg>
