<svg xmlns="http://www.w3.org/2000/svg" width="99" height="20" viewBox="0 0 99 20">
    <g fill="#282E33" fill-rule="evenodd">
        <path d="M53.977 11.841v-4.15c0-.782-.373-1.284-1.136-1.468a4.898 4.898 0 0 0-2.085-.026c-.615.118-1.037.494-1.191 1.115a2.833 2.833 0 0 0-.083.673c-.005 2.709-.003 5.418-.004 8.127 0 .28.096.526.307.703.171.144.365.277.57.363.637.265 1.303.318 1.983.21.406-.064.798-.172 1.138-.415.33-.236.508-.544.505-.966-.01-1.388-.004-2.777-.004-4.166m-13.973 5.645v.226h-4.271v-.254c.203-.05.405-.09.602-.148.877-.259 1.296-.772 1.366-1.676.02-.263.032-.528.032-.792.003-2.303.003-4.606.001-6.91 0-.844-.477-1.51-1.246-1.734-.186-.054-.383-.072-.586-.108v-.245c.037-.004.073-.01.109-.01.642 0 1.284-.005 1.926 0 .796.008 1.386.387 1.755 1.068a87.694 87.694 0 0 1 1.511 2.928c.893 1.802 1.769 3.612 2.652 5.42.02.04.044.08.075.138l.936-2.083c.906-2.017 1.807-4.037 2.72-6.051.421-.927 1.16-1.415 2.183-1.417 4.155-.008 8.31-.004 12.466-.004h.164l.054 3.754c-.261.043-.26.043-.352-.176-.322-.767-.692-1.507-1.245-2.142-.66-.757-1.493-1.147-2.5-1.153-.776-.005-1.55-.002-2.325-.001-.041 0-.082.006-.13.01v5.26c.012.009.02.02.029.02.646-.017 1.295-.001 1.937-.061.636-.06 1.127-.413 1.425-.973.217-.408.374-.847.558-1.271l-.039-.026h.272v4.985c-.251.033-.242.03-.32-.196-.108-.313-.213-.63-.354-.93-.335-.706-.89-1.151-1.683-1.205-.601-.041-1.207-.008-1.823-.008v5.708c.044.004.089.011.134.012.754 0 1.507-.005 2.261 0 1.592.013 2.779-.696 3.596-2.028.284-.462.514-.958.746-1.448.079-.168.16-.245.366-.182l-.09 3.93H45.812v-.253c.192-.027.39-.045.586-.083.772-.155 1.115-.559 1.151-1.345.004-.084.006-.169.006-.253l.004-7.512c0-.065 0-.13-.036-.203-.025.049-.051.097-.074.147l-4.294 9.545c-.032.07-.036.163-.16.164-.121.002-.132-.087-.167-.157-1.569-3.182-3.136-6.365-4.704-9.547l-.09-.18c-.01.073-.018.109-.018.144 0 2.34-.002 4.68.01 7.021.002.319.054.642.126.954.108.464.401.806.84.992.32.135.658.222 1.012.339zm45.615-7.218c-.242.04-.243.04-.292-.175-.224-.978-.587-1.895-1.211-2.693-.613-.784-1.378-1.352-2.378-1.527-1.42-.248-2.566.236-3.437 1.366-.537.697-.83 1.504-.995 2.357-.304 1.565-.312 3.127.106 4.676.221.819.565 1.58 1.13 2.227.744.852 1.687 1.245 2.819 1.205 1.87-.066 3.17-1.017 4.075-2.588.071-.123.152-.245.2-.377.07-.194.189-.263.387-.207.002.004.01.015.007.022-.482 1.036-1.112 1.957-2.077 2.612-.9.61-1.91.833-2.986.817-1.393-.022-2.686-.36-3.815-1.202-1.15-.86-1.832-2.02-2.11-3.412-.326-1.632-.164-3.215.659-4.682 1.018-1.815 2.598-2.824 4.663-3.113 1.035-.144 1.99.063 2.897.554.293.159.599.27.942.225.466-.06.798-.33 1.05-.699.096-.14.192-.197.366-.15v4.764zm-11.625 3.488l-.092 3.934H63.85c-.057-.262-.046-.254.212-.288.34-.044.682-.096 1.01-.19.353-.103.525-.374.531-.743.002-.09.005-.18.005-.27V7.263c0-.682-.206-.94-.884-1.073-.285-.055-.576-.079-.872-.118v-.25h5.347v.25c-.32.037-.637.068-.95.114a1.506 1.506 0 0 0-.362.114.551.551 0 0 0-.346.492c-.01.121-.015.243-.015.364V17.4c.033.01.048.02.063.02.768-.012 1.54.014 2.305-.046 1.179-.094 2.076-.706 2.763-1.644a8.129 8.129 0 0 0 .98-1.805c.072-.18.168-.218.357-.169zm15.048-2.222c.02.48.025.961.061 1.44.064.85.21 1.686.54 2.48.392.94.999 1.679 1.99 2.034.706.252 1.433.278 2.166.141a2.945 2.945 0 0 0 1.89-1.186 4.53 4.53 0 0 0 .668-1.375c.318-1.03.403-2.09.412-3.16.009-1.17-.077-2.332-.445-3.455-.188-.572-.452-1.105-.86-1.556-.818-.907-1.87-1.165-3.043-1.07-1.25.101-2.123.746-2.658 1.86a5.54 5.54 0 0 0-.28.705c-.327 1.022-.413 2.077-.441 3.142zm-2.192.031c.006-2.687 1.918-5.179 4.645-5.857 3.085-.767 6.276 1.015 7.177 4.065.654 2.216.324 4.296-1.213 6.077-1.32 1.53-3.035 2.283-5.07 2.107-2.493-.216-4.16-1.586-5.1-3.862-.307-.745-.438-1.53-.439-2.53zM15.228 12.365h-.01c0 .053.002.106 0 .158-.03 1.13-.065 2.26.043 3.387.032.327.106.655.202.97.077.256.223.314.47.21.198-.084.39-.196.556-.33.47-.378.854-.84 1.197-1.328 1.026-1.456 2.035-2.922 3.047-4.387.027-.04.03-.125.005-.165-.235-.382-.455-.776-.726-1.131-.482-.632-1.097-1.085-1.904-1.224-.966-.166-1.873.046-2.747.447-.04.018-.074.097-.075.148-.022 1.081-.04 2.163-.058 3.245m13.826-3.447c-.026-.374-.04-.749-.081-1.121-.05-.442-.149-.874-.38-1.265-.19-.323-.458-.55-.837-.626a2.691 2.691 0 0 0-1.106.01c-.733.159-1.358.531-1.936.987-1.44 1.137-2.521 2.586-3.567 4.066-.023.033-.022.1-.006.141.405 1.014.817 2.025 1.22 3.04.301.76.594 1.524 1.022 2.227.251.414.542.795.932 1.092.672.512 1.438.56 2.145.095.251-.166.478-.387.673-.618.378-.45.602-.99.794-1.54.336-.966.532-1.965.717-2.966.216-1.164.371-2.335.41-3.522m-16.577-.79c-.047-1.568-.075-3.137-.344-4.688-.114-.657-.27-1.304-.61-1.888C11.092.809 10.49.549 9.646.719c-.712.143-1.333.478-1.913.896-1.087.784-1.967 1.77-2.728 2.859-2.02 2.889-3.43 6.057-4.3 9.463-.284 1.114-.46 2.245-.414 3.4.022.536.098 1.063.349 1.548.275.534.715.806 1.32.8a4.625 4.625 0 0 0 1.878-.425c.902-.406 1.662-1.011 2.371-1.685C7.325 16.517 8.3 15.33 9.305 14.17c1.01-1.163 1.993-2.349 3.102-3.422.045-.043.067-.13.067-.195.005-.808.003-1.617.003-2.425m8.447 3.16l-.125.176c-.873 1.273-1.738 2.552-2.622 3.817-.422.603-.89 1.172-1.436 1.672-.338.309-.697.597-1.156.7-.608.136-1.555-.006-2.137-.812-.364-.504-.55-1.08-.676-1.677-.246-1.164-.283-2.346-.3-3.53a40.919 40.919 0 0 0-.01-.459c0-.009-.009-.018-.024-.048-.062.062-.124.116-.178.176-.984 1.1-1.973 2.197-2.949 3.305-.965 1.096-1.892 2.227-2.965 3.224-.775.722-1.606 1.364-2.599 1.77a4.79 4.79 0 0 1-1.842.37c-.672-.003-1.168-.3-1.49-.884-.244-.444-.339-.93-.382-1.427-.113-1.29.079-2.553.393-3.796.948-3.75 2.567-7.187 4.922-10.27.775-1.013 1.666-1.917 2.747-2.617.751-.488 1.56-.826 2.461-.92 1.7-.177 3.021.543 3.781 2.07.412.828.621 1.714.758 2.62.188 1.242.217 2.493.216 3.745v.153c.346-.11.673-.232 1.01-.317.682-.173 1.373-.217 2.062-.044.81.203 1.42.697 1.903 1.353.247.335.46.695.694 1.051.029-.038.066-.085.101-.134.78-1.095 1.59-2.168 2.55-3.116.679-.669 1.415-1.263 2.297-1.65.865-.378 1.758-.522 2.683-.26.84.236 1.444.777 1.885 1.51.436.726.66 1.523.736 2.355a10.422 10.422 0 0 1-.923 5.4c-.554 1.2-1.375 2.178-2.551 2.827-.689.38-1.424.604-2.219.58-.74-.022-1.33-.357-1.818-.89-.56-.609-.93-1.334-1.235-2.09-.44-1.091-.854-2.193-1.282-3.289-.082-.209-.179-.412-.28-.645"/>
    </g>
</svg>
