<svg xmlns="http://www.w3.org/2000/svg" width="43" height="45"><g fill="none" fill-rule="evenodd" stroke="#3681EE" stroke-width="1.515"><path d="M10.255 21.308c1.648 1.003 4.439.606 5.937-.858 1.106-1.08 2.287-2.796 3.505-2.67H35.82M17.787 34.136c.752-1.298 2.557-1.636 5.114-1.636H36.2M6.907 18.59c1.848 0 3.348 1.153 3.348 2.78 0 1.284-.932 2.544-2.232 2.948M28.667 8.773H22.56c-2.767 0-5.49-.372-6.447-2.455m6.695 18.818h5.859m-4.185 15.546h4.185m13.39-23.318c0 1.581-1.311 2.863-2.929 2.863-1.618 0-2.93-1.282-2.93-2.863 0-1.582 1.312-2.864 2.93-2.864s2.93 1.282 2.93 2.864zM34.525 10c0 1.582-1.311 2.864-2.93 2.864-1.617 0-2.928-1.282-2.928-2.864 0-1.582 1.311-2.864 2.929-2.864 1.618 0 2.929 1.282 2.929 2.864zm0 15.545c0 1.582-1.311 2.864-2.93 2.864-1.617 0-2.928-1.282-2.928-2.864 0-1.581 1.311-2.863 2.929-2.863 1.618 0 2.929 1.282 2.929 2.863zm0 15.545c0 1.583-1.311 2.865-2.93 2.865-1.617 0-2.928-1.282-2.928-2.864 0-1.582 1.311-2.864 2.929-2.864 1.618 0 2.929 1.282 2.929 2.864z"/><path d="M42.057 32.91c0 1.58-1.311 2.863-2.929 2.863-1.618 0-2.93-1.282-2.93-2.864 0-1.582 1.312-2.864 2.93-2.864s2.93 1.282 2.93 2.864zM22.808 7.278c0-1.948.175-5.869-4.95-5.869-4.084 0-7.796 4.31-7.92 6.847-3.079.405-6.003 3.378-5.597 7.174-2.926 1.416-5.049 8.983-1.23 12.572-.695 3.086 1.44 10.157 7.817 9.599 1.552 8.243 11.88 7.996 11.88 1.956v-4.89M16.113 14.5c-3.479 0-6.695-.541-6.695-5.727M12.765 32.5c-1.778-.273-3.347-1.912-3.347-3.273m1.674 8.591c0-3.57 2.114-8.182 7.532-8.182m4.184-18.409v4.276m0 4.724v10.637"/></g></svg>