<svg xmlns="http://www.w3.org/2000/svg" width="37" height="44"><g fill="none" fill-rule="evenodd" stroke="#3681EE" stroke-width="1.515"><path d="M31.376 12.78C31.437 4.82 26.2 1 18.616 1S5.795 4.82 5.856 12.78h25.52z"/><path d="M33.843 27.783l-9.189 2.215c-.969 0-1.92-.262-2.75-.758l-1.413-.842a3.664 3.664 0 0 0-3.751 0l-1.412.842a5.365 5.365 0 0 1-2.75.758l-9.19-2.215a2.722 2.722 0 0 1-2.09-2.642V15.5a2.726 2.726 0 0 1 2.735-2.719h29.166a2.726 2.726 0 0 1 2.734 2.719v9.642a2.72 2.72 0 0 1-2.09 2.642zm-3.378 3.121v.906c0 2.362-1.031 3.586-2.818 5.142-1.281 1.116-2.807 2.253-4.163 3.241a8.268 8.268 0 0 1-9.736 0c-1.356-.988-2.882-2.125-4.164-3.241-1.787-1.556-2.817-2.78-2.817-5.142v-.906m2.735 6.343v6.343m18.228-6.343v6.343M15.882 17.076h5.468M4.818 15.499v8.156m27.596-8.156v8.156"/></g></svg>