<svg xmlns="http://www.w3.org/2000/svg" width="45" height="44"><path d="M26.107 38.8a3.773 3.773 0 0 1-3.766 3.78 3.773 3.773 0 0 1-3.766-3.78 3.773 3.773 0 0 1 3.766-3.78 3.773 3.773 0 0 1 3.766 3.78zm0-19.32a3.773 3.773 0 0 1-3.766 3.78 3.773 3.773 0 0 1-3.766-3.78 3.773 3.773 0 0 1 3.766-3.78 3.773 3.773 0 0 1 3.766 3.78zM22.76 32.5v-9.24m5.858 2.94a3.773 3.773 0 0 0 3.766 3.78 3.773 3.773 0 0 0 3.766-3.78 3.773 3.773 0 0 0-3.766-3.78 3.773 3.773 0 0 0-3.766 3.78zm-1.674 7.98l3.348-5.04M16.064 26.2a3.773 3.773 0 0 1-3.766 3.78 3.773 3.773 0 0 1-3.766-3.78 3.773 3.773 0 0 1 3.766-3.78 3.773 3.773 0 0 1 3.766 3.78zm1.674 7.98l-3.348-5.04M18.575 5.2a3.773 3.773 0 0 1-3.766 3.78 3.773 3.773 0 0 1-3.766-3.78 3.773 3.773 0 0 1 3.766-3.78 3.773 3.773 0 0 1 3.766 3.78zm.837 8.82l-2.51-5.04m9.205-3.78a3.773 3.773 0 0 0 3.766 3.78A3.773 3.773 0 0 0 33.64 5.2a3.773 3.773 0 0 0-3.766-3.78 3.773 3.773 0 0 0-3.766 3.78zM36.15 20.74l1.674-2.52m5.858-3.78a3.773 3.773 0 0 1-3.766 3.78 3.773 3.773 0 0 1-3.766-3.78 3.773 3.773 0 0 1 3.766-3.78 3.773 3.773 0 0 1 3.766 3.78zm-35.15 6.3l-1.674-2.52M1 14.44a3.773 3.773 0 0 0 3.766 3.78 3.773 3.773 0 0 0 3.766-3.78 3.773 3.773 0 0 0-3.766-3.78A3.773 3.773 0 0 0 1 14.44zm24.27-.42l2.511-5.04" fill="none" stroke="#3681EE" stroke-width="1.515"/></svg>