<svg xmlns="http://www.w3.org/2000/svg" width="38" height="42"><g fill="none" fill-rule="evenodd" stroke="#3F86EE" stroke-width="1.449"><path d="M18.498 31.433c5.675 0 10.276-4.651 10.276-10.389 0-5.738-4.6-10.388-10.276-10.388S8.222 15.306 8.222 21.044c0 5.738 4.601 10.39 10.276 10.39z"/><path d="M18.497 10.656c-2.838 0-5.139 4.65-5.139 10.388 0 5.738 2.3 10.39 5.14 10.39 2.837 0 5.138-4.652 5.138-10.389 0-5.738-2.3-10.39-5.139-10.39zm9.421 6.925H9.076m18.842 6.926H9.076m9.421-13.852v20.778M31.516 7.99l-8.223-4.827m13.019 23.448V16.266m-34.945 0v10.345M13.7 3.163L5.48 7.99m26.036 26.897l-8.223 4.827m-9.593 0l-8.22-4.827M21.067 3.73c0 1.434-1.15 2.597-2.57 2.597s-2.57-1.163-2.57-2.598c0-1.434 1.15-2.597 2.57-2.597s2.57 1.163 2.57 2.597zM18.45 40.918a2.518 2.518 0 0 1-2.522-2.578 2.631 2.631 0 0 1 2.617-2.578 2.518 2.518 0 0 1 2.521 2.578 2.63 2.63 0 0 1-2.616 2.578M35.627 29.7c0 1.435-1.15 2.598-2.57 2.598-1.419 0-2.57-1.162-2.57-2.596 0-1.435 1.151-2.598 2.57-2.598 1.42-.001 2.57 1.162 2.57 2.596zm-29.097.003A2.56 2.56 0 0 1 3.974 32.3a2.62 2.62 0 0 1-2.605-2.598 2.56 2.56 0 0 1 2.556-2.597 2.62 2.62 0 0 1 2.607 2.598zm-.024-17.316c0 1.435-1.15 2.597-2.569 2.597-1.42 0-2.57-1.163-2.57-2.598 0-1.434 1.15-2.596 2.57-2.596s2.57 1.163 2.57 2.597zm1.644 14.54l-1.956 1.307m22.634-1.307l1.957 1.307M28.828 15.16l1.957-1.306M8.15 15.16l-1.956-1.306m29.433-1.467c0 1.433-1.15 2.594-2.57 2.594-1.419 0-2.57-1.162-2.57-2.596 0-1.434 1.151-2.596 2.57-2.595 1.42.001 2.57 1.163 2.57 2.597zm-17.13-6.061v2.598m0 26.838v-2.598"/></g></svg>