<svg xmlns="http://www.w3.org/2000/svg" width="42" height="35"><g fill="none" fill-rule="evenodd" stroke="#3F86EE" stroke-width="1.449"><path d="M23.684 15.316c0 1.976 1.55 3.579 3.462 3.579 1.912 0 3.462-1.603 3.462-3.58 0-1.976-1.55-3.578-3.462-3.578-1.912 0-3.462 1.602-3.462 3.579z"/><path d="M32.668 24.398l2.846 2.513 2.849-2.945-2.432-2.942a10.851 10.851 0 0 0 1.335-3.322l3.728-.304v-4.164l-3.728-.304a10.86 10.86 0 0 0-1.335-3.323l2.432-2.942-2.849-2.944-2.846 2.512a10.131 10.131 0 0 0-3.214-1.378L29.161 1h-4.03l-.293 3.855a10.131 10.131 0 0 0-3.213 1.378l-2.847-2.512-2.848 2.944 2.43 2.943a10.862 10.862 0 0 0-1.334 3.322l-1.78.145M8.97 20.684c-2.044 0-3.461-1.717-3.461-3.834v-1.28c0-2.116 1.417-3.833 3.462-3.833s3.462 1.717 3.462 3.834v1.28c0 2.116-1.417 3.833-3.462 3.833zM1.182 34.105s.567-4.976.865-7.158c.298-2.181 1.558-3.579 3.462-3.579H7.24l6.042 7.158h5.193s.387 3.58-2.597 3.58h-5.176l-4.328-5.37"/><path d="M14.164 27.842l3.462-5.368h12.117L24.55 31.42h-4.328M6.374 34.105h25.1"/></g></svg>