<svg xmlns="http://www.w3.org/2000/svg" width="41" height="42"><g fill="none" fill-rule="evenodd" stroke="#3F86EE" stroke-width="1.449"><path d="M25.583 32.337c0 .628-1.035 1.512-1.707 1.721-.072.279.105.799.339 1.548.642 2.063-.777 3.696-2.647 3.696-1.34 0-8.763-2.231-9.878-3.772l-2.93-4.486m5.312 5.916L13.148 41m13.01-20c1.105 1.509 2.643 3.573 2.643 4.56 0 1.42-1.705 1.53-2.909 1.71.263 1.42 1.367 2.102 1.131 2.517-.235.416-3.905.988-6.08.988M8.76 1c3.478 0 6.788.978 8.993 1.895 6.207 2.579 8.333 8.928 8.268 12.345"/><path d="M5.311 19.26h12.07c.97 1.74 3.45 3.48 6.036 3.48 2.587 0 4.311-3.986 4.311-5.218 0-.472.03-.87 0-1.74H6.173C2.437 15.783 1 17.813 1 21v1.74m29.184-1.65l9.624 6.867V8.12l-10.364 7.63"/></g></svg>