<svg xmlns="http://www.w3.org/2000/svg" width="41" height="38"><g fill="none" fill-rule="evenodd" stroke="#3F86EE" stroke-width="1.449"><path d="M11.333 29a15.984 15.984 0 0 0 4 4.667m-6-11.334a16.93 16.93 0 0 0 .667 4m.667-10.666a11.896 11.896 0 0 0-1.334 4m27.334 2c0 6.627-5.34 12-11.926 12h-3.408m10-22c-1.965-1.26-4.355-2-6.932-2h-1.734"/><path d="M11.832 13.015a15.437 15.437 0 0 1 12.74-6.682C33.092 6.333 40 13.198 40 21.667 40 30.135 33.093 37 24.571 37H10"/><path d="M34 13l-9.167 9.333-4.166-4.242m6.666-14.424a2.667 2.667 0 1 0-5.333 0 2.667 2.667 0 0 0 5.333 0zM4 13h12.667M0 19.667h14.667m-12 6.666h12.666"/></g></svg>