<svg xmlns="http://www.w3.org/2000/svg" width="100" height="100"><defs><linearGradient id="a" x1="0%" x2="50%" y1="0%" y2="100%"><stop offset="0%" stop-color="#FFC986" stop-opacity=".296"/><stop offset="100%" stop-color="#FFC986"/></linearGradient></defs><g fill="none" fill-rule="evenodd"><path fill="url(#a)" fill-rule="nonzero" d="M6.135 0h87.73A6.135 6.135 0 01100 6.135v87.73A6.135 6.135 0 0193.865 100H6.135A6.135 6.135 0 010 93.865V6.135A6.135 6.135 0 016.135 0z" opacity=".2"/><g stroke-width="3"><path stroke="#FE9466" d="M64.087 58.657h4.696c4.538 0 8.217-3.674 8.217-8.207 0-4.533-3.679-8.208-8.217-8.208-.872 0-1.712.138-2.5.39a8.253 8.253 0 00.152-1.563c0-4.533-3.68-8.208-8.217-8.208a8.183 8.183 0 00-5.368 2.002C51.25 30.288 46.902 27 41.776 27c-6.484 0-11.74 5.25-11.74 11.727 0 1.237.193 2.427.549 3.547C26.343 42.598 23 46.13 23 50.45c0 4.531 3.68 8.207 8.218 8.207h3.521"/><path stroke="#FE9466" d="M30.584 42.266a8.196 8.196 0 014.974 1.213m17.312-8.624c.301.857.504 1.76.597 2.695m12.819 5.082a8.176 8.176 0 01-1.025 2.668"/><path stroke="#FFC986" d="M58.218 73.9h-17.61a3.52 3.52 0 01-3.52-3.518V69.21a3.52 3.52 0 013.52-3.518h17.61a3.52 3.52 0 013.521 3.518v1.172a3.52 3.52 0 01-3.521 3.518z"/><path stroke="#FFC986" d="M58.218 65.692h-17.61a3.52 3.52 0 01-3.52-3.517v-1.173a3.52 3.52 0 013.52-3.517h17.61a3.52 3.52 0 013.521 3.517v1.173a3.52 3.52 0 01-3.521 3.517z"/><path stroke="#FFC986" d="M58.218 57.485h-17.61a3.52 3.52 0 01-3.52-3.518v-1.172a3.52 3.52 0 013.52-3.518h17.61a3.52 3.52 0 013.521 3.518v1.172a3.52 3.52 0 01-3.521 3.518z"/></g></g></svg>