<svg xmlns="http://www.w3.org/2000/svg" width="100" height="100"><defs><linearGradient id="a" x1="0%" x2="50%" y1="0%" y2="100%"><stop offset="0%" stop-color="#FBB4A8" stop-opacity=".3"/><stop offset="100%" stop-color="#FBB4A8"/></linearGradient></defs><g fill="none" fill-rule="evenodd"><path fill="url(#a)" fill-rule="nonzero" d="M6.135 0h87.73A6.135 6.135 0 0 1 100 6.135v87.73A6.135 6.135 0 0 1 93.865 100H6.135A6.135 6.135 0 0 1 0 93.865V6.135A6.135 6.135 0 0 1 6.135 0z" opacity=".2"/><g stroke-linejoin="round" stroke-width="3"><path stroke="#F97A83" d="M54.045 30.45c0-2.474.217-7.45-6.153-7.45-5.075 0-9.69 5.47-9.843 8.69-3.827.515-7.462 4.287-6.957 9.106-3.637 1.798-6.275 11.402-1.53 15.957-.862 3.917 1.792 12.89 9.717 12.183 1.93 10.462 14.766 10.15 14.766 2.483V65.21M46.318 39.2c-4.416 0-8.5-.729-8.5-7.714"/><path stroke="#FBB4A8" d="M38.59 47.724c2.081 1.324 5.602.8 7.492-1.133 1.396-1.426 2.886-3.69 4.424-3.525h19.767M47.864 64.657c.915-1.837 3.112-2.314 6.224-2.314h16.185"/><path stroke="#F97A83" d="M40.91 61.571c-2.053-.321-3.865-2.253-3.865-3.857m2.319 10.8c0-4.712 2.603-10.8 9.272-10.8"/><path stroke="#FBB4A8" d="M34.727 43.829c2.134 0 3.864 1.551 3.864 3.743 0 1.73-1.075 3.426-2.575 3.97m25.757-19.285h-7.518c-3.406 0-6.758-.467-7.937-3.086m7.727 23.143h7.728"/><path stroke="#F97A83" d="M54.045 35.343v5.226m0 5.574v13.886"/><path stroke="#FBB4A8" d="M56.364 72.371H61m17-29.314a3.86 3.86 0 0 1-3.864 3.857 3.86 3.86 0 0 1-3.863-3.857 3.86 3.86 0 0 1 3.863-3.857A3.86 3.86 0 0 1 78 43.057zm-9.273-10.028a3.86 3.86 0 0 1-3.863 3.857A3.86 3.86 0 0 1 61 33.029a3.86 3.86 0 0 1 3.864-3.858 3.86 3.86 0 0 1 3.863 3.858zm0 20.057a3.86 3.86 0 0 1-3.863 3.857A3.86 3.86 0 0 1 61 53.086a3.86 3.86 0 0 1 3.864-3.857 3.86 3.86 0 0 1 3.863 3.857zm0 19.285a3.86 3.86 0 0 1-3.863 3.858A3.86 3.86 0 0 1 61 72.37a3.86 3.86 0 0 1 3.864-3.857 3.86 3.86 0 0 1 3.863 3.857zM78 62.343a3.86 3.86 0 0 1-3.864 3.857 3.86 3.86 0 0 1-3.863-3.857 3.86 3.86 0 0 1 3.863-3.857A3.86 3.86 0 0 1 78 62.343z"/></g></g></svg>