<svg xmlns="http://www.w3.org/2000/svg" width="100" height="100"><defs><linearGradient id="a" x1="0%" x2="50%" y1="0%" y2="100%"><stop offset="0%" stop-color="#A5D6A7" stop-opacity=".3"/><stop offset="100%" stop-color="#A5D6A7"/></linearGradient></defs><g fill="none" fill-rule="evenodd"><path fill="url(#a)" fill-rule="nonzero" d="M6.135 0h87.73A6.135 6.135 0 01100 6.135v87.73A6.135 6.135 0 0193.865 100H6.135A6.135 6.135 0 010 93.865V6.135A6.135 6.135 0 016.135 0z" opacity=".2"/><g stroke-width="3"><path stroke="#66BB69" d="M39.642 40.917a14.366 14.366 0 0110.8-4.874h2.4v2.399l10.8-7.2-10.8-7.2v2.4h-2.4a23.92 23.92 0 00-16.8 6.861m7.275 27.939a14.366 14.366 0 01-4.874-10.8v-2.4h2.399l-7.2-10.8-7.2 10.8h2.4v2.4a23.92 23.92 0 006.861 16.8"/><path stroke="#A5D6A7" d="M61.242 59.967a14.366 14.366 0 01-10.8 4.875h-2.4v-2.4l-10.8 7.2 10.8 7.2v-2.4h2.4a23.92 23.92 0 0016.8-6.86m-7.275-27.94a14.366 14.366 0 014.875 10.8v2.4h-2.4l7.2 10.8 7.2-10.8h-2.4v-2.4a23.92 23.92 0 00-6.86-16.8m-13.159 10.8a7.173 7.173 0 00-3.98-1.2 7.174 7.174 0 00-3.982 1.2m-2.256 9.601a7.166 7.166 0 01-.963-3.6c0-1.312.35-2.542.963-3.601"/><path stroke="#66BB69" d="M56.679 54.043a7.17 7.17 0 00.964-3.6c0-1.312-.35-2.542-.964-3.601m-2.256 9.601a7.173 7.173 0 01-3.98 1.2 7.174 7.174 0 01-3.982-1.2"/></g></g></svg>