<svg xmlns="http://www.w3.org/2000/svg" width="100" height="100"><defs><linearGradient id="a" x1="0%" x2="50%" y1="0%" y2="100%"><stop offset="0%" stop-color="#81D4FA" stop-opacity=".3"/><stop offset="100%" stop-color="#81D4FA"/></linearGradient></defs><g fill="none" fill-rule="evenodd"><path fill="url(#a)" fill-rule="nonzero" d="M6.135 0h87.73A6.135 6.135 0 01100 6.135v87.73A6.135 6.135 0 0193.865 100H6.135A6.135 6.135 0 010 93.865V6.135A6.135 6.135 0 016.135 0z" opacity=".2"/><path stroke="#4E8BCF" stroke-width="3" d="M66.699 34.936C66.776 24.843 60.104 20 50.442 20c-9.662 0-16.334 4.843-16.256 14.936H66.7z"/><path stroke="#64B5F6" stroke-width="3" d="M69.842 53.958l-11.707 2.808a6.868 6.868 0 01-3.505-.96l-1.798-1.068a4.687 4.687 0 00-4.78 0l-1.798 1.067a6.86 6.86 0 01-3.503.96l-11.708-2.807a3.454 3.454 0 01-2.663-3.35V38.384c0-1.904 1.56-3.447 3.484-3.447H69.02c1.924 0 3.483 1.543 3.483 3.447V50.61c0 1.59-1.1 2.974-2.662 3.349z"/><path stroke="#4E8BCF" stroke-width="3" d="M65.537 57.915v1.149c0 2.994-1.313 4.546-3.589 6.519-1.632 1.415-3.576 2.856-5.304 4.11a10.575 10.575 0 01-12.403 0c-1.728-1.254-3.672-2.695-5.305-4.11-2.277-1.973-3.589-3.525-3.589-6.52v-1.148m3.483 8.042V74m23.224-8.043V74"/><path stroke="#64B5F6" stroke-width="4" d="M46.959 40.383h6.967"/><path stroke="#64B5F6" stroke-width="3" d="M32.864 38.383v10.34m35.156-10.34v10.34"/></g></svg>