<?xml version="1.0" encoding="utf-8"?>
<!-- Generator: Adobe Illustrator 19.1.0, SVG Export Plug-In . SVG Version: 6.00 Build 0)  -->
<svg version="1.1" id="Слой_1" xmlns="http://www.w3.org/2000/svg" xmlns:xlink="http://www.w3.org/1999/xlink" x="0px" y="0px"
	 viewBox="0 0 17.816 19.893" enable-background="new 0 0 17.816 19.893" xml:space="preserve">
<path id="path1994" fill="#FFFFFF" d="M10.166,0.2h-8.5C0.859,0.2,0.2,0.811,0.2,1.56v16.772c0,0.749,0.659,1.36,1.466,1.36h8.5
	c0.806,0,1.464-0.611,1.464-1.36V1.56C11.63,0.811,10.972,0.2,10.166,0.2"/>
<path id="path1996" fill="#292E2B" d="M1.666,0.4c-0.699,0-1.266,0.521-1.266,1.16v16.772c0,0.639,0.568,1.16,1.266,1.16h8.5
	c0.696,0,1.264-0.521,1.264-1.16V1.56c0-0.639-0.567-1.16-1.264-1.16H1.666z M10.166,19.893h-8.5c-0.919,0-1.666-0.7-1.666-1.56
	V1.56C0,0.7,0.747,0,1.666,0h8.5c0.917,0,1.664,0.7,1.664,1.56v16.772C11.83,19.193,11.083,19.893,10.166,19.893"/>
<path id="path1998" fill="#FFFFFF" d="M1.027,16.749h9.775V2.401H1.027V16.749z"/>
<path id="path2000" fill="#292E2B" d="M1.228,16.549h9.374V2.601H1.228V16.549z M10.802,16.949H1.027c-0.11,0-0.199-0.089-0.199-0.2
	V2.401c0-0.111,0.09-0.2,0.199-0.2h9.775c0.11,0,0.2,0.089,0.2,0.2v14.348C11.002,16.86,10.913,16.949,10.802,16.949"/>
<path id="path2002" fill="#FFFFFF" d="M5.022,18.539c-0.165,0-0.298-0.124-0.298-0.278v-0.084c0-0.152,0.134-0.276,0.298-0.276
	h1.786c0.164,0,0.297,0.124,0.297,0.277l0.001,0.083c0,0.154-0.134,0.279-0.298,0.279L5.022,18.539"/>
<path id="path2004" fill="#292E2B" d="M6.808,18.101l-1.786,0.001c-0.054,0-0.099,0.034-0.099,0.076v0.084
	c0,0.043,0.045,0.078,0.099,0.078l1.786,0.001c0.054,0,0.098-0.036,0.098-0.079l-0.001-0.082
	C6.906,18.137,6.861,18.101,6.808,18.101z M6.808,18.74L6.808,18.74l-1.786-0.001c-0.275,0-0.498-0.214-0.498-0.478v-0.084
	c0-0.263,0.223-0.476,0.498-0.476L6.808,17.7c0.275,0,0.498,0.214,0.498,0.478v0.083C7.306,18.525,7.083,18.74,6.808,18.74"/>
<path id="path2006" fill="#FFFFFF" d="M11.396,11.771h1.275V7.598h-2.521v4.173H11.396"/>
<path id="path2008" fill="#292E2B" d="M10.35,11.571h2.121V7.798H10.35V11.571z M12.671,11.971h-2.521
	c-0.11,0-0.199-0.089-0.199-0.2V7.598c0-0.111,0.089-0.2,0.199-0.2h2.521c0.11,0,0.199,0.089,0.199,0.2v4.173
	C12.87,11.882,12.781,11.971,12.671,11.971"/>
<path id="path2010" fill="#FFFFFF" d="M11.396,10.579l-1.246-1.268c0,0-2.795,1.02-3.68,1.49c-0.419,0.221-0.68,0.437-0.814,1.161
	c-0.134,0.723-0.325,2.21-0.44,3.266h12.391c-0.114-1.056-0.305-2.543-0.439-3.266c-0.134-0.724-0.396-0.94-0.813-1.161
	c-0.885-0.47-3.683-1.49-3.683-1.49L11.396,10.579"/>
<path id="path2012" fill="#292E2B" d="M5.44,15.028h11.943c-0.113-1.016-0.287-2.354-0.411-3.031
	c-0.124-0.665-0.351-0.83-0.711-1.02c-0.76-0.404-2.997-1.235-3.539-1.434l-1.184,1.178c-0.038,0.037-0.089,0.058-0.141,0.058
	c0,0-0.001,0-0.002,0c-0.053-0.001-0.104-0.022-0.141-0.059l-1.155-1.177c-0.544,0.2-2.776,1.031-3.535,1.433
	c-0.36,0.191-0.587,0.354-0.711,1.02C5.729,12.663,5.554,14.005,5.44,15.028z M17.617,15.428c-0.005-0.001-0.007-0.001-0.01,0H5.216
	c-0.057,0-0.111-0.024-0.148-0.066c-0.037-0.042-0.057-0.099-0.05-0.155c0.116-1.077,0.305-2.549,0.441-3.282
	c0.141-0.765,0.419-1.038,0.918-1.302c0.886-0.47,3.59-1.458,3.705-1.5c0.074-0.027,0.156-0.009,0.211,0.048l1.106,1.125
	l1.132-1.127c0.054-0.053,0.136-0.071,0.209-0.046c0.115,0.042,2.821,1.03,3.709,1.501c0.497,0.263,0.774,0.536,0.917,1.301
	c0.134,0.722,0.322,2.182,0.434,3.221c0.011,0.025,0.017,0.054,0.017,0.082C17.816,15.338,17.727,15.428,17.617,15.428"/>
<path id="path2014" fill="#FFFFFF" d="M11.396,13.846L9.644,9.498C9.417,9.583,9.13,9.692,8.819,9.811l0.012,0.67l0.489,0.197
	l-0.26,0.442L11.396,13.846"/>
<path id="path2016" fill="#292E2B" d="M9.305,11.098l1.451,1.693L9.532,9.754C9.378,9.812,9.205,9.877,9.021,9.947l0.007,0.397
	l0.366,0.148c0.054,0.022,0.097,0.067,0.115,0.121c0.019,0.056,0.012,0.116-0.017,0.166L9.305,11.098z M11.396,14.047
	c-0.057,0-0.113-0.025-0.152-0.07l-2.336-2.727c-0.055-0.065-0.064-0.158-0.02-0.232l0.142-0.242l-0.274-0.11
	c-0.074-0.03-0.123-0.101-0.124-0.182l-0.013-0.67c-0.002-0.084,0.049-0.16,0.128-0.19c0.311-0.12,0.599-0.228,0.827-0.314
	C9.677,9.272,9.79,9.323,9.831,9.423l1.751,4.349c0.037,0.091,0.002,0.195-0.081,0.246C11.467,14.037,11.432,14.047,11.396,14.047"
	/>
<path id="path2018" fill="#FFFFFF" d="M11.396,15.227h6.211c-0.114-1.056-0.305-2.543-0.439-3.266
	c-0.134-0.724-0.396-0.94-0.813-1.161c-0.885-0.47-3.683-1.49-3.683-1.49l-1.275,1.268L11.396,15.227"/>
<path id="path2020" fill="#292E2B" d="M11.596,15.028h5.787c-0.113-1.016-0.287-2.354-0.411-3.031
	c-0.124-0.665-0.351-0.83-0.711-1.02c-0.76-0.404-2.997-1.235-3.539-1.434l-1.125,1.119V15.028z M17.607,15.428h-6.211
	c-0.11,0-0.2-0.09-0.2-0.201v-4.648c0-0.053,0.021-0.104,0.059-0.141l1.275-1.269c0.054-0.053,0.136-0.071,0.209-0.046
	c0.115,0.042,2.821,1.03,3.709,1.501c0.497,0.263,0.774,0.536,0.917,1.301c0.136,0.736,0.329,2.241,0.441,3.282
	c0.007,0.056-0.012,0.113-0.05,0.155C17.717,15.404,17.664,15.428,17.607,15.428"/>
<path id="path2022" fill="#FFFFFF" d="M11.396,13.846l1.78-4.347c0.228,0.085,0.483,0.18,0.794,0.299l-0.01,0.682l-0.489,0.197
	l0.261,0.442L11.396,13.846"/>
<path id="path2024" fill="#292E2B" d="M13.288,9.755l-1.237,3.019l1.435-1.676l-0.188-0.319c-0.03-0.05-0.036-0.11-0.018-0.166
	c0.019-0.054,0.061-0.098,0.115-0.121l0.366-0.148l0.006-0.409C13.591,9.868,13.433,9.809,13.288,9.755z M11.396,14.047
	c-0.036,0-0.071-0.01-0.104-0.03c-0.083-0.051-0.118-0.155-0.081-0.246l1.78-4.348c0.041-0.1,0.155-0.149,0.255-0.111l0.166,0.061
	c0.185,0.069,0.391,0.147,0.63,0.239c0.079,0.03,0.13,0.105,0.129,0.19l-0.011,0.681c-0.001,0.081-0.05,0.153-0.125,0.183
	l-0.274,0.11l0.142,0.242c0.044,0.073,0.035,0.167-0.02,0.232l-2.335,2.727C11.509,14.022,11.453,14.047,11.396,14.047"/>
<path id="path2026" fill="#FFFFFF" d="M15.523,13.839c-0.003-0.029-0.03-0.049-0.055-0.046c-0.028,0.004-0.048,0.029-0.046,0.057
	l0.153,1.378h0.101L15.523,13.839"/>
<path id="path2028" fill="#292E2B" d="M15.677,15.428h-0.101c-0.102,0-0.187-0.077-0.199-0.178l-0.152-1.378
	c-0.015-0.136,0.083-0.26,0.219-0.278c0.154-0.009,0.268,0.099,0.279,0.229l0.153,1.383c0.007,0.057-0.011,0.113-0.049,0.156
	C15.788,15.404,15.734,15.428,15.677,15.428"/>
<path id="path2030" fill="#FFFFFF" d="M9.239,6.563C8.261,5.671,8.403,4.74,8.655,4.8C8.908,4.86,9.07,5.251,9.07,5.251
	S9.378,5.997,9.239,6.563"/>
<path id="path2032" fill="#292E2B" d="M8.678,5.033c-0.03,0.16,0.006,0.576,0.39,1.056c-0.027-0.317-0.13-0.632-0.183-0.761
	C8.846,5.235,8.763,5.099,8.678,5.033z M9.239,6.763c-0.049,0-0.098-0.019-0.135-0.053C8.287,5.964,8.187,5.185,8.319,4.844
	c0.059-0.153,0.176-0.245,0.313-0.245c0.016,0,0.054,0.004,0.069,0.008c0.343,0.08,0.533,0.517,0.554,0.567
	c0.013,0.035,0.332,0.815,0.178,1.436C9.417,6.679,9.365,6.733,9.297,6.755C9.278,6.759,9.258,6.763,9.239,6.763"/>
<path id="path2034" fill="#FFFFFF" d="M13.591,6.563c0.977-0.892,0.837-1.823,0.585-1.763c-0.252,0.06-0.415,0.451-0.415,0.451
	S13.452,5.997,13.591,6.563"/>
<path id="path2036" fill="#292E2B" d="M14.151,5.025c-0.079,0.065-0.17,0.217-0.205,0.303C13.944,5.333,13.794,5.7,13.76,6.091
	C14.151,5.603,14.183,5.183,14.151,5.025z M13.591,6.763c-0.02,0-0.039-0.004-0.058-0.008c-0.067-0.021-0.119-0.076-0.136-0.145
	c-0.153-0.621,0.166-1.403,0.18-1.435c0.021-0.051,0.212-0.488,0.554-0.568c0.015-0.004,0.053-0.008,0.069-0.008
	c0.135,0,0.253,0.092,0.312,0.245c0.132,0.341,0.032,1.119-0.785,1.865C13.688,6.744,13.64,6.763,13.591,6.763"/>
<path id="path2038" fill="#FFFFFF" d="M12.402,2.747c-0.277-0.105-0.678-0.249-0.803-0.335h-0.375
	c-0.125,0.085-0.526,0.229-0.802,0.335C9.558,3.073,8.685,3.52,8.685,3.52C8.81,4.279,9.104,7.348,9.608,8.035
	c1.631,1.264,2.039,1.218,3.607,0c0.728-1.351,0.825-3.916,0.919-4.492l0.002-0.011l0.002-0.008l0.001-0.003V3.52
	C14.138,3.52,13.265,3.073,12.402,2.747"/>
<path id="path2040" fill="#292E2B" d="M9.754,7.895c0.714,0.551,1.218,0.87,1.667,0.87l0,0c0.438,0,0.898-0.29,1.636-0.863
	c0.547-1.05,0.721-2.848,0.815-3.819c0.018-0.18,0.033-0.335,0.046-0.451c-0.271-0.133-0.937-0.453-1.588-0.7l-0.125-0.047
	c-0.299-0.113-0.53-0.201-0.663-0.275h-0.265c-0.131,0.073-0.359,0.16-0.653,0.271l-0.133,0.051c-0.652,0.247-1.315,0.565-1.588,0.7
	c0.022,0.148,0.047,0.34,0.076,0.563C9.125,5.304,9.39,7.353,9.754,7.895z M11.421,9.166L11.421,9.166
	c-0.572,0-1.122-0.342-1.937-0.973c-0.014-0.011-0.028-0.025-0.038-0.04c-0.4-0.544-0.646-2.228-0.864-3.905
	c-0.039-0.3-0.07-0.544-0.095-0.696C8.474,3.467,8.517,3.38,8.594,3.341c0.036-0.019,0.893-0.455,1.757-0.783l0.133-0.049
	c0.216-0.081,0.542-0.204,0.628-0.263c0.032-0.023,0.071-0.035,0.112-0.035h0.375c0.039,0,0.079,0.012,0.111,0.035
	c0.088,0.059,0.418,0.184,0.638,0.265l0.124,0.047c0.864,0.328,1.72,0.764,1.757,0.783c0.066,0.035,0.109,0.104,0.109,0.179
	c0,0.001-0.007,0.053-0.007,0.056c-0.018,0.112-0.036,0.303-0.06,0.547c-0.098,1.011-0.279,2.892-0.88,4.007
	c-0.013,0.025-0.031,0.046-0.053,0.063C12.507,8.838,11.982,9.166,11.421,9.166"/>
<path id="path2042" fill="#FFFFFF" d="M9.008,5.283c0,0,0.231-0.699,0.296-1.856c0,0,0.321,0.269,1.196,0.499
	c0.875,0.228,2.29,0.012,2.844-0.607c0,0-0.291,1.168,0.467,1.955c0,0,0.362-0.54,0.536-1.592c0.175-1.049-0.425-1.192-0.425-1.192
	c0.174-0.888-1.324-1.497-2.984-1.316C9.278,1.356,8.925,2.42,8.925,2.42C8.673,2.445,8.329,2.717,8.306,3.491
	C8.28,4.325,8.722,4.995,9.008,5.283"/>
<path id="path2044" fill="#292E2B" d="M13.343,3.119c0.032,0,0.063,0.008,0.094,0.024c0.081,0.043,0.122,0.136,0.101,0.224
	c-0.003,0.009-0.205,0.867,0.239,1.545c0.114-0.247,0.274-0.671,0.372-1.263c0.139-0.835-0.261-0.961-0.278-0.967
	c-0.099-0.028-0.166-0.129-0.145-0.231c0.031-0.163-0.011-0.312-0.13-0.456c-0.393-0.476-1.482-0.751-2.636-0.624
	c-1.5,0.165-1.833,1.073-1.846,1.112c-0.026,0.073-0.092,0.127-0.17,0.135C8.792,2.633,8.526,2.836,8.506,3.497
	C8.487,4.089,8.721,4.563,8.914,4.848c0.069-0.311,0.155-0.803,0.19-1.432c0.004-0.076,0.051-0.143,0.12-0.173
	c0.07-0.029,0.151-0.019,0.208,0.031c0.001,0.001,0.31,0.247,1.118,0.459c0.206,0.053,0.455,0.081,0.718,0.081
	c0.816,0,1.59-0.252,1.925-0.627C13.233,3.143,13.288,3.119,13.343,3.119L13.343,3.119z M9.008,5.483
	c-0.052,0-0.104-0.021-0.141-0.059c-0.367-0.369-0.787-1.099-0.761-1.94c0.025-0.776,0.357-1.14,0.677-1.239
	c0.146-0.3,0.671-1.109,2.135-1.271c1.307-0.141,2.506,0.181,2.988,0.768c0.157,0.189,0.235,0.404,0.231,0.625
	c0.218,0.132,0.552,0.48,0.408,1.347c-0.179,1.081-0.551,1.647-0.567,1.671c-0.034,0.049-0.089,0.081-0.149,0.088
	c-0.06,0.003-0.12-0.017-0.161-0.061c-0.504-0.523-0.591-1.187-0.578-1.636c-0.535,0.317-1.268,0.437-1.82,0.437
	c-0.297,0-0.581-0.032-0.82-0.095C9.997,4,9.683,3.869,9.48,3.767C9.395,4.74,9.207,5.319,9.198,5.347
	C9.176,5.412,9.122,5.461,9.054,5.477C9.039,5.481,9.023,5.483,9.008,5.483"/>
<path id="path2046" fill="#FFFFFF" d="M11.396,13.846l2.031-4.255c-0.446-0.168-0.756-0.281-0.756-0.281l-1.275,1.141l-1.246-1.141
	c0,0-0.365,0.134-0.874,0.327L11.396,13.846"/>
<path id="path2048" fill="#292E2B" d="M9.554,9.746l1.837,3.646l1.761-3.69c-0.191-0.071-0.342-0.127-0.437-0.163l-1.186,1.061
	c-0.076,0.068-0.192,0.068-0.268-0.002l-1.156-1.058C9.99,9.583,9.795,9.655,9.554,9.746z M11.396,14.047
	c-0.075,0-0.145-0.043-0.179-0.11L9.096,9.727c-0.026-0.05-0.029-0.11-0.008-0.162C9.109,9.511,9.151,9.47,9.205,9.45
	c0.511-0.193,0.877-0.327,0.877-0.327c0.071-0.025,0.148-0.009,0.204,0.041l1.113,1.018l1.14-1.02
	c0.055-0.049,0.132-0.063,0.201-0.039c0,0,0.311,0.113,0.758,0.281c0.052,0.02,0.094,0.061,0.115,0.112
	c0.021,0.053,0.02,0.111-0.005,0.161l-2.03,4.255c-0.033,0.068-0.103,0.113-0.179,0.114C11.398,14.047,11.397,14.047,11.396,14.047"
	/>
<path id="path2050" fill="#FFFFFF" d="M11.597,10.407l0.366,0.302l-0.345,0.435l0.312,1.583l-0.534,1.119l-0.512-1.014l0.333-1.689
	l-0.345-0.435l0.365-0.302L11.597,10.407"/>
<path id="path2052" fill="#292E2B" d="M11.093,12.804l0.297,0.589l0.331-0.692l-0.3-1.519c-0.011-0.057,0.003-0.117,0.039-0.163
	l0.223-0.282l-0.159-0.131H11.31l-0.159,0.131l0.222,0.282c0.037,0.046,0.051,0.105,0.04,0.163L11.093,12.804z M11.396,14.047
	c-0.075,0-0.145-0.043-0.179-0.11l-0.511-1.015c-0.02-0.04-0.027-0.085-0.018-0.129l0.316-1.598l-0.287-0.363
	c-0.068-0.085-0.055-0.209,0.029-0.278l0.365-0.303c0.035-0.029,0.081-0.046,0.127-0.046h0.359c0.046,0,0.091,0.016,0.127,0.046
	l0.366,0.302c0.085,0.07,0.097,0.193,0.03,0.279l-0.287,0.363l0.294,1.493c0.008,0.043,0.002,0.087-0.016,0.125l-0.533,1.119
	c-0.033,0.069-0.103,0.113-0.179,0.115C11.398,14.047,11.397,14.047,11.396,14.047"/>
<path id="path2054" fill="#FFFFFF" d="M9.275,9.637c0.509-0.193,0.874-0.327,0.874-0.327l1.246,1.141l-1.302,0.832L9.275,9.637z
	 M12.671,9.311l-1.275,1.141l1.214,0.828l0.817-1.688C12.981,9.424,12.671,9.311,12.671,9.311L12.671,9.311"/>
<path id="path2056" fill="#292E2B" d="M11.72,10.43l0.811,0.554l0.62-1.281c-0.189-0.071-0.341-0.127-0.437-0.163L11.72,10.43z
	 M9.553,9.746l0.622,1.25l0.895-0.573l-0.965-0.882C9.99,9.583,9.795,9.655,9.553,9.746z M10.094,11.484
	c-0.017,0-0.035-0.003-0.053-0.008c-0.055-0.015-0.101-0.053-0.125-0.104L9.096,9.727C9.07,9.676,9.068,9.617,9.089,9.564
	C9.109,9.511,9.152,9.47,9.205,9.45c0.511-0.193,0.877-0.327,0.877-0.327c0.071-0.025,0.148-0.009,0.204,0.041l1.113,1.018
	l1.14-1.02c0.055-0.049,0.132-0.063,0.202-0.039c0,0,0.31,0.114,0.757,0.281c0.053,0.02,0.094,0.061,0.115,0.113
	c0.021,0.052,0.02,0.11-0.005,0.161l-0.817,1.688c-0.025,0.052-0.072,0.091-0.129,0.106c-0.056,0.013-0.116,0.004-0.164-0.028
	l-1.105-0.754l-1.19,0.761C10.17,11.473,10.132,11.484,10.094,11.484"/>
<path id="path2058" fill="#FFFFFF" d="M7.534,15.226l0.152-1.378c0.004-0.028-0.017-0.054-0.044-0.058
	c-0.027-0.002-0.053,0.019-0.056,0.046l-0.153,1.39H7.534"/>
<path id="path2060" fill="#292E2B" d="M7.534,15.426H7.433c-0.057,0-0.11-0.025-0.149-0.067c-0.037-0.042-0.056-0.099-0.05-0.156
	l0.153-1.389c0.014-0.128,0.122-0.224,0.25-0.224c0.168,0.019,0.265,0.145,0.248,0.282l-0.151,1.375
	C7.722,15.349,7.637,15.426,7.534,15.426"/>
</svg>
