<?xml version="1.0" encoding="utf-8"?>
<!-- Generator: Avocode 2.6.0 - http://avocode.com -->
<svg height="11" width="16" xmlns:xlink="http://www.w3.org/1999/xlink" xmlns="http://www.w3.org/2000/svg" viewBox="0 0 16 11">
    <path fill="#ffffff" fill-rule="evenodd" d="M 15.54 11 C 15.54 11 0.46 11 0.46 11 C 0.2 11 0 10.79 0 10.54 C 0 10.54 0 0.46 0 0.46 C 0 0.21 0.2 0 0.46 0 C 0.46 0 15.54 0 15.54 0 C 15.8 0 16 0.21 16 0.46 C 16 0.46 16 10.54 16 10.54 C 16 10.79 15.8 11 15.54 11 Z M 0.91 10.08 C 0.91 10.08 15.09 10.08 15.09 10.08 C 15.09 10.08 15.09 0.92 15.09 0.92 C 15.09 0.92 0.91 0.92 0.91 0.92 C 0.91 0.92 0.91 10.08 0.91 10.08 Z M 8 5.96 C 7.91 5.96 7.82 5.94 7.75 5.89 C 7.75 5.89 0.2 0.84 0.2 0.84 C -0.01 0.7 -0.06 0.42 0.08 0.21 C 0.22 -0.01 0.5 -0.06 0.71 0.08 C 0.71 0.08 8 4.95 8 4.95 C 8 4.95 15.29 0.08 15.29 0.08 C 15.5 -0.06 15.78 -0.01 15.92 0.21 C 16.06 0.42 16.01 0.7 15.8 0.84 C 15.8 0.84 8.25 5.88 8.25 5.88 C 8.18 5.94 8.09 5.96 8 5.96 Z M 0.46 10.54" />
</svg>