<svg xmlns="http://www.w3.org/2000/svg" preserveAspectRatio="xMidYMid" width="30" height="30" viewBox="0 0 30 30"><defs><style>.cls-2{fill:#000}</style></defs><path d="M19.092-.006h-1.985v3.985h1.985V-.006zm9.174 4.339l-1.403-1.409-2.806 2.817L25.46 7.15l2.806-2.817zM14.375 5.741l-2.806-2.817-1.403 1.409 2.806 2.817 1.403-1.409zm4.717.355L-.009 25.27l4.713 4.732 19.164-19.237-4.776-4.669zm-4.03 6.973l4.031-4.048 1.985 1.868-4.094 4.109-1.922-1.929zm7.444 4.587l2.806 2.816 1.403-1.408-2.806-2.817-1.403 1.409zm3.532-5.708v1.992h3.969v-1.992h-3.969z" id="path-1" class="cls-2" fill-rule="evenodd"/></svg>