<?xml version="1.0" encoding="utf-8"?>
<!-- Generator: Avocode 2.6.0 - http://avocode.com -->
<svg height="22" width="114" xmlns:xlink="http://www.w3.org/1999/xlink" xmlns="http://www.w3.org/2000/svg" viewBox="0 0 114 22">
    <path fill="#000000" fill-rule="evenodd" d="M 112.83 5.88 C 112.83 5.88 107.32 5.88 107.32 5.88 C 107.32 5.88 103.6 15.08 103.6 15.08 C 103.6 15.08 97.76 15.08 97.76 15.08 C 97.76 15.08 101.42 5.85 101.42 5.85 C 101.42 5.85 95.81 5.85 95.81 5.85 C 95.81 5.85 97.07 2.56 97.07 2.56 C 97.07 2.56 113.96 2.56 113.96 2.56 C 113.96 2.56 112.83 5.88 112.83 5.88 Z M 84.7 15.14 C 84.7 15.14 81.12 8.06 81.12 8.06 C 81.12 8.06 77.98 15.14 77.98 15.14 C 77.98 15.14 72.2 15.14 72.2 15.14 C 72.2 15.14 77.35 2.59 77.35 2.59 C 77.35 2.59 84.57 2.59 84.57 2.59 C 84.57 2.59 87.9 9.28 87.9 9.28 C 87.9 9.28 90.79 2.59 90.79 2.59 C 90.79 2.59 96.44 2.59 96.44 2.59 C 96.44 2.59 91.37 15.14 91.37 15.14 C 91.37 15.14 84.7 15.14 84.7 15.14 Z M 73.66 18.13 C 74.07 18.38 74.18 18.76 74.01 19.22 C 74.01 19.22 73 19.22 73 19.22 C 73.05 19.06 73.02 18.89 72.91 18.76 C 72.75 18.57 72.45 18.46 71.98 18.49 C 71.48 18.51 71.04 18.73 70.68 19.11 C 70.68 19.11 70.24 19.79 70.24 19.79 C 70.1 20.15 70.05 20.42 70.08 20.64 C 70.13 20.88 70.3 21.07 70.54 21.18 C 70.54 21.18 70.93 21.24 70.93 21.24 C 70.93 21.24 71.37 21.18 71.37 21.18 C 71.84 21.1 72.23 20.85 72.47 20.47 C 72.47 20.47 73.49 20.47 73.49 20.47 C 73.3 20.93 72.91 21.32 72.36 21.56 C 71.89 21.81 71.32 21.91 70.68 21.94 C 70.1 21.94 69.69 21.81 69.39 21.56 C 69.08 21.32 68.97 20.99 69 20.55 C 69.03 20.34 69.08 20.12 69.19 19.87 C 69.19 19.87 69.61 19.11 69.61 19.11 C 70.3 18.27 71.23 17.83 72.39 17.83 C 72.94 17.83 73.35 17.94 73.66 18.13 Z M 64.79 13.67 C 64.79 13.67 58.07 13.67 58.07 13.67 C 58.07 13.67 56.72 15.14 56.72 15.14 C 56.72 15.14 50.35 15.14 50.35 15.14 C 50.35 15.14 62.47 2.59 62.47 2.59 C 62.47 2.59 70.16 2.59 70.16 2.59 C 70.16 2.59 71.48 15.14 71.48 15.14 C 71.48 15.14 65.09 15.14 65.09 15.14 C 65.09 15.14 64.79 13.67 64.79 13.67 Z M 64.65 6.37 C 64.65 6.37 61.18 10.4 61.18 10.4 C 61.18 10.4 64.79 10.37 64.79 10.37 C 64.79 10.37 64.65 6.37 64.65 6.37 Z M 43.77 15.14 C 43.77 15.14 48.86 2.56 48.86 2.56 C 48.86 2.56 55.01 2.56 55.01 2.56 C 55.01 2.56 49.91 15.14 49.91 15.14 C 49.91 15.14 43.77 15.14 43.77 15.14 Z M 38.95 6.45 C 38.75 5.77 38.31 5.2 37.57 5.09 C 36.48 4.93 35.24 5.05 34.07 5.23 C 32.85 5.41 31.95 6.23 31.23 7.22 C 30.24 8.66 29.97 9.88 30.38 10.94 C 31.04 11.68 31.98 12.06 33.22 12.11 C 34.18 12.14 35.23 11.95 36.33 11.57 C 36.94 11.35 37.43 10.94 37.79 10.37 C 37.79 10.37 35.31 10.37 35.31 10.37 C 35.31 10.37 36.36 7.65 36.36 7.65 C 36.36 7.65 45.2 7.65 45.2 7.65 C 45.2 7.65 42.28 14.7 42.28 14.7 C 40.82 14.05 38.97 13.94 36.74 14.4 C 36.74 14.4 33.99 15 33.99 15 C 33.99 15 31.12 15.27 31.12 15.27 C 29.28 15.22 27.87 15.05 26.94 14.76 C 25.48 14.32 24.43 13.5 23.79 12.33 C 23.49 10.7 23.77 9.09 24.62 7.54 C 25.39 6.15 26.55 4.93 28.09 3.87 C 30.05 2.67 32.53 1.99 35.5 1.82 C 38.17 1.69 40.79 1.96 43.38 2.64 C 44.07 2.91 44.59 3.24 44.95 3.59 C 45.7 4.22 45.92 5.17 45.59 6.45 C 45.59 6.45 38.95 6.45 38.95 6.45 Z M 15.14 9.56 C 13.77 9.86 12.47 10.43 11.26 11.24 C 11.26 11.24 11.26 11.22 11.26 11.22 C 12.25 9.75 13.6 8.74 15.28 8.19 C 17.07 7.62 18.75 7.76 20.32 8.55 C 20.52 9.47 20.54 10.18 20.43 10.64 C 18.48 9.69 16.72 9.31 15.14 9.56 Z M 14.84 6.07 C 13.05 6.32 11.45 7 10.1 8.09 C 10.1 8.09 8.12 9.91 8.12 9.91 C 7.35 10.59 6.63 11.14 6 11.49 C 4.29 12.47 2.61 12.63 0.96 11.95 C 0.79 11.76 0.71 11.43 0.68 11 C 0.68 11 0.6 10.02 0.6 10.02 C 0.63 8.14 1.15 6.4 2.23 4.79 C 3.3 3.16 4.71 1.96 6.41 1.22 C 7.87 0.57 9.5 0.3 11.29 0.44 C 13.08 0.57 14.65 1.03 15.97 1.88 C 17.43 2.83 18.51 3.92 19.25 5.17 C 19.25 5.17 19.97 6.83 19.97 6.83 C 18.42 6.07 16.72 5.83 14.84 6.07 Z M 6.58 15 C 8.67 15.08 10.38 14.59 11.73 13.59 C 11.73 13.59 12.8 12.77 12.8 12.77 C 12.8 12.77 13.79 11.84 13.79 11.84 C 14.59 11.14 15.39 10.78 16.16 10.78 C 17.51 10.73 18.86 11.11 20.21 11.95 C 19.99 13.48 19.25 14.92 17.96 16.25 C 16.74 17.51 15.37 18.38 13.82 18.89 C 12.12 19.47 10.35 19.6 8.53 19.25 C 6.72 18.89 5.14 18.16 3.85 17.01 C 2.78 16.12 1.95 14.97 1.43 13.59 C 3 14.46 4.71 14.92 6.58 15 Z M 63.33 17.89 C 64.51 17.89 65.01 18.24 64.79 18.92 C 64.62 19.25 64.35 19.52 63.96 19.71 C 64.26 19.95 64.35 20.31 64.15 20.72 C 64.01 21.02 63.74 21.32 63.27 21.56 C 62.91 21.72 62.47 21.81 61.92 21.81 C 61.92 21.81 59.61 21.81 59.61 21.81 C 59.61 21.81 61.21 17.89 61.21 17.89 C 61.21 17.89 63.33 17.89 63.33 17.89 Z M 63.71 19 C 63.85 18.7 63.68 18.57 63.24 18.57 C 63.24 18.57 61.98 18.57 61.98 18.57 C 61.98 18.57 61.62 19.44 61.62 19.44 C 61.62 19.44 62.83 19.44 62.83 19.44 C 63.3 19.44 63.58 19.3 63.71 19 Z M 62.17 21.13 C 62.69 21.13 63.05 20.96 63.19 20.61 C 63.33 20.28 63.19 20.12 62.8 20.12 C 62.8 20.12 61.34 20.12 61.34 20.12 C 61.34 20.12 60.93 21.13 60.93 21.13 C 60.93 21.13 62.17 21.13 62.17 21.13 Z M 68.23 17.89 C 68.23 17.89 66.63 21.81 66.63 21.81 C 66.63 21.81 65.56 21.81 65.56 21.81 C 65.56 21.81 67.18 17.89 67.18 17.89 C 67.18 17.89 68.23 17.89 68.23 17.89 Z M 77.18 17.89 C 77.18 17.89 77.54 19.57 77.54 19.57 C 77.54 19.57 79.22 17.89 79.22 17.89 C 79.22 17.89 80.41 17.89 80.41 17.89 C 80.41 17.89 77.73 20.36 77.73 20.36 C 77.73 20.36 77.16 21.81 77.16 21.81 C 77.16 21.81 76.08 21.81 76.08 21.81 C 76.08 21.81 76.69 20.36 76.69 20.36 C 76.69 20.36 76 17.89 76 17.89 C 76 17.89 77.18 17.89 77.18 17.89 Z M 81.45 19.11 C 82.14 18.27 83.08 17.83 84.24 17.83 C 84.79 17.83 85.2 17.94 85.5 18.13 C 85.92 18.38 86.03 18.76 85.86 19.22 C 85.86 19.22 84.84 19.22 84.84 19.22 C 84.98 18.7 84.62 18.46 83.82 18.49 C 83.33 18.51 82.89 18.73 82.53 19.11 C 82.53 19.11 82.09 19.79 82.09 19.79 C 81.95 20.15 81.89 20.42 81.92 20.64 C 81.98 20.88 82.11 21.07 82.36 21.18 C 82.36 21.18 82.77 21.24 82.77 21.24 C 82.77 21.24 83.22 21.18 83.22 21.18 C 83.57 21.1 83.82 20.99 84.01 20.83 C 84.01 20.83 84.32 20.47 84.32 20.47 C 84.32 20.47 85.34 20.47 85.34 20.47 C 85.14 20.93 84.76 21.29 84.21 21.56 C 83.74 21.81 83.16 21.91 82.53 21.94 C 81.95 21.94 81.51 21.81 81.21 21.56 C 80.93 21.32 80.82 20.99 80.85 20.55 C 80.88 20.34 80.93 20.12 81.01 19.87 C 81.15 19.6 81.29 19.36 81.45 19.11 Z M 89.28 17.89 C 89.28 17.89 87.93 21.13 87.93 21.13 C 87.93 21.13 90.41 21.13 90.41 21.13 C 90.41 21.13 90.16 21.81 90.16 21.81 C 90.16 21.81 86.61 21.81 86.61 21.81 C 86.61 21.81 88.23 17.89 88.23 17.89 C 88.23 17.89 89.28 17.89 89.28 17.89 Z M 97.26 17.89 C 97.26 17.89 97.02 18.57 97.02 18.57 C 97.02 18.57 94.32 18.57 94.32 18.57 C 94.32 18.57 93.96 19.44 93.96 19.44 C 93.96 19.44 96.44 19.44 96.44 19.44 C 96.44 19.44 96.16 20.12 96.16 20.12 C 96.16 20.12 93.68 20.12 93.68 20.12 C 93.68 20.12 93.27 21.13 93.27 21.13 C 93.27 21.13 96.08 21.13 96.08 21.13 C 96.08 21.13 95.81 21.81 95.81 21.81 C 95.81 21.81 91.95 21.81 91.95 21.81 C 91.95 21.81 93.55 17.89 93.55 17.89 C 93.55 17.89 97.26 17.89 97.26 17.89 Z M 98.84 20.64 C 98.75 20.77 98.78 20.91 98.89 21.04 C 99.03 21.24 99.33 21.29 99.77 21.26 C 99.77 21.26 100.65 21.1 100.65 21.1 C 100.65 21.1 100.99 20.8 100.99 20.8 C 101.07 20.66 101.04 20.53 100.96 20.45 C 100.87 20.34 100.6 20.26 100.16 20.2 C 100.16 20.2 99.11 20.01 99.11 20.01 C 98.48 19.82 98.31 19.44 98.62 18.92 C 99.03 18.19 99.83 17.83 101.01 17.83 C 101.81 17.83 102.33 17.99 102.53 18.32 C 102.69 18.57 102.69 18.81 102.53 19.08 C 102.53 19.08 101.54 19.08 101.54 19.08 C 101.73 18.68 101.45 18.49 100.71 18.46 C 100.13 18.46 99.75 18.62 99.58 18.92 C 99.5 19.11 99.55 19.25 99.77 19.3 C 99.77 19.3 100.96 19.55 100.96 19.55 C 101.48 19.63 101.84 19.74 102 19.93 C 102.2 20.17 102.2 20.47 101.95 20.85 C 101.7 21.21 101.4 21.48 100.99 21.64 C 100.57 21.83 99.99 21.94 99.25 21.94 C 98.73 21.94 98.37 21.83 98.12 21.64 C 97.76 21.43 97.65 21.1 97.79 20.64 C 97.79 20.64 98.84 20.64 98.84 20.64 Z M 108.48 12.06 C 108.89 12.06 109.25 12.22 109.55 12.52 C 109.86 12.82 109.99 13.18 109.99 13.59 C 109.99 13.99 109.86 14.35 109.55 14.65 C 109.25 14.95 108.89 15.08 108.48 15.08 C 108.04 15.08 107.68 14.95 107.38 14.65 C 107.07 14.35 106.93 13.99 106.93 13.59 C 106.93 13.18 107.07 12.82 107.38 12.52 C 107.68 12.22 108.04 12.06 108.48 12.06 Z M 107.57 14.43 C 107.82 14.67 108.12 14.81 108.48 14.81 C 108.81 14.81 109.11 14.67 109.36 14.43 C 109.58 14.18 109.69 13.91 109.69 13.59 C 109.69 13.23 109.58 12.96 109.36 12.71 C 109.11 12.47 108.81 12.33 108.48 12.33 C 108.12 12.33 107.82 12.47 107.57 12.71 C 107.32 12.96 107.21 13.23 107.21 13.59 C 107.21 13.91 107.32 14.18 107.57 14.43 Z M 109.08 12.85 C 109.24 12.9 109.28 13.07 109.28 13.26 C 109.28 13.56 109.11 13.69 108.81 13.72 C 108.81 13.72 109.22 14.37 109.22 14.37 C 109.22 14.37 108.84 14.37 108.84 14.37 C 108.84 14.37 108.48 13.72 108.48 13.72 C 108.48 13.72 108.15 13.72 108.15 13.72 C 108.15 13.72 108.15 14.37 108.15 14.37 C 108.15 14.37 107.84 14.37 107.84 14.37 C 107.84 14.37 107.84 12.77 107.84 12.77 C 107.84 12.77 108.66 12.77 108.66 12.77 C 108.78 12.77 108.94 12.8 109.08 12.85 Z M 108.15 13.01 C 108.15 13.01 108.15 13.48 108.15 13.48 C 108.15 13.48 108.64 13.48 108.64 13.48 C 108.84 13.48 108.95 13.39 108.95 13.23 C 108.95 13.09 108.81 13.01 108.56 13.01 C 108.56 13.01 108.15 13.01 108.15 13.01 Z" />
</svg>