<svg xmlns="http://www.w3.org/2000/svg" preserveAspectRatio="xMidYMid" width="67" height="58" viewBox="0 0 67 58"><defs><style>.cls-2{fill:#c5c5c5}</style></defs><path d="M65.317 34.476L31.254 45.849a7.327 7.327 0 0 1-4.155.147L1.853 39.505C.799 39.233.046 38.327 0 37.271c-.048-1.057.62-2.023 1.646-2.381l4.405-1.542 19.89 5.116c.977.25 1.981.378 2.987.378 1.295 0 2.572-.208 3.797-.618l27.979-9.34 4.348.946c1.088.237 1.882 1.145 1.944 2.226.062 1.081-.624 2.07-1.679 2.42zm0-11.769L31.254 34.079a7.371 7.371 0 0 1-4.155.146L1.853 27.734C.799 27.463.046 26.558 0 25.501c-.048-1.058.62-2.023 1.646-2.382l4.405-1.54 19.89 5.113a12.02 12.02 0 0 0 6.784-.238l27.979-9.342 4.348.946c1.088.239 1.882 1.148 1.944 2.227.062 1.082-.624 2.071-1.679 2.422zm0-11.772L31.254 22.309a7.379 7.379 0 0 1-4.154.145L1.851 15.963C.797 15.69.046 14.787 0 13.728c-.048-1.056.62-2.021 1.646-2.38L32.937.407a7.334 7.334 0 0 1 3.986-.241l28.129 6.121c1.088.237 1.883 1.147 1.944 2.228.062 1.079-.624 2.069-1.679 2.42zM1.646 46.66l4.405-1.539 19.89 5.113a11.994 11.994 0 0 0 6.784-.239l27.98-9.341 4.347.946c1.088.238 1.883 1.146 1.944 2.227.062 1.08-.624 2.069-1.679 2.421L31.254 57.62a7.353 7.353 0 0 1-4.154.148L1.851 51.276C.797 51.003.046 50.1 0 49.041c-.048-1.057.62-2.022 1.646-2.381z" id="path-1" class="cls-2" fill-rule="evenodd"/></svg>