<?xml version="1.0" encoding="utf-8"?>
<!-- Generator: Avocode 2.6.0 - http://avocode.com -->
<svg height="46" width="89" xmlns:xlink="http://www.w3.org/1999/xlink" xmlns="http://www.w3.org/2000/svg" viewBox="0 0 89 46">
    <path fill="#171717" fill-rule="evenodd" d="M 87.18 32.18 C 86.69 32.18 86.29 31.79 86.29 31.29 C 86.29 30.81 86.69 30.41 87.18 30.41 C 87.67 30.41 88.06 30.81 88.06 31.29 C 88.06 31.79 87.67 32.18 87.18 32.18 Z M 87.18 30.58 C 86.78 30.58 86.46 30.9 86.46 31.29 C 86.46 31.7 86.78 32.01 87.18 32.01 C 87.57 32.01 87.89 31.7 87.89 31.29 C 87.89 30.9 87.57 30.58 87.18 30.58 Z M 87.31 31.32 C 87.31 31.32 87.58 31.74 87.58 31.74 C 87.58 31.74 87.42 31.74 87.42 31.74 C 87.42 31.74 87.17 31.32 87.17 31.32 C 87.17 31.32 87.01 31.32 87.01 31.32 C 87.01 31.32 87.01 31.74 87.01 31.74 C 87.01 31.74 86.88 31.74 86.88 31.74 C 86.88 31.74 86.88 30.84 86.88 30.84 C 86.88 30.84 87.27 30.84 87.27 30.84 C 87.34 30.84 87.42 30.84 87.49 30.88 C 87.55 30.92 87.59 31 87.59 31.08 C 87.59 31.25 87.46 31.32 87.31 31.32 Z M 87.24 30.94 C 87.24 30.94 87.01 30.94 87.01 30.94 C 87.01 30.94 87.01 31.21 87.01 31.21 C 87.01 31.21 87.16 31.21 87.16 31.21 C 87.28 31.21 87.45 31.24 87.45 31.07 C 87.45 30.96 87.36 30.94 87.24 30.94 Z M 83.15 36.78 C 85.45 38.32 86.16 39.44 86.16 41.36 C 86.16 44.19 84.2 45.93 81.3 45.93 C 79.27 45.93 78.08 45.29 77.44 45.29 C 77.44 45.29 77.44 41.96 77.44 41.96 C 77.44 41.96 77.77 41.96 77.77 41.96 C 78.06 43.41 79.55 44.41 81.14 44.41 C 82.49 44.41 83.56 43.69 83.56 42.27 C 83.56 41.29 83.08 40.44 81.85 39.58 C 81.85 39.58 80.12 38.39 80.12 38.39 C 78.63 37.37 77.37 36.21 77.37 34.11 C 77.37 31.64 79.03 30.05 81.78 30.05 C 83.41 30.05 84.1 30.43 85.05 30.53 C 85.05 30.53 85.05 33.4 85.05 33.4 C 85.05 33.4 84.72 33.4 84.72 33.4 C 84.5 32.31 83.37 31.43 81.85 31.43 C 80.43 31.43 79.79 32.21 79.79 33.26 C 79.79 34.16 80.33 34.87 81.66 35.78 C 81.66 35.78 83.15 36.78 83.15 36.78 Z M 73.41 36.78 C 75.71 38.32 76.42 39.44 76.42 41.36 C 76.42 44.19 74.46 45.93 71.57 45.93 C 69.53 45.93 68.34 45.29 67.7 45.29 C 67.7 45.29 67.7 41.96 67.7 41.96 C 67.7 41.96 68.04 41.96 68.04 41.96 C 68.32 43.41 69.81 44.41 71.4 44.41 C 72.75 44.41 73.82 43.69 73.82 42.27 C 73.82 41.29 73.34 40.44 72.11 39.58 C 72.11 39.58 70.38 38.39 70.38 38.39 C 68.89 37.37 67.63 36.21 67.63 34.11 C 67.63 31.64 69.29 30.05 72.04 30.05 C 73.67 30.05 74.36 30.43 75.31 30.53 C 75.31 30.53 75.31 33.4 75.31 33.4 C 75.31 33.4 74.98 33.4 74.98 33.4 C 74.76 32.31 73.63 31.43 72.11 31.43 C 70.69 31.43 70.05 32.21 70.05 33.26 C 70.05 34.16 70.59 34.87 71.92 35.78 C 71.92 35.78 73.41 36.78 73.41 36.78 Z M 58.3 45.38 C 58.41 45.26 58.44 44.64 58.44 44.31 C 58.44 44.31 58.44 32.19 58.44 32.19 C 58.44 31.19 58.11 30.67 57.75 30.6 C 57.75 30.6 57.75 30.29 57.75 30.29 C 57.75 30.29 66.07 30.29 66.07 30.29 C 66.07 30.29 66.07 32.38 66.07 32.38 C 66.07 32.38 65.76 32.38 65.76 32.38 C 65.69 32.02 64.98 31.78 64.53 31.78 C 64.53 31.78 61.38 31.78 61.38 31.78 C 61.38 31.78 61.38 37.06 61.38 37.06 C 61.38 37.06 64.03 37.06 64.03 37.06 C 64.39 37.06 65.22 36.97 65.31 36.73 C 65.31 36.73 65.62 36.73 65.62 36.73 C 65.62 36.73 65.62 38.73 65.62 38.73 C 65.62 38.73 65.31 38.73 65.31 38.73 C 65.19 38.61 64.53 38.56 64.13 38.56 C 64.13 38.56 61.38 38.56 61.38 38.56 C 61.38 38.56 61.38 44.19 61.38 44.19 C 61.38 44.19 64.51 44.19 64.51 44.19 C 65.36 44.19 65.88 43.86 65.98 43.48 C 65.98 43.48 66.28 43.48 66.28 43.48 C 66.28 43.48 66.28 45.69 66.28 45.69 C 66.28 45.69 58.3 45.69 58.3 45.69 C 58.3 45.69 58.3 45.38 58.3 45.38 Z M 56.38 24.68 C 56.38 24.68 56.38 24.5 56.38 24.5 C 56.95 24.52 57.28 24.18 57.29 23.62 C 57.24 23.71 57.08 23.79 56.92 23.81 C 56.49 23.86 56.23 23.64 56.19 23.25 C 56.16 22.83 56.43 22.47 56.84 22.44 C 57.38 22.39 57.67 22.74 57.69 23.32 C 57.73 24.33 57.11 24.77 56.38 24.68 Z M 56.91 22.61 C 56.63 22.61 56.61 22.97 56.61 23.12 C 56.61 23.4 56.68 23.6 56.91 23.6 C 57.22 23.6 57.22 23.22 57.22 23.09 C 57.22 22.94 57.17 22.61 56.91 22.61 Z M 46.1 31.78 C 45.83 31.31 45.34 30.67 44.89 30.6 C 44.89 30.6 44.89 30.29 44.89 30.29 C 44.89 30.29 48.68 30.29 48.68 30.29 C 48.68 30.29 54.15 40.13 54.15 40.13 C 54.15 40.13 54.15 32.19 54.15 32.19 C 54.15 31.19 53.89 30.67 53.56 30.6 C 53.56 30.6 53.56 30.29 53.56 30.29 C 53.56 30.29 55.81 30.29 55.81 30.29 C 55.81 30.29 55.81 45.69 55.81 45.69 C 55.81 45.69 53.94 45.69 53.94 45.69 C 53.94 45.69 46.1 31.78 46.1 31.78 Z M 55.17 23.91 C 55.17 24.35 54.84 24.69 54.3 24.69 C 54.14 24.69 53.97 24.67 53.83 24.6 C 53.83 24.6 53.84 24.42 53.84 24.42 C 53.97 24.46 54.12 24.5 54.29 24.48 C 54.55 24.45 54.75 24.24 54.75 23.96 C 54.75 23.66 54.55 23.49 54.25 23.49 C 54.13 23.49 54.01 23.51 53.89 23.55 C 53.89 23.55 53.97 22.47 53.97 22.47 C 53.97 22.47 55.08 22.47 55.08 22.47 C 55.08 22.47 55.08 22.76 55.08 22.76 C 55.02 22.74 54.95 22.73 54.85 22.73 C 54.85 22.73 54.31 22.73 54.31 22.73 C 54.31 22.73 54.28 23.28 54.28 23.28 C 54.37 23.27 54.44 23.26 54.55 23.26 C 54.93 23.28 55.17 23.55 55.17 23.91 Z M 54.85 6 C 54.85 6 54.82 6 54.82 6 C 54.82 6 54.57 6.97 54.57 6.97 C 54.57 6.97 54.41 6.97 54.41 6.97 C 54.41 6.97 54.16 6 54.16 6 C 54.16 6 54.16 6.97 54.16 6.97 C 54.16 6.97 53.96 6.97 53.96 6.97 C 53.96 6.97 53.96 5.75 53.96 5.75 C 53.96 5.75 54.26 5.75 54.26 5.75 C 54.26 5.75 54.49 6.61 54.49 6.61 C 54.49 6.61 54.72 5.75 54.72 5.75 C 54.72 5.75 55.02 5.75 55.02 5.75 C 55.02 5.75 55.02 6.97 55.02 6.97 C 55.02 6.97 54.85 6.97 54.85 6.97 C 54.85 6.97 54.85 6 54.85 6 Z M 53.5 6.97 C 53.5 6.97 53.27 6.97 53.27 6.97 C 53.27 6.97 53.27 5.95 53.27 5.95 C 53.27 5.95 52.97 5.95 52.97 5.95 C 52.97 5.95 52.97 5.75 52.97 5.75 C 52.97 5.75 53.8 5.75 53.8 5.75 C 53.8 5.75 53.8 5.95 53.8 5.95 C 53.8 5.95 53.5 5.95 53.5 5.95 C 53.5 5.95 53.5 6.97 53.5 6.97 Z M 46.98 6.04 C 45.55 5.97 44.26 5.61 42.47 4.81 C 41.28 4.28 40.27 3.71 39.49 3.29 C 39.48 3.33 39.34 3.99 38.96 4.84 C 38.58 5.68 38.17 6.23 38.15 6.25 C 38.33 6.65 38.53 7.1 38.75 7.59 C 38.76 7.54 38.95 6.7 39.44 5.63 C 39.92 4.54 40.43 3.85 40.46 3.82 C 40.45 3.86 40.27 4.7 39.77 5.78 C 39.29 6.86 38.78 7.55 38.75 7.59 C 38.96 8.04 39.17 8.51 39.39 9 C 39.4 8.95 39.64 7.92 40.25 6.6 C 40.84 5.26 41.46 4.4 41.49 4.36 C 41.48 4.41 41.25 5.45 40.63 6.77 C 40.04 8.1 39.43 8.96 39.39 9.01 C 39.62 9.49 39.84 10 40.08 10.51 C 40.09 10.45 40.37 9.2 41.11 7.59 C 41.83 5.97 42.59 4.93 42.62 4.88 C 42.61 4.94 42.33 6.2 41.59 7.81 C 40.87 9.42 40.12 10.46 40.08 10.51 C 40.32 11.05 40.57 11.59 40.81 12.14 C 40.83 12.05 41.18 10.56 42.06 8.63 C 42.93 6.69 43.83 5.44 43.87 5.38 C 43.86 5.45 43.51 6.96 42.62 8.89 C 41.76 10.82 40.86 12.07 40.81 12.14 C 41.08 12.73 41.35 13.31 41.6 13.88 C 41.62 13.78 42.04 11.99 43.1 9.69 C 44.14 7.37 45.21 5.87 45.26 5.8 C 45.25 5.89 44.83 7.68 43.76 9.99 C 42.73 12.31 41.66 13.8 41.6 13.88 C 41.9 14.55 42.2 15.19 42.46 15.77 C 42.49 15.66 43 13.5 44.28 10.73 C 45.52 7.93 46.8 6.12 46.87 6.04 C 46.85 6.14 46.34 8.3 45.06 11.08 C 43.81 13.88 42.53 15.68 42.46 15.78 C 42.82 16.57 43.14 17.28 43.39 17.82 C 43.42 17.68 44.08 15.07 45.63 11.68 C 47.15 8.26 48.69 6.04 48.76 5.94 C 48.74 6.06 48.08 8.69 46.52 12.08 C 45 15.49 43.47 17.71 43.39 17.82 C 43.73 18.56 43.93 19.01 43.93 19.01 C 44.11 19.42 44.41 19.68 44.75 19.73 C 44.14 20.62 42.15 22.6 41.7 22.91 C 41.7 22.91 35.84 6.72 35.84 6.72 C 35.56 6.84 35.23 6.92 34.9 6.92 C 33.47 6.92 32.38 5.82 32.38 4.22 C 32.38 2.26 34.06 0.4 37.33 0.4 C 38.58 0.4 40.07 0.68 41.77 1.32 C 46.14 2.97 49.77 2.24 52.1 0.4 C 52.1 0.4 53.42 3.84 53.42 3.84 C 52.04 5.15 49.38 6.16 46.98 6.04 Z M 34.82 3.61 C 34.31 3.61 33.88 4.04 33.88 4.55 C 33.88 5.06 34.31 5.49 34.82 5.49 C 35.33 5.49 35.76 5.06 35.76 4.55 C 35.76 4.04 35.33 3.61 34.82 3.61 Z M 38.61 2.86 C 37.76 2.52 36.75 2.48 36.14 2.7 C 36.65 2.97 36.97 3.6 37.36 4.49 C 37.42 4.65 37.72 5.31 38.15 6.25 C 38.15 6.22 38.29 5.55 38.68 4.71 C 39.06 3.86 39.46 3.32 39.49 3.29 C 39.15 3.11 38.85 2.96 38.61 2.86 Z M 31.9 22.63 C 31.68 22.63 31.52 22.75 31.5 22.92 C 31.49 23 31.52 23.09 31.59 23.16 C 31.65 23.22 31.75 23.27 31.9 23.34 C 32.3 23.51 32.46 23.7 32.46 24.03 C 32.46 24.36 32.23 24.69 31.7 24.69 C 31.47 24.69 31.26 24.62 31.14 24.52 C 31.14 24.52 31.14 24.31 31.14 24.31 C 31.3 24.41 31.47 24.49 31.7 24.47 C 31.89 24.46 32.06 24.34 32.07 24.14 C 32.08 23.95 31.96 23.85 31.7 23.72 C 31.29 23.54 31.13 23.39 31.14 23.06 C 31.14 22.72 31.41 22.43 31.83 22.42 C 32.01 22.42 32.2 22.46 32.32 22.53 C 32.32 22.53 32.32 22.76 32.32 22.76 C 32.21 22.69 32.07 22.63 31.9 22.63 Z M 31.14 45.69 C 31.14 45.69 27.8 45.69 27.8 45.69 C 27.8 45.69 27.8 45.38 27.8 45.38 C 27.89 45.31 27.97 44.64 27.97 44.24 C 27.97 44.24 27.97 32.19 27.97 32.19 C 27.97 31.19 27.63 30.67 27.28 30.6 C 27.28 30.6 27.28 30.29 27.28 30.29 C 27.28 30.29 30.88 30.29 30.88 30.29 C 30.88 30.29 30.88 43.98 30.88 43.98 C 30.88 44.86 31.04 45.36 31.14 45.38 C 31.14 45.38 31.14 45.69 31.14 45.69 Z M 29.08 24.28 C 29.08 24.28 29.08 22.78 29.08 22.78 C 29.08 22.65 29.08 22.6 29.06 22.48 C 29.06 22.48 30.25 22.48 30.25 22.48 C 30.25 22.48 30.25 22.76 30.25 22.76 C 30.19 22.74 30.09 22.73 29.99 22.73 C 29.99 22.73 29.52 22.73 29.52 22.73 C 29.52 22.73 29.52 23.39 29.52 23.39 C 29.52 23.39 29.87 23.39 29.87 23.39 C 29.92 23.39 30.01 23.39 30.1 23.37 C 30.1 23.37 30.1 23.66 30.1 23.66 C 30.02 23.65 29.92 23.65 29.87 23.65 C 29.87 23.65 29.52 23.65 29.52 23.65 C 29.52 23.65 29.52 24.39 29.52 24.39 C 29.52 24.39 30.07 24.39 30.07 24.39 C 30.18 24.39 30.23 24.37 30.3 24.35 C 30.3 24.35 30.3 24.64 30.3 24.64 C 30.3 24.64 29.06 24.64 29.06 24.64 C 29.08 24.51 29.08 24.39 29.08 24.28 Z M 20.55 45.93 C 16.95 45.93 15.43 43.91 15.43 40.82 C 15.43 40.82 15.43 32.19 15.43 32.19 C 15.43 31.19 15.1 30.67 14.74 30.6 C 14.74 30.6 14.74 30.29 14.74 30.29 C 14.74 30.29 18.39 30.29 18.39 30.29 C 18.39 30.29 18.39 40.89 18.39 40.89 C 18.39 41.91 18.51 42.46 18.72 42.89 C 19.2 43.81 20.05 44.1 20.98 44.1 C 21.95 44.1 22.87 43.81 23.34 42.89 C 23.56 42.46 23.68 41.91 23.68 40.77 C 23.68 40.77 23.68 32.19 23.68 32.19 C 23.68 31.19 23.34 30.67 22.99 30.6 C 22.99 30.6 22.99 30.29 22.99 30.29 C 22.99 30.29 25.43 30.29 25.43 30.29 C 25.43 30.29 25.43 40.56 25.43 40.56 C 25.43 41.77 25.33 42.43 25.14 43.03 C 24.58 44.95 23.04 45.93 20.55 45.93 Z M 13.06 45.22 C 12.89 45.29 10.81 45.98 8.06 45.98 C 3.77 45.98 0.15 42.86 0.15 36.35 C 0.15 30.72 3.32 26.98 7.92 26.98 C 10.17 26.98 11.24 27.55 11.9 27.55 C 11.99 27.55 12.04 27.53 12.07 27.51 C 12.07 27.51 12.3 27.51 12.3 27.51 C 12.3 27.51 12.3 31.33 12.3 31.33 C 12.3 31.33 11.92 31.33 11.92 31.33 C 11.47 29.38 9.98 28.53 8.32 28.53 C 5.62 28.53 3.42 30.79 3.42 36.23 C 3.42 42.05 5.86 44.36 8.42 44.36 C 9.15 44.36 9.67 44.26 10 44.12 C 10 44.12 10 38.56 10 38.56 C 10 37.75 9.79 36.73 8.91 36.54 C 8.91 36.54 8.91 36.21 8.91 36.21 C 8.91 36.21 13.23 36.21 13.23 36.21 C 13.23 36.21 13.23 36.52 13.23 36.52 C 13.11 36.59 13.06 37.68 13.06 38.16 C 13.06 38.16 13.06 45.22 13.06 45.22 Z M 33.35 22.76 C 33.27 22.76 33.2 22.76 33.12 22.78 C 33.12 22.78 33.12 22.48 33.12 22.48 C 33.12 22.48 34.72 22.48 34.72 22.48 C 34.72 22.48 34.72 22.78 34.72 22.78 C 34.64 22.76 34.57 22.76 34.49 22.76 C 34.49 22.76 34.13 22.76 34.13 22.76 C 34.13 22.76 34.13 24.28 34.13 24.28 C 34.13 24.39 34.13 24.51 34.16 24.64 C 34.16 24.64 33.68 24.64 33.68 24.64 C 33.7 24.51 33.7 24.39 33.7 24.28 C 33.7 24.28 33.7 22.76 33.7 22.76 C 33.7 22.76 33.35 22.76 33.35 22.76 Z M 41.68 40.13 C 41.68 40.13 41.68 32.19 41.68 32.19 C 41.68 31.19 41.42 30.67 41.09 30.6 C 41.09 30.6 41.09 30.29 41.09 30.29 C 41.09 30.29 43.34 30.29 43.34 30.29 C 43.34 30.29 43.34 45.69 43.34 45.69 C 43.34 45.69 41.47 45.69 41.47 45.69 C 41.47 45.69 33.63 31.78 33.63 31.78 C 33.37 31.31 32.87 30.67 32.42 30.6 C 32.42 30.6 32.42 30.29 32.42 30.29 C 32.42 30.29 36.21 30.29 36.21 30.29 C 36.21 30.29 41.68 40.13 41.68 40.13 Z M 33.46 33.57 C 33.46 33.57 35.12 36.63 35.12 36.63 C 35.12 36.63 35.12 44.12 35.12 44.12 C 35.12 44.72 35.24 45.31 35.36 45.38 C 35.36 45.38 35.36 45.69 35.36 45.69 C 35.36 45.69 33.32 45.69 33.32 45.69 C 33.32 45.69 33.32 45.38 33.32 45.38 C 33.44 45.26 33.46 44.36 33.46 44.19 C 33.46 44.19 33.46 33.57 33.46 33.57 Z M 36.44 24.39 C 36.44 24.39 36.44 24.66 36.44 24.66 C 36.4 24.64 36.34 24.64 36.29 24.64 C 36.29 24.64 36.04 24.64 36.04 24.64 C 35.99 24.64 35.93 24.64 35.88 24.66 C 35.88 24.66 35.88 24.39 35.88 24.39 C 35.93 24.41 35.99 24.41 36.04 24.41 C 36.04 24.41 36.29 24.41 36.29 24.41 C 36.34 24.41 36.39 24.4 36.44 24.39 Z M 35.61 23.85 C 35.61 23.85 35.61 22.6 35.61 22.6 C 35.61 22.58 35.61 22.53 35.58 22.48 C 35.58 22.48 36.14 22.48 36.14 22.48 C 36.65 22.48 36.95 22.65 36.95 23.19 C 36.95 23.65 36.65 23.98 36.22 23.98 C 36.22 23.98 35.58 23.98 35.58 23.98 C 35.61 23.93 35.61 23.88 35.61 23.85 Z M 35.96 23.78 C 35.96 23.78 36.11 23.78 36.11 23.78 C 36.39 23.78 36.57 23.61 36.57 23.18 C 36.57 22.83 36.39 22.67 36.16 22.67 C 36.16 22.67 35.96 22.67 35.96 22.67 C 35.96 22.67 35.96 23.78 35.96 23.78 Z M 51.56 22.76 C 51.56 22.76 51.56 22.47 51.56 22.47 C 51.56 22.47 52.97 22.47 52.97 22.47 C 52.97 22.47 51.98 24.64 51.98 24.64 C 51.98 24.64 51.53 24.64 51.53 24.64 C 51.53 24.64 52.45 22.73 52.45 22.73 C 52.45 22.73 51.79 22.73 51.79 22.73 C 51.68 22.73 51.62 22.74 51.56 22.76 Z M 40.15 25.86 C 40.15 25.86 34.97 8.27 34.97 8.27 C 34.92 8.09 34.82 7.76 34.82 7.61 C 34.82 7.4 34.97 7.28 35.17 7.28 C 35.33 7.28 35.45 7.35 35.5 7.51 C 35.5 7.51 41.06 24.54 41.06 24.54 C 47 19.73 50.18 13.77 49.62 6.41 C 50.43 6.23 51.47 5.85 52.08 5.49 C 53.47 13.34 50.86 20.51 44.52 25.86 C 44.52 25.86 40.15 25.86 40.15 25.86 Z M 49.75 22.62 C 49.75 22.62 50.32 22.42 50.32 22.42 C 50.32 22.42 50.32 24.28 50.32 24.28 C 50.32 24.38 50.32 24.51 50.35 24.64 C 50.35 24.64 49.9 24.64 49.9 24.64 C 49.92 24.51 49.92 24.38 49.92 24.28 C 49.92 24.28 49.92 22.95 49.92 22.95 C 49.92 22.82 49.87 22.7 49.75 22.62 Z M 45.93 33.57 C 45.93 33.57 47.59 36.63 47.59 36.63 C 47.59 36.63 47.59 44.12 47.59 44.12 C 47.59 44.72 47.71 45.31 47.82 45.38 C 47.82 45.38 47.82 45.69 47.82 45.69 C 47.82 45.69 45.79 45.69 45.79 45.69 C 45.79 45.69 45.79 45.38 45.79 45.38 C 45.9 45.26 45.93 44.36 45.93 44.19 C 45.93 44.19 45.93 33.57 45.93 33.57 Z" />
</svg>