<svg xmlns="http://www.w3.org/2000/svg" xmlns:xlink="http://www.w3.org/1999/xlink" preserveAspectRatio="xMidYMid" width="123.124" height="65.625" viewBox="0 0 123.124 65.625">
  <defs>
    <style>
      .cls-1 {
        fill: #171717;
        fill-rule: evenodd;
      }
    </style>
  </defs>
  <path d="M104.751,56.278 C91.850,63.017 75.962,65.635 61.555,65.635 C47.145,65.635 31.263,63.010 18.358,56.278 C9.534,51.667 -0.006,43.799 -0.006,32.815 C-0.006,21.828 9.534,13.964 18.358,9.357 C31.263,2.617 47.145,-0.009 61.555,-0.009 C75.962,-0.009 91.848,2.615 104.751,9.357 C113.580,13.964 123.121,21.828 123.121,32.815 C123.121,43.799 113.580,51.667 104.751,56.278 ZM103.199,12.393 C92.115,6.602 77.334,3.418 61.562,3.418 C45.797,3.418 31.002,6.602 19.912,12.393 C9.254,17.962 3.377,25.210 3.377,32.815 C3.377,40.416 9.254,47.670 19.912,53.239 C20.604,53.600 21.312,53.950 22.032,54.292 L22.035,54.294 C32.853,59.412 46.773,62.216 61.555,62.216 C77.325,62.216 92.115,59.028 103.199,53.239 C112.530,48.367 118.193,42.204 119.465,35.647 C119.578,35.061 119.655,34.473 119.698,33.878 C119.705,33.761 119.715,33.643 119.719,33.525 C119.730,33.289 119.736,33.053 119.736,32.815 C119.736,25.210 113.863,17.962 103.199,12.393 ZM61.555,60.168 C48.043,60.168 32.975,57.746 20.866,51.425 C20.440,51.205 20.008,50.970 19.572,50.725 C19.352,50.602 19.131,50.479 18.913,50.350 C18.711,50.234 18.512,50.118 18.311,49.997 C18.115,49.879 17.919,49.761 17.724,49.641 C17.531,49.521 17.334,49.397 17.139,49.274 L17.136,49.274 C11.280,45.533 5.435,39.935 5.435,32.832 C5.435,24.195 14.065,17.794 20.866,14.243 C32.975,7.920 48.040,5.494 61.555,5.494 C75.068,5.494 90.138,7.913 102.249,14.243 C107.738,17.109 114.425,21.834 116.799,28.094 C116.876,28.298 116.947,28.501 117.014,28.709 C117.084,28.924 117.150,29.142 117.209,29.363 C117.239,29.471 117.267,29.584 117.296,29.693 C117.452,30.326 117.563,30.978 117.621,31.643 C117.636,31.769 117.645,31.899 117.652,32.028 C117.670,32.295 117.678,32.562 117.678,32.832 C117.678,41.465 109.049,47.871 102.249,51.425 C90.138,57.749 75.066,60.168 61.555,60.168 ZM61.555,6.860 C31.307,6.860 6.625,19.238 6.625,32.832 C6.625,46.368 31.307,58.802 61.555,58.802 C91.803,58.802 116.485,46.368 116.485,32.832 C116.485,19.238 91.803,6.860 61.555,6.860 ZM97.705,41.861 C97.154,42.363 96.597,42.680 95.493,42.864 L97.396,48.092 L93.347,48.092 L91.826,42.979 L90.463,42.979 L88.739,48.092 L84.706,48.092 L89.118,35.211 C89.351,34.529 89.365,34.210 89.095,33.945 L88.840,33.694 L88.966,33.310 L95.279,33.310 C97.527,33.310 98.712,33.945 99.275,34.794 C99.681,35.411 100.067,36.614 99.430,38.719 C98.997,40.172 98.470,41.159 97.705,41.861 ZM94.932,36.683 L92.602,36.683 L91.560,39.738 L93.487,39.738 C93.980,39.738 94.491,39.707 94.741,39.605 C95.098,39.456 95.377,39.305 95.628,38.671 C95.801,38.221 95.924,37.736 95.918,37.466 C95.913,37.049 95.625,36.683 94.932,36.683 ZM83.708,28.037 L84.180,26.776 L91.838,24.149 L85.096,24.149 L86.362,20.630 L96.095,20.630 L94.746,24.370 L83.708,28.037 ZM73.753,30.111 L67.309,30.111 L71.674,17.230 C71.909,16.548 71.918,16.230 71.648,15.964 L71.397,15.713 L71.520,15.329 L77.372,15.329 C80.743,15.329 82.346,16.966 82.391,19.471 C82.439,21.926 80.970,26.387 79.367,28.105 C78.089,29.494 76.513,30.111 73.753,30.111 ZM76.779,18.836 L75.212,18.836 L72.568,26.585 L73.869,26.585 C75.257,26.585 75.864,26.367 76.316,25.883 C76.884,25.267 77.282,24.433 77.782,22.979 C78.346,21.357 78.496,20.605 78.488,20.055 C78.470,19.202 77.868,18.836 76.779,18.836 ZM61.199,30.104 L59.326,20.538 L56.129,30.104 L52.461,30.104 L56.819,17.230 C57.053,16.548 57.064,16.230 56.792,15.964 L56.541,15.713 L56.667,15.329 L61.840,15.329 L63.364,23.362 L66.035,15.329 L69.870,15.324 L64.869,30.104 L61.199,30.104 ZM47.587,26.836 L43.193,26.836 L41.354,30.104 L37.105,30.104 L44.000,18.435 C45.122,16.629 45.248,16.197 44.945,15.894 L44.759,15.713 L44.883,15.329 L50.650,15.329 L51.485,30.104 L47.631,30.104 L47.587,26.836 ZM47.458,19.414 L47.325,19.414 L44.832,23.879 L47.527,23.879 L47.458,19.414 ZM36.025,30.109 L26.044,30.111 L30.408,17.230 C30.645,16.548 30.653,16.230 30.384,15.964 L30.133,15.713 L30.254,15.329 L35.262,15.329 L31.431,26.585 L37.231,26.585 L36.025,30.109 ZM30.561,36.476 L22.903,39.100 L29.644,39.100 L28.379,42.623 L18.646,42.623 L19.998,38.882 L31.035,35.215 L30.561,36.476 ZM35.035,33.945 L34.783,33.694 L34.910,33.310 L41.221,33.310 C43.468,33.310 44.656,33.945 45.216,34.794 C45.625,35.411 46.011,36.614 45.372,38.719 C44.936,40.172 44.413,41.159 43.648,41.861 C43.097,42.363 42.541,42.680 41.436,42.864 L43.336,48.092 L39.289,48.092 L37.770,42.979 L36.405,42.975 L34.683,48.092 L30.650,48.092 L35.060,35.211 C35.296,34.529 35.308,34.210 35.035,33.945 ZM39.421,39.738 C39.922,39.738 40.435,39.707 40.681,39.605 C41.042,39.456 41.321,39.305 41.571,38.671 C41.745,38.221 41.868,37.736 41.862,37.466 C41.855,37.049 41.566,36.683 40.872,36.683 L38.544,36.683 L37.497,39.738 L39.421,39.738 ZM54.769,33.126 L55.232,33.126 C58.604,33.126 60.207,34.864 60.237,37.368 C60.268,39.822 58.787,44.466 57.184,46.186 C55.888,47.574 54.313,48.323 51.557,48.323 L51.060,48.323 C47.689,48.323 46.085,46.589 46.055,44.083 C46.025,41.627 47.539,36.983 49.143,35.263 C50.437,33.876 52.008,33.126 54.769,33.126 ZM51.537,44.803 C52.927,44.803 53.531,44.447 53.985,43.964 C54.570,43.348 54.963,42.413 55.463,40.960 C56.044,39.338 56.193,38.504 56.185,37.951 C56.185,37.101 55.579,36.647 54.488,36.647 C53.100,36.647 52.495,36.999 52.044,37.485 C51.461,38.101 51.066,39.037 50.563,40.491 C49.983,42.111 49.833,42.945 49.842,43.498 C49.842,44.348 50.447,44.803 51.537,44.803 ZM65.664,33.310 L65.932,43.931 L66.047,43.931 L71.397,33.310 L75.562,33.310 L67.513,48.092 L62.523,48.092 L61.916,35.196 C61.867,34.460 61.766,34.191 61.396,33.927 L61.012,33.694 L61.185,33.310 L65.664,33.310 ZM76.907,33.984 L76.653,33.733 L76.800,33.300 L87.312,33.300 L86.089,36.711 L80.519,36.711 L79.723,39.072 L84.862,39.072 L83.747,42.162 L78.672,42.162 L77.829,44.650 L83.563,44.650 L82.374,48.088 L72.553,48.088 L76.930,35.254 C77.165,34.568 77.177,34.250 76.907,33.984 Z" class="cls-1"/>
</svg>
