<?xml version="1.0" encoding="utf-8"?>
<!-- Generator: Avocode 2.5.3 - http://avocode.com -->
<svg height="26" width="40" xmlns:xlink="http://www.w3.org/1999/xlink" xmlns="http://www.w3.org/2000/svg" viewBox="0 0 40 26">
    <path fill="#97743a" fill-rule="evenodd" d="M 25.11 26 C 25.11 26 28.46 21.71 28.77 18.57 C 28.53 18.49 28.29 18.41 28.07 18.33 C 23.98 17.28 20.96 13.66 20.96 9.34 C 20.96 4.77 24.33 0.97 28.78 0.19 C 29.37 0.07 29.99 0 30.63 0 C 37.32 0 40 5.48 40 9.34 C 40 18.84 29.15 25.28 25.11 26 Z M 4.16 26 C 4.16 26 7.5 21.71 7.81 18.57 C 7.57 18.49 7.34 18.41 7.11 18.33 C 3.02 17.28 0 13.66 0 9.34 C 0 4.77 3.38 0.97 7.82 0.19 C 8.41 0.07 9.03 0 9.67 0 C 16.36 0 19.04 5.48 19.04 9.34 C 19.04 18.84 8.2 25.28 4.16 26 Z" />
</svg>