<?xml version="1.0" encoding="utf-8"?>
<!-- Generator: Avocode 2.5.4 - http://avocode.com -->
<svg height="14" width="14" xmlns:xlink="http://www.w3.org/1999/xlink" xmlns="http://www.w3.org/2000/svg" viewBox="0 0 14 14">
    <path fill="#999999" fill-rule="evenodd" d="M 3.19 1.81 C 3.2 2.25 3.05 2.61 2.76 2.9 C 2.46 3.2 2.07 3.35 1.59 3.35 C 1.59 3.35 1.57 3.35 1.57 3.35 C 1.1 3.35 0.72 3.2 0.43 2.9 C 0.14 2.61 0 2.25 0 1.81 C 0 1.37 0.15 1 0.44 0.71 C 0.74 0.42 1.13 0.27 1.61 0.27 C 2.08 0.27 2.47 0.42 2.75 0.71 C 3.04 1 3.19 1.37 3.19 1.81 Z M 3.01 4.56 C 3.01 4.56 3.01 13.45 3.01 13.45 C 3.01 13.45 0.16 13.45 0.16 13.45 C 0.16 13.45 0.16 4.56 0.16 4.56 C 0.16 4.56 3.01 4.56 3.01 4.56 Z M 13.26 8.35 C 13.26 8.35 13.26 13.45 13.26 13.45 C 13.26 13.45 10.42 13.45 10.42 13.45 C 10.42 13.45 10.42 8.69 10.42 8.69 C 10.42 8.07 10.3 7.57 10.07 7.22 C 9.84 6.86 9.47 6.68 8.98 6.68 C 8.61 6.68 8.31 6.79 8.07 6.99 C 7.82 7.2 7.64 7.45 7.52 7.76 C 7.45 7.94 7.42 8.18 7.42 8.49 C 7.42 8.49 7.42 13.45 7.42 13.45 C 7.42 13.45 4.58 13.45 4.58 13.45 C 4.59 11.06 4.6 9.13 4.6 7.64 C 4.6 6.16 4.6 5.27 4.59 4.99 C 4.59 4.99 4.58 4.56 4.58 4.56 C 4.58 4.56 7.42 4.56 7.42 4.56 C 7.42 4.56 7.42 5.85 7.42 5.85 C 7.42 5.85 7.4 5.85 7.4 5.85 C 7.52 5.66 7.64 5.49 7.76 5.35 C 7.88 5.2 8.04 5.05 8.25 4.88 C 8.45 4.71 8.7 4.58 9 4.49 C 9.29 4.4 9.62 4.35 9.99 4.35 C 10.97 4.35 11.76 4.69 12.36 5.37 C 12.96 6.05 13.26 7.04 13.26 8.35 Z" />
</svg>