<svg id="icon_3" data-name="icon 3" xmlns="http://www.w3.org/2000/svg" width="62" height="46" viewBox="0 0 62 46">
  <defs>
    <style>
      .cls-1 {
        fill: #95733d;
      }

      .cls-1, .cls-2 {
        fill-rule: evenodd;
      }
    </style>
  </defs>
  <path class="cls-1" d="M235.906,1032.34a13.515,13.515,0,1,0,13.589,13.52A13.553,13.553,0,0,0,235.906,1032.34Zm0,24.24a10.725,10.725,0,1,1,10.783-10.72A10.751,10.751,0,0,1,235.906,1056.58Zm2.107-10.83a2.253,2.253,0,1,0-2.253,2.24A2.246,2.246,0,0,0,238.013,1045.75Zm-22.779-18.73,5.19,3.47,0.523,5.45-6.315-4.32Zm-4.721,6.84,5.29,3.44,5.251-1.42-6.444-4.22Z" transform="translate(-193 -1027)"/>
  <path class="cls-2" d="M193.407,1070.32a0.418,0.418,0,0,1-.307-0.14,0.409,0.409,0,0,1,.031-0.58l11.587-10.47a0.415,0.415,0,0,1,.583.03,0.421,0.421,0,0,1-.031.59l-11.586,10.46A0.422,0.422,0,0,1,193.407,1070.32Zm32.719-2.1a0.4,0.4,0,0,1-.367-0.6l3.94-7.64a0.413,0.413,0,1,1,.734.38l-3.94,7.64A0.413,0.413,0,0,1,226.126,1068.22Zm-3.977,1.08a0.4,0.4,0,0,1-.232-0.07L208.358,1060a0.412,0.412,0,0,1,.464-0.68l13.56,9.23A0.41,0.41,0,0,1,222.149,1069.3Zm13.877-7.71a15.61,15.61,0,1,1,15.578-15.61A15.614,15.614,0,0,1,236.026,1061.59Zm0-30.39a14.78,14.78,0,1,0,14.752,14.78A14.781,14.781,0,0,0,236.026,1031.2Zm0,24.17a9.39,9.39,0,1,1,9.374-9.39A9.4,9.4,0,0,1,236.026,1055.37Zm0-17.96a8.565,8.565,0,1,0,8.548,8.57A8.571,8.571,0,0,0,236.026,1037.41Zm0,12.79a4.22,4.22,0,1,1,4.209-4.22A4.224,4.224,0,0,1,236.026,1050.2Zm0-7.61a3.39,3.39,0,1,0,3.383,3.39A3.39,3.39,0,0,0,236.026,1042.59Zm0.072,3.96a0.482,0.482,0,0,1-.23-0.07l-24.164-16.3a0.411,0.411,0,1,1,.461-0.68l24.164,16.29a0.409,0.409,0,0,1,.112.57A0.415,0.415,0,0,1,236.1,1046.55Zm0-7.38a0.418,0.418,0,0,1-.413-0.42v-11.34a0.413,0.413,0,0,1,.826,0v11.34A0.418,0.418,0,0,1,236.1,1039.17Zm0,26.29a0.416,0.416,0,0,1-.413-0.41v-12.11a0.413,0.413,0,1,1,.826,0v12.11A0.416,0.416,0,0,1,236.1,1065.46Zm18.484-19.05H242.921a0.415,0.415,0,0,1,0-.83h11.662A0.415,0.415,0,0,1,254.583,1046.41Zm-25.2,0h-11.96a0.415,0.415,0,0,1,0-.83h11.96A0.415,0.415,0,0,1,229.379,1046.41Z" transform="translate(-193 -1027)"/>
  <path class="cls-1" d="M209.031,1058.31a2.834,2.834,0,1,0-2.833,2.84A2.844,2.844,0,0,0,209.031,1058.31Zm18.486,11.84a2.834,2.834,0,1,0-2.833,2.85A2.835,2.835,0,0,0,227.517,1070.15Z" transform="translate(-193 -1027)"/>
</svg>
