<svg xmlns="http://www.w3.org/2000/svg" preserveAspectRatio="xMidYMid" width="28" height="30" viewBox="0 0 28 30"><defs><style>.cls-2{fill:#000}</style></defs><path d="M27.95 7.899c-1.026 9.382-7.42 22.1-13.981 22.1-6.562 0-12.956-12.718-13.982-22.1A3.232 3.232 0 0 1 2 4.553L12.747.234a3.276 3.276 0 0 1 2.443 0l10.747 4.319a3.229 3.229 0 0 1 2.013 3.346zm-5.002-.938l-8.104-3.076a2.49 2.49 0 0 0-1.751 0L4.989 6.961a2.434 2.434 0 0 0-1.564 2.514c.708 7.145 5.147 17.192 10.544 17.192 5.396 0 9.835-10.047 10.543-17.192a2.432 2.432 0 0 0-1.564-2.514zM8.805 19.738c-1.675-3.045-2.926-7.057-3.264-10.47a.325.325 0 0 1 .207-.334l8.104-3.075a.308.308 0 0 1 .117-.022v18.718c-1.575 0-3.505-1.801-5.164-4.817z" id="path-1" class="cls-2" fill-rule="evenodd"/></svg>