<?xml version="1.0" encoding="utf-8"?>
<!-- Generator: Avocode 2.5.4 - http://avocode.com -->
<svg height="46" width="45" xmlns:xlink="http://www.w3.org/1999/xlink" xmlns="http://www.w3.org/2000/svg" viewBox="0 0 45 46">
    <path fill="#ba9444" fill-rule="evenodd" d="M 22.5 0.75 C 10.26 0.75 0.25 10.76 0.25 23 C 0.25 35.24 10.26 45.25 22.5 45.25 C 34.73 45.25 44.75 35.24 44.75 23 C 44.75 10.76 34.73 0.75 22.5 0.75 Z" />
    <path fill="#ffffff" fill-rule="evenodd" d="M 31 29.39 C 31 29.39 28.39 32 28.39 32 C 28.39 32 22.5 26.12 22.5 26.12 C 22.5 26.12 16.61 32 16.61 32 C 16.61 32 14 29.39 14 29.39 C 14 29.39 19.88 23.5 19.88 23.5 C 19.88 23.5 14 17.61 14 17.61 C 14 17.61 16.61 15 16.61 15 C 16.61 15 22.5 20.88 22.5 20.88 C 22.5 20.88 28.39 15 28.39 15 C 28.39 15 31 17.61 31 17.61 C 31 17.61 25.12 23.5 25.12 23.5 C 25.12 23.5 31 29.39 31 29.39 Z" />
</svg>