<?xml version="1.0" encoding="utf-8"?>
<!-- Generator: Avocode 2.5.4 - http://avocode.com -->
<svg height="91" width="65" xmlns:xlink="http://www.w3.org/1999/xlink" xmlns="http://www.w3.org/2000/svg" viewBox="0 0 65 91">
    <path fill="#ba9444" fill-rule="evenodd" d="M 59.94 47.03 C 57.41 47.03 55.33 45.14 54.96 42.7 C 54.96 42.7 48.49 42.7 48.49 42.7 C 48.66 45.44 48.66 48.25 48.47 51.12 C 48.47 51.12 50.74 51.88 50.74 51.88 C 50.96 51.96 51.13 52.13 51.21 52.35 C 51.21 52.35 57.62 71.05 57.62 71.05 C 57.71 71.31 57.65 71.59 57.48 71.79 C 57.34 71.95 57.13 72.05 56.92 72.05 C 56.87 72.05 56.82 72.04 56.77 72.03 C 56.77 72.03 44.38 69.54 44.38 69.54 C 43.99 70.53 43.58 71.53 43.14 72.52 C 43.01 72.8 42.74 72.96 42.46 72.96 C 42.39 72.96 42.32 72.95 42.25 72.93 C 41.73 72.78 41.23 72.63 40.73 72.47 C 38.94 71.9 37.24 71.38 34.51 71.19 C 33.98 72.82 33.31 74.04 32.49 74.53 C 32.49 74.53 32.49 72.43 32.49 72.43 C 33.68 70.07 34.82 63 35.13 55.19 C 35.13 55.19 35.07 52.12 35.07 52.12 C 35.06 51.53 34.57 51.05 33.96 51.05 C 33.96 51.05 33.96 51.05 33.96 51.05 C 33.96 51.05 32.49 51.08 32.49 51.08 C 32.49 51.08 32.49 49.58 32.49 49.58 C 32.49 49.58 33.98 49.55 33.98 49.55 C 35.38 49.55 36.53 50.69 36.56 52.09 C 36.56 52.09 36.62 55.2 36.62 55.2 C 36.48 58.77 36.07 65.2 34.93 69.72 C 37.66 69.94 39.45 70.49 41.17 71.04 C 41.46 71.13 41.75 71.22 42.04 71.31 C 49.42 54.36 47.66 37.89 43.68 25.14 C 43.68 25.14 32.49 25.14 32.49 25.14 C 32.49 25.14 32.49 23.64 32.49 23.64 C 32.49 23.64 43.18 23.64 43.18 23.64 C 39.51 12.59 34.37 4.62 32.49 1.92 C 32.49 1.92 32.49 0 32.49 0 C 32.49 0 32.57 0 32.57 0 C 32.81 0 33.04 0.11 33.18 0.31 C 33.25 0.4 33.33 0.52 33.42 0.65 C 33.44 0.68 33.46 0.7 33.48 0.73 C 33.58 0.87 33.7 1.04 33.82 1.21 C 33.84 1.25 33.86 1.27 33.88 1.3 C 34.02 1.51 34.18 1.75 34.36 2.01 C 34.36 2.01 34.36 2.01 34.36 2.01 C 37.89 7.3 46.83 22.37 48.38 41.21 C 48.38 41.21 54.96 41.21 54.96 41.21 C 55.33 38.77 57.41 36.88 59.94 36.88 C 62.73 36.88 64.99 39.16 64.99 41.95 C 64.99 44.75 62.73 47.03 59.94 47.03 Z M 48.35 52.66 C 47.89 57.69 46.81 62.87 44.91 68.12 C 44.91 68.12 55.79 70.31 55.79 70.31 C 55.79 70.31 49.91 53.19 49.91 53.19 C 49.91 53.19 48.35 52.66 48.35 52.66 Z M 59.94 38.38 C 57.98 38.38 56.38 39.99 56.38 41.95 C 56.38 43.92 57.98 45.53 59.94 45.53 C 61.9 45.53 63.5 43.92 63.5 41.95 C 63.5 39.99 61.9 38.38 59.94 38.38 Z M 33.24 81.68 C 33.24 81.68 33.24 87.25 33.24 87.25 C 33.24 87.67 32.9 88 32.49 88 C 32.08 88 31.74 87.67 31.74 87.25 C 31.74 87.25 31.74 81.68 31.74 81.68 C 31.74 81.27 32.08 80.93 32.49 80.93 C 32.9 80.93 33.24 81.27 33.24 81.68 Z M 30.46 71.19 C 27.74 71.38 26.04 71.9 24.25 72.47 C 23.75 72.63 23.25 72.78 22.73 72.93 C 22.66 72.95 22.59 72.96 22.52 72.96 C 22.23 72.96 21.96 72.8 21.84 72.52 C 21.39 71.53 20.98 70.53 20.6 69.54 C 20.6 69.54 8.21 72.03 8.21 72.03 C 8.16 72.04 8.11 72.05 8.06 72.05 C 7.85 72.05 7.64 71.95 7.5 71.79 C 7.32 71.59 7.27 71.31 7.35 71.05 C 7.35 71.05 13.77 52.35 13.77 52.35 C 13.85 52.13 14.02 51.96 14.24 51.88 C 14.24 51.88 16.51 51.12 16.51 51.12 C 16.32 48.25 16.32 45.44 16.49 42.7 C 16.49 42.7 10.01 42.7 10.01 42.7 C 9.65 45.14 7.57 47.03 5.04 47.03 C 2.25 47.03 -0.02 44.75 -0.02 41.95 C -0.02 39.16 2.25 36.88 5.04 36.88 C 7.57 36.88 9.65 38.77 10.01 41.21 C 10.01 41.21 16.59 41.21 16.59 41.21 C 18.14 22.37 27.09 7.3 30.62 2.01 C 30.62 2.01 30.62 2.01 30.62 2.01 C 30.79 1.75 30.95 1.51 31.1 1.3 C 31.12 1.27 31.13 1.25 31.16 1.21 C 31.28 1.04 31.4 0.87 31.5 0.73 C 31.52 0.7 31.53 0.68 31.55 0.65 C 31.65 0.52 31.73 0.4 31.8 0.31 C 31.94 0.11 32.16 0 32.4 0 C 32.4 0 32.49 0 32.49 0 C 32.49 0 32.49 1.92 32.49 1.92 C 30.61 4.62 25.46 12.59 21.8 23.64 C 21.8 23.64 32.49 23.64 32.49 23.64 C 32.49 23.64 32.49 25.14 32.49 25.14 C 32.49 25.14 21.29 25.14 21.29 25.14 C 17.32 37.89 15.55 54.36 22.94 71.31 C 23.23 71.22 23.52 71.13 23.8 71.04 C 25.53 70.49 27.32 69.94 30.04 69.72 C 28.9 65.2 28.5 58.77 28.36 55.2 C 28.36 55.2 28.41 52.09 28.41 52.09 C 28.44 50.69 29.6 49.55 31 49.55 C 31 49.55 32.49 49.58 32.49 49.58 C 32.49 49.58 32.49 51.08 32.49 51.08 C 32.49 51.08 31.02 51.05 31.02 51.05 C 31.02 51.05 31.02 51.05 31.02 51.05 C 30.41 51.05 29.92 51.53 29.91 52.12 C 29.91 52.12 29.85 55.19 29.85 55.19 C 30.16 63 31.29 70.07 32.49 72.43 C 32.49 72.43 32.49 74.53 32.49 74.53 C 31.66 74.04 31 72.82 30.46 71.19 Z M 5.04 38.38 C 3.07 38.38 1.48 39.99 1.48 41.95 C 1.48 43.92 3.07 45.53 5.04 45.53 C 7 45.53 8.6 43.92 8.6 41.95 C 8.6 39.99 7 38.38 5.04 38.38 Z M 16.63 52.66 C 16.63 52.66 15.06 53.19 15.06 53.19 C 15.06 53.19 9.19 70.31 9.19 70.31 C 9.19 70.31 20.07 68.12 20.07 68.12 C 18.17 62.87 17.09 57.69 16.63 52.66 Z M 25.89 78.93 C 26.3 78.93 26.64 79.27 26.64 79.68 C 26.64 79.68 26.64 90.25 26.64 90.25 C 26.64 90.66 26.3 91 25.89 91 C 25.48 91 25.14 90.66 25.14 90.25 C 25.14 90.25 25.14 79.68 25.14 79.68 C 25.14 79.27 25.48 78.93 25.89 78.93 Z M 39.09 78.93 C 39.5 78.93 39.83 79.27 39.83 79.68 C 39.83 79.68 39.83 90.25 39.83 90.25 C 39.83 90.66 39.5 91 39.09 91 C 38.67 91 38.34 90.66 38.34 90.25 C 38.34 90.25 38.34 79.68 38.34 79.68 C 38.34 79.27 38.67 78.93 39.09 78.93 Z" />
</svg>