<svg xmlns="http://www.w3.org/2000/svg" width="93.625" height="48.594" viewBox="0 0 93.625 48.594">
  <defs>
    <style>
      .cls-1 {
        fill-rule: evenodd;
      }
    </style>
  </defs>
  <path id="Guinness" class="cls-1" d="M861.977,650.346a2.01,2.01,0,0,0,.026-0.38v-1.418a0.409,0.409,0,0,0-.182-0.351l0.611-.212v1.981a1.869,1.869,0,0,0,.028.38h-0.483Zm1.742,0,0.971-2.034h-0.7a0.654,0.654,0,0,0-.243.035V648.04h1.5l-1.053,2.306h-0.478Zm2.948,0.054a1.213,1.213,0,0,1-.5-0.1l0.008-.2a1,1,0,0,0,.489.068,0.546,0.546,0,0,0,.485-0.549,0.478,0.478,0,0,0-.53-0.509,0.991,0.991,0,0,0-.382.072l0.08-1.15H867.5v0.3a0.931,0.931,0,0,0-.245-0.032h-0.571l-0.033.585a1.3,1.3,0,0,1,.282-0.017,0.662,0.662,0,0,1,.665.695,0.84,0.84,0,0,1-.926.826h0Zm3.613-1.458a0.826,0.826,0,0,0-.915-0.94,0.763,0.763,0,0,0-.685.86,0.631,0.631,0,0,0,.778.6,0.543,0.543,0,0,0,.388-0.2,0.862,0.862,0,0,1-.968.938l0,0.188a1.22,1.22,0,0,0,1.4-1.445h0Zm-0.835.3c-0.243,0-.323-0.217-0.322-0.514,0-.163.029-0.543,0.326-0.543a0.451,0.451,0,0,1,.323.516c0,0.135,0,.541-0.327.541h0Zm-29.656,1.106a1.932,1.932,0,0,0,.027-0.379v-1.6a1.323,1.323,0,0,0-.027-0.326h1.27v0.3a1.331,1.331,0,0,0-.28-0.028h-0.5v0.706h0.378A1.322,1.322,0,0,0,840.9,649v0.311a1.372,1.372,0,0,0-.243-0.02h-0.378v0.787h0.6a0.817,0.817,0,0,0,.243-0.037v0.309h-1.324Zm2.81,0.054a0.993,0.993,0,0,1-.6-0.18v-0.227a0.9,0.9,0,0,0,.6.171,0.383,0.383,0,0,0,.393-0.345,0.493,0.493,0,0,0-.394-0.45,0.733,0.733,0,0,1-.6-0.705,0.7,0.7,0,0,1,.73-0.679,1.056,1.056,0,0,1,.531.114v0.244a0.808,0.808,0,0,0-.45-0.135,0.382,0.382,0,0,0-.427.305,0.306,0.306,0,0,0,.1.252,1.293,1.293,0,0,0,.332.2,0.756,0.756,0,0,1,.595.733,0.716,0.716,0,0,1-.811.7h0Zm2.972-2.062h-0.378v1.629a1.932,1.932,0,0,0,.027.379h-0.513a1.932,1.932,0,0,0,.027-0.379v-1.63h-0.378a0.728,0.728,0,0,0-.244.028v-0.326h1.7v0.326a0.722,0.722,0,0,0-.243-0.028h0Zm1.919,2.008h-0.27a0.443,0.443,0,0,0-.162.019v-0.282a0.586,0.586,0,0,0,.162.019h0.27a0.739,0.739,0,0,0,.162-0.019v0.284a0.467,0.467,0,0,0-.163-0.021h0Zm-0.081-.7h-0.676a0.3,0.3,0,0,0,.027-0.136v-1.33a0.3,0.3,0,0,0-.026-0.135h0.594a0.709,0.709,0,0,1,.864.76,0.783,0.783,0,0,1-.783.841h0Zm-0.054-1.393h-0.216v1.18H847.3c0.3,0,.486-0.172.486-0.633a0.456,0.456,0,0,0-.432-0.546h0Zm54.321,8.246a0.947,0.947,0,1,0,.941.943,0.948,0.948,0,0,0-.941-0.943h0Zm0,1.709a0.762,0.762,0,1,1,.762-0.766,0.76,0.76,0,0,1-.762.766h0Zm0.435-1a0.241,0.241,0,0,0-.106-0.208,0.479,0.479,0,0,0-.232-0.044h-0.415v0.956h0.14v-0.439h0.167l0.273,0.439h0.16l-0.287-.439a0.262,0.262,0,0,0,.3-0.265h0Zm-0.458.144H901.5v-0.288h0.247c0.118,0,.224.017,0.224,0.142,0,0.171-.183.146-0.316,0.146h0Zm-6.232,15.685a22.166,22.166,0,0,1-4.113-.683v-3.548h0.354a3.554,3.554,0,0,0,3.582,2.611,2.278,2.278,0,0,0,2.575-2.282A3.432,3.432,0,0,0,896,666.272l-1.842-1.267c-1.59-1.089-2.927-2.33-2.927-4.56,0-2.636,1.766-4.333,4.693-4.333a19.687,19.687,0,0,1,3.482.507v3.065h-0.354a2.93,2.93,0,0,0-3.052-2.1,1.9,1.9,0,0,0-2.2,1.95c0,0.964.58,1.723,1.994,2.686l1.59,1.065c2.447,1.646,3.2,2.836,3.2,4.889,0,3.015-2.094,4.864-5.172,4.864h0Zm-10.37,0a22.166,22.166,0,0,1-4.113-.683v-3.548h0.354a3.554,3.554,0,0,0,3.582,2.611,2.277,2.277,0,0,0,2.574-2.282,3.433,3.433,0,0,0-1.816-2.862l-1.842-1.267c-1.59-1.089-2.927-2.33-2.927-4.56,0-2.636,1.766-4.333,4.693-4.333a19.687,19.687,0,0,1,3.482.507v3.065h-0.353a2.933,2.933,0,0,0-3.053-2.1,1.9,1.9,0,0,0-2.195,1.95c0,0.964.579,1.723,1.992,2.686l1.591,1.065c2.446,1.646,3.2,2.836,3.2,4.889,0,3.015-2.094,4.864-5.173,4.864h0Zm-14.129-.253v-0.329a2.821,2.821,0,0,0,.152-1.14V658.392c0-1.063-.354-1.62-0.732-1.7v-0.33H879.2V658.6H878.87a1.453,1.453,0,0,0-1.312-.633H874.2v5.624h2.825a2.138,2.138,0,0,0,1.364-.354h0.328v2.128h-0.328a3.175,3.175,0,0,0-1.262-.177H874.2v6h3.33a1.477,1.477,0,0,0,1.565-.76h0.328v2.356h-8.5Zm-4.643,0-8.35-14.821a2.5,2.5,0,0,0-1.287-1.266v-0.33h4.036l5.828,10.488v-8.462c0-1.063-.277-1.62-0.631-1.7v-0.33h2.4v16.417h-1.994Zm-8.678,0v-0.329a4.188,4.188,0,0,0,.15-1.267V659.862l1.767,3.268v7.982a2.565,2.565,0,0,0,.252,1.342v0.329H857.6Zm-4.6,0-8.351-14.821a2.5,2.5,0,0,0-1.287-1.266v-0.33H847.4l5.828,10.488v-8.462c0-1.063-.277-1.62-0.631-1.7v-0.33H855v16.417h-1.994Zm-8.68,0v-0.329a4.126,4.126,0,0,0,.152-1.267V659.862l1.766,3.268v7.982a2.551,2.551,0,0,0,.253,1.342v0.329h-2.171Zm-5.878,0v-0.329a3.228,3.228,0,0,0,.177-1.217V658.392c0-1.063-.354-1.62-0.732-1.7v-0.33h3.834V670.96a2.424,2.424,0,0,0,.278,1.494v0.329h-3.557Zm-2.826-2.838c-0.606,2.053-2.246,3.091-4.895,3.091-3.835,0-5.45-2.153-5.45-5.447v-9.2c0-1.063-.353-1.62-0.731-1.7v-0.33h3.885v11.3a4.607,4.607,0,0,0,.353,2.129,2.458,2.458,0,0,0,2.4,1.292,2.6,2.6,0,0,0,2.523-1.292,4.87,4.87,0,0,0,.354-2.256v-9.146c0-1.063-.354-1.62-0.732-1.7v-0.33h2.6v10.945a8.279,8.279,0,0,1-.3,2.634h0Zm-12.868-5.193v7.524a17.023,17.023,0,0,1-5.324.812c-4.566,0-8.427-3.319-8.427-10.261,0-6,3.381-9.983,8.276-9.983a23.343,23.343,0,0,1,4.239.608,0.242,0.242,0,0,0,.177-0.051h0.251v4.08h-0.4a3.7,3.7,0,0,0-3.835-2.99c-2.876,0-5.223,2.407-5.223,8.209,0,6.207,2.6,8.665,5.324,8.665a4.483,4.483,0,0,0,1.691-.253v-5.929c0-.862-0.228-1.951-1.161-2.154v-0.354h4.592V663a5.9,5.9,0,0,0-.177,1.748h0Zm33.5-13.1H851.6l-5.512-18.75a3.738,3.738,0,0,1-.162-0.7,0.377,0.377,0,0,1,.729-0.109l5.918,18.153c6.326-5.129,9.7-11.478,9.11-19.32a10.339,10.339,0,0,0,2.62-.977c1.487,8.357-1.3,16.009-8.052,21.707h0Zm9.566-21.219v1.085h-0.243V630.43h-0.324v-0.217h0.891v0.217h-0.324Zm1.432,1.085v-1.03h-0.027l-0.27,1.03h-0.162l-0.271-1.03v1.03H866.3v-1.3h0.325l0.243,0.923,0.243-.923h0.324v1.3h-0.189Zm-2.918-7c-2.486,1.954-6.35,2.74-11,.976a13.715,13.715,0,0,0-4.728-.976c-3.486,0-5.27,1.981-5.27,4.071A2.687,2.687,0,0,0,846,631.461a2.444,2.444,0,0,0,1-.217l6.242,17.258a23.3,23.3,0,0,0,3.246-3.392,1.193,1.193,0,0,1-.866-0.759s-6.623-14.6-7-15.481a3.713,3.713,0,0,0-1.3-1.911,4.074,4.074,0,0,1,2.629.177c0.86,0.349,2.3,1.278,4.106,2.081a12.9,12.9,0,0,0,4.807,1.309,10.1,10.1,0,0,0,6.862-2.348l-1.4-3.663h0Zm-18.4,5.427a1,1,0,1,1,1-1,1.018,1.018,0,0,1-1,1h0Zm10.325,21.707H851.6l-5.512-18.75a3.738,3.738,0,0,1-.162-0.7,0.377,0.377,0,0,1,.729-0.109l5.918,18.153c6.326-5.129,9.7-11.478,9.11-19.32a10.339,10.339,0,0,0,2.62-.977c1.487,8.357-1.3,16.009-8.052,21.707h0Zm1.191-15.116a39.7,39.7,0,0,1,3.332-6.116,46.708,46.708,0,0,1-5.723,12.662,39.92,39.92,0,0,1,2.391-6.546h0Zm-1.446-1.012a30.4,30.4,0,0,1,2.761-5A35.775,35.775,0,0,1,854.06,640.9a30.4,30.4,0,0,1,1.933-5.381h0Zm-1.253-1.1a24.951,24.951,0,0,1,2.3-4.148,29.079,29.079,0,0,1-3.9,8.615,24.877,24.877,0,0,1,1.6-4.467h0Zm-1.106-1.127a20.59,20.59,0,0,1,1.926-3.467,24.192,24.192,0,0,1-3.256,7.2,20.519,20.519,0,0,1,1.33-3.736h0Zm-1.011-1.113a16.7,16.7,0,0,1,1.609-2.885,19.578,19.578,0,0,1-2.712,6,16.661,16.661,0,0,1,1.1-3.118h0Zm-0.92-1.059a13.941,13.941,0,0,1,1.324-2.379,16.363,16.363,0,0,1-2.235,4.947,14,14,0,0,1,.911-2.568h0Zm-0.86-1.032a10.879,10.879,0,0,1,1.085-1.932,12.645,12.645,0,0,1-1.818,4.024,10.917,10.917,0,0,1,.733-2.092h0Zm0.05-2.491a7.9,7.9,0,0,1-.566,1.645,8.019,8.019,0,0,1-.86,1.513,7.893,7.893,0,0,1,.566-1.646,8.013,8.013,0,0,1,.86-1.512h0Z" transform="translate(-809 -624.5)"/>
</svg>
