<?xml version="1.0" encoding="UTF-8"?>
<svg width="120px" height="120px" viewBox="0 0 120 120" version="1.1" xmlns="http://www.w3.org/2000/svg" xmlns:xlink="http://www.w3.org/1999/xlink">
    <!-- Generator: Sketch 41.2 (35397) - http://www.bohemiancoding.com/sketch -->
    <title>smooth_integration</title>
    <desc>Created with Sketch.</desc>
    <defs></defs>
    <g id="LP_Icons" stroke="none" stroke-width="1" fill="none" fill-rule="evenodd">
        <g id="smooth_integration" fill="#006EFA">
            <g id="Group-2" transform="translate(24.000000, 21.000000)">
                <path d="M4.15082353,15.8982353 L4.15082353,15.9012941 L4.15082353,15.8982353 Z M3.99176471,19.2927647 C3.99176471,19.2942941 3.99252941,19.2958235 3.99252941,19.2988824 C3.99252941,19.2958235 3.99176471,19.2942941 3.99176471,19.2927647 Z M29.4044706,25.038 L29.4159412,25.038 L29.4044706,25.038 Z M16.0894118,31.1510588 L17.693,31.2267647 L18.0661765,29.3608824 C18.3322941,28.028 19.2736471,26.9382941 20.5820588,26.4458235 C21.2282353,26.2034118 21.8476471,25.8822353 22.4227059,25.4914706 C23.5751176,24.7084118 25.0005294,24.5730588 26.2355294,25.1244118 L27.989,25.9082353 L28.8561765,24.557 L27.4315294,23.3051765 C27.4315294,23.3051765 27.4315294,23.3051765 27.43,23.3051765 C26.416,22.412 25.9273529,21.0431765 26.1567647,19.734 C26.2194706,19.3707647 26.2607647,19.0021765 26.2775882,18.6358824 C26.2951765,18.2657647 26.2890588,17.8948824 26.26,17.5324118 C26.1521765,16.2041176 26.767,14.8857647 27.8635882,14.092 L29.3991176,12.9801176 L28.6619412,11.5539412 L26.8419412,12.1710588 C25.5618235,12.6038824 24.154,12.3354706 23.0803529,11.4484118 C22.5450588,11.0071765 21.9577647,10.6286471 21.3360588,10.3258235 C20.0788824,9.711 19.2445882,8.53870588 19.1038824,7.18823529 L18.9073529,5.29635294 L17.3037647,5.22064706 L16.9305882,7.08729412 C16.6644706,8.42017647 15.7231176,9.50988235 14.4147059,10.0015882 C13.7662353,10.2447647 13.1475882,10.5667059 12.5763529,10.9551765 C11.4231765,11.7374706 9.99852941,11.8751176 8.76352941,11.3245294 L7.007,10.5399412 L6.14058824,11.8904118 L7.56523529,13.1422353 C8.58229412,14.0369412 9.06864706,15.405 8.84,16.7141765 C8.77729412,17.082 8.73523529,17.4521176 8.71917647,17.8115294 C8.70158824,18.174 8.70847059,18.5479412 8.73752941,18.9211176 C8.84458824,20.2417647 8.22976471,21.5608824 7.13394118,22.3546471 L5.59917647,23.4680588 L6.33482353,24.8934706 L8.15558824,24.2771176 C9.43647059,23.8427647 10.842,24.1127059 11.9164118,24.999 C12.4532353,25.4417647 13.0397647,25.8195294 13.6607059,26.1215882 C14.9178824,26.7348824 15.7521765,27.9071765 15.8928824,29.2591765 L16.0894118,31.1510588 Z M18.3888824,36.0199412 C18.3261765,36.0199412 18.2634706,36.0191765 18.1992353,36.0161176 L15.1373529,35.8715882 C13.1934706,35.7813529 11.6334706,34.3092941 11.4300588,32.3730588 L11.206,30.2150588 C10.5124118,29.8495294 9.84864706,29.4228235 9.22464706,28.9402941 L7.16988235,29.6369412 C5.32464706,30.2624706 3.33488235,29.4587647 2.44170588,27.7274706 L1.03388235,25.0035882 C0.140705882,23.2730588 0.635470588,21.1861765 2.21382353,20.0429412 L3.96117647,18.7758235 C3.94511765,18.3766471 3.94664706,17.9805294 3.96347059,17.5905294 C3.98258824,17.2012941 4.01852941,16.8059412 4.07205882,16.4098235 L2.45088235,14.9851765 C0.986470588,13.6989412 0.687470588,11.5753529 1.73970588,9.93505882 L3.39452941,7.35570588 C4.44752941,5.71617647 6.49923529,5.10135294 8.281,5.89511765 L10.2623529,6.78064706 C10.9245882,6.36082353 11.6265882,5.99682353 12.3538235,5.69782353 L12.7797647,3.57194118 C13.1621176,1.66170588 14.8398824,0.354823529 16.7967647,0.432058824 L19.8601765,0.575058824 C21.8071176,0.666823529 23.3663529,2.13964706 23.5659412,4.07817647 L23.7907647,6.23388235 C24.4851176,6.59864706 25.1488824,7.02535294 25.7721176,7.50711765 L27.8276471,6.81123529 C29.6721176,6.18647059 31.6626471,6.99017647 32.5565882,8.72147059 L33.9621176,11.4430588 C34.8575882,13.1751176 34.3612941,15.2604706 32.7852353,16.4044706 L31.0363529,17.6723529 C31.0524118,18.0654118 31.0516471,18.4622941 31.0325294,18.8568824 C31.0141765,19.2507059 30.9782353,19.6468235 30.9247059,20.0383529 L32.5466471,21.463 C34.0102941,22.75 34.3085294,24.8735882 33.2570588,26.5131176 L31.6022353,29.0924706 C30.5484706,30.7327647 28.4937059,31.3475882 26.7142353,30.5515294 L24.7344118,29.6675294 C24.0683529,30.0888824 23.3671176,30.4521176 22.6421765,30.7503529 L22.217,32.8754706 C21.8499412,34.7222353 20.2562941,36.0199412 18.3888824,36.0199412 L18.3888824,36.0199412 Z" id="Fill-57"></path>
                <path d="M17.4964706,16.6927647 C17.1141176,16.6927647 16.7516471,16.8327059 16.4671765,17.0919412 C16.1643529,17.3672353 15.9877059,17.7427059 15.9693529,18.1510588 C15.9295882,18.9960588 16.5834118,19.7148824 17.4268824,19.7531176 C18.3108824,19.7905882 18.9884118,19.1390588 19.0281765,18.2955882 C19.0679412,17.4521176 18.4133529,16.7340588 17.5698824,16.6950588 C17.5454118,16.6935294 17.5209412,16.6927647 17.4964706,16.6927647 Z M17.5025882,24.5157059 C17.4024118,24.5157059 17.3037647,24.5134118 17.2035882,24.5088235 C15.5258235,24.4300588 13.9772941,23.7020588 12.8470588,22.4594118 C11.7152941,21.2175294 11.1364118,19.6085882 11.2144118,17.9292941 C11.2916471,16.2522941 12.0196471,14.7037647 13.2630588,13.572 C14.5064706,12.4402353 16.1192353,11.8628824 17.7931765,11.9393529 C19.4709412,12.0181176 21.0187059,12.7461176 22.1504706,13.988 C23.2814706,15.2314118 23.8611176,16.8395882 23.7838824,18.5188824 C23.6255882,21.8843529 20.8367059,24.5157059 17.5025882,24.5157059 L17.5025882,24.5157059 Z" id="Fill-58"></path>
                <path d="M45.2002353,40.43 C44.4447059,40.43 43.6845882,40.5087647 42.9290588,40.6693529 C40.1019412,41.2696471 37.6785882,42.9359412 36.1040588,45.3592941 C34.5310588,47.7834118 33.9934706,50.6747647 34.5945294,53.5011176 C35.1955882,56.3282353 36.8603529,58.7523529 39.2844706,60.3261176 C41.7101176,61.9006471 44.6060588,62.4367059 47.4262941,61.8348824 C50.2541765,61.2345882 52.6767647,59.5690588 54.2505294,57.1457059 C55.8250588,54.7215882 56.3611176,51.8302353 55.7600588,49.0038824 C55.159,46.176 53.4942353,43.7526471 51.0701176,42.1788824 C49.2937059,41.0249412 47.2672353,40.43 45.2002353,40.43 Z M45.1451765,66.8368235 C42.1666471,66.8368235 39.2485294,65.9788235 36.6921176,64.3178824 C33.2027647,62.0512941 30.8038824,58.5611765 29.939,54.4906471 C29.0733529,50.4201176 29.8464706,46.2570588 32.1122941,42.7669412 C34.3781176,39.2768235 37.8697647,36.8779412 41.9387647,36.0130588 C46.0131176,35.1481765 50.1723529,35.9205294 53.6624706,38.1871176 C57.1525882,40.4537059 59.5507059,43.9430588 60.4155882,48.0143529 C61.2812353,52.0841176 60.5096471,56.2479412 58.2438235,59.7380588 C55.9764706,63.2281765 52.4863529,65.6262941 48.4165882,66.4911765 L48.4165882,66.4904118 C47.3276471,66.7221176 46.2333529,66.8368235 45.1451765,66.8368235 Z M50.9944118,30.4253529 C50.9944118,30.4261176 50.9951765,30.4261176 50.9951765,30.4261176 C50.9951765,30.4261176 50.9944118,30.4261176 50.9944118,30.4253529 Z M34.5647059,32.4143529 C34.5631765,32.4151176 34.5631765,32.4158824 34.5624118,32.4158824 C34.5631765,32.4158824 34.5631765,32.4151176 34.5647059,32.4143529 Z M61.8356471,37.4652353 C61.8364118,37.466 61.8364118,37.4667647 61.8379412,37.4682941 C61.8364118,37.4667647 61.8364118,37.466 61.8356471,37.4652353 Z M26.3402941,61.8654706 C26.3402941,61.8662353 26.3402941,61.867 26.3410588,61.8677647 C26.3402941,61.867 26.3402941,61.8662353 26.3402941,61.8654706 Z M39.3594118,72.0788824 L39.3617059,72.0788824 L39.3594118,72.0788824 Z M39.6232353,67.3537647 C39.9612353,67.3537647 40.3038235,67.3996471 40.6418235,67.4944706 C41.5977059,67.7621176 42.5887647,67.9448824 43.5867059,68.0381765 C45.084,68.1788824 46.3411765,69.1837059 46.7877647,70.5999412 L47.3857647,72.4895294 L51.7958235,71.552 L51.5740588,69.5805882 C51.4065882,68.1085294 52.1445294,66.6792941 53.4544706,65.9413529 C54.3285294,65.4511765 55.159,64.8807059 55.9275294,64.2444706 C57.0822353,63.2885882 58.6812353,63.1119412 59.9980588,63.7940588 L61.7553529,64.7078824 L64.2123529,60.9256471 L62.6630588,59.6914118 C61.503,58.7684118 61.0151176,57.2367059 61.4181176,55.7898824 C61.6880588,54.8286471 61.8700588,53.8383529 61.9633529,52.8434706 C62.1025294,51.3454118 63.1081176,50.089 64.5235882,49.6416471 L66.4139412,49.0436471 L65.4779412,44.6328235 L63.5065294,44.8561176 C62.0413529,45.0243529 60.6014118,44.2833529 59.8642353,42.9718824 C59.3755882,42.1001176 58.8051176,41.2696471 58.1704118,40.5026471 C57.213,39.3487059 57.0348235,37.7489412 57.7207647,36.4313529 L58.6330588,34.6740588 L54.8515882,32.2178235 L53.6173529,33.7671176 C52.6912941,34.9279412 51.1603529,35.4158235 49.7127647,35.0105294 C48.7568824,34.7428824 47.7658235,34.5601176 46.7678824,34.4660588 C45.2728824,34.3268824 44.0172353,33.3235882 43.5675882,31.9104118 L42.9688235,30.0154706 L38.5587647,30.953 L38.7805294,32.9244118 C38.948,34.3987647 38.2077647,35.8287647 36.8955294,36.5651765 C36.0252941,37.0545882 35.1940588,37.6250588 34.4293529,38.259 C33.2677647,39.2179412 31.6710588,39.3938235 30.3565294,38.7101765 L28.5992353,37.7971176 L26.1422353,41.5793529 L27.6915294,42.8128235 C28.8515882,43.7358235 29.3394706,45.2675294 28.9364706,46.7151176 C28.6688235,47.6694706 28.4852941,48.6612941 28.3912353,49.6638235 C28.2520588,51.1595882 27.2464706,52.416 25.831,52.8633529 L23.9406471,53.4605882 L24.8781765,57.8714118 L26.8480588,57.6488824 C28.3331176,57.4791176 29.7524118,58.2216471 30.4880588,59.5315882 C30.9805294,60.4048824 31.551,61.2368824 32.1857059,62.0015882 C33.1408235,63.1578235 33.3182353,64.7552941 32.6376471,66.0705882 L31.7215294,67.8301765 L35.5045294,70.2856471 L36.7372353,68.7378824 C37.4476471,67.8477647 38.5128824,67.3537647 39.6232353,67.3537647 Z M46.6547059,77.428 C45.0694706,77.428 43.6333529,76.4117059 43.1370588,74.841 L42.4610588,72.7028824 C41.639,72.5988824 40.8238235,72.449 40.0239412,72.2532353 L38.6268235,74.0051765 C37.4346471,75.5024706 35.3255882,75.8458235 33.7181765,74.802 L28.3224118,71.2981176 C26.7157647,70.2542941 26.1712941,68.1865294 27.0545294,66.4888824 L28.0891765,64.5006471 C27.5844706,63.8498824 27.1149412,63.1654706 26.6851765,62.4573529 L24.4560588,62.7089412 C22.5496471,62.9261176 20.8191176,61.6742941 20.4214706,59.8 L19.0847647,53.5095294 C18.6855882,51.6390588 19.7615294,49.7907647 21.5861176,49.2126471 L23.7280588,48.5358824 C23.8312941,47.7122941 23.9811765,46.8971176 24.1777059,46.0987647 L22.4234706,44.7024118 C20.9246471,43.5071765 20.5843529,41.3958235 21.6289412,39.7914706 L25.1305294,34.3972353 C26.1735882,32.7921176 28.2398235,32.2476471 29.939,33.1293529 L31.9287647,34.1632353 C32.5795294,33.6585294 33.2639412,33.189 33.9720588,32.76 L33.7204706,30.5308824 C33.5048235,28.6298235 34.7535882,26.8947059 36.6271176,26.4962941 L42.9214118,25.1588235 C44.8002941,24.7619412 46.6409412,25.8394118 47.2175294,27.664 L47.8935294,29.8021176 C48.7155882,29.9053529 49.53,30.056 50.3306471,30.2517647 L51.7277647,28.4998235 C52.9199412,27.0032941 55.0282353,26.6568824 56.6364118,27.7014706 L62.0321765,31.2061176 C63.6388235,32.2499412 64.1832941,34.3177059 63.3000588,36.0161176 L62.2669412,38.0043529 C62.7724118,38.6566471 63.2419412,39.3402941 63.6694118,40.0476471 L65.8985294,39.7952941 L65.8992941,39.7952941 C67.7911765,39.5758235 69.5331765,40.8307059 69.9331176,42.7011765 L71.2698235,48.9962353 C71.669,50.8674706 70.5930588,52.715 68.7661765,53.2923529 L66.6280588,53.9691176 C66.5248235,54.7888824 66.3734118,55.6040588 66.1768824,56.4054706 L67.9311176,57.8033529 C69.4284118,58.9962941 69.7717647,61.1061176 68.7271765,62.7127647 L65.2240588,68.107 C64.1794706,69.7121176 62.1109412,70.2542941 60.4155882,69.3756471 L58.4258235,68.3417647 C57.7727647,68.8472353 57.0898824,69.3167647 56.3832941,69.7442353 L56.6341176,71.9741176 C56.8497647,73.8751765 55.601,75.6102941 53.7274706,76.0079412 L47.4347059,77.3454118 C47.1731765,77.4012353 46.9116471,77.428 46.6547059,77.428 L46.6547059,77.428 Z" id="Fill-59"></path>
            </g>
        </g>
    </g>
</svg>