<svg width="56" height="46" xmlns="http://www.w3.org/2000/svg"><g stroke="#363537" stroke-width="1.5" fill="none" fill-rule="evenodd" stroke-linejoin="round"><path d="M55 37.391a4.696 4.696 0 01-4.696 4.696H11.565V6.87h36.392"/><path d="M47.957 33.87c.489-.833 1.492-1.174 2.347-1.174A4.696 4.696 0 0155 37.39V5.696A4.696 4.696 0 0050.304 1c-.855 0-1.944.202-2.347 1.174V33.87zM3.935 3.348C2.314 3.348 1 4.4 1 5.696v32.87l2.935 5.869 2.935-5.87V5.695c0-1.295-1.314-2.347-2.935-2.347zM1 10.391h5.87H1zm18.783 7.044h7.043v-4.696h-7.043v4.696zm12.913 0h7.043v-4.696h-7.043v4.696zm0-2.348h-5.87 5.87zm-12.913 11.74h7.043V22.13h-7.043v4.696zm12.913 0h7.043V22.13h-7.043v4.696zm0-2.349h-5.87 5.87zm-12.913 11.74h7.043v-4.696h-7.043v4.695zm16.434-18.783v4.695-4.695zm-12.913 9.391v4.696-4.696z"/></g></svg>