<svg xmlns="http://www.w3.org/2000/svg" width="53" height="56"><g fill="none" fill-rule="evenodd" stroke="#363537" stroke-linejoin="round" stroke-width="1.5"><path d="M28.045 8.45c0-2.474.217-7.45-6.153-7.45-5.075 0-9.69 5.47-9.843 8.69-3.827.515-7.462 4.287-6.957 9.106-3.637 1.798-6.275 11.402-1.53 15.957-.862 3.917 1.792 12.89 9.717 12.183 1.93 10.462 14.766 10.15 14.766 2.483V43.21M20.318 17.2c-4.416 0-8.5-.729-8.5-7.714"/><path d="M12.59 25.724c2.081 1.324 5.602.8 7.492-1.133 1.396-1.426 2.886-3.69 4.424-3.525h19.767M21.864 42.657c.915-1.837 3.112-2.314 6.224-2.314h16.185m-29.363-.772c-2.053-.321-3.865-2.253-3.865-3.857m2.319 10.8c0-4.712 2.603-10.8 9.272-10.8"/><path d="M8.727 21.829c2.134 0 3.864 1.551 3.864 3.743 0 1.73-1.075 3.426-2.575 3.97m25.757-19.285h-7.518c-3.406 0-6.758-.467-7.937-3.086m7.727 6.172v7.714m0 3.086v13.886m0-7.715h7.728m-5.409 20.057H35m17-29.314a3.86 3.86 0 01-3.864 3.857 3.86 3.86 0 01-3.863-3.857 3.86 3.86 0 013.863-3.857A3.86 3.86 0 0152 21.057z"/><path d="M42.727 11.029a3.86 3.86 0 01-3.863 3.857A3.86 3.86 0 0135 11.029a3.86 3.86 0 013.864-3.858 3.86 3.86 0 013.863 3.858zm0 20.057a3.86 3.86 0 01-3.863 3.857A3.86 3.86 0 0135 31.086a3.86 3.86 0 013.864-3.857 3.86 3.86 0 013.863 3.857zm0 19.285a3.86 3.86 0 01-3.863 3.858A3.86 3.86 0 0135 50.37a3.86 3.86 0 013.864-3.857 3.86 3.86 0 013.863 3.857zM52 40.343a3.86 3.86 0 01-3.864 3.857 3.86 3.86 0 01-3.863-3.857 3.86 3.86 0 013.863-3.857A3.86 3.86 0 0152 40.343z"/></g></svg>