<svg xmlns="http://www.w3.org/2000/svg" width="53" height="56" viewBox="0 0 53 56">
    <g fill="none" fill-rule="evenodd" stroke="#363537" stroke-linejoin="round" stroke-width="1.5">
        <path d="M28.045 8.45c0-2.474.217-7.45-6.153-7.45-5.075 0-9.69 5.47-9.843 8.69-3.827.515-7.462 4.287-6.957 9.106-3.637 1.798-6.275 11.402-1.53 15.957-.862 3.917 1.792 12.89 9.717 12.183 1.93 10.462 14.766 10.15 14.766 2.483V43.21M20.318 17.2c-4.416 0-8.5-.729-8.5-7.714"/>
        <path d="M12.59 25.724c2.081 1.324 5.602.8 7.492-1.133 1.396-1.426 2.886-3.69 4.424-3.525h19.767M21.864 42.657c.915-1.837 3.112-2.314 6.224-2.314h16.185M14.91 39.571c-2.053-.321-3.865-2.253-3.865-3.857M13.364 46.514c0-4.712 2.603-10.8 9.272-10.8"/>
        <path d="M8.727 21.829c2.134 0 3.864 1.551 3.864 3.743 0 1.73-1.075 3.426-2.575 3.97M35.773 10.257h-7.518c-3.406 0-6.758-.467-7.937-3.086M28.045 13.343v7.714M28.045 24.143v13.886M28.045 30.314h7.728M30.364 50.371H35M52 21.057a3.86 3.86 0 0 1-3.864 3.857 3.86 3.86 0 0 1-3.863-3.857 3.86 3.86 0 0 1 3.863-3.857A3.86 3.86 0 0 1 52 21.057z"/>
        <path d="M42.727 11.029a3.86 3.86 0 0 1-3.863 3.857A3.86 3.86 0 0 1 35 11.029a3.86 3.86 0 0 1 3.864-3.858 3.86 3.86 0 0 1 3.863 3.858zM42.727 31.086a3.86 3.86 0 0 1-3.863 3.857A3.86 3.86 0 0 1 35 31.086a3.86 3.86 0 0 1 3.864-3.857 3.86 3.86 0 0 1 3.863 3.857zM42.727 50.371a3.86 3.86 0 0 1-3.863 3.858A3.86 3.86 0 0 1 35 50.37a3.86 3.86 0 0 1 3.864-3.857 3.86 3.86 0 0 1 3.863 3.857zM52 40.343a3.86 3.86 0 0 1-3.864 3.857 3.86 3.86 0 0 1-3.863-3.857 3.86 3.86 0 0 1 3.863-3.857A3.86 3.86 0 0 1 52 40.343z"/>
    </g>
</svg>
