<svg xmlns="http://www.w3.org/2000/svg" width="24" height="26" viewBox="0 0 24 26">
    <defs>
        <filter id="a" width="564%" height="546.2%" x="-232%" y="-223.1%" filterUnits="objectBoundingBox">
            <feOffset dy="10" in="SourceAlpha" result="shadowOffsetOuter1"/>
            <feGaussianBlur in="shadowOffsetOuter1" result="shadowBlurOuter1" stdDeviation="10"/>
            <feColorMatrix in="shadowBlurOuter1" result="shadowMatrixOuter1" values="0 0 0 0 0.211764706 0 0 0 0 0.207843137 0 0 0 0 0.215686275 0 0 0 0.2 0"/>
            <feMerge>
                <feMergeNode in="shadowMatrixOuter1"/>
                <feMergeNode in="SourceGraphic"/>
            </feMerge>
        </filter>
    </defs>
    <path fill="#222" fill-rule="evenodd" d="M19.412 18.946l4.562-4.477a.984.984 0 0 0 0-1.417 1.044 1.044 0 0 0-1.45 0l-4.572 4.48-4.698 4.599c-2.736 2.66-6.545 2.45-9.435-.206-2.362-2.512-2.495-6.226.195-8.843L14.36 3.015c1.941-1.891 4.991-.685 5.93.229 2.12 2.062.563 4.678-.184 5.403l-7.77 7.56c-1.465 1.424-2.552 1.375-3.165.775-.529-.513-.921-1.43.45-2.764l5.463-5.285.705-.7a.98.98 0 0 0-.02-1.384 1.042 1.042 0 0 0-1.419-.023L8.166 12.8c-2.616 2.548-1.654 4.426-.45 5.598 2.329 2.264 4.61.652 6.077-.776l7.77-7.557c1.149-1.12 3.159-5.337.148-8.267-1.766-1.724-6.03-2.9-8.806-.2L2.557 11.667c-3.423 3.33-3.328 8.342-.202 11.657 3.718 3.428 8.858 3.624 12.354.223l4.703-4.602z" filter="url(#a)"/>
</svg>
