<svg width="47" height="55" xmlns="http://www.w3.org/2000/svg"><g transform="translate(1 1)" stroke="#363537" stroke-width="1.5" fill="none" fill-rule="evenodd" stroke-linejoin="round"><path d="M39.69 14.936C39.77 4.843 32.894 0 22.94 0 12.987 0 6.113 4.843 6.193 14.936H39.69zm-1.197 22.979v1.149c0 2.994-1.353 4.546-3.698 6.519-1.682 1.415-3.685 2.856-5.465 4.11-3.809 2.679-8.97 2.679-12.78 0-1.78-1.254-3.782-2.695-5.464-4.11-2.346-1.973-3.698-3.525-3.698-6.52v-1.148m3.589 8.042V54m23.927-8.043V54M16.067 18.383l12.92.117"/><rect y="15" width="45" height="21" rx="7"/><path d="M19.5 14.5V.5m8 14V.5"/></g></svg>