<svg width="52" height="55" xmlns="http://www.w3.org/2000/svg"><g stroke="#363537" stroke-width="1.5" fill="none" fill-rule="evenodd" stroke-linejoin="round"><path d="M42.087 38.572h5.537a.89.89 0 00.783-1.313c-.436-.817-.81-1.594-.743-1.826.104-.361.698-.464 2.091-1.29 1.395-.827 1.24-1.964.671-2.84-.567-.879-4.34-5.787-4.44-7.282-.065-.969 1.097-3.408.284-7.242-.814-3.835-5.332-16.12-21.792-15.772C8.018 1.356 1 12.557 1 20.497 1 28.436 5.031 32.3 6.34 36.155c1.73 5.09 2.656 10.982-.57 17.678m25.751.249c.74-3.076 2.146-5.697 3.42-6.224"/><path d="M29.174 40.92c1.1 3.082 1.926 5.826 2.975 6.161 1.573.499 7.818 2.27 10.17 1.376 2.352-.895 1.89-3.037 1.923-3.676.086-1.58 1.679-1.769 1.44-3.885M16.26 15.094a3.522 3.522 0 11-7.042 0 3.522 3.522 0 017.043 0zm23.48 0a3.522 3.522 0 11-7.044 0 3.522 3.522 0 017.043 0zM28 9.225a3.522 3.522 0 11-7.043 0 3.522 3.522 0 017.043 0zm-3.522 3.521V46.79"/><path d="M33.87 17.442l-4.696 4.696v7.043M15.087 17.442l4.696 4.696v7.043m-4.696-2.348a3.522 3.522 0 11-7.043 0 3.522 3.522 0 017.043 0z"/><path d="M13.913 29.181l4.696 4.696v19.956m22.304-27a3.522 3.522 0 11-7.043 0 3.522 3.522 0 017.043 0z"/><path d="M35.043 29.181l-5.87 5.87v2.348"/></g></svg>