<svg width="56" height="56" xmlns="http://www.w3.org/2000/svg"><g stroke="#363537" stroke-width="1.5" fill="none" fill-rule="evenodd" stroke-linejoin="round"><path d="M31.14 8.535v-6.28H21.093v5.682a19.967 19.967 0 00-5.168 2.14L11.908 6.06l-7.104 7.104L8.82 17.18a19.967 19.967 0 00-2.14 5.168H1v10.046h5.681a19.967 19.967 0 002.14 5.168L4.804 41.58l7.104 7.105 4.017-4.018a19.967 19.967 0 005.168 2.14v5.681H31.14V46.21m2.511-32.652h1.256l6.279-6.279"/><path d="M41.186 48.72l-7.535-7.534h-7.535c-7.629 0-13.814-6.185-13.814-13.814 0-7.629 6.185-13.814 13.814-13.814"/><path d="M27.372 33.651h-1.256a6.28 6.28 0 010-12.558h10.047l5.023-5.023h6.28m-.001 23.86h-5.023l-6.28-6.279h-1.255M47.465 4.767a3.767 3.767 0 11-7.534 0 3.767 3.767 0 017.534 0zM55 16.07a3.767 3.767 0 11-7.534 0 3.767 3.767 0 017.534 0zm0 11.302a3.767 3.767 0 11-7.534 0 3.767 3.767 0 017.534 0zm0 12.558a3.767 3.767 0 11-7.534 0 3.767 3.767 0 017.534 0zm-7.535 11.303a3.767 3.767 0 11-7.534 0 3.767 3.767 0 017.534 0zM34.907 27.372h11.302m-21.349 0h2.512m2.512 0h2.511m-2.511 6.279h2.511m-3.767-20.093h2.512"/></g></svg>