<svg xmlns="http://www.w3.org/2000/svg" width="126" height="35" viewBox="0 0 126 35">
    <g fill="#FFF" fill-rule="evenodd">
        <path d="M25.656 10.894c-.055.496-.425.904-.735.904h-2.576c-.688 0-.86.87-.86.87l-2.836 10.866s-.172.869-.945.869h-8.68c-.344 0-.516-.144-.516-.404 0-.42.344-1.068.86-1.068h3.847c.515 0 1.268-.384 1.48-1.217.214-.833 2.665-9.824 2.837-10.345.172-.521.43-.869.945-.869h6.703c.344 0 .515.036.476.394zM9.453 20.84c.172-.521 2.493-9.037 2.665-9.558.171-.521.257-.869.859-.869h2.836c.344 0 .495.345.344.87-.151.523-2.494 8.953-2.664 9.557-.17.604-.47.869-.814.869h-2.79c-.43 0-.607-.26-.436-.869zM17.188.073C7.735.073 0 7.893 0 17.451S7.735 34.83 17.188 34.83c9.454 0 17.188-7.82 17.188-17.378 0-9.557-7.734-17.378-17.188-17.378zM41.937 21.84h.961v-8.762h-.96v8.762zm-.168-11.293a.625.625 0 0 1 .657-.652c.203 0 .364.063.484.19.12.125.18.28.18.462 0 .183-.06.335-.18.459a.645.645 0 0 1-.484.185c-.203 0-.363-.062-.48-.185a.64.64 0 0 1-.177-.459zM46.415 13.078l.032 1.498c.325-.54.731-.952 1.217-1.235a3.135 3.135 0 0 1 1.61-.425c.93 0 1.62.264 2.075.793.454.53.683 1.323.689 2.381v5.75h-.954v-5.758c-.005-.782-.17-1.366-.492-1.749-.323-.383-.84-.575-1.55-.575-.593 0-1.117.188-1.574.563-.457.375-.794.881-1.013 1.518v6.001h-.953v-8.762h.913M56.003 10.835v2.243h1.794v.793h-1.794v5.846c0 .486.086.849.26 1.086.173.238.463.357.869.357.16 0 .419-.027.777-.081l.04.787c-.251.09-.593.136-1.025.136-.657 0-1.135-.193-1.434-.579-.3-.386-.449-.954-.449-1.705v-5.847h-1.594v-.793h1.594v-2.243h.962M62.963 13.742c-.72 0-1.328.267-1.822.802-.494.534-.795 1.252-.901 2.154h5.198v-.106c-.027-.842-.264-1.527-.713-2.056-.448-.53-1.036-.794-1.762-.794zm.176 8.26a3.73 3.73 0 0 1-1.998-.55 3.737 3.737 0 0 1-1.39-1.535c-.331-.656-.497-1.392-.497-2.207v-.348c0-.842.162-1.6.485-2.276.323-.675.773-1.205 1.35-1.591a3.305 3.305 0 0 1 1.874-.58c1.052 0 1.886.364 2.503 1.09.617.726.925 1.718.925 2.976v.543h-6.183v.186c0 .993.281 1.82.845 2.482.563.662 1.272.992 2.126.992.513 0 .965-.094 1.358-.283.392-.19.749-.491 1.07-.907l.6.461c-.705 1.032-1.727 1.547-3.068 1.547zM68.37 21.84h.96V9.401h-.96zM72.046 21.84h.961V9.401h-.96zM78.79 13.742c-.72 0-1.328.267-1.822.802-.494.534-.794 1.252-.9 2.154h5.197v-.106c-.026-.842-.264-1.527-.712-2.056-.449-.53-1.036-.794-1.763-.794zm.177 8.26a3.73 3.73 0 0 1-1.999-.55 3.736 3.736 0 0 1-1.39-1.535c-.33-.656-.496-1.392-.496-2.207v-.348c0-.842.161-1.6.485-2.276.322-.675.772-1.205 1.35-1.591a3.305 3.305 0 0 1 1.873-.58c1.052 0 1.887.364 2.504 1.09.616.726.925 1.718.925 2.976v.543h-6.184v.186c0 .993.282 1.82.845 2.482.563.662 1.272.992 2.127.992.512 0 .965-.094 1.357-.283.393-.19.75-.491 1.07-.907l.6.461c-.704 1.032-1.727 1.547-3.067 1.547zM87.289 21.184c.667 0 1.227-.19 1.678-.57.451-.381.695-.874.733-1.479h.92a2.763 2.763 0 0 1-.496 1.462c-.304.44-.709.784-1.213 1.033a3.625 3.625 0 0 1-1.622.372c-1.138 0-2.039-.4-2.703-1.198-.665-.8-.998-1.874-.998-3.224v-.291c0-.864.15-1.628.449-2.292.299-.664.727-1.177 1.285-1.539.558-.361 1.211-.542 1.959-.542.95 0 1.734.286 2.35.858.618.573.947 1.326.99 2.26H89.7c-.043-.686-.287-1.24-.733-1.66-.446-.422-1.008-.632-1.686-.632-.865 0-1.537.316-2.015.947-.478.632-.716 1.518-.716 2.657v.283c0 1.118.238 1.99.716 2.616.478.626 1.152.94 2.023.94M94.025 10.835v2.243h1.794v.793h-1.794v5.846c0 .486.087.849.26 1.086.174.238.464.357.87.357.16 0 .419-.027.776-.081l.04.787c-.25.09-.592.136-1.025.136-.657 0-1.134-.193-1.433-.579-.3-.386-.45-.954-.45-1.705v-5.847H91.47v-.793h1.594v-2.243h.961M102.14 19.419c0-.286-.141-.512-.421-.676-.28-.165-.73-.312-1.35-.442-2.061-.437-3.092-1.323-3.092-2.656 0-.777.32-1.427.957-1.948.638-.52 1.473-.781 2.503-.781 1.1 0 1.98.262 2.64.785.659.524.989 1.204.989 2.041h-2.315a1.14 1.14 0 0 0-.32-.83c-.214-.219-.548-.328-1.002-.328-.39 0-.691.09-.905.267a.847.847 0 0 0-.32.68c0 .26.121.469.364.628.243.16.653.297 1.23.413a9.964 9.964 0 0 1 1.458.393c1.222.454 1.834 1.24 1.834 2.357 0 .799-.34 1.445-1.017 1.94-.679.493-1.554.74-2.628.74-.726 0-1.37-.13-1.934-.393-.563-.261-1.005-.62-1.326-1.077a2.52 2.52 0 0 1-.48-1.478H99.2c.02.416.173.735.456.956.283.221.662.332 1.137.332.444 0 .779-.085 1.006-.255a.796.796 0 0 0 .34-.668M107.834 17.544c0 .833.155 1.47.465 1.91.31.441.753.661 1.33.661.56 0 .997-.217 1.313-.653.315-.435.473-1.131.473-2.088 0-.817-.158-1.45-.473-1.898-.316-.449-.759-.673-1.33-.673-.566 0-1.004.223-1.313.669-.31.446-.465 1.137-.465 2.072zm-2.315-.166c0-.87.166-1.644.497-2.324a3.66 3.66 0 0 1 1.43-1.58c.622-.372 1.344-.558 2.166-.558 1.17 0 2.124.362 2.863 1.085.74.724 1.153 1.706 1.238 2.948l.017.6c0 1.343-.372 2.422-1.115 3.234-.741.813-1.737 1.22-2.986 1.22-1.25 0-2.247-.406-2.992-1.216-.745-.81-1.118-1.91-1.118-3.304v-.105zM115.788 21.84v-7.045h-1.29v-1.717h1.29v-.745c0-.983.279-1.745.837-2.288.557-.543 1.338-.814 2.343-.814.32 0 .712.054 1.177.16l-.024 1.8a2.912 2.912 0 0 0-.704-.073c-.87 0-1.306.417-1.306 1.25v.71h1.722v1.717h-1.722v7.045h-2.323M123.805 10.924v2.154h1.482v1.717h-1.482v4.373c0 .324.062.556.185.696.123.14.358.21.704.21.257 0 .484-.018.682-.056v1.774c-.454.14-.921.21-1.402.21-1.623 0-2.451-.829-2.483-2.486v-4.721h-1.266v-1.717h1.266v-2.154h2.314"/>
    </g>
</svg>
