<svg width="50" height="56" xmlns="http://www.w3.org/2000/svg"><path d="M42.35 15.82l-.199-.208c-1.016-1.064-1.306-2.448-.642-3.074l2.826-2.647c1.023-.965 2.69-.884 3.707.182l.198.207c1.017 1.065 1.012 2.724-.01 3.688l-2.825 2.649c-.664.625-2.038.267-3.055-.798zM21.076 55s2.298-2.354 3.543-3.522c9.627.701 13.21-5.927 14.171-7.043m4.293-6.643l-.198-.172c-1.02-.874-1.4-2.113-.843-2.754l2.367-2.708c.857-.987 2.392-1.078 3.412-.203l.199.17c1.019.875 1.153 2.397.297 3.383l-2.369 2.71c-.556.64-1.845.448-2.865-.426zm-20.826 8.99c2.564-7.28.057-13.816-2.264-16.729.972-2.909 1.372-4.985 1.696-8.405.187-1.966-.652-3.653-1.527-4.87-.895-1.247-3.079-.96-3.517.434-1.93 6.143-2.293 7.814-3.487 10.9-1.337 3.45-.57 8.29-1.234 9.707-.134.283-2.657 4.268-2.657 4.268m33.835-11.676l-.202-.174c-1.038-.89-1.424-2.15-.86-2.802l2.41-2.756c.871-1.004 2.433-1.096 3.471-.205l.202.172c1.037.89 1.174 2.44.304 3.443l-2.41 2.755c-.566.652-1.878.457-2.915-.433zm-.001-7.195l-.202-.172c-1.038-.89-1.424-2.152-.859-2.804l2.41-2.755c.871-1.003 2.433-1.096 3.47-.206l.203.173c1.037.89 1.174 2.439.303 3.442l-2.41 2.755c-.566.653-1.877.458-2.915-.433zM29.343 40.913h3.543-3.543zm0-36.391h3.543-3.543zm14.171 5.87v-5.87C43.514 2.577 41.928 1 39.971 1H22.258c-1.958 0-3.544 1.575-3.543 3.52v11.74m3.542 28.175h17.714c1.957 0 3.543-1.577 3.543-3.522v-2.348M22.257 55L6.905 39.74 1 45.608 10.448 55h11.81zM6.905 45.609l2.362 2.348-2.362-2.348zm16.533-8.218h18.895-18.895z" stroke="#fff" stroke-width="1.5" fill="none" stroke-linejoin="round"/></svg>