<svg xmlns="http://www.w3.org/2000/svg" width="245" height="95" viewBox="0 0 245 95">
    <g fill="#E5E5E5" fill-rule="evenodd">
        <circle cx="242.5" cy="92.5" r="2.5"/>
        <circle cx="212.5" cy="92.5" r="2.5"/>
        <circle cx="182.5" cy="92.5" r="2.5"/>
        <circle cx="152.5" cy="92.5" r="2.5"/>
        <circle cx="122.5" cy="92.5" r="2.5"/>
        <circle cx="92.5" cy="92.5" r="2.5"/>
        <circle cx="62.5" cy="92.5" r="2.5"/>
        <circle cx="32.5" cy="92.5" r="2.5"/>
        <circle cx="2.5" cy="92.5" r="2.5"/>
        <circle cx="242.5" cy="62.5" r="2.5"/>
        <circle cx="212.5" cy="62.5" r="2.5"/>
        <circle cx="182.5" cy="62.5" r="2.5"/>
        <circle cx="152.5" cy="62.5" r="2.5"/>
        <circle cx="122.5" cy="62.5" r="2.5"/>
        <circle cx="92.5" cy="62.5" r="2.5"/>
        <circle cx="62.5" cy="62.5" r="2.5"/>
        <circle cx="32.5" cy="62.5" r="2.5"/>
        <circle cx="2.5" cy="62.5" r="2.5"/>
        <circle cx="242.5" cy="32.5" r="2.5"/>
        <circle cx="212.5" cy="32.5" r="2.5"/>
        <circle cx="182.5" cy="32.5" r="2.5"/>
        <circle cx="152.5" cy="32.5" r="2.5"/>
        <circle cx="122.5" cy="32.5" r="2.5"/>
        <circle cx="92.5" cy="32.5" r="2.5"/>
        <circle cx="62.5" cy="32.5" r="2.5"/>
        <circle cx="32.5" cy="32.5" r="2.5"/>
        <circle cx="2.5" cy="32.5" r="2.5"/>
        <circle cx="242.5" cy="2.5" r="2.5"/>
        <circle cx="212.5" cy="2.5" r="2.5"/>
        <circle cx="182.5" cy="2.5" r="2.5"/>
        <circle cx="152.5" cy="2.5" r="2.5"/>
        <circle cx="122.5" cy="2.5" r="2.5"/>
        <circle cx="92.5" cy="2.5" r="2.5"/>
        <circle cx="62.5" cy="2.5" r="2.5"/>
        <circle cx="32.5" cy="2.5" r="2.5"/>
        <circle cx="2.5" cy="2.5" r="2.5"/>
    </g>
</svg>
