<?xml version="1.0" encoding="utf-8"?>
<!-- Generator: Avocode 2.5.4 - http://avocode.com -->
<svg height="42" width="41" xmlns:xlink="http://www.w3.org/1999/xlink" xmlns="http://www.w3.org/2000/svg" viewBox="0 0 41 42">
    <path fill="#97743a" fill-rule="evenodd" d="M 40.85 27.77 C 40.72 27.91 40.6 27.96 40.43 27.96 C 40.29 27.96 37.02 27.94 34.69 26.08 C 32.92 24.56 29.07 20.17 27.93 18.86 C 27.93 18.86 27.56 18.43 27.56 18.43 C 27.56 18.43 27.56 35 27.56 35 C 27.56 38.77 24.54 41.85 20.82 41.85 C 17.83 41.85 15.16 39.73 14.33 36.71 C 14.33 36.71 14.31 36.63 14.31 36.63 C 14.31 36.63 13.73 36.23 13.73 36.23 C 11.49 34.69 5.53 30.59 3.87 28.13 C 1.28 24.7 2.53 21.02 3.55 19.55 C 3.63 19.42 3.81 19.33 3.99 19.33 C 4.06 19.33 4.12 19.34 4.18 19.37 C 4.41 19.49 4.63 19.73 4.57 20.05 C 4.41 20.78 4.28 23.1 5.27 24.11 C 5.64 24.58 6.11 24.78 6.84 24.78 C 6.84 24.78 6.91 24.77 6.91 24.77 C 7.19 24.67 7.28 24.55 7.3 24.44 C 7.51 23.72 6.65 22.49 6.25 21.97 C 6.05 21.76 6.09 21.5 6.13 21.38 C 6.25 21.19 6.45 20.99 6.72 20.99 C 7.21 20.97 8.89 20.98 9.92 22.02 C 10.54 22.66 10.84 23.61 10.77 24.71 C 10.42 28.08 11.71 29.22 12.28 29.55 C 12.28 29.55 12.52 29.7 12.52 29.7 C 12.89 29.93 13.31 30.19 13.79 30.4 C 13.79 30.4 14.09 30.53 14.09 30.53 C 14.09 30.53 14.09 24.16 14.09 24.16 C 14.09 24.16 13.46 23.16 13.46 23.16 C 13.02 22.63 3.28 10.18 1.57 7.2 C -0.32 3.85 0.98 0.7 1 0.67 C 1 0.67 1.25 0.17 1.25 0.17 C 1.25 0.17 4.98 1.41 4.98 1.41 C 4.98 1.41 4.98 3.4 4.98 3.4 C 4.98 3.4 6.63 3.4 6.63 3.4 C 6.63 3.4 6.63 5.76 6.63 5.76 C 6.63 5.76 8.62 5.76 8.62 5.76 C 8.62 5.76 8.62 8.45 8.62 8.45 C 8.62 8.45 10.43 8.45 10.43 8.45 C 10.43 8.45 10.43 10.98 10.43 10.98 C 10.43 10.98 12.25 10.98 12.25 10.98 C 12.25 10.98 12.25 13.16 12.25 13.16 C 12.25 13.16 14.09 13.16 14.09 13.16 C 14.09 13.16 14.09 8.57 14.09 8.57 C 14.09 4.79 17.11 1.72 20.82 1.72 C 23.75 1.72 26.33 3.69 27.24 6.62 C 27.24 6.62 27.23 6.68 27.23 6.68 C 27.23 6.68 27.31 6.73 27.31 6.73 C 27.65 7.02 33.96 14.36 37.19 18.88 C 40.85 23.94 40.96 27.22 40.96 27.25 C 40.96 27.25 40.97 27.32 40.97 27.32 C 41.02 27.48 40.98 27.65 40.85 27.77 Z M 14.09 14.33 C 14.09 14.33 11.11 14.33 11.11 14.33 C 11.11 14.33 11.11 12.14 11.11 12.14 C 11.11 12.14 9.29 12.14 9.29 12.14 C 9.29 12.14 9.29 9.61 9.29 9.61 C 9.29 9.61 7.55 9.61 7.55 9.61 C 7.55 9.61 7.55 6.92 7.55 6.92 C 7.55 6.92 5.57 6.92 5.57 6.92 C 5.57 6.92 5.57 4.56 5.57 4.56 C 5.57 4.56 3.75 4.56 3.75 4.56 C 3.75 4.56 3.75 2.27 3.75 2.27 C 3.75 2.27 1.8 1.64 1.8 1.64 C 1.8 1.64 1.75 1.88 1.75 1.88 C 1.45 3.59 1.71 5.17 2.52 6.57 C 3.55 8.42 7.78 13.93 10.87 17.95 C 12.05 19.48 13.07 20.81 13.7 21.66 C 13.7 21.66 14.09 22.18 14.09 22.18 C 14.09 22.18 14.09 14.33 14.09 14.33 Z M 14.09 31.56 C 14.09 31.56 13.95 31.51 13.95 31.51 C 13.25 31.24 12.22 30.75 11.67 30.35 C 9.98 29.29 9.24 27.21 9.54 24.34 C 9.63 23.61 9.45 23.03 8.98 22.55 C 8.81 22.38 8.61 22.18 8.32 22.08 C 8.32 22.08 7.83 21.91 7.83 21.91 C 7.83 21.91 8.06 22.39 8.06 22.39 C 8.39 23.07 8.51 23.76 8.38 24.32 C 8.38 24.32 8.36 24.35 8.36 24.35 C 8.21 24.67 7.98 25.15 7.22 25.44 C 7.22 25.44 7.08 25.44 7.08 25.44 C 5.9 25.52 5.09 25.23 4.41 24.47 C 4.12 24.25 3.97 23.94 3.81 23.62 C 3.81 23.62 3.31 22.61 3.31 22.61 C 3.31 22.61 3.4 23.74 3.4 23.74 C 3.48 24.62 3.69 25.93 4.68 27.13 C 6.06 29.08 10.38 32.26 13.75 34.59 C 13.75 34.59 14.09 34.82 14.09 34.82 C 14.09 34.82 14.09 31.56 14.09 31.56 Z M 26.33 8.49 C 26.33 5.4 23.77 2.8 20.74 2.8 C 17.71 2.8 15.15 5.4 15.15 8.49 C 15.15 8.49 15.15 34.66 15.15 34.66 C 15.15 37.74 17.71 40.35 20.74 40.35 C 23.77 40.35 26.33 37.74 26.33 34.66 C 26.33 34.66 26.33 8.49 26.33 8.49 Z M 39.48 25.95 C 39.05 24.72 38.26 22.43 36.22 19.72 C 34.07 16.68 30.46 12.24 28.02 9.35 C 28.02 9.35 27.65 8.93 27.65 8.93 C 27.65 8.93 27.47 16.49 27.47 16.49 C 27.47 16.49 27.54 16.55 27.54 16.55 C 27.89 16.91 28.56 17.66 29.42 18.62 C 31.38 20.82 34.08 23.84 35.41 24.9 C 36.65 25.89 38.39 26.3 39.32 26.46 C 39.32 26.46 39.68 26.52 39.68 26.52 C 39.68 26.52 39.48 25.95 39.48 25.95 Z M 21.35 36.97 C 21.35 36.97 20.21 36.97 20.21 36.97 C 20.21 36.97 20.21 35.03 20.21 35.03 C 20.21 35.03 18.31 35.03 18.31 35.03 C 18.31 35.03 18.31 33.87 18.31 33.87 C 18.31 33.87 20.21 33.87 20.21 33.87 C 20.21 33.87 20.21 31.93 20.21 31.93 C 20.21 31.93 21.35 31.93 21.35 31.93 C 21.35 31.93 21.35 33.87 21.35 33.87 C 21.35 33.87 23.25 33.87 23.25 33.87 C 23.25 33.87 23.25 35.03 23.25 35.03 C 23.25 35.03 21.35 35.03 21.35 35.03 C 21.35 35.03 21.35 36.97 21.35 36.97 Z M 20.74 9.95 C 20.08 9.95 19.55 9.41 19.55 8.74 C 19.55 8.07 20.08 7.53 20.74 7.53 C 21.4 7.53 21.93 8.07 21.93 8.74 C 21.93 9.41 21.4 9.95 20.74 9.95 Z" />
</svg>