<?xml version="1.0" encoding="utf-8"?>
<!-- Generator: Avocode 2.5.3 - http://avocode.com -->
<svg height="18" width="21" xmlns:xlink="http://www.w3.org/1999/xlink" xmlns="http://www.w3.org/2000/svg" viewBox="0 0 21 18">
    <path fill="#97743a" fill-rule="evenodd" d="M 20.56 0 C 20.56 0 20.56 0 20.56 0 C 20.32 0 20.13 0.2 20.13 0.43 C 20.13 0.43 20.13 0.49 20.13 0.49 C 20.11 2.38 18.25 5.55 17.54 6.62 C 16.81 7.71 15.83 8.22 15.27 8.43 C 15.12 7.49 14.66 5.58 13.29 4.98 C 13.29 4.98 13.24 4.96 13.24 4.96 C 12.46 4.63 11.49 4.44 10.5 4.44 C 9.5 4.44 8.53 4.63 7.75 4.96 C 7.75 4.96 7.71 4.98 7.71 4.98 C 6.33 5.58 5.87 7.49 5.72 8.43 C 5.16 8.22 4.18 7.71 3.45 6.62 C 2.74 5.56 0.89 2.38 0.88 0.48 C 0.88 0.48 0.88 0.43 0.88 0.43 C 0.88 0.2 0.68 0 0.44 0 C 0.44 0 0.44 0 0.44 0 C 0.2 0 0 0.19 0 0.43 C 0 0.43 0 7.45 0 7.45 C 0 13.23 4.67 17.96 10.42 18 C 10.42 18 10.5 18 10.5 18 C 10.5 18 10.5 18 10.5 18 C 13.3 18 15.94 16.92 17.92 14.95 C 19.9 12.98 20.99 10.36 20.99 7.58 C 20.99 7.58 21 0.49 21 0.49 C 21 0.47 21 0.45 21 0.43 C 21 0.19 20.8 0 20.56 0 Z M 12.98 11.99 C 12.79 12.22 12.53 12.34 12.19 12.35 C 12.16 12.35 12.14 12.35 12.12 12.35 C 12.12 12.35 12.12 12.35 12.12 12.35 C 11.8 12.35 11.65 12.28 11.62 12.22 C 11.51 12 11.84 11.29 12.21 10.8 C 12.31 10.67 12.33 10.5 12.26 10.35 C 12.18 10.2 12.03 10.11 11.87 10.11 C 11.87 10.11 9.13 10.11 9.13 10.11 C 8.96 10.11 8.81 10.2 8.73 10.35 C 8.66 10.5 8.68 10.67 8.78 10.8 C 9.15 11.29 9.48 12 9.37 12.22 C 9.34 12.28 9.19 12.35 8.87 12.35 C 8.85 12.35 8.83 12.35 8.81 12.35 C 8.46 12.34 8.2 12.22 8.01 11.99 C 7.48 11.36 7.56 10.03 7.63 9.57 C 7.63 9.56 7.63 9.55 7.63 9.54 C 7.63 9.53 7.79 8.12 8.6 7.85 C 9.42 7.57 10.15 7.23 10.5 7.07 C 10.84 7.23 11.57 7.57 12.4 7.85 C 13.07 8.08 13.32 9.15 13.36 9.54 C 13.36 9.55 13.37 9.56 13.37 9.56 C 13.44 10.03 13.51 11.36 12.98 11.99 Z" />
</svg>