<svg xmlns="http://www.w3.org/2000/svg" width="99" height="28"><path fill="#171717" fill-rule="evenodd" d="M97.637 10.08h-8.546a.47.47 0 0 1-.464-.476v-.636a.54.54 0 0 1 .482-.552c.265-.03 8.527-.868 8.527-.868.387-.04.707.324.707.727v1.077a.737.737 0 0 1-.206.514.698.698 0 0 1-.5.214zm-4.351 1.418c3.717 0 5.353 2.85 5.353 5.703 0 .606-.285.963-.921.963h-6.91c.074 1.284 1.06 2.442 2.484 2.442 1.008 0 1.688-.375 2.153-1.078a.803.803 0 0 1 .682-.366h1.625c.374.001.553.36.495.635-.423 2.031-2.665 3.268-4.94 3.268-3.322 0-5.386-2.745-5.386-5.864 0-2.927 1.927-5.703 5.365-5.703zm2.474 4.483c-.11-1.262-1.206-2.193-2.474-2.193-1.27 0-2.346.932-2.458 2.193h4.932zm-9.548 6.876h-1.24a.828.828 0 0 1-.592-.255.874.874 0 0 1-.244-.61V8.614c0-.478.373-.866.837-.866h1.238a.85.85 0 0 1 .837.864V21.99a.874.874 0 0 1-.243.611.828.828 0 0 1-.593.256zm-3.246-8.87H81.08l.002 4.951c0 .971.57 1.636 1.59 1.636l.17-.001a.63.63 0 0 1 .453.191c.12.123.187.29.187.464v.973a.665.665 0 0 1-.186.464.63.63 0 0 1-.452.193h-1.137c-2.125 0-3.464-1.665-3.464-3.518l-.001-5.353h-.61a.578.578 0 0 1-.415-.177.61.61 0 0 1-.17-.427v-.896c0-.334.263-.605.588-.605l.607.001-.002-3.29c0-.224.085-.438.238-.596a.807.807 0 0 1 .578-.248h1.209c.45 0 .815.38.815.846v3.288h1.884c.324 0 .588.269.588.604v.896a.596.596 0 0 1-.586.604zM76.3 15.032h-1.339c-.335 0-.579-.059-.704-.361-.263-.629-.99-.994-1.964-.994-.911 0-1.641.277-1.641 1.093 0 .539.567.744 1.177.907l2.566.675c1.67.438 2.698 1.535 2.698 3.12 0 2.736-2.754 3.583-4.73 3.583-2.786 0-4.807-1.627-4.807-3.182v-.18c0-.32.274-.531.511-.531h1.362c.405 0 .672.056.825.451.264.68 1.184 1.106 2.108 1.106.972 0 1.866-.298 1.866-1.172 0-.554-.56-.752-1.186-.921-.581-.158-1.774-.462-2.473-.65-1.533-.414-2.78-1.384-2.78-3.013 0-2.13 1.785-3.467 4.503-3.467 2.628 0 4.483 1.434 4.483 3.041a.495.495 0 0 1-.475.495zm-.382-4.878h-20.43v11.75c0 .526-.41.953-.92.953h-1.69c-.69 0-1.165-.359-1.446-.843-.208-.357-5.078-9.442-5.078-9.442l.075 9.33a.939.939 0 0 1-.92.955h-1.182c-.509 0-.92-.427-.92-.952V8.594c0-.525.411-.951.92-.951h1.84a1.63 1.63 0 0 1 1.447.83c.252.458 5.075 9.453 5.075 9.453l-.077-9.077c0-.525.412-.952.92-.952h22.384a.64.64 0 0 1 .63.649v.96a.655.655 0 0 1-.183.458.62.62 0 0 1-.445.19zm-37.333 13.42a31.615 31.615 0 0 1-2.685-1.731l1.025 3.11c.262.796 0 .89-.462.89-.463 0-.88-.112-1.135.056-.254.168-.571.629-.952 1.032-.336.355-.825.262-.925-.404l-1.229-7.676a28.492 28.492 0 0 1-2.243-2.321c-.314-.14-.626-.286-.936-.437-.044.848.035 1.685.113 1.954.002.017.001.042-.016.059-.175.18-.632.706-.632.706l.01 1.386c0 .043-.013.064-.05.117a3.07 3.07 0 0 1-.388.432c-.313.313-2.228 1.685-3.137 2.101-.912.435-1.864.707-2.29.852-.277.029-1 .074-1.507.074-.484 0-2.524-.054-3.22-.065-.258-.006-1.146.13-1.903.282-.422.085-.758.205-1.02.267-.17.04-.332.037-.38.037-.84 0-1.651-.356-2.146-.632-.938.468-3.06 2.327-3.441 2.636-.381.308-.77.575-.907.692-.643.253-1.321.462-1.937.462-.267 0-.469-.028-.57-.17a1.99 1.99 0 0 0-1.625-.794c-.281.007-.46.034-.542.071-.413-.198-.749-.502-1.097-1.182-.35-.68-.515-1.694-.515-2.016 0-.366-.005-.725.034-1.047.055-.45.186-.848.312-1.073.191-.112.42-.259.621-.285 1.012-.13 2.417-.721 3.12-1.006-.516-.501-1.23-1.472-1.36-1.63-.367-.456-.299-.92-.38-1.342l-.646-1.418c-.09-.17-.096-.204.02-.338.133-.153.297-.323.297-.494 0-.102-.344-.629-.413-.728-.068-.098-.057-.17.102-.273.245-.16.375-.29.375-.646 0-.15-.055-.31-.055-.45 0-.85 1.489-1.321 3.718-1.583.208-.29.421-.571.64-.844-.72.044-2.452.254-2.896.3l.334-.611c.594.083 2.338-.09 3.01-.227.046-.056.093-.11.141-.165-.63-.75-2.325-2.517-2.471-2.677 0 0 .151-.428.305-.625.391.836 1.83 2.368 2.534 2.893a22.561 22.561 0 0 1 3.867-3.356c.511-.346.7-.6 1.001-1.202.572-1.144 1.177-2.436 2.617-2.436.598 0 .989.224 1.394.716l1.553.512-1.009.57 1 .42c-1.427.56-2.916 1.37-3.353 2.757.374.097.67.3.909.521l1.365.524-1.002.574.902.513c-1.27.406-2.096.933-2.67 1.56.888-.01 1.783-.044 2.666-.044 2.633 0 4.57.121 5.907.356-1.02-2.002-.649-2.958-1.194-3.839-.45-.728-2.637-.274-2.999-.196l.632-1.082-1.247.103 1.057-1.297c.115-.168.17-.322.292-.772.186-.683.755-1.85 2.42-1.85 1.847 0 2.42 1.544 3.225 2.214A50.42 50.42 0 0 1 29.7 7.253c.52-.317 1.173-.834 1.621-1.545.52-.826.943-1.848.944-2.775l2.203.215c-.31.406-.82 1.333-1.015 1.997-.1.347-.096.624.027.718.233.18.642-.108 1.04-.547.56-.622 1.107-1.558 1.35-1.893l1.593 1.366c-.708.387-1.395.83-1.258 1.078.124.227.579.159 1.076.001a5.708 5.708 0 0 0 1.182-.53v2.224c-.768-.01-2.07.137-3.323.53.298.435 1.154.593 1.697.671l-.272 1.805c-1.37-.595-2.429-.941-4.09-.974a2.91 2.91 0 0 0-.374.495c2.223 3.352 4.987 9.76 6.208 12.693.119.283.203.571.277.791zm-3.253 1.258c.097.377.25.495.676.515.427.019.518-.15.427-.44l-1.083-3.462a38.986 38.986 0 0 1-1.02-.785l1 4.172zm-1.455 1.198c.083.393.408.328.672-.018.263-.347.363-.44.263-.9l-1.044-4.909a38 38 0 0 1-1.003-.859l1.112 6.686zM18.426 11.368c-1.044 0-2.108.04-3.16.053-.425.688-.662 1.466-.903 2.316l-.48-.112c.652-2.566 1.777-3.908 3.59-4.494l-.634-.402.757-.479-.694-.234c-.326-.317-.734-.486-1.115-.486-.776 0-1.17.563-1.537 1.32-.187.386-.558.786-1.338 1.33l-3.954 2.733-.589-.085 4.28-3.08c.535-.374.903-.57 1.134-1.066.341-.732.847-1.608 1.893-1.665.543-1.446 1.886-2.433 2.868-2.718l-.753-.309.737-.515-.728-.224c-.263-.338-.646-.61-1.115-.61-1.005 0-1.583.995-2.195 2.287-.252.53-.415.815-1.134 1.3-1.977 1.336-4.328 3.531-6.588 6.91l-.367-.21c.222-.406.46-.8.708-1.18-1.443.184-2.34.437-2.34.884 0 .582 1.386 1.28 1.87 1.28.394 0 .947-.445 1.536-.445.998 0 2.794.838 3.619 1.436l-.634.258c-.93-.472-1.92-.979-2.782-.979-.388 0-.723.119-.968.25-.25.133-.568.28-.989.405-.163-.106-.999-.507-1.437-.797a2.017 2.017 0 0 1-.392-.326 2.3 2.3 0 0 1-.102.428c-.034.084.007.134.041.225.344.921 1.84 1.717 3.019 1.717.14 0 .354 0 .456-.032l.32.383c-.204.187-.524.379-.87.379-.23 0-.435-.036-.667-.082-.812-.16-1.602-.564-2.137-1.103a2.295 2.295 0 0 1-.305-.335c-.012.091-.046.205-.047.33a.85.85 0 0 0 .13.456c.294.476.723.883 1.216 1.25.383.285.98.643 1.286.773.174.073.97.176 1.525.176 1.013 0 1.648-.288 1.886-.604.19-.252.35-.297.642-.297.62 0 2.398.632 2.909.878l-.386.204c-.115.057-.19.07-.374.015-.183-.057-1.177-.467-1.834-.467-.612 0-.934.445-.934.754 0 .447.987.618 2.03.618.742 0 2.357-.182 2.907-.272l.388.441c-.795.197-2.142.359-3.386.359-.629 0-1.762-.038-2.17-.201-.263-.106-.284-.465-.615-.624-.492-.237-1.086-.13-1.59-.13-.352 0-.729-.037-1.019-.127-.33-.11-.665-.306-.959-.478-.208-.122-.43-.242-.605-.379-.182-.143-.322-.32-.468-.48.05.219.188.658.266.765.136.188.643.652.748.787.24.308.426.523.927.52.34 0 .526-.167.939-.167.64 0 1.54.499 2.022.843.448.319.694.597 1.3.597.171 0 .444-.06.706-.06.436 0 .993.25 1.286.552.357.368.594.88.67 1.35l-.441.33c-.243-.817-.728-1.614-1.576-1.614-.612 0-.834.304-.952.505-.721-.73-1.91-1.81-3.107-1.81-.489 0-1.001.186-1.188.196-.89.418-2.72 1.138-3.636 1.264-.142.428-.407 1.281-.407 1.822 0 .903.557 2.035 1.12 2.387.915-.183 1.813.308 2.176.814.115.161.296.176.567.173.358 0 .712-.08 1.038-.234.176-.086.356-.17.485-.43.094-.188.391-.715.538-1.39.056-.258.115-.59.102-.829-.022-.38-.035-.55-.068-.632-.082-.196-.399-.562-.592-.631-.329-.119-.882-.25-1.077-.32a.682.682 0 0 0-.444.01c-.106.033-1.54.443-1.77.534l1.33-.909-1.049-.208.91-.305.978.305c.123.03.212.055.394.092.62.126 1.722.557 2.116 1.236.04.07.034.123.027.19-.04.372-.476 2.232-.517 2.52.37-.549 1.448-1.049 1.698-1.578.49.365 1.33-.84 1.709-1.035.193-.1.386-.187.462-.21.533.266 1.401.613 2.063.613.354 0 .43-.126.735-.206.671-.176 2.784-.33 3.809-.33 1.024 0 2.779.053 3.115.063.238-.084.604-.196.87-.274.892-.26 1.461-.496 2.065-.843a9.072 9.072 0 0 0 2.28-1.863c.08-.091.108-.198.15-.284.035-.074.125-.31.125-.408 0-.138-.212-.27-.693-.27-.544 0-1.02.177-1.464.43l-.261-.075c.474-.556 1.788-.977 2.478-1.09.464-.753.72-1.621.74-2.512a4.435 4.435 0 0 0-.334-.149c-.34.422-.666.893-1.047 1.23-.202.178-.34.28-.64.28a.598.598 0 0 1-.313-.063c-.114-.066-.22-.199-.34-.386-.09-.142-.223-.325-.34-.527-.243-.42-.504-.949-.741-1.376-.265-.48-.493-.838-.524-.898a.916.916 0 0 0-.176-.204c-.13.217-.225.639-.225.87l-.462-.16a8 8 0 0 1 .25-.921c0-.169-.183-.393-.332-.393-.211 0-.428.239-.537.695l-.47.21c.055-.737.3-1.544 1.007-1.544.57 0 .925.45 1.196.87.273.421 1.164 1.68 1.354 1.925l.51-1.137c-.6-.734-1.148-1.51-1.642-2.322-1.249-.38-3.562-.502-6.349-.502zm17.747-1.506l.099-.683c-.627-.086-1.416-.453-1.75-.87a6.476 6.476 0 0 0-1.498.798c1.225.026 2.452.393 3.149.755zm1.79-2.852v-.885c-.235.075-.49.16-.724.217-.334.083-.64.16-.898.153-.26-.007-.47-.114-.568-.258-.248-.367-.018-.922.799-1.44l-.644-.554c-.497.665-.985 1.399-1.484 1.838-.452.398-.925.596-1.308.302-.207-.159-.285-.232-.305-.646.028-.61.386-1.54.703-2.14l-.762-.093c-.136.919-.5 1.701-.89 2.347-.487.806-1.113 1.37-1.759 1.833.546.576 1.104 1.168 1.619 1.885 1.198-1.65 4.365-2.423 6.222-2.56zM36.4 19.745c-2.646-1.545-5.322-4.384-6.57-6.823l.549.066c1.16 2.119 3.933 4.946 5.57 5.768-1.497-3.282-3.446-7.439-4.967-9.228-1.886-2.217-3.947-3.933-4.931-4.826-.97-.88-1.37-1.985-2.766-1.985-1.152 0-1.757.857-1.988 1.72-.048.169-.075.274-.19.45l-.544.674 1.176-.147-.68.983s1.843-.428 2.49.477c.695.976.246 2.07 1.387 4.2.502.935 1.715 2.617 2.121 2.99l-.795 1.728c.062.288.18.455.238.547.123.197.259.183.442.008.084-.08.354-.307.614-.588a4.82 4.82 0 0 0 .536-.69c.259.12.742.358 1.131.536-1.67-2.125-3.268-4.703-3.96-6.456-.287-.724.273-.966.543-.252.735 1.938 2.884 5.365 4.462 7.162 1.824 2.078 5.169 5.084 7.345 6.292a99.345 99.345 0 0 1-1.213-2.606zM22.744 4.823a.457.457 0 0 1-.449-.464c0-.256.201-.464.45-.464.247 0 .448.208.448.464s-.201.464-.449.464zm-2.768 10.562c-.367 0-.759-.028-1.122-.064-.642-.064-1.198-.152-1.39-.152-.518 0-1.267.25-1.765.687 0 0-.338-.096-.456-.106.212-.291.47-.545.762-.75.461-.323.944-.5 1.675-.545.199-.012.603-.053.83-.042.203.01.548.023.865.084.225.043.434.108.609.136.105.017.474.012.602-.01.518-.084 1.138-.29 1.465-.473l.136.512c-.698.368-1.487.723-2.21.723zm-6.473-.007c-.289.12-.391.294-.391.54 0 .359.387.499.818.633.254.08.54.1.78.1.296 0 .864-.116 1.425-.244.677-.154 1.306-.336 1.49-.407l.245.454c-.754.263-1.524.513-2.24.663-.404.085-.79.138-1.134.138-.574 0-1.197-.25-1.71-.501-.431-.213-.817-.423-1.161-.423-.388 0-.752.137-1.112.35-.175.104-.705.48-1.177.672-.362.147-.657.229-1.024.229-.327 0-.522-.047-.691-.184l.568-.359c.073.075.204.089.286.089.081 0 .179-.01.402-.106a3.37 3.37 0 0 0 .422-.247c.224-.149.298-.237.387-.308.172-.14.236-.326.016-.53a2.352 2.352 0 0 0-.349-.278c-.196-.122-.338-.241-.694-.241-.419 0-.715.12-.877.206l-.28-.197c.235-.193.493-.353.769-.477a1.27 1.27 0 0 1 .467-.102c.313 0 .582.136.845.28.415.229.883.497 1.24.497.137 0 .268-.033.422-.033.355 0 .695.164.889.164.118 0 .2-.11.277-.224.195-.29.465-.505.808-.654.37-.16.815-.224 1.298-.224.381 0 .746.057.936.1 0 0-.29.36-.363.44-.384 0-1.116-.013-1.587.184zm-1.3-1.847l-.184-.203c.512-.491 1.055-1.275 1.143-1.735.081-.428.677-.36.564.106-.144.594-.85 1.313-1.523 1.832zm5.197 3.822c.572-.094 1.226-.164 1.6-.295.174.45.514.93 1.004.93.18 0 .473-.14.767-.274.332-.15.665-.316.838-.396.186-.085.792-.36 1.304-.595.196-.09.735-.354.765-.372l.345.192c-.103.468-.276 1.042-.47 1.454a1.731 1.731 0 0 1-.233.39 4.3 4.3 0 0 1-.707.638c-.345.252-.766.512-1.211.776-.348.206-.697.416-1.052.584l-.183-.344c.546-.32 1.1-.723 1.59-1.097.23-.177.453-.355.613-.505a1.58 1.58 0 0 0 .252-.295c.145-.22.381-.65.453-.857-.204.103-.974.478-1.319.665-.39.21-1.02.543-1.373.715-.279.136-.527.21-.706.21-.395 0-.574-.293-.671-.47-.25-.46-.517-.502-1.22-.511-.816-.011-1.936.336-2.602.814l-.657-.31c.91-.476 2.302-.954 2.873-1.047zm.926 2.055c.171 0 .181.08.23.162.137.225 1.207 1.802 1.316 1.924.909-.288 1.84-.71 2.376-1.243.56-.555 1.024-1.2 1.473-1.699.173-.192.387-.367.492-.425.465-.255 1.91-.277 2.517-.249l-.36.527c-1.07 0-1.669.114-1.939.323a2.708 2.708 0 0 0-.45.487c-.364.492-.763 1.165-.923 1.296.312.225.655.421 1.2.421.906 0 1.556-.586 1.911-.916l.305.187c-.225.303-.483.61-.811.842-.365.256-.824.422-1.095.499-.526-.104-1.685-.345-1.957-.4-1.002.42-2.635 1.102-3.183 1.273a2.14 2.14 0 0 1-.37.06c-.432.025-1.036.022-1.584.015-.39-.006-.759-.003-.943-.038l-.484-.522c.426.085.593.11.991.11.943 0 1.55-.162 1.75-.215.168-.044.196-.145.146-.302a2.185 2.185 0 0 0-.431-.74 3.61 3.61 0 0 0-.476-.447c-.13-.091-.257-.114-.612.01-.33.117-1.354.689-1.796.931-.218.12-.388.155-.779.06-.416-.1-1.408-.475-1.806-.724l.436-.185c.399.159.975.34 1.377.34.241 0 .44-.09.604-.165.129-.059 1.58-.794 2.3-1.064.229-.085.461-.133.575-.133zm4.976-3.699c-.235 0-.445.02-.594.1-.168.088-.269.223-.426.356a2.403 2.403 0 0 1-.694.392c-.299.114-.669.19-1.221.19-.728 0-1.123-.125-1.35-.154 0 0-.096-.4-.14-.546 0 0 .113-.04.263-.04.245 0 .85.07 1.1.07.945 0 1.293-.306 1.57-.564.237-.22.48-.4 1.123-.4.567 0 1.217.236 1.403.33l-.04.532a2.136 2.136 0 0 0-.994-.266zm-7.429-7.593a.38.38 0 0 1 .374.384.379.379 0 0 1-.374.384.368.368 0 0 1-.264-.113.389.389 0 0 1-.108-.27c0-.102.039-.2.108-.272a.368.368 0 0 1 .264-.113zm.846-4.895c.21 0 .378.176.378.39 0 .104-.04.203-.11.276a.375.375 0 0 1-.268.116.385.385 0 0 1-.38-.391c0-.216.17-.39.38-.39zM2.067 9.07c.516-.576 1.504-1.33 2.144-1.606l.15.23c-.544.575-1.552 1.343-2.086 1.61l-.208-.234zm.969-6.539c.68.356 2.009 1.578 2.476 2.145l-.263.335c-.712-.482-2.118-1.778-2.435-2.246l.222-.234zm7.33 3.093C10.22 7.222 8.76 7.43 7.816 6.67c-.533-.428-.751-1.022-.854-1.47-.107-.475-.107-.9-.56-1.387-.342-.369-.953-.356-.953-.356 0-1.161-1.052-2.224-2.358-1.71-.462-.41-1.034-.452-1.444.058-.239.295-.37 1.072.365 1.428-.038 1.057.744 1.733 1.886 1.639.045.562.649 1.085 1.183 1.16l-.005.282c-.57-.056-.88.15-1.26.637-1.342-.066-2.283.55-2.244 1.546-.943.184-1.12 1.205-.585 1.748.535.543 1.32.33 1.587-.318.953.187 1.793-.518 1.832-1.33.89 0 1.279-.364 1.424-1.207l.335.028c.1.91-.308 1.771-1.37 1.669-.026 1.084-1.047 1.692-1.999 1.317-.444.862-1.462 1.206-2.317.366-.825-.812-.523-2.204.556-2.54.025-1.064.786-2.075 2.265-1.685 0 0 .19-.476.653-.504-.309-.13-.542-.307-.606-.634-1.115.245-2.063-.815-1.809-1.882C.532 2.977.515 1.951 1.014 1.341c.52-.636 1.387-.776 2.163-.091 1.313-.751 2.797.168 2.707 1.713.919-.063 1.476.766 1.374 1.629.152-.38.328-.556.668-.633-.599-1.292.45-2.612 1.735-2.308a1.55 1.55 0 0 1 .976-.863A1.504 1.504 0 0 1 11.91.99c.825.515 1 1.847.123 2.492.413 1.243-.411 2.259-1.667 2.142zm1.122-4.011c-.612-.379-1.188-.234-1.554.496-.981-.074-1.92.722-1.554 2.055-.943.421-1.081 1.42-.42 2.019.798.722 2.113.093 1.987-1.012 1.07.057 1.76-1.084 1.589-1.885.476-.421.523-1.32-.048-1.673zm-2.725 3.15c.463-.777 1.456-2.06 1.873-2.453l.222.164c-.43.938-1.193 1.935-1.845 2.483l-.25-.195zm53.034 6.735c3.717 0 5.354 2.85 5.354 5.703 0 .606-.285.963-.921.963h-6.911c.075 1.284 1.061 2.442 2.484 2.442 1.008 0 1.688-.375 2.153-1.078a.804.804 0 0 1 .682-.366h1.625c.374.001.553.36.495.635-.423 2.031-2.665 3.268-4.939 3.268-3.323 0-5.387-2.745-5.387-5.864 0-2.927 1.927-5.703 5.365-5.703zm2.475 4.483c-.11-1.262-1.207-2.193-2.475-2.193-1.27 0-2.346.932-2.457 2.193h4.932z"/></svg>