<?xml version="1.0" encoding="UTF-8"?>
<svg width="1381px" height="315px" viewBox="0 0 1381 315" version="1.1" xmlns="http://www.w3.org/2000/svg" xmlns:xlink="http://www.w3.org/1999/xlink">
    <!-- Generator: Sketch 41.2 (35397) - http://www.bohemiancoding.com/sketch -->
    <title>Logo Intellectsoft-net</title>
    <defs></defs>
    <g id="Page-1" stroke="none" stroke-width="1" fill="none" fill-rule="evenodd">
        <g id="Logo-Intellectsoft-net" fill="#1376F2">
            <path d="M234.597,98.524 C234.097,103.008 230.709,106.706 227.875,106.706 L204.319,106.706 C198.032,106.706 196.46,114.564 196.46,114.564 L170.527,212.841 C170.527,212.841 168.956,220.7 161.883,220.7 L82.513,220.7 C79.37,220.7 77.798,219.404 77.798,217.047 C77.798,213.252 80.942,207.387 85.657,207.387 L120.836,207.387 C125.551,207.387 132.43,203.921 134.379,196.384 C136.328,188.847 158.74,107.537 160.312,102.822 C161.883,98.108 164.241,94.964 168.956,94.964 L230.251,94.964 C233.395,94.965 234.957,95.293 234.597,98.524 Z M86.443,188.479 C88.014,183.765 109.232,106.752 110.804,102.037 C112.375,97.322 113.161,94.178 118.662,94.178 L144.595,94.178 C147.738,94.178 149.122,97.299 147.738,102.037 C146.355,106.774 124.934,183.019 123.377,188.479 C121.82,193.939 119.078,196.338 115.935,196.338 L90.418,196.338 C86.489,196.338 84.871,193.981 86.443,188.479 Z M157.168,0.664 C70.726,0.664 0,71.39 0,157.832 C0,244.275 70.726,315 157.168,315 C243.611,315 314.336,244.275 314.336,157.832 C314.336,71.39 243.611,0.664 157.168,0.664 L157.168,0.664 Z" id="Fill-1"></path>
            <path d="M383.475,197.526 L392.264,197.526 L392.264,118.277 L383.475,118.277 L383.475,197.526 Z M381.937,95.388 C381.937,93.739 382.474,92.343 383.549,91.204 C384.622,90.064 386.087,89.493 387.943,89.493 C389.798,89.493 391.276,90.064 392.374,91.204 C393.473,92.343 394.022,93.739 394.022,95.388 C394.022,97.039 393.473,98.421 392.374,99.538 C391.276,100.654 389.798,101.212 387.943,101.212 C386.087,101.212 384.622,100.654 383.549,99.538 C382.474,98.421 381.937,97.039 381.937,95.388 L381.937,95.388 Z" id="Fill-2"></path>
            <path d="M424.418,118.277 L424.711,131.827 C427.688,126.945 431.4,123.22 435.843,120.658 C440.286,118.093 445.193,116.812 450.565,116.812 C459.061,116.812 465.384,119.205 469.535,123.99 C473.684,128.776 475.784,135.954 475.834,145.523 L475.834,197.526 L467.118,197.526 L467.118,145.45 C467.069,138.371 465.567,133.097 462.613,129.63 C459.658,126.163 454.934,124.429 448.441,124.429 C443.021,124.429 438.224,126.127 434.049,129.519 C429.874,132.914 426.785,137.492 424.784,143.253 L424.784,197.526 L416.068,197.526 L416.068,118.277 L424.418,118.277" id="Fill-3"></path>
            <path d="M512.089,97.989 L512.089,118.277 L528.495,118.277 L528.495,125.455 L512.089,125.455 L512.089,178.321 C512.089,182.722 512.882,185.997 514.469,188.147 C516.055,190.299 518.704,191.373 522.416,191.373 C523.881,191.373 526.248,191.129 529.52,190.641 L529.886,197.757 C527.591,198.578 524.467,198.99 520.511,198.99 C514.506,198.99 510.135,197.245 507.401,193.754 C504.666,190.263 503.3,185.123 503.3,178.336 L503.3,125.455 L488.724,125.455 L488.724,118.277 L503.3,118.277 L503.3,97.989 L512.089,97.989" id="Fill-4"></path>
            <path d="M575.736,124.283 C569.144,124.283 563.589,126.7 559.073,131.534 C554.556,136.368 551.81,142.862 550.834,151.016 L598.368,151.016 L598.368,150.064 C598.123,142.447 595.951,136.247 591.849,131.461 C587.748,126.675 582.376,124.283 575.736,124.283 Z M577.347,198.99 C570.609,198.99 564.517,197.331 559.073,194.01 C553.628,190.69 549.393,186.063 546.366,180.131 C543.338,174.197 541.825,167.545 541.825,160.172 L541.825,157.022 C541.825,149.405 543.301,142.546 546.256,136.441 C549.21,130.338 553.324,125.541 558.597,122.048 C563.871,118.558 569.584,116.812 575.736,116.812 C585.355,116.812 592.985,120.096 598.624,126.664 C604.264,133.231 607.084,142.203 607.084,153.58 L607.084,158.487 L550.541,158.487 L550.541,160.172 C550.541,169.156 553.115,176.64 558.268,182.621 C563.419,188.603 569.901,191.593 577.714,191.593 C582.401,191.593 586.539,190.739 590.128,189.029 C593.717,187.32 596.976,184.587 599.906,180.826 L605.399,185.001 C598.954,194.328 589.603,198.99 577.347,198.99 L577.347,198.99 Z" id="Fill-5"></path>
            <polygon id="Fill-6" points="625.175 197.526 633.964 197.526 633.964 85.025 625.175 85.025"></polygon>
            <polygon id="Fill-7" points="658.793 197.526 667.582 197.526 667.582 85.025 658.793 85.025"></polygon>
            <path d="M720.463,124.283 C713.871,124.283 708.316,126.7 703.8,131.534 C699.283,136.368 696.536,142.862 695.56,151.016 L743.094,151.016 L743.094,150.064 C742.849,142.447 740.677,136.247 736.576,131.461 C732.474,126.675 727.102,124.283 720.463,124.283 Z M722.074,198.99 C715.336,198.99 709.244,197.331 703.8,194.01 C698.355,190.69 694.119,186.063 691.093,180.131 C688.064,174.197 686.552,167.545 686.552,160.172 L686.552,157.022 C686.552,149.405 688.028,142.546 690.983,136.441 C693.936,130.338 698.051,125.541 703.324,122.048 C708.597,118.558 714.31,116.812 720.463,116.812 C730.081,116.812 737.711,120.096 743.351,126.664 C748.99,133.231 751.81,142.203 751.81,153.58 L751.81,158.487 L695.267,158.487 L695.267,160.172 C695.267,169.156 697.842,176.64 702.994,182.621 C708.145,188.603 714.627,191.593 722.44,191.593 C727.128,191.593 731.266,190.739 734.855,189.029 C738.444,187.32 741.703,184.587 744.633,180.826 L750.126,185.001 C743.68,194.328 734.329,198.99 722.074,198.99 L722.074,198.99 Z" id="Fill-8"></path>
            <path d="M798.173,191.593 C804.276,191.593 809.39,189.871 813.517,186.43 C817.642,182.986 819.876,178.531 820.219,173.063 L828.641,173.063 C828.396,177.897 826.884,182.304 824.1,186.283 C821.317,190.263 817.618,193.376 813.004,195.621 C808.39,197.866 803.446,198.99 798.173,198.99 C787.772,198.99 779.532,195.377 773.453,188.151 C767.374,180.925 764.335,171.207 764.335,159 L764.335,156.363 C764.335,148.551 765.701,141.641 768.436,135.635 C771.17,129.63 775.089,124.991 780.192,121.719 C785.293,118.449 791.262,116.812 798.099,116.812 C806.79,116.812 813.956,119.401 819.596,124.576 C825.236,129.752 828.25,136.563 828.641,145.01 L820.219,145.01 C819.827,138.81 817.593,133.804 813.517,129.996 C809.439,126.187 804.3,124.283 798.099,124.283 C790.189,124.283 784.048,127.139 779.679,132.852 C775.308,138.565 773.124,146.574 773.124,156.876 L773.124,159.44 C773.124,169.547 775.308,177.433 779.679,183.097 C784.048,188.762 790.213,191.593 798.173,191.593" id="Fill-9"></path>
            <path d="M859.769,97.989 L859.769,118.277 L876.176,118.277 L876.176,125.455 L859.769,125.455 L859.769,178.321 C859.769,182.722 860.562,185.997 862.15,188.147 C863.736,190.299 866.385,191.373 870.096,191.373 C871.561,191.373 873.929,191.129 877.201,190.641 L877.567,197.757 C875.271,198.578 872.147,198.99 868.192,198.99 C862.186,198.99 857.816,197.245 855.082,193.754 C852.346,190.263 850.98,185.123 850.98,178.336 L850.98,125.455 L836.405,125.455 L836.405,118.277 L850.98,118.277 L850.98,97.989 L859.769,97.989" id="Fill-10"></path>
            <path d="M933.964,175.626 C933.964,173.038 932.682,171 930.118,169.51 C927.555,168.022 923.441,166.691 917.777,165.519 C898.928,161.564 889.506,153.555 889.506,141.495 C889.506,134.464 892.423,128.592 898.258,123.881 C904.092,119.169 911.722,116.812 921.146,116.812 C931.204,116.812 939.248,119.181 945.28,123.917 C951.309,128.653 954.325,134.805 954.325,142.374 L933.158,142.374 C933.158,139.346 932.18,136.843 930.228,134.867 C928.275,132.888 925.222,131.9 921.073,131.9 C917.508,131.9 914.749,132.706 912.797,134.317 C910.843,135.928 909.867,137.979 909.867,140.469 C909.867,142.813 910.977,144.706 913.199,146.146 C915.421,147.587 919.169,148.832 924.442,149.881 C929.716,150.931 934.158,152.115 937.772,153.433 C948.953,157.535 954.545,164.64 954.545,174.747 C954.545,181.974 951.443,187.82 945.243,192.289 C939.041,196.756 931.034,198.99 921.219,198.99 C914.578,198.99 908.682,197.806 903.531,195.438 C898.379,193.07 894.34,189.823 891.41,185.697 C888.48,181.571 887.015,177.116 887.015,172.33 L907.084,172.33 C907.278,176.091 908.67,178.971 911.259,180.973 C913.846,182.976 917.312,183.976 921.659,183.976 C925.711,183.976 928.775,183.207 930.851,181.668 C932.926,180.131 933.964,178.116 933.964,175.626" id="Fill-11"></path>
            <path d="M986.039,158.672 C986.039,166.203 987.454,171.962 990.287,175.946 C993.118,179.933 997.172,181.925 1002.45,181.925 C1007.57,181.925 1011.57,179.956 1014.46,176.02 C1017.34,172.083 1018.78,165.787 1018.78,157.131 C1018.78,149.747 1017.34,144.025 1014.46,139.965 C1011.57,135.908 1007.52,133.878 1002.3,133.878 C997.122,133.878 993.118,135.895 990.287,139.929 C987.454,143.965 986.039,150.212 986.039,158.672 Z M964.872,157.169 C964.872,149.307 966.385,142.3 969.413,136.148 C972.44,129.996 976.798,125.235 982.487,121.866 C988.174,118.497 994.779,116.812 1002.3,116.812 C1012.99,116.812 1021.72,120.084 1028.48,126.627 C1035.24,133.171 1039.02,142.056 1039.8,153.287 L1039.95,158.707 C1039.95,170.865 1036.55,180.619 1029.76,187.967 C1022.98,195.317 1013.87,198.99 1002.45,198.99 C991.019,198.99 981.901,195.328 975.089,188.004 C968.278,180.68 964.872,170.719 964.872,158.121 L964.872,157.169 L964.872,157.169 Z" id="Fill-12"></path>
            <path d="M1058.77,197.526 L1058.77,133.804 L1046.98,133.804 L1046.98,118.277 L1058.77,118.277 L1058.77,111.539 C1058.77,102.652 1061.32,95.755 1066.42,90.847 C1071.52,85.941 1078.66,83.487 1087.85,83.487 C1090.78,83.487 1094.36,83.971 1098.61,84.939 L1098.39,101.212 C1096.63,100.772 1094.49,100.552 1091.95,100.552 C1083.99,100.552 1080.01,104.32 1080.01,111.852 L1080.01,118.277 L1095.76,118.277 L1095.76,133.804 L1080.01,133.804 L1080.01,197.526 L1058.77,197.526" id="Fill-13"></path>
            <path d="M1132.08,98.795 L1132.08,118.277 L1145.63,118.277 L1145.63,133.804 L1132.08,133.804 L1132.08,173.356 C1132.08,176.285 1132.64,178.385 1133.77,179.654 C1134.89,180.925 1137.04,181.559 1140.21,181.559 C1142.56,181.559 1144.63,181.388 1146.44,181.046 L1146.44,197.086 C1142.29,198.356 1138.02,198.99 1133.62,198.99 C1118.78,198.99 1111.21,191.495 1110.92,176.505 L1110.92,133.804 L1099.34,133.804 L1099.34,118.277 L1110.92,118.277 L1110.92,98.795 L1132.08,98.795" id="Fill-14"></path>
            <path d="M1159.92,192.252 C1159.92,190.543 1160.47,189.091 1161.56,187.895 C1162.66,186.698 1164.19,186.1 1166.14,186.1 C1168.09,186.1 1169.63,186.698 1170.76,187.895 C1171.88,189.091 1172.44,190.543 1172.44,192.252 C1172.44,193.962 1171.88,195.365 1170.76,196.463 C1169.63,197.563 1168.09,198.111 1166.14,198.111 C1164.19,198.111 1162.66,197.563 1161.56,196.463 C1160.47,195.365 1159.92,193.962 1159.92,192.252" id="Fill-15"></path>
            <path d="M1197.39,118.277 L1197.68,131.827 C1200.66,126.945 1204.37,123.22 1208.81,120.658 C1213.25,118.093 1218.16,116.812 1223.53,116.812 C1232.03,116.812 1238.35,119.205 1242.5,123.99 C1246.65,128.776 1248.75,135.954 1248.8,145.523 L1248.8,197.526 L1240.09,197.526 L1240.09,145.45 C1240.04,138.371 1238.54,133.097 1235.58,129.63 C1232.63,126.163 1227.9,124.429 1221.41,124.429 C1215.99,124.429 1211.19,126.127 1207.02,129.519 C1202.84,132.914 1199.75,137.492 1197.75,143.253 L1197.75,197.526 L1189.04,197.526 L1189.04,118.277 L1197.39,118.277" id="Fill-16"></path>
            <path d="M1300.51,124.283 C1293.92,124.283 1288.36,126.7 1283.85,131.534 C1279.33,136.368 1276.59,142.862 1275.61,151.016 L1323.14,151.016 L1323.14,150.064 C1322.9,142.447 1320.73,136.247 1316.62,131.461 C1312.52,126.675 1307.15,124.283 1300.51,124.283 Z M1302.12,198.99 C1295.38,198.99 1289.29,197.331 1283.85,194.01 C1278.4,190.69 1274.17,186.063 1271.14,180.131 C1268.11,174.197 1266.6,167.545 1266.6,160.172 L1266.6,157.022 C1266.6,149.405 1268.08,142.546 1271.03,136.441 C1273.99,130.338 1278.1,125.541 1283.37,122.048 C1288.65,118.558 1294.36,116.812 1300.51,116.812 C1310.13,116.812 1317.76,120.096 1323.4,126.664 C1329.04,133.231 1331.86,142.203 1331.86,153.58 L1331.86,158.487 L1275.32,158.487 L1275.32,160.172 C1275.32,169.156 1277.89,176.64 1283.04,182.621 C1288.19,188.603 1294.68,191.593 1302.49,191.593 C1307.18,191.593 1311.32,190.739 1314.9,189.029 C1318.49,187.32 1321.75,184.587 1324.68,180.826 L1330.17,185.001 C1323.73,194.328 1314.38,198.99 1302.12,198.99 L1302.12,198.99 Z" id="Fill-17"></path>
            <path d="M1362.55,97.989 L1362.55,118.277 L1378.95,118.277 L1378.95,125.455 L1362.55,125.455 L1362.55,178.321 C1362.55,182.722 1363.34,185.997 1364.93,188.147 C1366.51,190.299 1369.16,191.373 1372.87,191.373 C1374.34,191.373 1376.71,191.129 1379.98,190.641 L1380.35,197.757 C1378.05,198.578 1374.93,198.99 1370.97,198.99 C1364.96,198.99 1360.59,197.245 1357.86,193.754 C1355.12,190.263 1353.76,185.123 1353.76,178.336 L1353.76,125.455 L1339.18,125.455 L1339.18,118.277 L1353.76,118.277 L1353.76,97.989 L1362.55,97.989" id="Fill-18"></path>
        </g>
    </g>
</svg>