<?xml version="1.0" encoding="UTF-8"?>
<svg width="120px" height="120px" viewBox="0 0 120 120" version="1.1" xmlns="http://www.w3.org/2000/svg" xmlns:xlink="http://www.w3.org/1999/xlink">
    <!-- Generator: Sketch 41.2 (35397) - http://www.bohemiancoding.com/sketch -->
    <title>c-plus</title>
    <desc>Created with Sketch.</desc>
    <defs></defs>
    <g id="Company-Icons" stroke="none" stroke-width="1" fill="none" fill-rule="evenodd">
        <g id="c-plus" fill="#FFFFFF">
            <path d="M82.4720217,72.9098526 C82.8240072,72.2735711 83,71.5425241 83,70.7031739 L83,49.8683364 C83,49.0154483 82.8240072,48.2708635 82.4449458,47.621044 C82.0794224,46.9847624 81.5379061,46.4567841 80.8203971,46.037109 C74.8231047,42.5849429 68.8258123,39.1327768 62.8420578,35.6806108 C61.2310469,34.7464952 59.6606498,34.787109 58.0631769,35.7212245 C55.6805054,37.1291667 43.7400722,43.9658093 40.1796029,46.0235711 C38.717509,46.8764591 38,48.1760981 38,49.8547985 L38,70.7031739 C38,71.5289862 38.1759928,72.2735711 38.5279783,72.9098526 C38.8935018,73.5596721 39.4350181,74.1147263 40.1796029,74.5344014 C43.7400722,76.5921631 55.6805054,83.4423436 58.0631769,84.836748 C59.6606498,85.7844014 61.2310469,85.8114772 62.8420578,84.8773617 C68.8258123,81.4251956 74.8366426,77.9730295 80.8203971,74.5208635 C81.5649819,74.1147263 82.1064982,73.5596721 82.4720217,72.9098526 Z M66.984657,63.9342209 C65.7120939,66.1950512 63.2888087,67.7248346 60.5,67.7248346 C57.7382671,67.7248346 55.3285199,66.2085891 54.0424188,63.9748346 C53.4196751,62.8918021 53.0541516,61.6327768 53.0541516,60.2789862 C53.0541516,56.1634628 56.3844765,52.8331378 60.5,52.8331378 C63.2481949,52.8331378 65.6444043,54.3223075 66.9305054,56.5425241 L73.4422383,52.7925241 C70.8564982,48.3250151 66.0234657,45.3195999 60.5,45.3195999 C52.2418773,45.3195999 45.5541516,52.0073256 45.5541516,60.2654483 C45.5541516,62.9730295 46.2716606,65.5181559 47.5306859,67.6977588 C50.116426,72.1788057 54.9494585,75.2112967 60.5,75.2112967 C66.0505415,75.2112967 70.9106498,72.1788057 73.482852,67.6842209 L66.984657,63.9342209 Z M80.0758123,57.7067841 L78.3700361,57.7067841 L78.3700361,59.4125602 L76.650722,59.4125602 L76.650722,61.1318743 L78.3700361,61.1318743 L78.3700361,62.8376505 L80.0758123,62.8376505 L80.0758123,61.1318743 L81.7951264,61.1318743 L81.7951264,59.4125602 L80.0758123,59.4125602 L80.0758123,57.7067841 Z M73.8348375,57.7067841 L72.1155235,57.7067841 L72.1155235,59.4125602 L70.4097473,59.4125602 L70.4097473,61.1318743 L72.1155235,61.1318743 L72.1155235,62.8376505 L73.8348375,62.8376505 L73.8348375,61.1318743 L75.5406137,61.1318743 L75.5406137,59.4125602 L73.8348375,59.4125602 L73.8348375,57.7067841 Z" id="Combined-Shape"></path>
        </g>
    </g>
</svg>