<?xml version="1.0" encoding="UTF-8"?>
<svg width="120px" height="120px" viewBox="0 0 120 120" version="1.1" xmlns="http://www.w3.org/2000/svg" xmlns:xlink="http://www.w3.org/1999/xlink">
    <!-- Generator: Sketch 41.2 (35397) - http://www.bohemiancoding.com/sketch -->
    <title>json</title>
    <desc>Created with Sketch.</desc>
    <defs></defs>
    <g id="Company-Icons" stroke="none" stroke-width="1" fill="none" fill-rule="evenodd">
        <g id="json" stroke="#FFFFFF" stroke-width="2">
            <path d="M60.4700175,71.5079946 C60.4672968,71.5042904 60.4645761,71.5005839 60.4618555,71.496875 L60.4618555,71.4966992 C60.4618555,71.4966992 67.0508398,68.9218555 67.0508398,60.6081055 C67.0508398,52.2590234 60.5718945,49.7031641 60.4375977,49.653418 C60.4356822,49.652765 60.433767,49.6521127 60.4318519,49.6514612 C60.443991,49.6464071 60.4502539,49.6439258 60.4502539,49.6439258 C53.8718164,47.3765234 45.813125,52.7984961 45.813125,63.6582617 C45.813125,81.0457583 58.4472706,82.9313156 60.4403955,82.9980678 C60.444874,82.998717 60.449332,82.999361 60.4537695,83 C50.5551758,83 38,74.9931641 38,60.5379687 C38,47.5329687 48.9527539,38.0279492 60.4537695,38.028125 C61.2071984,38.028125 62.0197226,38.1043949 62.8706039,38.2552442 C67.3093253,39.3234363 75.3232813,44.0217006 75.3232813,57.4443945 C75.3232813,68.1716211 66.3366406,74.0114258 60.4915625,71.5163867 C60.4882277,71.5151514 60.4809805,71.5123709 60.4700175,71.5079946 Z" id="Combined-Shape" fill="#FFFFFF"></path>
            <path d="M60.4502539,49.6439258 C53.8718164,47.3765234 45.813125,52.7984961 45.813125,63.6582617 C45.813125,81.3905469 58.9533008,83 60.5462305,83 C72.0472461,83 83,73.4948047 83,60.4899805 C83,46.0347852 70.4448242,38.0279492 60.5462305,38.0279492 C63.2878906,37.6482617 75.3232813,40.9951367 75.3232813,57.4443945 C75.3232813,68.1716211 66.3366406,74.0114258 60.4915625,71.5163867 C60.3572656,71.4666406 53.8781445,68.9107812 53.8781445,60.5616992 C53.8781445,52.2477734 60.4502539,49.6439258 60.4502539,49.6439258 L60.4502539,49.6439258 Z" id="Shape"></path>
        </g>
    </g>
</svg>