<?xml version="1.0" encoding="UTF-8"?>
<svg width="120px" height="120px" viewBox="0 0 120 120" version="1.1" xmlns="http://www.w3.org/2000/svg" xmlns:xlink="http://www.w3.org/1999/xlink">
    <!-- Generator: Sketch 41.2 (35397) - http://www.bohemiancoding.com/sketch -->
    <title>node-js</title>
    <desc>Created with Sketch.</desc>
    <defs></defs>
    <g id="Company-Icons" stroke="none" stroke-width="1" fill="none" fill-rule="evenodd">
        <g id="node-js" fill="#FFFFFF">
            <g id="nodejs" transform="translate(12.000000, 7.000000)">
                <g id="Group">
                    <path d="M43.7922837,1.34567376 C46.4092057,-0.152234043 49.8177447,-0.159 52.4324113,1.34567376 C65.5865603,8.7784539 78.744844,16.1995816 91.8967376,23.6368723 C94.3704468,25.0302837 96.0250993,27.7832766 95.9999149,30.6336241 L95.9999149,75.3520922 C96.0183333,78.3204681 94.2001702,81.1392411 91.5903901,82.501078 C78.4794681,89.8928865 65.3753121,97.2937163 52.2666454,104.685525 C49.5955957,106.212752 46.1186454,106.095099 43.5310426,104.442702 C39.6003972,102.164078 35.6629858,99.8967305 31.7319645,97.6203617 C30.928695,97.1414823 30.0231844,96.7603333 29.4559716,95.9814965 C29.9574043,95.3056525 30.8538936,95.2214539 31.5823617,94.926383 C33.2231064,94.4046525 34.7300355,93.5671773 36.2373404,92.7545106 C36.6184894,92.4936454 37.0838369,92.5936312 37.4491986,92.8270567 C40.8103759,94.754227 44.1418582,96.7374043 47.5143121,98.646156 C48.2337589,99.0615106 48.962227,98.5100851 49.5771773,98.1672766 C62.4430213,90.8957518 75.3246525,83.6516667 88.1882411,76.3778865 C88.6648652,76.1485957 88.9283617,75.6426525 88.8896454,75.1205461 C88.8986667,60.3688794 88.8919007,45.6145816 88.894156,30.8629149 C88.9486596,30.2705177 88.6058511,29.7258582 88.0702128,29.4834113 C75.004773,22.1254326 61.9460993,14.7561773 48.8829149,7.39631915 C48.4196471,7.07782787 47.8082348,7.07693181 47.3440355,7.39406383 C34.2808511,14.7561773 21.2244326,22.1321986 8.16124823,29.4898014 C7.62748936,29.7326241 7.2692695,30.2682624 7.33279433,30.8629149 C7.33504965,45.6145816 7.33279433,60.3688794 7.33279433,75.1228014 C7.28640117,75.6445543 7.56989267,76.1399894 8.04321986,76.3643546 C11.5291915,78.3411418 15.0196738,80.3040213 18.5079007,82.2740426 C20.4730355,83.3317872 22.8858511,83.9602695 25.0509574,83.1498582 C26.9615887,82.464617 28.3008723,80.5148936 28.2644113,78.486234 C28.2824539,63.8206454 28.2553901,49.1528014 28.2779433,34.4894681 C28.2302057,33.8384326 28.8477872,33.300539 29.4807801,33.3618085 C31.1557305,33.3505319 32.8329362,33.3392553 34.5078865,33.3663191 C35.2070355,33.3505319 35.6881702,34.0515603 35.6017163,34.7074823 C35.5949504,49.4659149 35.6197589,64.2247234 35.5904397,78.983156 C35.5949504,82.9164326 33.9790142,87.1962766 30.3408085,89.1208156 C25.8587376,91.4426667 20.318922,90.9502553 15.8909787,88.7238794 C12.0576879,86.810617 8.39956028,84.5526667 4.63430496,82.5029574 C2.01775887,81.1486383 0.208617021,78.3185887 0.227035461,75.3524681 L0.227035461,30.6336241 C0.199595745,27.7242624 1.92002837,24.9212766 4.47079433,23.5481631 C17.579461,16.1503404 30.6858723,8.74687943 43.7922837,1.34567376 Z M55.2282553,32.3224823 C60.9454894,31.9544894 67.0660496,32.1044681 72.2108085,34.9209858 C76.194078,37.0793262 78.4024113,41.6091348 78.4727021,46.0344468 C78.3614397,46.6313546 77.7374681,46.9606312 77.1676241,46.9196596 C75.5088369,46.9174043 73.8496738,46.9422128 72.1908865,46.908383 C71.487227,46.9354468 71.0782624,46.2866667 70.9899291,45.6645745 C70.513305,43.5472057 69.3585816,41.4501348 67.3656312,40.4288511 C64.3062908,38.8971135 60.7590496,38.9741702 57.4230567,39.0061206 C54.9876879,39.1354255 52.3688865,39.3462979 50.3056454,40.7784255 C48.7216596,41.863234 48.2405248,44.0531489 48.8058582,45.8168085 C49.3388652,47.0831702 50.8006879,47.4917589 51.9967589,47.8683972 C58.8867589,49.6703972 66.1879787,49.4910993 72.9464184,51.8625674 C75.7445177,52.8293475 78.4817234,54.7087801 79.4394823,57.6384397 C80.6923121,61.5649504 80.1431418,66.2582695 77.3495532,69.4104539 C75.0840851,72.0044468 71.7845532,73.4162766 68.4936667,74.1830851 C64.1157163,75.1592624 59.5723759,75.1840709 55.1263901,74.7506738 C50.9457801,74.2740496 46.5952695,73.1757092 43.3679078,70.3272411 C40.6081489,67.9309645 39.2602199,64.1972837 39.3940355,60.5936596 C39.4259858,59.9850993 40.0319149,59.5607234 40.6149149,59.6107163 C42.2853546,59.5971844 43.9557943,59.5926738 45.626234,59.6129716 C46.2934326,59.565234 46.7880993,60.141844 46.822305,60.7707021 C47.1305319,62.7880851 47.888695,64.9054539 49.647844,66.1015248 C53.0428511,68.2918156 57.302773,68.1418369 61.1901915,68.2031064 C64.4107872,68.0602695 68.0260638,68.0170426 70.6542624,65.8883972 C72.0409078,64.6742837 72.4517518,62.6429929 72.0769929,60.8954965 C71.6710355,59.4201418 70.1276454,58.7326454 68.8022695,58.2830851 C62.0006028,56.1315106 54.6178156,56.912227 47.8819291,54.4791135 C45.1473546,53.5127092 42.5029929,51.6855248 41.4523901,48.8761489 C39.9864326,44.9000213 40.6581418,39.981922 43.7445461,36.9361135 C46.7538936,33.9064681 51.0980142,32.7397163 55.2282553,32.3221064 L55.2282553,32.3224823 Z" id="Combined-Shape"></path>
                </g>
            </g>
        </g>
    </g>
</svg>