<?xml version="1.0" encoding="UTF-8"?>
<svg width="120px" height="120px" viewBox="0 0 120 120" version="1.1" xmlns="http://www.w3.org/2000/svg" xmlns:xlink="http://www.w3.org/1999/xlink">
    <!-- Generator: Sketch 41.2 (35397) - http://www.bohemiancoding.com/sketch -->
    <title>php</title>
    <desc>Created with Sketch.</desc>
    <defs></defs>
    <g id="Company-Icons" stroke="none" stroke-width="1" fill="none" fill-rule="evenodd">
        <g id="php" fill="#FFFFFF">
            <path d="M60.4211316,80 C81.6405367,80 98.8422632,71.045695 98.8422632,60 C98.8422632,48.954305 81.6405367,40 60.4211316,40 C39.2017266,40 22,48.954305 22,60 C22,71.045695 39.2017266,80 60.4211316,80 Z M32.7894342,71.8421132 L37.0001501,50.5261894 L46.7366051,50.5261894 C50.9470209,50.7894342 53.0523788,52.894492 53.0523788,56.5790185 C53.0523788,62.8947921 48.0525289,66.5790185 43.5785682,66.3157737 L38.8422632,66.3157737 L37.7895843,71.8421132 L32.7894342,71.8421132 Z M52.0741408,66.3157737 L56.2845565,45.0001501 L61.2847066,45.0001501 L60.2320276,50.5261894 L64.9686327,50.5261894 C69.1793486,50.7894342 70.758217,52.894492 70.2320276,55.5263395 L68.3899145,66.3157737 L63.1268198,66.3157737 L64.9689329,56.5790185 C65.2318775,55.2630947 65.2318775,54.4736605 63.3900645,54.4736605 L59.4425934,54.4736605 L57.0742909,66.3157737 L52.0741408,66.3157737 L52.0741408,66.3157737 Z M68.0528291,71.8421132 L72.2632448,50.5261894 L82,50.5261894 C86.2107159,50.7894342 88.3160738,52.894492 88.3160738,56.5790185 C88.3160738,62.8947921 83.3159238,66.5790185 78.8422632,66.3157737 L74.1053579,66.3157737 L73.052679,71.8421132 L68.0528291,71.8421132 L68.0528291,71.8421132 Z M75.1577368,62.3686027 L76.4736605,54.4736605 L79.8949422,54.4736605 C81.7370554,54.4736605 83.052679,55.2630947 83.052679,56.8419631 C82.7897344,61.3159238 80.6843764,62.1053579 78.3160738,62.3686027 L75.1580369,62.3686027 L75.1577368,62.3686027 Z M39.8946421,62.3686027 L41.2105658,54.4736605 L44.6315474,54.4736605 C46.4736605,54.4736605 47.7892841,55.2630947 47.7892841,56.8419631 C47.5263395,61.3159238 45.4209815,62.1053579 43.052679,62.3686027 L39.8949422,62.3686027 L39.8946421,62.3686027 Z" id="Combined-Shape"></path>
        </g>
    </g>
</svg>