<?xml version="1.0" encoding="UTF-8"?>
<svg width="120px" height="120px" viewBox="0 0 120 120" version="1.1" xmlns="http://www.w3.org/2000/svg" xmlns:xlink="http://www.w3.org/1999/xlink">
    <!-- Generator: Sketch 41.2 (35397) - http://www.bohemiancoding.com/sketch -->
    <title>ruby</title>
    <desc>Created with Sketch.</desc>
    <defs></defs>
    <g id="Company-Icons" stroke="none" stroke-width="1" fill="none" fill-rule="evenodd">
        <g id="ruby" fill="#FFFFFF">
            <g id="1483478704_diamond" transform="translate(35.000000, 38.000000)">
                <g id="Layer_1">
                    <path d="M48.7216102,16.0037353 L0.996753517,16.0037353 C0.609983325,16.0037353 0.25850964,15.7795279 0.0954497134,15.4285513 C-0.0676102137,15.0775748 -0.0124283481,14.6639594 0.236635748,14.3686618 L11.6826472,0.792928609 C11.8715581,0.568721209 12.149456,0.439466389 12.442765,0.439466389 L37.2780844,0.439466389 C37.5713934,0.439466389 37.8492913,0.568721209 38.0382022,0.792928609 L49.481728,14.3686618 C49.7307921,14.6644565 49.7859739,15.0780719 49.622914,15.4285513 C49.4598541,15.7790307 49.1083804,16.0037353 48.7216102,16.0037353 Z M3.13592079,14.0151996 L46.5834372,14.0151996 L36.816247,2.42800208 L12.9050995,2.42800208 L3.13592079,14.0151996 Z" id="Shape"></path>
                    <polygon id="Shape" points="24.8591819 44.8906962 0.236138614 15.6497759 1.75736842 14.3691589 24.8591819 41.8029974 47.9609953 14.3691589 49.4822251 15.6497759"></polygon>
                    <path d="M24.8591819,44.3408661 L24.8591819,44.3408661 C24.4371152,44.3408661 24.0617791,44.0748994 23.9215873,43.6771923 L13.9311839,15.3400615 C13.8213174,15.0293528 13.8730193,14.6853361 14.0678958,14.4198666 L24.0582991,0.844133403 C24.4321438,0.335068265 25.2847285,0.335068265 25.6595675,0.844133403 L35.6519594,14.4198666 C35.847333,14.684839 35.8985378,15.0293528 35.7886712,15.3400615 L25.7962793,43.6771923 C25.6565847,44.0748994 25.2812486,44.3408661 24.8591819,44.3408661 Z M15.9813643,15.175013 L24.8586847,40.3568348 L33.7379937,15.175013 L24.8591819,3.1110641 L15.9813643,15.175013 Z" id="Shape"></path>
                    <rect id="Rectangle-path" transform="translate(13.655717, 8.221162) rotate(79.868882) translate(-13.655717, -8.221162) " x="6.76052407" y="7.22690228" width="13.7903859" height="1.98851996"></rect>
                    <rect id="Rectangle-path" transform="translate(36.065635, 8.220914) rotate(10.136758) translate(-36.065635, -8.220914) " x="35.071358" y="1.32535165" width="1.98855494" height="13.7911257"></rect>
                </g>
            </g>
        </g>
    </g>
</svg>