<?xml version="1.0" encoding="UTF-8"?>
<svg width="120px" height="120px" viewBox="0 0 120 120" version="1.1" xmlns="http://www.w3.org/2000/svg" xmlns:xlink="http://www.w3.org/1999/xlink">
    <!-- Generator: Sketch 41.2 (35397) - http://www.bohemiancoding.com/sketch -->
    <title>xamarin</title>
    <desc>Created with Sketch.</desc>
    <defs></defs>
    <g id="Company-Icons" stroke="none" stroke-width="1" fill="none" fill-rule="evenodd">
        <g id="xamarin" fill="#FFFFFF">
            <path d="M48.0692761,67.4209684 L44.9666788,61.4677868 L41.7932611,67.4209684 L38.3808517,67.4209684 L43.2191558,59.7377272 L38.8649678,52.1017872 L42.3246036,52.1017872 L45.1496761,57.9031764 L48.2109549,52.1017872 L51.3754168,52.1017872 L46.9031447,59.6904226 L51.4462376,67.4209684 L48.0692761,67.4209684 Z M59.1325687,67.4209684 L59.1325687,65.7536818 L59.085305,65.7536818 C58.2430214,67.0622857 57.0504734,67.7165856 55.507585,67.7165856 C54.3189501,67.7165856 53.3822141,67.3933814 52.6973765,66.7469618 C52.0125389,66.092658 51.6701014,65.217625 51.6701014,64.1218704 C51.6701014,61.7726857 52.9886364,60.436495 55.6256695,60.1132758 L59.156163,59.628462 C59.156163,57.9808898 58.3926027,57.1571075 56.8654815,57.1570923 C55.4092186,57.1571075 54.0710027,57.6064426 52.8508713,58.5051167 L52.8508713,56.0928665 C53.3074421,55.8169672 53.9607832,55.5686472 54.8109314,55.3479028 C55.668982,55.1271887 56.4482719,55.0168259 57.1488767,55.0168107 C60.2660749,55.0168259 61.824655,56.5934599 61.8246926,59.7467128 L61.8246926,67.4209684 L59.1325311,67.4209684 L59.1325687,67.4209684 Z M56.5466758,61.8751642 C55.735889,61.9776505 55.1651847,62.1786734 54.8345633,62.478225 C54.5118066,62.7699038 54.3504469,63.2231886 54.3504469,63.8380755 C54.3504469,64.3425958 54.5354385,64.7564677 54.9054217,65.0796755 C55.2753669,65.3949955 55.7594833,65.5526629 56.3577332,65.5526629 C57.16852,65.5526629 57.837628,65.2728063 58.3650571,64.7131047 C58.8924484,64.1533994 59.156163,63.4557441 59.156163,62.6201242 L59.156163,61.532246 L56.5466758,61.8751642 L56.5466758,61.8751642 Z M79.2337678,67.4209684 L79.2337678,60.5862635 C79.2337299,59.4589835 79.0566406,58.6233673 78.702425,58.0794263 C78.3560361,57.5276126 77.7341546,57.2516981 76.8368174,57.2516867 C76.1204457,57.2516981 75.5182824,57.5827902 75.030252,58.2449667 C74.5421847,58.8992818 74.298151,59.6915389 74.298151,60.621742 L74.298151,67.4209684 L71.5706165,67.4209684 L71.5706165,60.3497735 C71.5705792,58.2843912 70.7794728,57.2516981 69.1972608,57.2516867 C68.457332,57.2516981 67.8472665,57.5630836 67.3670638,58.185847 C66.894763,58.8086256 66.6586319,59.6205856 66.6586319,60.621742 L66.6586319,67.4209684 L63.9310602,67.4209684 L63.9310602,55.3124355 L66.6586319,55.3124355 L66.6586319,57.1807447 L66.705858,57.1807447 C67.5796382,55.7381372 68.8548608,55.0168259 70.5315633,55.0168107 C71.3344475,55.0168259 72.042917,55.2296711 72.6569341,55.6553538 C73.278778,56.0731675 73.7156683,56.6525796 73.9675669,57.393586 C74.8885732,55.8090831 76.2425191,55.0168259 78.0294033,55.0168107 C80.6585335,55.0168259 81.9731179,56.6565254 81.9731555,59.9359131 L81.9731555,67.4209684 L79.2337678,67.4209684 L79.2337678,67.4209684 Z M91.0409392,67.4209684 L91.0409392,65.7536818 L90.9936764,65.7536818 C90.1513925,67.0622857 88.9588057,67.7165856 87.4159546,67.7165856 C86.2273212,67.7165856 85.2905853,67.3933814 84.6057477,66.7469618 C83.9209101,66.092658 83.5784728,65.217625 83.5784728,64.1218704 C83.5784728,61.7726857 84.8970078,60.436495 87.5340418,60.1132758 L91.0645347,59.628462 C91.0645347,57.9808898 90.3009744,57.1571075 88.7738535,57.1570923 C87.3175531,57.1571075 85.9793741,57.6064426 84.7592424,58.5051167 L84.7592424,56.0928665 C85.2158132,55.8169672 85.8691543,55.5686472 86.7193011,55.3479028 C87.5773155,55.1271887 88.3566442,55.0168259 89.0572111,55.0168107 C92.174446,55.0168259 93.7330277,56.5934599 93.7330656,59.7467128 L93.7330656,67.4209684 L91.0409014,67.4209684 L91.0409392,67.4209684 Z M88.4550457,61.8751642 C87.6442223,61.9776505 87.0735552,62.1786734 86.7429344,62.478225 C86.4201777,62.7699038 86.2588183,63.2231886 86.2588183,63.8380755 C86.2588183,64.3425958 86.4438096,64.7564677 86.8137931,65.0796755 C87.1837395,65.3949955 87.6678556,65.5526629 88.2661038,65.5526629 C89.0768929,65.5526629 89.7459997,65.2728063 90.2734274,64.7131047 C90.8008208,64.1533994 91.0645347,63.4557441 91.0645347,62.6201242 L91.0645347,61.532246 L88.4550457,61.8751642 L88.4550457,61.8751642 Z M102.869601,57.9729981 C102.420931,57.697095 101.893503,57.5591454 101.287386,57.5591378 C100.500196,57.5591454 99.858671,57.8981215 99.362738,58.5760625 C98.874708,59.2540226 98.6306722,60.1369395 98.6306722,61.2248063 L98.6306722,67.4209684 L95.9031035,67.4209684 L95.9031035,55.3124355 L98.6306722,55.3124355 L98.6306722,57.6655546 L98.6779389,57.6655546 C99.2604189,55.9549245 100.291648,55.0996018 101.77154,55.0995866 C102.251705,55.0996018 102.617738,55.1547718 102.869639,55.2651383 L102.869639,57.9729981 L102.869601,57.9729981 Z M105.584906,52.6045719 C105.120467,52.6045795 104.726891,52.4548037 104.404132,52.1552254 C104.081414,51.8478048 103.920054,51.4733462 103.920054,51.0318762 C103.920054,50.5746683 104.081414,50.1923332 104.404132,49.8848822 C104.726891,49.5774463 105.120467,49.4237284 105.584906,49.4237094 C106.057205,49.4237284 106.454733,49.581396 106.777488,49.8967046 C107.10021,50.2041594 107.261605,50.5825525 107.261605,51.0318762 C107.261605,51.4733462 107.10021,51.8478048 106.777488,52.1552254 C106.454733,52.4548037 106.057205,52.6045795 105.584906,52.6045719 Z M104.191598,67.4209684 L104.191598,55.3124355 L106.919167,55.3124355 L106.919167,67.4209684 L104.191598,67.4209684 Z M117.227781,67.4209684 L117.227781,60.621742 C117.227781,58.3750512 116.420909,57.2516981 114.807237,57.2516867 C113.996414,57.2516981 113.315525,57.5630836 112.764502,58.185847 C112.221344,58.8007415 111.949765,59.5851182 111.949765,60.538966 L111.949765,67.4209684 L109.222192,67.4209684 L109.222192,55.3124355 L111.949765,55.3124355 L111.949765,57.2516867 L111.997028,57.2516867 C112.878675,55.761782 114.185356,55.0168259 115.917149,55.0168107 C118.609309,55.0168259 119.955353,56.6722823 119.955391,59.9832102 L119.955391,67.4209684 L117.227819,67.4209684 L117.227781,67.4209684 Z M8.85146229,46 C8.02295059,46.0017617 7.21193095,46.4733208 6.79485278,47.1927005 L0.307937474,58.4915057 C-0.102645835,59.2128114 -0.102645835,60.1556096 0.307937474,60.8769155 L6.79485278,72.1757206 C7.2119748,72.8951062 8.02295059,73.3667916 8.85146229,73.3684211 L21.8252469,73.3684211 C22.6537588,73.3666595 23.4647341,72.8951062 23.8818562,72.1757206 L30.3687702,60.8769155 C30.7793534,60.1556096 30.779311,59.2128114 30.3687702,58.4915057 L23.8818562,47.1927005 C23.4647341,46.4733208 22.6537588,46.0016295 21.8252469,46 L8.85146229,46 Z M8.96920003,52.6099378 C8.98702229,52.6081762 9.00571516,52.6081762 9.0235929,52.6099378 L11.2613756,52.6099378 C11.3604322,52.6119931 11.4565174,52.6693936 11.5059843,52.7556088 L15.3021137,59.538538 C15.3212215,59.572074 15.3335334,59.6094388 15.3382052,59.6477898 C15.3428799,59.6094298 15.3551802,59.5720623 15.3742967,59.538538 L19.1613402,52.7556088 C19.2123768,52.6667805 19.312963,52.6090629 19.4149934,52.6099378 L21.6527768,52.6099378 C21.850935,52.6116995 21.9993308,52.8619569 21.9064719,53.0378549 L18.2009922,59.684212 L21.9064719,66.3214644 C22.00812,66.4983723 21.8560728,66.7602331 21.6527768,66.7584833 L19.4149934,66.7584833 C19.3111798,66.7576024 19.2099991,66.6958917 19.1613402,66.6037074 L15.3742967,59.8207783 C15.3551889,59.7872421 15.342877,59.7498746 15.3382052,59.7115263 C15.3335305,59.7498836 15.3212303,59.7872568 15.3021137,59.8207783 L11.5059843,66.6037074 C11.45877,66.6932845 11.3621735,66.7544051 11.2613756,66.7584833 L9.0235929,66.7584833 C8.82029675,66.7602448 8.66829065,66.4983723 8.76993874,66.3214644 L12.4754173,59.684212 L8.76993874,53.0378549 C8.68111389,52.8773684 8.78948475,52.6441931 8.96920003,52.6099378 L8.96920003,52.6099378 Z" id="Logo"></path>
        </g>
    </g>
</svg>