<?xml version="1.0" encoding="UTF-8"?>
<svg width="167px" height="45px" viewBox="0 0 167 45" version="1.1" xmlns="http://www.w3.org/2000/svg" xmlns:xlink="http://www.w3.org/1999/xlink">
    <!-- Generator: Sketch 41.2 (35397) - http://www.bohemiancoding.com/sketch -->
    <title>Intellectsoft_Full_Logo</title>
    <g id="Page-1" stroke="none" stroke-width="1" fill="none" fill-rule="evenodd">
        <g id="Intellectsoft_Full_Logo" fill="#FFFFFF">
            <g id="Logo-Intellectsoft-net">
                <g id="Page-1">
                    <g id="Logo-Intellectsoft-net">
                        <path d="M34.0797385,14.0748571 C34.0071039,14.7154286 33.5149316,15.2437143 33.1032384,15.2437143 L29.6812751,15.2437143 C28.7679671,15.2437143 28.5396038,16.3662857 28.5396038,16.3662857 L24.7723354,30.4058571 C24.7723354,30.4058571 24.5441174,31.5285714 23.5166277,31.5285714 L11.9866045,31.5285714 C11.5300232,31.5285714 11.3016599,31.3434286 11.3016599,31.0067143 C11.3016599,30.4645714 11.7583865,29.6267143 12.4433312,29.6267143 L17.5537594,29.6267143 C18.238704,29.6267143 19.2380115,29.1315714 19.5211413,28.0548571 C19.8042711,26.9781429 23.0600464,15.3624286 23.2884097,14.6888571 C23.5166277,14.0154286 23.8591727,13.5662857 24.5441174,13.5662857 L33.4483982,13.5662857 C33.9051249,13.5664286 34.1320355,13.6132857 34.0797385,14.0748571 Z M12.5575128,26.9255714 C12.7857309,26.2521429 15.8680546,15.2502857 16.0964179,14.5767143 C16.3246359,13.9031429 16.4388176,13.454 17.2379439,13.454 L21.0052123,13.454 C21.4617937,13.454 21.6628464,13.8998571 21.4617937,14.5767143 C21.2608863,15.2534286 18.1490729,26.1455714 17.9228886,26.9255714 C17.6967043,27.7055714 17.298376,28.0482857 16.8417946,28.0482857 L13.1349582,28.0482857 C12.5641952,28.0482857 12.3291495,27.7115714 12.5575128,26.9255714 Z M22.831683,0.0948571429 C10.2743155,0.0948571429 0,10.1985714 0,22.5474286 C0,34.8964286 10.2743155,45 22.831683,45 C35.3891959,45 45.6633661,34.8964286 45.6633661,22.5474286 C45.6633661,10.1985714 35.3891959,0.0948571429 22.831683,0.0948571429 L22.831683,0.0948571429 Z" id="Fill-1"></path>
                        <path d="M55.7071392,28.218 L56.983911,28.218 L56.983911,16.8967143 L55.7071392,16.8967143 L55.7071392,28.218 Z M55.4837151,13.6268571 C55.4837151,13.3912857 55.5617247,13.1918571 55.7178891,13.0291429 C55.8737631,12.8662857 56.0865826,12.7847143 56.3562024,12.7847143 C56.6256769,12.7847143 56.8403849,12.8662857 56.9998906,13.0291429 C57.1595415,13.1918571 57.2392944,13.3912857 57.2392944,13.6268571 C57.2392944,13.8627143 57.1595415,14.0601429 56.9998906,14.2197143 C56.8403849,14.3791429 56.6256769,14.4588571 56.3562024,14.4588571 C56.0865826,14.4588571 55.8737631,14.3791429 55.7178891,14.2197143 C55.5617247,14.0601429 55.4837151,13.8627143 55.4837151,13.6268571 L55.4837151,13.6268571 Z" id="Fill-2"></path>
                        <path d="M61.6548996,16.8967143 L61.6974635,18.8324286 C62.1299301,18.135 62.6691697,17.6028571 63.3146012,17.2368571 C63.9600326,16.8704286 64.672869,16.6874286 65.4532556,16.6874286 C66.6874634,16.6874286 67.6060011,17.0292857 68.2090139,17.7128571 C68.8117362,18.3965714 69.1168017,19.422 69.1240651,20.789 L69.1240651,28.218 L67.8578981,28.218 L67.8578981,20.7785714 C67.8507799,19.7672857 67.6325854,19.0138571 67.2034599,18.5185714 C66.7741892,18.0232857 66.0879371,17.7755714 65.1447036,17.7755714 C64.3573441,17.7755714 63.6604873,18.0181429 63.0539881,18.5027143 C62.4474888,18.9877143 61.998752,19.6417143 61.7080681,20.4647143 L61.7080681,28.218 L60.441901,28.218 L60.441901,16.8967143 L61.6548996,16.8967143" id="Fill-3"></path>
                        <path d="M74.3908031,13.9984286 L74.3908031,16.8967143 L76.774091,16.8967143 L76.774091,17.9221429 L74.3908031,17.9221429 L74.3908031,25.4744286 C74.3908031,26.1031429 74.5060016,26.571 74.736544,26.8781429 C74.9669411,27.1855714 75.3517594,27.339 75.890999,27.339 C76.1038185,27.339 76.4476709,27.3041429 76.922992,27.2344286 L76.9761606,28.251 C76.6427675,28.3682857 76.1889463,28.4271429 75.614261,28.4271429 C74.7419189,28.4271429 74.1069469,28.1778571 73.7097807,27.6791429 C73.3124692,27.1804286 73.1140313,26.4461429 73.1140313,25.4765714 L73.1140313,17.9221429 L70.9965862,17.9221429 L70.9965862,16.8967143 L73.1140313,16.8967143 L73.1140313,13.9984286 L74.3908031,13.9984286" id="Fill-4"></path>
                        <path d="M83.6367573,17.7547143 C82.6791422,17.7547143 81.8721713,18.1 81.2161352,18.7905714 C80.5599538,19.4811429 80.1610444,20.4088571 80.0192615,21.5737143 L86.9244918,21.5737143 L86.9244918,21.4377143 C86.8889008,20.3495714 86.5733759,19.4638571 85.9774813,18.7801429 C85.3817319,18.0964286 84.6013453,17.7547143 83.6367573,17.7547143 Z M83.8707861,28.4271429 C82.8919617,28.4271429 82.0069812,28.1901429 81.2161352,27.7157143 C80.4251439,27.2414286 79.8099285,26.5804286 79.3701984,25.733 C78.930323,24.8852857 78.7105306,23.935 78.7105306,22.8817143 L78.7105306,22.4317143 C78.7105306,21.3435714 78.924948,20.3637143 79.3542188,19.4915714 C79.7833442,18.6197143 80.3809821,17.9344286 81.146987,17.4354286 C81.9131372,16.9368571 82.7430606,16.6874286 83.6367573,16.6874286 C85.0341025,16.6874286 86.1425072,17.1565714 86.9616807,18.0948571 C87.7809995,19.033 88.1906588,20.3147143 88.1906588,21.94 L88.1906588,22.641 L79.9766976,22.641 L79.9766976,22.8817143 C79.9766976,24.1651429 80.3506208,25.2342857 81.0991934,26.0887143 C81.8474755,26.9432857 82.789111,27.3704286 83.9240999,27.3704286 C84.6049771,27.3704286 85.2061014,27.2484286 85.7274728,27.0041429 C86.2488443,26.76 86.7222769,26.3695714 87.1479159,25.8322857 L87.9458801,26.4287143 C87.0096196,27.7611429 85.6512065,28.4271429 83.8707861,28.4271429 L83.8707861,28.4271429 Z" id="Fill-5"></path>
                        <polygon id="Fill-6" points="90.8187255 28.218 92.0954972 28.218 92.0954972 12.1464286 90.8187255 12.1464286"></polygon>
                        <polygon id="Fill-7" points="95.7023883 28.218 96.9791601 28.218 96.9791601 12.1464286 95.7023883 12.1464286"></polygon>
                        <path d="M104.661145,17.7547143 C103.70353,17.7547143 102.896559,18.1 102.240523,18.7905714 C101.584342,19.4811429 101.185287,20.4088571 101.043504,21.5737143 L107.948734,21.5737143 L107.948734,21.4377143 C107.913143,20.3495714 107.597618,19.4638571 107.001869,18.7801429 C106.405975,18.0964286 105.625588,17.7547143 104.661145,17.7547143 Z M104.895174,28.4271429 C103.91635,28.4271429 103.031369,28.1901429 102.240523,27.7157143 C101.449532,27.2414286 100.834171,26.5804286 100.394586,25.733 C99.9545656,24.8852857 99.7349184,23.935 99.7349184,22.8817143 L99.7349184,22.4317143 C99.7349184,21.3435714 99.9493359,20.3637143 100.378607,19.4915714 C100.807587,18.6197143 101.40537,17.9344286 102.171375,17.4354286 C102.93738,16.9368571 103.767303,16.6874286 104.661145,16.6874286 C106.058345,16.6874286 107.16675,17.1565714 107.986069,18.0948571 C108.805242,19.033 109.214901,20.3147143 109.214901,21.94 L109.214901,22.641 L101.00094,22.641 L101.00094,22.8817143 C101.00094,24.1651429 101.375009,25.2342857 102.123436,26.0887143 C102.871718,26.9432857 103.813354,27.3704286 104.948343,27.3704286 C105.629365,27.3704286 106.230489,27.2484286 106.751861,27.0041429 C107.273232,26.76 107.746665,26.3695714 108.172304,25.8322857 L108.970268,26.4287143 C108.033862,27.7611429 106.675449,28.4271429 104.895174,28.4271429 L104.895174,28.4271429 Z" id="Fill-8"></path>
                        <path d="M115.950021,27.3704286 C116.8366,27.3704286 117.579507,27.1244286 118.179033,26.6328571 C118.778269,26.1408571 119.102801,25.5044286 119.152628,24.7232857 L120.376086,24.7232857 C120.340495,25.4138571 120.120848,26.0434286 119.716418,26.6118571 C119.312134,27.1804286 118.774783,27.6251429 118.10451,27.9458571 C117.434238,28.2665714 116.716026,28.4271429 115.950021,28.4271429 C114.439075,28.4271429 113.242057,27.911 112.358965,26.8787143 C111.475873,25.8464286 111.034399,24.4581429 111.034399,22.7142857 L111.034399,22.3375714 C111.034399,21.2215714 111.232837,20.2344286 111.630149,19.3764286 C112.027315,18.5185714 112.596625,17.8558571 113.337934,17.3884286 C114.078953,16.9212857 114.946065,16.6874286 115.939271,16.6874286 C117.201807,16.6874286 118.242806,17.0572857 119.062125,17.7965714 C119.881444,18.536 120.319286,19.509 120.376086,20.7157143 L119.152628,20.7157143 C119.095682,19.83 118.771151,19.1148571 118.179033,18.5708571 C117.586625,18.0267143 116.840086,17.7547143 115.939271,17.7547143 C114.790191,17.7547143 113.898093,18.1627143 113.263411,18.9788571 C112.628439,19.795 112.311171,20.9391429 112.311171,22.4108571 L112.311171,22.7771429 C112.311171,24.221 112.628439,25.3475714 113.263411,26.1567143 C113.898093,26.966 114.793678,27.3704286 115.950021,27.3704286" id="Fill-9"></path>
                        <path d="M124.898028,13.9984286 L124.898028,16.8967143 L127.281461,16.8967143 L127.281461,17.9221429 L124.898028,17.9221429 L124.898028,25.4744286 C124.898028,26.1031429 125.013227,26.571 125.243914,26.8781429 C125.474311,27.1855714 125.85913,27.339 126.398224,27.339 C126.611044,27.339 126.955041,27.3041429 127.430362,27.2344286 L127.483531,28.251 C127.149993,28.3682857 126.696171,28.4271429 126.121631,28.4271429 C125.249144,28.4271429 124.614317,28.1778571 124.217151,27.6791429 C123.819694,27.1804286 123.621256,26.4461429 123.621256,25.4765714 L123.621256,17.9221429 L121.503957,17.9221429 L121.503957,16.8967143 L123.621256,16.8967143 L123.621256,13.9984286 L124.898028,13.9984286" id="Fill-10"></path>
                        <path d="M135.676283,25.0894286 C135.676283,24.7197143 135.490048,24.4285714 135.117577,24.2157143 C134.745252,24.0031429 134.147614,23.813 133.324809,23.6455714 C130.586628,23.0805714 129.217901,21.9364286 129.217901,20.2135714 C129.217901,19.2091429 129.641651,18.3702857 130.489298,17.6972857 C131.336799,17.0241429 132.445203,16.6874286 133.814221,16.6874286 C135.27534,16.6874286 136.443886,17.0258571 137.32015,17.7024286 C138.195979,18.379 138.634111,19.2578571 138.634111,20.3391429 L135.559196,20.3391429 C135.559196,19.9065714 135.417122,19.549 135.133557,19.2667143 C134.849846,18.984 134.406339,18.8428571 133.803616,18.8428571 C133.285731,18.8428571 132.884934,18.958 132.601368,19.1881429 C132.317512,19.4182857 132.175729,19.7112857 132.175729,20.067 C132.175729,20.4018571 132.336978,20.6722857 132.659766,20.878 C132.982554,21.0838571 133.527024,21.2617143 134.293029,21.4115714 C135.059179,21.5615714 135.704465,21.7307143 136.229468,21.919 C137.853724,22.505 138.66607,23.52 138.66607,24.9638571 C138.66607,25.9962857 138.215445,26.8314286 137.314775,27.4698571 C136.413815,28.108 135.250644,28.4271429 133.824826,28.4271429 C132.860092,28.4271429 132.003585,28.258 131.255303,27.9197143 C130.506875,27.5814286 129.920133,27.1175714 129.494494,26.5281429 C129.068855,25.9387143 128.856035,25.3022857 128.856035,24.6185714 L131.771444,24.6185714 C131.799627,25.1558571 132.001842,25.5672857 132.377944,25.8532857 C132.753755,26.1394286 133.257259,26.2822857 133.888744,26.2822857 C134.477375,26.2822857 134.922481,26.1724286 135.22406,25.9525714 C135.525493,25.733 135.676283,25.4451429 135.676283,25.0894286" id="Fill-11"></path>
                        <path d="M143.241181,22.6674286 C143.241181,23.7432857 143.446737,24.566 143.858285,25.1351429 C144.269542,25.7047143 144.858464,25.9892857 145.625195,25.9892857 C146.368974,25.9892857 146.950051,25.708 147.369879,25.1457143 C147.788255,24.5832857 147.997443,23.6838571 147.997443,22.4472857 C147.997443,21.3924286 147.788255,20.575 147.369879,19.995 C146.950051,19.4154286 146.36171,19.1254286 145.603405,19.1254286 C144.8512,19.1254286 144.269542,19.4135714 143.858285,19.9898571 C143.446737,20.5664286 143.241181,21.4588571 143.241181,22.6674286 Z M140.166266,22.4527143 C140.166266,21.3295714 140.386058,20.3285714 140.825934,19.4497143 C141.265664,18.5708571 141.898747,17.8907143 142.725184,17.4094286 C143.551331,16.9281429 144.510834,16.6874286 145.603405,16.6874286 C147.156333,16.6874286 148.424534,17.1548571 149.406555,18.0895714 C150.388575,19.0244286 150.937693,20.2937143 151.051003,21.8981429 L151.072793,22.6724286 C151.072793,24.4092857 150.578878,25.8027143 149.592499,26.8524286 C148.607574,27.9024286 147.28417,28.4271429 145.625195,28.4271429 C143.964622,28.4271429 142.640057,27.904 141.650482,26.8577143 C140.661053,25.8114286 140.166266,24.3884286 140.166266,22.5887143 L140.166266,22.4527143 L140.166266,22.4527143 Z" id="Fill-12"></path>
                        <path d="M153.806761,28.218 L153.806761,19.1148571 L152.094036,19.1148571 L152.094036,16.8967143 L153.806761,16.8967143 L153.806761,15.9341429 C153.806761,14.6645714 154.177198,13.6792857 154.918071,12.9781429 C155.658945,12.2772857 156.696167,11.9267143 158.031192,11.9267143 C158.456831,11.9267143 158.976895,11.9958571 159.59429,12.1341429 L159.56233,14.4588571 C159.306656,14.396 158.99578,14.3645714 158.626796,14.3645714 C157.470453,14.3645714 156.892281,14.9028571 156.892281,15.9788571 L156.892281,16.8967143 L159.180272,16.8967143 L159.180272,19.1148571 L156.892281,19.1148571 L156.892281,28.218 L153.806761,28.218" id="Fill-13"></path>
                        <path d="M164.456453,14.1135714 L164.456453,16.8967143 L166.424851,16.8967143 L166.424851,19.1148571 L164.456453,19.1148571 L164.456453,24.7651429 C164.456453,25.1835714 164.537803,25.4835714 164.701958,25.6648571 C164.864659,25.8464286 165.176988,25.937 165.637492,25.937 C165.978875,25.937 166.279582,25.9125714 166.54252,25.8637143 L166.54252,28.1551429 C165.939652,28.3365714 165.319352,28.4271429 164.680167,28.4271429 C162.524371,28.4271429 161.424683,27.3564286 161.382555,25.215 L161.382555,19.1148571 L159.700336,19.1148571 L159.700336,16.8967143 L161.382555,16.8967143 L161.382555,14.1135714 L164.456453,14.1135714" id="Fill-14"></path>
                    </g>
                </g>
            </g>
        </g>
    </g>
</svg>