<svg xmlns="http://www.w3.org/2000/svg" width="71" height="82" viewBox="0 0 71 82">
  <defs>
    <style>
      .cls-1 {
        fill-rule: evenodd;
      }
    </style>
  </defs>
  <path id="ErnstYang" class="cls-1" d="M620.582,631.264h1.491l0.2-.041,0.162-.04,0.161-.081,0.081-.081,0.08-.081,0.04-.121,0.041-.244-0.041-.161-0.04-.122-0.04-.122-0.08-.081-0.121-.081-0.162-.041-0.363-.039h-1.41v1.336m0,2.795h1.692l0.2-.041,0.162-.081,0.12-.122,0.121-.121,0.081-.162,0.04-.162,0.04-.2-0.04-.2-0.04-.2-0.081-.162-0.081-.121-0.16-.082-0.162-.081-0.161-.04h-1.733v1.782m-1.129,1.053v-6.278h2.66l0.4,0.04,0.4,0.082,0.322,0.121,0.282,0.2,0.242,0.243,0.161,0.284,0.081,0.325,0.04,0.363-0.04.162-0.04.2-0.041.163-0.08.2-0.121.121-0.121.163-0.121.121-0.161.082,0.282,0.162,0.161,0.122,0.161,0.161,0.121,0.162,0.121,0.243,0.041,0.243,0.04,0.324-0.04.446-0.122.4-0.161.323-0.242.284-0.322.243L623,634.99l-0.443.082-0.484.04h-2.62m1.136-1.06v-1.768h1.725l0.16,0.04,0.16,0.081,0.159,0.081,0.08,0.119,0.08,0.161,0.04,0.2,0.04,0.2-0.04.2-0.04.16-0.08.16-0.12.121-0.12.121-0.159.08-0.2.041h-1.685m1.726-1.775h-1.733v1.782h1.692l0.2-.041,0.162-.081,0.12-.122,0.121-.121,0.081-.162,0.04-.162,0.04-.2-0.04-.2-0.04-.2-0.081-.162-0.081-.121-0.16-.082-0.162-.081-0.161-.04m-1.726-1.021v-1.321h1.4l0.362,0.039,0.159,0.041,0.12,0.08,0.079,0.079,0.039,0.12,0.04,0.122,0.04,0.159-0.04.242-0.039.119-0.08.079-0.08.081-0.159.08-0.16.04-0.2.04h-1.483m1.4-1.328h-1.41v1.336h1.491l0.2-.041,0.162-.04,0.161-.081,0.081-.081,0.08-.081,0.04-.121,0.041-.244-0.041-.161-0.04-.122-0.04-.122-0.08-.081-0.121-.081-0.162-.041-0.363-.039m-2.539,5.184v-6.278h2.66l0.4,0.04,0.4,0.082,0.322,0.121,0.282,0.2,0.242,0.243,0.161,0.284,0.081,0.325,0.04,0.363-0.04.162-0.04.2-0.041.163-0.08.2-0.121.121-0.121.163-0.121.121-0.161.082,0.282,0.162,0.161,0.122,0.161,0.161,0.121,0.162,0.121,0.243,0.041,0.243,0.04,0.324-0.04.446-0.122.4-0.161.323-0.242.284-0.322.243L623,634.99l-0.443.082-0.484.04h-2.62m2.661-6.286h-2.668v6.293h2.627l0.485-.041L623,635l0.365-.162,0.324-.245,0.243-.284,0.161-.326,0.122-.406,0.04-.447h0l-0.04-.324-0.041-.243h0l-0.121-.244h0l-0.122-.163h0l-0.162-.162h0l-0.162-.122h0l-0.27-.155,0.148-.075h0l0.122-.123h0l0.12-.163,0.121-.12h0l0.081-.2h0l0.04-.163,0.041-.2,0.039-.162h0l-0.04-.367-0.082-.325-0.162-.285-0.243-.245-0.283-.2-0.324-.122-0.4-.08-0.4-.041m-1.532,5.233v-1.782h1.733l0.161,0.04,0.162,0.081,0.16,0.082,0.081,0.121,0.081,0.162,0.04,0.2,0.04,0.2-0.04.2-0.04.162-0.081.162-0.121.121-0.12.122-0.162.081-0.2.041h-1.692m1.734-1.79h-1.742v1.8h1.7l0.2-.041h0l0.162-.081h0l0.122-.122,0.12-.122h0l0.081-.163h0l0.04-.163h0l0.041-.2h0l-0.041-.2-0.04-.2h0l-0.081-.164h0l-0.081-.122h0l-0.162-.083-0.161-.08h0l-0.162-.04h0m-1.734-1v-1.336h1.41l0.363,0.039,0.162,0.041,0.121,0.081,0.08,0.081,0.04,0.122,0.04,0.122,0.041,0.161-0.041.244-0.04.121-0.08.081-0.081.081-0.161.081-0.162.04-0.2.041h-1.491m1.411-1.344h-1.419v1.351h1.5l0.2-.04h0l0.162-.041h0l0.161-.081h0l0.082-.083,0.081-.081h0l0.04-.123h0l0.04-.244h0l-0.041-.163h0l-0.041-.123-0.04-.122h0l-0.082-.082h0L622.521,630h0l-0.163-.041h0l-0.363-.04m-2.532,5.184v-6.263h2.652l0.4,0.041,0.4,0.08,0.321,0.12,0.28,0.2,0.241,0.243,0.16,0.282L624,630.131l0.04,0.363-0.04.16-0.041.2-0.04.161-0.08.2-0.12.12h0l-0.121.163-0.12.12-0.159.081-0.013.006,0.294,0.169,0.16,0.121,0.161,0.161,0.12,0.161,0.12,0.242,0.04,0.241,0.04,0.323-0.04.444-0.121.4-0.16.322-0.241.282-0.321.243-0.361.161-0.442.08-0.483.041h-2.612m2.652-6.27h-2.66v6.278h2.62l0.484-.04L623,634.99l0.363-.162,0.322-.243,0.242-.284,0.161-.323,0.122-.4,0.04-.446-0.04-.324-0.041-.243-0.121-.243-0.121-.162-0.161-.161-0.161-.122-0.282-.162,0.161-.082,0.121-.121,0.121-.163,0.121-.121,0.08-.2,0.041-.163,0.04-.2,0.04-.162-0.04-.363-0.081-.325-0.161-.284-0.242-.243-0.282-.2-0.322-.121-0.4-.082-0.4-.04m4.394,6.359-0.242-.041-0.2-.04-0.2-.122-0.161-.08-0.121-.163-0.242-.283-0.161-.324-0.081-.365-0.04-.323v-2.917h1.128v2.794l0.041,0.244,0.081,0.162,0.08,0.161,0.121,0.122,0.121,0.081,0.2,0.081h0.363l0.2-.081,0.121-.081,0.12-.122,0.122-.161,0.04-.162,0.04-.244,0.04-.243v-2.551h1.088v4.577h-1.088v-0.365l-0.242.2-0.241.163-0.323.081-0.322.041-0.242-.041m0.322-1.013h0.363l0.2-.081,0.121-.081,0.12-.122,0.122-.161,0.04-.162,0.04-.244,0.04-.243v-2.551h1.088v4.577h-1.088v-0.365l-0.242.2-0.241.163-0.323.081-0.322.041-0.242-.041-0.242-.041-0.2-.04-0.2-.122-0.161-.08-0.121-.163-0.242-.283-0.161-.324-0.081-.365-0.04-.323v-2.917h1.128v2.794l0.041,0.244,0.081,0.162,0.08,0.161,0.121,0.122,0.121,0.081,0.2,0.081m2.144-3.653h-1.1v2.559l-0.04.242-0.04.243-0.04.161-0.12.159-0.12.121-0.119.08-0.2.08h-0.36l-0.2-.08-0.12-.08-0.12-.12-0.08-.161-0.08-.161-0.04-.242v-2.8h-1.144v2.925h0l0.041,0.324h0l0.081,0.366,0.162,0.326,0.242,0.284,0.121,0.162h0L625.858,635l0.2,0.121h0l0.2,0.041,0.243,0.04,0.242,0.04h0l0.322-.04h0l0.324-.081,0.243-.163,0.23-.193v0.356h1.1v-4.592m-2.224,4.706h0v0m0-.008h0m0.078-1.038h0.366l0.2-.081h0l0.122-.08h0l0.121-.123h0l0.122-.162h0l0.041-.164h0l0.041-.243,0.04-.243h0v-2.544h1.073V635.1h-1.073v-0.373l-0.254.212-0.24.162-0.321.08-0.321.04-0.241-.04-0.242-.04h0l-0.2-.04-0.2-.121h0l-0.16-.079-0.12-.161h0l-0.242-.283-0.16-.323-0.081-.364-0.04-.322v-2.908h1.114v2.786h0l0.04,0.244h0l0.081,0.163,0.08,0.161h0l0.122,0.124h0l0.122,0.081h0l0.2,0.081h0m2.137-3.652h-1.088v2.551l-0.04.243-0.04.244-0.04.162-0.122.161-0.12.122-0.121.081-0.2.081h-0.363l-0.2-.081-0.121-.081-0.121-.122-0.08-.161-0.081-.162-0.041-.244v-2.794h-1.128v2.917l0.04,0.323,0.081,0.365,0.161,0.324,0.242,0.283,0.121,0.163,0.161,0.08,0.2,0.122,0.2,0.04,0.242,0.041,0.242,0.041,0.322-.041,0.323-.081,0.241-.163,0.242-.2v0.365h1.088v-4.577m14.955,4.577v-2.8l-0.041-.2-0.08-.2-0.08-.163-0.122-.121-0.12-.081-0.2-.04-0.161-.041-0.2.041-0.2.04-0.121.081-0.121.121-0.121.163-0.081.2-0.04.2v2.8H641.1v-4.577h1.129v0.4l0.242-.242,0.282-.122,0.282-.122h0.726l0.322,0.122,0.282,0.162,0.242,0.244,0.2,0.283,0.121,0.364,0.081,0.4,0.04,0.486v2.593H643.92m-0.16-4.666h-0.728l-0.284.122-0.283.123-0.23.23v-0.394h-1.144v4.592h1.144V632.6h-0.008v2.511H641.1v-4.577h1.129v0.4l0.242-.242,0.282-.122,0.282-.122h0.726l0.322,0.122,0.282,0.162,0.242,0.244,0.2,0.283,0.121,0.364,0.081,0.4,0.04,0.486v2.593H643.92v-2.8l-0.041-.2-0.08-.2-0.08-.163-0.122-.121-0.12-.081-0.2-.04-0.161-.041-0.2.041-0.2.04-0.121.081-0.121.121-0.121.163-0.081.2-0.04.2V632.6h0.008v-0.283l0.04-.2,0.08-.2,0.119-.16,0.121-.121,0.119-.08,0.2-.04,0.2-.04,0.159,0.04h0l0.2,0.04,0.119,0.08,0.12,0.12,0.079,0.16,0.08,0.2,0.041,0.2v2.8h1.143v-2.6l-0.04-.487-0.081-.406-0.121-.365-0.2-.285-0.243-.245-0.284-.163-0.324-.122m0,0.007h-0.726l-0.282.122-0.282.122-0.242.242v-0.4H641.1v4.577h1.129V632.6H642.22v2.5h-1.114v-4.561h1.114v0.415l0.253-.254,0.281-.122,0.281-.121h0.722l0.321,0.121,0.281,0.161,0.241,0.242,0.2,0.282,0.121,0.363,0.08,0.4,0.04,0.485V635.1h-1.113v-2.788h0l-0.041-.2h0l-0.081-.2h0l-0.081-.162h0l-0.122-.123h0l-0.121-.081h0l-0.2-.04-0.161-.041h0l-0.2.041-0.2.041h0l-0.122.082h0l-0.121.122h0l-0.121.163h0l-0.082.2h0l-0.04.2h0V632.6h0.007v-0.284l0.04-.2,0.081-.2,0.121-.163,0.121-.121,0.121-.081,0.2-.04,0.2-.041,0.161,0.041,0.2,0.04,0.12,0.081,0.122,0.121,0.08,0.163,0.08,0.2,0.041,0.2v2.8h1.129v-2.593l-0.04-.486-0.081-.4-0.121-.364-0.2-.283-0.242-.244-0.282-.162-0.322-.122m-13.745.082h1.128v4.577h-1.128v-4.577m0,4.577v-4.577h1.128v4.577h-1.128m1.121-4.578h0m0.015-.008h-1.144v4.593h1.144v-4.593m-1.129,4.578v-4.563h1.114V635.1h-1.114m1.121-4.569h-1.128v4.577h1.128v-4.577m0.968,4.577V629.2l1.128-.567v6.481H632.11m0,0V629.2l1.128-.567v6.481H632.11m1.136-6.494-1.144.575v5.926h1.144v-6.5m-1.136,6.494h0m0.007,0h0m0-.008v-5.9l1.114-.56V635.1h-1.114m1.121-6.473-1.128.567v5.914h1.128v-6.481m2.661,2.875-0.162.041-0.161.04-0.12.121-0.122.163-0.08.243-0.04.283-0.041.365,0.041,0.405,0.04,0.324,0.08,0.244,0.122,0.161,0.16,0.122,0.121,0.081,0.162,0.08h0.161l0.242-.04,0.242-.121,0.161-.122,0.121-.161v-1.824l-0.121-.121-0.161-.162-0.242-.122-0.282-.04-0.121.04m-0.484,3.687-0.363-.122-0.282-.2-0.282-.283-0.2-.365-0.12-.4-0.081-.486-0.041-.527,0.041-.526,0.081-.486,0.161-.365,0.2-.364,0.242-.244,0.323-.2,0.322-.122,0.4-.041H636.1l0.282,0.081,0.242,0.122,0.2,0.2V629.2l1.128-.568v6.482h-1.128v-0.325l-0.242.162-0.242.163-0.242.081-0.282.04-0.4-.04m0.486-1.021-0.16-.08-0.12-.08-0.16-.121-0.12-.161-0.08-.241-0.04-.323-0.04-.4,0.04-.364,0.04-.282,0.08-.242,0.12-.161,0.119-.119,0.159-.039,0.162-.041h0l0.119-.039,0.28,0.04,0.239,0.12,0.161,0.161,0.118,0.119v1.817l-0.118.16-0.16.121-0.241.12-0.239.04H635.9m0.119-2.706-0.121.04-0.162.041-0.161.04-0.12.121-0.122.163-0.08.243-0.04.283-0.041.365,0.041,0.405,0.04,0.324,0.08,0.244,0.122,0.161,0.16,0.122,0.121,0.081,0.162,0.08h0.161l0.242-.04,0.242-.121,0.161-.122,0.121-.161v-1.824l-0.121-.121-0.161-.162-0.242-.122-0.282-.04m0.806-.608V629.2l1.128-.568v6.482h-1.128v-0.325l-0.242.162-0.242.163-0.242.081-0.282.04-0.4-.04-0.363-.122-0.282-.2-0.282-.283-0.2-.365-0.12-.4-0.081-.486-0.041-.527,0.041-.526,0.081-.486,0.161-.365,0.2-.364,0.242-.244,0.323-.2,0.322-.122,0.4-.041H636.1l0.282,0.081,0.242,0.122,0.2,0.2m1.136-2.24-1.144.575v1.647l-0.189-.19-0.243-.123h0l-0.283-.081h-0.284l-0.4.04-0.324.122-0.323.2-0.244.246-0.2.365-0.161.366-0.081.487-0.041.527,0.041,0.528,0.08,0.487,0.122,0.406,0.2,0.367,0.283,0.284,0.284,0.2,0.364,0.123,0.4,0.04,0.283-.04h0l0.243-.082h0l0.242-.163,0.23-.154v0.318h1.144v-6.5m-2.063,5.561-0.162-.08-0.121-.081-0.16-.122-0.122-.161-0.08-.244-0.04-.324-0.041-.405,0.041-.365,0.04-.283,0.08-.243,0.122-.163,0.12-.121,0.161-.04,0.162-.041,0.121-.04,0.282,0.04,0.242,0.122,0.161,0.162,0.121,0.121v1.824l-0.121.161-0.161.122-0.242.121-0.242.04H635.9m0.12-2.721-0.122.041-0.161.041-0.161.04h0l-0.123.122h0l-0.122.163h0l-0.081.245h0l-0.041.284-0.04.366,0.04,0.406,0.041,0.324h0l0.08,0.243h0l0.122,0.163h0l0.162,0.123h0l0.121,0.081h0l0.162,0.081h0.165l0.242-.04h0l0.243-.121h0l0.161-.123h0l0.122-.163v-1.83l-0.123-.123-0.161-.163h0L636.3,631.5h0l-0.283-.04h0m0.807-.6h0m0.007,0V629.2l1.114-.56V635.1h-1.114v-0.331l-0.253.17-0.241.161-0.24.081-0.281.04-0.4-.04-0.361-.121-0.281-.2-0.281-.283-0.2-.362-0.12-.4-0.081-.486-0.04-.526,0.04-.525,0.081-.485,0.16-.364,0.2-.362,0.241-.243,0.321-.2,0.321-.121,0.4-.04h0.28l0.281,0.08,0.24,0.121,0.213,0.214v-0.018m1.121-2.228-1.128.568v1.66l-0.2-.2-0.242-.122-0.282-.081h-0.282l-0.4.041-0.322.122-0.323.2-0.242.244-0.2.364-0.161.365-0.081.486-0.041.526,0.041,0.527,0.081,0.486,0.12,0.4,0.2,0.365,0.282,0.283,0.282,0.2,0.363,0.122,0.4,0.04,0.282-.04,0.242-.081,0.242-.163,0.242-.162v0.325h1.128V628.63m23.017,2.876-0.243.081-0.16.162-0.162.2v1.782l0.121,0.122,0.161,0.162,0.242,0.121,0.121,0.04h0.162l0.2-.04,0.161-.04,0.161-.122,0.121-.162,0.08-.2,0.042-.244,0.04-.283,0.04-.324-0.04-.323-0.04-.284-0.082-.2-0.12-.2-0.121-.121-0.162-.081-0.161-.041-0.12-.04-0.242.04m0.16,3.687-0.282-.082-0.242-.162-0.2-.162v0.324h-1.129v-5.792l1.129-.568v2.107l0.2-.162,0.283-.162,0.241-.081h0.283l0.4,0.041,0.322,0.121,0.323,0.2,0.241,0.244,0.2,0.364,0.16,0.365,0.081,0.486,0.04,0.526-0.04.527-0.081.486-0.121.4-0.2.365-0.282.283-0.282.2-0.363.122-0.4.039-0.283-.039m-0.079-1.021-0.119-.04-0.241-.12-0.16-.162-0.119-.119v-1.776l0.16-.2,0.159-.161,0.241-.08,0.239-.041,0.119,0.04h0l0.161,0.041,0.159,0.08,0.12,0.12,0.119,0.2,0.081,0.2,0.04,0.284,0.04,0.322-0.04.323-0.04.283-0.041.243-0.079.2-0.121.16-0.158.12-0.16.04-0.2.04h-0.16m0.161-2.706h0l0,0.007,0-.007-0.241.04-0.243.081-0.16.162-0.162.2v1.782l0.121,0.122,0.161,0.162,0.242,0.121,0.121,0.04h0.162l0.2-.04,0.161-.04,0.161-.122,0.121-.162,0.08-.2,0.042-.244,0.04-.283,0.04-.324-0.04-.323-0.04-.284-0.082-.2-0.12-.2-0.121-.121-0.162-.081-0.161-.041-0.12-.04m-1.936,3.645v-5.792l1.129-.568v2.107l0.2-.162,0.283-.162,0.241-.081h0.283l0.4,0.041,0.322,0.121,0.323,0.2,0.241,0.244,0.2,0.364,0.16,0.365,0.081,0.486,0.04,0.526-0.04.527-0.081.486-0.121.4-0.2.365-0.282.283-0.282.2-0.363.122-0.4.039-0.283-.039-0.282-.082-0.242-.162-0.2-.162v0.324h-1.129m1.136-6.372-1.143.575v5.805h1.143V634.8l0.189,0.152h0l0.243,0.163,0.283,0.082h0l0.283,0.04h0l0.4-.04,0.364-.123,0.284-.2,0.283-.284,0.2-.367,0.122-.406,0.08-.487,0.041-.528-0.041-.527-0.08-.488-0.162-.365-0.2-.365-0.244-.246-0.324-.2-0.323-.122-0.4-.04H661.13l-0.243.081h0l-0.284.163-0.19.153v-2.1m0.8,2.727h0l0.12,0.04,0.161,0.041,0.162,0.081,0.121,0.121,0.12,0.2,0.082,0.2,0.04,0.284,0.04,0.323-0.04.324-0.04.283-0.042.244-0.08.2-0.121.162-0.161.122-0.161.04-0.2.04h-0.162l-0.121-.04-0.242-.121-0.161-.162-0.121-.122v-1.782l0.162-.2,0.16-.162,0.243-.081,0.241-.04m0-.008h0l-0.242.041h0l-0.243.081h0l-0.162.163h0l-0.162.2,0,0v1.787l0.123,0.123,0.162,0.164h0l0.242,0.122h0l0.122,0.04h0.164l0.2-.04,0.162-.041h0l0.161-.123h0l0.122-.163h0l0.08-.2h0l0.041-.244,0.04-.284,0.04-.324h0l-0.04-.325-0.04-.284h0l-0.082-.2h0l-0.121-.2h0l-0.122-.123h0l-0.162-.081h0l-0.162-.041-0.12-.041h0m-1.928,3.646v-5.78l1.113-.561v2.111l0.213-.172,0.282-.161,0.239-.08h0.282l0.4,0.04,0.321,0.121,0.321,0.2,0.241,0.243,0.2,0.362,0.16,0.364,0.08,0.485,0.041,0.525-0.041.526-0.08.486-0.121.4-0.2.363-0.281.283-0.28.2-0.361.121-0.4.04-0.281-.04-0.28-.081-0.242-.161-0.2-.162-0.012-.01V635.1h-1.113m1.121-6.353-1.129.568v5.792h1.129v-0.324l0.2,0.162,0.242,0.162,0.282,0.082,0.283,0.039,0.4-.039,0.363-.122,0.282-.2,0.282-.283,0.2-.365,0.121-.4,0.081-.486,0.04-.527-0.04-.526-0.081-.486-0.16-.365-0.2-.364-0.241-.244-0.323-.2-0.322-.121-0.4-.041v0h-0.283l-0.241.081-0.283.162-0.2.162v-2.107m-12.9,2.755-0.161.081-0.121.121-0.12.163-0.081.243-0.041.283-0.04.365,0.04,0.4,0.041,0.284,0.081,0.284,0.12,0.162,0.121,0.122,0.161,0.081,0.162,0.08h0.121l0.282-.04,0.2-.121,0.2-.122,0.121-.162v-1.823l-0.121-.162-0.161-.121-0.242-.122-0.282-.041h-0.162l-0.121.041m-0.4,4.577h0.04l0.483-.04,0.363-.081,0.242-.122,0.2-.162,0.08-.2,0.081-.2v-0.486l-0.242.162-0.242.162-0.242.082-0.322.039-0.363-.039-0.363-.164-0.282-.2-0.282-.243-0.2-.365-0.121-.4-0.12-.486v-1.053l0.12-.487,0.121-.4,0.243-.324,0.241-.284,0.322-.162,0.323-.121,0.4-.041h0.282l0.282,0.081,0.242,0.162,0.2,0.162v-0.324h1.128v4.172l-0.04.526-0.08.446-0.2.4-0.081.162-0.161.162-0.121.121-0.161.123-0.4.161-0.444.122-0.524.04-0.4-.891m0.565-1.911-0.159-.08-0.161-.081-0.119-.12-0.12-.161-0.08-.281-0.04-.284-0.04-.4,0.04-.364,0.04-.282,0.08-.242,0.12-.161,0.119-.12,0.16-.08,0.12-.04h0.159l0.28,0.041,0.241,0.12,0.16,0.121,0.118,0.159v1.817l-0.118.159-0.2.121-0.2.12-0.28.041H647.67m0.12-2.707h-0.162l-0.121.041-0.161.081-0.121.121-0.12.163-0.081.243-0.041.283-0.04.365,0.04,0.4,0.041,0.284,0.081,0.284,0.12,0.162,0.121,0.122,0.161,0.081,0.162,0.08h0.121l0.282-.04,0.2-.121,0.2-.122,0.121-.162v-1.823h0l-0.121-.162-0.161-.121-0.242-.122-0.282-.041m-0.242,3.767-0.363-.039-0.363-.164-0.282-.2-0.282-.243-0.2-.365-0.121-.4-0.12-.486v-1.053l0.12-.487,0.121-.4,0.243-.324,0.241-.284,0.322-.162,0.323-.121,0.4-.041h0.282l0.282,0.081,0.242,0.162,0.2,0.162v-0.324h1.128v4.172l-0.04.526-0.08.446-0.2.4-0.081.162-0.161.162-0.121.121-0.161.123-0.4.161-0.444.122-0.524.04-0.4-.891h0.04l0.483-.04,0.363-.081,0.242-.122,0.2-.162,0.08-.2,0.081-.2v-0.486l-0.242.162-0.242.162-0.242.082-0.322.039m0.323-4.786h-0.283l-0.4.04-0.324.122-0.324.163-0.242.285-0.243.326-0.122.406-0.121.486v1.055l0.121,0.488,0.121,0.406,0.2,0.367,0.283,0.243,0.284,0.2,0.364,0.163,0.365,0.041,0.323-.041h0l0.242-.081h0l0.243-.163,0.23-.154v0.471l-0.08.2-0.08.2-0.2.16-0.24.121-0.362.08-0.483.04h-0.051l0.41,0.907,0.53-.04,0.445-.123,0.4-.162,0.162-.122h0l0.121-.122,0.161-.162h0l0.082-.164,0.2-.4,0.081-.448,0.04-.527v-4.18h-1.144v0.317l-0.189-.153h0l-0.243-.163-0.284-.081h0m0.725,1.465h0m-0.927,2.268-0.162-.08-0.161-.081-0.121-.122-0.12-.162-0.081-.284-0.041-.284-0.04-.4,0.04-.365,0.041-.283,0.081-.243,0.12-.163,0.121-.121,0.161-.081,0.121-.041h0.162l0.282,0.041,0.242,0.122,0.161,0.121,0.121,0.162,0.006,0-0.006,0v1.823l-0.121.162-0.2.122-0.2.121-0.282.04h-0.121m0.121-2.721h-0.163l-0.122.041h0l-0.162.081h0l-0.122.122h0l-0.121.163h0l-0.081.245h0l-0.041.284-0.04.366,0.04,0.405,0.04,0.284h0l0.08,0.284h0l0.121,0.163h0l0.121,0.121h0l0.162,0.082,0.161,0.081h0.125l0.283-.041h0l0.2-.121,0.2-.121h0l0.122-.164v-1.831l-0.121-.162h0l-0.162-.122h0l-0.243-.121h0l-0.283-.041h0m0.806-.6h0m-1.048,4.367-0.361-.041-0.361-.161-0.281-.2-0.281-.241-0.2-.363-0.12-.4-0.121-.485v-1.052l0.121-.485,0.12-.4,0.241-.323,0.241-.283,0.32-.161,0.322-.121,0.4-.04h0.281l0.28,0.08,0.241,0.161,0.2,0.162,0.012,0.01v-0.333h1.114v4.165l-0.04.525-0.081.445-0.2.4-0.08.161-0.16.16-0.121.122-0.16.121-0.4.161-0.443.122-0.518.039-0.4-.876h0.029l0.485-.04,0.364-.081,0.242-.122h0l0.2-.163h0l0.081-.2,0.081-.2h0v-0.5l-0.253.17-0.241.161-0.241.08-0.32.041m0.322-4.772h-0.282l-0.4.041-0.323.121-0.322.162-0.241.284-0.243.324-0.121.4-0.12.487v1.053l0.12,0.486,0.121,0.4,0.2,0.365,0.282,0.243,0.282,0.2,0.363,0.164,0.363,0.039,0.322-.039,0.242-.082,0.242-.162,0.242-.162v0.486l-0.081.2-0.08.2-0.2.162-0.242.122-0.363.081-0.483.04h-0.04l0.4,0.891,0.524-.04,0.444-.122,0.4-.161,0.161-.123,0.121-.121,0.161-.162,0.081-.162,0.2-.4,0.08-.446,0.04-.526v-4.172H648.6v0.324l-0.2-.162-0.242-.162-0.282-.081M654,633.005l-0.121.04-0.121.082-0.08.08-0.081.122-0.04.121v0.284l0.04,0.162,0.081,0.121,0.08,0.082,0.121,0.08L654,634.22l0.161,0.04,0.161,0.041,0.283-.041,0.282-.121,0.161-.162,0.162-.162v-0.649l-0.2-.08-0.2-.081-0.241-.042h-0.4l-0.161.042m-0.2,2.187-0.283-.04-0.282-.123-0.241-.161-0.243-.243-0.161-.284-0.12-.324-0.041-.4,0.041-.406,0.12-.324,0.2-.243,0.242-.2,0.282-.164,0.282-.08,0.322-.081h0.565l0.282,0.04,0.242,0.082,0.2,0.08v-0.445l-0.041-.163-0.081-.121-0.08-.081-0.121-.081-0.162-.04-0.322-.041-0.322.041-0.323.04-0.282.122-0.242.121-0.443-.77,0.4-.2,0.4-.162,0.443-.081h0.847l0.363,0.081,0.322,0.162,0.282,0.162,0.2,0.243,0.161,0.243,0.081,0.324,0.041,0.365v3.078h-1.129v-0.365l-0.243.2-0.322.162-0.282.081-0.242.04-0.322-.04m0.766-2.229h-0.4l-0.161.042-0.121.04-0.121.082-0.08.08-0.081.122-0.04.121v0.163h0.007v-0.162l0.04-.119,0.08-.12,0.079-.08,0.12-.08,0.119-.04,0.16-.041h0.4l0.24,0.041,0.2,0.081,0.2,0.079v0.64l-0.159.16-0.161.16-0.279.121-0.28.041-0.16-.041-0.161-.04-0.119-.041-0.12-.079-0.079-.081-0.08-.119-0.04-.16v-0.12h-0.007v0.121l0.04,0.162,0.081,0.121,0.08,0.082,0.121,0.08L654,634.22l0.161,0.04,0.161,0.041,0.283-.041,0.282-.121,0.161-.162,0.162-.162v-0.649l-0.2-.08-0.2-.081-0.241-.042m-1.331-1.295-0.443-.77,0.4-.2,0.4-.162,0.443-.081h0.847l0.363,0.081,0.322,0.162,0.282,0.162,0.2,0.243,0.161,0.243,0.081,0.324,0.041,0.365v3.078h-1.129v-0.365l-0.243.2-0.322.162-0.282.081-0.242.04-0.322-.04-0.283-.04-0.282-.123-0.241-.161-0.243-.243-0.161-.284-0.12-.324-0.041-.4,0.041-.406,0.12-.324,0.2-.243,0.242-.2,0.282-.164,0.282-.08,0.322-.081h0.565l0.282,0.04,0.242,0.082,0.2,0.08v-0.445l-0.041-.163-0.081-.121-0.08-.081-0.121-.081-0.162-.04-0.322-.041-0.322.041-0.323.04-0.282.122-0.242.121m1.653-1.222h-0.847l-0.445.08-0.4.163-0.411.206,0.451,0.783,0.006,0,0.242-.121,0.281-.122,0.322-.041,0.321-.039,0.321,0.039,0.16,0.041,0.119,0.08,0.08,0.079,0.079,0.12,0.04,0.16V632.3l-0.191-.076h0l-0.243-.082h0l-0.283-.04h-0.567l-0.323.08-0.282.081h0l-0.284.163-0.243.2-0.2.244-0.122.327-0.041.407,0.041,0.406,0.122,0.325,0.161,0.286,0.244,0.244,0.242,0.162,0.284,0.123,0.283,0.04,0.323,0.041h0l0.243-.041h0l0.282-.081h0l0.324-.163,0.231-.193v0.357h1.143v-3.086l-0.04-.366-0.081-.326-0.162-.245-0.2-.244-0.284-.163-0.323-.162-0.365-.081m-0.322,2.51h-0.4L654,633h0l-0.121.04h0l-0.122.081h0l-0.081.082h0l-0.081.121h0l-0.04.122h0v0.165h0.008V633.45l0.04-.121,0.081-.122,0.08-.08,0.121-.082,0.121-.04,0.161-.042h0.4l0.241,0.042,0.2,0.081,0.2,0.08v0.649l-0.162.162-0.161.162-0.282.121-0.283.041-0.161-.041L654,634.22l-0.121-.041-0.121-.08-0.08-.082-0.081-.121-0.04-.162v-0.121h-0.008v0.121h0l0.041,0.163h0l0.082,0.122h0l0.081,0.082h0l0.121,0.081h0L654,634.227h0l0.162,0.041,0.161,0.041h0l0.284-.041h0l0.284-.124,0.162-.161,0.162-.163,0,0v-0.657l-0.206-.082-0.2-.081h0l-0.242-.042h0m-1.331-1.288h0l0.006,0-0.006,0m0.006,0h0m0-.007L652.8,630.9l0.4-.2,0.4-.162,0.442-.08h0.845l0.361,0.08,0.321,0.162,0.282,0.161,0.2,0.241,0.16,0.243,0.08,0.322,0.04,0.363V635.1h-1.113V634.73l-0.254.213-0.321.161-0.281.08-0.24.041-0.322-.041-0.281-.04-0.28-.121-0.241-.16-0.241-.243-0.16-.282-0.12-.323-0.041-.4,0.041-.4,0.12-.322,0.2-.241,0.241-.2,0.281-.161,0.281-.08h0l0.321-.08h0.563l0.281,0.039L655,632.243l0.2,0.08,0.01,0v-0.456h0l-0.041-.163v0l-0.081-.123h0l-0.081-.081h0l-0.122-.081h0l-0.163-.041h0l-0.323-.039h0l-0.323.039-0.322.041h0l-0.284.123-0.236.117m1.65-1.205h-0.847l-0.443.081-0.4.162-0.4.2,0.443,0.77,0.242-.121,0.282-.122,0.323-.04,0.322-.041,0.322,0.041,0.162,0.04,0.121,0.081,0.08,0.081,0.081,0.121,0.041,0.163v0.445l-0.2-.08-0.242-.082-0.282-.04h-0.565l-0.322.081-0.282.08-0.282.164-0.242.2-0.2.243-0.12.324-0.041.406,0.041,0.4,0.12,0.324,0.161,0.284,0.243,0.243,0.241,0.161,0.282,0.123,0.283,0.04,0.322,0.04,0.242-.04,0.282-.081,0.322-.162,0.243-.2v0.365h1.129v-3.078l-0.041-.365-0.081-.324-0.161-.243-0.2-.243-0.282-.162-0.322-.162-0.363-.081m10.722,0.972-0.162.04-0.161.082-0.121.121-0.08.121-0.081.163-0.08.2v0.2h1.693l-0.041-.365-0.081-.161-0.08-.123-0.121-.121-0.161-.122-0.162-.04-0.2-.041-0.16.041m-0.162,3.767L665,635.029l-0.363-.2-0.282-.242-0.282-.365-0.161-.4-0.121-.446-0.041-.527,0.041-.526,0.121-.445,0.161-.406,0.243-.364,0.321-.284,0.322-.2,0.4-.121,0.444-.041,0.4,0.041,0.363,0.121,0.322,0.2,0.282,0.284,0.243,0.324,0.161,0.406,0.08,0.485,0.04,0.526v0.324H664.88l0.08,0.325,0.082,0.243L665.2,633.9l0.121,0.121,0.2,0.082,0.12,0.039,0.283,0.041,0.281-.041,0.242-.08,0.2-.122,0.161-.162,0.726,0.729-0.2.162-0.162.162-0.2.122-0.2.08-0.4.163-0.442.04-0.485-.04m-0.515-2.843v-0.194l0.079-.2,0.08-.162,0.08-.12,0.12-.119,0.159-.081,0.161-.041,0.159-.041,0.2,0.041,0.161,0.04,0.159,0.12,0.12,0.121,0.08,0.122,0.079,0.159,0.04,0.355h-1.676m0.837-.965-0.16.041-0.162.04-0.161.082-0.121.121-0.08.121-0.081.163-0.08.2v0.2h1.693l-0.041-.365-0.081-.161-0.08-.123-0.121-.121-0.161-.122-0.162-.04-0.2-.041m0.163,3.848-0.485-.04L665,635.029l-0.363-.2-0.282-.242-0.282-.365-0.161-.4-0.121-.446-0.041-.527,0.041-.526,0.121-.445,0.161-.406,0.243-.364,0.321-.284,0.322-.2,0.4-.121,0.444-.041,0.4,0.041,0.363,0.121,0.322,0.2,0.282,0.284,0.243,0.324,0.161,0.406,0.08,0.485,0.04,0.526v0.324H664.88l0.08,0.325,0.082,0.243L665.2,633.9l0.121,0.121,0.2,0.082,0.12,0.039,0.283,0.041,0.281-.041,0.242-.08,0.2-.122,0.161-.162,0.726,0.729-0.2.162-0.162.162-0.2.122-0.2.08-0.4.163-0.442.04m-0.122-4.786-0.445.04-0.4.122-0.323.2-0.323.285-0.244.366-0.161.406-0.121.447-0.041.527,0.041,0.529,0.121,0.446,0.161,0.407,0.283,0.366,0.284,0.243,0.364,0.2,0.445,0.163,0.486,0.041,0.444-.041,0.4-.163,0.2-.08h0l0.2-.123h0l0.161-.162,0.2-.162,0.006,0-0.737-.74-0.005,0-0.161.161-0.2.121-0.24.08-0.28.041-0.281-.041-0.12-.039-0.2-.081-0.12-.12-0.16-.161-0.081-.241-0.077-.315h2.819v-0.332h0l-0.04-.527-0.081-.486-0.162-.408-0.242-.325-0.284-.285-0.324-.2-0.364-.122-0.4-.04m-0.886,1.911v-0.2l0.08-.2,0.081-.163,0.08-.121,0.121-.121,0.161-.082,0.162-.04,0.16-.041,0.2,0.041,0.162,0.04,0.161,0.122,0.121,0.121,0.08,0.123,0.081,0.161,0.041,0.365h-1.693m0.845-.981-0.162.042-0.161.04h0l-0.162.083h0l-0.122.122h0l-0.081.121h0l-0.08.162h0l-0.08.2v0.213h1.708l-0.042-.374-0.081-.163h0l-0.081-.123h0l-0.122-.123h0l-0.162-.122h0l-0.163-.041h0l-0.2-.042h0m0.163,3.849-0.483-.041L665,635.023l-0.361-.2-0.282-.241-0.281-.364-0.16-.4-0.121-.444-0.04-.526,0.04-.525,0.122-.445,0.16-.4,0.241-.364,0.321-.282,0.32-.2,0.4-.121,0.442-.04,0.4,0.04,0.361,0.121,0.321,0.2,0.281,0.282,0.241,0.324,0.161,0.4,0.08,0.484,0.04,0.526v0.316h-2.823l0.082,0.334,0.081,0.243v0L665.2,633.9l0.121,0.121h0l0.2,0.083h0l0.121,0.039h0l0.284,0.042h0l0.283-.041h0l0.243-.08h0l0.2-.122h0l0.157-.157,0.715,0.718-0.195.157h0l-0.161.161-0.2.121-0.2.08-0.4.162-0.44.041m-0.122-4.772-0.444.041-0.4.121-0.322.2-0.321.284-0.243.364-0.161.406-0.121.445-0.041.526,0.041,0.527,0.121,0.446,0.161,0.4,0.282,0.365,0.282,0.242,0.363,0.2,0.443,0.163,0.485,0.04,0.442-.04,0.4-.163,0.2-.08,0.2-.122,0.162-.162,0.2-.162-0.726-.729-0.005.006,0.005-.006-0.161.162-0.2.122-0.242.08-0.281.041-0.283-.041-0.12-.039-0.2-.082L665.2,633.9l-0.161-.162-0.082-.243-0.08-.325H667.7v-0.324l-0.04-.526-0.08-.485-0.161-.406-0.243-.324-0.282-.284-0.322-.2-0.363-.121-0.4-.041m10.642,0.972-0.162.04-0.12.081-0.121.122-0.121.121-0.08.163-0.041.2v0.2H677.5l-0.08-.365-0.04-.161-0.081-.123-0.121-.121-0.161-.122-0.161-.04-0.2-.041-0.2.041m-0.121,3.767-0.444-.163-0.362-.2-0.323-.242-0.242-.365-0.2-.4-0.081-.446-0.04-.527,0.04-.526,0.081-.446,0.2-.4,0.242-.364,0.282-.284,0.364-.2,0.4-.122,0.4-.04,0.442,0.04,0.364,0.122,0.322,0.2,0.282,0.284,0.2,0.324,0.161,0.406,0.121,0.485,0.04,0.526v0.324h-2.822l0.041,0.325,0.121,0.242,0.121,0.163,0.161,0.121,0.161,0.082,0.161,0.039,0.242,0.041,0.283-.041,0.241-.08,0.2-.122,0.2-.162,0.686,0.729-0.162.162-0.2.162-0.16.122-0.2.08-0.445.163-0.443.04-0.443-.04m-0.517-2.843v-0.194l0.041-.2,0.079-.16,0.12-.122,0.12-.12,0.119-.08,0.161-.04,0.2-.041,0.2,0.041,0.159,0.04,0.16,0.12,0.12,0.121,0.08,0.121,0.04,0.16,0.078,0.355h-1.676m0.84-.965-0.2.041-0.162.04-0.12.081-0.121.122-0.121.121-0.08.163-0.041.2v0.2H677.5l-0.08-.365-0.04-.161-0.081-.123-0.121-.121-0.161-.122-0.161-.04-0.2-.041m0.12,3.848-0.443-.04-0.444-.163-0.362-.2-0.323-.242-0.242-.365-0.2-.4-0.081-.446-0.04-.527,0.04-.526,0.081-.446,0.2-.4,0.242-.364,0.282-.284,0.364-.2,0.4-.122,0.4-.04,0.442,0.04,0.364,0.122,0.322,0.2,0.282,0.284,0.2,0.324,0.161,0.406,0.121,0.485,0.04,0.526v0.324h-2.822l0.041,0.325,0.121,0.242,0.121,0.163,0.161,0.121,0.161,0.082,0.161,0.039,0.242,0.041,0.283-.041,0.241-.08,0.2-.122,0.2-.162,0.686,0.729-0.162.162-0.2.162-0.16.122-0.2.08-0.445.163-0.443.04m-0.12-4.786-0.4.039-0.4.123-0.366.2-0.283.285-0.242.366-0.2.406-0.082.447-0.04.527,0.04,0.528,0.082,0.447,0.2,0.407,0.243,0.366,0.324,0.243,0.363,0.2,0.445,0.163,0.445,0.041,0.445-.041,0.445-.163,0.2-.08h0l0.161-.123,0.2-.162h0l0.162-.162,0-.006-0.7-.739,0,0-0.2.162-0.2.121-0.24.08-0.281.041-0.24-.041-0.16-.04-0.16-.08-0.16-.12-0.12-.162-0.12-.24-0.039-.315h2.82v-0.332h0l-0.04-.527-0.121-.487-0.161-.406-0.2-.326-0.283-.285-0.324-.2-0.365-.123-0.444-.039m-0.847,1.911v-0.2l0.041-.2,0.08-.163,0.121-.121,0.121-.122,0.12-.081,0.162-.04,0.2-.041,0.2,0.041,0.161,0.04,0.161,0.122,0.121,0.121,0.081,0.123,0.04,0.161,0.08,0.365H675.8m0.847-.981-0.2.042-0.163.04h0l-0.122.081h0l-0.121.122-0.122.122h0l-0.081.163h0l-0.042.2h0v0.211h1.71l-0.083-.374-0.04-.161h0L677.3,631.7h0l-0.121-.123h0l-0.162-.122h0l-0.162-.041h0l-0.2-.042h0m0.12,3.849-0.441-.041-0.443-.161-0.361-.2-0.321-.241-0.241-.364-0.2-.4-0.081-.444-0.04-.526,0.04-.525,0.081-.444,0.2-.4,0.241-.364,0.281-.282,0.362-.2,0.4-.122,0.4-.039,0.441,0.039,0.362,0.122,0.32,0.2,0.281,0.282,0.2,0.323,0.16,0.4,0.122,0.484,0.039,0.526v0.316h-2.822l0.041,0.333h0l0.121,0.244h0l0.122,0.163h0l0.161,0.122h0l0.162,0.081h0l0.163,0.04h0l0.242,0.041h0l0.284-.041h0l0.241-.08h0l0.2-.123h0l0.2-.158,0.676,0.719-0.156.157-0.2.161-0.16.121-0.2.08-0.443.162-0.442.041m-0.12-4.772-0.4.04-0.4.122-0.364.2-0.282.284-0.242.364-0.2.4-0.081.446-0.04.526,0.04,0.527,0.081,0.446,0.2,0.4,0.242,0.365,0.323,0.242,0.362,0.2,0.444,0.163,0.443,0.04,0.443-.04,0.445-.163,0.2-.08,0.16-.122,0.2-.162,0.162-.162-0.686-.729-0.006,0,0.006,0-0.2.162-0.2.122-0.241.08-0.283.041-0.242-.041-0.161-.039-0.161-.082-0.161-.121-0.121-.163-0.121-.242-0.041-.325h2.822v-0.324l-0.04-.526-0.121-.485-0.161-.406-0.2-.324-0.282-.284-0.322-.2-0.364-.122-0.442-.04m-3.79,4.739-0.282-.121-0.2-.122-0.162-.2-0.12-.2-0.081-.244-0.04-.242-0.041-.243v-2.228h-0.685v-1.053h0.685v-1.175l1.129-.567v1.742h1.048v1.053h-1.048v1.943l0.04,0.285,0.081,0.162,0.08,0.081,0.08,0.04,0.2,0.04h0.2l0.162-.04,0.321-.162-0.12,1.053-0.2.122-0.243.041-0.242.04-0.282.04-0.282-.04m-1.612-3.605v-1.053h0.685v-1.175l1.129-.567v1.742h1.048v1.053h-1.048v1.943l0.04,0.285,0.081,0.162,0.08,0.081,0.08,0.04,0.2,0.04h0.2l0.162-.04,0.321-.162-0.12,1.053-0.2.122-0.243.041-0.242.04-0.282.04-0.282-.04-0.282-.121-0.2-.122-0.162-.2-0.12-.2-0.081-.244-0.04-.242-0.041-.243v-2.228h-0.685m1.821-2.807-1.144.574v1.172h-0.685v1.068h0.685v2.221l0.041,0.244,0.04,0.243h0l0.082,0.244h0l0.121,0.2h0l0.162,0.2v0l0.2,0.121h0l0.283,0.122,0.283,0.041h0l0.283-.041,0.242-.04,0.243-.041h0l0.2-.122,0,0,0.122-1.071-0.333.168-0.16.04h-0.2l-0.2-.04-0.079-.04-0.078-.078-0.079-.161-0.041-.282v-1.936h1.048v-1.068H673.07V628.78m-1.814,2.8v-1.038h0.685v-1.177l1.114-.56v1.737H674.1v1.038h-1.048v0.008h0v1.944l0.041,0.285h0l0.081,0.163h0l0.082,0.082h0l0.081,0.041h0l0.2,0.041h0.2l0.162-.041h0l0.31-.156-0.118,1.036-0.2.118-0.241.041-0.242.04-0.281.041-0.28-.041-0.28-.121-0.2-.12-0.161-.2-0.119-.2-0.081-.241-0.04-.243-0.041-.242v-2.235h-0.685m1.807-2.787-1.129.567v1.175h-0.685v1.053h0.685v2.228l0.041,0.243,0.04,0.242,0.081,0.244,0.12,0.2,0.162,0.2,0.2,0.122,0.282,0.121,0.282,0.04,0.282-.04,0.242-.04,0.243-.041,0.2-.122,0.12-1.053-0.321.162-0.162.04h-0.2l-0.2-.04-0.08-.04-0.08-.081-0.081-.162-0.04-.285v-1.943h1.048v-1.053h-1.048v-1.742m-3.427,6.4-0.281-.122-0.2-.121-0.161-.2-0.121-.2-0.081-.244-0.04-.242-0.041-.243v-2.228h-0.685v-1.053h0.685v-1.175l1.129-.567v1.742h0.968v1.053h-0.968v1.943l0.041,0.285,0.08,0.162,0.081,0.081,0.08,0.04,0.2,0.04h0.2l0.162-.04,0.322-.162-0.12,1.053-0.2.122-0.242.041-0.242.04-0.283.04-0.282-.04m-1.612-3.605v-1.053h0.685v-1.175l1.129-.567v1.742h0.968v1.053h-0.968v1.943l0.041,0.285,0.08,0.162,0.081,0.081,0.08,0.04,0.2,0.04h0.2l0.162-.04,0.322-.162-0.12,1.053-0.2.122-0.242.041-0.242.04-0.283.04-0.282-.04-0.281-.122-0.2-.121-0.161-.2-0.121-.2-0.081-.244-0.04-.242-0.041-.243v-2.228h-0.685m1.822-2.807-1.144.574v1.172h-0.685v1.068H668.7v2.221l0.041,0.244,0.04,0.242h0l0.081,0.244h0l0.121,0.2h0l0.161,0.2v0l0.2,0.121h0l0.283,0.121,0.283,0.042h0l0.284-.042,0.242-.039,0.242-.041h0l0.2-.122,0,0,0.122-1.071-0.012.006,0,0.007,0-.007-0.322.162-0.16.04h-0.2l-0.2-.04-0.078-.04-0.079-.078-0.079-.161-0.04-.282v-1.936h0.967v-1.068h-0.967V628.78m-1.814,2.8v-1.038h0.685v-1.177l1.114-.56v1.737H670.8v1.038h-0.967v1.952l0.041,0.285h0l0.08,0.163h0l0.081,0.082h0l0.082,0.041h0l0.2,0.041h0.2l0.163-.041h0l0.31-.156-0.119,1.036-0.2.118-0.241.041-0.241.04-0.282.041-0.28-.041-0.28-.121-0.2-.12-0.16-.2-0.121-.2L668.8,634.3l-0.04-.243-0.041-.242v-2.235h-0.685m1.806-2.787-1.129.567v1.175h-0.685v1.053h0.685v2.228l0.041,0.243,0.04,0.242,0.081,0.244,0.121,0.2,0.161,0.2,0.2,0.121,0.281,0.122,0.282,0.04,0.283-.04,0.242-.04,0.242-.041,0.2-.122,0.12-1.053-0.322.162-0.162.04h-0.2l-0.2-.04-0.08-.04-0.081-.081-0.08-.162-0.041-.285v-1.943h0.968v-1.053h-0.968v-1.742m9.472,6.319v-4.577h1.129v0.4l0.2-.242,0.243-.122,0.282-.121h0.483l0.242,0.04,0.2,0.122,0.2,0.081-0.323,1.133-0.162-.121-0.161-.081-0.2-.04h-0.4l-0.16.04-0.121.081-0.122.121-0.08.163-0.08.161-0.041.244v2.714H679.31m1.129-4.173,0.2-.242,0.243-.122,0.282-.121h0.483l0.242,0.04,0.2,0.122,0.2,0.081-0.323,1.133-0.162-.121-0.161-.081-0.2-.04h-0.4l-0.16.04-0.121.081-0.122.121-0.08.163-0.08.161-0.041.244v2.714H679.31v-4.577h1.129v0.4m1.21-.493h-0.486l-0.283.122-0.243.122h0l-0.19.228v-0.391H679.3v4.592h1.143V632.4l0.041-.242,0.08-.161,0.079-.161,0.12-.12,0.12-.08,0.158-.04h0.4l0.2,0.04,0.16,0.081,0.16,0.121,0.009,0.006,0.328-1.151-0.007,0-0.2-.081-0.2-.122h0l-0.244-.04h0m-1.218.514,0.214-.257,0.241-.122,0.28-.12h0.481l0.241,0.04,0.2,0.121h0l0.2,0.078-0.318,1.117-0.152-.115h0l-0.163-.081h0l-0.2-.041h-0.4l-0.162.041h0l-0.122.082h0l-0.122.121h0l-0.08.163-0.081.162h0l-0.041.245h0V635.1h-1.113v-4.562h1.113v0.418m1.217-.506h-0.483l-0.282.121-0.243.122-0.2.242v-0.4H679.31v4.577h1.129V632.4l0.041-.244,0.08-.161,0.08-.163,0.122-.121,0.121-.081,0.16-.04h0.4l0.2,0.04,0.161,0.081,0.162,0.121,0.323-1.133-0.2-.081-0.2-.122-0.242-.04m-51.634-1.7h1.128v1.134h-1.128v-1.134m0,1.134v-1.134h1.128v1.134h-1.128m1.121-1.134h0m0.015-.007h-1.144v1.148h1.144v-1.148m-1.129,1.133v-1.118h1.114v1.118h-1.114m1.121-1.126h-1.128v1.134h1.128v-1.134m7.82,1.782h1.129v4.578h-1.129v-4.578m0,4.578v-4.578h1.129v4.578h-1.129m1.136-4.585h-1.143v4.592H640.1v-4.592m-1.136,4.585h0m0.008,0h0m0-.008v-4.562h1.113V635.1H638.97m1.121-4.57h-1.129v4.578h1.129v-4.578m-1.129-1.782h1.129v1.134h-1.129v-1.134m0,1.134v-1.134h1.129v1.134h-1.129m1.121-1.134h0m0.015-.008h-1.143v1.149H640.1v-1.149m-1.128,1.134v-1.119h1.113v1.119H638.97m1.121-1.126h-1.129v1.134h1.129v-1.134m29.827,10.774-0.12.081-0.121.122-0.121.161-0.08.2-0.081.324v0.729l0.081,0.324,0.08,0.244,0.121,0.2,0.121,0.122,0.161,0.081,0.121,0.04h0.443l0.2-.121,0.162-.163,0.16-.161v-1.782l-0.121-.163-0.2-.121-0.2-.122-0.282-.041H670.08l-0.162.041M670,643.211l-0.4-.04-0.322-.122-0.322-.2-0.243-.284-0.2-.324-0.161-.445-0.081-.446-0.04-.567,0.04-.527,0.081-.446,0.161-.4,0.2-.324,0.243-.283,0.322-.2,0.362-.121,0.4-.041,0.242,0.041,0.282,0.08,0.242,0.121,0.241,0.2v-1.661l1.129-.567v6.481h-1.129v-0.365l-0.241.2-0.283.162-0.241.081H670m0.083-1.061-0.12-.039-0.16-.081-0.119-.12-0.12-.2-0.08-.242-0.081-.323v-0.727l0.081-.323,0.08-.2,0.12-.16,0.12-.121,0.118-.08,0.16-.041h0.16l0.279,0.041,0.2,0.122,0.2,0.12,0.119,0.159v1.776l-0.159.16-0.161.161-0.2.12h-0.439m0.159-2.666H670.08l-0.162.041-0.12.081-0.121.122-0.121.161-0.08.2-0.081.324v0.729l0.081,0.324,0.08,0.244,0.121,0.2,0.121,0.122,0.161,0.081,0.121,0.04h0.443l0.2-.121,0.162-.163,0.16-.161v-1.782l-0.121-.163-0.2-.121-0.2-.122-0.282-.041m0.806-.607v-1.661l1.129-.567v6.481h-1.129v-0.365l-0.241.2-0.283.162-0.241.081H670l-0.4-.04-0.322-.122-0.322-.2-0.243-.284-0.2-.324-0.161-.445-0.081-.446-0.04-.567,0.04-.527,0.081-.446,0.161-.4,0.2-.324,0.243-.283,0.322-.2,0.362-.121,0.4-.041,0.242,0.041,0.282,0.08,0.242,0.121,0.241,0.2m1.137-2.24-1.144.575v1.649l-0.23-.193-0.243-.122h0l-0.282-.081h0l-0.243-.041h0l-0.4.041-0.364.122-0.324.2-0.244.285-0.2.325-0.161.406-0.081.447-0.041.528,0.041,0.567,0.081,0.448,0.161,0.446,0.2,0.326,0.244,0.284,0.324,0.2,0.324,0.122,0.4,0.041h0.284l0.242-.082h0l0.284-.162,0.23-.193v0.355h1.144v-6.5m-2.1,5.521-0.121-.04-0.161-.081-0.121-.122-0.121-.2-0.08-.244-0.081-.324v-0.729l0.081-.324,0.08-.2,0.121-.161,0.121-.122,0.12-.081,0.162-.041h0.161l0.282,0.041,0.2,0.122,0.2,0.121,0.121,0.163v1.782l-0.16.161-0.162.163-0.2.121H670.08m0.162-2.682H670.08l-0.164.042h0l-0.121.082h0l-0.121.123h0l-0.122.162h0l-0.081.2h0l-0.082.326v0.731l0.082,0.325,0.08,0.243h0l0.122,0.2h0l0.121,0.122h0l0.163,0.082h0l0.122,0.04h0.447l0.2-.123h0l0.163-.162,0.161-.163,0,0v-1.787l-0.123-.164h0l-0.2-.122-0.2-.123h0l-0.283-.042h0m0.805-.6h0m0.008,0v-1.656l1.114-.56v6.461h-1.114v-0.373l-0.254.213-0.281.161-0.239.081H670l-0.4-.04-0.32-.122-0.321-.2-0.242-.282-0.2-.324-0.16-.443-0.081-.446-0.04-.565,0.041-.526,0.08-.445,0.16-.4,0.2-.323,0.242-.283,0.321-.2,0.36-.122,0.4-.04,0.241,0.04,0.281,0.081,0.24,0.121,0.254,0.212v-0.016m1.121-2.228-1.129.567v1.661l-0.241-.2-0.242-.121-0.282-.08-0.242-.041-0.4.041-0.362.121-0.322.2-0.243.283-0.2.324-0.161.4-0.081.446-0.04.527,0.04,0.567,0.081,0.446,0.161,0.445,0.2,0.324,0.243,0.284,0.322,0.2,0.322,0.122,0.4,0.04h0.283l0.241-.081,0.283-.162,0.241-.2v0.365h1.129v-6.481M630.1,643.13v-4.577h1.128v0.4l0.2-.243,0.242-.162,0.241-.08,0.323-.041,0.2,0.041,0.242,0.039,0.2,0.082,0.2,0.121-0.322,1.093-0.162-.08-0.2-.081-0.161-.041-0.2-.041-0.2.041-0.161.041-0.162.081-0.08.121-0.121.122-0.041.2-0.04.2v2.755H630.1m1.128-4.172,0.2-.243,0.242-.162,0.241-.08,0.323-.041,0.2,0.041,0.242,0.039,0.2,0.082,0.2,0.121-0.322,1.093-0.162-.08-0.2-.081-0.161-.041-0.2-.041-0.2.041-0.161.041-0.162.081-0.08.121-0.121.122-0.041.2-0.04.2v2.755H630.1v-4.577h1.128v0.4m1.008-.534-0.324.041h0l-0.243.081h0l-0.243.163-0.189.228v-0.391h-1.144v4.591h1.144v-2.761l0.04-.2,0.04-.2,0.119-.12h0l0.08-.12,0.159-.081,0.16-.039,0.2-.041,0.2,0.041,0.161,0.039,0.2,0.082,0.161,0.08,0.008,0,0.327-1.108,0,0-0.2-.123h0l-0.2-.081h0l-0.243-.04-0.2-.041h0m-1.015.554,0.214-.258,0.24-.16,0.24-.081,0.32-.04,0.2,0.04,0.242,0.04,0.2,0.08,0.195,0.119-0.318,1.08-0.153-.077h0l-0.2-.082h0l-0.162-.04h0l-0.2-.041h0l-0.2.041h0l-0.161.04h0l-0.162.082h0l-0.081.122-0.12.121h0l-0.041.205-0.04.2h0v2.748H630.1v-4.561h1.114v0.417m1.015-.546-0.323.041-0.241.08-0.242.162-0.2.243v-0.4H630.1v4.577h1.128v-2.755l0.04-.2,0.041-.2,0.121-.122,0.08-.121,0.162-.081,0.161-.041,0.2-.041,0.2,0.041,0.161,0.041,0.2,0.081,0.162,0.08,0.322-1.093-0.2-.121-0.2-.082-0.242-.039-0.2-.041m-9.473,4.7-0.484-1.9-0.282-1.012-0.241,1.052-0.484,1.864H620.3l-0.041-.041-1.206-4.376v-0.16h1.085l0.444,1.7,0.2,1.135,0.161-.608,0.122-.567,0.483-1.661h0.968l0.443,1.661,0.282,1.175,0.242-1.175,0.4-1.661h1.129l-1.29,4.577h-0.968m0.484-1.741,0.242-1.175,0.4-1.661h1.129l-1.29,4.577h-0.968l-0.484-1.9-0.282-1.012-0.241,1.052-0.484,1.864H620.3l-0.041-.041-1.206-4.376v-0.029l-0.034-.123h0.034v-0.008h1.085l0.444,1.7,0.2,1.135,0.161-.608,0.122-.567,0.483-1.661h0.968l0.443,1.661,0.282,1.175m1.784-2.843h-1.145l-0.4,1.666,0.008,0h-0.008l-0.234,1.141-0.275-1.142-0.445-1.666h-0.978l-0.486,1.666-0.121.567-0.152.575-0.2-1.1-0.445-1.706H619l1.252,4.547,0.042,0.042,0,0h0.977l0.485-1.869,0.235-1.024,0.274,0.984,0.485,1.909h0.979l1.295-4.591m-0.01.007h-1.129l-0.4,1.661-0.242,1.175-0.282-1.175-0.443-1.661h-0.968l-0.483,1.661-0.122.567-0.161.608-0.2-1.135-0.444-1.7h-1.085v0.008h1.08l0.441,1.695,0.208,1.168,0.17-.641,0.121-.567,0.482-1.655h0.956l0.441,1.655,0.291,1.207,0.248-1.207h0l0.4-1.655h1.113l-1.286,4.561h-0.956l-0.482-1.9-0.29-1.041-0.249,1.081-0.482,1.857H620.3l-0.037-.037-1.213-4.4v0.029l1.206,4.376,0.041,0.041h0.967l0.484-1.864,0.241-1.052,0.282,1.012,0.484,1.9h0.968l1.29-4.577m1.934,1.053-0.161.122-0.161.121-0.081.2-0.08.243-0.041.242-0.04.284,0.04,0.284,0.041,0.284,0.08,0.2,0.081,0.2,0.161,0.161,0.161,0.122,0.162,0.041,0.2,0.04,0.2-.04,0.161-.041,0.161-.122,0.162-.161,0.08-.2,0.08-.2,0.081-.284v-0.568l-0.081-.242-0.08-.243-0.08-.2-0.162-.121-0.161-.122-0.161-.081h-0.4l-0.162.081m-0.08,3.565-0.4-.122-0.323-.2-0.322-.284-0.242-.365-0.2-.4-0.08-.447-0.041-.526,0.041-.486,0.08-.446,0.2-.445,0.242-.324,0.322-.283,0.323-.2,0.4-.162,0.443-.04,0.444,0.04,0.4,0.162,0.323,0.2,0.323,0.283,0.241,0.324,0.2,0.445,0.081,0.446,0.04,0.486-0.04.526-0.081.447-0.2.4-0.241.365-0.323.284-0.323.2-0.4.122-0.444.04-0.443-.04m0.243-1.062h0l-0.159-.039-0.16-.12-0.16-.161-0.08-.2-0.08-.2-0.04-.284-0.04-.282,0.04-.282,0.04-.243,0.08-.243,0.08-.2,0.16-.12,0.16-.122,0.159-.08h0.4l0.159,0.08,0.161,0.122,0.159,0.12,0.08,0.2,0.08,0.244,0.081,0.242V641.1l-0.081.283-0.08.2-0.08.2-0.16.161-0.159.12-0.16.039h0l-0.2.041-0.2-.041m0.4-2.584h-0.4l-0.162.081-0.161.122-0.161.121-0.081.2-0.08.243-0.041.242-0.04.284,0.04,0.284,0.041,0.284,0.08,0.2,0.081,0.2,0.161,0.161,0.161,0.122,0.162,0.041,0.2,0.04,0.2-.04,0.161-.041,0.161-.122,0.162-.161,0.08-.2,0.08-.2,0.081-.284v-0.568l-0.081-.242-0.08-.243-0.08-.2-0.162-.121-0.161-.122-0.161-.081m-0.2-1.093h0l0.444,0.04,0.4,0.162,0.323,0.2,0.323,0.283,0.241,0.324,0.2,0.445,0.081,0.446,0.04,0.486-0.04.526-0.081.447-0.2.4-0.241.365-0.323.284-0.323.2-0.4.122-0.444.04-0.443-.04-0.4-.122-0.323-.2-0.322-.284-0.242-.365-0.2-.4-0.08-.447-0.041-.526,0.041-.486,0.08-.446,0.2-.445,0.242-.324,0.322-.283,0.323-.2,0.4-.162,0.443-.04m0-.008h0l-0.445.041-0.405.162-0.323.2-0.324.284-0.243.325-0.2.447-0.081.447-0.04.487,0.04,0.527,0.081,0.447,0.2,0.407,0.243,0.366,0.324,0.285,0.324,0.2,0.4,0.121,0.445,0.041,0.445-.041,0.4-.121,0.324-.2,0.323-.285,0.243-.366,0.2-.407,0.081-.447,0.04-.527-0.04-.487-0.081-.447-0.2-.447-0.243-.325-0.323-.284-0.324-.2-0.4-.162-0.445-.041m0,3.734-0.2-.04-0.162-.041-0.161-.122-0.161-.161-0.081-.2-0.08-.2-0.041-.284-0.04-.284,0.04-.284,0.041-.242,0.08-.243,0.081-.2,0.161-.121,0.161-.122,0.162-.081h0.4l0.161,0.081,0.161,0.122L628,639.849l0.08,0.2,0.08,0.243,0.081,0.242v0.568l-0.081.284-0.08.2-0.08.2-0.162.161-0.161.122-0.161.041-0.2.04m0.2-2.641H627.11l-0.163.083h0l-0.161.122-0.161.121h0l-0.082.2h0l-0.08.244h0l-0.04.243-0.04.284h0l0.04,0.284,0.04,0.285h0l0.081,0.2,0.081,0.2h0l0.162,0.164h0l0.161,0.122h0l0.163,0.04h0l0.2,0.041h0l0.2-.041,0.162-.04h0l0.163-.123h0L628,641.8h0l0.081-.2,0.08-.2h0l0.08-.285h0v-0.568h0l-0.081-.244-0.081-.244h0l-0.08-.2v0l-0.163-.122-0.162-.122h0l-0.162-.082h0m-0.2,3.686-0.442-.04-0.4-.121-0.321-.2-0.322-.282-0.241-.364-0.2-.4-0.08-.445-0.04-.525,0.04-.485,0.08-.444,0.2-.444,0.241-.323,0.322-.282,0.321-.2,0.4-.161,0.442-.04,0.442,0.04,0.4,0.161,0.322,0.2,0.321,0.282,0.241,0.323,0.2,0.444,0.08,0.444,0.04,0.485-0.04.526-0.08.444-0.2.4-0.241.364-0.321.282-0.322.2-0.4.121-0.442.04m0-4.771h0v0l-0.443.04-0.4.162-0.323.2-0.322.283-0.242.324-0.2.445-0.08.446-0.041.486,0.041,0.526,0.08,0.447,0.2,0.4,0.242,0.365,0.322,0.284,0.323,0.2,0.4,0.122,0.443,0.04,0.444-.04,0.4-.122,0.323-.2,0.323-.284,0.241-.365,0.2-.4,0.081-.447,0.04-.526-0.04-.486-0.081-.446-0.2-.445-0.241-.324-0.323-.283-0.323-.2-0.4-.162-0.444-.04m35.472,4.7v-4.577h1.128v0.4l0.241-.243,0.243-.162,0.241-.081,0.283-.04,0.241,0.04,0.242,0.04,0.2,0.081,0.16,0.122-0.281,1.093-0.161-.08-0.2-.082-0.2-.04-0.2-.041-0.162.041-0.16.04-0.162.082-0.12.121-0.081.121-0.04.2-0.041.2-0.04.284v2.471h-1.128m1.128-4.172,0.241-.243,0.243-.162,0.241-.081,0.283-.04,0.241,0.04,0.242,0.04,0.2,0.081,0.16,0.122-0.281,1.093-0.161-.08-0.2-.082-0.2-.04-0.2-.041-0.162.041-0.16.04-0.162.082-0.12.121-0.081.121-0.04.2-0.041.2-0.04.284v2.471h-1.128v-4.577h1.128v0.4m1.008-.534-0.284.041h0l-0.243.08h0l-0.243.163-0.229.23v-0.394h-1.144v4.592h1.144v-2.478l0.039-.283,0.041-.2,0.04-.2,0.08-.119,0.119-.121,0.159-.08,0.16-.039,0.161-.041,0.2,0.041,0.2,0.039,0.2,0.081,0.16,0.081,0.009,0,0.285-1.107,0,0-0.161-.122h0l-0.2-.081h0l-0.243-.04-0.241-.041h0m-1.015.552,0.253-.255,0.241-.162,0.24-.08,0.281-.04,0.24,0.04,0.241,0.04,0.2,0.08,0.156,0.119L665.48,639.8l-0.153-.076h0l-0.2-.081h0l-0.2-.04-0.2-.041h0l-0.163.042-0.161.04h0l-0.162.082h0l-0.122.123h0l-0.081.122h0l-0.041.2-0.041.2h0l-0.039.283h0v2.464h-1.114V638.56h1.114v0.416m1.015-.544-0.283.04-0.241.081-0.243.162-0.241.243v-0.4h-1.128v4.577h1.128v-2.471l0.04-.284,0.041-.2,0.04-.2,0.081-.121,0.12-.121,0.162-.082,0.16-.04,0.162-.041,0.2,0.041,0.2,0.04,0.2,0.082,0.161,0.08,0.281-1.093-0.16-.122-0.2-.081-0.242-.04-0.241-.04m-9.433,4.7-0.524-1.9-0.242-1.012-0.241,1.053-0.524,1.864H652.99v-0.041l-1.29-4.536h1.168l0.4,1.7,0.241,1.136,0.121-.608,0.162-.568,0.483-1.66h0.928l0.483,1.66,0.282,1.176,0.242-1.176,0.4-1.66h1.129l-1.29,4.577h-0.968m0.484-1.741,0.242-1.176,0.4-1.66h1.129l-1.29,4.577h-0.968l-0.524-1.9-0.242-1.012-0.241,1.053-0.524,1.864H652.99v-0.041l-1.29-4.536h1.168l0.4,1.7,0.241,1.136,0.121-.608,0.162-.568,0.483-1.66h0.928l0.483,1.66,0.282,1.176m1.784-2.844h-1.144l-0.4,1.666,0.007,0-0.007,0-0.236,1.142-0.274-1.142-0.485-1.666h-0.938l-0.486,1.666-0.161.568-0.114.571-0.234-1.1-0.4-1.707H651.69l1.292,4.545v0.047h0.981l0.525-1.869,0.235-1.022,0.234,0.981,0.526,1.91h0.979l1.294-4.592m-1.534,1.669,0.4-1.654h1.113l-1.286,4.562h-0.956l-0.523-1.9-0.249-1.043-0.248,1.085-0.523,1.857H653v-0.033h0l-1.287-4.528h1.153l0.4,1.7,0.25,1.17,0.127-.643,0.162-.567,0.482-1.655H655.2l0.482,1.655,0.289,1.207,0.25-1.208h0m1.524-1.661h-1.129l-0.4,1.66-0.242,1.176-0.282-1.176-0.483-1.66h-0.928l-0.483,1.66-0.162.568-0.121.608-0.241-1.136-0.4-1.7H651.7l1.29,4.536v0.041h0.967l0.524-1.864,0.241-1.053,0.242,1.012,0.524,1.9h0.968l1.29-4.577m1.894,1.053-0.161.121-0.121.121-0.121.2-0.08.244-0.041.242V641.1l0.041,0.283,0.08,0.2,0.121,0.2,0.121,0.162,0.161,0.122,0.2,0.04,0.2,0.041,0.2-.041,0.161-.04,0.162-.122,0.12-.162,0.121-.2,0.081-.2,0.04-.283v-0.567l-0.04-.242-0.081-.244-0.121-.2-0.12-.121-0.162-.121-0.161-.082h-0.4l-0.2.082M659.6,643.17l-0.4-.121-0.362-.2-0.282-.284-0.242-.365-0.2-.4-0.122-.446-0.039-.526,0.039-.487,0.122-.445,0.2-.4,0.242-.364,0.282-.284,0.362-.2,0.4-.163,0.444-.039,0.4,0.039,0.4,0.163,0.364,0.2,0.281,0.284,0.283,0.364,0.16,0.4,0.122,0.445,0.04,0.487-0.04.526-0.122.446-0.16.4-0.283.365-0.281.284-0.364.2-0.4.121-0.4.041-0.444-.041m0.444-1.02-0.2-.041-0.2-.04-0.159-.119-0.119-.161-0.121-.2-0.08-.2-0.041-.283v-0.566l0.041-.241,0.08-.242,0.12-.2,0.12-.12,0.16-.12,0.2-.081h0.4l0.159,0.08,0.161,0.121,0.119,0.12,0.121,0.2,0.079,0.242,0.04,0.241V641.1l-0.04.283-0.079.2-0.121.2-0.12.161-0.16.12-0.159.039-0.2.041m0.2-2.626h-0.4l-0.2.082-0.161.121-0.121.121-0.121.2-0.08.244-0.041.242V641.1l0.041,0.283,0.08,0.2,0.121,0.2,0.121,0.162,0.161,0.122,0.2,0.04,0.2,0.041,0.2-.041,0.161-.04,0.162-.122,0.12-.162,0.121-.2,0.081-.2,0.04-.283v-0.567l-0.04-.242-0.081-.244-0.121-.2-0.12-.121-0.162-.121-0.161-.082m-0.2-1.092h0l0.4,0.039,0.4,0.163,0.364,0.2,0.281,0.284,0.283,0.364,0.16,0.4,0.122,0.445,0.04,0.487-0.04.526-0.122.446-0.16.4-0.283.365-0.281.284-0.364.2-0.4.121-0.4.041-0.444-.041-0.4-.121-0.362-.2-0.282-.284-0.242-.365-0.2-.4-0.122-.446-0.039-.526,0.039-.487,0.122-.445,0.2-.4,0.242-.364,0.282-.284,0.362-.2,0.4-.163,0.444-.039m0-.008h0l-0.446.04-0.4.162-0.363.2-0.283.285-0.244.365-0.2.407-0.122.446-0.04.487,0.04,0.529L658.1,641.8l0.2,0.4,0.243,0.366,0.284,0.286,0.363,0.2,0.4,0.121,0.445,0.041,0.4-.041,0.4-.121,0.365-.2,0.283-.286,0.283-.366,0.161-.406,0.122-.446,0.04-.529-0.04-.487-0.122-.446-0.161-.407-0.283-.365-0.283-.285-0.364-.2-0.4-.162-0.4-.04m0,3.734-0.2-.041-0.2-.04-0.161-.122-0.121-.162-0.121-.2-0.08-.2-0.041-.283v-0.567l0.041-.242,0.08-.244,0.121-.2,0.121-.121,0.161-.121,0.2-.082h0.4l0.161,0.082,0.162,0.121,0.12,0.121,0.121,0.2,0.081,0.244,0.04,0.242V641.1l-0.04.283-0.081.2-0.121.2-0.12.162-0.162.122-0.161.04-0.2.041m0.2-2.641H659.84l-0.2.082h0l-0.163.121h0l-0.121.121h0l-0.121.2h0l-0.08.245h0l-0.041.242h0V641.1h0l0.04,0.283h0l0.08,0.2h0l0.121,0.2h0l0.121,0.163h0l0.163,0.122h0l0.2,0.04,0.2,0.041h0l0.2-.041h0l0.16-.04h0l0.163-.122h0l0.121-.163h0l0.122-.2h0l0.081-.2h0l0.04-.284h0v-0.568h0l-0.04-.243h0l-0.081-.245h0l-0.122-.2h0l-0.121-.122h0l-0.162-.122h0l-0.162-.082h0m-0.2,3.686-0.442-.04-0.4-.121-0.36-.2-0.281-.283-0.242-.363-0.2-.4L658,641.346l-0.04-.526,0.04-.485,0.121-.443,0.2-.4,0.242-.363,0.281-.283,0.361-.2,0.4-.162,0.442-.039,0.4,0.039,0.4,0.162,0.362,0.2,0.281,0.283,0.281,0.363,0.16,0.4,0.121,0.443,0.04,0.485-0.04.526-0.121.445-0.16.4-0.281.363-0.281.283-0.362.2-0.4.121-0.4.04m0-4.771h0v0l-0.444.039-0.4.163-0.362.2-0.282.284-0.242.364-0.2.4-0.122.445-0.039.487,0.039,0.526,0.122,0.446,0.2,0.4,0.242,0.365,0.282,0.284,0.362,0.2,0.4,0.121,0.444,0.041,0.4-.041,0.4-.121,0.364-.2,0.281-.284,0.283-.365,0.16-.4,0.122-.446,0.04-.526-0.04-.487-0.122-.445-0.16-.4-0.283-.364-0.281-.284-0.364-.2-0.4-.163-0.4-.039m-23.781,4.7-0.968-2.147-0.564.77v1.377H633.6v-5.914l1.129-.567v3.646l0.4-.568,0.887-1.174h1.33l-1.209,1.5,1.37,3.079h-1.249m-2.661,0v-5.914l1.129-.567v3.646l0.4-.568,0.887-1.174h1.33l-1.209,1.5,1.37,3.079h-1.249l-0.968-2.147-0.564.77v1.377H633.6m1.136-6.493-1.143.574v5.926h1.143v-1.382l0.556-.758,0.964,2.14h1.266l-1.374-3.085,1.217-1.507H637.35v0h-1.334l-0.889,1.178-0.39.548v-3.634m-1.128,6.485v-5.9l1.113-.559v3.657l0.417-.586,0.884-1.172h1.311l-1.2,1.489,1.367,3.073h-1.233l-0.97-2.154-0.574.782v1.372h-1.113m1.121-6.473-1.129.567v5.914h1.129v-1.377l0.564-.77,0.968,2.147h1.249l-1.37-3.079,1.209-1.5h-1.33l-0.887,1.174-0.4.568v-3.646m3.466,1.9h1.129v4.578H638.2v-4.578m0,4.578v-4.578h1.129v4.578H638.2m1.137-4.585h-1.144v4.592h1.144v-4.592m-1.137,4.585h0m0.008,0h0m0-.008v-4.562h1.114v4.562H638.2m1.121-4.57H638.2v4.578h1.129v-4.578m-1.129-1.782h1.129V637.9H638.2v-1.135m0,1.135v-1.135h1.129V637.9H638.2m1.122-1.135h0m0.015-.007h-1.144v1.15h1.144v-1.15M638.2,637.9v-1.12h1.114v1.12H638.2m1.121-1.128H638.2V637.9h1.129v-1.135m27.007,6.36v-5.913l1.128-.568v6.481h-1.128m0,0v-5.913l1.128-.568v6.481h-1.128m1.135-6.493-1.143.575v5.925h1.143v-6.5m-1.135,6.493h0m0.007,0h0m0-.008v-5.9l1.113-.559v6.46h-1.113m1.121-6.473-1.128.568v5.913h1.128v-6.481m-48.407-47.61,70.932-26.026h0.008v13.446l-70.94,12.589v-0.009m0,0.009v-0.009l70.932-26.026h0.008v13.446l-70.94,12.589M690,563l-70.993,26.049,0,0.014L690,576.464V563m-70.908,26.033,70.893-26.011v13.43l-70.893,12.581m70.9-26.02h-0.008l-70.932,26.026v0.009l70.94-12.589V563.012m-70.54,59.54V596.791H634l3.386,5.914H627.112v4.253h9.311v5.427h-9.311v4.253H639.97v5.914H619.453m0,0V596.791H634l3.386,5.914H627.112v4.253h9.311v5.427h-9.311v4.253H639.97v5.914H619.453m14.556-25.769H619.446V622.56h20.531v-5.929H627.119v-4.238h9.311V606.95h-9.311v-4.238H637.4l-3.394-5.929m-14.548,25.762V596.8H634l3.377,5.9H627.1v4.268h9.311v5.412H627.1v0.008h0v4.261h12.858v5.9h-20.5M634,596.791H619.453v25.761H639.97v-5.914H627.112v-4.253h9.311v-5.427h-9.311v-4.253H637.39L634,596.791m11.367,25.761V612.385l-8.948-15.594h8.5l4.313,8.425,4.353-8.425h8.425l-8.989,15.594v10.167h-7.659m3.87-17.336,4.353-8.425h8.425l-8.989,15.594v10.167h-7.659V612.385l-8.948-15.594h8.5l4.313,8.425m12.791-8.433H653.59l0,0-4.346,8.413-4.309-8.417H636.41l8.954,15.6V622.56h7.673V612.387l9-15.6m-8.433.016h8.407l-8.984,15.584v10.162h-7.643V612.383L636.435,596.8h8.488l4.317,8.434L653.6,596.8m8.42-.008h-8.425l-4.353,8.425-4.313-8.425h-8.5l8.948,15.594v10.167h7.659V612.385l8.989-15.594m-19.752,41.673-0.283.081h0l-0.282.165-0.23.19v-0.355h-1.145v4.592h1.145v-2.558h0l0.041-.244,0.04-.244,0.038-.159,0.121-.16,0.119-.119,0.121-.082,0.2-.081h0.4l0.159,0.081,0.121,0.082,0.119,0.119,0.081,0.122,0.081,0.2,0.037,0.241v2.8h1.146v-2.6l-0.041-.488-0.081-.4-0.121-.366-0.162-.328-0.245-.2-0.283-.163L643,638.464l-0.364-.041-0.364.041m5.564,1.465h0m-1.086,2.181-0.121-.082-0.159-.119-0.119-.2-0.08-.241-0.041-.325-0.04-.4,0.04-.322,0.041-.323,0.08-.2,0.119-.16,0.121-.119,0.159-.081,0.159-.041h0.119l0.28,0.041,0.24,0.122,0.161,0.119,0.119,0.163v1.774l-0.119.16-0.2.159-0.2.123h-0.4l-0.159-.041m-0.329-3.646-0.323.121-0.323.2-0.243.284-0.2.325-0.164.406-0.078.447-0.041.529,0.041,0.528,0.078,0.485,0.124,0.45,0.2,0.325,0.283,0.284,0.283,0.2,0.363,0.122,0.407,0.041h0.283l0.243-.122,0.283-.122,0.191-.192v0.509l-0.081.2-0.081.16-0.2.16-0.24.163-0.361.078-0.482.044h-0.051l0.409,0.9,0.531-.04,0.444-.122,0.4-.163,0.161-.122v0l0.162-.16,0.121-.122,0.121-.163,0.162-.406,0.081-.488,0.04-.528v-4.139h-1.142v0.311l-0.191-.189-0.243-.122-0.283-.081-0.283-.041-0.407.041" transform="translate(-619 -563)"/>
</svg>
