<svg height="71" width="63" xmlns="http://www.w3.org/2000/svg" viewBox="0 0 63 71"><path fill-rule="evenodd" d="M1.7 59.11h1.31l.18-.04.14-.03.15-.07.07-.07.07-.07.03-.11.04-.21-.04-.14-.03-.1-.04-.11-.07-.07-.11-.07-.14-.03-.32-.04H1.7v1.16m0 2.42h1.49l.18-.04.14-.07.11-.1.1-.11.07-.14.04-.14.04-.17-.04-.18-.04-.17-.07-.14-.07-.11-.14-.07-.14-.07-.14-.03h-.22H1.7v1.54m-.99.91v-5.43h2.34l.35.03.36.07.28.11.25.17.21.21.14.25.07.28.04.31-.04.14-.03.18-.04.14-.07.17-.1.11-.11.14-.11.11-.14.06.25.15.14.1.14.14.11.14.11.21.03.21.04.28-.04.39-.1.35-.15.28-.21.25-.28.21-.32.14-.39.07-.43.03H.71m1-.92v-1.53h1.52l.14.04.14.07.14.07.07.1.07.14.03.17.04.18-.04.17-.03.14-.07.14-.11.11-.1.1-.14.07-.18.03h-.18-1.3m1.52-1.53h-.22H1.7v1.54h1.49l.18-.04.14-.07.11-.1.1-.11.07-.14.04-.14.04-.17-.04-.18-.04-.17-.07-.14-.07-.11-.14-.07-.14-.07-.14-.03m-1.52-.89v-1.14h1.23l.32.03.14.04.11.07.07.07.03.1.04.11.03.13-.03.21-.04.11-.07.06-.07.07-.14.07-.14.04-.18.03h-1.3m1.23-1.15H1.7v1.16h1.31l.18-.04.14-.03.15-.07.07-.07.07-.07.03-.11.04-.21-.04-.14-.03-.1-.04-.11-.07-.07-.11-.07-.14-.03-.32-.04M.71 62.44v-5.43h2.34l.35.03.36.07.28.11.25.17.21.21.14.25.07.28.04.31-.04.14-.03.18-.04.14-.07.17-.1.11-.11.14-.11.11-.14.06.25.15.14.1.14.14.11.14.11.21.03.21.04.28-.04.39-.1.35-.15.28-.21.25-.28.21-.32.14-.39.07-.43.03H.71M3.05 57H.71v5.45h2.3l.43-.04.39-.07.32-.14.29-.21.21-.25.14-.28.11-.35.03-.39-.03-.28-.04-.21-.1-.21h-.01l-.1-.14-.14-.14-.15-.11-.23-.13.13-.07.11-.11.1-.14.11-.1.07-.18.04-.14.03-.17.04-.14v-.01l-.04-.31-.07-.29-.14-.24-.22-.21-.24-.18-.29-.11-.35-.07-.36-.03M1.7 61.53v-1.54h1.53l.14.03.14.07.14.07.07.11.07.14.04.17.04.18-.04.17-.04.14-.07.14-.1.11-.11.1-.14.07-.18.04h-.18H1.7m1.53-1.55h-.22H1.7v1.56h1.49l.18-.04.14-.07.11-.11.11-.1.07-.14.04-.15.03-.17-.03-.18-.04-.17-.07-.15-.07-.1-.15-.07-.14-.07-.14-.04m-1.53-.87v-1.16h1.24l.32.04.14.03.11.07.07.07.04.11.03.1.04.14-.04.21-.03.11-.07.07-.07.07-.15.07-.14.03-.18.04H1.7m1.24-1.16H1.7v1.17h1.32l.17-.04.14-.03h.01l.14-.07v-.01l.07-.07.07-.07.04-.1.03-.22-.03-.14-.04-.1-.03-.11-.08-.07-.1-.07-.15-.04-.32-.03M.72 62.43v-5.42h2.33l.35.04.36.07.28.1.25.18.21.21.14.24.07.28.03.31-.03.14-.04.18-.03.14-.07.17-.11.11-.1.14-.11.1-.14.07H4.1l.26.15.14.11.14.14.1.14.11.21.03.2.04.28-.04.39-.1.35-.14.28-.21.24-.29.21-.31.14-.39.07-.43.03H.72m2.33-5.42H.71v5.43h2.3l.43-.03.39-.07.32-.14.28-.21.21-.25.15-.28.1-.35.04-.39-.04-.28-.03-.21-.11-.21-.11-.14-.14-.14-.14-.1-.25-.15.14-.06.11-.11.11-.14.1-.11.07-.17.04-.14.03-.18.04-.14-.04-.31-.07-.28-.14-.25-.21-.21-.25-.17-.28-.11-.36-.07-.35-.03m3.86 5.5l-.21-.03-.18-.04-.18-.1-.14-.07-.1-.14-.22-.25-.14-.28-.07-.32-.04-.28v-.28-2.24h1v2.42l.03.21.07.14.07.14.11.1.11.08.17.07h.32l.18-.07.11-.08.1-.1.11-.14.03-.14.04-.21.03-.21v-2.21h.96v3.96h-.96v-.31l-.21.17-.21.14-.29.07-.28.04-.21-.04m.28-.87h.32l.18-.07.11-.08.1-.1.11-.14.03-.14.04-.21.03-.21v-2.21h.96v3.96h-.96v-.31l-.21.17-.21.14-.29.07-.28.04-.21-.04-.21-.03-.18-.04-.18-.1-.14-.07-.1-.14-.22-.25-.14-.28-.07-.32-.04-.28v-.28-2.24h1v2.42l.03.21.07.14.07.14.11.1.11.08.17.07m1.88-3.17h-.96v2.22l-.04.21-.03.21-.04.14-.1.14-.11.1-.1.07-.18.07h-.14-.18l-.17-.07-.11-.07-.1-.1-.07-.14-.07-.14-.04-.21v-.25-2.18h-1V61l.03.28.08.32.14.29.21.24.11.14.14.07.18.11.18.03.21.04.21.03.29-.03.28-.07.21-.14.21-.17v.31h.96v-3.98m-1.95 4.08v-.01.01m.07-.91h.32l.18-.07.11-.07.1-.11h.01l.1-.14.04-.14.03-.21.04-.21v-2.2h.94v3.94h-.94v-.3-.02l-.22.19-.21.13-.29.08-.28.03-.21-.03-.21-.04-.18-.04-.17-.1-.14-.07-.11-.14-.21-.24-.14-.28-.07-.32-.04-.28v-.28-2.23h.98v2.41l.03.21.08.14.07.14.1.11.11.07.18.07m1.88-3.16h-.96v2.21l-.03.21-.04.21-.03.14-.11.14-.1.1-.11.08-.18.07h-.14-.18l-.17-.07-.11-.08-.11-.1-.07-.14-.07-.14-.03-.21v-.25-2.17h-1V61l.04.28.07.32.14.28.22.25.1.14.14.07.18.1.18.04.21.03.21.04.28-.04.29-.07.21-.14.21-.17v.31h.96v-3.96m13.13 3.96v-2.17-.25l-.03-.18-.07-.17-.07-.14-.11-.1-.1-.07-.18-.04-.14-.04-.18.04-.18.04-.1.07-.11.1-.11.14-.07.17-.03.18v2.42h-.99v-3.96h.99v.35l.21-.21.25-.11.25-.1h.63l.29.1.24.14.22.21.17.25.11.32.07.35.04.42v2.24h-1m-.14-4.04h-.35-.28-.01l-.24.11-.25.1-.21.2v-.33-.01h-1v3.98h1v-2.18 2.17h-.99v-3.96h.99v.35l.21-.21.25-.11.25-.1h.63l.29.1.24.14.22.21.17.25.11.32.07.35.04.42v2.24h-1v-2.17-.25l-.03-.18-.07-.17-.07-.14-.11-.1-.1-.07-.18-.04-.14-.04-.18.04-.18.04-.1.07-.11.1-.11.14-.07.17-.03.18v0l.04-.17.07-.18.11-.14.1-.1.1-.07.18-.03.18-.04.14.04.17.03.11.07.1.1.07.14.07.18.04.17v2.43h1V60.2l-.03-.42-.07-.36-.11-.31-.18-.25-.21-.21-.25-.14-.29-.11m0 .01h-.35-.28l-.25.1-.25.11-.21.21v-.35h-.99v3.96h.99v-2.17h-.01v2.16h-.98v-3.94h.98V58.84l.22-.22.25-.1.25-.11h.63l.28.11.25.14.21.21.18.24.1.32.07.35.04.42v2.23h-.98v-2.16-.25l-.03-.18-.08-.17-.07-.14-.1-.11-.11-.07-.18-.04-.14-.03-.18.03-.18.04-.11.07-.1.11-.11.14-.07.17-.04.18v.25h.01v-.25l.03-.18.07-.17.11-.14.11-.1.1-.07.18-.04.18-.04.14.04.18.04.1.07.11.1.07.14.07.17.03.18v2.42h1V60.2l-.04-.42-.07-.35-.11-.32-.17-.25-.22-.21-.24-.14-.29-.1m-12.07.07h.99v3.96h-.99v-3.96m0 3.96v-3.96h.99v3.96h-.99m.98-3.96h0m.02-.01h-.01-1v3.98h1.01v-3.98M10 62.43v-3.95h.97v3.95H10m.98-3.95h-.99v3.96h.99v-3.96m.85 3.96v-5.12l.99-.49v5.61h-.99m0 0v-5.12l.99-.49v5.61h-.99m1-5.62l-1.01.5v5.13h1.01v-5.63m-1 5.62h0m.01-.01v-5.11l.97-.48v5.59h-.97m.98-5.6l-.99.49v5.12h.99v-5.61m2.34 2.49l-.14.04-.14.03-.11.1-.11.15-.07.2-.03.25-.04.32.04.35.03.28.07.21.11.14.14.1.11.08.14.06h.14l.21-.03.22-.11.14-.1.1-.14v-1.58l-.1-.1-.14-.14-.22-.11-.25-.04-.1.04m-.43 3.19l-.31-.1-.25-.18-.25-.24-.18-.32-.1-.35-.07-.42-.04-.46.04-.45.07-.42.14-.32.17-.32.22-.21.28-.17.28-.11.36-.03h.25l.24.07.22.1.17.18v-1.44l.99-.49v5.61h-.99v-.28l-.21.14-.21.14-.21.07-.25.04-.36-.04m.43-.88l-.14-.07-.1-.07-.15-.11-.1-.14-.07-.2-.04-.28-.03-.35.03-.32.04-.24.07-.21.1-.14.11-.11.14-.03.14-.03.1-.04.25.04.21.1.14.14.11.1v1.58l-.11.14-.14.1-.21.1-.21.04h-.14m.1-2.35l-.1.04-.14.04-.14.03-.11.1-.11.15-.07.2-.03.25-.04.32.04.35.03.28.07.21.11.14.14.1.11.08.14.06h.14l.21-.03.22-.11.14-.1.1-.14v-1.58l-.1-.1-.14-.14-.22-.11-.25-.04m.71-.52v-1.44l.99-.49v5.61h-.99v-.28l-.21.14-.21.14-.21.07-.25.04-.36-.04-.31-.1-.25-.18-.25-.24-.18-.32-.1-.35-.07-.42-.04-.46.04-.45.07-.42.14-.32.17-.32.22-.21.28-.17.28-.11.36-.03h.25l.24.07.22.1.17.18m1-1.94l-1 .5v1.42l-.17-.16-.21-.11-.25-.07h-.25l-.36.04-.28.1-.29.18-.21.21-.18.32-.14.31-.07.43-.04.45.04.46.07.42.11.35.17.32.25.25.25.17.32.11.36.03.25-.03.21-.07.21-.15.21-.13v.28h1v-5.63m-1.81 4.81l-.14-.06-.11-.08-.14-.1-.11-.14-.07-.21-.03-.28-.04-.35.04-.32.03-.25.07-.2.11-.15.11-.1.14-.03.14-.04.1-.04.25.04.22.11.14.14.1.1v1.58l-.1.14-.14.1-.22.11-.21.03h-.14m.1-2.35l-.1.03-.15.04-.14.03-.11.11-.1.14-.07.21-.04.25-.04.32.04.35.04.28.07.21.1.14.15.11.1.07.15.07h.14l.21-.03.22-.11.14-.11.11-.14v-1.58l-.11-.11-.14-.14-.21-.11h-.01l-.24-.03h-.01m.71-.52h0m.01 0v-1.44l.98-.48v5.59h-.98v-.27-.01l-.22.15-.21.13-.22.08-.24.03-.35-.03-.32-.11-.25-.17-.24-.25-.18-.31-.11-.35-.07-.42-.03-.46.03-.45.07-.42.14-.32.18-.31.21-.21.28-.18.29-.1.35-.04h.24l.25.07.21.11.19.18v-.01m.98-1.93l-.99.49v1.44l-.17-.18-.22-.1-.24-.07h-.25l-.36.03-.28.11-.28.17-.22.21-.17.32-.14.32-.07.42-.04.45.04.46.07.42.1.35.18.32.25.24.25.18.31.1.36.04.25-.04.21-.07.21-.14.21-.14v.28h.99v-5.61m20.22 2.49l-.21.07-.14.14-.15.18v1.54l.11.1.14.14.21.11.11.03h.14l.18-.03.14-.03.14-.11.11-.14.07-.18.04-.21.03-.24.04-.28-.04-.28-.03-.25-.08-.17-.1-.18-.11-.1-.14-.07-.14-.04-.11-.04-.21.04m.14 3.19l-.25-.07-.21-.14-.18-.14v.28h-.99v-5.01l.99-.5v1.83l.18-.14.25-.14.21-.07h.25l.35.03.29.11.28.17.21.21.18.32.14.32.07.42.04.45-.04.46-.07.42-.1.35-.18.32-.25.24-.25.18-.32.1-.35.04-.25-.04m-.07-.88l-.1-.04-.21-.1-.14-.14-.11-.11v-1.53l.14-.18.14-.14.21-.06.21-.04.11.04.14.03.14.07.1.1.11.18.07.17.03.25.04.28-.04.28-.03.24-.04.21-.07.18-.1.13-.14.11-.14.03-.18.04h-.14m.14-2.35v0l-.21.04-.21.07-.14.14-.15.18v1.54l.11.1.14.14.21.11.11.03h.14l.18-.03.14-.03.14-.11.11-.14.07-.18.04-.21.03-.24.04-.28-.04-.28-.03-.25-.08-.17-.1-.18-.11-.1-.14-.07-.14-.04-.11-.04m-1.7 3.16v-5.01l.99-.5v1.83l.18-.14.25-.14.21-.07h.25l.35.03.29.11.28.17.21.21.18.32.14.32.07.42.04.45-.04.46-.07.42-.1.35-.18.32-.25.24-.25.18-.32.1-.35.04-.25-.04-.25-.07-.21-.14-.18-.14v.28h-.99m1-5.52l-1 .5v5.03h1v-.28l.17.13.21.15.25.07.25.03.36-.03.32-.11.25-.17.24-.25.18-.32.11-.35.07-.42.03-.46-.03-.45-.07-.43-.14-.31-.18-.32-.22-.21-.28-.18-.28-.1-.36-.04h-.25l-.21.07-.25.14-.17.13v-1.82m.7 2.36l.11.04.14.04.14.07.11.1.1.18.08.17.03.25.04.28-.04.28-.03.24-.04.21-.07.18-.11.14-.14.11-.14.03-.18.03h-.14l-.11-.03-.21-.11-.14-.14-.11-.1v-1.54l.15-.18.14-.14.21-.07.21-.04m0 0l-.21.03-.21.07h-.01l-.14.15-.14.17v1.55l.11.11.14.14.21.11.11.03h.14l.18-.03.14-.04.15-.11.1-.14.08-.17v-.01l.03-.21.04-.24.03-.28-.03-.28-.04-.25-.07-.18-.11-.17-.1-.11-.15-.07-.14-.04-.11-.03m-1.69 3.15v-5l.98-.49v1.83l.19-.15.24-.14.21-.07h.25l.35.04.28.1.29.18.21.21.17.31.14.32.07.42.04.45-.04.46-.07.42-.1.35-.18.31-.24.25-.25.17-.32.11-.35.03-.25-.03-.24-.08-.21-.13-.18-.14-.01-.01v.28h-.98m.98-5.5l-.99.5v5.01h.99v-.28l.18.14.21.14.25.07.25.04.35-.04.32-.1.25-.18.25-.24.18-.32.1-.35.07-.42.04-.46-.04-.45-.07-.42-.14-.32-.18-.32-.21-.21-.28-.17-.29-.11-.35-.03h-.25l-.21.07-.25.14-.18.14v-1.83m-11.32 2.39l-.15.07-.1.1-.11.15-.07.2-.04.25-.03.32.03.35.04.24.07.25.11.14.1.1.15.08.14.06h.1l.25-.03.18-.11.17-.1.11-.14v-1.58l-.11-.14-.14-.1-.21-.11-.25-.04h-.14l-.1.04M25 63.28h.04l.42-.03.32-.07.21-.11.18-.14.07-.17.07-.18v-.35-.07l-.21.14-.21.14-.22.07-.28.04-.32-.04-.32-.14-.25-.17-.24-.21-.18-.32-.11-.35-.1-.42v-.49-.42l.1-.42.11-.35.21-.29.21-.24.29-.14.28-.11.36-.03h.24l.25.07.21.14.18.14v-.28h.99v3.61l-.03.46-.07.38-.18.35-.07.14-.14.14-.11.11-.14.1-.36.14-.38.11-.46.03-.36-.77m.5-1.65l-.14-.07-.14-.07-.11-.1-.1-.15-.07-.24-.04-.24-.03-.35.03-.32.04-.24.07-.21.1-.14.11-.11.14-.06.1-.04h.14l.25.04.21.1.14.1.11.14v1.58l-.11.13-.18.11-.17.1-.25.04h-.1m.1-2.35h-.14l-.1.04-.15.07-.1.1-.11.15-.07.2-.04.25-.03.32.03.35.04.24.07.25.11.14.1.1.15.08.14.06h.1l.25-.03.18-.11.17-.1.11-.14v-1.58l-.11-.14-.14-.1-.21-.11-.25-.04m-.21 3.27l-.32-.04-.32-.14-.25-.17-.24-.21-.18-.32-.11-.35-.1-.42v-.49-.42l.1-.42.11-.35.21-.29.21-.24.29-.14.28-.11.36-.03h.24l.25.07.21.14.18.14v-.28h.99v3.61l-.03.46-.07.38-.18.35-.07.14-.14.14-.11.11-.14.1-.36.14-.38.11-.46.03-.36-.77h.04l.42-.03.32-.07.21-.11.18-.14.07-.17.07-.18v-.35-.07l-.21.14-.21.14-.22.07-.28.04m.28-4.15h-.24l-.36.04-.28.1-.29.14-.21.25-.22.28-.1.35-.11.43V60.9l.11.42.1.35.18.32.25.21.25.18.32.14.32.03.28-.03h.01l.21-.07.21-.15.21-.13v.41l-.08.18-.07.17-.17.14-.21.1-.32.07-.42.04H25h-.01l.36.78.47-.03.39-.11.35-.14.14-.11.11-.1.14-.14.07-.14.18-.36.07-.38.04-.46v-3.62h-1v.27l-.17-.13-.22-.14-.24-.07h-.01M25.5 61.63l-.14-.06-.15-.08-.1-.1-.11-.14-.07-.25-.04-.24-.03-.35.03-.32.04-.25.07-.2.11-.15.1-.1.15-.07.1-.04h.14l.25.04.21.11.14.1.11.14h0v1.58l-.11.14-.17.1-.18.11-.25.03h-.1m.1-2.35h-.14l-.11.03-.14.07-.11.11-.1.14-.08.21-.03.25-.04.32.04.35.03.24.08.25.1.14.11.11.14.07.14.07h.11l.25-.03.18-.11.18-.11.11-.14v-1.58l-.11-.14-.14-.11-.22-.11-.25-.03m.71-.52h0m-.92 3.78l-.32-.04-.31-.14-.25-.17-.25-.21-.17-.31-.11-.35-.1-.42v-.49-.42l.1-.42.11-.35.21-.28.21-.25.28-.14.28-.1.36-.04h.24l.25.07.21.14.18.14.01.01v-.01-.28h.98v3.61l-.04.46-.07.38-.18.35-.07.14-.14.14-.1.1-.14.11-.36.14-.39.1-.45.04-.35-.76h.03l.42-.03.32-.08.22-.1.17-.14h.01l.07-.18.07-.18v-.35-.07-.01l-.22.15-.22.13-.21.07-.28.04m.28-4.13h-.24l-.36.03-.28.11-.29.14-.21.24-.21.29-.11.35-.1.42V60.9l.1.42.11.35.18.32.24.21.25.17.32.14.32.04.28-.04.22-.07.21-.14.21-.14v.42l-.07.18-.07.17-.18.14-.21.11-.32.07-.42.03H25l.36.77.46-.03.38-.11.36-.14.14-.1.11-.11.14-.14.07-.14.18-.35.07-.38.03-.46v-3.61h-.99v.28l-.18-.14-.21-.14-.25-.07m5.39 2.21l-.11.03-.11.07-.07.07-.07.11-.03.1v.25l.03.14.07.1.07.08.11.06.11.04.14.03.14.04.25-.04.24-.1.15-.14.14-.14v-.56l-.18-.07-.18-.07-.21-.04h-.21-.14l-.14.04m-.18 1.89l-.25-.03-.25-.11-.21-.14-.21-.21-.14-.25-.11-.28-.04-.35.04-.35.11-.28.17-.21.22-.17.24-.14.25-.08.28-.07h.5l.25.04.21.07.18.07v-.28-.1l-.04-.15-.07-.1-.07-.07-.11-.07-.14-.03-.28-.04-.28.04-.29.03-.24.11-.22.1-.39-.67.36-.17.35-.14.39-.07h.74l.32.07.29.14.24.14.18.21.14.21.07.28.04.32v2.66h-.99v-.31l-.22.17-.28.14-.25.07-.21.04-.28-.04m.67-1.93h-.21-.14l-.14.04-.11.03-.11.07-.07.07-.07.11-.03.1v0l.04-.1.07-.1.07-.07.1-.07.11-.04.14-.03h.35l.21.03.18.07.17.07v.56l-.14.13-.14.14-.25.11-.24.03-.14-.03-.14-.04-.11-.03-.1-.07-.07-.07-.07-.1-.04-.14v-.11.11l.03.14.07.1.07.08.11.06.11.04.14.03.14.04.25-.04.24-.1.15-.14.14-.14v-.56l-.18-.07-.18-.07-.21-.04m-1.17-1.12l-.39-.67.36-.17.35-.14.39-.07h.74l.32.07.29.14.24.14.18.21.14.21.07.28.04.32v2.66h-.99v-.31l-.22.17-.28.14-.25.07-.21.04-.28-.04-.25-.03-.25-.11-.21-.14-.21-.21-.14-.25-.11-.28-.04-.35.04-.35.11-.28.17-.21.22-.17.24-.14.25-.08.28-.07h.5l.25.04.21.07.18.07v-.28-.1l-.04-.15-.07-.1-.07-.07-.11-.07-.14-.03-.28-.04-.28.04-.29.03-.24.11-.22.1m1.45-1.06h-.35-.39l-.39.07-.35.14-.37.18.4.68.22-.11.25-.1.28-.04.28-.03.28.03.14.04.11.06.07.07.07.11.03.14v.37l-.17-.06-.21-.07v-.01l-.25-.03h-.21-.29l-.28.07-.25.07-.25.14-.21.18-.18.21-.11.28-.03.35.03.35.11.29.14.24.22.22.21.14.25.1.25.04.28.03.22-.03.24-.07.29-.15.2-.16v.31h1.01v-2.67l-.04-.32-.07-.28-.14-.22-.18-.21-.25-.14-.29-.14-.32-.07m-.28 2.17h-.21-.14l-.15.04-.1.04-.11.07-.07.07-.07.1h-.01l-.03.11v.14h.01V61l.03-.1.07-.11.07-.07.11-.07.11-.03.14-.04h.35l.21.04.18.07.18.07v.56l-.14.14-.15.14-.24.1-.25.04-.14-.04-.14-.03-.11-.04-.11-.06-.07-.08-.07-.1-.03-.14v-.11h-.01v.11l.03.14.08.11.07.07.11.07.1.04.14.03.15.04.25-.04.25-.11.14-.14.14-.14v-.57l-.18-.07-.17-.07h-.01l-.21-.04m-1.17-1.11h0m0-.01L30 58.8l.35-.18.35-.14.39-.07h.74l.32.07.28.14.25.14.18.21.14.21.07.28.03.32v2.65h-.98v-.3-.02l-.22.19-.28.13-.25.07-.21.04-.28-.04-.25-.03-.24-.11-.22-.13-.21-.21-.14-.25-.1-.28-.04-.35.04-.35.1-.28.18-.2.21-.18.25-.14.24-.07.29-.07h.49l.25.04.21.07.18.07v-.29-.1-.01l-.03-.14-.07-.1-.08-.07v-.01l-.1-.07-.15-.03-.28-.04-.28.04-.29.03-.25.11-.21.1m1.45-1.04h-.35-.39l-.39.07-.35.14-.36.17.39.67.22-.1.24-.11.29-.03.28-.04.28.04.14.03.11.07.07.07.07.1.04.15v.38l-.18-.07-.21-.07-.25-.04h-.21-.29l-.28.07-.25.08-.24.14-.22.17-.17.21-.11.28-.04.35.04.35.11.28.14.25.21.21.21.14.25.11.25.03.28.04.21-.04.25-.07.28-.14.22-.17v.31h.99v-2.66l-.04-.32-.07-.28-.14-.21-.18-.21-.24-.14-.29-.14-.32-.07m9.42.84l-.14.03-.14.08-.11.1-.07.11-.07.14-.07.17v.18h1.49l-.04-.32-.07-.14-.07-.11-.11-.1-.14-.11-.14-.03-.18-.04-.14.04m-.14 3.26l-.39-.14-.32-.17-.25-.21-.24-.32-.15-.35-.1-.39-.04-.45.04-.46.1-.38.15-.36.21-.31.28-.25.29-.17.35-.11.39-.03.35.03.32.11.28.17.25.25.22.28.14.35.07.42.03.46v.28h-2.48l.08.28.07.21.14.14.1.1.18.08.11.03.25.03.24-.03.22-.07.17-.11.14-.14.64.63-.18.14-.14.15-.18.1-.17.07-.36.14-.38.04-.43-.04m-.45-2.46v-.17l.07-.17.07-.14.07-.11.1-.1.14-.07.14-.03.14-.04.18.04.14.03.14.1.1.11.07.1.08.14.03.31h-1.47m.73-.84l-.14.04-.14.03-.14.08-.11.1-.07.11-.07.14-.07.17v.18h1.49l-.04-.32-.07-.14-.07-.11-.11-.1-.14-.11-.14-.03-.18-.04m.92 2.08v-.01.01m-.77 1.26l-.43-.04-.39-.14-.32-.17-.25-.21-.24-.32-.15-.35-.1-.39-.04-.45.04-.46.1-.38.15-.36.21-.31.28-.25.29-.17.35-.11.39-.03.35.03.32.11.28.17.25.25.22.28.14.35.07.42.03.46v.28h-2.48l.08.28.07.21.14.14.1.1.18.08.11.03.25.03.24-.03.22-.07.17-.11.14-.14.64.63-.18.14-.14.15-.18.1-.17.07-.36.14-.38.04m-.11-4.15l-.39.04-.36.1-.28.18-.29.24-.21.32-.14.35-.11.39-.03.46.03.45.11.39.14.35.25.32.25.21.32.18.39.14.43.03.39-.03.35-.14.18-.07.18-.11.14-.14.18-.14v-.01l-.65-.63-.14.14-.18.1-.21.07-.24.04-.25-.04-.11-.03-.17-.07-.11-.1-.14-.15-.07-.2-.07-.28h2.48v-.28l-.04-.46-.07-.42-.14-.35-.21-.29-.25-.24-.29-.18-.32-.1-.35-.04m-.78 1.66v-.18l.07-.17.07-.14.07-.11.11-.1.14-.08.14-.03.14-.04.18.04.14.03.14.11.11.1.07.11.07.14.04.32h-1.49m.74-.85l-.14.03-.14.04-.15.07-.1.1v.01l-.07.1-.08.14-.07.18v.18h1.5l-.03-.32-.07-.14-.08-.11-.1-.1v-.01l-.14-.1h-.01l-.14-.04-.18-.03m.15 3.33l-.43-.04-.39-.14-.31-.17-.25-.21-.25-.31-.14-.35-.1-.39-.04-.45.04-.46.1-.38.14-.35.21-.32.29-.24.28-.18.35-.1.39-.04.35.04.32.1.28.18.25.24.21.28.14.35.07.42.04.46v.27h-2.48l.07.29.07.21.14.14.11.11.18.07.11.04.24.03h.01l.24-.03h.01l.21-.08.18-.1.13-.14.63.62-.17.14-.14.14-.18.1-.17.07-.36.14-.38.04m-.11-4.13l-.39.03-.35.11-.29.17-.28.25-.21.31-.15.36-.1.38-.04.46.04.45.1.39.15.35.24.32.25.21.32.17.39.14.43.04.38-.04.36-.14.17-.07.18-.1.14-.15.18-.14-.64-.63-.14.14-.17.11-.22.07-.24.03-.25-.03-.11-.03-.18-.08-.1-.1-.14-.14-.07-.21-.08-.28h2.48v-.28l-.03-.46-.07-.42-.14-.35-.22-.28-.25-.25-.28-.17-.32-.11-.35-.03m9.35.84l-.15.03-.1.07-.11.11-.1.11-.07.14-.04.17v.18h1.49l-.07-.32-.04-.14-.07-.11-.11-.1-.14-.11-.14-.03-.18-.04-.17.04m-.11 3.26l-.39-.14-.32-.17-.28-.21-.21-.32-.18-.35-.07-.39-.04-.45.04-.46.07-.38.18-.36.21-.31.25-.25.32-.17.35-.11.35-.03.39.03.32.11.28.17.25.25.18.28.14.35.11.42.03.46v.28h-2.48l.04.28.11.21.1.14.14.1.14.08.15.03.21.03.25-.03.21-.07.18-.11.17-.14.61.63-.15.14-.17.15-.15.1-.17.07-.39.14-.39.04-.39-.04m.11-3.25l.17-.04.18.04.14.03.14.1.1.11.07.1.04.14.07.31h-1.47v-.17l.03-.17.07-.14.11-.11.1-.1.11-.07.14-.03m.17-.05l-.17.04-.15.03-.1.07-.11.11-.1.11-.07.14-.04.17v.18h1.49l-.07-.32-.04-.14-.07-.11-.11-.1-.14-.11-.14-.03-.18-.04m.11 3.34l-.39-.04-.39-.14-.32-.17-.28-.21-.21-.32-.18-.35-.07-.39-.04-.45.04-.46.07-.38.18-.36.21-.31.25-.25.32-.17.35-.11.35-.03.39.03.32.11.28.17.25.25.18.28.14.35.11.42.03.46v.28h-2.48l.04.28.11.21.1.14.14.1.14.08.15.03.21.03.25-.03.21-.07.18-.11.17-.14.61.63-.15.14-.17.15-.15.1-.17.07-.39.14-.39.04m-.11-4.15l-.35.04-.36.1-.32.18-.25.24-.21.32-.18.35-.07.39-.03.46.03.45.07.39.18.35.21.32.29.21.32.18.39.14.39.03.39-.03.39-.14.18-.07.14-.11.18-.14.14-.14v-.01l-.61-.63-.18.14-.17.1-.21.07-.25.04-.21-.04-.14-.03-.14-.07-.14-.11-.11-.14-.1-.2-.04-.28h2.48v-.28l-.04-.46-.1-.42-.14-.35-.18-.29-.25-.24-.29-.18-.32-.1-.39-.04m-.74 1.66v-.18l.04-.17.07-.14.1-.11.11-.11.1-.07.15-.03.17-.04.18.04.14.03.14.11.11.1.07.11.04.14.07.32h-1.49m.74-.85l-.18.03-.14.04-.11.07-.1.1-.11.11-.07.14-.04.18v.18h1.5l-.07-.32-.03-.14-.08-.11-.1-.1v-.01l-.15-.1-.14-.04-.18-.03m.11 3.33l-.39-.04-.39-.14-.32-.17-.28-.21-.21-.31-.17-.35-.08-.39-.03-.45.03-.46.08-.38.17-.35.21-.32.25-.24.32-.18.35-.1.35-.04.39.04.32.1.28.18.25.24.17.28.14.35.11.42.04.46v.27h-2.48l.03.29.11.21.11.14.14.11.14.07.15.04.21.03.25-.03.21-.08.18-.1.17-.14.6.62-.14.14-.18.14-.14.1-.17.07-.39.14-.39.04m-.11-4.13l-.35.03-.35.11-.32.17-.25.25-.21.31-.18.36-.07.38-.04.46.04.45.07.39.18.35.21.32.28.21.32.17.39.14.39.04.39-.04.39-.14.17-.07.15-.1.17-.15.15-.14-.61-.63v0l-.17.14-.18.11-.21.07-.25.03-.21-.03-.15-.03-.14-.08-.14-.1-.1-.14-.11-.21-.04-.28h2.48v-.28l-.03-.46-.11-.42-.14-.35-.18-.28-.25-.25-.28-.17-.32-.11-.39-.03m-3.32 4.1l-.25-.1-.18-.11-.14-.17-.11-.18-.07-.21-.03-.21-.04-.21v-1.93h-.6v-.91h.6v-1.02l.99-.49v1.51h.92v.91h-.92v1.68l.04.25.07.14.07.07.07.03.18.04h.17l.15-.04.28-.14-.11.92-.17.1-.22.04-.21.03-.25.04-.24-.04m-1.42-3.12v-.91h.6v-1.02l.99-.49v1.51h.92v.91h-.92v1.68l.04.25.07.14.07.07.07.03.18.04h.17l.15-.04.28-.14-.11.92-.17.1-.22.04-.21.03-.25.04-.24-.04-.25-.1-.18-.11-.14-.17-.11-.18-.07-.21-.03-.21-.04-.21v-1.93h-.6m1.6-2.43l-1.01.5v1.01h-.6v.92h.6v1.93l.04.21.04.21.07.21.1.18.14.17.18.11.25.11.25.03.25-.03.21-.04.22-.03.18-.11.11-.93-.3.15-.14.03h-.17l-.18-.03-.07-.04-.07-.07-.07-.13-.03-.25v-1.68h.92v-.92h-.92v-1.51m-1.6 2.42v-.9h.61v-1.01l.98-.49v1.5h.92v.9h-.92v1.69l.03.25.07.14.07.07.08.04.18.04h.17l.15-.04.27-.14-.1.9-.18.1-.21.04-.21.03-.25.04-.24-.04-.25-.1-.18-.1-.14-.18-.1-.17-.07-.21-.04-.21-.03-.21v-1.94h-.61m1.59-2.41l-.99.49v1.02h-.6v.91h.6v1.93l.04.21.03.21.07.21.11.18.14.17.18.11.25.1.24.04.25-.04.21-.03.22-.04.17-.1.11-.92-.28.14-.15.04h-.17l-.18-.04-.07-.03-.07-.07-.07-.14-.04-.25v-1.68h.92v-.91h-.92v-1.51m-3.01 5.54l-.24-.1-.18-.11-.14-.17-.11-.18-.07-.21-.04-.21-.03-.21v-1.93h-.6v-.91h.6v-1.02l.99-.49v1.51h.85v.91h-.85v1.68l.04.25.07.14.07.07.07.03.17.04h.18l.14-.04.29-.14-.11.92-.18.1-.21.04-.21.03-.25.04-.25-.04m-1.41-3.12v-.91h.6v-1.02l.99-.49v1.51h.85v.91h-.85v1.68l.04.25.07.14.07.07.07.03.17.04h.18l.14-.04.29-.14-.11.92-.18.1-.21.04-.21.03-.25.04-.25-.04-.24-.1-.18-.11-.14-.17-.11-.18-.07-.21-.04-.21-.03-.21v-1.93h-.6m1.6-2.43l-1.01.5v1.01h-.6v.92h.6v1.93l.04.21.03.21.07.21.11.18.14.17.18.11.25.11.25.03.25-.03.21-.04.21-.03.18-.11h.01l.1-.93-.01.01h0l-.28.14-.14.03h-.18l-.17-.03-.07-.04-.07-.07-.07-.13-.03-.25v-1.68h.85v-.92h-.85v-1.51m-1.6 2.42v-.9h.6v-1.01l.98-.49v1.5h.85v.9h-.85v1.69l.04.25.07.14.07.07.07.04.18.04h.18l.14-.04.28-.14-.11.9-.17.1-.21.04-.21.03-.25.04-.25-.04-.24-.1-.18-.1-.14-.18-.1-.17-.07-.21-.04-.21-.04-.21v-1.94h-.6m1.59-2.41l-.99.49v1.02h-.6v.91h.6v1.93l.03.21.04.21.07.21.11.18.14.17.18.11.24.1.25.04.25-.04.21-.03.21-.04.18-.1.11-.92-.29.14-.14.04h-.18l-.17-.04-.07-.03-.07-.07-.07-.14-.04-.25v-1.68h.85v-.91h-.85v-1.51m8.32 5.47v-3.96h.99v.35l.18-.21.21-.11.25-.1H55.34l.22.03.17.11.18.07-.28.98-.15-.11-.14-.06-.17-.04h-.18-.18l-.14.04-.11.06-.1.11-.07.14-.07.14-.04.21v2.35h-.99m.99-3.61l.18-.21.21-.11.25-.1H55.34l.22.03.17.11.18.07-.28.98-.15-.11-.14-.06-.17-.04h-.18-.18l-.14.04-.11.06-.1.11-.07.14-.07.14-.04.21v2.35h-.99v-3.96h.99v.35m1.06-.43h-.17-.25l-.25.11-.22.1-.16.2v-.33-.01h-1.01v3.98h1.01V60.3v-.21l.03-.21.07-.14.07-.14.11-.1.1-.07.14-.04h.36l.17.04.14.07.14.11h.01l.29-1h-.01l-.17-.07-.18-.1-.22-.04m-1.07.45l.19-.23.21-.1.25-.11H55.34l.21.04.18.1.17.07-.28.97-.13-.1-.14-.07-.18-.04h-.18-.18l-.14.04-.11.07-.11.1v.01l-.07.14-.07.14-.04.21v2.34h-.97v-3.95h.97v.37m1.07-.44h-.17-.25l-.25.1-.21.11-.18.21v-.35h-.99v3.96h.99V60.3v-.21l.04-.21.07-.14.07-.14.1-.11.11-.06.14-.04h.36l.17.04.14.06.15.11.28-.98-.18-.07-.17-.11-.22-.03M9.99 56.93h.99v.98h-.99v-.98m0 .98v-.98h.99v.98h-.99m.98-.98h0m.02 0h-.01-1v.99h1.01v-.99m-.99.98v-.97h.97v.97H10m.98-.98h-.99v.98h.99v-.98m6.87 1.55h.99v3.96h-.99v-3.96m0 3.96v-3.96h.99v3.96h-.99m1-3.97h-1.01v3.98h1.01v-3.98m-1 3.97h0m.01-.01v-3.95h.97v3.95h-.97m.98-3.95h-.99v3.96h.99v-3.96m-.99-1.55h.99v.98h-.99v-.98m0 .98v-.98h.99v.98h-.99m.98-.98h0m.02 0h-.01-1v.99h1.01v-.99m-.99.98v-.97h.97v.97h-.97m.98-.98h-.99v.98h.99v-.98m26.2 9.33l-.11.07-.1.11-.11.14-.07.17-.07.28v.63l.07.29.07.21.11.17.1.11.15.07.1.03h.39l.18-.1.14-.14.14-.14v-1.55l-.1-.14-.18-.1-.18-.11-.25-.03h-.14l-.14.03m.07 3.19l-.35-.03-.29-.11-.28-.17-.21-.25-.18-.28-.14-.38-.07-.39-.04-.49.04-.46.07-.38.14-.35.18-.28.21-.25.28-.17.32-.11.36-.03.21.03.25.07.21.11.21.17v-1.44l.99-.49v5.61h-.99v-.31l-.21.17-.25.14-.21.07h-.25m.07-.91l-.1-.04-.14-.07-.11-.1-.1-.18-.07-.21-.07-.28v-.34-.29l.07-.27.07-.18.1-.14.11-.1.1-.07.14-.04h.14l.25.04.17.11.18.1.1.14v1.53l-.14.14-.14.14-.17.11h-.25-.14m.14-2.31h-.14l-.14.03-.11.07-.1.11-.11.14-.07.17-.07.28v.63l.07.29.07.21.11.17.1.11.15.07.1.03h.39l.18-.1.14-.14.14-.14v-1.55l-.1-.14-.18-.1-.18-.11-.25-.03m.71-.53v-1.44l.99-.49v5.61h-.99v-.31l-.21.17-.25.14-.21.07h-.25l-.35-.03-.29-.11-.28-.17-.21-.25-.18-.28-.14-.38-.07-.39-.04-.49.04-.46.07-.38.14-.35.18-.28.21-.25.28-.17.32-.11.36-.03.21.03.25.07.21.11.21.17m1-1.94l-1.01.5v1.43l-.2-.17-.21-.1v-.01l-.25-.07-.21-.03-.36.03-.32.11-.28.18-.22.24-.17.28-.15.36-.07.38-.03.46.03.49.07.39.15.38.17.29.22.24.28.18.29.11.35.03h.25l.21-.07.25-.14.2-.17v.31h1.01v-5.63m-1.85 4.78l-.1-.03-.15-.07-.1-.11-.11-.17-.07-.21-.07-.29v-.34-.29l.07-.28.07-.17.11-.14.1-.11.11-.07.14-.03h.14l.25.03.18.11.18.1.1.14v1.55l-.14.14-.14.14-.18.1h-.25-.14m.14-2.32h-.14l-.14.04-.11.07-.11.1-.1.14-.08.18-.07.28V67.67l.07.28.08.21.1.18.11.1.14.07.11.04h.39l.18-.11.14-.14.15-.14v-1.55l-.11-.14-.18-.11-.18-.1-.25-.04m.71-.52h0m.01 0v-1.43l.98-.49v5.6h-.98v-.31-.02l-.22.19-.25.14-.21.07h-.25l-.35-.04-.28-.1-.29-.18-.21-.24-.17-.28-.14-.39-.07-.38-.04-.49.04-.46.07-.38.14-.35.17-.28.21-.24.29-.18.31-.1.36-.04.21.04.24.07.22.1.22.19v-.02m.98-1.93l-.99.49v1.44l-.21-.17-.21-.11-.25-.07-.21-.03-.36.03-.32.11-.28.17-.21.25-.18.28-.14.35-.07.38-.04.46.04.49.07.39.14.38.18.28.21.25.28.17.29.11.35.03h.25l.21-.07.25-.14.21-.17v.31h.99v-5.61m-36.96 5.61v-3.96h.99v.35l.18-.21.21-.14.21-.07.29-.03.17.03.22.04.17.07.18.1-.28.95-.15-.07-.17-.07-.14-.04-.18-.03-.18.03-.14.04-.14.07-.07.1-.11.11-.03.17-.04.18v2.38h-.99m.99-3.61l.18-.21.21-.14.21-.07.29-.03.17.03.22.04.17.07.18.1-.28.95-.15-.07-.17-.07-.14-.04-.18-.03-.18.03-.14.04-.14.07-.07.1-.11.11-.03.17-.04.18v2.38h-.99v-3.96h.99v.35m.89-.46l-.29.03-.21.07v.01l-.22.14-.16.19v-.33-.01h-1.01v3.98h1.01v-2.15V67l.03-.18.04-.17.1-.1.07-.11.14-.07.14-.03.18-.04.18.04.14.03.17.07.14.07.01.01.29-.96-.01-.01-.17-.1-.18-.07-.21-.04-.18-.03m-.89.48l.18-.22.21-.14.21-.07.29-.04.17.04.21.03.18.07.17.1-.28.94-.13-.07-.18-.07-.14-.03-.18-.04-.18.04-.14.03-.14.07-.08.11-.1.1-.04.18-.03.18v2.38h-.98v-3.95h.98V65.79m.89-.47l-.29.03-.21.07-.21.14-.18.21v-.35h-.99v3.96h.99v-2.14V67l.04-.18.03-.17.11-.11.07-.1.14-.07.14-.04.18-.03.18.03.14.04.17.07.15.07.28-.95-.18-.1-.17-.07-.22-.04-.17-.03m-8.32 4.06l-.43-1.64-.25-.88-.21.91-.42 1.61h-.85l-.04-.03-1.06-3.79v-.14h.96l.38 1.47.18.99.14-.53.11-.49.43-1.44h.84l.39 1.44.25 1.02.21-1.02.36-1.44h.99l-1.13 3.96h-.85m.42-1.5l.21-1.02.36-1.44h.99l-1.13 3.96h-.85l-.43-1.64-.25-.88-.21.91-.42 1.61h-.85l-.04-.03-1.06-3.79v-.03l-.03-.1h.03v-.01h.96l.38 1.47.18.99.14-.53.11-.49.43-1.44h.84l.39 1.44.25 1.02m1.57-2.47H4.6l-.35 1.45-.21.99-.24-.99-.39-1.45h-.86l-.43 1.45-.1.49-.14.5-.17-.96-.39-1.48h-1l1.1 3.94.03.04h.86l.43-1.62.2-.88.25.85.42 1.65h.86l1.14-3.98m-.01.01h-.99l-.36 1.44-.21 1.02-.25-1.02-.39-1.44h-.84l-.43 1.44-.11.49-.14.53-.18-.99-.38-1.47H.36v.01h.95l.39 1.47.18 1.01.15-.56.11-.49.42-1.43h.84l.39 1.43.25 1.05.22-1.05.35-1.43h.98l-1.13 3.95h-.84l-.42-1.65-.26-.9-.21.94-.43 1.61h-.84l-.03-.04-1.07-3.81v.03l1.06 3.79.04.03h.85l.42-1.61.21-.91.25.88.43 1.64h.85l1.13-3.96m1.7.91l-.14.11-.14.1-.08.18-.07.21-.03.21-.04.25.04.24.03.25.07.17.08.18.14.14.14.1.14.04.18.03.18-.03.14-.04.14-.1.14-.14.07-.18.07-.17.07-.25v-.24-.25l-.07-.21-.07-.21-.07-.18-.14-.1-.14-.11-.14-.07h-.18-.18l-.14.07m-.07 3.09l-.36-.11-.28-.17-.28-.25-.21-.31-.18-.35-.07-.39-.04-.45.04-.43.07-.38.18-.39.21-.28.28-.24.28-.18.36-.14.39-.03.39.03.35.14.28.18.29.24.21.28.18.39.07.38.03.43-.03.45-.07.39-.18.35-.21.31-.29.25-.28.17-.35.11-.39.03-.39-.03m-.28-2.7l.07-.17.14-.11.14-.1.14-.07h.35l.14.07.14.1.14.11.07.17.08.21.07.21v.49l-.07.24-.08.18-.07.17-.14.14-.14.11-.14.03-.17.03-.18-.03-.14-.03-.14-.11-.14-.14-.07-.17-.07-.17-.03-.25-.04-.24.04-.25.03-.21.07-.21m.85-.46h-.18-.18l-.14.07-.14.11-.14.1-.08.18-.07.21-.03.21-.04.25.04.24.03.25.07.17.08.18.14.14.14.1.14.04.18.03.18-.03.14-.04.14-.1.14-.14.07-.18.07-.17.07-.25v-.24-.25l-.07-.21-.07-.21-.07-.18-.14-.1-.14-.11-.14-.07m-.18-.94l.39.03.35.14.28.18.29.24.21.28.18.39.07.38.03.43-.03.45-.07.39-.18.35-.21.31-.29.25-.28.17-.35.11-.39.03-.39-.03-.36-.11-.28-.17-.28-.25-.21-.31-.18-.35-.07-.39-.04-.45.04-.43.07-.38.18-.39.21-.28.28-.24.28-.18.36-.14.39-.03m0-.01l-.39.03-.36.15-.28.17-.29.25-.21.28-.18.39-.07.38-.03.43.03.45.07.39.18.35.21.32.29.24.28.18.36.11.39.03.39-.03.35-.11.29-.18.28-.24.21-.32.18-.35.07-.39.04-.45-.04-.43-.07-.38-.18-.39-.21-.28-.28-.25-.29-.17-.35-.15-.39-.03m0 3.23l-.18-.03-.14-.04-.14-.1-.14-.14-.08-.18-.07-.17-.03-.25-.04-.24.04-.25.03-.21.07-.21.08-.18.14-.1.14-.11.14-.07h.36l.14.07.14.11.14.1.07.18.07.21.07.21v.49l-.07.25-.07.17-.07.18-.14.14-.14.1-.14.04-.18.03m.18-2.28h-.18-.18l-.14.07-.15.1-.14.11-.07.18-.07.21-.04.21-.03.24v.01l.03.24.04.25.07.17.07.18.14.14.15.11.14.03.18.04.18-.04.14-.03.14-.11.14-.14h.01l.07-.18.07-.17.07-.25v-.24-.25l-.07-.21-.07-.21-.07-.18-.15-.11-.14-.1-.14-.07m-.18 3.19l-.39-.04-.35-.1-.28-.18-.29-.24-.21-.32-.18-.35-.07-.38-.03-.45.03-.42.07-.39.18-.38.21-.28.29-.25.28-.17.35-.14.39-.04.39.04.35.14.28.17.28.25.21.28.18.38.07.39.04.42-.04.45-.07.38-.18.35-.21.32-.28.24-.28.18-.35.1-.39.04m0-4.13l-.39.03-.36.14-.28.18-.28.24-.21.28-.18.39-.07.38-.04.43.04.45.07.39.18.35.21.31.28.25.28.17.36.11.39.03.39-.03.35-.11.28-.17.29-.25.21-.31.18-.35.07-.39.03-.45-.03-.43-.07-.38-.18-.39-.21-.28-.29-.24-.28-.18-.35-.14-.39-.03m31.15 4.06v-3.96h.99v.35l.22-.21.21-.14.21-.07.25-.03.21.03.21.04.18.07.14.1-.24.95-.15-.07-.17-.07-.18-.04-.18-.03-.14.03-.14.04-.14.07-.11.1-.07.11-.03.17-.04.18-.04.24v2.14h-.99m.99-3.61l.22-.21.21-.14.21-.07.25-.03.21.03.21.04.18.07.14.1-.24.95-.15-.07-.17-.07-.18-.04-.18-.03-.14.03-.14.04-.14.07-.11.1-.07.11-.03.17-.04.18-.04.24v2.14h-.99v-3.96h.99v.35m.89-.46l-.25.03-.21.07-.22.15-.2.2v-.34-.01h-1v3.98h1v-2.15l.04-.24.03-.18.04-.17.07-.1.1-.11.14-.07.14-.03.14-.04.18.04.18.03.17.07.14.07.01.01.25-.96-.14-.11-.18-.07-.22-.04-.21-.03m-.89.48l.22-.22.21-.14.21-.07.25-.04.21.04.21.03.18.07.13.1-.24.94-.13-.07-.18-.07-.18-.03-.17-.04h-.01l-.14.04-.14.03-.14.07h-.01l-.1.11-.07.1v.01l-.04.17-.04.18-.03.24v2.14h-.98v-3.95h.98V65.79m.89-.47l-.25.03-.21.07-.21.14-.22.21v-.35h-.99v3.96h.99v-2.14l.04-.24.04-.18.03-.17.07-.11.11-.1.14-.07.14-.04.14-.03.18.03.18.04.17.07.15.07.24-.95-.14-.1-.18-.07-.21-.04-.21-.03m-8.28 4.06l-.47-1.64-.21-.88-.21.91-.46 1.61h-.85v-.03l-1.13-3.93h1.02l.36 1.47.21.99.11-.53.14-.49.42-1.44h.82l.42 1.44.25 1.02.21-1.02.36-1.44h.99l-1.14 3.96h-.84m.42-1.5l.21-1.02.36-1.44h.99l-1.14 3.96h-.84l-.47-1.64-.21-.88-.21.91-.46 1.61h-.85v-.03l-1.13-3.93h1.02l.36 1.47.21.99.11-.53.14-.49.42-1.44h.82l.42 1.44.25 1.02m1.57-2.47h-1.01L33 66.86l-.21.99-.24-.99-.43-1.45h-.82l-.43 1.45-.14.49-.1.49-.2-.95-.36-1.48h-1.04l1.13 3.94v.04h.86l.47-1.62.2-.88.21.85.46 1.65h.86l1.14-3.98m-1.35 1.45l.35-1.43h.98l-1.13 3.95h-.84l-.46-1.65-.22-.9-.22.94-.46 1.61h-.83v-.03l-1.13-3.92h1.01l.35 1.46.22 1.02.11-.56.14-.49.43-1.43h.8l.43 1.43.25 1.05.22-1.05m1.34-1.44h-.99L33 66.86l-.21 1.02-.25-1.02-.42-1.44h-.82l-.42 1.44-.14.49-.11.53-.21-.99-.36-1.47h-1.02l1.13 3.93v.03h.85l.46-1.61.21-.91.21.88.47 1.64h.84l1.14-3.96m1.66.91l-.14.11-.11.1-.1.18-.07.21-.04.21v.49l.04.25.07.17.1.18.11.14.14.1.18.04.18.03.17-.03.14-.04.15-.1.1-.14.11-.18.07-.17.03-.25v-.24-.25l-.03-.21-.07-.21-.11-.18-.1-.1-.15-.11-.14-.07h-.17-.18l-.18.07m-.03 3.09l-.36-.11-.32-.17-.24-.25-.22-.31-.17-.35-.11-.39-.04-.45.04-.43.11-.38.17-.35.22-.32.24-.24.32-.18.36-.14.39-.03.35.03.35.14.32.18.25.24.25.32.14.35.11.38.03.43-.03.45-.11.39-.14.35-.25.31-.25.25-.32.17-.35.11-.35.03-.39-.03m.39-.89l-.18-.03-.18-.03-.13-.11-.11-.14-.11-.17-.07-.18-.03-.24v-.25-.24l.03-.21.07-.21.11-.17.11-.11.13-.1.18-.07h.35l.14.07.14.1.11.11.1.17.07.21.04.21v.49l-.04.24-.07.18-.1.17-.11.14-.14.11-.14.03-.17.03m.17-2.27h-.17-.18l-.18.07-.14.11-.11.1-.1.18-.07.21-.04.21v.49l.04.25.07.17.1.18.11.14.14.1.18.04.18.03.17-.03.14-.04.15-.1.1-.14.11-.18.07-.17.03-.25v-.24-.25l-.03-.21-.07-.21-.11-.18-.1-.1-.15-.11-.14-.07m-.17-.94l.35.03.35.14.32.18.25.24.25.32.14.35.11.38.03.43-.03.45-.11.39-.14.35-.25.31-.25.25-.32.17-.35.11-.35.03-.39-.03-.36-.11-.32-.17-.24-.25-.22-.31-.17-.35-.11-.39-.04-.45.04-.43.11-.38.17-.35.22-.32.24-.24.32-.18.36-.14.39-.03m0-.01l-.4.03-.35.14-.32.18-.25.25-.21.31-.18.36-.11.38-.03.42.03.46.11.39.18.35.21.32.25.24.32.18.36.11.39.03.35-.03.36-.11.32-.18.25-.24.24-.32.15-.35.1-.39.04-.46-.04-.42-.1-.38-.15-.36-.24-.31-.25-.25-.32-.18-.36-.14-.35-.03m0 3.23l-.18-.03-.18-.04-.14-.1-.11-.14-.1-.18-.07-.17-.04-.25v-.24-.25l.04-.21.07-.21.1-.18.11-.1.14-.11.18-.07h.35l.14.07.15.11.1.1.11.18.07.21.03.21v.49l-.03.25-.07.17-.11.18-.1.14-.15.1-.14.04-.17.03m.18-2.28h-.18-.18l-.18.07-.14.1-.11.11-.11.17v.01l-.07.21-.03.21v.49l.03.25.07.17.11.18.11.14.14.11.18.03.18.04.17-.04h.01l.14-.03.14-.11.11-.14.11-.18.07-.17.03-.25v-.25-.24l-.03-.21-.07-.21-.11-.18-.11-.11-.14-.1-.14-.07m-.18 3.19l-.39-.04-.35-.1-.32-.18-.25-.24-.21-.32-.18-.35-.1-.38-.04-.46.04-.42.1-.38.18-.35.21-.31.25-.25.32-.17.35-.14.39-.04.35.04.35.14.32.17.25.25.24.31.14.35.11.38.04.42-.04.46-.11.38-.14.35-.24.32-.25.24-.32.18-.35.1-.35.04m0-4.13l-.39.03-.36.14-.32.18-.24.24-.22.32-.17.35-.11.38-.04.43.04.45.11.39.17.35.22.31.24.25.32.17.36.11.39.03.35-.03.35-.11.32-.17.25-.25.25-.31.14-.35.11-.39.03-.45-.03-.43-.11-.38-.14-.35-.25-.32-.25-.24-.32-.18-.35-.14-.35-.03m-20.89 4.06l-.85-1.85-.5.66v1.19h-.99v-5.12l.99-.49v3.16l.36-.49.77-1.02h1.17l-1.06 1.3 1.2 2.66h-1.09m-2.34 0v-5.12l.99-.49v3.16l.36-.49.77-1.02h1.17l-1.06 1.3 1.2 2.66h-1.09l-.85-1.85-.5.66v1.19h-.99m1-5.62l-1.01.5v5.13h1.01v-1.2l.49-.65.84 1.85h1.11l-1.2-2.67 1.07-1.31h-.02v0h-1.17l-.78 1.02-.34.48v-3.15m-.99 5.62v-5.11l.98-.49v3.17l.36-.51.78-1.01h1.15l-1.06 1.29 1.2 2.66h-1.08l-.85-1.87-.5.68v1.19h-.98m.98-5.61l-.99.49v5.12h.99v-1.19l.5-.66.85 1.85h1.09l-1.2-2.66 1.06-1.3h-1.17l-.77 1.02-.36.49v-3.16m3.05 1.65h.99v3.96h-.99v-3.96m0 3.96v-3.96h.99v3.96h-.99m1-3.97h-1.01v3.98h1.01v-3.98m-1 3.97v-3.95h.98v3.95h-.98m.99-3.96h-.99v3.96h.99v-3.96m-.99-1.54h.99v.98h-.99v-.98m0 .98v-.98h.99v.98h-.99m.98-.98h0m.02-.01h-.01-1v1h1.01v-1m-1 .98v-.97h.98v.97h-.98m.99-.97h-.99v.98h.99v-.98m23.72 5.5v-5.12l.99-.49v5.61h-.99m0 0v-5.12l.99-.49v5.61h-.99m1-5.62l-1.01.5v5.13h1.01v-5.63m-1 5.62h0m.01 0v-5.11l.97-.49v5.6h-.97m.98-5.61l-.99.49v5.12h.99v-5.61M.36 22.55L62.67.01v11.64L.36 22.55m0 0L62.67.01v11.64L.36 22.55M62.68 0L.32 22.56v.01l62.36-10.91V0M.4 22.54L62.67.02v11.63L.4 22.54M62.67.01L.36 22.55l62.31-10.9V.01M.71 51.57V29.26H13.5l2.97 5.12H7.44v3.68h8.18v4.7H7.44v3.69h11.3v5.12H.71m0 0V29.26H13.5l2.97 5.12H7.44v3.68h8.18v4.7H7.44v3.69h11.3v5.12H.71M13.5 29.25H.71v22.32h18.03v-5.13H7.45v-3.67h8.18v-4.71H7.45v-3.67h9.03l-2.98-5.14M.72 51.56V29.27h12.77l2.97 5.11H7.43v3.69h8.18v4.69H7.43h0v3.69h11.3v5.11H.72m12.78-22.3H.71v22.31h18.03v-5.12H7.44v-3.69h8.18v-4.7H7.44v-3.68h9.03l-2.97-5.12m9.98 22.31v-8.81l-7.86-13.5h7.47l3.79 7.3 3.82-7.3h7.4l-7.89 13.5v8.81h-6.73m3.4-15.01l3.82-7.3h7.4l-7.89 13.5v8.81h-6.73v-8.81l-7.86-13.5h7.47l3.79 7.3m11.23-7.31H30.7v.01l-3.82 7.28-3.79-7.29h-7.48l7.86 13.51v8.81h6.74v-8.81l7.9-13.51m-7.41.02h7.39L30.2 42.76v8.8h-6.71v-8.8l-7.86-13.49h7.45l3.8 7.3 3.82-7.3m7.4-.01h-7.4l-3.82 7.3-3.79-7.3h-7.47l7.86 13.5v8.81h6.73v-8.81l7.89-13.5M20.75 65.34l-.25.07-.25.15-.2.16v-.3-.01h-1v3.98h1v-2.21h-.01.01l.04-.22.03-.21.04-.14.1-.13.11-.11.1-.07.18-.07H21l.14.07.1.07.11.11.07.1.07.18.03.2v2.43h1.01v-2.25l-.04-.42-.07-.35-.1-.32-.15-.28-.21-.18-.25-.14-.32-.11-.32-.03-.32.03m4.89 1.27h-.01.01m-.95 1.89l-.11-.07-.14-.1-.11-.18-.07-.2-.03-.29-.04-.35.04-.28.03-.27.07-.18.11-.14.11-.1.14-.07.13-.04h.11l.25.04.21.1.14.11.1.13v1.54l-.1.14-.18.14-.17.11h-.25-.11l-.13-.04m-.29-3.16l-.29.11-.28.18-.21.24-.18.28-.14.36-.07.38-.04.46.04.46.07.42.1.39.18.28.25.24.25.18.32.11.35.03H25l.22-.1.25-.11.16-.17V69.52l-.07.18-.07.14-.17.13-.22.14-.31.07-.43.04h-.03-.01l.36.78.46-.03.39-.11.36-.14.14-.1v-.01l.14-.13.11-.11.11-.14.14-.35.07-.42.04-.46v-3.59h-1.01v.27l-.16-.16-.22-.11-.25-.07-.25-.03-.35.03"/></svg>