<svg xmlns="http://www.w3.org/2000/svg" width="30" height="21" viewBox="0 0 30 21"><defs><style>.cls-1{fill:#f57f17;fill-rule:evenodd}</style></defs><path id="Forma_1_копия_2" data-name="Forma 1 копия 2" class="cls-1" d="M966.415 5463.36a6.681 6.681 0 1 1 6.556-6.68l.029.95a13.239 13.239 0 0 1-13.112 13.37v-3.82a9.223 9.223 0 0 0 6.622-2.79 9.68 9.68 0 0 0 .932-1.11 6.953 6.953 0 0 1-1.027.08zm-16.859 0a6.681 6.681 0 1 1 6.556-6.68l.029.95a13.239 13.239 0 0 1-13.112 13.37v-3.82a9.223 9.223 0 0 0 6.623-2.79 9.774 9.774 0 0 0 .931-1.11 6.932 6.932 0 0 1-1.027.08z" transform="translate(-943 -5450)"/></svg>