<svg xmlns="http://www.w3.org/2000/svg" width="24" height="29" viewBox="0 0 24 29"><defs><style>.cls-1{fill-rule:evenodd}</style></defs><path id="tech_1" class="cls-1" d="M773.046 4803.41a6.523 6.523 0 0 1 3.181-5.52 6.911 6.911 0 0 0-5.389-2.88c-2.295-.23-4.479 1.33-5.643 1.33s-2.96-1.29-4.864-1.26a7.228 7.228 0 0 0-6.1 3.64c-2.6 4.43-.666 11.01 1.868 14.61 1.238 1.76 2.714 3.74 4.652 3.67 1.866-.08 2.572-1.19 4.828-1.19s2.891 1.19 4.866 1.15c2.009-.04 3.281-1.79 4.51-3.56a16 16 0 0 0 2.042-4.13 6.418 6.418 0 0 1-3.951-5.86zm-3.712-10.78a6.325 6.325 0 0 0 1.534-4.63 6.63 6.63 0 0 0-4.341 2.2 6 6 0 0 0-1.565 4.48 5.474 5.474 0 0 0 4.372-2.05z" transform="translate(-753 -4788)"/></svg>