<?xml version="1.0" encoding="UTF-8"?>
<svg width="44px" height="44px" viewBox="0 0 44 44" version="1.1" xmlns="http://www.w3.org/2000/svg" xmlns:xlink="http://www.w3.org/1999/xlink">
    <!-- Generator: sketchtool 46.2 (44496) - http://www.bohemiancoding.com/sketch -->
    <title>DA93D8CD-0D4C-42DB-9A61-DED90B761067</title>
    <desc>Created with sketchtool.</desc>
    <defs></defs>
    <g id="Page-1" stroke="none" stroke-width="1" fill="none" fill-rule="evenodd">
        <g id="IS_Blockchain-LP-icons" transform="translate(-541.000000, -341.000000)" fill="#FFFFFF">
            <g id="Crypto-Assets-Management" transform="translate(538.000000, 338.000000)">
                <polygon id="Fill-29" opacity="0" points="0 50 50 50 50 0 0 0"></polygon>
                <g id="Group-51" transform="translate(3.000000, 3.000000)">
                    <path d="M22,1.7 C16.596,1.7 12.2,6.096 12.2,11.5 C12.2,16.904 16.596,21.3 22,21.3 C27.404,21.3 31.8,16.904 31.8,11.5 C31.8,6.096 27.404,1.7 22,1.7 M22,22.7 C15.8246,22.7 10.8,17.6754 10.8,11.5 C10.8,5.3246 15.8246,0.3 22,0.3 C28.1754,0.3 33.2,5.3246 33.2,11.5 C33.2,17.6754 28.1754,22.7 22,22.7" id="Fill-32"></path>
                    <path d="M20.6,10.8 L22.7,10.8 C23.4168,10.8 23.9999,10.2169 23.9999,9.5001 C23.9999,8.7833 23.4168,8.2002 22.7,8.2002 L20.6,8.2002 L20.6,10.8 Z M22.7,12.2 L19.9,12.2 C19.5129,12.2 19.2,11.8871 19.2,11.5 L19.2,7.5002 C19.2,7.1131 19.5129,6.8002 19.9,6.8002 L22.7,6.8002 C24.1889,6.8002 25.3999,8.0119 25.3999,9.5001 C25.3999,10.989 24.1889,12.2 22.7,12.2 L22.7,12.2 Z" id="Fill-33"></path>
                    <path d="M20.6,14.79973 L23.5001,14.79973 C24.2169,14.79973 24.8,14.21663 24.8,13.50053 C24.8,12.78303 24.2169,12.19993 23.5001,12.19993 L20.6,12.19993 L20.6,14.79973 Z M23.5001,16.19973 L19.9,16.19973 C19.5129,16.19973 19.2,15.88683 19.2,15.49973 L19.2,11.49993 C19.2,11.11283 19.5129,10.79993 19.9,10.79993 L23.5001,10.79993 C24.989,10.79993 26.2,12.01163 26.2,13.50053 C26.2,14.98873 24.989,16.19973 23.5001,16.19973 L23.5001,16.19973 Z" id="Fill-34"></path>
                    <path d="M19.9,8.20027 L18.5,8.20027 C18.1129,8.20027 17.8,7.88737 17.8,7.50027 C17.8,7.11317 18.1129,6.80027 18.5,6.80027 L19.9,6.80027 C20.2871,6.80027 20.6,7.11317 20.6,7.50027 C20.6,7.88737 20.2871,8.20027 19.9,8.20027" id="Fill-35"></path>
                    <path d="M19.9,16.19973 L18.5,16.19973 C18.1129,16.19973 17.8,15.88683 17.8,15.49973 C17.8,15.11263 18.1129,14.79973 18.5,14.79973 L19.9,14.79973 C20.2871,14.79973 20.6,15.11263 20.6,15.49973 C20.6,15.88683 20.2871,16.19973 19.9,16.19973" id="Fill-36"></path>
                    <path d="M20.69982,8.20027 C20.31272,8.20027 19.99982,7.88737 19.99982,7.50027 L19.99982,5.90007 C19.99982,5.51297 20.31272,5.20007 20.69982,5.20007 C21.08692,5.20007 21.39982,5.51297 21.39982,5.90007 L21.39982,7.50027 C21.39982,7.88737 21.08692,8.20027 20.69982,8.20027" id="Fill-37"></path>
                    <path d="M22.7,8.20027 C22.3129,8.20027 22,7.88737 22,7.50027 L22,5.90007 C22,5.51297 22.3129,5.20007 22.7,5.20007 C23.0871,5.20007 23.4,5.51297 23.4,5.90007 L23.4,7.50027 C23.4,7.88737 23.0871,8.20027 22.7,8.20027" id="Fill-38"></path>
                    <path d="M20.69982,17.8 C20.31272,17.8 19.99982,17.4871 19.99982,17.1 L19.99982,15.4998 C19.99982,15.1127 20.31272,14.7998 20.69982,14.7998 C21.08692,14.7998 21.39982,15.1127 21.39982,15.4998 L21.39982,17.1 C21.39982,17.4871 21.08692,17.8 20.69982,17.8" id="Fill-39"></path>
                    <path d="M22.7,17.8 C22.3129,17.8 22,17.4871 22,17.1 L22,15.4998 C22,15.1127 22.3129,14.7998 22.7,14.7998 C23.0871,14.7998 23.4,15.1127 23.4,15.4998 L23.4,17.1 C23.4,17.4871 23.0871,17.8 22.7,17.8" id="Fill-40"></path>
                    <path d="M22,33.9 C19.6837,33.9 17.8,35.7837 17.8,38.1 C17.8,40.4163 19.6837,42.3 22,42.3 C24.3163,42.3 26.2,40.4163 26.2,38.1 C26.2,35.7837 24.3163,33.9 22,33.9 M22,43.7 C18.9123,43.7 16.4,41.1877 16.4,38.1 C16.4,35.0123 18.9123,32.5 22,32.5 C25.0877,32.5 27.6,35.0123 27.6,38.1 C27.6,41.1877 25.0877,43.7 22,43.7" id="Fill-41"></path>
                    <path d="M38.1,33.9 C35.7837,33.9 33.9,35.7837 33.9,38.1 C33.9,40.4163 35.7837,42.3 38.1,42.3 C40.4163,42.3 42.3,40.4163 42.3,38.1 C42.3,35.7837 40.4163,33.9 38.1,33.9 M38.1,43.7 C35.0123,43.7 32.5,41.1877 32.5,38.1 C32.5,35.0123 35.0123,32.5 38.1,32.5 C41.1877,32.5 43.7,35.0123 43.7,38.1 C43.7,41.1877 41.1877,43.7 38.1,43.7" id="Fill-42"></path>
                    <path d="M5.9,33.9 C3.5837,33.9 1.7,35.7837 1.7,38.1 C1.7,40.4163 3.5837,42.3 5.9,42.3 C8.2163,42.3 10.1,40.4163 10.1,38.1 C10.1,35.7837 8.2163,33.9 5.9,33.9 M5.9,43.7 C2.8123,43.7 0.3,41.1877 0.3,38.1 C0.3,35.0123 2.8123,32.5 5.9,32.5 C8.9877,32.5 11.5,35.0123 11.5,38.1 C11.5,41.1877 8.9877,43.7 5.9,43.7" id="Fill-43"></path>
                    <path d="M19.9,38.1 C19.9,36.9401 20.8401,36 22,36 C23.1599,36 24.1,36.9401 24.1,38.1 C24.1,39.2599 23.1599,40.2 22,40.2 C20.8401,40.2 19.9,39.2599 19.9,38.1" id="Fill-44"></path>
                    <path d="M36,38.1 C36,36.9401 36.9401,36 38.1,36 C39.2599,36 40.2,36.9401 40.2,38.1 C40.2,39.2599 39.2599,40.2 38.1,40.2 C36.9401,40.2 36,39.2599 36,38.1" id="Fill-45"></path>
                    <path d="M3.8,38.1 C3.8,36.9401 4.7401,36 5.9,36 C7.0599,36 8,36.9401 8,38.1 C8,39.2599 7.0599,40.2 5.9,40.2 C4.7401,40.2 3.8,39.2599 3.8,38.1" id="Fill-46"></path>
                    <path d="M38.1,27.6 L5.9,27.6 C5.5129,27.6 5.2,27.2871 5.2,26.9 C5.2,26.5129 5.5129,26.2 5.9,26.2 L38.1,26.2 C38.4871,26.2 38.8,26.5129 38.8,26.9 C38.8,27.2871 38.4871,27.6 38.1,27.6" id="Fill-47"></path>
                    <path d="M5.9,33.9 C5.5129,33.9 5.2,33.5871 5.2,33.2 L5.2,26.9 C5.2,26.5129 5.5129,26.2 5.9,26.2 C6.2871,26.2 6.6,26.5129 6.6,26.9 L6.6,33.2 C6.6,33.5871 6.2871,33.9 5.9,33.9" id="Fill-48"></path>
                    <path d="M38.1,33.9 C37.7129,33.9 37.4,33.5871 37.4,33.2 L37.4,26.9 C37.4,26.5129 37.7129,26.2 38.1,26.2 C38.4871,26.2 38.8,26.5129 38.8,26.9 L38.8,33.2 C38.8,33.5871 38.4871,33.9 38.1,33.9" id="Fill-49"></path>
                    <path d="M22,33.9 C21.6129,33.9 21.3,33.5871 21.3,33.2 L21.3,22 C21.3,21.6129 21.6129,21.3 22,21.3 C22.3871,21.3 22.7,21.6129 22.7,22 L22.7,33.2 C22.7,33.5871 22.3871,33.9 22,33.9" id="Fill-50"></path>
                </g>
            </g>
        </g>
    </g>
</svg>