<svg xmlns="http://www.w3.org/2000/svg" width="44" height="44" viewBox="0 0 44 44">
  <g fill="none" fill-rule="evenodd" transform="translate(-3 -3)">
    <polygon fill="#FFF" points="0 50 50 50 50 0 0 0" opacity="0"/>
    <g fill="#F57F17" transform="translate(3 3)">
      <path d="M22,1.7 C16.596,1.7 12.2,6.096 12.2,11.5 C12.2,16.904 16.596,21.3 22,21.3 C27.404,21.3 31.8,16.904 31.8,11.5 C31.8,6.096 27.404,1.7 22,1.7 M22,22.7 C15.8246,22.7 10.8,17.6754 10.8,11.5 C10.8,5.3246 15.8246,0.3 22,0.3 C28.1754,0.3 33.2,5.3246 33.2,11.5 C33.2,17.6754 28.1754,22.7 22,22.7"/>
      <path d="M20.6,10.8 L22.7,10.8 C23.4168,10.8 23.9999,10.2169 23.9999,9.5001 C23.9999,8.7833 23.4168,8.2002 22.7,8.2002 L20.6,8.2002 L20.6,10.8 Z M22.7,12.2 L19.9,12.2 C19.5129,12.2 19.2,11.8871 19.2,11.5 L19.2,7.5002 C19.2,7.1131 19.5129,6.8002 19.9,6.8002 L22.7,6.8002 C24.1889,6.8002 25.3999,8.0119 25.3999,9.5001 C25.3999,10.989 24.1889,12.2 22.7,12.2 L22.7,12.2 Z"/>
      <path d="M20.6 14.79973L23.5001 14.79973C24.2169 14.79973 24.8 14.21663 24.8 13.50053 24.8 12.78303 24.2169 12.19993 23.5001 12.19993L20.6 12.19993 20.6 14.79973zM23.5001 16.19973L19.9 16.19973C19.5129 16.19973 19.2 15.88683 19.2 15.49973L19.2 11.49993C19.2 11.11283 19.5129 10.79993 19.9 10.79993L23.5001 10.79993C24.989 10.79993 26.2 12.01163 26.2 13.50053 26.2 14.98873 24.989 16.19973 23.5001 16.19973L23.5001 16.19973zM19.9 8.20027L18.5 8.20027C18.1129 8.20027 17.8 7.88737 17.8 7.50027 17.8 7.11317 18.1129 6.80027 18.5 6.80027L19.9 6.80027C20.2871 6.80027 20.6 7.11317 20.6 7.50027 20.6 7.88737 20.2871 8.20027 19.9 8.20027"/>
      <path d="M19.9 16.19973L18.5 16.19973C18.1129 16.19973 17.8 15.88683 17.8 15.49973 17.8 15.11263 18.1129 14.79973 18.5 14.79973L19.9 14.79973C20.2871 14.79973 20.6 15.11263 20.6 15.49973 20.6 15.88683 20.2871 16.19973 19.9 16.19973M20.69982 8.20027C20.31272 8.20027 19.99982 7.88737 19.99982 7.50027L19.99982 5.90007C19.99982 5.51297 20.31272 5.20007 20.69982 5.20007 21.08692 5.20007 21.39982 5.51297 21.39982 5.90007L21.39982 7.50027C21.39982 7.88737 21.08692 8.20027 20.69982 8.20027M22.7 8.20027C22.3129 8.20027 22 7.88737 22 7.50027L22 5.90007C22 5.51297 22.3129 5.20007 22.7 5.20007 23.0871 5.20007 23.4 5.51297 23.4 5.90007L23.4 7.50027C23.4 7.88737 23.0871 8.20027 22.7 8.20027"/>
      <path d="M20.69982 17.8C20.31272 17.8 19.99982 17.4871 19.99982 17.1L19.99982 15.4998C19.99982 15.1127 20.31272 14.7998 20.69982 14.7998 21.08692 14.7998 21.39982 15.1127 21.39982 15.4998L21.39982 17.1C21.39982 17.4871 21.08692 17.8 20.69982 17.8M22.7 17.8C22.3129 17.8 22 17.4871 22 17.1L22 15.4998C22 15.1127 22.3129 14.7998 22.7 14.7998 23.0871 14.7998 23.4 15.1127 23.4 15.4998L23.4 17.1C23.4 17.4871 23.0871 17.8 22.7 17.8M22 33.9C19.6837 33.9 17.8 35.7837 17.8 38.1 17.8 40.4163 19.6837 42.3 22 42.3 24.3163 42.3 26.2 40.4163 26.2 38.1 26.2 35.7837 24.3163 33.9 22 33.9M22 43.7C18.9123 43.7 16.4 41.1877 16.4 38.1 16.4 35.0123 18.9123 32.5 22 32.5 25.0877 32.5 27.6 35.0123 27.6 38.1 27.6 41.1877 25.0877 43.7 22 43.7M38.1 33.9C35.7837 33.9 33.9 35.7837 33.9 38.1 33.9 40.4163 35.7837 42.3 38.1 42.3 40.4163 42.3 42.3 40.4163 42.3 38.1 42.3 35.7837 40.4163 33.9 38.1 33.9M38.1 43.7C35.0123 43.7 32.5 41.1877 32.5 38.1 32.5 35.0123 35.0123 32.5 38.1 32.5 41.1877 32.5 43.7 35.0123 43.7 38.1 43.7 41.1877 41.1877 43.7 38.1 43.7M5.9 33.9C3.5837 33.9 1.7 35.7837 1.7 38.1 1.7 40.4163 3.5837 42.3 5.9 42.3 8.2163 42.3 10.1 40.4163 10.1 38.1 10.1 35.7837 8.2163 33.9 5.9 33.9M5.9 43.7C2.8123 43.7.3 41.1877.3 38.1.3 35.0123 2.8123 32.5 5.9 32.5 8.9877 32.5 11.5 35.0123 11.5 38.1 11.5 41.1877 8.9877 43.7 5.9 43.7"/>
      <path d="M19.9 38.1C19.9 36.9401 20.8401 36 22 36 23.1599 36 24.1 36.9401 24.1 38.1 24.1 39.2599 23.1599 40.2 22 40.2 20.8401 40.2 19.9 39.2599 19.9 38.1M36 38.1C36 36.9401 36.9401 36 38.1 36 39.2599 36 40.2 36.9401 40.2 38.1 40.2 39.2599 39.2599 40.2 38.1 40.2 36.9401 40.2 36 39.2599 36 38.1M3.8 38.1C3.8 36.9401 4.7401 36 5.9 36 7.0599 36 8 36.9401 8 38.1 8 39.2599 7.0599 40.2 5.9 40.2 4.7401 40.2 3.8 39.2599 3.8 38.1M38.1 27.6L5.9 27.6C5.5129 27.6 5.2 27.2871 5.2 26.9 5.2 26.5129 5.5129 26.2 5.9 26.2L38.1 26.2C38.4871 26.2 38.8 26.5129 38.8 26.9 38.8 27.2871 38.4871 27.6 38.1 27.6"/>
      <path d="M5.9 33.9C5.5129 33.9 5.2 33.5871 5.2 33.2L5.2 26.9C5.2 26.5129 5.5129 26.2 5.9 26.2 6.2871 26.2 6.6 26.5129 6.6 26.9L6.6 33.2C6.6 33.5871 6.2871 33.9 5.9 33.9M38.1 33.9C37.7129 33.9 37.4 33.5871 37.4 33.2L37.4 26.9C37.4 26.5129 37.7129 26.2 38.1 26.2 38.4871 26.2 38.8 26.5129 38.8 26.9L38.8 33.2C38.8 33.5871 38.4871 33.9 38.1 33.9M22 33.9C21.6129 33.9 21.3 33.5871 21.3 33.2L21.3 22C21.3 21.6129 21.6129 21.3 22 21.3 22.3871 21.3 22.7 21.6129 22.7 22L22.7 33.2C22.7 33.5871 22.3871 33.9 22 33.9"/>
    </g>
  </g>
</svg>
