<?xml version="1.0" encoding="UTF-8"?>
<svg width="45px" height="44px" viewBox="0 0 45 44" version="1.1" xmlns="http://www.w3.org/2000/svg" xmlns:xlink="http://www.w3.org/1999/xlink">
    <!-- Generator: sketchtool 46.2 (44496) - http://www.bohemiancoding.com/sketch -->
    <title>B4448019-0856-4F9F-934F-A8E7CE94C421</title>
    <desc>Created with sketchtool.</desc>
    <defs></defs>
    <g id="Page-1" stroke="none" stroke-width="1" fill="none" fill-rule="evenodd">
        <g id="IS_Blockchain-LP-icons" transform="translate(-117.000000, -339.000000)">
            <g id="Digital-Assets-Management" transform="translate(114.000000, 335.000000)">
                <polygon id="Fill-1" fill="#FFFFFF" opacity="0" points="0 50 50 50 50 0 0 0"></polygon>
                <g id="Group-58" transform="translate(3.000000, 4.000000)" fill="#1476F2">
                    <path d="M36.77072,12.40995 C36.54882,12.40995 36.33182,12.30495 36.19532,12.10965 C35.81102,11.55805 35.38752,11.02255 34.93882,10.51855 C34.68052,10.23015 34.70642,9.78705 34.99482,9.53015 C35.28322,9.27325 35.72562,9.29775 35.98322,9.58685 C36.46972,10.13215 36.92752,10.71175 37.34402,11.30955 C37.56522,11.62665 37.48682,12.06275 37.17042,12.28395 C37.04792,12.36865 36.90862,12.40995 36.77072,12.40995 L36.77072,12.40995 Z M38.74402,16.13465 C38.46262,16.13465 38.19732,15.96385 38.09022,15.68455 C37.85012,15.05735 37.56802,14.43715 37.25092,13.84005 C37.06962,13.49845 37.19982,13.07495 37.54142,12.89365 C37.88302,12.71235 38.30652,12.84185 38.48852,13.18415 C38.83152,13.83095 39.13742,14.50365 39.39782,15.18405 C39.53572,15.54595 39.35512,15.95055 38.99462,16.08845 C38.91202,16.11995 38.82732,16.13465 38.74402,16.13465 L38.74402,16.13465 Z M16.21172,38.77475 C16.12912,38.77475 16.04512,38.76005 15.96392,38.72925 C15.28072,38.47095 14.60592,38.16715 13.95842,37.82835 C13.61612,37.64845 13.48452,37.22495 13.66372,36.88265 C13.84292,36.54035 14.26642,36.40875 14.60872,36.58795 C15.20652,36.90155 15.82882,37.18085 16.45882,37.41955 C16.82072,37.55605 17.00272,37.95995 16.86622,38.32185 C16.76052,38.60185 16.49382,38.77475 16.21172,38.77475 L16.21172,38.77475 Z M26.60112,39.39215 C26.28682,39.39215 26.00122,39.17935 25.92282,38.86015 C25.82972,38.48495 26.05932,38.10555 26.43452,38.01315 C27.08902,37.85145 27.73932,37.64845 28.36932,37.40905 C28.73122,37.27185 29.13582,37.45315 29.27232,37.81435 C29.40952,38.17555 29.22822,38.58015 28.86702,38.71735 C28.18452,38.97705 27.47892,39.19755 26.76982,39.37185 C26.71382,39.38585 26.65712,39.39215 26.60112,39.39215 L26.60112,39.39215 Z M20.30952,39.77645 C20.28222,39.77645 20.25422,39.77435 20.22552,39.77155 C19.49962,39.68475 18.77232,39.55315 18.06462,39.38025 C17.68872,39.28855 17.45842,38.90915 17.55082,38.53395 C17.64252,38.15805 18.02052,37.92705 18.39642,38.02015 C19.04952,38.17975 19.72082,38.30155 20.39142,38.38135 C20.77502,38.42685 21.04942,38.77545 21.00392,39.15905 C20.96122,39.51465 20.65882,39.77645 20.30952,39.77645 L20.30952,39.77645 Z M22.41652,39.90035 C22.03012,39.90035 21.71652,39.58675 21.71652,39.20035 C21.71582,38.81395 22.02942,38.50035 22.41582,38.50035 C23.09202,38.49965 23.77242,38.45835 24.44022,38.37785 C24.82662,38.33445 25.17312,38.60465 25.22002,38.98825 C25.26622,39.37255 24.99322,39.72115 24.60892,39.76735 C23.88582,39.85485 23.14802,39.89965 22.41652,39.90035 Z" id="Fill-2"></path>
                    <path d="M18,21.35 L1.48582,21.35 C0.66682,21.35 -0.00028,20.6836 -0.00028,19.8639 L-0.00028,1.8361 C-0.00028,1.0164 0.66682,0.35 1.48582,0.35 L31.41432,0.35 C32.23332,0.35 32.89972,1.0164 32.89972,1.8361 L32.89972,17 L31.49972,17 L31.49972,1.8361 C31.49972,1.7885 31.46192,1.75 31.41432,1.75 L1.48582,1.75 C1.43892,1.75 1.39972,1.7885 1.39972,1.8361 L1.39972,19.8639 C1.39972,19.9115 1.43892,19.95 1.48582,19.95 L18,19.95 L18,21.35 Z" id="Combined-Shape"></path>
                    <path d="M18,25.55 L10.15014,25.55 C9.92544,25.55 9.71404,25.4422 9.58244,25.2588 C9.45084,25.0768 9.41444,24.8423 9.48584,24.6288 L10.88584,20.4288 C10.98104,20.1425 11.24844,19.95 11.55014,19.95 L18,19.95 L18,21.35 L12.05414,21.35 L11.12104,24.15 L18,24.15 L18,25.55 Z" id="Combined-Shape"></path>
                    <path d="M18,25.55 L7.7,25.55 C7.3136,25.55 7,25.2364 7,24.85 C7,24.4636 7.3136,24.15 7.7,24.15 L18,24.15 L18,25.55 Z" id="Combined-Shape"></path>
                    <path d="M18.99093,18.55 C18.94053,18.55 18.89993,18.5906 18.89993,18.641 L18.89993,31.759 C18.89993,31.8094 18.94053,31.85 18.99093,31.85 L41.20893,31.85 C41.25933,31.85 41.29993,31.8094 41.29993,31.759 L41.29993,18.641 C41.29993,18.5906 41.25933,18.55 41.20893,18.55 L18.99093,18.55 Z M41.20893,33.25 L18.99093,33.25 C18.16913,33.25 17.49993,32.5808 17.49993,31.759 L17.49993,18.641 C17.49993,17.8192 18.16913,17.15 18.99093,17.15 L41.20893,17.15 C42.03143,17.15 42.69993,17.8192 42.69993,18.641 L42.69993,31.759 C42.69993,32.5808 42.03143,33.25 41.20893,33.25 L41.20893,33.25 Z" id="Fill-14"></path>
                    <path d="M16.9743,33.25 C17.1997,33.6679 17.6197,33.95 18.0999,33.95 L42.1001,33.95 C42.5803,33.95 43.0003,33.6679 43.2257,33.25 L16.9743,33.25 Z M42.1001,35.35 L18.0999,35.35 C16.611,35.35 15.4,34.0942 15.4,32.55 C15.4,32.1636 15.7136,31.85 16.1,31.85 L44.1,31.85 C44.4871,31.85 44.8,32.1636 44.8,32.55 C44.8,34.0942 43.589,35.35 42.1001,35.35 L42.1001,35.35 Z" id="Fill-16"></path>
                    <path d="M18.2,18.55 L0.7,18.55 C0.3136,18.55 0,18.2364 0,17.85 C0,17.4636 0.3136,17.15 0.7,17.15 L18.2,17.15 C18.5864,17.15 18.9,17.4636 18.9,17.85 C18.9,18.2364 18.5864,18.55 18.2,18.55" id="Fill-18"></path>
                    <path d="M4.98169,29.05 C4.93689,29.05 4.89979,29.0864 4.89979,29.1319 L4.89979,41.5681 C4.89979,41.6136 4.93689,41.65 4.98169,41.65 L11.81859,41.65 C11.86339,41.65 11.89979,41.6136 11.89979,41.5681 L11.89979,29.1319 C11.89979,29.0864 11.86339,29.05 11.81859,29.05 L4.98169,29.05 Z M11.81859,43.05 L4.98169,43.05 C4.16479,43.05 3.49979,42.385 3.49979,41.5681 L3.49979,29.1319 C3.49979,28.315 4.16479,27.65 4.98169,27.65 L11.81859,27.65 C12.63549,27.65 13.29979,28.315 13.29979,29.1319 L13.29979,41.5681 C13.29979,42.385 12.63549,43.05 11.81859,43.05 L11.81859,43.05 Z" id="Fill-22"></path>
                    <path d="M10.5,40.25 L6.3,40.25 C5.9136,40.25 5.6,39.9364 5.6,39.55 C5.6,39.1636 5.9136,38.85 6.3,38.85 L10.5,38.85 C10.8864,38.85 11.2,39.1636 11.2,39.55 C11.2,39.9364 10.8864,40.25 10.5,40.25" id="Fill-24"></path>
                    <path d="M15.575,8.75 L16.975,8.75 C17.416,8.75 17.7751,8.3909 17.7751,7.9499 C17.7751,7.5089 17.416,7.1498 16.975,7.1498 L15.575,7.1498 L15.575,8.75 Z M16.975,10.15 L14.875,10.15 C14.4886,10.15 14.175,9.8364 14.175,9.45 L14.175,6.4498 C14.175,6.0634 14.4886,5.7498 14.875,5.7498 L16.975,5.7498 C18.1881,5.7498 19.1751,6.7368 19.1751,7.9499 C19.1751,9.163 18.1881,10.15 16.975,10.15 L16.975,10.15 Z" id="Fill-26"></path>
                    <path d="M15.575,11.74992 L17.5749,11.74992 C18.0159,11.74992 18.375,11.39082 18.375,10.94982 C18.375,10.50882 18.0159,10.14972 17.5749,10.14972 L15.575,10.14972 L15.575,11.74992 Z M17.5749,13.14992 L14.875,13.14992 C14.4886,13.14992 14.175,12.83632 14.175,12.44992 L14.175,9.44972 C14.175,9.06332 14.4886,8.74972 14.875,8.74972 L17.5749,8.74972 C18.788,8.74972 19.775,9.73742 19.775,10.94982 C19.775,12.16292 18.788,13.14992 17.5749,13.14992 L17.5749,13.14992 Z" id="Fill-28"></path>
                    <path d="M14.875,7.15008 L13.825,7.15008 C13.4386,7.15008 13.125,6.83648 13.125,6.45008 C13.125,6.06368 13.4386,5.75008 13.825,5.75008 L14.875,5.75008 C15.2614,5.75008 15.575,6.06368 15.575,6.45008 C15.575,6.83648 15.2614,7.15008 14.875,7.15008" id="Fill-30"></path>
                    <path d="M14.875,13.14992 L13.825,13.14992 C13.4386,13.14992 13.125,12.83632 13.125,12.44992 C13.125,12.06352 13.4386,11.74992 13.825,11.74992 L14.875,11.74992 C15.2614,11.74992 15.575,12.06352 15.575,12.44992 C15.575,12.83632 15.2614,13.14992 14.875,13.14992" id="Fill-32"></path>
                    <path d="M15.47483,7.15008 C15.08843,7.15008 14.77483,6.83648 14.77483,6.45008 L14.77483,5.25028 C14.77483,4.86318 15.08843,4.55028 15.47483,4.55028 C15.86123,4.55028 16.17483,4.86318 16.17483,5.25028 L16.17483,6.45008 C16.17483,6.83648 15.86123,7.15008 15.47483,7.15008" id="Fill-34"></path>
                    <path d="M16.975,7.15008 C16.5886,7.15008 16.275,6.83648 16.275,6.45008 L16.275,5.25028 C16.275,4.86318 16.5886,4.55028 16.975,4.55028 C17.3614,4.55028 17.675,4.86318 17.675,5.25028 L17.675,6.45008 C17.675,6.83648 17.3614,7.15008 16.975,7.15008" id="Fill-36"></path>
                    <path d="M15.47483,14.35 C15.08843,14.35 14.77483,14.0364 14.77483,13.65 L14.77483,12.4502 C14.77483,12.0631 15.08843,11.7502 15.47483,11.7502 C15.86123,11.7502 16.17483,12.0631 16.17483,12.4502 L16.17483,13.65 C16.17483,14.0364 15.86123,14.35 15.47483,14.35" id="Fill-38"></path>
                    <path d="M16.975,14.35 C16.5886,14.35 16.275,14.0364 16.275,13.65 L16.275,12.4502 C16.275,12.0631 16.5886,11.7502 16.975,11.7502 C17.3614,11.7502 17.675,12.0631 17.675,12.4502 L17.675,13.65 C17.675,14.0364 17.3614,14.35 16.975,14.35" id="Fill-40"></path>
                    <path d="M29.4875,24.5 L30.5375,24.5 C30.8413,24.5 31.0877,24.2529 31.0877,23.9498 C31.0877,23.6467 30.8413,23.4003 30.5375,23.4003 L29.4875,23.4003 L29.4875,24.5 Z M30.5375,25.9 L28.7875,25.9 C28.4004,25.9 28.0875,25.5864 28.0875,25.2 L28.0875,22.7003 C28.0875,22.3132 28.4004,22.0003 28.7875,22.0003 L30.5375,22.0003 C31.6127,22.0003 32.4877,22.8746 32.4877,23.9498 C32.4877,25.025 31.6127,25.9 30.5375,25.9 L30.5375,25.9 Z" id="Fill-42"></path>
                    <path d="M29.4875,26.99991 L31.0373,26.99991 C31.3404,26.99991 31.5875,26.75281 31.5875,26.44971 C31.5875,26.14661 31.3404,25.90021 31.0373,25.90021 L29.4875,25.90021 L29.4875,26.99991 Z M31.0373,28.39991 L28.7875,28.39991 C28.4004,28.39991 28.0875,28.08631 28.0875,27.69991 L28.0875,25.20021 C28.0875,24.81311 28.4004,24.50021 28.7875,24.50021 L31.0373,24.50021 C32.1125,24.50021 32.9875,25.37451 32.9875,26.44971 C32.9875,27.52491 32.1125,28.39991 31.0373,28.39991 L31.0373,28.39991 Z" id="Fill-44"></path>
                    <path d="M28.7875,23.40009 L27.9125,23.40009 C27.5254,23.40009 27.2125,23.08649 27.2125,22.70009 C27.2125,22.31369 27.5254,22.00009 27.9125,22.00009 L28.7875,22.00009 C29.1746,22.00009 29.4875,22.31369 29.4875,22.70009 C29.4875,23.08649 29.1746,23.40009 28.7875,23.40009" id="Fill-46"></path>
                    <path d="M28.7875,28.39991 L27.9125,28.39991 C27.5254,28.39991 27.2125,28.08631 27.2125,27.69991 C27.2125,27.31351 27.5254,26.99991 27.9125,26.99991 L28.7875,26.99991 C29.1746,26.99991 29.4875,27.31351 29.4875,27.69991 C29.4875,28.08631 29.1746,28.39991 28.7875,28.39991" id="Fill-48"></path>
                    <path d="M29.28723,23.40009 C28.90013,23.40009 28.58723,23.08649 28.58723,22.70009 L28.58723,21.69979 C28.58723,21.31339 28.90013,20.99979 29.28723,20.99979 C29.67433,20.99979 29.98723,21.31339 29.98723,21.69979 L29.98723,22.70009 C29.98723,23.08649 29.67433,23.40009 29.28723,23.40009" id="Fill-50"></path>
                    <path d="M30.5375,23.40009 C30.1504,23.40009 29.8375,23.08649 29.8375,22.70009 L29.8375,21.69979 C29.8375,21.31339 30.1504,20.99979 30.5375,20.99979 C30.9246,20.99979 31.2375,21.31339 31.2375,21.69979 L31.2375,22.70009 C31.2375,23.08649 30.9246,23.40009 30.5375,23.40009" id="Fill-52"></path>
                    <path d="M29.28723,29.4 C28.90013,29.4 28.58723,29.0864 28.58723,28.7 L28.58723,27.6997 C28.58723,27.3133 28.90013,26.9997 29.28723,26.9997 C29.67433,26.9997 29.98723,27.3133 29.98723,27.6997 L29.98723,28.7 C29.98723,29.0864 29.67433,29.4 29.28723,29.4" id="Fill-54"></path>
                    <path d="M30.5375,29.4 C30.1504,29.4 29.8375,29.0864 29.8375,28.7 L29.8375,27.6997 C29.8375,27.3133 30.1504,26.9997 30.5375,26.9997 C30.9246,26.9997 31.2375,27.3133 31.2375,27.6997 L31.2375,28.7 C31.2375,29.0864 30.9246,29.4 30.5375,29.4" id="Fill-56"></path>
                </g>
            </g>
        </g>
    </g>
</svg>