<svg xmlns="http://www.w3.org/2000/svg" width="48" height="27" viewBox="0 0 48 27">
  <g fill="none" fill-rule="evenodd" transform="translate(-1 -12)">
    <polygon fill="#FFF" points="0 50 50 50 50 0 0 0" opacity="0"/>
    <g fill="#F57F17" transform="translate(1 12)">
      <path d="M1.8375,24.6869 L45.7625,24.6869 L45.7625,1.9138 L1.8375,1.9138 L1.8375,24.6869 Z M46.4625,26.0869 L1.1375,26.0869 C0.7504,26.0869 0.4375,25.7733 0.4375,25.3869 L0.4375,1.2131 C0.4375,0.8267 0.7504,0.5131 1.1375,0.5131 L46.4625,0.5131 C46.8496,0.5131 47.1625,0.8267 47.1625,1.2131 L47.1625,25.3869 C47.1625,25.7733 46.8496,26.0869 46.4625,26.0869 L46.4625,26.0869 Z"/>
      <path d="M23.8,4.93486 C19.187,4.93486 15.435,8.68756 15.435,13.29986 C15.435,17.91286 19.187,21.66486 23.8,21.66486 C28.413,21.66486 32.165,17.91286 32.165,13.29986 C32.165,8.68756 28.413,4.93486 23.8,4.93486 M23.8,23.06486 C18.4156,23.06486 14.035,18.68496 14.035,13.29986 C14.035,7.91546 18.4156,3.53486 23.8,3.53486 C29.1844,3.53486 33.565,7.91546 33.565,13.29986 C33.565,18.68496 29.1844,23.06486 23.8,23.06486"/>
      <path d="M22.68714,12.6 L24.40424,12.6 C24.97054,12.6 25.43114,12.1394 25.43114,11.5731 C25.43114,11.0075 24.97054,10.5469 24.40424,10.5469 L22.68714,10.5469 L22.68714,12.6 Z M24.40424,14 L21.98714,14 C21.60004,14 21.28714,13.6864 21.28714,13.3 L21.28714,9.8469 C21.28714,9.4605 21.60004,9.1469 21.98714,9.1469 L24.40424,9.1469 C25.74194,9.1469 26.83114,10.2354 26.83114,11.5731 C26.83114,12.9115 25.74194,14 24.40424,14 L24.40424,14 Z"/>
      <path d="M22.68714 16.05317L25.09444 16.05317C25.66074 16.05317 26.12134 15.59257 26.12134 15.02697 26.12134 14.46067 25.66074 14.00007 25.09444 14.00007L22.68714 14.00007 22.68714 16.05317zM25.09444 17.45317L21.98714 17.45317C21.60004 17.45317 21.28714 17.13957 21.28714 16.75317L21.28714 13.30007C21.28714 12.91367 21.60004 12.60007 21.98714 12.60007L25.09444 12.60007C26.43284 12.60007 27.52134 13.68857 27.52134 15.02697 27.52134 16.36467 26.43284 17.45317 25.09444 17.45317L25.09444 17.45317zM21.98714 10.54683L20.77824 10.54683C20.39184 10.54683 20.07824 10.23323 20.07824 9.84683 20.07824 9.46043 20.39184 9.14683 20.77824 9.14683L21.98714 9.14683C22.37424 9.14683 22.68714 9.46043 22.68714 9.84683 22.68714 10.23323 22.37424 10.54683 21.98714 10.54683"/>
      <path d="M21.98714 17.45317L20.77824 17.45317C20.39184 17.45317 20.07824 17.13957 20.07824 16.75317 20.07824 16.36677 20.39184 16.05317 20.77824 16.05317L21.98714 16.05317C22.37424 16.05317 22.68714 16.36677 22.68714 16.75317 22.68714 17.13957 22.37424 17.45317 21.98714 17.45317M22.67755 10.54683C22.29045 10.54683 21.97755 10.23323 21.97755 9.84683L21.97755 8.46503C21.97755 8.07863 22.29045 7.76503 22.67755 7.76503 23.06465 7.76503 23.37755 8.07863 23.37755 8.46503L23.37755 9.84683C23.37755 10.23323 23.06465 10.54683 22.67755 10.54683M24.40431 10.54683C24.01721 10.54683 23.70431 10.23323 23.70431 9.84683L23.70431 8.46503C23.70431 8.07863 24.01721 7.76503 24.40431 7.76503 24.79141 7.76503 25.10431 8.07863 25.10431 8.46503L25.10431 9.84683C25.10431 10.23323 24.79141 10.54683 24.40431 10.54683"/>
      <path d="M22.67755 18.83469C22.29045 18.83469 21.97755 18.52109 21.97755 18.13469L21.97755 16.75289C21.97755 16.36649 22.29045 16.05289 22.67755 16.05289 23.06465 16.05289 23.37755 16.36649 23.37755 16.75289L23.37755 18.13469C23.37755 18.52109 23.06465 18.83469 22.67755 18.83469M24.40431 18.83469C24.01721 18.83469 23.70431 18.52109 23.70431 18.13469L23.70431 16.75289C23.70431 16.36649 24.01721 16.05289 24.40431 16.05289 24.79141 16.05289 25.10431 16.36649 25.10431 16.75289L25.10431 18.13469C25.10431 18.52109 24.79141 18.83469 24.40431 18.83469M1.1375 7.95669C.7504 7.95669.4375 7.64309.4375 7.25669.4375 6.87029.7504 6.55669 1.1375 6.55669 4.0838 6.55669 6.4813 4.15989 6.4813 1.21359 6.4813.82649 6.7942.51359 7.1813.51359 7.5684.51359 7.8813.82649 7.8813 1.21359 7.8813 4.93199 4.8559 7.95669 1.1375 7.95669M46.4625 7.95669C42.7441 7.95669 39.7187 4.93199 39.7187 1.21359 39.7187.82649 40.0316.51359 40.4187.51359 40.8058.51359 41.1187.82649 41.1187 1.21359 41.1187 4.15989 43.5162 6.55669 46.4625 6.55669 46.8496 6.55669 47.1625 6.87029 47.1625 7.25669 47.1625 7.64309 46.8496 7.95669 46.4625 7.95669M7.18116 26.08662C6.79406 26.08662 6.48116 25.77302 6.48116 25.38662 6.48116 22.44032 4.08366 20.04352 1.13736 20.04352.75026 20.04352.43736 19.72992.43736 19.34352.43736 18.95642.75026 18.64352 1.13736 18.64352 4.85646 18.64352 7.88116 21.66822 7.88116 25.38662 7.88116 25.77302 7.56826 26.08662 7.18116 26.08662M40.41884 26.08662C40.03174 26.08662 39.71884 25.77302 39.71884 25.38662 39.71884 21.66822 42.74354 18.64352 46.46264 18.64352 46.84974 18.64352 47.16264 18.95642 47.16264 19.34352 47.16264 19.72992 46.84974 20.04352 46.46264 20.04352 43.51634 20.04352 41.11884 22.44032 41.11884 25.38662 41.11884 25.77302 40.80594 26.08662 40.41884 26.08662"/>
    </g>
  </g>
</svg>
