<?xml version="1.0" encoding="UTF-8"?>
<svg width="35px" height="40px" viewBox="0 0 35 40" version="1.1" xmlns="http://www.w3.org/2000/svg" xmlns:xlink="http://www.w3.org/1999/xlink">
    <!-- Generator: sketchtool 46.2 (44496) - http://www.bohemiancoding.com/sketch -->
    <title>F2BBC522-0249-4F2A-AB42-5B3C3160D981</title>
    <desc>Created with sketchtool.</desc>
    <defs>
        <polygon id="path-1" points="34.5145145 22.2512342 34.5145145 0.252503764 1.73645994e-20 0.252503764 0 22.2512342 34.5145145 22.2512342"></polygon>
        <polygon id="path-3" points="34.5145145 22.7024432 34.5145145 0.0753316252 0 0.0753316252 0 22.7024432 34.5145145 22.7024432"></polygon>
    </defs>
    <g id="Page-1" stroke="none" stroke-width="1" fill="none" fill-rule="evenodd">
        <g id="IS_Blockchain-LP-icons" transform="translate(-546.000000, -158.000000)">
            <g id="ERC20-Token" transform="translate(538.000000, 153.000000)">
                <polygon id="Fill-1" fill="#FFFFFF" opacity="0" points="0 50 50 50 50 0 0 0"></polygon>
                <g id="Page-1" transform="translate(8.000000, 5.000000)">
                    <g id="Group-3">
                        <mask id="mask-2" fill="white">
                            <use xlink:href="#path-1"></use>
                        </mask>
                        <g id="Clip-2"></g>
                        <path d="M1.02476877,14.9239369 L21.4285325,14.9239369 C21.5643483,14.9239369 21.6943984,14.9769099 21.7911351,15.0715045 C21.8865906,15.1660991 21.9404044,15.2947477 21.9404044,15.4284414 L21.9397638,20.6576306 L33.2099139,11.2524054 L21.9404044,1.84654955 L21.9404044,7.07384685 C21.9404044,7.20754054 21.8865906,7.33618919 21.7911351,7.43015315 C21.6943984,7.52537838 21.5643483,7.57835135 21.4285325,7.57835135 L1.02476877,7.57835135 L1.02476877,14.9239369 Z M21.4272513,22.2512342 C21.3542182,22.2512342 21.2805445,22.2360991 21.211996,22.2045676 C21.0306947,22.121955 20.9147387,21.9434865 20.9147387,21.7467297 L20.9153794,15.9329459 L0.512256256,15.9329459 C0.229093093,15.9329459 -0.000256256256,15.7065495 -0.000256256256,15.4284414 L-0.000256256256,7.07384685 C-0.000256256256,6.79510811 0.229093093,6.56934234 0.512256256,6.56934234 L20.91602,6.56934234 L20.9153794,0.75681982 C20.9153794,0.560693694 21.0313353,0.381594595 21.2126366,0.298981982 C21.3926567,0.217 21.6066306,0.244747748 21.7597437,0.372135135 L34.3342382,10.8670901 C34.4489129,10.9635766 34.5148989,11.1035766 34.5148989,11.2524054 C34.5148989,11.4006036 34.4489129,11.5412342 34.3342382,11.6370901 L21.7591031,22.132045 C21.6642883,22.2108739 21.5464104,22.2512342 21.4272513,22.2512342 L21.4272513,22.2512342 Z" id="Fill-1" fill="#FFFFFF" mask="url(#mask-2)"></path>
                    </g>
                    <path d="M2.7027027,14.1351351 C2.40405405,14.1351351 2.16216216,13.8855369 2.16216216,13.5773737 L2.16216216,9.28749115 C2.16216216,8.97932797 2.40405405,8.72972973 2.7027027,8.72972973 C3.00135135,8.72972973 3.24324324,8.97932797 3.24324324,9.28749115 L3.24324324,13.5773737 C3.24324324,13.8855369 3.00135135,14.1351351 2.7027027,14.1351351" id="Fill-4" fill="#FFFFFF"></path>
                    <path d="M4.86486486,14.1351351 C4.56621622,14.1351351 4.32432432,13.8855369 4.32432432,13.5773737 L4.32432432,9.28749115 C4.32432432,8.97932797 4.56621622,8.72972973 4.86486486,8.72972973 C5.16351351,8.72972973 5.40540541,8.97932797 5.40540541,9.28749115 L5.40540541,13.5773737 C5.40540541,13.8855369 5.16351351,14.1351351 4.86486486,14.1351351" id="Fill-6" fill="#FFFFFF"></path>
                    <path d="M21.0810811,14.1351351 C20.7824324,14.1351351 20.5405405,13.8855369 20.5405405,13.5773737 L20.5405405,9.28749115 C20.5405405,8.97932797 20.7824324,8.72972973 21.0810811,8.72972973 C21.3797297,8.72972973 21.6216216,8.97932797 21.6216216,9.28749115 L21.6216216,13.5773737 C21.6216216,13.8855369 21.3797297,14.1351351 21.0810811,14.1351351" id="Fill-8" fill="#FFFFFF"></path>
                    <path d="M12.4324324,14.1351351 C12.1337838,14.1351351 11.8918919,13.8855369 11.8918919,13.5773737 L11.8918919,9.28749115 C11.8918919,8.97932797 12.1337838,8.72972973 12.4324324,8.72972973 C12.7310811,8.72972973 12.972973,8.97932797 12.972973,9.28749115 L12.972973,13.5773737 C12.972973,13.8855369 12.7310811,14.1351351 12.4324324,14.1351351" id="Fill-10" fill="#FFFFFF"></path>
                    <path d="M9.18918919,9.84525258 C8.80504479,9.84525258 8.4926382,10.2217415 8.4926382,10.6839863 L8.4926382,12.1808785 C8.4926382,12.6438205 8.80504479,13.0203095 9.18918919,13.0203095 C9.57333359,13.0203095 9.88574018,12.6438205 9.88574018,12.1808785 L9.88574018,10.6839863 C9.88574018,10.2217415 9.57333359,9.84525258 9.18918919,9.84525258 M9.18918919,14.1351351 C8.29478069,14.1351351 7.56756757,13.2587525 7.56756757,12.1808785 L7.56756757,10.6839863 C7.56756757,9.60611237 8.29478069,8.72972973 9.18918919,8.72972973 C10.0835977,8.72972973 10.8108108,9.60611237 10.8108108,10.6839863 L10.8108108,12.1808785 C10.8108108,13.2587525 10.0835977,14.1351351 9.18918919,14.1351351" id="Fill-12" fill="#FFFFFF"></path>
                    <path d="M16.7567568,9.84525258 C16.3726124,9.84525258 16.0602058,10.2217415 16.0602058,10.6839863 L16.0602058,12.1808785 C16.0602058,12.6438205 16.3726124,13.0203095 16.7567568,13.0203095 C17.1409012,13.0203095 17.4533077,12.6438205 17.4533077,12.1808785 L17.4533077,10.6839863 C17.4533077,10.2217415 17.1409012,9.84525258 16.7567568,9.84525258 M16.7567568,14.1351351 C15.8623483,14.1351351 15.1351351,13.2587525 15.1351351,12.1808785 L15.1351351,10.6839863 C15.1351351,9.60611237 15.8623483,8.72972973 16.7567568,8.72972973 C17.6511653,8.72972973 18.3783784,9.60611237 18.3783784,10.6839863 L18.3783784,12.1808785 C18.3783784,13.2587525 17.6511653,14.1351351 16.7567568,14.1351351" id="Fill-14" fill="#FFFFFF"></path>
                    <g id="Group-18" transform="translate(0.000000, 17.297297)">
                        <mask id="mask-4" fill="white">
                            <use xlink:href="#path-3"></use>
                        </mask>
                        <g id="Clip-17"></g>
                        <path d="M1.30472873,11.3893622 L12.5748789,21.0633081 L12.5742382,15.6847135 C12.5742382,15.5472 12.6280521,15.4148757 12.7241481,15.318227 C12.8202442,15.2202811 12.9502943,15.1657946 13.0867508,15.1657946 L33.4898739,15.1657946 L33.4898739,7.60968649 L13.0867508,7.60968649 C12.9502943,7.60968649 12.8202442,7.5552 12.7241481,7.4579027 C12.6280521,7.36060541 12.5742382,7.22828108 12.5742382,7.09076757 L12.5742382,1.71476757 L1.30472873,11.3893622 Z M13.0873914,22.7024432 C12.9682322,22.7024432 12.8503544,22.6609297 12.7555395,22.5798486 L0.181045045,11.7850378 C0.0657297297,11.6864432 -0.000256256256,11.5417946 -0.000256256256,11.3893622 C-0.000256256256,11.2369297 0.0657297297,11.0922811 0.181045045,10.9936865 L12.7548989,0.198227027 C12.9073714,0.0672 13.1213453,0.0386594595 13.302006,0.123632432 C13.4833073,0.208605405 13.5992633,0.392172973 13.5992633,0.593902703 L13.5986226,6.57184865 L34.0023864,6.57184865 C34.2855495,6.57184865 34.5148989,6.80471351 34.5148989,7.09076757 L34.5148989,15.6847135 C34.5148989,15.9714162 34.2855495,16.2036324 34.0023864,16.2036324 L13.5992633,16.2036324 L13.5999039,22.184173 C13.5999039,22.3859027 13.4839479,22.5694703 13.3032873,22.6544432 C13.2340981,22.6868757 13.1604244,22.7024432 13.0873914,22.7024432 L13.0873914,22.7024432 Z" id="Fill-16" fill="#FFFFFF" mask="url(#mask-4)"></path>
                    </g>
                    <path d="M26.4864865,31.3513514 C26.1878378,31.3513514 25.9459459,31.1017531 25.9459459,30.7935899 L25.9459459,26.5037074 C25.9459459,26.1955442 26.1878378,25.9459459 26.4864865,25.9459459 C26.7851351,25.9459459 27.027027,26.1955442 27.027027,26.5037074 L27.027027,30.7935899 C27.027027,31.1017531 26.7851351,31.3513514 26.4864865,31.3513514" id="Fill-19" fill="#FFFFFF"></path>
                    <path d="M24.3243243,31.3513514 C24.0256757,31.3513514 23.7837838,31.1017531 23.7837838,30.7935899 L23.7837838,26.5037074 C23.7837838,26.1955442 24.0256757,25.9459459 24.3243243,25.9459459 C24.622973,25.9459459 24.8648649,26.1955442 24.8648649,26.5037074 L24.8648649,30.7935899 C24.8648649,31.1017531 24.622973,31.3513514 24.3243243,31.3513514" id="Fill-21" fill="#FFFFFF"></path>
                    <path d="M13.5135135,31.3513514 C13.2148649,31.3513514 12.972973,31.1017531 12.972973,30.7935899 L12.972973,26.5037074 C12.972973,26.1955442 13.2148649,25.9459459 13.5135135,25.9459459 C13.8121622,25.9459459 14.0540541,26.1955442 14.0540541,26.5037074 L14.0540541,30.7935899 C14.0540541,31.1017531 13.8121622,31.3513514 13.5135135,31.3513514" id="Fill-23" fill="#FFFFFF"></path>
                    <path d="M16.7567568,31.3513514 C16.4581081,31.3513514 16.2162162,31.1017531 16.2162162,30.7935899 L16.2162162,26.5037074 C16.2162162,26.1955442 16.4581081,25.9459459 16.7567568,25.9459459 C17.0554054,25.9459459 17.2972973,26.1955442 17.2972973,26.5037074 L17.2972973,30.7935899 C17.2972973,31.1017531 17.0554054,31.3513514 16.7567568,31.3513514" id="Fill-25" fill="#FFFFFF"></path>
                    <path d="M30.8111,27.0614688 C30.4270241,27.0614688 30.1146733,27.4379578 30.1146733,27.9002025 L30.1146733,29.3970948 C30.1146733,29.8600367 30.4270241,30.2365257 30.8111,30.2365257 C31.1951759,30.2365257 31.5075268,29.8600367 31.5075268,29.3970948 L31.5075268,27.9002025 C31.5075268,27.4379578 31.1951759,27.0614688 30.8111,27.0614688 M30.8111,31.3513514 C29.916851,31.3513514 29.1891892,30.4749687 29.1891892,29.3970948 L29.1891892,27.9002025 C29.1891892,26.8223286 29.916851,25.9459459 30.8111,25.9459459 C31.705349,25.9459459 32.4324324,26.8223286 32.4324324,27.9002025 L32.4324324,29.3970948 C32.4324324,30.4749687 31.705349,31.3513514 30.8111,31.3513514" id="Fill-27" fill="#FFFFFF"></path>
                    <path d="M20,27.0614688 C19.6158556,27.0614688 19.303449,27.4379578 19.303449,27.9002025 L19.303449,29.3970948 C19.303449,29.8600367 19.6158556,30.2365257 20,30.2365257 C20.3841444,30.2365257 20.696551,29.8600367 20.696551,29.3970948 L20.696551,27.9002025 C20.696551,27.4379578 20.3841444,27.0614688 20,27.0614688 M20,31.3513514 C19.1055915,31.3513514 18.3783784,30.4749687 18.3783784,29.3970948 L18.3783784,27.9002025 C18.3783784,26.8223286 19.1055915,25.9459459 20,25.9459459 C20.8944085,25.9459459 21.6216216,26.8223286 21.6216216,27.9002025 L21.6216216,29.3970948 C21.6216216,30.4749687 20.8944085,31.3513514 20,31.3513514" id="Fill-29" fill="#FFFFFF"></path>
                </g>
            </g>
        </g>
    </g>
</svg>