<svg xmlns="http://www.w3.org/2000/svg" width="35" height="40" viewBox="0 0 35 40">
  <g fill="none" fill-rule="evenodd" transform="translate(-8 -5)">
    <polygon fill="#FFF" points="0 50 50 50 50 0 0 0" opacity="0"/>
    <g fill="#F57F17" transform="translate(8 5)">
      <path d="M1.02476877,14.9239369 L21.4285325,14.9239369 C21.5643483,14.9239369 21.6943984,14.9769099 21.7911351,15.0715045 C21.8865906,15.1660991 21.9404044,15.2947477 21.9404044,15.4284414 L21.9397638,20.6576306 L33.2099139,11.2524054 L21.9404044,1.84654955 L21.9404044,7.07384685 C21.9404044,7.20754054 21.8865906,7.33618919 21.7911351,7.43015315 C21.6943984,7.52537838 21.5643483,7.57835135 21.4285325,7.57835135 L1.02476877,7.57835135 L1.02476877,14.9239369 Z M21.4272513,22.2512342 C21.3542182,22.2512342 21.2805445,22.2360991 21.211996,22.2045676 C21.0306947,22.121955 20.9147387,21.9434865 20.9147387,21.7467297 L20.9153794,15.9329459 L0.512256256,15.9329459 C0.229093093,15.9329459 -0.000256256256,15.7065495 -0.000256256256,15.4284414 L-0.000256256256,7.07384685 C-0.000256256256,6.79510811 0.229093093,6.56934234 0.512256256,6.56934234 L20.91602,6.56934234 L20.9153794,0.75681982 C20.9153794,0.560693694 21.0313353,0.381594595 21.2126366,0.298981982 C21.3926567,0.217 21.6066306,0.244747748 21.7597437,0.372135135 L34.3342382,10.8670901 C34.4489129,10.9635766 34.5148989,11.1035766 34.5148989,11.2524054 C34.5148989,11.4006036 34.4489129,11.5412342 34.3342382,11.6370901 L21.7591031,22.132045 C21.6642883,22.2108739 21.5464104,22.2512342 21.4272513,22.2512342 L21.4272513,22.2512342 Z"/>
      <path d="M2.7027027 14.1351351C2.40405405 14.1351351 2.16216216 13.8855369 2.16216216 13.5773737L2.16216216 9.28749115C2.16216216 8.97932797 2.40405405 8.72972973 2.7027027 8.72972973 3.00135135 8.72972973 3.24324324 8.97932797 3.24324324 9.28749115L3.24324324 13.5773737C3.24324324 13.8855369 3.00135135 14.1351351 2.7027027 14.1351351M4.86486486 14.1351351C4.56621622 14.1351351 4.32432432 13.8855369 4.32432432 13.5773737L4.32432432 9.28749115C4.32432432 8.97932797 4.56621622 8.72972973 4.86486486 8.72972973 5.16351351 8.72972973 5.40540541 8.97932797 5.40540541 9.28749115L5.40540541 13.5773737C5.40540541 13.8855369 5.16351351 14.1351351 4.86486486 14.1351351M21.0810811 14.1351351C20.7824324 14.1351351 20.5405405 13.8855369 20.5405405 13.5773737L20.5405405 9.28749115C20.5405405 8.97932797 20.7824324 8.72972973 21.0810811 8.72972973 21.3797297 8.72972973 21.6216216 8.97932797 21.6216216 9.28749115L21.6216216 13.5773737C21.6216216 13.8855369 21.3797297 14.1351351 21.0810811 14.1351351M12.4324324 14.1351351C12.1337838 14.1351351 11.8918919 13.8855369 11.8918919 13.5773737L11.8918919 9.28749115C11.8918919 8.97932797 12.1337838 8.72972973 12.4324324 8.72972973 12.7310811 8.72972973 12.972973 8.97932797 12.972973 9.28749115L12.972973 13.5773737C12.972973 13.8855369 12.7310811 14.1351351 12.4324324 14.1351351M9.18918919 9.84525258C8.80504479 9.84525258 8.4926382 10.2217415 8.4926382 10.6839863L8.4926382 12.1808785C8.4926382 12.6438205 8.80504479 13.0203095 9.18918919 13.0203095 9.57333359 13.0203095 9.88574018 12.6438205 9.88574018 12.1808785L9.88574018 10.6839863C9.88574018 10.2217415 9.57333359 9.84525258 9.18918919 9.84525258M9.18918919 14.1351351C8.29478069 14.1351351 7.56756757 13.2587525 7.56756757 12.1808785L7.56756757 10.6839863C7.56756757 9.60611237 8.29478069 8.72972973 9.18918919 8.72972973 10.0835977 8.72972973 10.8108108 9.60611237 10.8108108 10.6839863L10.8108108 12.1808785C10.8108108 13.2587525 10.0835977 14.1351351 9.18918919 14.1351351M16.7567568 9.84525258C16.3726124 9.84525258 16.0602058 10.2217415 16.0602058 10.6839863L16.0602058 12.1808785C16.0602058 12.6438205 16.3726124 13.0203095 16.7567568 13.0203095 17.1409012 13.0203095 17.4533077 12.6438205 17.4533077 12.1808785L17.4533077 10.6839863C17.4533077 10.2217415 17.1409012 9.84525258 16.7567568 9.84525258M16.7567568 14.1351351C15.8623483 14.1351351 15.1351351 13.2587525 15.1351351 12.1808785L15.1351351 10.6839863C15.1351351 9.60611237 15.8623483 8.72972973 16.7567568 8.72972973 17.6511653 8.72972973 18.3783784 9.60611237 18.3783784 10.6839863L18.3783784 12.1808785C18.3783784 13.2587525 17.6511653 14.1351351 16.7567568 14.1351351M1.30472873 28.6866595L12.5748789 38.3606054 12.5742382 32.9820108C12.5742382 32.8444973 12.6280521 32.712173 12.7241481 32.6155243 12.8202442 32.5175784 12.9502943 32.4630919 13.0867508 32.4630919L33.4898739 32.4630919 33.4898739 24.9069838 13.0867508 24.9069838C12.9502943 24.9069838 12.8202442 24.8524973 12.7241481 24.7552 12.6280521 24.6579027 12.5742382 24.5255784 12.5742382 24.3880649L12.5742382 19.0120649 1.30472873 28.6866595zM13.0873914 39.9997405C12.9682322 39.9997405 12.8503544 39.958227 12.7555395 39.8771459L.181045045 29.0823351C.0657297297 28.9837405-.000256256256 28.8390919-.000256256256 28.6866595-.000256256256 28.534227.0657297297 28.3895784.181045045 28.2909838L12.7548989 17.4955243C12.9073714 17.3644973 13.1213453 17.3359568 13.302006 17.4209297 13.4833073 17.5059027 13.5992633 17.6894703 13.5992633 17.8912L13.5986226 23.8691459 34.0023864 23.8691459C34.2855495 23.8691459 34.5148989 24.1020108 34.5148989 24.3880649L34.5148989 32.9820108C34.5148989 33.2687135 34.2855495 33.5009297 34.0023864 33.5009297L13.5992633 33.5009297 13.5999039 39.4814703C13.5999039 39.6832 13.4839479 39.8667676 13.3032873 39.9517405 13.2340981 39.984173 13.1604244 39.9997405 13.0873914 39.9997405L13.0873914 39.9997405z"/>
      <path d="M26.4864865 31.3513514C26.1878378 31.3513514 25.9459459 31.1017531 25.9459459 30.7935899L25.9459459 26.5037074C25.9459459 26.1955442 26.1878378 25.9459459 26.4864865 25.9459459 26.7851351 25.9459459 27.027027 26.1955442 27.027027 26.5037074L27.027027 30.7935899C27.027027 31.1017531 26.7851351 31.3513514 26.4864865 31.3513514M24.3243243 31.3513514C24.0256757 31.3513514 23.7837838 31.1017531 23.7837838 30.7935899L23.7837838 26.5037074C23.7837838 26.1955442 24.0256757 25.9459459 24.3243243 25.9459459 24.622973 25.9459459 24.8648649 26.1955442 24.8648649 26.5037074L24.8648649 30.7935899C24.8648649 31.1017531 24.622973 31.3513514 24.3243243 31.3513514M13.5135135 31.3513514C13.2148649 31.3513514 12.972973 31.1017531 12.972973 30.7935899L12.972973 26.5037074C12.972973 26.1955442 13.2148649 25.9459459 13.5135135 25.9459459 13.8121622 25.9459459 14.0540541 26.1955442 14.0540541 26.5037074L14.0540541 30.7935899C14.0540541 31.1017531 13.8121622 31.3513514 13.5135135 31.3513514M16.7567568 31.3513514C16.4581081 31.3513514 16.2162162 31.1017531 16.2162162 30.7935899L16.2162162 26.5037074C16.2162162 26.1955442 16.4581081 25.9459459 16.7567568 25.9459459 17.0554054 25.9459459 17.2972973 26.1955442 17.2972973 26.5037074L17.2972973 30.7935899C17.2972973 31.1017531 17.0554054 31.3513514 16.7567568 31.3513514M30.8111 27.0614688C30.4270241 27.0614688 30.1146733 27.4379578 30.1146733 27.9002025L30.1146733 29.3970948C30.1146733 29.8600367 30.4270241 30.2365257 30.8111 30.2365257 31.1951759 30.2365257 31.5075268 29.8600367 31.5075268 29.3970948L31.5075268 27.9002025C31.5075268 27.4379578 31.1951759 27.0614688 30.8111 27.0614688M30.8111 31.3513514C29.916851 31.3513514 29.1891892 30.4749687 29.1891892 29.3970948L29.1891892 27.9002025C29.1891892 26.8223286 29.916851 25.9459459 30.8111 25.9459459 31.705349 25.9459459 32.4324324 26.8223286 32.4324324 27.9002025L32.4324324 29.3970948C32.4324324 30.4749687 31.705349 31.3513514 30.8111 31.3513514M20 27.0614688C19.6158556 27.0614688 19.303449 27.4379578 19.303449 27.9002025L19.303449 29.3970948C19.303449 29.8600367 19.6158556 30.2365257 20 30.2365257 20.3841444 30.2365257 20.696551 29.8600367 20.696551 29.3970948L20.696551 27.9002025C20.696551 27.4379578 20.3841444 27.0614688 20 27.0614688M20 31.3513514C19.1055915 31.3513514 18.3783784 30.4749687 18.3783784 29.3970948L18.3783784 27.9002025C18.3783784 26.8223286 19.1055915 25.9459459 20 25.9459459 20.8944085 25.9459459 21.6216216 26.8223286 21.6216216 27.9002025L21.6216216 29.3970948C21.6216216 30.4749687 20.8944085 31.3513514 20 31.3513514"/>
    </g>
  </g>
</svg>
