<svg xmlns="http://www.w3.org/2000/svg" width="25" height="38" viewBox="0 0 25 38">
  <g fill="none" fill-rule="evenodd" transform="translate(-13 -6)">
    <polygon fill="#FFF" points="0 50 50 50 50 0 0 0" opacity="0"/>
    <g fill="#F57F17" transform="translate(13 6)">
      <path d="M12.0339,-0.0004 L-0.0001,19.3186 L12.0339,26.2536 L24.0669,19.3186 L12.0339,-0.0004 Z M12.4219,14.2466 L12.4219,2.0416 L22.8549,18.7896 L12.4219,14.2466 Z M11.6449,2.0416 L11.6449,14.2466 L1.2119,18.7896 L11.6449,2.0416 Z M12.4219,15.0646 L22.4029,19.4116 L12.4219,25.1646 L12.4219,15.0646 Z M1.6639,19.4116 L11.6449,15.0646 L11.6449,25.1646 L1.6639,19.4116 Z"/>
      <path d="M12.0339,28.463 L0.3199,21.511 L12.0339,37.917 L23.7479,21.511 L12.0339,28.463 Z M12.4159,29.108 L21.0669,23.973 L12.0339,36.626 L2.9999,23.973 L11.6509,29.108 L12.0339,29.335 L12.4159,29.108 Z"/>
    </g>
  </g>
</svg>
