<?xml version="1.0" encoding="UTF-8"?>
<svg width="44px" height="44px" viewBox="0 0 44 44" version="1.1" xmlns="http://www.w3.org/2000/svg" xmlns:xlink="http://www.w3.org/1999/xlink">
    <!-- Generator: sketchtool 46.2 (44496) - http://www.bohemiancoding.com/sketch -->
    <title>E461C42A-609A-4FBC-AEDB-537617B9BE96</title>
    <desc>Created with sketchtool.</desc>
    <defs></defs>
    <g id="Page-1" stroke="none" stroke-width="1" fill="none" fill-rule="evenodd">
        <g id="IS_Blockchain-LP-icons" transform="translate(-1000.000000, -219.000000)">
            <g id="Exchange" transform="translate(996.000000, 215.000000)">
                <polygon id="Fill-1" fill="#FFFFFF" opacity="0" points="0 50 50 50 50 0 0 0"></polygon>
                <g id="Group-36" transform="translate(4.000000, 4.000000)" fill="#1476F2">
                    <path d="M32.2,22.4 C26.796,22.4 22.4,26.796 22.4,32.2 C22.4,37.604 26.796,42 32.2,42 C37.604,42 42,37.604 42,32.2 C42,26.796 37.604,22.4 32.2,22.4 M32.2,43.4 C26.0246,43.4 21,38.3754 21,32.2 C21,26.0246 26.0246,21 32.2,21 C38.3754,21 43.4,26.0246 43.4,32.2 C43.4,38.3754 38.3754,43.4 32.2,43.4" id="Fill-2"></path>
                    <path d="M32.81523,37.1 C30.11323,37.1 27.91523,34.9013 27.91523,32.2 C27.91523,29.4987 30.11323,27.3 32.81523,27.3 C34.12423,27.3 35.35413,27.8103 36.27953,28.7357 C36.55323,29.0087 36.55323,29.4518 36.27953,29.7255 C36.00653,29.9985 35.56273,29.9985 35.28973,29.7255 C34.62893,29.0647 33.74973,28.7 32.81523,28.7 C30.88533,28.7 29.31523,30.2701 29.31523,32.2 C29.31523,34.1299 30.88533,35.7 32.81523,35.7 C33.74973,35.7 34.62893,35.3353 35.28973,34.6745 C35.56273,34.4015 36.00653,34.4015 36.27953,34.6745 C36.55323,34.9482 36.55323,35.3913 36.27953,35.6643 C35.35413,36.5897 34.12423,37.1 32.81523,37.1" id="Fill-4"></path>
                    <path d="M32.81523,31.78028 L27.21523,31.78028 C26.82883,31.78028 26.51523,31.46738 26.51523,31.08028 C26.51523,30.69318 26.82883,30.38028 27.21523,30.38028 L32.81523,30.38028 C33.20163,30.38028 33.51523,30.69318 33.51523,31.08028 C33.51523,31.46738 33.20163,31.78028 32.81523,31.78028" id="Fill-6"></path>
                    <path d="M32.81523,34.01972 L27.21523,34.01972 C26.82883,34.01972 26.51523,33.70682 26.51523,33.31972 C26.51523,32.93262 26.82883,32.61972 27.21523,32.61972 L32.81523,32.61972 C33.20163,32.61972 33.51523,32.93262 33.51523,33.31972 C33.51523,33.70682 33.20163,34.01972 32.81523,34.01972" id="Fill-8"></path>
                    <path d="M11.2,1.4 C5.796,1.4 1.4,5.796 1.4,11.2 C1.4,16.604 5.796,21 11.2,21 C16.604,21 21,16.604 21,11.2 C21,5.796 16.604,1.4 11.2,1.4 M11.2,22.4 C5.0246,22.4 0,17.3754 0,11.2 C0,5.0246 5.0246,0 11.2,0 C17.3754,0 22.4,5.0246 22.4,11.2 C22.4,17.3754 17.3754,22.4 11.2,22.4" id="Fill-10"></path>
                    <path d="M18.2,32.9 L12.95,32.9 C11.599,32.9 10.5,31.801 10.5,30.45 L10.5,25.2 C10.5,24.8129 10.8136,24.5 11.2,24.5 C11.5864,24.5 11.9,24.8129 11.9,25.2 L11.9,30.45 C11.9,31.0289 12.3711,31.5 12.95,31.5 L18.2,31.5 C18.5864,31.5 18.9,31.8129 18.9,32.2 C18.9,32.5871 18.5864,32.9 18.2,32.9" id="Fill-12"></path>
                    <path d="M16.45,34.65 C16.2708,34.65 16.0916,34.5814 15.9551,34.4449 C15.6814,34.1712 15.6814,33.7288 15.9551,33.4551 L17.2102,32.2 L15.9551,30.9449 C15.6814,30.6712 15.6814,30.2288 15.9551,29.9551 C16.2288,29.6814 16.6712,29.6814 16.9449,29.9551 L18.6949,31.7051 C18.9686,31.9788 18.9686,32.4212 18.6949,32.6949 L16.9449,34.4449 C16.8084,34.5814 16.6292,34.65 16.45,34.65" id="Fill-14"></path>
                    <path d="M32.2,18.9 C31.8136,18.9 31.5,18.5864 31.5,18.2 L31.5,12.95 C31.5,12.3711 31.0289,11.9 30.45,11.9 L25.2,11.9 C24.8136,11.9 24.5,11.5864 24.5,11.2 C24.5,10.8136 24.8136,10.5 25.2,10.5 L30.45,10.5 C31.801,10.5 32.9,11.599 32.9,12.95 L32.9,18.2 C32.9,18.5864 32.5864,18.9 32.2,18.9" id="Fill-16"></path>
                    <path d="M26.95,13.65 C26.7708,13.65 26.5916,13.5814 26.4551,13.4449 L24.7051,11.6949 C24.4314,11.4212 24.4314,10.9788 24.7051,10.7051 L26.4551,8.9551 C26.7288,8.6814 27.1712,8.6814 27.4449,8.9551 C27.7186,9.2288 27.7186,9.6712 27.4449,9.9449 L26.1898,11.2 L27.4449,12.4551 C27.7186,12.7288 27.7186,13.1712 27.4449,13.4449 C27.3084,13.5814 27.1292,13.65 26.95,13.65" id="Fill-18"></path>
                    <path d="M9.8,10.5 L11.9,10.5 C12.6168,10.5 13.1999,9.9169 13.1999,9.2001 C13.1999,8.4833 12.6168,7.9002 11.9,7.9002 L9.8,7.9002 L9.8,10.5 Z M11.9,11.9 L9.1,11.9 C8.7136,11.9 8.4,11.5864 8.4,11.2 L8.4,7.2002 C8.4,6.8131 8.7136,6.5002 9.1,6.5002 L11.9,6.5002 C13.3889,6.5002 14.5999,7.7112 14.5999,9.2001 C14.5999,10.689 13.3889,11.9 11.9,11.9 L11.9,11.9 Z" id="Fill-20"></path>
                    <path d="M9.8,14.50008 L12.7001,14.50008 C13.4169,14.50008 14,13.91698 14,13.20018 C14,12.48338 13.4169,11.90028 12.7001,11.90028 L9.8,11.90028 L9.8,14.50008 Z M12.7001,15.90008 L9.1,15.90008 C8.7136,15.90008 8.4,15.58648 8.4,15.20008 L8.4,11.20028 C8.4,10.81318 8.7136,10.50028 9.1,10.50028 L12.7001,10.50028 C14.189,10.50028 15.4,11.71128 15.4,13.20018 C15.4,14.68908 14.189,15.90008 12.7001,15.90008 L12.7001,15.90008 Z" id="Fill-22"></path>
                    <path d="M9.1,7.89992 L7.7,7.89992 C7.3136,7.89992 7,7.58632 7,7.19992 C7,6.81352 7.3136,6.49992 7.7,6.49992 L9.1,6.49992 C9.4864,6.49992 9.8,6.81352 9.8,7.19992 C9.8,7.58632 9.4864,7.89992 9.1,7.89992" id="Fill-24"></path>
                    <path d="M9.1,15.90008 L7.7,15.90008 C7.3136,15.90008 7,15.58648 7,15.20008 C7,14.81368 7.3136,14.50008 7.7,14.50008 L9.1,14.50008 C9.4864,14.50008 9.8,14.81368 9.8,15.20008 C9.8,15.58648 9.4864,15.90008 9.1,15.90008" id="Fill-26"></path>
                    <path d="M9.90017,7.89992 C9.51377,7.89992 9.20017,7.58632 9.20017,7.19992 L9.20017,5.59972 C9.20017,5.21332 9.51377,4.89972 9.90017,4.89972 C10.28657,4.89972 10.60017,5.21332 10.60017,5.59972 L10.60017,7.19992 C10.60017,7.58632 10.28657,7.89992 9.90017,7.89992" id="Fill-28"></path>
                    <path d="M11.9,7.89992 C11.5136,7.89992 11.2,7.58632 11.2,7.19992 L11.2,5.59972 C11.2,5.21332 11.5136,4.89972 11.9,4.89972 C12.2864,4.89972 12.6,5.21332 12.6,5.59972 L12.6,7.19992 C12.6,7.58632 12.2864,7.89992 11.9,7.89992" id="Fill-30"></path>
                    <path d="M9.90017,17.5 C9.51377,17.5 9.20017,17.1864 9.20017,16.8 L9.20017,15.1998 C9.20017,14.8134 9.51377,14.4998 9.90017,14.4998 C10.28657,14.4998 10.60017,14.8134 10.60017,15.1998 L10.60017,16.8 C10.60017,17.1864 10.28657,17.5 9.90017,17.5" id="Fill-32"></path>
                    <path d="M11.9,17.5 C11.5136,17.5 11.2,17.1864 11.2,16.8 L11.2,15.1998 C11.2,14.8134 11.5136,14.4998 11.9,14.4998 C12.2864,14.4998 12.6,14.8134 12.6,15.1998 L12.6,16.8 C12.6,17.1864 12.2864,17.5 11.9,17.5" id="Fill-34"></path>
                </g>
            </g>
        </g>
    </g>
</svg>