<svg xmlns="http://www.w3.org/2000/svg" width="44" height="44" viewBox="0 0 44 44">
  <g fill="none" fill-rule="evenodd" transform="translate(-4 -4)">
    <polygon fill="#FFF" points="0 50 50 50 50 0 0 0" opacity="0"/>
    <g fill="#F57F17" transform="translate(4 4)">
      <path d="M32.2,22.4 C26.796,22.4 22.4,26.796 22.4,32.2 C22.4,37.604 26.796,42 32.2,42 C37.604,42 42,37.604 42,32.2 C42,26.796 37.604,22.4 32.2,22.4 M32.2,43.4 C26.0246,43.4 21,38.3754 21,32.2 C21,26.0246 26.0246,21 32.2,21 C38.3754,21 43.4,26.0246 43.4,32.2 C43.4,38.3754 38.3754,43.4 32.2,43.4"/>
      <path d="M32.81523,37.1 C30.11323,37.1 27.91523,34.9013 27.91523,32.2 C27.91523,29.4987 30.11323,27.3 32.81523,27.3 C34.12423,27.3 35.35413,27.8103 36.27953,28.7357 C36.55323,29.0087 36.55323,29.4518 36.27953,29.7255 C36.00653,29.9985 35.56273,29.9985 35.28973,29.7255 C34.62893,29.0647 33.74973,28.7 32.81523,28.7 C30.88533,28.7 29.31523,30.2701 29.31523,32.2 C29.31523,34.1299 30.88533,35.7 32.81523,35.7 C33.74973,35.7 34.62893,35.3353 35.28973,34.6745 C35.56273,34.4015 36.00653,34.4015 36.27953,34.6745 C36.55323,34.9482 36.55323,35.3913 36.27953,35.6643 C35.35413,36.5897 34.12423,37.1 32.81523,37.1"/>
      <path d="M32.81523 31.78028L27.21523 31.78028C26.82883 31.78028 26.51523 31.46738 26.51523 31.08028 26.51523 30.69318 26.82883 30.38028 27.21523 30.38028L32.81523 30.38028C33.20163 30.38028 33.51523 30.69318 33.51523 31.08028 33.51523 31.46738 33.20163 31.78028 32.81523 31.78028M32.81523 34.01972L27.21523 34.01972C26.82883 34.01972 26.51523 33.70682 26.51523 33.31972 26.51523 32.93262 26.82883 32.61972 27.21523 32.61972L32.81523 32.61972C33.20163 32.61972 33.51523 32.93262 33.51523 33.31972 33.51523 33.70682 33.20163 34.01972 32.81523 34.01972M11.2 1.4C5.796 1.4 1.4 5.796 1.4 11.2 1.4 16.604 5.796 21 11.2 21 16.604 21 21 16.604 21 11.2 21 5.796 16.604 1.4 11.2 1.4M11.2 22.4C5.0246 22.4 0 17.3754 0 11.2 0 5.0246 5.0246 0 11.2 0 17.3754 0 22.4 5.0246 22.4 11.2 22.4 17.3754 17.3754 22.4 11.2 22.4M18.2 32.9L12.95 32.9C11.599 32.9 10.5 31.801 10.5 30.45L10.5 25.2C10.5 24.8129 10.8136 24.5 11.2 24.5 11.5864 24.5 11.9 24.8129 11.9 25.2L11.9 30.45C11.9 31.0289 12.3711 31.5 12.95 31.5L18.2 31.5C18.5864 31.5 18.9 31.8129 18.9 32.2 18.9 32.5871 18.5864 32.9 18.2 32.9"/>
      <path d="M16.45 34.65C16.2708 34.65 16.0916 34.5814 15.9551 34.4449 15.6814 34.1712 15.6814 33.7288 15.9551 33.4551L17.2102 32.2 15.9551 30.9449C15.6814 30.6712 15.6814 30.2288 15.9551 29.9551 16.2288 29.6814 16.6712 29.6814 16.9449 29.9551L18.6949 31.7051C18.9686 31.9788 18.9686 32.4212 18.6949 32.6949L16.9449 34.4449C16.8084 34.5814 16.6292 34.65 16.45 34.65M32.2 18.9C31.8136 18.9 31.5 18.5864 31.5 18.2L31.5 12.95C31.5 12.3711 31.0289 11.9 30.45 11.9L25.2 11.9C24.8136 11.9 24.5 11.5864 24.5 11.2 24.5 10.8136 24.8136 10.5 25.2 10.5L30.45 10.5C31.801 10.5 32.9 11.599 32.9 12.95L32.9 18.2C32.9 18.5864 32.5864 18.9 32.2 18.9"/>
      <path d="M26.95 13.65C26.7708 13.65 26.5916 13.5814 26.4551 13.4449L24.7051 11.6949C24.4314 11.4212 24.4314 10.9788 24.7051 10.7051L26.4551 8.9551C26.7288 8.6814 27.1712 8.6814 27.4449 8.9551 27.7186 9.2288 27.7186 9.6712 27.4449 9.9449L26.1898 11.2 27.4449 12.4551C27.7186 12.7288 27.7186 13.1712 27.4449 13.4449 27.3084 13.5814 27.1292 13.65 26.95 13.65M9.8 10.5L11.9 10.5C12.6168 10.5 13.1999 9.9169 13.1999 9.2001 13.1999 8.4833 12.6168 7.9002 11.9 7.9002L9.8 7.9002 9.8 10.5zM11.9 11.9L9.1 11.9C8.7136 11.9 8.4 11.5864 8.4 11.2L8.4 7.2002C8.4 6.8131 8.7136 6.5002 9.1 6.5002L11.9 6.5002C13.3889 6.5002 14.5999 7.7112 14.5999 9.2001 14.5999 10.689 13.3889 11.9 11.9 11.9L11.9 11.9z"/>
      <path d="M9.8 14.50008L12.7001 14.50008C13.4169 14.50008 14 13.91698 14 13.20018 14 12.48338 13.4169 11.90028 12.7001 11.90028L9.8 11.90028 9.8 14.50008zM12.7001 15.90008L9.1 15.90008C8.7136 15.90008 8.4 15.58648 8.4 15.20008L8.4 11.20028C8.4 10.81318 8.7136 10.50028 9.1 10.50028L12.7001 10.50028C14.189 10.50028 15.4 11.71128 15.4 13.20018 15.4 14.68908 14.189 15.90008 12.7001 15.90008L12.7001 15.90008zM9.1 7.89992L7.7 7.89992C7.3136 7.89992 7 7.58632 7 7.19992 7 6.81352 7.3136 6.49992 7.7 6.49992L9.1 6.49992C9.4864 6.49992 9.8 6.81352 9.8 7.19992 9.8 7.58632 9.4864 7.89992 9.1 7.89992"/>
      <path d="M9.1 15.90008L7.7 15.90008C7.3136 15.90008 7 15.58648 7 15.20008 7 14.81368 7.3136 14.50008 7.7 14.50008L9.1 14.50008C9.4864 14.50008 9.8 14.81368 9.8 15.20008 9.8 15.58648 9.4864 15.90008 9.1 15.90008M9.90017 7.89992C9.51377 7.89992 9.20017 7.58632 9.20017 7.19992L9.20017 5.59972C9.20017 5.21332 9.51377 4.89972 9.90017 4.89972 10.28657 4.89972 10.60017 5.21332 10.60017 5.59972L10.60017 7.19992C10.60017 7.58632 10.28657 7.89992 9.90017 7.89992M11.9 7.89992C11.5136 7.89992 11.2 7.58632 11.2 7.19992L11.2 5.59972C11.2 5.21332 11.5136 4.89972 11.9 4.89972 12.2864 4.89972 12.6 5.21332 12.6 5.59972L12.6 7.19992C12.6 7.58632 12.2864 7.89992 11.9 7.89992"/>
      <path d="M9.90017 17.5C9.51377 17.5 9.20017 17.1864 9.20017 16.8L9.20017 15.1998C9.20017 14.8134 9.51377 14.4998 9.90017 14.4998 10.28657 14.4998 10.60017 14.8134 10.60017 15.1998L10.60017 16.8C10.60017 17.1864 10.28657 17.5 9.90017 17.5M11.9 17.5C11.5136 17.5 11.2 17.1864 11.2 16.8L11.2 15.1998C11.2 14.8134 11.5136 14.4998 11.9 14.4998 12.2864 14.4998 12.6 14.8134 12.6 15.1998L12.6 16.8C12.6 17.1864 12.2864 17.5 11.9 17.5"/>
    </g>
  </g>
</svg>
