<?xml version="1.0" encoding="UTF-8"?>
<svg width="44px" height="40px" viewBox="0 0 44 40" version="1.1" xmlns="http://www.w3.org/2000/svg" xmlns:xlink="http://www.w3.org/1999/xlink">
    <!-- Generator: sketchtool 46.2 (44496) - http://www.bohemiancoding.com/sketch -->
    <title>2F213C63-0711-4F4F-A3AD-D21CAC61C047</title>
    <desc>Created with sketchtool.</desc>
    <defs></defs>
    <g id="Page-1" stroke="none" stroke-width="1" fill="none" fill-rule="evenodd">
        <g id="IS_Blockchain-LP-icons" transform="translate(-542.000000, -281.000000)" fill="#FFFFFF">
            <g id="ICO-App-Tokens" transform="translate(538.000000, 275.000000)">
                <polygon id="Fill-1" opacity="0" points="0 50 50 50 50 0 0 0"></polygon>
                <g id="Group-46" transform="translate(4.000000, 6.000000)">
                    <path d="M21.7,1.4 C16.296,1.4 11.9,5.796 11.9,11.2 C11.9,16.604 16.296,21 21.7,21 C27.104,21 31.5,16.604 31.5,11.2 C31.5,5.796 27.104,1.4 21.7,1.4 M21.7,22.4 C15.5246,22.4 10.5,17.3754 10.5,11.2 C10.5,5.0246 15.5246,0 21.7,0 C27.8754,0 32.9,5.0246 32.9,11.2 C32.9,17.3754 27.8754,22.4 21.7,22.4" id="Fill-4"></path>
                    <path d="M20.3,10.5 L22.4,10.5 C23.1168,10.5 23.6999,9.9169 23.6999,9.2001 C23.6999,8.4833 23.1168,7.9002 22.4,7.9002 L20.3,7.9002 L20.3,10.5 Z M22.4,11.9 L19.6,11.9 C19.2129,11.9 18.9,11.5871 18.9,11.2 L18.9,7.2002 C18.9,6.8131 19.2129,6.5002 19.6,6.5002 L22.4,6.5002 C23.8889,6.5002 25.0999,7.7119 25.0999,9.2001 C25.0999,10.689 23.8889,11.9 22.4,11.9 L22.4,11.9 Z" id="Fill-6"></path>
                    <path d="M20.3,14.49973 L23.2001,14.49973 C23.9169,14.49973 24.5,13.91663 24.5,13.20053 C24.5,12.48303 23.9169,11.89993 23.2001,11.89993 L20.3,11.89993 L20.3,14.49973 Z M23.2001,15.89973 L19.6,15.89973 C19.2129,15.89973 18.9,15.58683 18.9,15.19973 L18.9,11.19993 C18.9,10.81283 19.2129,10.49993 19.6,10.49993 L23.2001,10.49993 C24.689,10.49993 25.9,11.71163 25.9,13.20053 C25.9,14.68873 24.689,15.89973 23.2001,15.89973 L23.2001,15.89973 Z" id="Fill-8"></path>
                    <path d="M19.6,7.90027 L18.2,7.90027 C17.8129,7.90027 17.5,7.58737 17.5,7.20027 C17.5,6.81317 17.8129,6.50027 18.2,6.50027 L19.6,6.50027 C19.9871,6.50027 20.3,6.81317 20.3,7.20027 C20.3,7.58737 19.9871,7.90027 19.6,7.90027" id="Fill-10"></path>
                    <path d="M19.6,15.89973 L18.2,15.89973 C17.8129,15.89973 17.5,15.58683 17.5,15.19973 C17.5,14.81263 17.8129,14.49973 18.2,14.49973 L19.6,14.49973 C19.9871,14.49973 20.3,14.81263 20.3,15.19973 C20.3,15.58683 19.9871,15.89973 19.6,15.89973" id="Fill-12"></path>
                    <path d="M20.39982,7.90027 C20.01272,7.90027 19.69982,7.58737 19.69982,7.20027 L19.69982,5.60007 C19.69982,5.21297 20.01272,4.90007 20.39982,4.90007 C20.78692,4.90007 21.09982,5.21297 21.09982,5.60007 L21.09982,7.20027 C21.09982,7.58737 20.78692,7.90027 20.39982,7.90027" id="Fill-14"></path>
                    <path d="M22.4,7.90027 C22.0129,7.90027 21.7,7.58737 21.7,7.20027 L21.7,5.60007 C21.7,5.21297 22.0129,4.90007 22.4,4.90007 C22.7871,4.90007 23.1,5.21297 23.1,5.60007 L23.1,7.20027 C23.1,7.58737 22.7871,7.90027 22.4,7.90027" id="Fill-16"></path>
                    <path d="M20.39982,17.5 C20.01272,17.5 19.69982,17.1871 19.69982,16.8 L19.69982,15.1998 C19.69982,14.8127 20.01272,14.4998 20.39982,14.4998 C20.78692,14.4998 21.09982,14.8127 21.09982,15.1998 L21.09982,16.8 C21.09982,17.1871 20.78692,17.5 20.39982,17.5" id="Fill-18"></path>
                    <path d="M22.4,17.5 C22.0129,17.5 21.7,17.1871 21.7,16.8 L21.7,15.1998 C21.7,14.8127 22.0129,14.4998 22.4,14.4998 C22.7871,14.4998 23.1,14.8127 23.1,15.1998 L23.1,16.8 C23.1,17.1871 22.7871,17.5 22.4,17.5" id="Fill-20"></path>
                    <path d="M42.7,39.2 L0.7,39.2 C0.3129,39.2 0,38.8871 0,38.5 C0,38.1129 0.3129,37.8 0.7,37.8 L42.7,37.8 C43.0871,37.8 43.4,38.1129 43.4,38.5 C43.4,38.8871 43.0871,39.2 42.7,39.2" id="Fill-22"></path>
                    <path d="M0.7,39.2 C0.3129,39.2 0,38.8871 0,38.5 L0,37.24 C0,36.8529 0.3129,36.54 0.7,36.54 C1.0871,36.54 1.4,36.8529 1.4,37.24 L1.4,38.5 C1.4,38.8871 1.0871,39.2 0.7,39.2" id="Fill-24"></path>
                    <path d="M11.2,39.2 C10.8129,39.2 10.5,38.8871 10.5,38.5 L10.5,37.24 C10.5,36.8529 10.8129,36.54 11.2,36.54 C11.5871,36.54 11.9,36.8529 11.9,37.24 L11.9,38.5 C11.9,38.8871 11.5871,39.2 11.2,39.2" id="Fill-26"></path>
                    <path d="M21.7,39.2 C21.3129,39.2 21,38.8871 21,38.5 L21,37.24 C21,36.8529 21.3129,36.54 21.7,36.54 C22.0871,36.54 22.4,36.8529 22.4,37.24 L22.4,38.5 C22.4,38.8871 22.0871,39.2 21.7,39.2" id="Fill-28"></path>
                    <path d="M32.2,39.2 C31.8129,39.2 31.5,38.8871 31.5,38.5 L31.5,37.24 C31.5,36.8529 31.8129,36.54 32.2,36.54 C32.5871,36.54 32.9,36.8529 32.9,37.24 L32.9,38.5 C32.9,38.8871 32.5871,39.2 32.2,39.2" id="Fill-30"></path>
                    <path d="M42.7,39.2 C42.3129,39.2 42,38.8871 42,38.5 L42,37.24 C42,36.8529 42.3129,36.54 42.7,36.54 C43.0871,36.54 43.4,36.8529 43.4,37.24 L43.4,38.5 C43.4,38.8871 43.0871,39.2 42.7,39.2" id="Fill-32"></path>
                    <path d="M0.7,35 C0.5208,35 0.3416,34.9314 0.2051,34.7949 C-0.0686,34.5212 -0.0686,34.0788 0.2051,33.8051 L12.8051,21.2051 C13.0788,20.9314 13.5212,20.9314 13.7949,21.2051 L17.5,24.9102 L25.4051,17.0051 C25.6788,16.7314 26.1212,16.7314 26.3949,17.0051 L34.3,24.9102 L42.1001,17.1101 C42.3731,16.8371 42.8162,16.8371 43.0899,17.1101 C43.3629,17.3838 43.3629,17.8269 43.0899,18.0999 L34.7949,26.3949 C34.5212,26.6686 34.0788,26.6686 33.8051,26.3949 L25.9,18.4898 L17.9949,26.3949 C17.7212,26.6686 17.2788,26.6686 17.0051,26.3949 L13.3,22.6898 L1.1949,34.7949 C1.0584,34.9314 0.8792,35 0.7,35" id="Fill-34"></path>
                    <path d="M42.7,20.3 C42.3129,20.3 42,19.9871 42,19.6 L42,18.2 L40.6,18.2 C40.2129,18.2 39.9,17.8871 39.9,17.5 C39.9,17.1129 40.2129,16.8 40.6,16.8 L42.7,16.8 C43.0871,16.8 43.4,17.1129 43.4,17.5 L43.4,19.6 C43.4,19.9871 43.0871,20.3 42.7,20.3" id="Fill-36"></path>
                    <path d="M31.78028,20.71972 C31.60108,20.71972 31.42188,20.65112 31.28538,20.51462 C31.01168,20.24092 31.01168,19.79852 31.28538,19.52482 L42.20538,8.60482 C42.47838,8.33182 42.92148,8.33182 43.19518,8.60482 C43.46818,8.87852 43.46818,9.32162 43.19518,9.59462 L32.27518,20.51462 C32.13868,20.65112 31.95948,20.71972 31.78028,20.71972" id="Fill-38"></path>
                    <path d="M13.3,35 C13.1208,35 12.9416,34.9314 12.8051,34.7949 L8.1851,30.1749 C7.9121,29.9019 7.9121,29.4588 8.1851,29.1851 C8.4588,28.9121 8.9019,28.9121 9.1749,29.1851 L13.3,33.3102 L17.0051,29.6051 C17.2788,29.3314 17.7212,29.3314 17.9949,29.6051 L19.6,31.2102 L27.9251,22.8851 C28.1981,22.6121 28.6412,22.6121 28.9149,22.8851 C29.1879,23.1588 29.1879,23.6019 28.9149,23.8749 L20.0949,32.6949 C19.8212,32.9686 19.3788,32.9686 19.1051,32.6949 L17.5,31.0898 L13.7949,34.7949 C13.6584,34.9314 13.4792,35 13.3,35" id="Fill-40"></path>
                    <path d="M5.31972,27.01972 C5.14052,27.01972 4.96132,26.95112 4.82482,26.81462 L0.20482,22.19462 C-0.06818,21.92162 -0.06818,21.47852 0.20482,21.20482 C0.47852,20.93182 0.92162,20.93182 1.19462,21.20482 L5.81462,25.82482 C6.08832,26.09852 6.08832,26.54092 5.81462,26.81462 C5.67812,26.95112 5.49892,27.01972 5.31972,27.01972" id="Fill-42"></path>
                    <path d="M42.7,11.9 C42.3129,11.9 42,11.5871 42,11.2 L42,9.8 L40.6,9.8 C40.2129,9.8 39.9,9.4871 39.9,9.1 C39.9,8.7129 40.2129,8.4 40.6,8.4 L42.7,8.4 C43.0871,8.4 43.4,8.7129 43.4,9.1 L43.4,11.2 C43.4,11.5871 43.0871,11.9 42.7,11.9" id="Fill-44"></path>
                </g>
            </g>
        </g>
    </g>
</svg>