<?xml version="1.0" encoding="UTF-8"?>
<svg width="36px" height="36px" viewBox="0 0 36 36" version="1.1" xmlns="http://www.w3.org/2000/svg" xmlns:xlink="http://www.w3.org/1999/xlink">
    <!-- Generator: sketchtool 46.2 (44496) - http://www.bohemiancoding.com/sketch -->
    <title>F9C66341-D6A0-4346-8A04-90641AEE48E2</title>
    <desc>Created with sketchtool.</desc>
    <defs></defs>
    <g id="Page-1" stroke="none" stroke-width="1" fill="none" fill-rule="evenodd">
        <g id="IS_Blockchain-LP-icons" transform="translate(-121.000000, -154.000000)">
            <g id="Identity-Management" transform="translate(114.000000, 147.000000)">
                <polygon id="Fill-1" fill="#FFFFFF" opacity="0" points="0 50 50 50 50 0 0 0"></polygon>
                <g id="Page-1" transform="translate(7.000000, 7.000000)" fill="#1476F2">
                    <path d="M18,1.05439331 C8.65619247,1.05439331 1.05439331,8.65619247 1.05439331,18 C1.05439331,27.3438075 8.65619247,34.9456067 18,34.9456067 C27.3438075,34.9456067 34.9456067,27.3438075 34.9456067,18 C34.9456067,8.65619247 27.3438075,1.05439331 18,1.05439331 M18,36 C13.1920418,36 8.67185774,34.1276987 5.27211715,30.7278828 C1.87230126,27.3281423 0,22.8079582 0,18 C0,13.1920418 1.87230126,8.67185774 5.27211715,5.27204184 C8.67185774,1.87230126 13.1920418,0 18,0 C22.8079582,0 27.3281423,1.87230126 30.7278828,5.27204184 C34.1276987,8.67185774 36,13.1920418 36,18 C36,22.8079582 34.1276987,27.3281423 30.7278828,30.7278828 C27.3281423,34.1276987 22.8079582,36 18,36" id="Fill-1"></path>
                    <path d="M18.5454545,10.8681605 C15.5152737,10.8681605 13.0499847,13.3334354 13.0499847,16.3635989 C13.0499847,19.3938373 15.5152737,21.8591122 18.5454545,21.8591122 C21.5756354,21.8591122 24.0409244,19.3938373 24.0409244,16.3635989 C24.0409244,13.3334354 21.5756354,10.8681605 18.5454545,10.8681605 M18.5454545,22.9090909 C14.9362822,22.9090909 12,19.9727506 12,16.3635989 C12,12.7544472 14.9362822,9.81818182 18.5454545,9.81818182 C22.1546269,9.81818182 25.0909091,12.7544472 25.0909091,16.3635989 C25.0909091,19.9727506 22.1546269,22.9090909 18.5454545,22.9090909" id="Fill-3"></path>
                    <path d="M27.8409106,31.6363636 C27.5522166,31.6363636 27.3181848,31.4103317 27.3181848,31.1315061 C27.3181848,26.5528805 23.1380212,22.827897 18,22.827897 C12.8619041,22.827897 8.68181523,26.5528805 8.68181523,31.1315061 C8.68181523,31.4103317 8.44778343,31.6363636 8.15908944,31.6363636 C7.87032077,31.6363636 7.63636364,31.4103317 7.63636364,31.1315061 C7.63636364,25.9960947 12.2854122,21.8181818 18,21.8181818 C23.7145131,21.8181818 28.3636364,25.9960947 28.3636364,31.1315061 C28.3636364,31.4103317 28.1296046,31.6363636 27.8409106,31.6363636" id="Fill-5"></path>
                </g>
            </g>
        </g>
    </g>
</svg>