<svg xmlns="http://www.w3.org/2000/svg" width="50" height="50" viewBox="0 0 50 50">
  <g fill="none" fill-rule="evenodd">
    <polygon fill="#FFF" points="0 50 50 50 50 0 0 0" opacity="0"/>
    <g fill="#F57F17">
      <path d="M23.6111111,24.3055556 L25.6944444,24.3055556 C26.4055556,24.3055556 26.9840278,23.7270833 26.9840278,23.0159722 C26.9840278,22.3048611 26.4055556,21.7263889 25.6944444,21.7263889 L23.6111111,21.7263889 L23.6111111,24.3055556 Z M25.6944444,25.6944444 L22.9166667,25.6944444 C22.5326389,25.6944444 22.2222222,25.3833333 22.2222222,25 L22.2222222,21.0319444 C22.2222222,20.6479167 22.5326389,20.3375 22.9166667,20.3375 L25.6944444,20.3375 C27.1715278,20.3375 28.3729167,21.5388889 28.3729167,23.0159722 C28.3729167,24.4930556 27.1715278,25.6944444 25.6944444,25.6944444 L25.6944444,25.6944444 Z"/>
      <path d="M23.6111111 28.2738889L26.4881944 28.2738889C27.1993056 28.2738889 27.7777778 27.6954167 27.7777778 26.9843056 27.7777778 26.2731944 27.1993056 25.6947222 26.4881944 25.6947222L23.6111111 25.6947222 23.6111111 28.2738889zM26.4881944 29.6627778L22.9166667 29.6627778C22.5326389 29.6627778 22.2222222 29.3516667 22.2222222 28.9683333L22.2222222 25.0002778C22.2222222 24.61625 22.5326389 24.3058333 22.9166667 24.3058333L26.4881944 24.3058333C27.9652778 24.3058333 29.1666667 25.5072222 29.1666667 26.9843056 29.1666667 28.4613889 27.9652778 29.6627778 26.4881944 29.6627778L26.4881944 29.6627778zM22.9166667 21.7261111L21.5277778 21.7261111C21.14375 21.7261111 20.8333333 21.415 20.8333333 21.0316667 20.8333333 20.6483333 21.14375 20.3372222 21.5277778 20.3372222L22.9166667 20.3372222C23.3006944 20.3372222 23.6111111 20.6483333 23.6111111 21.0316667 23.6111111 21.415 23.3006944 21.7261111 22.9166667 21.7261111"/>
      <path d="M22.9166667 29.6627778L21.5277778 29.6627778C21.14375 29.6627778 20.8333333 29.3516667 20.8333333 28.9683333 20.8333333 28.585 21.14375 28.2738889 21.5277778 28.2738889L22.9166667 28.2738889C23.3006944 28.2738889 23.6111111 28.585 23.6111111 28.9683333 23.6111111 29.3516667 23.3006944 29.6627778 22.9166667 29.6627778M23.7101389 21.7261111C23.3261111 21.7261111 23.0156944 21.415 23.0156944 21.0316667L23.0156944 19.4441667C23.0156944 19.0608333 23.3261111 18.7497222 23.7101389 18.7497222 24.0941667 18.7497222 24.4045833 19.0608333 24.4045833 19.4441667L24.4045833 21.0316667C24.4045833 21.415 24.0941667 21.7261111 23.7101389 21.7261111M25.6944444 21.7261111C25.3104167 21.7261111 25 21.415 25 21.0316667L25 19.4441667C25 19.0608333 25.3104167 18.7497222 25.6944444 18.7497222 26.0784722 18.7497222 26.3888889 19.0608333 26.3888889 19.4441667L26.3888889 21.0316667C26.3888889 21.415 26.0784722 21.7261111 25.6944444 21.7261111"/>
      <path d="M23.7101389 31.25C23.3261111 31.25 23.0156944 30.9388889 23.0156944 30.5555556L23.0156944 28.9680556C23.0156944 28.5847222 23.3261111 28.2736111 23.7101389 28.2736111 24.0941667 28.2736111 24.4045833 28.5847222 24.4045833 28.9680556L24.4045833 30.5555556C24.4045833 30.9388889 24.0941667 31.25 23.7101389 31.25M25.6944444 31.25C25.3104167 31.25 25 30.9388889 25 30.5555556L25 28.9680556C25 28.5847222 25.3104167 28.2736111 25.6944444 28.2736111 26.0784722 28.2736111 26.3888889 28.5847222 26.3888889 28.9680556L26.3888889 30.5555556C26.3888889 30.9388889 26.0784722 31.25 25.6944444 31.25"/>
      <path d="M25,13.5416667 C18.6819444,13.5416667 13.5416667,18.6819444 13.5416667,25 C13.5416667,31.3180556 18.6819444,36.4583333 25,36.4583333 C31.3180556,36.4583333 36.4583333,31.3180556 36.4583333,25 C36.4583333,18.6819444 31.3180556,13.5416667 25,13.5416667 M25,37.8472222 C17.9159722,37.8472222 12.1527778,32.0840278 12.1527778,25 C12.1527778,17.9159722 17.9159722,12.1527778 25,12.1527778 C32.0840278,12.1527778 37.8472222,17.9159722 37.8472222,25 C37.8472222,32.0840278 32.0840278,37.8472222 25,37.8472222"/>
      <path d="M25,5.43993056 C14.2145833,5.43993056 5.43958333,14.2142361 5.43958333,25.0003472 C5.43958333,35.7857639 14.2145833,44.5600694 25,44.5600694 C35.7854167,44.5600694 44.5604167,35.7857639 44.5604167,25.0003472 C44.5604167,14.2142361 35.7854167,5.43993056 25,5.43993056 M25,45.9489583 C13.4486111,45.9489583 4.05069444,36.5510417 4.05069444,25.0003472 C4.05069444,13.4489583 13.4486111,4.05104167 25,4.05104167 C36.5513889,4.05104167 45.9493056,13.4489583 45.9493056,25.0003472 C45.9493056,36.5510417 36.5513889,45.9489583 25,45.9489583"/>
      <path d="M25 17.5927083C24.6159722 17.5927083 24.3055556 17.2815972 24.3055556 16.8982639L24.3055556.694791667C24.3055556.310763889 24.6159722.000347222222 25 .000347222222 25.3840278.000347222222 25.6944444.310763889 25.6944444.694791667L25.6944444 16.8982639C25.6944444 17.2815972 25.3840278 17.5927083 25 17.5927083M25 50C24.6159722 50 24.3055556 49.6888889 24.3055556 49.3055556L24.3055556 33.1020833C24.3055556 32.7180556 24.6159722 32.4076389 25 32.4076389 25.3840278 32.4076389 25.6944444 32.7180556 25.6944444 33.1020833L25.6944444 49.3055556C25.6944444 49.6888889 25.3840278 50 25 50M16.8979167 25.6944444L.694444444 25.6944444C.310416667 25.6944444-3.55271368e-15 25.3833333-3.55271368e-15 25-3.55271368e-15 24.6166667.310416667 24.3055556.694444444 24.3055556L16.8979167 24.3055556C17.2819444 24.3055556 17.5923611 24.6166667 17.5923611 25 17.5923611 25.3833333 17.2819444 25.6944444 16.8979167 25.6944444M49.3055556 25.6944444L33.1020833 25.6944444C32.7180556 25.6944444 32.4076389 25.3833333 32.4076389 25 32.4076389 24.6166667 32.7180556 24.3055556 33.1020833 24.3055556L49.3055556 24.3055556C49.6895833 24.3055556 50 24.6166667 50 25 50 25.3833333 49.6895833 25.6944444 49.3055556 25.6944444"/>
    </g>
  </g>
</svg>
