<?xml version="1.0" encoding="UTF-8"?>
<svg width="45px" height="40px" viewBox="0 0 45 40" version="1.1" xmlns="http://www.w3.org/2000/svg" xmlns:xlink="http://www.w3.org/1999/xlink">
    <!-- Generator: sketchtool 46.2 (44496) - http://www.bohemiancoding.com/sketch -->
    <title>EBDECD7D-5E77-408C-82CC-67FB14C2728A</title>
    <desc>Created with sketchtool.</desc>
    <defs></defs>
    <g id="Page-1" stroke="none" stroke-width="1" fill="none" fill-rule="evenodd">
        <g id="IS_Blockchain-LP-icons" transform="translate(-998.000000, -158.000000)">
            <g id="Marketplace" transform="translate(996.000000, 153.000000)">
                <rect id="Rectangle-8" fill="#FFFFFF" opacity="0" x="0" y="0" width="50" height="50"></rect>
                <g id="Group-34" transform="translate(2.000000, 5.000000)" fill="#1476F2">
                    <path d="M23,4.9 L2.44314,4.9 C1.48204,4.9 0.70014,5.6819 0.70014,6.643 L0.70014,30.457 C0.70014,31.4181 1.48204,32.2 2.44314,32.2 L42.35714,32.2 C43.31824,32.2 44.10014,31.4181 44.10014,30.457 L44.10014,6.643 C44.10014,5.6819 43.31824,4.9 42.35714,4.9 L36,4.9 L36,6.3 L42.35714,6.3 C42.54614,6.3 42.70014,6.454 42.70014,6.643 L42.70014,30.457 C42.70014,30.646 42.54614,30.8 42.35714,30.8 L2.44314,30.8 C2.25344,30.8 2.10014,30.646 2.10014,30.457 L2.10014,6.643 C2.10014,6.454 2.25344,6.3 2.44314,6.3 L23,6.3 L23,4.9 Z" id="Combined-Shape"></path>
                    <path d="M14.85379,37.8 L29.94649,37.8 L28.82649,32.2 L15.97379,32.2 L14.85379,37.8 Z M30.79979,39.2 L13.99979,39.2 C13.78979,39.2 13.59169,39.1055 13.45869,38.9438 C13.32569,38.7814 13.27249,38.5686 13.31379,38.3628 L14.71379,31.3628 C14.77959,31.0359 15.06659,30.8 15.39979,30.8 L29.39979,30.8 C29.73369,30.8 30.02069,31.0359 30.08649,31.3628 L31.48649,38.3628 C31.52709,38.5686 31.47389,38.7814 31.34159,38.9438 C31.20789,39.1055 31.00979,39.2 30.79979,39.2 L30.79979,39.2 Z" id="Fill-6"></path>
                    <path d="M36.4,39.2 L8.4,39.2 C8.0129,39.2 7.7,38.8871 7.7,38.5 C7.7,38.1129 8.0129,37.8 8.4,37.8 L36.4,37.8 C36.7871,37.8 37.1,38.1129 37.1,38.5 C37.1,38.8871 36.7871,39.2 36.4,39.2" id="Fill-8"></path>
                    <path d="M29.4,1.4 C25.9259,1.4 23.1,4.2259 23.1,7.7 C23.1,11.1741 25.9259,14 29.4,14 C32.8741,14 35.7,11.1741 35.7,7.7 C35.7,4.2259 32.8741,1.4 29.4,1.4 M29.4,15.4 C25.1545,15.4 21.7,11.9455 21.7,7.7 C21.7,3.4545 25.1545,0 29.4,0 C33.6455,0 37.1,3.4545 37.1,7.7 C37.1,11.9455 33.6455,15.4 29.4,15.4" id="Fill-12"></path>
                    <path d="M28.7,7 L29.8669,7 C30.2162,7 30.4997,6.7158 30.4997,6.3665 C30.4997,6.0172 30.2162,5.733 29.8669,5.733 L28.7,5.733 L28.7,7 Z M29.8669,8.4 L28,8.4 C27.6129,8.4 27.3,8.0871 27.3,7.7 L27.3,5.033 C27.3,4.6466 27.6129,4.333 28,4.333 L29.8669,4.333 C30.9883,4.333 31.8997,5.2451 31.8997,6.3665 C31.8997,7.4872 30.9883,8.4 29.8669,8.4 L29.8669,8.4 Z" id="Fill-14"></path>
                    <path d="M28.7,9.66672 L30.4003,9.66672 C30.7496,9.66672 31.0331,9.38322 31.0331,9.03392 C31.0331,8.68462 30.7496,8.39972 30.4003,8.39972 L28.7,8.39972 L28.7,9.66672 Z M30.4003,11.06672 L28,11.06672 C27.6129,11.06672 27.3,10.75382 27.3,10.36672 L27.3,7.69972 C27.3,7.31332 27.6129,6.99972 28,6.99972 L30.4003,6.99972 C31.521,6.99972 32.4331,7.91252 32.4331,9.03392 C32.4331,10.15462 31.521,11.06672 30.4003,11.06672 L30.4003,11.06672 Z" id="Fill-16"></path>
                    <path d="M28,5.73328 L27.0669,5.73328 C26.6798,5.73328 26.3669,5.42038 26.3669,5.03328 C26.3669,4.64618 26.6798,4.33328 27.0669,4.33328 L28,4.33328 C28.3871,4.33328 28.7,4.64618 28.7,5.03328 C28.7,5.42038 28.3871,5.73328 28,5.73328" id="Fill-18"></path>
                    <path d="M28,11.06672 L27.0669,11.06672 C26.6798,11.06672 26.3669,10.75382 26.3669,10.36672 C26.3669,9.97962 26.6798,9.66672 27.0669,9.66672 L28,9.66672 C28.3871,9.66672 28.7,9.97962 28.7,10.36672 C28.7,10.75382 28.3871,11.06672 28,11.06672" id="Fill-20"></path>
                    <path d="M28.53319,5.73328 C28.14609,5.73328 27.83319,5.42038 27.83319,5.03328 L27.83319,3.96718 C27.83319,3.58008 28.14609,3.26718 28.53319,3.26718 C28.92029,3.26718 29.23319,3.58008 29.23319,3.96718 L29.23319,5.03328 C29.23319,5.42038 28.92029,5.73328 28.53319,5.73328" id="Fill-22"></path>
                    <path d="M29.8669,5.73328 C29.4798,5.73328 29.1669,5.42038 29.1669,5.03328 L29.1669,3.96718 C29.1669,3.58008 29.4798,3.26718 29.8669,3.26718 C30.254,3.26718 30.5669,3.58008 30.5669,3.96718 L30.5669,5.03328 C30.5669,5.42038 30.254,5.73328 29.8669,5.73328" id="Fill-24"></path>
                    <path d="M28.53319,12.1331 C28.14609,12.1331 27.83319,11.8202 27.83319,11.4331 L27.83319,10.367 C27.83319,9.9799 28.14609,9.667 28.53319,9.667 C28.92029,9.667 29.23319,9.9799 29.23319,10.367 L29.23319,11.4331 C29.23319,11.8202 28.92029,12.1331 28.53319,12.1331" id="Fill-26"></path>
                    <path d="M29.8669,12.1331 C29.4798,12.1331 29.1669,11.8202 29.1669,11.4331 L29.1669,10.367 C29.1669,9.9799 29.4798,9.667 29.8669,9.667 C30.254,9.667 30.5669,9.9799 30.5669,10.367 L30.5669,11.4331 C30.5669,11.8202 30.254,12.1331 29.8669,12.1331" id="Fill-28"></path>
                    <path d="M43.4,29.4 L1.4,29.4 C1.0129,29.4 0.7,29.0871 0.7,28.7 C0.7,28.3129 1.0129,28 1.4,28 L43.4,28 C43.7871,28 44.1,28.3129 44.1,28.7 C44.1,29.0871 43.7871,29.4 43.4,29.4" id="Fill-30"></path>
                    <path d="M8.4,25.2 C8.3125,25.2 8.2243,25.1839 8.1403,25.1503 L1.1403,22.3503 C0.7812,22.2068 0.6062,21.7994 0.7497,21.4403 C0.8932,21.0798 1.3027,20.9069 1.6597,21.0497 L8.281,23.6985 L14.9625,18.3533 C15.1914,18.1706 15.5099,18.1496 15.7605,18.3001 L22.3426,22.2495 L28.9625,16.9533 C29.1235,16.8245 29.3342,16.7748 29.5372,16.814 L36.1305,18.1321 L42.8638,10.1108 C43.1116,9.8147 43.5533,9.7769 43.8501,10.0247 C44.1462,10.2732 44.1847,10.7149 43.9362,11.0103 L36.9362,19.3501 C36.7717,19.5461 36.5127,19.6343 36.2628,19.586 L29.5827,18.2504 L22.8375,23.6467 C22.6086,23.8287 22.2901,23.8504 22.0395,23.6999 L15.4574,19.7505 L8.8375,25.0467 C8.7108,25.1475 8.5568,25.2 8.4,25.2" id="Fill-32"></path>
                </g>
            </g>
        </g>
    </g>
</svg>