<?xml version="1.0" encoding="UTF-8"?>
<svg width="25px" height="38px" viewBox="0 0 25 38" version="1.1" xmlns="http://www.w3.org/2000/svg" xmlns:xlink="http://www.w3.org/1999/xlink">
    <!-- Generator: sketchtool 46.2 (44496) - http://www.bohemiancoding.com/sketch -->
    <title>13DCF440-EF65-455A-9143-EB7E7C834A69</title>
    <desc>Created with sketchtool.</desc>
    <defs></defs>
    <g id="Page-1" stroke="none" stroke-width="1" fill="none" fill-rule="evenodd">
        <g id="IS_Blockchain-LP-icons" transform="translate(-124.000000, -640.000000)">
            <g id="Page-1-Copy-2" transform="translate(111.000000, 634.000000)">
                <polygon id="Fill-1" fill="#FFFFFF" opacity="0" points="0 50 50 50 50 0 0 0"></polygon>
                <g id="Page-1" transform="translate(13.000000, 6.000000)" fill="#1476F2">
                    <path d="M12.0339,-0.0004 L-0.0001,19.3186 L12.0339,26.2536 L24.0669,19.3186 L12.0339,-0.0004 Z M12.4219,14.2466 L12.4219,2.0416 L22.8549,18.7896 L12.4219,14.2466 Z M11.6449,2.0416 L11.6449,14.2466 L1.2119,18.7896 L11.6449,2.0416 Z M12.4219,15.0646 L22.4029,19.4116 L12.4219,25.1646 L12.4219,15.0646 Z M1.6639,19.4116 L11.6449,15.0646 L11.6449,25.1646 L1.6639,19.4116 Z" id="Fill-1"></path>
                    <path d="M12.0339,28.463 L0.3199,21.511 L12.0339,37.917 L23.7479,21.511 L12.0339,28.463 Z M12.4159,29.108 L21.0669,23.973 L12.0339,36.626 L2.9999,23.973 L11.6509,29.108 L12.0339,29.335 L12.4159,29.108 Z" id="Fill-2"></path>
                </g>
            </g>
        </g>
    </g>
</svg>