<?xml version="1.0" encoding="UTF-8"?>
<svg width="25px" height="34px" viewBox="0 0 25 34" version="1.1" xmlns="http://www.w3.org/2000/svg" xmlns:xlink="http://www.w3.org/1999/xlink">
    <!-- Generator: sketchtool 46.2 (44496) - http://www.bohemiancoding.com/sketch -->
    <title>58BEB626-5CB9-47AD-850B-4F048DD7C9A9</title>
    <desc>Created with sketchtool.</desc>
    <defs></defs>
    <g id="Page-1" stroke="none" stroke-width="1" fill="none" fill-rule="evenodd">
        <g id="IS_Blockchain-LP-icons" transform="translate(-124.000000, -587.000000)">
            <g id="Page-1-Copy" transform="translate(111.000000, 578.000000)">
                <polygon id="Fill-1" fill="#FFFFFF" opacity="0" points="0 50 50 50 50 0 0 0"></polygon>
                <g id="Page-1" transform="translate(13.000000, 8.000000)" fill="#1476F2">
                    <path d="M14.9872,22.6247 L14.9862,22.8017 C14.9752,24.1127 13.8532,25.2287 12.5312,25.2197 L10.5202,25.2037 L10.5592,20.1547 L12.5702,20.1697 C13.9132,20.1797 14.9972,21.2817 14.9872,22.6247 M12.5772,19.1707 L9.5662,19.1477 L9.5132,26.1967 L12.5242,26.2197 C12.8392,26.2217 13.1522,26.1817 13.4542,26.0997 C14.9332,25.6977 15.9742,24.3447 15.9862,22.8097 L15.9872,22.6317 C16.0012,20.7377 14.4722,19.1847 12.5772,19.1707" id="Fill-1"></path>
                    <path d="M13.9672,12.6776 L13.9662,12.8366 C13.9572,13.9806 12.9752,14.9566 11.8232,14.9476 L10.5982,14.9376 L10.6322,10.5256 L11.8572,10.5346 C13.0292,10.5436 13.9752,11.5046 13.9672,12.6776 M11.8642,9.5346 L9.6392,9.5176 L9.5912,15.9306 L11.8152,15.9466 C12.1022,15.9486 12.3872,15.9126 12.6612,15.8386 C14.0072,15.4716 14.9552,14.2406 14.9662,12.8446 L14.9672,12.6846 C14.9802,10.9606 13.5882,9.5476 11.8642,9.5346" id="Fill-3"></path>
                    <g id="Group-7" transform="translate(0.000000, 0.153800)">
                        <path d="M22.6399,26.7999 C21.4979,28.6819 19.3959,29.8529 17.1859,29.8359 L16.1339,29.8339 L16.0039,32.9929 L12.3349,32.9649 L12.4649,29.8059 L7.9089,29.7719 L7.7789,32.9309 L4.1099,32.9029 L4.2399,29.7439 L1.0069,29.7189 L1.0339,26.2219 L2.8169,26.2349 L2.9489,8.9149 L1.1649,8.9019 L1.1919,5.4039 L4.4079,5.4289 L4.4349,1.8539 L8.1039,1.8819 L8.0769,5.4569 L12.6319,5.4909 L12.6599,1.9159 L16.3289,1.9439 L16.3019,5.5139 L16.7749,5.5429 C18.8169,5.6699 20.6189,6.8089 21.5959,8.5899 C22.6089,10.4369 22.5579,12.7029 21.4659,14.5029 C20.9219,15.3989 20.1429,16.1369 19.2139,16.6379 L18.2089,17.1789 L19.2879,17.5509 C20.7869,18.0669 22.0269,19.1069 22.7789,20.4779 C23.8619,22.4519 23.8089,24.8749 22.6399,26.7999 M20.5239,16.9879 C21.2429,16.4559 21.8549,15.7889 22.3199,15.0219 C23.5979,12.9179 23.6559,10.2689 22.4729,8.1089 C21.4059,6.1639 19.4989,4.8739 17.3089,4.5899 L17.3369,0.9509 L11.6669,0.9089 L11.6399,4.4839 L9.0839,4.4639 L9.1119,0.8889 L3.4419,0.8459 L3.4149,4.4219 L0.1999,4.3969 L0.1579,9.8939 L1.9409,9.9079 L1.8249,25.2279 L0.0409,25.2149 L-0.0001,30.7119 L3.1989,30.7359 L3.0679,33.8949 L8.7379,33.9379 L8.8689,30.7789 L11.4229,30.7979 L11.2929,33.9569 L16.9629,33.9999 L17.0929,30.8419 L17.6539,30.8399 L17.6549,30.8239 C18.1639,30.7949 18.6689,30.7129 19.1609,30.5789 C20.9789,30.0849 22.5179,28.9269 23.4949,27.3189 C24.8479,25.0889 24.9099,22.2839 23.6559,19.9969 C22.9419,18.6949 21.8489,17.6509 20.5239,16.9879" id="Fill-5"></path>
                    </g>
                </g>
            </g>
        </g>
    </g>
</svg>