<?xml version="1.0" encoding="UTF-8"?>
<svg width="35px" height="44px" viewBox="0 0 35 44" version="1.1" xmlns="http://www.w3.org/2000/svg" xmlns:xlink="http://www.w3.org/1999/xlink">
    <!-- Generator: sketchtool 46.2 (44496) - http://www.bohemiancoding.com/sketch -->
    <title>62177FCF-622C-4B15-8F86-596CD51C0050</title>
    <desc>Created with sketchtool.</desc>
    <defs></defs>
    <g id="Page-1" stroke="none" stroke-width="1" fill="none" fill-rule="evenodd">
        <g id="IS_Blockchain-LP-icons" transform="translate(-121.000000, -275.000000)">
            <g id="Secured-Crowdfunding" transform="translate(113.000000, 271.000000)">
                <polygon id="Fill-1" fill="#FFFFFF" opacity="0" points="0 50 50 50 50 0 0 0"></polygon>
                <g id="Group-22" transform="translate(8.000000, 4.000000)" fill="#1476F2">
                    <path d="M1.4007,1.58697 L1.421,27.81597 C1.4245,31.54907 3.4986,34.90487 6.8341,36.57297 L17.5133,41.91747 L28.1876,36.57647 C31.5259,34.90557 33.6,31.54627 33.6,27.81037 L33.6,1.58627 C28.2681,2.78677 22.7759,2.78957 17.5063,1.62757 C12.2206,2.79447 6.6766,2.78047 1.4007,1.58697 M17.5133,43.40007 C17.4055,43.40007 17.2984,43.37557 17.1997,43.32587 L6.2076,37.82527 C2.3954,35.91847 0.0245,32.08317 0.021,27.81737 L0,0.70077 C0,0.48517 0.0994,0.28147 0.2688,0.14847 C0.4389,0.01547 0.6622,-0.03143 0.8694,0.02107 L0.9478,0.04067 C6.3007,1.37627 11.9686,1.43997 17.353,0.22687 C17.4678,0.20167 17.5868,0.20447 17.6995,0.23667 C23.0167,1.43157 28.728,1.37277 34.0837,0.03227 C34.2923,-0.02023 34.538,0.02107 34.7081,0.15407 C34.8775,0.28707 35,0.48447 35,0.70007 L35,27.81037 C35,32.08037 32.6291,35.91847 28.8134,37.82807 L17.8262,43.32587 C17.7275,43.37557 17.6204,43.40007 17.5133,43.40007" id="Fill-2"></path>
                    <path d="M20.44014,4.91267 C20.41074,4.91267 20.38064,4.91127 20.34984,4.90707 C19.64214,4.81607 18.92884,4.69777 18.22954,4.55637 C17.85084,4.47937 17.60514,4.11047 17.68214,3.73177 C17.75914,3.35237 18.12804,3.10667 18.50674,3.18437 C19.17384,3.31877 19.85424,3.43147 20.52904,3.51827 C20.91264,3.56797 21.18354,3.91867 21.13384,4.30227 C21.08834,4.65507 20.78734,4.91267 20.44014,4.91267 L20.44014,4.91267 Z M14.23954,4.95397 C13.88884,4.95397 13.58644,4.69147 13.54444,4.33447 C13.49964,3.95087 13.77544,3.60297 14.15834,3.55817 C14.83454,3.47977 15.51634,3.37477 16.18344,3.24737 C16.56214,3.17737 16.92894,3.42307 17.00244,3.80317 C17.07454,4.18327 16.82604,4.54937 16.44594,4.62217 C15.74594,4.75587 15.03054,4.86647 14.32144,4.94907 C14.29344,4.95257 14.26614,4.95397 14.23954,4.95397 L14.23954,4.95397 Z M7.95284,5.00227 C7.92974,5.00227 7.90594,5.00157 7.88214,4.99947 C7.17164,4.92737 6.45484,4.82867 5.75204,4.70617 C5.37124,4.63967 5.11574,4.27707 5.18224,3.89557 C5.24874,3.51547 5.61204,3.25787 5.99214,3.32717 C6.66204,3.44407 7.34524,3.53787 8.02284,3.60577 C8.40714,3.64497 8.68784,3.98797 8.64864,4.37297 C8.61294,4.73347 8.30844,5.00227 7.95284,5.00227 L7.95284,5.00227 Z M26.72544,5.03307 C26.36704,5.03307 26.06114,4.75937 26.02824,4.39537 C25.99464,4.01037 26.27814,3.67017 26.66314,3.63587 C27.34144,3.57497 28.02604,3.48817 28.69594,3.37967 C29.08374,3.31667 29.43794,3.57637 29.49954,3.95717 C29.56184,4.33937 29.30284,4.69847 28.92134,4.76077 C28.21784,4.87557 27.50034,4.96657 26.78844,5.03027 C26.76674,5.03167 26.74574,5.03307 26.72544,5.03307 L26.72544,5.03307 Z M24.13474,5.14857 C23.58664,5.14857 23.03854,5.13387 22.49114,5.10307 C22.10474,5.08207 21.80934,4.75167 21.83104,4.36527 C21.85274,3.97957 22.17684,3.67717 22.56884,3.70517 C23.25064,3.74367 23.93384,3.75697 24.61774,3.74507 L24.62894,3.74507 C25.01044,3.74507 25.32334,4.05097 25.32894,4.43317 C25.33524,4.81957 25.02724,5.13807 24.64084,5.14507 C24.47214,5.14717 24.30414,5.14857 24.13474,5.14857 L24.13474,5.14857 Z M10.86974,5.14997 C10.58834,5.14997 10.30694,5.14577 10.02694,5.13807 C9.63984,5.12687 9.33604,4.80487 9.34654,4.41777 C9.35774,4.03207 9.67134,3.72407 10.06684,3.73877 C10.75074,3.75837 11.43394,3.75347 12.11574,3.72267 C12.49794,3.71707 12.82904,4.00477 12.84584,4.39117 C12.86334,4.77757 12.56374,5.10377 12.17734,5.12127 C11.74194,5.14017 11.30584,5.14997 10.86974,5.14997 L10.86974,5.14997 Z M31.50014,5.64767 C31.11304,5.64767 30.80014,5.33477 30.80014,4.94767 L30.80014,4.35547 C30.51034,4.32747 30.25694,4.11957 30.18624,3.81997 C30.09664,3.44407 30.32904,3.06677 30.70494,2.97717 C30.89744,2.93097 31.09134,2.88337 31.28384,2.83297 C31.49524,2.77767 31.73744,2.81827 31.90894,2.95057 C32.08044,3.08357 32.20014,3.28307 32.20014,3.50007 L32.20014,4.94767 C32.20014,5.33477 31.88724,5.64767 31.50014,5.64767 L31.50014,5.64767 Z M3.50154,5.97177 C3.11514,5.97177 2.80154,5.65817 2.80154,5.27247 L2.80014,3.50077 C2.80014,3.28377 2.89954,3.07937 3.07174,2.94707 C3.24184,2.81407 3.46234,2.76717 3.67514,2.82247 L3.98874,2.90227 C4.36394,2.99747 4.59074,3.37757 4.49694,3.75277 C4.45144,3.92987 4.34294,4.07477 4.20084,4.16787 L4.20154,5.27107 C4.20154,5.65747 3.88794,5.97107 3.50224,5.97177 L3.50154,5.97177 Z M31.50014,9.84767 C31.11304,9.84767 30.80014,9.53477 30.80014,9.14767 L30.80014,7.04767 C30.80014,6.66127 31.11304,6.34767 31.50014,6.34767 C31.88724,6.34767 32.20014,6.66127 32.20014,7.04767 L32.20014,9.14767 C32.20014,9.53477 31.88724,9.84767 31.50014,9.84767 L31.50014,9.84767 Z M3.50504,10.17177 C3.11864,10.17177 2.80574,9.85817 2.80504,9.47247 L2.80294,7.37247 C2.80224,6.98537 3.11514,6.67177 3.50224,6.67177 L3.50294,6.67177 C3.88864,6.67177 4.20224,6.98467 4.20294,7.37107 L4.20504,9.47107 C4.20574,9.85747 3.89214,10.17107 3.50574,10.17177 L3.50504,10.17177 Z M31.50014,14.04767 C31.11304,14.04767 30.80014,13.73477 30.80014,13.34767 L30.80014,11.24767 C30.80014,10.86127 31.11304,10.54767 31.50014,10.54767 C31.88724,10.54767 32.20014,10.86127 32.20014,11.24767 L32.20014,13.34767 C32.20014,13.73477 31.88724,14.04767 31.50014,14.04767 L31.50014,14.04767 Z M3.50784,14.37177 C3.12144,14.37177 2.80784,14.05817 2.80784,13.67177 L2.80644,11.57177 C2.80644,11.18537 3.11934,10.87177 3.50574,10.87177 L3.50644,10.87177 C3.89214,10.87177 4.20644,11.18467 4.20644,11.57107 L4.20784,13.67107 C4.20784,14.05747 3.89424,14.37107 3.50854,14.37177 L3.50784,14.37177 Z M31.50014,18.24767 C31.11304,18.24767 30.80014,17.93477 30.80014,17.54767 L30.80014,15.44767 C30.80014,15.06127 31.11304,14.74767 31.50014,14.74767 C31.88724,14.74767 32.20014,15.06127 32.20014,15.44767 L32.20014,17.54767 C32.20014,17.93477 31.88724,18.24767 31.50014,18.24767 L31.50014,18.24767 Z M3.51064,18.57177 C3.12494,18.57177 2.81064,18.25817 2.81064,17.87177 L2.80924,15.77177 C2.80924,15.38537 3.12284,15.07177 3.50924,15.07177 L3.50924,15.07177 C3.89564,15.07177 4.20924,15.38467 4.20924,15.77107 L4.21064,17.87107 C4.21064,18.25747 3.89774,18.57107 3.51134,18.57177 L3.51064,18.57177 Z M31.50014,22.44767 C31.11304,22.44767 30.80014,22.13477 30.80014,21.74767 L30.80014,19.64767 C30.80014,19.26127 31.11304,18.94767 31.50014,18.94767 C31.88724,18.94767 32.20014,19.26127 32.20014,19.64767 L32.20014,21.74767 C32.20014,22.13477 31.88724,22.44767 31.50014,22.44767 L31.50014,22.44767 Z M3.51414,22.77177 C3.12844,22.77177 2.81484,22.45817 2.81414,22.07247 L2.81204,19.97247 C2.81134,19.58537 3.12494,19.27177 3.51134,19.27177 L3.51204,19.27177 C3.89844,19.27177 4.21134,19.58467 4.21204,19.97107 L4.21414,22.07107 C4.21484,22.45747 3.90194,22.77107 3.51484,22.77177 L3.51414,22.77177 Z M31.50014,26.64767 C31.11304,26.64767 30.80014,26.33477 30.80014,25.94767 L30.80014,23.84767 C30.80014,23.46127 31.11304,23.14767 31.50014,23.14767 C31.88724,23.14767 32.20014,23.46127 32.20014,23.84767 L32.20014,25.94767 C32.20014,26.33477 31.88724,26.64767 31.50014,26.64767 L31.50014,26.64767 Z M3.51694,26.97177 C3.13054,26.97177 2.81694,26.65817 2.81694,26.27177 L2.81554,24.17177 C2.81554,23.78537 3.12914,23.47177 3.51484,23.47177 L3.51554,23.47177 C3.90194,23.47177 4.21554,23.78467 4.21554,24.17107 L4.21694,26.27107 C4.21694,26.65747 3.90404,26.97107 3.51764,26.97177 L3.51694,26.97177 Z M30.97934,30.79027 C30.90234,30.79027 30.82534,30.77767 30.74974,30.75107 C30.38364,30.62437 30.19114,30.22537 30.31784,29.85997 C30.52994,29.25027 30.67414,28.61397 30.74624,27.96857 C30.78964,27.58427 31.13334,27.30917 31.51974,27.35047 C31.90404,27.39317 32.17984,27.73967 32.13784,28.12397 C32.05384,28.87297 31.88724,29.61147 31.64014,30.31987 C31.53934,30.60897 31.26914,30.79027 30.97934,30.79027 L30.97934,30.79027 Z M4.15044,31.09267 C3.87044,31.09267 3.60514,30.92257 3.49804,30.64537 C3.22784,29.94677 3.03534,29.21457 2.92544,28.46837 C2.86804,28.08617 3.13264,27.73057 3.51554,27.67387 C3.89984,27.61787 4.25404,27.88177 4.31004,28.26397 C4.40524,28.90797 4.57114,29.53867 4.80354,30.13997 C4.94284,30.50047 4.76364,30.90577 4.40314,31.04577 C4.32054,31.07727 4.23514,31.09267 4.15044,31.09267 L4.15044,31.09267 Z M28.76034,34.31197 C28.57904,34.31197 28.39774,34.24197 28.26124,34.10267 C27.98964,33.82687 27.99384,33.38377 28.26964,33.11287 C28.72744,32.66277 29.13484,32.15597 29.47994,31.60647 C29.68714,31.27957 30.11904,31.18157 30.44524,31.38667 C30.77284,31.59247 30.87084,32.02437 30.66504,32.35197 C30.26184,32.99317 29.78654,33.58467 29.25104,34.11107 C29.11454,34.24547 28.93744,34.31197 28.76034,34.31197 L28.76034,34.31197 Z M6.49264,34.53247 C6.32394,34.53247 6.15524,34.47227 6.02014,34.34977 C5.46574,33.84297 4.96874,33.26757 4.54384,32.64107 C4.32614,32.32117 4.41014,31.88577 4.73004,31.66877 C5.04924,31.45177 5.48464,31.53507 5.70164,31.85497 C6.06634,32.39117 6.49054,32.88327 6.96514,33.31587 C7.25004,33.57697 7.27034,34.01937 7.00924,34.30497 C6.87134,34.45617 6.68234,34.53247 6.49264,34.53247 L6.49264,34.53247 Z M25.24704,36.57437 C24.99434,36.57437 24.75004,36.43717 24.62544,36.19707 C24.44764,35.85477 24.58064,35.43197 24.92294,35.25347 L26.34394,34.51427 C26.48114,34.44357 26.61344,34.36867 26.74434,34.29097 C27.07614,34.09357 27.50594,34.20137 27.70404,34.53387 C27.90144,34.86637 27.79294,35.29547 27.46044,35.49357 C27.30714,35.58527 27.14964,35.67277 26.98864,35.75677 L25.56974,36.49527 C25.46684,36.54917 25.35554,36.57437 25.24704,36.57437 L25.24704,36.57437 Z M10.05914,36.72207 C9.95064,36.72207 9.83934,36.69687 9.73644,36.64367 L7.86394,35.66717 C7.52444,35.48377 7.39704,35.05887 7.58114,34.71867 C7.76454,34.37847 8.18874,34.25177 8.52964,34.43517 L10.38324,35.40117 C10.72554,35.57967 10.85854,36.00247 10.68074,36.34547 C10.55614,36.58557 10.31184,36.72207 10.05914,36.72207 L10.05914,36.72207 Z M21.52164,38.51267 C21.26894,38.51267 21.02464,38.37617 20.90004,38.13607 C20.72154,37.79307 20.85524,37.37027 21.19754,37.19177 L23.06024,36.22297 C23.40324,36.04447 23.82674,36.17747 24.00454,36.52047 C24.18304,36.86347 24.04934,37.28627 23.70704,37.46477 L21.84434,38.43427 C21.74074,38.48747 21.63014,38.51267 21.52164,38.51267 L21.52164,38.51267 Z M13.78454,38.66107 C13.67604,38.66107 13.56544,38.63587 13.46184,38.58197 L11.59914,37.61247 C11.25684,37.43397 11.12314,37.01117 11.30164,36.66887 C11.47944,36.32517 11.90294,36.19147 12.24594,36.37067 L14.10864,37.34017 C14.45094,37.51867 14.58464,37.94147 14.40614,38.28377 C14.28154,38.52387 14.03794,38.66107 13.78454,38.66107 L13.78454,38.66107 Z M17.50994,40.60007 C17.40144,40.60007 17.29084,40.57487 17.18794,40.52097 L15.32454,39.55147 C14.98224,39.37297 14.84924,38.95017 15.02774,38.60787 C15.20484,38.26417 15.62764,38.13047 15.97134,38.30967 L17.51064,39.11047 L19.33484,38.16197 C19.67784,37.98277 20.10064,38.11717 20.27914,38.45947 C20.45694,38.80247 20.32394,39.22527 19.98164,39.40377 L18.11894,40.37327 C18.06924,40.39847 18.01884,40.41737 17.96774,40.43067 C17.84034,40.53987 17.67724,40.60007 17.50994,40.60007 L17.50994,40.60007 Z" id="Fill-4"></path>
                    <path d="M14,18.9 L18.9,18.9 C20.72,18.9 22.1998,17.4195 22.1998,15.6002 C22.1998,13.7802 20.72,12.2997 18.9,12.2997 L14,12.2997 L14,18.9 Z M18.9,20.3 L13.3,20.3 C12.9129,20.3 12.6,19.9864 12.6,19.6 L12.6,11.5997 C12.6,11.2133 12.9129,10.8997 13.3,10.8997 L18.9,10.8997 C21.4914,10.8997 23.5998,13.0081 23.5998,15.6002 C23.5998,18.1916 21.4914,20.3 18.9,20.3 L18.9,20.3 Z" id="Fill-6"></path>
                    <path d="M14,26.90009 L20.5002,26.90009 C22.3202,26.90009 23.8,25.41959 23.8,23.60029 C23.8,21.78029 22.3202,20.29979 20.5002,20.29979 L14,20.29979 L14,26.90009 Z M20.5002,28.30009 L13.3,28.30009 C12.9129,28.30009 12.6,27.98649 12.6,27.60009 L12.6,19.59979 C12.6,19.21339 12.9129,18.89979 13.3,18.89979 L20.5002,18.89979 C23.0916,18.89979 25.2,21.00819 25.2,23.60029 C25.2,26.19169 23.0916,28.30009 20.5002,28.30009 L20.5002,28.30009 Z" id="Fill-8"></path>
                    <path d="M13.3,12.29991 L10.5,12.29991 C10.1129,12.29991 9.8,11.98631 9.8,11.59991 C9.8,11.21351 10.1129,10.89991 10.5,10.89991 L13.3,10.89991 C13.6871,10.89991 14,11.21351 14,11.59991 C14,11.98631 13.6871,12.29991 13.3,12.29991" id="Fill-10"></path>
                    <path d="M13.3,28.30009 L10.5,28.30009 C10.1129,28.30009 9.8,27.98649 9.8,27.60009 C9.8,27.21369 10.1129,26.90009 10.5,26.90009 L13.3,26.90009 C13.6871,26.90009 14,27.21369 14,27.60009 C14,27.98649 13.6871,28.30009 13.3,28.30009" id="Fill-12"></path>
                    <path d="M14.90027,12.29991 C14.51317,12.29991 14.20027,11.98631 14.20027,11.59991 L14.20027,8.40021 C14.20027,8.01311 14.51317,7.70021 14.90027,7.70021 C15.28737,7.70021 15.60027,8.01311 15.60027,8.40021 L15.60027,11.59991 C15.60027,11.98631 15.28737,12.29991 14.90027,12.29991" id="Fill-14"></path>
                    <path d="M18.9,12.29991 C18.5129,12.29991 18.2,11.98631 18.2,11.59991 L18.2,8.40021 C18.2,8.01311 18.5129,7.70021 18.9,7.70021 C19.2871,7.70021 19.6,8.01311 19.6,8.40021 L19.6,11.59991 C19.6,11.98631 19.2871,12.29991 18.9,12.29991" id="Fill-16"></path>
                    <path d="M14.90027,31.5 C14.51317,31.5 14.20027,31.1864 14.20027,30.8 L14.20027,27.6003 C14.20027,27.2132 14.51317,26.9003 14.90027,26.9003 C15.28737,26.9003 15.60027,27.2132 15.60027,27.6003 L15.60027,30.8 C15.60027,31.1864 15.28737,31.5 14.90027,31.5" id="Fill-18"></path>
                    <path d="M18.9,31.5 C18.5129,31.5 18.2,31.1864 18.2,30.8 L18.2,27.6003 C18.2,27.2132 18.5129,26.9003 18.9,26.9003 C19.2871,26.9003 19.6,27.2132 19.6,27.6003 L19.6,30.8 C19.6,31.1864 19.2871,31.5 18.9,31.5" id="Fill-20"></path>
                </g>
            </g>
        </g>
    </g>
</svg>