<svg xmlns="http://www.w3.org/2000/svg" width="35" height="44" viewBox="0 0 35 44">
  <g fill="none" fill-rule="evenodd" transform="translate(-8 -4)">
    <polygon fill="#FFF" points="0 50 50 50 50 0 0 0" opacity="0"/>
    <g fill="#F57F17" transform="translate(8 4)">
      <path d="M1.4007,1.58697 L1.421,27.81597 C1.4245,31.54907 3.4986,34.90487 6.8341,36.57297 L17.5133,41.91747 L28.1876,36.57647 C31.5259,34.90557 33.6,31.54627 33.6,27.81037 L33.6,1.58627 C28.2681,2.78677 22.7759,2.78957 17.5063,1.62757 C12.2206,2.79447 6.6766,2.78047 1.4007,1.58697 M17.5133,43.40007 C17.4055,43.40007 17.2984,43.37557 17.1997,43.32587 L6.2076,37.82527 C2.3954,35.91847 0.0245,32.08317 0.021,27.81737 L0,0.70077 C0,0.48517 0.0994,0.28147 0.2688,0.14847 C0.4389,0.01547 0.6622,-0.03143 0.8694,0.02107 L0.9478,0.04067 C6.3007,1.37627 11.9686,1.43997 17.353,0.22687 C17.4678,0.20167 17.5868,0.20447 17.6995,0.23667 C23.0167,1.43157 28.728,1.37277 34.0837,0.03227 C34.2923,-0.02023 34.538,0.02107 34.7081,0.15407 C34.8775,0.28707 35,0.48447 35,0.70007 L35,27.81037 C35,32.08037 32.6291,35.91847 28.8134,37.82807 L17.8262,43.32587 C17.7275,43.37557 17.6204,43.40007 17.5133,43.40007"/>
      <path d="M20.44014 4.91267C20.41074 4.91267 20.38064 4.91127 20.34984 4.90707 19.64214 4.81607 18.92884 4.69777 18.22954 4.55637 17.85084 4.47937 17.60514 4.11047 17.68214 3.73177 17.75914 3.35237 18.12804 3.10667 18.50674 3.18437 19.17384 3.31877 19.85424 3.43147 20.52904 3.51827 20.91264 3.56797 21.18354 3.91867 21.13384 4.30227 21.08834 4.65507 20.78734 4.91267 20.44014 4.91267L20.44014 4.91267zM14.23954 4.95397C13.88884 4.95397 13.58644 4.69147 13.54444 4.33447 13.49964 3.95087 13.77544 3.60297 14.15834 3.55817 14.83454 3.47977 15.51634 3.37477 16.18344 3.24737 16.56214 3.17737 16.92894 3.42307 17.00244 3.80317 17.07454 4.18327 16.82604 4.54937 16.44594 4.62217 15.74594 4.75587 15.03054 4.86647 14.32144 4.94907 14.29344 4.95257 14.26614 4.95397 14.23954 4.95397L14.23954 4.95397zM7.95284 5.00227C7.92974 5.00227 7.90594 5.00157 7.88214 4.99947 7.17164 4.92737 6.45484 4.82867 5.75204 4.70617 5.37124 4.63967 5.11574 4.27707 5.18224 3.89557 5.24874 3.51547 5.61204 3.25787 5.99214 3.32717 6.66204 3.44407 7.34524 3.53787 8.02284 3.60577 8.40714 3.64497 8.68784 3.98797 8.64864 4.37297 8.61294 4.73347 8.30844 5.00227 7.95284 5.00227L7.95284 5.00227zM26.72544 5.03307C26.36704 5.03307 26.06114 4.75937 26.02824 4.39537 25.99464 4.01037 26.27814 3.67017 26.66314 3.63587 27.34144 3.57497 28.02604 3.48817 28.69594 3.37967 29.08374 3.31667 29.43794 3.57637 29.49954 3.95717 29.56184 4.33937 29.30284 4.69847 28.92134 4.76077 28.21784 4.87557 27.50034 4.96657 26.78844 5.03027 26.76674 5.03167 26.74574 5.03307 26.72544 5.03307L26.72544 5.03307zM24.13474 5.14857C23.58664 5.14857 23.03854 5.13387 22.49114 5.10307 22.10474 5.08207 21.80934 4.75167 21.83104 4.36527 21.85274 3.97957 22.17684 3.67717 22.56884 3.70517 23.25064 3.74367 23.93384 3.75697 24.61774 3.74507L24.62894 3.74507C25.01044 3.74507 25.32334 4.05097 25.32894 4.43317 25.33524 4.81957 25.02724 5.13807 24.64084 5.14507 24.47214 5.14717 24.30414 5.14857 24.13474 5.14857L24.13474 5.14857zM10.86974 5.14997C10.58834 5.14997 10.30694 5.14577 10.02694 5.13807 9.63984 5.12687 9.33604 4.80487 9.34654 4.41777 9.35774 4.03207 9.67134 3.72407 10.06684 3.73877 10.75074 3.75837 11.43394 3.75347 12.11574 3.72267 12.49794 3.71707 12.82904 4.00477 12.84584 4.39117 12.86334 4.77757 12.56374 5.10377 12.17734 5.12127 11.74194 5.14017 11.30584 5.14997 10.86974 5.14997L10.86974 5.14997zM31.50014 5.64767C31.11304 5.64767 30.80014 5.33477 30.80014 4.94767L30.80014 4.35547C30.51034 4.32747 30.25694 4.11957 30.18624 3.81997 30.09664 3.44407 30.32904 3.06677 30.70494 2.97717 30.89744 2.93097 31.09134 2.88337 31.28384 2.83297 31.49524 2.77767 31.73744 2.81827 31.90894 2.95057 32.08044 3.08357 32.20014 3.28307 32.20014 3.50007L32.20014 4.94767C32.20014 5.33477 31.88724 5.64767 31.50014 5.64767L31.50014 5.64767zM3.50154 5.97177C3.11514 5.97177 2.80154 5.65817 2.80154 5.27247L2.80014 3.50077C2.80014 3.28377 2.89954 3.07937 3.07174 2.94707 3.24184 2.81407 3.46234 2.76717 3.67514 2.82247L3.98874 2.90227C4.36394 2.99747 4.59074 3.37757 4.49694 3.75277 4.45144 3.92987 4.34294 4.07477 4.20084 4.16787L4.20154 5.27107C4.20154 5.65747 3.88794 5.97107 3.50224 5.97177L3.50154 5.97177zM31.50014 9.84767C31.11304 9.84767 30.80014 9.53477 30.80014 9.14767L30.80014 7.04767C30.80014 6.66127 31.11304 6.34767 31.50014 6.34767 31.88724 6.34767 32.20014 6.66127 32.20014 7.04767L32.20014 9.14767C32.20014 9.53477 31.88724 9.84767 31.50014 9.84767L31.50014 9.84767zM3.50504 10.17177C3.11864 10.17177 2.80574 9.85817 2.80504 9.47247L2.80294 7.37247C2.80224 6.98537 3.11514 6.67177 3.50224 6.67177L3.50294 6.67177C3.88864 6.67177 4.20224 6.98467 4.20294 7.37107L4.20504 9.47107C4.20574 9.85747 3.89214 10.17107 3.50574 10.17177L3.50504 10.17177zM31.50014 14.04767C31.11304 14.04767 30.80014 13.73477 30.80014 13.34767L30.80014 11.24767C30.80014 10.86127 31.11304 10.54767 31.50014 10.54767 31.88724 10.54767 32.20014 10.86127 32.20014 11.24767L32.20014 13.34767C32.20014 13.73477 31.88724 14.04767 31.50014 14.04767L31.50014 14.04767zM3.50784 14.37177C3.12144 14.37177 2.80784 14.05817 2.80784 13.67177L2.80644 11.57177C2.80644 11.18537 3.11934 10.87177 3.50574 10.87177L3.50644 10.87177C3.89214 10.87177 4.20644 11.18467 4.20644 11.57107L4.20784 13.67107C4.20784 14.05747 3.89424 14.37107 3.50854 14.37177L3.50784 14.37177zM31.50014 18.24767C31.11304 18.24767 30.80014 17.93477 30.80014 17.54767L30.80014 15.44767C30.80014 15.06127 31.11304 14.74767 31.50014 14.74767 31.88724 14.74767 32.20014 15.06127 32.20014 15.44767L32.20014 17.54767C32.20014 17.93477 31.88724 18.24767 31.50014 18.24767L31.50014 18.24767zM3.51064 18.57177C3.12494 18.57177 2.81064 18.25817 2.81064 17.87177L2.80924 15.77177C2.80924 15.38537 3.12284 15.07177 3.50924 15.07177L3.50924 15.07177C3.89564 15.07177 4.20924 15.38467 4.20924 15.77107L4.21064 17.87107C4.21064 18.25747 3.89774 18.57107 3.51134 18.57177L3.51064 18.57177zM31.50014 22.44767C31.11304 22.44767 30.80014 22.13477 30.80014 21.74767L30.80014 19.64767C30.80014 19.26127 31.11304 18.94767 31.50014 18.94767 31.88724 18.94767 32.20014 19.26127 32.20014 19.64767L32.20014 21.74767C32.20014 22.13477 31.88724 22.44767 31.50014 22.44767L31.50014 22.44767zM3.51414 22.77177C3.12844 22.77177 2.81484 22.45817 2.81414 22.07247L2.81204 19.97247C2.81134 19.58537 3.12494 19.27177 3.51134 19.27177L3.51204 19.27177C3.89844 19.27177 4.21134 19.58467 4.21204 19.97107L4.21414 22.07107C4.21484 22.45747 3.90194 22.77107 3.51484 22.77177L3.51414 22.77177zM31.50014 26.64767C31.11304 26.64767 30.80014 26.33477 30.80014 25.94767L30.80014 23.84767C30.80014 23.46127 31.11304 23.14767 31.50014 23.14767 31.88724 23.14767 32.20014 23.46127 32.20014 23.84767L32.20014 25.94767C32.20014 26.33477 31.88724 26.64767 31.50014 26.64767L31.50014 26.64767zM3.51694 26.97177C3.13054 26.97177 2.81694 26.65817 2.81694 26.27177L2.81554 24.17177C2.81554 23.78537 3.12914 23.47177 3.51484 23.47177L3.51554 23.47177C3.90194 23.47177 4.21554 23.78467 4.21554 24.17107L4.21694 26.27107C4.21694 26.65747 3.90404 26.97107 3.51764 26.97177L3.51694 26.97177zM30.97934 30.79027C30.90234 30.79027 30.82534 30.77767 30.74974 30.75107 30.38364 30.62437 30.19114 30.22537 30.31784 29.85997 30.52994 29.25027 30.67414 28.61397 30.74624 27.96857 30.78964 27.58427 31.13334 27.30917 31.51974 27.35047 31.90404 27.39317 32.17984 27.73967 32.13784 28.12397 32.05384 28.87297 31.88724 29.61147 31.64014 30.31987 31.53934 30.60897 31.26914 30.79027 30.97934 30.79027L30.97934 30.79027zM4.15044 31.09267C3.87044 31.09267 3.60514 30.92257 3.49804 30.64537 3.22784 29.94677 3.03534 29.21457 2.92544 28.46837 2.86804 28.08617 3.13264 27.73057 3.51554 27.67387 3.89984 27.61787 4.25404 27.88177 4.31004 28.26397 4.40524 28.90797 4.57114 29.53867 4.80354 30.13997 4.94284 30.50047 4.76364 30.90577 4.40314 31.04577 4.32054 31.07727 4.23514 31.09267 4.15044 31.09267L4.15044 31.09267zM28.76034 34.31197C28.57904 34.31197 28.39774 34.24197 28.26124 34.10267 27.98964 33.82687 27.99384 33.38377 28.26964 33.11287 28.72744 32.66277 29.13484 32.15597 29.47994 31.60647 29.68714 31.27957 30.11904 31.18157 30.44524 31.38667 30.77284 31.59247 30.87084 32.02437 30.66504 32.35197 30.26184 32.99317 29.78654 33.58467 29.25104 34.11107 29.11454 34.24547 28.93744 34.31197 28.76034 34.31197L28.76034 34.31197zM6.49264 34.53247C6.32394 34.53247 6.15524 34.47227 6.02014 34.34977 5.46574 33.84297 4.96874 33.26757 4.54384 32.64107 4.32614 32.32117 4.41014 31.88577 4.73004 31.66877 5.04924 31.45177 5.48464 31.53507 5.70164 31.85497 6.06634 32.39117 6.49054 32.88327 6.96514 33.31587 7.25004 33.57697 7.27034 34.01937 7.00924 34.30497 6.87134 34.45617 6.68234 34.53247 6.49264 34.53247L6.49264 34.53247zM25.24704 36.57437C24.99434 36.57437 24.75004 36.43717 24.62544 36.19707 24.44764 35.85477 24.58064 35.43197 24.92294 35.25347L26.34394 34.51427C26.48114 34.44357 26.61344 34.36867 26.74434 34.29097 27.07614 34.09357 27.50594 34.20137 27.70404 34.53387 27.90144 34.86637 27.79294 35.29547 27.46044 35.49357 27.30714 35.58527 27.14964 35.67277 26.98864 35.75677L25.56974 36.49527C25.46684 36.54917 25.35554 36.57437 25.24704 36.57437L25.24704 36.57437zM10.05914 36.72207C9.95064 36.72207 9.83934 36.69687 9.73644 36.64367L7.86394 35.66717C7.52444 35.48377 7.39704 35.05887 7.58114 34.71867 7.76454 34.37847 8.18874 34.25177 8.52964 34.43517L10.38324 35.40117C10.72554 35.57967 10.85854 36.00247 10.68074 36.34547 10.55614 36.58557 10.31184 36.72207 10.05914 36.72207L10.05914 36.72207zM21.52164 38.51267C21.26894 38.51267 21.02464 38.37617 20.90004 38.13607 20.72154 37.79307 20.85524 37.37027 21.19754 37.19177L23.06024 36.22297C23.40324 36.04447 23.82674 36.17747 24.00454 36.52047 24.18304 36.86347 24.04934 37.28627 23.70704 37.46477L21.84434 38.43427C21.74074 38.48747 21.63014 38.51267 21.52164 38.51267L21.52164 38.51267zM13.78454 38.66107C13.67604 38.66107 13.56544 38.63587 13.46184 38.58197L11.59914 37.61247C11.25684 37.43397 11.12314 37.01117 11.30164 36.66887 11.47944 36.32517 11.90294 36.19147 12.24594 36.37067L14.10864 37.34017C14.45094 37.51867 14.58464 37.94147 14.40614 38.28377 14.28154 38.52387 14.03794 38.66107 13.78454 38.66107L13.78454 38.66107zM17.50994 40.60007C17.40144 40.60007 17.29084 40.57487 17.18794 40.52097L15.32454 39.55147C14.98224 39.37297 14.84924 38.95017 15.02774 38.60787 15.20484 38.26417 15.62764 38.13047 15.97134 38.30967L17.51064 39.11047 19.33484 38.16197C19.67784 37.98277 20.10064 38.11717 20.27914 38.45947 20.45694 38.80247 20.32394 39.22527 19.98164 39.40377L18.11894 40.37327C18.06924 40.39847 18.01884 40.41737 17.96774 40.43067 17.84034 40.53987 17.67724 40.60007 17.50994 40.60007L17.50994 40.60007zM14 18.9L18.9 18.9C20.72 18.9 22.1998 17.4195 22.1998 15.6002 22.1998 13.7802 20.72 12.2997 18.9 12.2997L14 12.2997 14 18.9zM18.9 20.3L13.3 20.3C12.9129 20.3 12.6 19.9864 12.6 19.6L12.6 11.5997C12.6 11.2133 12.9129 10.8997 13.3 10.8997L18.9 10.8997C21.4914 10.8997 23.5998 13.0081 23.5998 15.6002 23.5998 18.1916 21.4914 20.3 18.9 20.3L18.9 20.3z"/>
      <path d="M14 26.90009L20.5002 26.90009C22.3202 26.90009 23.8 25.41959 23.8 23.60029 23.8 21.78029 22.3202 20.29979 20.5002 20.29979L14 20.29979 14 26.90009zM20.5002 28.30009L13.3 28.30009C12.9129 28.30009 12.6 27.98649 12.6 27.60009L12.6 19.59979C12.6 19.21339 12.9129 18.89979 13.3 18.89979L20.5002 18.89979C23.0916 18.89979 25.2 21.00819 25.2 23.60029 25.2 26.19169 23.0916 28.30009 20.5002 28.30009L20.5002 28.30009zM13.3 12.29991L10.5 12.29991C10.1129 12.29991 9.8 11.98631 9.8 11.59991 9.8 11.21351 10.1129 10.89991 10.5 10.89991L13.3 10.89991C13.6871 10.89991 14 11.21351 14 11.59991 14 11.98631 13.6871 12.29991 13.3 12.29991"/>
      <path d="M13.3 28.30009L10.5 28.30009C10.1129 28.30009 9.8 27.98649 9.8 27.60009 9.8 27.21369 10.1129 26.90009 10.5 26.90009L13.3 26.90009C13.6871 26.90009 14 27.21369 14 27.60009 14 27.98649 13.6871 28.30009 13.3 28.30009M14.90027 12.29991C14.51317 12.29991 14.20027 11.98631 14.20027 11.59991L14.20027 8.40021C14.20027 8.01311 14.51317 7.70021 14.90027 7.70021 15.28737 7.70021 15.60027 8.01311 15.60027 8.40021L15.60027 11.59991C15.60027 11.98631 15.28737 12.29991 14.90027 12.29991M18.9 12.29991C18.5129 12.29991 18.2 11.98631 18.2 11.59991L18.2 8.40021C18.2 8.01311 18.5129 7.70021 18.9 7.70021 19.2871 7.70021 19.6 8.01311 19.6 8.40021L19.6 11.59991C19.6 11.98631 19.2871 12.29991 18.9 12.29991M14.90027 31.5C14.51317 31.5 14.20027 31.1864 14.20027 30.8L14.20027 27.6003C14.20027 27.2132 14.51317 26.9003 14.90027 26.9003 15.28737 26.9003 15.60027 27.2132 15.60027 27.6003L15.60027 30.8C15.60027 31.1864 15.28737 31.5 14.90027 31.5M18.9 31.5C18.5129 31.5 18.2 31.1864 18.2 30.8L18.2 27.6003C18.2 27.2132 18.5129 26.9003 18.9 26.9003 19.2871 26.9003 19.6 27.2132 19.6 27.6003L19.6 30.8C19.6 31.1864 19.2871 31.5 18.9 31.5"/>
    </g>
  </g>
</svg>
