<?xml version="1.0" encoding="UTF-8"?>
<svg width="30px" height="37px" viewBox="0 0 30 37" version="1.1" xmlns="http://www.w3.org/2000/svg" xmlns:xlink="http://www.w3.org/1999/xlink">
    <!-- Generator: sketchtool 46.2 (44496) - http://www.bohemiancoding.com/sketch -->
    <title>B93CA3BB-33B2-4718-8585-F1B93819BCBA</title>
    <desc>Created with sketchtool.</desc>
    <defs></defs>
    <g id="Page-1" stroke="none" stroke-width="1" fill="none" fill-rule="evenodd">
        <g id="IS_Blockchain-LP-icons" transform="translate(-123.000000, -216.000000)">
            <g id="Secured-Ticket-Sales" transform="translate(113.000000, 209.000000)">
                <polygon id="Fill-1" fill="#FFFFFF" opacity="0" points="0 50 50 50 50 0 0 0"></polygon>
                <g id="Group-22" transform="translate(10.000000, 7.000000)" fill="#1476F2">
                    <path d="M1.4,15.4 L1.4,32.2 C1.4,33.7442 2.6558,35 4.2,35 L25.2,35 C26.7442,35 28,33.7442 28,32.2 L28,15.4 L1.4,15.4 Z M25.2,36.4 L4.2,36.4 C1.8837,36.4 0,34.5163 0,32.2 L0,14.7 C0,14.3136 0.3136,14 0.7,14 L28.7,14 C29.0864,14 29.4,14.3136 29.4,14.7 L29.4,32.2 C29.4,34.5163 27.5163,36.4 25.2,36.4 L25.2,36.4 Z" id="Fill-2"></path>
                    <path d="M23.1,14 L25.2,14 L25.2,11.9 C25.2,6.1103 20.4897,1.4 14.7,1.4 C8.9103,1.4 4.2,6.1103 4.2,11.9 L4.2,14 L6.3,14 L6.3,11.9 C6.3,7.2681 10.0681,3.5 14.7,3.5 C19.3319,3.5 23.1,7.2681 23.1,11.9 L23.1,14 Z M25.9,15.4 L22.4,15.4 C22.0136,15.4 21.7,15.0864 21.7,14.7 L21.7,11.9 C21.7,8.0402 18.5598,4.9 14.7,4.9 C10.8402,4.9 7.7,8.0402 7.7,11.9 L7.7,14.7 C7.7,15.0864 7.3864,15.4 7,15.4 L3.5,15.4 C3.1136,15.4 2.8,15.0864 2.8,14.7 L2.8,11.9 C2.8,5.3382 8.1382,0 14.7,0 C21.2618,0 26.6,5.3382 26.6,11.9 L26.6,14.7 C26.6,15.0864 26.2864,15.4 25.9,15.4 L25.9,15.4 Z" id="Fill-4"></path>
                    <path d="M13.3,24.5 L15.4,24.5 C16.1168,24.5 16.6999,23.9169 16.6999,23.2001 C16.6999,22.4833 16.1168,21.9002 15.4,21.9002 L13.3,21.9002 L13.3,24.5 Z M15.4,25.9 L12.6,25.9 C12.2136,25.9 11.9,25.5864 11.9,25.2 L11.9,21.2002 C11.9,20.8131 12.2136,20.5002 12.6,20.5002 L15.4,20.5002 C16.8889,20.5002 18.0999,21.7112 18.0999,23.2001 C18.0999,24.689 16.8889,25.9 15.4,25.9 L15.4,25.9 Z" id="Fill-6"></path>
                    <path d="M13.3,28.50008 L16.2001,28.50008 C16.9169,28.50008 17.5,27.91698 17.5,27.20018 C17.5,26.48338 16.9169,25.90028 16.2001,25.90028 L13.3,25.90028 L13.3,28.50008 Z M16.2001,29.90008 L12.6,29.90008 C12.2136,29.90008 11.9,29.58648 11.9,29.20008 L11.9,25.20028 C11.9,24.81318 12.2136,24.50028 12.6,24.50028 L16.2001,24.50028 C17.689,24.50028 18.9,25.71128 18.9,27.20018 C18.9,28.68908 17.689,29.90008 16.2001,29.90008 L16.2001,29.90008 Z" id="Fill-8"></path>
                    <path d="M12.6,21.89992 L11.2,21.89992 C10.8136,21.89992 10.5,21.58632 10.5,21.19992 C10.5,20.81352 10.8136,20.49992 11.2,20.49992 L12.6,20.49992 C12.9864,20.49992 13.3,20.81352 13.3,21.19992 C13.3,21.58632 12.9864,21.89992 12.6,21.89992" id="Fill-10"></path>
                    <path d="M12.6,29.90008 L11.2,29.90008 C10.8136,29.90008 10.5,29.58648 10.5,29.20008 C10.5,28.81368 10.8136,28.50008 11.2,28.50008 L12.6,28.50008 C12.9864,28.50008 13.3,28.81368 13.3,29.20008 C13.3,29.58648 12.9864,29.90008 12.6,29.90008" id="Fill-12"></path>
                    <path d="M13.40017,21.89992 C13.01377,21.89992 12.70017,21.58632 12.70017,21.19992 L12.70017,19.59972 C12.70017,19.21332 13.01377,18.89972 13.40017,18.89972 C13.78657,18.89972 14.10017,19.21332 14.10017,19.59972 L14.10017,21.19992 C14.10017,21.58632 13.78657,21.89992 13.40017,21.89992" id="Fill-14"></path>
                    <path d="M15.4,21.89992 C15.0136,21.89992 14.7,21.58632 14.7,21.19992 L14.7,19.59972 C14.7,19.21332 15.0136,18.89972 15.4,18.89972 C15.7864,18.89972 16.1,19.21332 16.1,19.59972 L16.1,21.19992 C16.1,21.58632 15.7864,21.89992 15.4,21.89992" id="Fill-16"></path>
                    <path d="M13.40017,31.5 C13.01377,31.5 12.70017,31.1864 12.70017,30.8 L12.70017,29.1998 C12.70017,28.8134 13.01377,28.4998 13.40017,28.4998 C13.78657,28.4998 14.10017,28.8134 14.10017,29.1998 L14.10017,30.8 C14.10017,31.1864 13.78657,31.5 13.40017,31.5" id="Fill-18"></path>
                    <path d="M15.4,31.5 C15.0136,31.5 14.7,31.1864 14.7,30.8 L14.7,29.1998 C14.7,28.8134 15.0136,28.4998 15.4,28.4998 C15.7864,28.4998 16.1,28.8134 16.1,29.1998 L16.1,30.8 C16.1,31.1864 15.7864,31.5 15.4,31.5" id="Fill-20"></path>
                </g>
            </g>
        </g>
    </g>
</svg>