<svg xmlns="http://www.w3.org/2000/svg" width="30" height="37" viewBox="0 0 30 37">
  <g fill="none" fill-rule="evenodd" transform="translate(-10 -7)">
    <polygon fill="#FFF" points="0 50 50 50 50 0 0 0" opacity="0"/>
    <g fill="#F57F17" transform="translate(10 7)">
      <path d="M1.4,15.4 L1.4,32.2 C1.4,33.7442 2.6558,35 4.2,35 L25.2,35 C26.7442,35 28,33.7442 28,32.2 L28,15.4 L1.4,15.4 Z M25.2,36.4 L4.2,36.4 C1.8837,36.4 0,34.5163 0,32.2 L0,14.7 C0,14.3136 0.3136,14 0.7,14 L28.7,14 C29.0864,14 29.4,14.3136 29.4,14.7 L29.4,32.2 C29.4,34.5163 27.5163,36.4 25.2,36.4 L25.2,36.4 Z"/>
      <path d="M23.1 14L25.2 14 25.2 11.9C25.2 6.1103 20.4897 1.4 14.7 1.4 8.9103 1.4 4.2 6.1103 4.2 11.9L4.2 14 6.3 14 6.3 11.9C6.3 7.2681 10.0681 3.5 14.7 3.5 19.3319 3.5 23.1 7.2681 23.1 11.9L23.1 14zM25.9 15.4L22.4 15.4C22.0136 15.4 21.7 15.0864 21.7 14.7L21.7 11.9C21.7 8.0402 18.5598 4.9 14.7 4.9 10.8402 4.9 7.7 8.0402 7.7 11.9L7.7 14.7C7.7 15.0864 7.3864 15.4 7 15.4L3.5 15.4C3.1136 15.4 2.8 15.0864 2.8 14.7L2.8 11.9C2.8 5.3382 8.1382 0 14.7 0 21.2618 0 26.6 5.3382 26.6 11.9L26.6 14.7C26.6 15.0864 26.2864 15.4 25.9 15.4L25.9 15.4zM13.3 24.5L15.4 24.5C16.1168 24.5 16.6999 23.9169 16.6999 23.2001 16.6999 22.4833 16.1168 21.9002 15.4 21.9002L13.3 21.9002 13.3 24.5zM15.4 25.9L12.6 25.9C12.2136 25.9 11.9 25.5864 11.9 25.2L11.9 21.2002C11.9 20.8131 12.2136 20.5002 12.6 20.5002L15.4 20.5002C16.8889 20.5002 18.0999 21.7112 18.0999 23.2001 18.0999 24.689 16.8889 25.9 15.4 25.9L15.4 25.9z"/>
      <path d="M13.3 28.50008L16.2001 28.50008C16.9169 28.50008 17.5 27.91698 17.5 27.20018 17.5 26.48338 16.9169 25.90028 16.2001 25.90028L13.3 25.90028 13.3 28.50008zM16.2001 29.90008L12.6 29.90008C12.2136 29.90008 11.9 29.58648 11.9 29.20008L11.9 25.20028C11.9 24.81318 12.2136 24.50028 12.6 24.50028L16.2001 24.50028C17.689 24.50028 18.9 25.71128 18.9 27.20018 18.9 28.68908 17.689 29.90008 16.2001 29.90008L16.2001 29.90008zM12.6 21.89992L11.2 21.89992C10.8136 21.89992 10.5 21.58632 10.5 21.19992 10.5 20.81352 10.8136 20.49992 11.2 20.49992L12.6 20.49992C12.9864 20.49992 13.3 20.81352 13.3 21.19992 13.3 21.58632 12.9864 21.89992 12.6 21.89992"/>
      <path d="M12.6 29.90008L11.2 29.90008C10.8136 29.90008 10.5 29.58648 10.5 29.20008 10.5 28.81368 10.8136 28.50008 11.2 28.50008L12.6 28.50008C12.9864 28.50008 13.3 28.81368 13.3 29.20008 13.3 29.58648 12.9864 29.90008 12.6 29.90008M13.40017 21.89992C13.01377 21.89992 12.70017 21.58632 12.70017 21.19992L12.70017 19.59972C12.70017 19.21332 13.01377 18.89972 13.40017 18.89972 13.78657 18.89972 14.10017 19.21332 14.10017 19.59972L14.10017 21.19992C14.10017 21.58632 13.78657 21.89992 13.40017 21.89992M15.4 21.89992C15.0136 21.89992 14.7 21.58632 14.7 21.19992L14.7 19.59972C14.7 19.21332 15.0136 18.89972 15.4 18.89972 15.7864 18.89972 16.1 19.21332 16.1 19.59972L16.1 21.19992C16.1 21.58632 15.7864 21.89992 15.4 21.89992"/>
      <path d="M13.40017 31.5C13.01377 31.5 12.70017 31.1864 12.70017 30.8L12.70017 29.1998C12.70017 28.8134 13.01377 28.4998 13.40017 28.4998 13.78657 28.4998 14.10017 28.8134 14.10017 29.1998L14.10017 30.8C14.10017 31.1864 13.78657 31.5 13.40017 31.5M15.4 31.5C15.0136 31.5 14.7 31.1864 14.7 30.8L14.7 29.1998C14.7 28.8134 15.0136 28.4998 15.4 28.4998 15.7864 28.4998 16.1 28.8134 16.1 29.1998L16.1 30.8C16.1 31.1864 15.7864 31.5 15.4 31.5"/>
    </g>
  </g>
</svg>
