<svg xmlns="http://www.w3.org/2000/svg" width="44" height="32" viewBox="0 0 44 32">
  <g fill="none" fill-rule="evenodd" transform="translate(-4 -9)">
    <polygon fill="#FFF" points="0 50 50 50 50 0 0 0" opacity="0"/>
    <g fill="#F57F17" transform="translate(4 9)">
      <path d="M34.825,20.55018 C34.4386,20.55018 34.125,20.23728 34.125,19.85018 L34.125,4.84988 C34.125,3.16778 32.7565,1.79998 31.0751,1.79998 C30.688,1.79998 30.3751,1.48638 30.3751,1.09998 C30.3751,0.71358 30.688,0.39998 31.0751,0.39998 C33.5286,0.39998 35.525,2.39638 35.525,4.84988 L35.525,19.85018 C35.525,20.23728 35.2114,20.55018 34.825,20.55018"/>
      <path d="M4.12482,31 L4.12482,31.10009 C4.12482,31.48719 4.43842,31.80009 4.82482,31.80009 L23.57502,31.80009 C26.02852,31.80009 28.02492,29.80369 28.02492,27.35019 L28.02492,4.85009 C28.02492,3.16799 29.39342,1.80019 31.07482,1.80019 C31.46122,1.80019 31.77482,1.48659 31.77482,1.10019 C31.77482,0.71309 31.46122,0.40019 31.07482,0.40019 L8.57472,0.40019 C6.12122,0.40019 4.12482,2.39659 4.12482,4.85009 L4.12482,27 L5.52482,27 L5.52482,4.85009 C5.52482,3.16799 6.89332,1.80019 8.57472,1.80019 L27.83732,1.80019 C27.08622,2.59679 26.62492,3.67059 26.62492,4.85009 L26.62492,27.35019 C26.62492,29.03159 25.25642,30.40009 23.57502,30.40009 L15,30.40009 L15,31 L4.12482,31 Z"/>
      <path d="M1.85598 28.04991C2.17308 29.39531 3.38408 30.39981 4.82468 30.39981L20.33738 30.39981C19.73748 29.76351 19.32308 28.95151 19.18028 28.04991L1.85598 28.04991zM23.57488 31.79981L4.82468 31.79981C2.37118 31.79981.37478 29.80411.37478 27.34991.37478 26.96281.68838 26.64991 1.07478 26.64991L19.82498 26.64991C20.21138 26.64991 20.52498 26.96281 20.52498 27.34991 20.52498 29.03131 21.89348 30.39981 23.57488 30.39981 23.96128 30.39981 24.27488 30.71341 24.27488 31.09981 24.27488 31.48691 23.96128 31.79981 23.57488 31.79981L23.57488 31.79981zM38.57483 24.29973C36.12133 24.29973 34.12493 22.30333 34.12493 19.85053 34.12493 19.46343 34.43853 19.15053 34.82493 19.15053 35.21133 19.15053 35.52493 19.46343 35.52493 19.85053 35.52493 21.53193 36.89343 22.89973 38.57483 22.89973 40.25623 22.89973 41.62473 21.53193 41.62473 19.85053 41.62473 19.46343 41.93833 19.15053 42.32473 19.15053 42.71113 19.15053 43.02473 19.46343 43.02473 19.85053 43.02473 22.30333 41.02833 24.29973 38.57483 24.29973"/>
      <path d="M38.57483 24.29973L27.32513 24.29973C26.93803 24.29973 26.62513 23.98683 26.62513 23.59973 26.62513 23.21263 26.93803 22.89973 27.32513 22.89973L38.57483 22.89973C38.96123 22.89973 39.27483 23.21263 39.27483 23.59973 39.27483 23.98683 38.96123 24.29973 38.57483 24.29973M42.32473 20.55018C41.93833 20.55018 41.62473 20.23728 41.62473 19.85018L41.62473 8.59978C41.62473 8.21338 41.93833 7.89978 42.32473 7.89978 42.71113 7.89978 43.02473 8.21338 43.02473 8.59978L43.02473 19.85018C43.02473 20.23728 42.71113 20.55018 42.32473 20.55018"/>
      <path d="M42.32508 9.30027L42.32508 9.30027 34.82528 9.30027C34.43818 9.30027 34.12528 8.98667 34.12528 8.60027 34.12528 8.21317 34.43818 7.90027 34.82528 7.90027L42.32508 7.90027C42.71148 7.90027 43.02508 8.21387 43.02508 8.60027 43.02508 8.98667 42.71148 9.30027 42.32508 9.30027M14.175 13.3L16.975 13.3C17.9676 13.3 18.7747 12.4929 18.7747 11.5003 18.7747 10.5077 17.9676 9.6999 16.975 9.6999L14.175 9.6999 14.175 13.3zM16.975 14.7L13.475 14.7C13.0886 14.7 12.775 14.3864 12.775 14L12.775 8.9999C12.775 8.6135 13.0886 8.2999 13.475 8.2999L16.975 8.2999C18.7397 8.2999 20.1747 9.7356 20.1747 11.5003 20.1747 13.2643 18.7397 14.7 16.975 14.7L16.975 14.7z"/>
      <path d="M14.175 18.29982L17.9753 18.29982C18.9679 18.29982 19.775 17.49272 19.775 16.50012 19.775 15.50752 18.9679 14.69972 17.9753 14.69972L14.175 14.69972 14.175 18.29982zM17.9753 19.69982L13.475 19.69982C13.0886 19.69982 12.775 19.38692 12.775 18.99982L12.775 13.99972C12.775 13.61332 13.0886 13.29972 13.475 13.29972L17.9753 13.29972C19.7393 13.29972 21.175 14.73542 21.175 16.50012 21.175 18.26412 19.7393 19.69982 17.9753 19.69982L17.9753 19.69982zM13.475 9.69983L11.725 9.69983C11.3386 9.69983 11.025 9.38623 11.025 8.99983 11.025 8.61343 11.3386 8.29983 11.725 8.29983L13.475 8.29983C13.8614 8.29983 14.175 8.61343 14.175 8.99983 14.175 9.38623 13.8614 9.69983 13.475 9.69983"/>
      <path d="M13.475 19.69982L11.725 19.69982C11.3386 19.69982 11.025 19.38692 11.025 18.99982 11.025 18.61272 11.3386 18.29982 11.725 18.29982L13.475 18.29982C13.8614 18.29982 14.175 18.61272 14.175 18.99982 14.175 19.38692 13.8614 19.69982 13.475 19.69982M14.47509 9.69983C14.08869 9.69983 13.77509 9.38623 13.77509 8.99983L13.77509 6.99993C13.77509 6.61353 14.08869 6.29993 14.47509 6.29993 14.86149 6.29993 15.17509 6.61353 15.17509 6.99993L15.17509 8.99983C15.17509 9.38623 14.86149 9.69983 14.47509 9.69983M16.975 9.69983C16.5886 9.69983 16.275 9.38623 16.275 8.99983L16.275 6.99993C16.275 6.61353 16.5886 6.29993 16.975 6.29993 17.3614 6.29993 17.675 6.61353 17.675 6.99993L17.675 8.99983C17.675 9.38623 17.3614 9.69983 16.975 9.69983"/>
      <path d="M14.47509 21.7C14.08869 21.7 13.77509 21.3871 13.77509 21L13.77509 19.0001C13.77509 18.613 14.08869 18.3001 14.47509 18.3001 14.86149 18.3001 15.17509 18.613 15.17509 19.0001L15.17509 21C15.17509 21.3871 14.86149 21.7 14.47509 21.7M16.975 21.7C16.5886 21.7 16.275 21.3871 16.275 21L16.275 19.0001C16.275 18.613 16.5886 18.3001 16.975 18.3001 17.3614 18.3001 17.675 18.613 17.675 19.0001L17.675 21C17.675 21.3871 17.3614 21.7 16.975 21.7"/>
    </g>
  </g>
</svg>
