<?xml version="1.0" encoding="UTF-8"?>
<svg width="44px" height="32px" viewBox="0 0 44 32" version="1.1" xmlns="http://www.w3.org/2000/svg" xmlns:xlink="http://www.w3.org/1999/xlink">
    <!-- Generator: sketchtool 46.2 (44496) - http://www.bohemiancoding.com/sketch -->
    <title>62D22482-446B-429C-9473-6A045C625C0A</title>
    <desc>Created with sketchtool.</desc>
    <defs></defs>
    <g id="Page-1" stroke="none" stroke-width="1" fill="none" fill-rule="evenodd">
        <g id="IS_Blockchain-LP-icons" transform="translate(-542.000000, -90.000000)" fill="#FFFFFF">
            <g id="Smart-Contract-Code" transform="translate(538.000000, 81.000000)">
                <polygon id="Fill-1" opacity="0" points="0 50 50 50 50 0 0 0"></polygon>
                <g id="Group-34" transform="translate(4.000000, 9.000000)">
                    <path d="M34.825,20.55018 C34.4386,20.55018 34.125,20.23728 34.125,19.85018 L34.125,4.84988 C34.125,3.16778 32.7565,1.79998 31.0751,1.79998 C30.688,1.79998 30.3751,1.48638 30.3751,1.09998 C30.3751,0.71358 30.688,0.39998 31.0751,0.39998 C33.5286,0.39998 35.525,2.39638 35.525,4.84988 L35.525,19.85018 C35.525,20.23728 35.2114,20.55018 34.825,20.55018" id="Fill-2"></path>
                    <path d="M4.12482,31 L4.12482,31.10009 C4.12482,31.48719 4.43842,31.80009 4.82482,31.80009 L23.57502,31.80009 C26.02852,31.80009 28.02492,29.80369 28.02492,27.35019 L28.02492,4.85009 C28.02492,3.16799 29.39342,1.80019 31.07482,1.80019 C31.46122,1.80019 31.77482,1.48659 31.77482,1.10019 C31.77482,0.71309 31.46122,0.40019 31.07482,0.40019 L8.57472,0.40019 C6.12122,0.40019 4.12482,2.39659 4.12482,4.85009 L4.12482,27 L5.52482,27 L5.52482,4.85009 C5.52482,3.16799 6.89332,1.80019 8.57472,1.80019 L27.83732,1.80019 C27.08622,2.59679 26.62492,3.67059 26.62492,4.85009 L26.62492,27.35019 C26.62492,29.03159 25.25642,30.40009 23.57502,30.40009 L15,30.40009 L15,31 L4.12482,31 Z" id="Combined-Shape"></path>
                    <path d="M1.85598,28.04991 C2.17308,29.39531 3.38408,30.39981 4.82468,30.39981 L20.33738,30.39981 C19.73748,29.76351 19.32308,28.95151 19.18028,28.04991 L1.85598,28.04991 Z M23.57488,31.79981 L4.82468,31.79981 C2.37118,31.79981 0.37478,29.80411 0.37478,27.34991 C0.37478,26.96281 0.68838,26.64991 1.07478,26.64991 L19.82498,26.64991 C20.21138,26.64991 20.52498,26.96281 20.52498,27.34991 C20.52498,29.03131 21.89348,30.39981 23.57488,30.39981 C23.96128,30.39981 24.27488,30.71341 24.27488,31.09981 C24.27488,31.48691 23.96128,31.79981 23.57488,31.79981 L23.57488,31.79981 Z" id="Fill-8"></path>
                    <path d="M38.57483,24.29973 C36.12133,24.29973 34.12493,22.30333 34.12493,19.85053 C34.12493,19.46343 34.43853,19.15053 34.82493,19.15053 C35.21133,19.15053 35.52493,19.46343 35.52493,19.85053 C35.52493,21.53193 36.89343,22.89973 38.57483,22.89973 C40.25623,22.89973 41.62473,21.53193 41.62473,19.85053 C41.62473,19.46343 41.93833,19.15053 42.32473,19.15053 C42.71113,19.15053 43.02473,19.46343 43.02473,19.85053 C43.02473,22.30333 41.02833,24.29973 38.57483,24.29973" id="Fill-10"></path>
                    <path d="M38.57483,24.29973 L27.32513,24.29973 C26.93803,24.29973 26.62513,23.98683 26.62513,23.59973 C26.62513,23.21263 26.93803,22.89973 27.32513,22.89973 L38.57483,22.89973 C38.96123,22.89973 39.27483,23.21263 39.27483,23.59973 C39.27483,23.98683 38.96123,24.29973 38.57483,24.29973" id="Fill-12"></path>
                    <path d="M42.32473,20.55018 C41.93833,20.55018 41.62473,20.23728 41.62473,19.85018 L41.62473,8.59978 C41.62473,8.21338 41.93833,7.89978 42.32473,7.89978 C42.71113,7.89978 43.02473,8.21338 43.02473,8.59978 L43.02473,19.85018 C43.02473,20.23728 42.71113,20.55018 42.32473,20.55018" id="Fill-14"></path>
                    <path d="M42.32508,9.30027 L42.32508,9.30027 L34.82528,9.30027 C34.43818,9.30027 34.12528,8.98667 34.12528,8.60027 C34.12528,8.21317 34.43818,7.90027 34.82528,7.90027 L42.32508,7.90027 C42.71148,7.90027 43.02508,8.21387 43.02508,8.60027 C43.02508,8.98667 42.71148,9.30027 42.32508,9.30027" id="Fill-16"></path>
                    <path d="M14.175,13.3 L16.975,13.3 C17.9676,13.3 18.7747,12.4929 18.7747,11.5003 C18.7747,10.5077 17.9676,9.6999 16.975,9.6999 L14.175,9.6999 L14.175,13.3 Z M16.975,14.7 L13.475,14.7 C13.0886,14.7 12.775,14.3864 12.775,14 L12.775,8.9999 C12.775,8.6135 13.0886,8.2999 13.475,8.2999 L16.975,8.2999 C18.7397,8.2999 20.1747,9.7356 20.1747,11.5003 C20.1747,13.2643 18.7397,14.7 16.975,14.7 L16.975,14.7 Z" id="Fill-18"></path>
                    <path d="M14.175,18.29982 L17.9753,18.29982 C18.9679,18.29982 19.775,17.49272 19.775,16.50012 C19.775,15.50752 18.9679,14.69972 17.9753,14.69972 L14.175,14.69972 L14.175,18.29982 Z M17.9753,19.69982 L13.475,19.69982 C13.0886,19.69982 12.775,19.38692 12.775,18.99982 L12.775,13.99972 C12.775,13.61332 13.0886,13.29972 13.475,13.29972 L17.9753,13.29972 C19.7393,13.29972 21.175,14.73542 21.175,16.50012 C21.175,18.26412 19.7393,19.69982 17.9753,19.69982 L17.9753,19.69982 Z" id="Fill-20"></path>
                    <path d="M13.475,9.69983 L11.725,9.69983 C11.3386,9.69983 11.025,9.38623 11.025,8.99983 C11.025,8.61343 11.3386,8.29983 11.725,8.29983 L13.475,8.29983 C13.8614,8.29983 14.175,8.61343 14.175,8.99983 C14.175,9.38623 13.8614,9.69983 13.475,9.69983" id="Fill-22"></path>
                    <path d="M13.475,19.69982 L11.725,19.69982 C11.3386,19.69982 11.025,19.38692 11.025,18.99982 C11.025,18.61272 11.3386,18.29982 11.725,18.29982 L13.475,18.29982 C13.8614,18.29982 14.175,18.61272 14.175,18.99982 C14.175,19.38692 13.8614,19.69982 13.475,19.69982" id="Fill-24"></path>
                    <path d="M14.47509,9.69983 C14.08869,9.69983 13.77509,9.38623 13.77509,8.99983 L13.77509,6.99993 C13.77509,6.61353 14.08869,6.29993 14.47509,6.29993 C14.86149,6.29993 15.17509,6.61353 15.17509,6.99993 L15.17509,8.99983 C15.17509,9.38623 14.86149,9.69983 14.47509,9.69983" id="Fill-26"></path>
                    <path d="M16.975,9.69983 C16.5886,9.69983 16.275,9.38623 16.275,8.99983 L16.275,6.99993 C16.275,6.61353 16.5886,6.29993 16.975,6.29993 C17.3614,6.29993 17.675,6.61353 17.675,6.99993 L17.675,8.99983 C17.675,9.38623 17.3614,9.69983 16.975,9.69983" id="Fill-28"></path>
                    <path d="M14.47509,21.7 C14.08869,21.7 13.77509,21.3871 13.77509,21 L13.77509,19.0001 C13.77509,18.613 14.08869,18.3001 14.47509,18.3001 C14.86149,18.3001 15.17509,18.613 15.17509,19.0001 L15.17509,21 C15.17509,21.3871 14.86149,21.7 14.47509,21.7" id="Fill-30"></path>
                    <path d="M16.975,21.7 C16.5886,21.7 16.275,21.3871 16.275,21 L16.275,19.0001 C16.275,18.613 16.5886,18.3001 16.975,18.3001 C17.3614,18.3001 17.675,18.613 17.675,19.0001 L17.675,21 C17.675,21.3871 17.3614,21.7 16.975,21.7" id="Fill-32"></path>
                </g>
            </g>
        </g>
    </g>
</svg>