<svg xmlns="http://www.w3.org/2000/svg" width="44" height="44" viewBox="0 0 44 44">
  <g fill="none" fill-rule="evenodd" transform="translate(-3 -3)">
    <polygon fill="#FFF" points="0 50 50 50 50 0 0 0" opacity="0"/>
    <g fill="#F57F17" transform="translate(3 3)">
      <path d="M3.625,1.7 C2.5631,1.7 1.7,2.5631 1.7,3.625 L1.7,40.375 C1.7,41.4369 2.5631,42.3 3.625,42.3 L40.375,42.3 C41.4369,42.3 42.3,41.4369 42.3,40.375 L42.3,3.625 C42.3,2.5631 41.4369,1.7 40.375,1.7 L3.625,1.7 Z M40.375,43.7 L3.625,43.7 C1.7917,43.7 0.3,42.2083 0.3,40.375 L0.3,3.625 C0.3,1.7917 1.7917,0.3 3.625,0.3 L40.375,0.3 C42.2083,0.3 43.7,1.7917 43.7,3.625 L43.7,40.375 C43.7,42.2083 42.2083,43.7 40.375,43.7 Z"/>
      <path d="M38.45,32 L38.45,36.7 C38.45,37.6646 37.6653,38.45 36.7,38.45 L7.3,38.45 C6.3347,38.45 5.55,37.6646 5.55,36.7 L5.55,7.3 C5.55,6.3354 6.3347,5.55 7.3,5.55 L36.7,5.55 C37.6653,5.55 38.45,6.3354 38.45,7.3 L38.45,12 L37.05,12 L37.05,7.3 C37.05,7.1068 36.8925,6.95 36.7,6.95 L7.3,6.95 C7.1075,6.95 6.95,7.1068 6.95,7.3 L6.95,36.7 C6.95,36.8932 7.1075,37.05 7.3,37.05 L36.7,37.05 C36.8925,37.05 37.05,36.8932 37.05,36.7 L37.05,32 L38.45,32 Z M38.45,28 L37.05,28 L37.05,16 L38.45,16 L38.45,28 Z"/>
      <path d="M35.825 16.05L39.675 16.05 39.675 12.2 35.825 12.2 35.825 16.05zM40.375 17.45L35.125 17.45C34.7379 17.45 34.425 17.1364 34.425 16.75L34.425 11.5C34.425 11.1136 34.7379 10.8 35.125 10.8L40.375 10.8C40.7621 10.8 41.075 11.1136 41.075 11.5L41.075 16.75C41.075 17.1364 40.7621 17.45 40.375 17.45L40.375 17.45zM35.825 31.8L39.675 31.8 39.675 27.95 35.825 27.95 35.825 31.8zM40.375 33.2L35.125 33.2C34.7379 33.2 34.425 32.8864 34.425 32.5L34.425 27.25C34.425 26.8636 34.7379 26.55 35.125 26.55L40.375 26.55C40.7621 26.55 41.075 26.8636 41.075 27.25L41.075 32.5C41.075 32.8864 40.7621 33.2 40.375 33.2L40.375 33.2zM22 12.9C16.9824 12.9 12.9 16.9824 12.9 22 12.9 27.0176 16.9824 31.1 22 31.1 27.0176 31.1 31.1 27.0176 31.1 22 31.1 16.9824 27.0176 12.9 22 12.9M22 32.5C16.2103 32.5 11.5 27.7897 11.5 22 11.5 16.2103 16.2103 11.5 22 11.5 27.7897 11.5 32.5 16.2103 32.5 22 32.5 27.7897 27.7897 32.5 22 32.5"/>
      <path d="M22 15C21.6129 15 21.3 14.8162502 21.3 14.5898441L21.3 11.9102959C21.3 11.6838898 21.6129 11.50014 22 11.50014 22.3871 11.50014 22.7 11.6838898 22.7 11.9102959L22.7 14.5898441C22.7 14.8162502 22.3871 15 22 15M22 32.5C21.6129 32.5 21.3 32.3056356 21.3 32.066151L21.3 29.433989C21.3 29.1945044 21.6129 29.00014 22 29.00014 22.3871 29.00014 22.7 29.1945044 22.7 29.433989L22.7 32.066151C22.7 32.3056356 22.3871 32.5 22 32.5M32.0898277 22.7L29.4101723 22.7C29.183347 22.7 29 22.3864 29 22 29 21.6136 29.183347 21.3 29.4101723 21.3L32.0898277 21.3C32.316653 21.3 32.5 21.6136 32.5 22 32.5 22.3864 32.316653 22.7 32.0898277 22.7M14.5663598 22.7L11.9342002 22.7C11.6942423 22.7 11.50028 22.3864 11.50028 22 11.50028 21.6136 11.6942423 21.3 11.9342002 21.3L14.5663598 21.3C14.8063177 21.3 15.00028 21.6136 15.00028 22 15.00028 22.3864 14.8063177 22.7 14.5663598 22.7M12.025 11.325C11.6386 11.325 11.325 11.6393 11.325 12.025 11.325 12.4107 11.6386 12.725 12.025 12.725 12.4114 12.725 12.725 12.4107 12.725 12.025 12.725 11.6393 12.4114 11.325 12.025 11.325M12.025 14.125C10.8672 14.125 9.925 13.1828 9.925 12.025 9.925 10.8672 10.8672 9.925 12.025 9.925 13.1828 9.925 14.125 10.8672 14.125 12.025 14.125 13.1828 13.1828 14.125 12.025 14.125"/>
      <path d="M22,15.7 C18.5259,15.7 15.7,18.5266 15.7,22 C15.7,25.4734 18.5259,28.3 22,28.3 C25.4741,28.3 28.3,25.4734 28.3,22 C28.3,18.5266 25.4741,15.7 22,15.7 M14.3,22 C14.3,17.7545 17.7545,14.3 22,14.3 C26.2455,14.3 29.7,17.7545 29.7,22 C29.7,26.2455 26.2455,29.7 22,29.7 C17.7545,29.7 14.3,26.2455 14.3,22 Z"/>
      <path d="M21.3,21.3 L22.4669,21.3 C22.8162,21.3 23.0997,21.0158 23.0997,20.6665 C23.0997,20.3172 22.8162,20.033 22.4669,20.033 L21.3,20.033 L21.3,21.3 Z M22.4669,22.7 L20.6,22.7 C20.2129,22.7 19.9,22.3864 19.9,22 L19.9,19.333 C19.9,18.9466 20.2129,18.633 20.6,18.633 L22.4669,18.633 C23.5883,18.633 24.4997,19.5458 24.4997,20.6665 C24.4997,21.7879 23.5883,22.7 22.4669,22.7 L22.4669,22.7 Z"/>
      <path d="M21.3 23.96672L23.0003 23.96672C23.3496 23.96672 23.6331 23.68252 23.6331 23.33322 23.6331 22.98392 23.3496 22.69972 23.0003 22.69972L21.3 22.69972 21.3 23.96672zM23.0003 25.36672L20.6 25.36672C20.2129 25.36672 19.9 25.05312 19.9 24.66672L19.9 21.99972C19.9 21.61332 20.2129 21.29972 20.6 21.29972L23.0003 21.29972C24.121 21.29972 25.0331 22.21252 25.0331 23.33322 25.0331 24.45462 24.121 25.36672 23.0003 25.36672L23.0003 25.36672zM20.6 20.03328L19.6669 20.03328C19.2798 20.03328 18.9669 19.71968 18.9669 19.33328 18.9669 18.94688 19.2798 18.63328 19.6669 18.63328L20.6 18.63328C20.9871 18.63328 21.3 18.94688 21.3 19.33328 21.3 19.71968 20.9871 20.03328 20.6 20.03328"/>
      <path d="M20.6 25.36672L19.6669 25.36672C19.2798 25.36672 18.9669 25.05312 18.9669 24.66672 18.9669 24.28032 19.2798 23.96672 19.6669 23.96672L20.6 23.96672C20.9871 23.96672 21.3 24.28032 21.3 24.66672 21.3 25.05312 20.9871 25.36672 20.6 25.36672M21.13319 20.03328C20.74609 20.03328 20.43319 19.71968 20.43319 19.33328L20.43319 18.26648C20.43319 17.88008 20.74609 17.56648 21.13319 17.56648 21.52029 17.56648 21.83319 17.88008 21.83319 18.26648L21.83319 19.33328C21.83319 19.71968 21.52029 20.03328 21.13319 20.03328"/>
      <path d="M22.4669 20.03328C22.0798 20.03328 21.7669 19.71968 21.7669 19.33328L21.7669 18.26648C21.7669 17.88008 22.0798 17.56648 22.4669 17.56648 22.854 17.56648 23.1669 17.88008 23.1669 18.26648L23.1669 19.33328C23.1669 19.71968 22.854 20.03328 22.4669 20.03328M21.13319 26.43345C20.74609 26.43345 20.43319 26.11985 20.43319 25.73345L20.43319 24.66665C20.43319 24.28025 20.74609 23.96665 21.13319 23.96665 21.52029 23.96665 21.83319 24.28025 21.83319 24.66665L21.83319 25.73345C21.83319 26.11985 21.52029 26.43345 21.13319 26.43345"/>
      <path d="M22.4669,26.43345 C22.0798,26.43345 21.7669,26.11985 21.7669,25.73345 L21.7669,24.66665 C21.7669,24.28025 22.0798,23.96665 22.4669,23.96665 C22.854,23.96665 23.1669,24.28025 23.1669,24.66665 L23.1669,25.73345 C23.1669,26.11985 22.854,26.43345 22.4669,26.43345"/>
    </g>
  </g>
</svg>
