<svg xmlns="http://www.w3.org/2000/svg" width="44" height="33" viewBox="0 0 44 33">
  <g fill="none" fill-rule="evenodd" transform="translate(-4 -9)">
    <polygon fill="#FFF" points="0 50 50 50 50 0 0 0" opacity="0"/>
    <g fill="#F57F17" transform="translate(4 9)">
      <path d="M18.5815 7.7637L24.8178 7.7637 24.8178 1.5274 18.5815 1.5274 18.5815 7.7637zM25.5185 9.1637L17.8815 9.1637C17.4951 9.1637 17.1815 8.8508 17.1815 8.4637L17.1815.8274C17.1815.4403 17.4951.1274 17.8815.1274L25.5185.1274C25.9049.1274 26.2185.4403 26.2185.8274L26.2185 8.4637C26.2185 8.8508 25.9049 9.1637 25.5185 9.1637L25.5185 9.1637zM7.1274 19.2178L13.3637 19.2178 13.3637 12.9822 7.1274 12.9822 7.1274 19.2178zM14.0637 20.6178L6.4274 20.6178C6.0403 20.6178 5.7274 20.3049 5.7274 19.9178L5.7274 12.2822C5.7274 11.8951 6.0403 11.5822 6.4274 11.5822L14.0637 11.5822C14.4501 11.5822 14.7637 11.8951 14.7637 12.2822L14.7637 19.9178C14.7637 20.3049 14.4501 20.6178 14.0637 20.6178L14.0637 20.6178zM30.0363 19.2178L36.2726 19.2178 36.2726 12.9822 30.0363 12.9822 30.0363 19.2178zM36.9726 20.6178L29.3363 20.6178C28.9499 20.6178 28.6363 20.3049 28.6363 19.9178L28.6363 12.2822C28.6363 11.8951 28.9499 11.5822 29.3363 11.5822L36.9726 11.5822C37.3597 11.5822 37.6726 11.8951 37.6726 12.2822L37.6726 19.9178C37.6726 20.3049 37.3597 20.6178 36.9726 20.6178L36.9726 20.6178z"/>
      <path d="M7.1274 19.2178L13.3637 19.2178 13.3637 12.9822 7.1274 12.9822 7.1274 19.2178zM14.0637 20.6178L6.4274 20.6178C6.0403 20.6178 5.7274 20.3049 5.7274 19.9178L5.7274 12.2822C5.7274 11.8951 6.0403 11.5822 6.4274 11.5822L14.0637 11.5822C14.4501 11.5822 14.7637 11.8951 14.7637 12.2822L14.7637 19.9178C14.7637 20.3049 14.4501 20.6178 14.0637 20.6178L14.0637 20.6178zM30.0363 19.2178L36.2726 19.2178 36.2726 12.9822 30.0363 12.9822 30.0363 19.2178zM36.9726 20.6178L29.3363 20.6178C28.9499 20.6178 28.6363 20.3049 28.6363 19.9178L28.6363 12.2822C28.6363 11.8951 28.9499 11.5822 29.3363 11.5822L36.9726 11.5822C37.3597 11.5822 37.6726 11.8951 37.6726 12.2822L37.6726 19.9178C37.6726 20.3049 37.3597 20.6178 36.9726 20.6178L36.9726 20.6178zM12.8548 30.6726L19.0911 30.6726 19.0911 24.4363 12.8548 24.4363 12.8548 30.6726zM19.7904 32.0726L12.1548 32.0726C11.7684 32.0726 11.4548 31.7597 11.4548 31.3726L11.4548 23.7363C11.4548 23.3492 11.7684 23.0363 12.1548 23.0363L19.7904 23.0363C20.1775 23.0363 20.4904 23.3492 20.4904 23.7363L20.4904 31.3726C20.4904 31.7597 20.1775 32.0726 19.7904 32.0726L19.7904 32.0726zM1.4 30.6726L7.6363 30.6726 7.6363 24.4363 1.4 24.4363 1.4 30.6726zM8.3363 32.0726L.7 32.0726C.3136 32.0726 0 31.7597 0 31.3726L0 23.7363C0 23.3492.3136 23.0363.7 23.0363L8.3363 23.0363C8.7227 23.0363 9.0363 23.3492 9.0363 23.7363L9.0363 31.3726C9.0363 31.7597 8.7227 32.0726 8.3363 32.0726L8.3363 32.0726zM24.3096 30.6726L30.5459 30.6726 30.5459 24.4363 24.3096 24.4363 24.3096 30.6726zM31.2452 32.0726L23.6096 32.0726C23.2225 32.0726 22.9096 31.7597 22.9096 31.3726L22.9096 23.7363C22.9096 23.3492 23.2225 23.0363 23.6096 23.0363L31.2452 23.0363C31.6316 23.0363 31.9452 23.3492 31.9452 23.7363L31.9452 31.3726C31.9452 31.7597 31.6316 32.0726 31.2452 32.0726L31.2452 32.0726zM35.7637 30.6726L42 30.6726 42 24.4363 35.7637 24.4363 35.7637 30.6726zM42.7 32.0726L35.0637 32.0726C34.6773 32.0726 34.3637 31.7597 34.3637 31.3726L34.3637 23.7363C34.3637 23.3492 34.6773 23.0363 35.0637 23.0363L42.7 23.0363C43.0864 23.0363 43.4 23.3492 43.4 23.7363L43.4 31.3726C43.4 31.7597 43.0864 32.0726 42.7 32.0726L42.7 32.0726z"/>
      <path d="M10.24534,12.98213 C9.85894,12.98213 9.54534,12.66923 9.54534,12.28213 L9.54534,10.37253 C9.54534,9.98613 9.85894,9.67253 10.24534,9.67253 L21.00014,9.67253 L21.00014,8.84583 C21.00014,8.45873 21.31374,8.14583 21.70014,8.14583 C22.08654,8.14583 22.40014,8.45873 22.40014,8.84583 L22.40014,10.37253 C22.40014,10.75963 22.08654,11.07253 21.70014,11.07253 L10.94534,11.07253 L10.94534,12.28213 C10.94534,12.66923 10.63174,12.98213 10.24534,12.98213"/>
      <path d="M33.15466 12.98213C32.76826 12.98213 32.45466 12.66923 32.45466 12.28213L32.45466 11.07253 21.69986 11.07253C21.31346 11.07253 20.99986 10.75963 20.99986 10.37253 20.99986 9.98613 21.31346 9.67253 21.69986 9.67253L33.15466 9.67253C33.54106 9.67253 33.85466 9.98613 33.85466 10.37253L33.85466 12.28213C33.85466 12.66923 33.54106 12.98213 33.15466 12.98213M4.51822 24.43644C4.13182 24.43644 3.81822 24.12354 3.81822 23.73644L3.81822 21.82684C3.81822 21.44044 4.13182 21.12684 4.51822 21.12684L9.54562 21.12684 9.54562 19.91794C9.54562 19.53084 9.85852 19.21794 10.24562 19.21794 10.63202 19.21794 10.94562 19.53084 10.94562 19.91794L10.94562 21.82684C10.94562 22.21394 10.63202 22.52684 10.24562 22.52684L5.21822 22.52684 5.21822 23.73644C5.21822 24.12354 4.90462 24.43644 4.51822 24.43644"/>
      <path d="M15.97288 24.43644C15.58648 24.43644 15.27288 24.12354 15.27288 23.73644L15.27288 22.52684 10.24548 22.52684C9.85908 22.52684 9.54548 22.21394 9.54548 21.82684 9.54548 21.44044 9.85908 21.12684 10.24548 21.12684L15.97288 21.12684C16.35928 21.12684 16.67288 21.44044 16.67288 21.82684L16.67288 23.73644C16.67288 24.12354 16.35928 24.43644 15.97288 24.43644M27.42712 24.43644C27.04072 24.43644 26.72712 24.12354 26.72712 23.73644L26.72712 21.82684C26.72712 21.44044 27.04072 21.12684 27.42712 21.12684L32.45452 21.12684 32.45452 19.91794C32.45452 19.53084 32.76812 19.21794 33.15452 19.21794 33.54092 19.21794 33.85452 19.53084 33.85452 19.91794L33.85452 21.82684C33.85452 22.21394 33.54092 22.52684 33.15452 22.52684L28.12712 22.52684 28.12712 23.73644C28.12712 24.12354 27.81352 24.43644 27.42712 24.43644"/>
      <path d="M38.88178,24.43644 C38.49538,24.43644 38.18178,24.12354 38.18178,23.73644 L38.18178,22.52684 L33.15438,22.52684 C32.76798,22.52684 32.45438,22.21394 32.45438,21.82684 C32.45438,21.44044 32.76798,21.12684 33.15438,21.12684 L38.88178,21.12684 C39.26818,21.12684 39.58178,21.44044 39.58178,21.82684 L39.58178,23.73644 C39.58178,24.12354 39.26818,24.43644 38.88178,24.43644"/>
    </g>
  </g>
</svg>
