<?xml version="1.0" encoding="UTF-8"?>
<svg width="44px" height="33px" viewBox="0 0 44 33" version="1.1" xmlns="http://www.w3.org/2000/svg" xmlns:xlink="http://www.w3.org/1999/xlink">
    <!-- Generator: sketchtool 46.2 (44496) - http://www.bohemiancoding.com/sketch -->
    <title>580E6932-5B0F-4AC7-9536-857B271090B6</title>
    <desc>Created with sketchtool.</desc>
    <defs></defs>
    <g id="Page-1" stroke="none" stroke-width="1" fill="none" fill-rule="evenodd">
        <g id="IS_Blockchain-LP-icons" transform="translate(-542.000000, -214.000000)" fill="#FFFFFF">
            <g id="Verification-&amp;-Audit" transform="translate(538.000000, 205.000000)">
                <polygon id="Fill-1" opacity="0" points="0 50 50 50 50 0 0 0"></polygon>
                <g id="Group-18" transform="translate(4.000000, 9.000000)">
                    <path d="M18.5815,7.7637 L24.8178,7.7637 L24.8178,1.5274 L18.5815,1.5274 L18.5815,7.7637 Z M25.5185,9.1637 L17.8815,9.1637 C17.4951,9.1637 17.1815,8.8508 17.1815,8.4637 L17.1815,0.8274 C17.1815,0.4403 17.4951,0.1274 17.8815,0.1274 L25.5185,0.1274 C25.9049,0.1274 26.2185,0.4403 26.2185,0.8274 L26.2185,8.4637 C26.2185,8.8508 25.9049,9.1637 25.5185,9.1637 L25.5185,9.1637 Z" id="Fill-2"></path>
                    <path d="M7.1274,19.2178 L13.3637,19.2178 L13.3637,12.9822 L7.1274,12.9822 L7.1274,19.2178 Z M14.0637,20.6178 L6.4274,20.6178 C6.0403,20.6178 5.7274,20.3049 5.7274,19.9178 L5.7274,12.2822 C5.7274,11.8951 6.0403,11.5822 6.4274,11.5822 L14.0637,11.5822 C14.4501,11.5822 14.7637,11.8951 14.7637,12.2822 L14.7637,19.9178 C14.7637,20.3049 14.4501,20.6178 14.0637,20.6178 L14.0637,20.6178 Z" id="Fill-4"></path>
                    <path d="M30.0363,19.2178 L36.2726,19.2178 L36.2726,12.9822 L30.0363,12.9822 L30.0363,19.2178 Z M36.9726,20.6178 L29.3363,20.6178 C28.9499,20.6178 28.6363,20.3049 28.6363,19.9178 L28.6363,12.2822 C28.6363,11.8951 28.9499,11.5822 29.3363,11.5822 L36.9726,11.5822 C37.3597,11.5822 37.6726,11.8951 37.6726,12.2822 L37.6726,19.9178 C37.6726,20.3049 37.3597,20.6178 36.9726,20.6178 L36.9726,20.6178 Z" id="Fill-5"></path>
                    <path d="M7.1274,19.2178 L13.3637,19.2178 L13.3637,12.9822 L7.1274,12.9822 L7.1274,19.2178 Z M14.0637,20.6178 L6.4274,20.6178 C6.0403,20.6178 5.7274,20.3049 5.7274,19.9178 L5.7274,12.2822 C5.7274,11.8951 6.0403,11.5822 6.4274,11.5822 L14.0637,11.5822 C14.4501,11.5822 14.7637,11.8951 14.7637,12.2822 L14.7637,19.9178 C14.7637,20.3049 14.4501,20.6178 14.0637,20.6178 L14.0637,20.6178 Z" id="Fill-6"></path>
                    <path d="M30.0363,19.2178 L36.2726,19.2178 L36.2726,12.9822 L30.0363,12.9822 L30.0363,19.2178 Z M36.9726,20.6178 L29.3363,20.6178 C28.9499,20.6178 28.6363,20.3049 28.6363,19.9178 L28.6363,12.2822 C28.6363,11.8951 28.9499,11.5822 29.3363,11.5822 L36.9726,11.5822 C37.3597,11.5822 37.6726,11.8951 37.6726,12.2822 L37.6726,19.9178 C37.6726,20.3049 37.3597,20.6178 36.9726,20.6178 L36.9726,20.6178 Z" id="Fill-7"></path>
                    <path d="M12.8548,30.6726 L19.0911,30.6726 L19.0911,24.4363 L12.8548,24.4363 L12.8548,30.6726 Z M19.7904,32.0726 L12.1548,32.0726 C11.7684,32.0726 11.4548,31.7597 11.4548,31.3726 L11.4548,23.7363 C11.4548,23.3492 11.7684,23.0363 12.1548,23.0363 L19.7904,23.0363 C20.1775,23.0363 20.4904,23.3492 20.4904,23.7363 L20.4904,31.3726 C20.4904,31.7597 20.1775,32.0726 19.7904,32.0726 L19.7904,32.0726 Z" id="Fill-8"></path>
                    <path d="M1.4,30.6726 L7.6363,30.6726 L7.6363,24.4363 L1.4,24.4363 L1.4,30.6726 Z M8.3363,32.0726 L0.7,32.0726 C0.3136,32.0726 0,31.7597 0,31.3726 L0,23.7363 C0,23.3492 0.3136,23.0363 0.7,23.0363 L8.3363,23.0363 C8.7227,23.0363 9.0363,23.3492 9.0363,23.7363 L9.0363,31.3726 C9.0363,31.7597 8.7227,32.0726 8.3363,32.0726 L8.3363,32.0726 Z" id="Fill-9"></path>
                    <path d="M24.3096,30.6726 L30.5459,30.6726 L30.5459,24.4363 L24.3096,24.4363 L24.3096,30.6726 Z M31.2452,32.0726 L23.6096,32.0726 C23.2225,32.0726 22.9096,31.7597 22.9096,31.3726 L22.9096,23.7363 C22.9096,23.3492 23.2225,23.0363 23.6096,23.0363 L31.2452,23.0363 C31.6316,23.0363 31.9452,23.3492 31.9452,23.7363 L31.9452,31.3726 C31.9452,31.7597 31.6316,32.0726 31.2452,32.0726 L31.2452,32.0726 Z" id="Fill-10"></path>
                    <path d="M35.7637,30.6726 L42,30.6726 L42,24.4363 L35.7637,24.4363 L35.7637,30.6726 Z M42.7,32.0726 L35.0637,32.0726 C34.6773,32.0726 34.3637,31.7597 34.3637,31.3726 L34.3637,23.7363 C34.3637,23.3492 34.6773,23.0363 35.0637,23.0363 L42.7,23.0363 C43.0864,23.0363 43.4,23.3492 43.4,23.7363 L43.4,31.3726 C43.4,31.7597 43.0864,32.0726 42.7,32.0726 L42.7,32.0726 Z" id="Fill-11"></path>
                    <path d="M10.24534,12.98213 C9.85894,12.98213 9.54534,12.66923 9.54534,12.28213 L9.54534,10.37253 C9.54534,9.98613 9.85894,9.67253 10.24534,9.67253 L21.00014,9.67253 L21.00014,8.84583 C21.00014,8.45873 21.31374,8.14583 21.70014,8.14583 C22.08654,8.14583 22.40014,8.45873 22.40014,8.84583 L22.40014,10.37253 C22.40014,10.75963 22.08654,11.07253 21.70014,11.07253 L10.94534,11.07253 L10.94534,12.28213 C10.94534,12.66923 10.63174,12.98213 10.24534,12.98213" id="Fill-12"></path>
                    <path d="M33.15466,12.98213 C32.76826,12.98213 32.45466,12.66923 32.45466,12.28213 L32.45466,11.07253 L21.69986,11.07253 C21.31346,11.07253 20.99986,10.75963 20.99986,10.37253 C20.99986,9.98613 21.31346,9.67253 21.69986,9.67253 L33.15466,9.67253 C33.54106,9.67253 33.85466,9.98613 33.85466,10.37253 L33.85466,12.28213 C33.85466,12.66923 33.54106,12.98213 33.15466,12.98213" id="Fill-13"></path>
                    <path d="M4.51822,24.43644 C4.13182,24.43644 3.81822,24.12354 3.81822,23.73644 L3.81822,21.82684 C3.81822,21.44044 4.13182,21.12684 4.51822,21.12684 L9.54562,21.12684 L9.54562,19.91794 C9.54562,19.53084 9.85852,19.21794 10.24562,19.21794 C10.63202,19.21794 10.94562,19.53084 10.94562,19.91794 L10.94562,21.82684 C10.94562,22.21394 10.63202,22.52684 10.24562,22.52684 L5.21822,22.52684 L5.21822,23.73644 C5.21822,24.12354 4.90462,24.43644 4.51822,24.43644" id="Fill-14"></path>
                    <path d="M15.97288,24.43644 C15.58648,24.43644 15.27288,24.12354 15.27288,23.73644 L15.27288,22.52684 L10.24548,22.52684 C9.85908,22.52684 9.54548,22.21394 9.54548,21.82684 C9.54548,21.44044 9.85908,21.12684 10.24548,21.12684 L15.97288,21.12684 C16.35928,21.12684 16.67288,21.44044 16.67288,21.82684 L16.67288,23.73644 C16.67288,24.12354 16.35928,24.43644 15.97288,24.43644" id="Fill-15"></path>
                    <path d="M27.42712,24.43644 C27.04072,24.43644 26.72712,24.12354 26.72712,23.73644 L26.72712,21.82684 C26.72712,21.44044 27.04072,21.12684 27.42712,21.12684 L32.45452,21.12684 L32.45452,19.91794 C32.45452,19.53084 32.76812,19.21794 33.15452,19.21794 C33.54092,19.21794 33.85452,19.53084 33.85452,19.91794 L33.85452,21.82684 C33.85452,22.21394 33.54092,22.52684 33.15452,22.52684 L28.12712,22.52684 L28.12712,23.73644 C28.12712,24.12354 27.81352,24.43644 27.42712,24.43644" id="Fill-16"></path>
                    <path d="M38.88178,24.43644 C38.49538,24.43644 38.18178,24.12354 38.18178,23.73644 L38.18178,22.52684 L33.15438,22.52684 C32.76798,22.52684 32.45438,22.21394 32.45438,21.82684 C32.45438,21.44044 32.76798,21.12684 33.15438,21.12684 L38.88178,21.12684 C39.26818,21.12684 39.58178,21.44044 39.58178,21.82684 L39.58178,23.73644 C39.58178,24.12354 39.26818,24.43644 38.88178,24.43644" id="Fill-17"></path>
                </g>
            </g>
        </g>
    </g>
</svg>