<svg xmlns="http://www.w3.org/2000/svg" width="30" height="44" viewBox="0 0 30 44">
  <g fill="none" fill-rule="evenodd" transform="translate(-10 -4)">
    <polygon fill="#FFF" points="0 50 50 50 50 0 0 0" opacity="0"/>
    <g fill="#F57F17" transform="translate(10 4)">
      <path d="M4.2,1.4 C2.6558,1.4 1.4,2.6558 1.4,4.2 L1.4,39.2 C1.4,40.7442 2.6558,42 4.2,42 L25.2,42 C26.7442,42 28,40.7442 28,39.2 L28,4.2 C28,2.6558 26.7442,1.4 25.2,1.4 L4.2,1.4 Z M25.2,43.4 L4.2,43.4 C1.8837,43.4 0,41.5163 0,39.2 L0,4.2 C0,1.8837 1.8837,0 4.2,0 L25.2,0 C27.5163,0 29.4,1.8837 29.4,4.2 L29.4,39.2 C29.4,41.5163 27.5163,43.4 25.2,43.4 L25.2,43.4 Z"/>
      <path d="M25.2 5.6L4.2 5.6C3.8136 5.6 3.5 5.2864 3.5 4.9 3.5 4.5136 3.8136 4.2 4.2 4.2L25.2 4.2C25.5871 4.2 25.9 4.5136 25.9 4.9 25.9 5.2864 25.5871 5.6 25.2 5.6M25.2 37.8L4.2 37.8C3.8136 37.8 3.5 37.4864 3.5 37.1 3.5 36.7136 3.8136 36.4 4.2 36.4L25.2 36.4C25.5871 36.4 25.9 36.7136 25.9 37.1 25.9 37.4864 25.5871 37.8 25.2 37.8M16.1 39.9L13.3 39.9C12.9136 39.9 12.6 39.5864 12.6 39.2 12.6 38.8136 12.9136 38.5 13.3 38.5L16.1 38.5C16.4871 38.5 16.8 38.8136 16.8 39.2 16.8 39.5864 16.4871 39.9 16.1 39.9M14.7 11.2C9.296 11.2 4.9 15.596 4.9 21 4.9 26.404 9.296 30.8 14.7 30.8 20.104 30.8 24.5 26.404 24.5 21 24.5 15.596 20.104 11.2 14.7 11.2M14.7 32.2C8.5246 32.2 3.5 27.1754 3.5 21 3.5 14.8246 8.5246 9.8 14.7 9.8 20.8754 9.8 25.9 14.8246 25.9 21 25.9 27.1754 20.8754 32.2 14.7 32.2"/>
      <path d="M13.3,20.3 L15.4,20.3 C16.1168,20.3 16.6999,19.7169 16.6999,19.0001 C16.6999,18.2833 16.1168,17.7002 15.4,17.7002 L13.3,17.7002 L13.3,20.3 Z M15.4,21.7 L12.6,21.7 C12.2136,21.7 11.9,21.3864 11.9,21 L11.9,17.0002 C11.9,16.6131 12.2136,16.3002 12.6,16.3002 L15.4,16.3002 C16.8889,16.3002 18.0999,17.5112 18.0999,19.0001 C18.0999,20.489 16.8889,21.7 15.4,21.7 L15.4,21.7 Z"/>
      <path d="M13.3 24.30008L16.2001 24.30008C16.9169 24.30008 17.5 23.71698 17.5 23.00018 17.5 22.28338 16.9169 21.70028 16.2001 21.70028L13.3 21.70028 13.3 24.30008zM16.2001 25.70008L12.6 25.70008C12.2136 25.70008 11.9 25.38648 11.9 25.00008L11.9 21.00028C11.9 20.61318 12.2136 20.30028 12.6 20.30028L16.2001 20.30028C17.689 20.30028 18.9 21.51128 18.9 23.00018 18.9 24.48908 17.689 25.70008 16.2001 25.70008L16.2001 25.70008zM12.6 17.69992L11.2 17.69992C10.8136 17.69992 10.5 17.38632 10.5 16.99992 10.5 16.61352 10.8136 16.29992 11.2 16.29992L12.6 16.29992C12.9864 16.29992 13.3 16.61352 13.3 16.99992 13.3 17.38632 12.9864 17.69992 12.6 17.69992"/>
      <path d="M12.6 25.70008L11.2 25.70008C10.8136 25.70008 10.5 25.38648 10.5 25.00008 10.5 24.61368 10.8136 24.30008 11.2 24.30008L12.6 24.30008C12.9864 24.30008 13.3 24.61368 13.3 25.00008 13.3 25.38648 12.9864 25.70008 12.6 25.70008M13.40017 17.69992C13.01377 17.69992 12.70017 17.38632 12.70017 16.99992L12.70017 15.39972C12.70017 15.01332 13.01377 14.69972 13.40017 14.69972 13.78657 14.69972 14.10017 15.01332 14.10017 15.39972L14.10017 16.99992C14.10017 17.38632 13.78657 17.69992 13.40017 17.69992M15.4 17.69992C15.0136 17.69992 14.7 17.38632 14.7 16.99992L14.7 15.39972C14.7 15.01332 15.0136 14.69972 15.4 14.69972 15.7871 14.69972 16.1 15.01332 16.1 15.39972L16.1 16.99992C16.1 17.38632 15.7871 17.69992 15.4 17.69992"/>
      <path d="M13.40017 27.3C13.01377 27.3 12.70017 26.9864 12.70017 26.6L12.70017 24.9998C12.70017 24.6134 13.01377 24.2998 13.40017 24.2998 13.78657 24.2998 14.10017 24.6134 14.10017 24.9998L14.10017 26.6C14.10017 26.9864 13.78657 27.3 13.40017 27.3M15.4 27.3C15.0136 27.3 14.7 26.9864 14.7 26.6L14.7 24.9998C14.7 24.6134 15.0136 24.2998 15.4 24.2998 15.7871 24.2998 16.1 24.6134 16.1 24.9998L16.1 26.6C16.1 26.9864 15.7871 27.3 15.4 27.3"/>
    </g>
  </g>
</svg>
