<svg xmlns="http://www.w3.org/2000/svg" preserveAspectRatio="xMidYMid" width="57" height="58" viewBox="0 0 57 58"><defs><style>.cls-2{fill:#c5c5c5}</style></defs><path d="M55.774 57.998H44.663c-.677 0-1.226-.531-1.226-1.184V1.179c0-.652.549-1.182 1.226-1.182h11.111c.676 0 1.226.53 1.226 1.182v55.635c0 .653-.55 1.184-1.226 1.184zm-21.719 0h-11.11c-.677 0-1.226-.531-1.226-1.184V17.541c0-.652.549-1.183 1.226-1.183h11.109c.677 0 1.226.53 1.227 1.183v39.273c0 .653-.55 1.184-1.226 1.184zm-21.719-.001H1.226C.549 57.997 0 57.466 0 56.814V33.902c0-.651.549-1.182 1.226-1.182h11.11c.677 0 1.226.529 1.226 1.182v22.912c0 .652-.549 1.183-1.226 1.183z" id="path-1" class="cls-2" fill-rule="evenodd"/></svg>