<svg height="44" width="98" xmlns="http://www.w3.org/2000/svg" viewBox="0 0 98 44"><path fill="#171717" fill-rule="evenodd" d="M93.43 40.99L98 43.74h-3.54l-4.34-2.69h-3.81v2.69h-2.9v-7.78h8.99c1.85 0 2.78.12 3.54.45.84.37 1.31 1.04 1.31 2.08 0 .77-.35 1.52-1.09 1.92-.71.39-1.64.55-2.73.58zm.92-2.55c0-.55-.11-.91-.43-1.15-.33-.25-.81-.35-1.9-.35h-5.71v3.13h5.75c.92 0 1.43-.06 1.8-.31.37-.26.49-.67.49-1.17v-.15zm-8.32-10.41c.68.51.95 1.1 1.04 1.71 0 0-.85 1.35-1.61 1.69-2.12.98-3.72-.81-5.45-2.46-1.27-1.21-1.69-1.35-2.44-1.74-1.71-.91-3.41-.83-5.49-.7l-3.41.31c-7.53.66-9.7-4.78-11.41-7.52-.42-.67-1.81-1.69-3.33-1.8 0 0-.89-.04-2.02.11-6.51.84-8.99.42-11.64-.45-1.65 2.02-6.05.88-6.05.88-1.48-.39-8.04-2.68-8.79-2.92-1.13-.37-1.56.77-1.56.77-1.17 2.57-3.59 2.76-3.62 2.78 0 0-2.56-.89-1.3-3.47.48-.99 2.13-3.42 4.71-3.88.91-.17 2.09-.4 3.09-.48-3.49-2.79-5.53-2.22-5.66-2.2 0 0-1.88.33-3.21 1.55-.49.45-.84.99-1.3 1.63 0 0-.24.42-.87.38-.92-.05-1.86-.69-1.86-.69-.22-.16-.13-.51-.03-.7.07-.1.17-.29.17-.29-.05-.15-.11-.34-.16-.52-.08-.31-.06-.38-.06-.38s.53.29.82.29c.08 0 .12-.01.12-.01.42-.13.82-.97.83-1.06.36-1.19-.07-2.03-.43-2.29-.46-.31-1.02-.06-1.24.16-.25.24-.48.72-.59 1.11 0 0-.1.32-.06.66.04.3.33.81.41 1.07 0 0-.66.01-1.07-.39 0 0-.06.11-.36.16-.81.14-1.39-.45-1.68-.79-.19-.23-.34-.61-.5-.87-.08-.13-.26-.27-.26-.27-.4-.37-.18-.91.01-1.22.56-.88 1.66-1.86 1.66-1.86.08-.08.05-.21.05-.21-.2-.42.15-.82.15-.82C13.67.33 20.2.04 20.2.04 32.8-.7 50.84 7.22 50.84 7.22c9.33 3.69 15.67 6.87 15.67 6.87 5.54 2.72 16.42 8.95 19.8 10.41 0 0 1.76.75 3.95.1 1.03-.3 1.72-.99 2.32-1.12 0 0 1.28-.33 1.74.7.17.37.12.98-.31 1.66-1.69 2.95-6.04 2.65-7.98 2.19zM15.42 6.12c.24.16.43.43.58.75-.34-1.14-1.07-1.12-1.23-1.1 0 0-.23.02-.38.13.33-.06.7-.01 1.03.22zm-3.7-1.59c-.01.01-.02.02-.03.04-.01 0-.96.81-1.68 1.87 0 0 1.43-1.53 1.98-1.76a.897.897 0 0 1-.23-.19c-.01.01-.02.03-.04.04zm38.92 3.2h-.01-.02C50.44 7.65 32.55-.13 20.23.6c-.03 0-1.13.06-2.53.31.88-.08 2.1-.14 3.67-.07l.89.04s-.28.53-.37.68c.73-.35 1.67-.66 2.74-.66h.01c.26.01 5.59.17 10.04 3.32 0-.01-.63-1.02-.63-1.02l1.14.13c.01 0 .3.03 1.04.16.2.02 2.95.4 9.26 2.58.04.01 4.85 1.59 7.46 2.63 0 0 1.63.64 1.94.77-1.33-.56-2.76-1.14-4.25-1.74zm42.8 16.77c-.56-.56-1.85.43-2.57.7 0 0-2.19.87-5.36-.55 0 0-11.43-5.96-12.56-6.58-6.32-3.44-16.24-7.28-20.2-8.85-2.63-1.05-7.44-2.63-7.44-2.63-6.43-2.21-9.16-2.56-9.16-2.56-.75-.12-1.02-.15-1.02-.15l.3.49c.71 1.17.91 2 .91 2-4.55-4.76-11.71-4.91-11.71-4.91-2.3 0-3.95 1.55-3.95 1.55-.17.22.18.29.18.29 2.8.85 4.44 4.12 4.44 4.12-3.44-2.77-5.47-3.13-5.47-3.13-2.25-.33-2.27-1.25-2.27-1.25 2.07.46 3.33-.77 3.64-1.37l.15-.27c-3.58-.16-5.25.34-5.25.34-3.39.78-3.91 1.69-4.05 1.91-.15.23-.17.98.71.78 0 0 .36-1.22 1.4-1.4 0 0 .52-.08 1.58-.06 0 0-.75 1.63-2.32 1.9 0 0-.57.08-.74.1-.17.02-1.41.24-2.04 1.72 0 0-.35.67.13 1.17.01.03.04.05.06.07 0 0 .39.48.91.5.05 0 .19 0 .26-.01.18-.03.52-.19.85-.91 0 0 .54-1.21.8-1.6 0 0 .3-.61 1.04-.69 0 0 1.53-.25 1.94 1.89.2 1.07 0 1.87-1.61 3.51 0 0-.23.23-.51.45 0 0-.1.08-.12.2-.01.05.01.13.07.17 0 0 .74.37 1.08.33.34-.05.26-.09 1.78-2.02 0 0 2.18-.6 2.2-2.48 0-.13-.03-.54-.06-.77-.05-.39-.19-1.02-.55-1.52 0 0 1.02.04 2.05 1.8.03.04.05.09.08.13 0 0 .35.91 1.09 1 0 0 1.77.24 4.01 1.61.52.31 1.88 1.21 1.97 1.24-.3-.85-.49-1.85-.15-3.04.03.07.04 3.68 6.28 5.52-2.94-.29-4.17-1.39-6.13-1.67-.76-.1-1.74-.01-2.93.1-2.7.25-4.18 1.06-5.63 3.59-1.04 1.81.82 2.92.82 2.92.23-.09.5-.19.78-.33-.47-.06-1.97-.96-.54-3.01 0 0-.91 2.11 1.37 2.52.43-.27 1.29-1.12 1.3-1.84.31-.5.91-1.32 2.64-.8 7.35 2.03 7.97 2.21 8.49 2.31 4.92.99 5.38-1.47 5.38-1.47.67-2.31-2.15-5.84-2.15-5.84 4.53 3.61 10.99 3.58 10.99 3.58-3.97.81-8.15-.61-8.81-.81 0 0 1.19 1.74.8 3.44 0 0 2.89 2.13 11.39.92 1.97-.28 2.7.06 2.7.06.1-1-1.65-2.51-1.65-2.51 1.78.75 3.55 3.04 3.88 3.48.21.27.43.6.68 1.01.72 1.2 3.43 6.91 9.88 6.42l3.31-.17s4.52-.39 6.53 1c1.32.91 1.41 1.08 2.19 1.72 1.03.85 2.86 3.15 4.73 3.26.55.02 1.08-.17 1.62-.62-1.79.52-2.83-.57-2.97-.71 1.99.53 2.82.36 3.49-.32.04-.62-.8-1.26-1.32-1.52-1.49-.75-2.04-1.52-2.79-2.27-.64-.63-1.66-2.07-2.26-2.58-.65-.54-1.53-1.18-3.5-1.15-2.01.03-4.34.05-5.03-.06-.73-.12-1.14-.22-1.81-.76-.54-.43-.89-.92-1.21-1.47-.31-.55-.6-1.29-1.18-2.32-.4-.71-1.11-1.27-1.11-1.27.92.58 1.4.86 2.08 1.85 1.41 2.09 2.47 2.68 3.34 2.97 1.32.44 4.81.53 6.24.72 1.37.19 2.19 1.01 2.53 1.36.76.79 1.59 1.58 2.26 2.28 2.12 2.23 4.55 2.47 4.56 2.47 1.25.21 3.42.08 4.46-.38.99-.44 1.81-1.2 1.98-1.77.13-.39.1-.78-.2-1.07zM20.12 3.35v-.01c-.26.11-.55.21-.86.27.19.05.4.09.65.13h.01c.06.01.98.19 2.57 1.08-.53-.42-1.12-.78-1.79-.98-.14-.04-.46-.16-.58-.49zM13.1 4.41c.13-.01.44-.08.44-.08.8-.14 1.01-.8 1.01-.8-.42 0-.69.02-.69.02-.47.05-.65.56-.67.61-.02.05-.09.25-.09.25zm6.35-2.56c.19 0 .69.01 1 .01.03 0-.13.1-.37.21-.34.16-.85.34-1.3.34-.12-.01-.21-.01-.29-.01-.18-.01-.29-.02-.29-.05.01-.04.43-.5 1.25-.5zm-7.01 34.11v3.8c0 1.22-.29 1.97-.87 2.56-1.02 1.05-2.97 1.42-5.74 1.42H0V42.7h5.37c1.65 0 2.76-.27 3.43-.94.51-.5.74-1.2.74-2.24v-3.56h2.9zm10.93 0l6.76 7.78h-3.25l-1.43-1.65h-8.59l-1.42 1.65h-1.68l6.75-7.78h2.86zm1.22 5.12l-3.44-3.99-3.42 3.99h6.86zm12.61-5.12h8.14V37H38.1c-1.55 0-2.4.23-3.04.76-.58.46-.88 1.16-.88 2.09 0 .97.32 1.68.93 2.14.65.49 1.52.71 3.01.71h4.63v-2.53h2.88v3.57h-8.38c-1.58 0-2.82-.18-3.75-.56-1.56-.63-2.27-1.77-2.27-3.34 0-1.48.77-2.51 1.76-3.06 1.05-.59 2.23-.82 4.21-.82zm14.53 3.77c0 1.01.13 1.6.5 2.13.63.88 1.71 1.2 3.66 1.2h.24c2.04 0 3.03-.32 3.66-1.2.37-.53.5-1.15.5-2.13v-3.77h2.9v3.88c0 1-.11 1.8-.62 2.46-.82 1.08-2.33 1.7-6.55 1.7h-.04c-4.19 0-5.71-.62-6.53-1.7-.51-.66-.62-1.46-.62-2.46v-3.88h2.9v3.77zm22.35-3.77l6.76 7.78h-3.25l-1.43-1.65h-8.59l-1.42 1.65h-1.68l6.75-7.78h2.86zm1.21 5.12l-3.43-3.99-3.43 3.99h6.86z"/></svg>