<?xml version="1.0" encoding="utf-8"?>
<!-- Generator: Avocode 2.5.3 - http://avocode.com -->
<svg height="21" width="19" xmlns:xlink="http://www.w3.org/1999/xlink" xmlns="http://www.w3.org/2000/svg" viewBox="0 0 19 21">
    <path fill="#97743a" fill-rule="evenodd" d="M 17.83 8.5 C 17.83 8.5 3.46 0.3 3.46 0.3 C 3.12 0.11 2.72 0 2.31 0 C 1.91 0 1.51 0.11 1.15 0.31 C 0.44 0.72 0 1.49 0 2.31 C 0 2.31 0 18.69 0 18.69 C 0 19.51 0.44 20.28 1.15 20.69 C 1.51 20.89 1.91 21 2.31 21 C 2.72 21 3.11 20.89 3.46 20.7 C 3.46 20.7 17.83 12.5 17.83 12.5 C 18.55 12.09 19 11.33 19 10.5 C 19 9.67 18.55 8.91 17.83 8.5 Z M 11.61 6.56 C 11.61 6.56 9.63 9.3 9.63 9.3 C 9.63 9.3 4.91 2.74 4.91 2.74 C 4.91 2.74 11.61 6.56 11.61 6.56 Z M 2.22 19.59 C 2.1 19.58 1.97 19.54 1.86 19.48 C 1.58 19.32 1.4 19.01 1.4 18.69 C 1.4 18.69 1.4 2.31 1.4 2.31 C 1.4 1.99 1.58 1.68 1.86 1.52 C 1.97 1.46 2.1 1.42 2.22 1.41 C 2.22 1.41 8.77 10.5 8.77 10.5 C 8.77 10.5 2.22 19.59 2.22 19.59 Z M 4.91 18.26 C 4.91 18.26 9.63 11.7 9.63 11.7 C 9.63 11.7 11.61 14.44 11.61 14.44 C 11.61 14.44 4.91 18.26 4.91 18.26 Z M 17.14 11.29 C 17.14 11.29 12.83 13.74 12.83 13.74 C 12.83 13.74 10.5 10.5 10.5 10.5 C 10.5 10.5 12.83 7.26 12.83 7.26 C 12.83 7.26 17.14 9.71 17.14 9.71 C 17.42 9.87 17.6 10.18 17.6 10.5 C 17.6 10.82 17.42 11.13 17.14 11.29 Z" />
</svg>