<?xml version="1.0" encoding="utf-8"?>
<!-- Generator: Avocode 2.6.0 - http://avocode.com -->
<svg height="44" width="98" xmlns:xlink="http://www.w3.org/1999/xlink" xmlns="http://www.w3.org/2000/svg" viewBox="0 0 98 44">
    <path fill="#171717" fill-rule="evenodd" d="M 93.43 40.99 C 93.43 40.99 98 43.74 98 43.74 C 98 43.74 94.46 43.74 94.46 43.74 C 94.46 43.74 90.12 41.05 90.12 41.05 C 90.12 41.05 86.31 41.05 86.31 41.05 C 86.31 41.05 86.31 43.74 86.31 43.74 C 86.31 43.74 83.41 43.74 83.41 43.74 C 83.41 43.74 83.41 35.96 83.41 35.96 C 83.41 35.96 92.4 35.96 92.4 35.96 C 94.25 35.96 95.18 36.08 95.94 36.41 C 96.78 36.78 97.25 37.45 97.25 38.49 C 97.25 39.26 96.9 40.01 96.16 40.41 C 95.45 40.8 94.52 40.96 93.43 40.99 Z M 94.35 38.44 C 94.35 37.89 94.24 37.53 93.92 37.29 C 93.59 37.04 93.11 36.94 92.02 36.94 C 92.02 36.94 86.31 36.94 86.31 36.94 C 86.31 36.94 86.31 40.07 86.31 40.07 C 86.31 40.07 92.06 40.07 92.06 40.07 C 92.98 40.07 93.49 40.01 93.86 39.76 C 94.23 39.5 94.35 39.09 94.35 38.59 C 94.35 38.59 94.35 38.44 94.35 38.44 Z M 86.03 28.03 C 86.71 28.54 86.98 29.13 87.07 29.74 C 87.07 29.74 86.22 31.09 85.46 31.43 C 83.34 32.41 81.74 30.62 80.01 28.97 C 78.74 27.76 78.32 27.62 77.57 27.23 C 75.86 26.32 74.16 26.4 72.08 26.53 C 72.08 26.53 68.67 26.84 68.67 26.84 C 61.14 27.5 58.97 22.06 57.26 19.32 C 56.84 18.65 55.45 17.63 53.93 17.52 C 53.93 17.52 53.04 17.48 51.91 17.63 C 45.4 18.47 42.92 18.05 40.27 17.18 C 38.62 19.2 34.22 18.06 34.22 18.06 C 32.74 17.67 26.18 15.38 25.43 15.14 C 24.3 14.77 23.87 15.91 23.87 15.91 C 22.7 18.48 20.28 18.67 20.25 18.69 C 20.25 18.69 17.69 17.8 18.95 15.22 C 19.43 14.23 21.08 11.8 23.66 11.34 C 24.57 11.17 25.75 10.94 26.75 10.86 C 23.26 8.07 21.22 8.64 21.09 8.66 C 21.09 8.66 19.21 8.99 17.88 10.21 C 17.39 10.66 17.04 11.2 16.58 11.84 C 16.58 11.84 16.34 12.26 15.71 12.22 C 14.79 12.17 13.85 11.53 13.85 11.53 C 13.63 11.37 13.72 11.02 13.82 10.83 C 13.89 10.73 13.99 10.54 13.99 10.54 C 13.94 10.39 13.88 10.2 13.83 10.02 C 13.75 9.71 13.77 9.64 13.77 9.64 C 13.77 9.64 14.3 9.93 14.59 9.93 C 14.67 9.93 14.71 9.92 14.71 9.92 C 15.13 9.79 15.53 8.95 15.54 8.86 C 15.9 7.67 15.47 6.83 15.11 6.57 C 14.65 6.26 14.09 6.51 13.87 6.73 C 13.62 6.97 13.39 7.45 13.28 7.84 C 13.28 7.84 13.18 8.16 13.22 8.5 C 13.26 8.8 13.55 9.31 13.63 9.57 C 13.63 9.57 12.97 9.58 12.56 9.18 C 12.56 9.18 12.5 9.29 12.2 9.34 C 11.39 9.48 10.81 8.89 10.52 8.55 C 10.33 8.32 10.18 7.94 10.02 7.68 C 9.94 7.55 9.76 7.41 9.76 7.41 C 9.36 7.04 9.58 6.5 9.77 6.19 C 10.33 5.31 11.43 4.33 11.43 4.33 C 11.51 4.25 11.48 4.12 11.48 4.12 C 11.28 3.7 11.63 3.3 11.63 3.3 C 13.67 0.33 20.2 0.04 20.2 0.04 C 32.8 -0.7 50.84 7.22 50.84 7.22 C 60.17 10.91 66.51 14.09 66.51 14.09 C 72.05 16.81 82.93 23.04 86.31 24.5 C 86.31 24.5 88.07 25.25 90.26 24.6 C 91.29 24.3 91.98 23.61 92.58 23.48 C 92.58 23.48 93.86 23.15 94.32 24.18 C 94.49 24.55 94.44 25.16 94.01 25.84 C 92.32 28.79 87.97 28.49 86.03 28.03 Z M 15.42 6.12 C 15.66 6.28 15.85 6.55 16 6.87 C 15.66 5.73 14.93 5.75 14.77 5.77 C 14.77 5.77 14.54 5.79 14.39 5.9 C 14.72 5.84 15.09 5.89 15.42 6.12 Z M 11.72 4.53 C 11.71 4.54 11.7 4.55 11.69 4.57 C 11.68 4.57 10.73 5.38 10.01 6.44 C 10.01 6.44 11.44 4.91 11.99 4.68 C 11.89 4.62 11.82 4.56 11.76 4.49 C 11.75 4.5 11.74 4.52 11.72 4.53 Z M 50.64 7.73 C 50.64 7.73 50.63 7.73 50.63 7.73 C 50.63 7.73 50.61 7.73 50.61 7.73 C 50.44 7.65 32.55 -0.13 20.23 0.6 C 20.2 0.6 19.1 0.66 17.7 0.91 C 18.58 0.83 19.8 0.77 21.37 0.84 C 21.37 0.84 22.26 0.88 22.26 0.88 C 22.26 0.88 21.98 1.41 21.89 1.56 C 22.62 1.21 23.56 0.9 24.63 0.9 C 24.63 0.9 24.64 0.9 24.64 0.9 C 24.9 0.91 30.23 1.07 34.68 4.22 C 34.68 4.21 34.05 3.2 34.05 3.2 C 34.05 3.2 35.19 3.33 35.19 3.33 C 35.2 3.33 35.49 3.36 36.23 3.49 C 36.43 3.51 39.18 3.89 45.49 6.07 C 45.53 6.08 50.34 7.66 52.95 8.7 C 52.95 8.7 54.58 9.34 54.89 9.47 C 53.56 8.91 52.13 8.33 50.64 7.73 Z M 93.44 24.5 C 92.88 23.94 91.59 24.93 90.87 25.2 C 90.87 25.2 88.68 26.07 85.51 24.65 C 85.51 24.65 74.08 18.69 72.95 18.07 C 66.63 14.63 56.71 10.79 52.75 9.22 C 50.12 8.17 45.31 6.59 45.31 6.59 C 38.88 4.38 36.15 4.03 36.15 4.03 C 35.4 3.91 35.13 3.88 35.13 3.88 C 35.43 4.37 35.43 4.37 35.43 4.37 C 36.14 5.54 36.34 6.37 36.34 6.37 C 31.79 1.61 24.63 1.46 24.63 1.46 C 22.33 1.46 20.68 3.01 20.68 3.01 C 20.51 3.23 20.86 3.3 20.86 3.3 C 23.66 4.15 25.3 7.42 25.3 7.42 C 21.86 4.65 19.83 4.29 19.83 4.29 C 17.58 3.96 17.56 3.04 17.56 3.04 C 19.63 3.5 20.89 2.27 21.2 1.67 C 21.35 1.4 21.35 1.4 21.35 1.4 C 17.77 1.24 16.1 1.74 16.1 1.74 C 12.71 2.52 12.19 3.43 12.05 3.65 C 11.9 3.88 11.88 4.63 12.76 4.43 C 12.76 4.43 13.12 3.21 14.16 3.03 C 14.16 3.03 14.68 2.95 15.74 2.97 C 15.74 2.97 14.99 4.6 13.42 4.87 C 13.42 4.87 12.85 4.95 12.68 4.97 C 12.51 4.99 11.27 5.21 10.64 6.69 C 10.64 6.69 10.29 7.36 10.77 7.86 C 10.78 7.89 10.81 7.91 10.83 7.93 C 10.83 7.93 11.22 8.41 11.74 8.43 C 11.79 8.43 11.93 8.43 12 8.42 C 12.18 8.39 12.52 8.23 12.85 7.51 C 12.85 7.51 13.39 6.3 13.65 5.91 C 13.65 5.91 13.95 5.3 14.69 5.22 C 14.69 5.22 16.22 4.97 16.63 7.11 C 16.83 8.18 16.63 8.98 15.02 10.62 C 15.02 10.62 14.79 10.85 14.51 11.07 C 14.51 11.07 14.41 11.15 14.39 11.27 C 14.38 11.32 14.4 11.4 14.46 11.44 C 14.46 11.44 15.2 11.81 15.54 11.77 C 15.88 11.72 15.8 11.68 17.32 9.75 C 17.32 9.75 19.5 9.15 19.52 7.27 C 19.52 7.14 19.49 6.73 19.46 6.5 C 19.41 6.11 19.27 5.48 18.91 4.98 C 18.91 4.98 19.93 5.02 20.96 6.78 C 20.99 6.82 21.01 6.87 21.04 6.91 C 21.04 6.91 21.39 7.82 22.13 7.91 C 22.13 7.91 23.9 8.15 26.14 9.52 C 26.66 9.83 28.02 10.73 28.11 10.76 C 27.81 9.91 27.62 8.91 27.96 7.72 C 27.96 7.72 27.96 7.72 27.96 7.72 C 27.99 7.79 28 11.4 34.24 13.24 C 31.3 12.95 30.07 11.85 28.11 11.57 C 27.35 11.47 26.37 11.56 25.18 11.67 C 22.48 11.92 21 12.73 19.55 15.26 C 18.51 17.07 20.37 18.18 20.37 18.18 C 20.6 18.09 20.87 17.99 21.15 17.85 C 20.68 17.79 19.18 16.89 20.61 14.84 C 20.61 14.84 19.7 16.95 21.98 17.36 C 22.41 17.09 23.27 16.24 23.28 15.52 C 23.59 15.02 24.19 14.2 25.92 14.72 C 33.27 16.75 33.89 16.93 34.41 17.03 C 39.33 18.02 39.79 15.56 39.79 15.56 C 40.46 13.25 37.64 9.72 37.64 9.72 C 42.17 13.33 48.63 13.3 48.63 13.3 C 44.66 14.11 40.48 12.69 39.82 12.49 C 39.82 12.49 41.01 14.23 40.62 15.93 C 40.62 15.93 43.51 18.06 52.01 16.85 C 53.98 16.57 54.71 16.91 54.71 16.91 C 54.81 15.91 53.06 14.4 53.06 14.4 C 54.84 15.15 56.61 17.44 56.94 17.88 C 57.15 18.15 57.37 18.48 57.62 18.89 C 58.34 20.09 61.05 25.8 67.5 25.31 C 67.5 25.31 70.81 25.14 70.81 25.14 C 70.81 25.14 75.33 24.75 77.34 26.14 C 78.66 27.05 78.75 27.22 79.53 27.86 C 80.56 28.71 82.39 31.01 84.26 31.12 C 84.81 31.14 85.34 30.95 85.88 30.5 C 84.09 31.02 83.05 29.93 82.91 29.79 C 84.9 30.32 85.73 30.15 86.4 29.47 C 86.44 28.85 85.6 28.21 85.08 27.95 C 83.59 27.2 83.04 26.43 82.29 25.68 C 81.65 25.05 80.63 23.61 80.03 23.1 C 79.38 22.56 78.5 21.92 76.53 21.95 C 74.52 21.98 72.19 22 71.5 21.89 C 70.77 21.77 70.36 21.67 69.69 21.13 C 69.15 20.7 68.8 20.21 68.48 19.66 C 68.17 19.11 67.88 18.37 67.3 17.34 C 66.9 16.63 66.19 16.07 66.19 16.07 C 67.11 16.65 67.59 16.93 68.27 17.92 C 69.68 20.01 70.74 20.6 71.61 20.89 C 72.93 21.33 76.42 21.42 77.85 21.61 C 79.22 21.8 80.04 22.62 80.38 22.97 C 81.14 23.76 81.97 24.55 82.64 25.25 C 84.76 27.48 87.19 27.72 87.2 27.72 C 88.45 27.93 90.62 27.8 91.66 27.34 C 92.65 26.9 93.47 26.14 93.64 25.57 C 93.77 25.18 93.74 24.79 93.44 24.5 Z M 20.12 3.35 C 20.12 3.34 20.12 3.34 20.12 3.34 C 19.86 3.45 19.57 3.55 19.26 3.61 C 19.45 3.66 19.66 3.7 19.91 3.74 C 19.91 3.74 19.92 3.74 19.92 3.74 C 19.98 3.75 20.9 3.93 22.49 4.82 C 21.96 4.4 21.37 4.04 20.7 3.84 C 20.56 3.8 20.24 3.68 20.12 3.35 Z M 13.1 4.41 C 13.23 4.4 13.54 4.33 13.54 4.33 C 14.34 4.19 14.55 3.53 14.55 3.53 C 14.13 3.53 13.86 3.55 13.86 3.55 C 13.39 3.6 13.21 4.11 13.19 4.16 C 13.17 4.21 13.1 4.41 13.1 4.41 Z M 19.45 1.85 C 19.64 1.85 20.14 1.86 20.45 1.86 C 20.48 1.86 20.32 1.96 20.08 2.07 C 19.74 2.23 19.23 2.41 18.78 2.41 C 18.66 2.4 18.57 2.4 18.49 2.4 C 18.31 2.39 18.2 2.38 18.2 2.35 C 18.21 2.31 18.63 1.85 19.45 1.85 Z M 12.44 35.96 C 12.44 35.96 12.44 39.76 12.44 39.76 C 12.44 40.98 12.15 41.73 11.57 42.32 C 10.55 43.37 8.6 43.74 5.83 43.74 C 5.83 43.74 0 43.74 0 43.74 C 0 43.74 0 42.7 0 42.7 C 0 42.7 5.37 42.7 5.37 42.7 C 7.02 42.7 8.13 42.43 8.8 41.76 C 9.31 41.26 9.54 40.56 9.54 39.52 C 9.54 39.52 9.54 35.96 9.54 35.96 C 9.54 35.96 12.44 35.96 12.44 35.96 Z M 23.37 35.96 C 23.37 35.96 30.13 43.74 30.13 43.74 C 30.13 43.74 26.88 43.74 26.88 43.74 C 26.88 43.74 25.45 42.09 25.45 42.09 C 25.45 42.09 16.86 42.09 16.86 42.09 C 16.86 42.09 15.44 43.74 15.44 43.74 C 15.44 43.74 13.76 43.74 13.76 43.74 C 13.76 43.74 20.51 35.96 20.51 35.96 C 20.51 35.96 23.37 35.96 23.37 35.96 Z M 24.59 41.08 C 24.59 41.08 21.15 37.09 21.15 37.09 C 21.15 37.09 17.73 41.08 17.73 41.08 C 17.73 41.08 24.59 41.08 24.59 41.08 Z M 37.2 35.96 C 37.2 35.96 45.34 35.96 45.34 35.96 C 45.34 35.96 45.34 37 45.34 37 C 45.34 37 38.1 37 38.1 37 C 36.55 37 35.7 37.23 35.06 37.76 C 34.48 38.22 34.18 38.92 34.18 39.85 C 34.18 40.82 34.5 41.53 35.11 41.99 C 35.76 42.48 36.63 42.7 38.12 42.7 C 38.12 42.7 42.75 42.7 42.75 42.7 C 42.75 42.7 42.75 40.17 42.75 40.17 C 42.75 40.17 45.63 40.17 45.63 40.17 C 45.63 40.17 45.63 43.74 45.63 43.74 C 45.63 43.74 37.25 43.74 37.25 43.74 C 35.67 43.74 34.43 43.56 33.5 43.18 C 31.94 42.55 31.23 41.41 31.23 39.84 C 31.23 38.36 32 37.33 32.99 36.78 C 34.04 36.19 35.22 35.96 37.2 35.96 Z M 51.73 39.73 C 51.73 40.74 51.86 41.33 52.23 41.86 C 52.86 42.74 53.94 43.06 55.89 43.06 C 55.89 43.06 56.13 43.06 56.13 43.06 C 58.17 43.06 59.16 42.74 59.79 41.86 C 60.16 41.33 60.29 40.71 60.29 39.73 C 60.29 39.73 60.29 35.96 60.29 35.96 C 60.29 35.96 63.19 35.96 63.19 35.96 C 63.19 35.96 63.19 39.84 63.19 39.84 C 63.19 40.84 63.08 41.64 62.57 42.3 C 61.75 43.38 60.24 44 56.02 44 C 56.02 44 55.98 44 55.98 44 C 51.79 44 50.27 43.38 49.45 42.3 C 48.94 41.64 48.83 40.84 48.83 39.84 C 48.83 39.84 48.83 35.96 48.83 35.96 C 48.83 35.96 51.73 35.96 51.73 35.96 C 51.73 35.96 51.73 39.73 51.73 39.73 Z M 74.08 35.96 C 74.08 35.96 80.84 43.74 80.84 43.74 C 80.84 43.74 77.59 43.74 77.59 43.74 C 77.59 43.74 76.16 42.09 76.16 42.09 C 76.16 42.09 67.57 42.09 67.57 42.09 C 67.57 42.09 66.15 43.74 66.15 43.74 C 66.15 43.74 64.47 43.74 64.47 43.74 C 64.47 43.74 71.22 35.96 71.22 35.96 C 71.22 35.96 74.08 35.96 74.08 35.96 Z M 75.29 41.08 C 75.29 41.08 71.86 37.09 71.86 37.09 C 71.86 37.09 68.43 41.08 68.43 41.08 C 68.43 41.08 75.29 41.08 75.29 41.08 Z" />
</svg>