<?xml version="1.0" encoding="utf-8"?>
<!-- Generator: Avocode 2.5.4 - http://avocode.com -->
<svg height="24" width="20" xmlns:xlink="http://www.w3.org/1999/xlink" xmlns="http://www.w3.org/2000/svg" viewBox="0 0 20 24">
    <path fill="#ffffff" fill-rule="evenodd" d="M 19.23 17.29 C 18.72 18.43 18.47 18.96 17.81 19.97 C 16.75 21.61 15.41 23.3 13.64 23.32 C 12.86 23.32 12.36 23.09 11.88 22.87 C 11.39 22.64 10.92 22.42 10.06 22.42 C 9.16 22.43 8.67 22.65 8.16 22.88 C 7.67 23.1 7.17 23.33 6.42 23.33 C 6.42 23.33 6.38 23.33 6.38 23.33 C 4.56 23.31 3.23 21.61 2.27 20.14 C -0.2 16.32 -0.71 11.54 1.06 8.77 C 2.23 6.95 4.11 5.81 5.97 5.81 C 6.93 5.81 7.7 6.09 8.38 6.33 C 8.96 6.54 9.46 6.72 10.01 6.72 C 10.5 6.72 10.94 6.56 11.44 6.37 C 12.12 6.1 12.89 5.81 14.04 5.81 C 15.67 5.81 17.36 6.7 18.54 8.19 C 18.64 8.33 18.69 8.5 18.65 8.67 C 18.62 8.84 18.51 8.99 18.36 9.07 C 16.95 9.86 16.17 11.29 16.28 12.9 C 16.4 14.55 17.4 15.93 18.9 16.5 C 19.05 16.56 19.17 16.68 19.23 16.83 C 19.29 16.98 19.29 17.15 19.23 17.29 Z M 15.12 12.99 C 15 11.15 15.76 9.5 17.19 8.44 C 16.28 7.52 15.14 6.99 14.04 6.99 C 13.11 6.99 12.47 7.23 11.85 7.47 C 11.29 7.68 10.72 7.9 10.01 7.9 C 9.26 7.9 8.62 7.67 7.99 7.44 C 7.34 7.21 6.73 6.99 5.97 6.99 C 4.5 6.99 3 7.91 2.03 9.41 C 0.75 11.41 0.74 15.63 3.25 19.49 C 4.05 20.72 5.13 22.14 6.39 22.15 C 6.39 22.15 6.42 22.74 6.42 22.74 C 6.42 22.74 6.42 22.15 6.42 22.15 C 6.92 22.15 7.26 22 7.69 21.8 C 8.23 21.56 8.91 21.25 10.03 21.25 C 11.17 21.25 11.84 21.55 12.37 21.8 C 12.78 21.99 13.11 22.15 13.61 22.15 C 14.86 22.13 16 20.63 16.84 19.32 C 17.34 18.55 17.59 18.09 17.93 17.35 C 16.31 16.5 15.25 14.88 15.12 12.99 Z M 9.43 6.31 C 9.43 6.31 9.34 6.31 9.33 6.31 C 9.06 6.3 8.82 6.1 8.78 5.83 C 8.55 4.59 8.99 3.15 9.95 1.97 C 10.84 0.88 12.29 0.09 13.58 0 C 13.89 -0.03 14.15 0.19 14.2 0.5 C 14.38 1.8 13.97 3.22 13.05 4.41 C 12.16 5.56 10.74 6.31 9.43 6.31 Z M 10.85 2.72 C 10.6 3.01 9.9 3.97 9.88 5.09 C 10.71 4.95 11.57 4.42 12.14 3.69 C 12.42 3.31 13.03 2.4 13.07 1.28 C 12.26 1.5 11.39 2.05 10.85 2.72 Z" />
</svg>