<?xml version="1.0" encoding="UTF-8"?>
<svg width="56px" height="46px" viewBox="0 0 56 46" version="1.1" xmlns="http://www.w3.org/2000/svg" xmlns:xlink="http://www.w3.org/1999/xlink">
    <!-- Generator: Sketch 57.1 (83088) - https://sketch.com -->
    <title>360-degree-cx-design</title>
    <desc>Created with Sketch.</desc>
    <g id="Page-1" stroke="none" stroke-width="1" fill="none" fill-rule="evenodd" stroke-linejoin="round">
        <g id="360-degree-cx-design" transform="translate(1.000000, 1.000000)" stroke="#363537" stroke-width="1.5">
            <path d="M54,36.3913043 C54,38.9844783 51.8975217,41.0869565 49.3043478,41.0869565 L10.5652174,41.0869565 L10.5652174,5.86956522 L46.9565217,5.86956522" id="Path"></path>
            <path d="M46.9565217,32.8695652 C47.4460435,32.0372609 48.4485652,31.6956522 49.3043478,31.6956522 C51.8975217,31.6956522 54,33.7981304 54,36.3913043 L54,4.69565217 C54,2.10247826 51.8975217,1.42108547e-14 49.3043478,1.42108547e-14 C48.4485652,1.42108547e-14 47.3603478,0.201913043 46.9565217,1.17391304 L46.9565217,32.8695652 Z" id="Path"></path>
            <path d="M2.93478261,2.34782609 C1.3136087,2.34782609 0,3.39965217 0,4.69565217 L0,37.5652174 L2.93478261,43.4347826 L5.86956522,37.5652174 L5.86956522,4.69565217 C5.86956522,3.39965217 4.55595652,2.34782609 2.93478261,2.34782609 Z" id="Path"></path>
            <path d="M0,9.39130435 L5.86956522,9.39130435 L0,9.39130435 Z" id="Path"></path>
            <path d="M18.7826087,16.4347826 L25.826087,16.4347826 L25.826087,11.7391304 L18.7826087,11.7391304 L18.7826087,16.4347826 Z M31.6956522,16.4347826 L38.7391304,16.4347826 L38.7391304,11.7391304 L31.6956522,11.7391304 L31.6956522,16.4347826 Z M31.6956522,14.0869565 L25.826087,14.0869565 L31.6956522,14.0869565 Z M18.7826087,25.826087 L25.826087,25.826087 L25.826087,21.1304348 L18.7826087,21.1304348 L18.7826087,25.826087 Z M31.6956522,25.826087 L38.7391304,25.826087 L38.7391304,21.1304348 L31.6956522,21.1304348 L31.6956522,25.826087 Z M31.6956522,23.4782609 L25.826087,23.4782609 L31.6956522,23.4782609 Z M18.7826087,35.2173913 L25.826087,35.2173913 L25.826087,30.5217391 L18.7826087,30.5217391 L18.7826087,35.2173913 Z M35.2173913,16.4347826 L35.2173913,21.1304348 L35.2173913,16.4347826 Z M22.3043478,25.826087 L22.3043478,30.5217391 L22.3043478,25.826087 Z" id="Stroke-3"></path>
        </g>
    </g>
</svg>