<?xml version="1.0" encoding="UTF-8"?>
<svg width="52px" height="55px" viewBox="0 0 52 55" version="1.1" xmlns="http://www.w3.org/2000/svg" xmlns:xlink="http://www.w3.org/1999/xlink">
    <!-- Generator: Sketch 57.1 (83088) - https://sketch.com -->
    <title>data-science-artificial-intelligence</title>
    <desc>Created with Sketch.</desc>
    <g id="Page-1" stroke="none" stroke-width="1" fill="none" fill-rule="evenodd" stroke-linejoin="round">
        <g id="data-science-artificial-intelligence" transform="translate(1.000000, 1.000000)" stroke="#363537" stroke-width="1.5">
            <path d="M41.0869565,37.5724957 L46.6243043,37.5724957 C47.2993043,37.5724957 47.7242609,36.8540609 47.4073043,36.258887 C46.9706087,35.4418435 46.5973043,34.664713 46.6642174,34.4334522 C46.7675217,34.071887 47.3615217,33.9685826 48.7549565,33.1421478 C50.1495652,32.315713 49.9946087,31.1793652 49.4264348,30.3024522 C48.8594348,29.4243652 45.0853043,24.5162348 44.9855217,23.0206696 C44.9209565,22.0521913 46.0831304,19.6128 45.2696087,15.7788 C44.456087,11.9436261 39.9376957,-0.341373913 23.4782609,0.00727826087 C7.01882609,0.355930435 0,11.5562348 0,19.4965826 C0,27.4357565 4.03121739,31.3014522 5.34013043,35.1554087 C7.06930435,40.2443217 7.99552174,46.1373652 4.7696087,52.8333652" id="Stroke-1"></path>
            <path d="M30.5211522,53.0821174 C31.2618913,50.0064652 32.6670652,47.3851174 33.9407609,46.8580304" id="Stroke-3"></path>
            <path d="M28.173913,39.9203217 C29.2738696,43.0018435 30.1003043,45.7464522 31.1486087,46.0810174 C32.7216522,46.5799304 38.9668696,48.3513652 41.3193913,47.4568435 C43.6707391,46.5623217 43.2082174,44.4199304 43.2422609,43.7813217 C43.3279565,42.2000609 44.9209565,42.0122348 44.6814783,39.8956696" id="Stroke-5"></path>
            <path d="M15.2608696,14.0942348 C15.2608696,16.0394087 13.6843043,17.6159739 11.7391304,17.6159739 C9.79395652,17.6159739 8.2173913,16.0394087 8.2173913,14.0942348 C8.2173913,12.1490609 9.79395652,10.5724957 11.7391304,10.5724957 C13.6843043,10.5724957 15.2608696,12.1490609 15.2608696,14.0942348 Z" id="Stroke-7"></path>
            <path d="M38.7391304,14.0942348 C38.7391304,16.0394087 37.1625652,17.6159739 35.2173913,17.6159739 C33.2722174,17.6159739 31.6956522,16.0394087 31.6956522,14.0942348 C31.6956522,12.1490609 33.2722174,10.5724957 35.2173913,10.5724957 C37.1625652,10.5724957 38.7391304,12.1490609 38.7391304,14.0942348 Z" id="Stroke-9"></path>
            <path d="M27,8.22466957 C27,10.1698435 25.4234348,11.7464087 23.4782609,11.7464087 C21.533087,11.7464087 19.9565217,10.1698435 19.9565217,8.22466957 C19.9565217,6.27949565 21.533087,4.70293043 23.4782609,4.70293043 C25.4234348,4.70293043 27,6.27949565 27,8.22466957 Z" id="Stroke-11"></path>
            <path d="M23.4782609,11.7464087 L23.4782609,45.789887" id="Stroke-13"></path>
            <polyline id="Stroke-15" points="32.8695652 16.4420609 28.173913 21.137713 28.173913 28.1811913"></polyline>
            <polyline id="Stroke-17" points="14.0869565 16.4420609 18.7826087 21.137713 18.7826087 28.1811913"></polyline>
            <path d="M14.0869565,25.8333652 C14.0869565,27.7785391 12.5103913,29.3551043 10.5652174,29.3551043 C8.62004348,29.3551043 7.04347826,27.7785391 7.04347826,25.8333652 C7.04347826,23.8881913 8.62004348,22.3116261 10.5652174,22.3116261 C12.5103913,22.3116261 14.0869565,23.8881913 14.0869565,25.8333652 Z" id="Stroke-19"></path>
            <polyline id="Stroke-21" points="12.9130435 28.1811913 17.6086957 32.8768435 17.6086957 52.8333652"></polyline>
            <path d="M39.9130435,25.8333652 C39.9130435,27.7785391 38.3364783,29.3551043 36.3913043,29.3551043 C34.4461304,29.3551043 32.8695652,27.7785391 32.8695652,25.8333652 C32.8695652,23.8881913 34.4461304,22.3116261 36.3913043,22.3116261 C38.3364783,22.3116261 39.9130435,23.8881913 39.9130435,25.8333652 Z" id="Stroke-23"></path>
            <polyline id="Stroke-25" points="34.0434783 28.1811913 28.173913 34.0507565 28.173913 36.3985826"></polyline>
        </g>
    </g>
</svg>