<?xml version="1.0" encoding="UTF-8"?>
<svg width="53px" height="56px" viewBox="0 0 53 56" version="1.1" xmlns="http://www.w3.org/2000/svg" xmlns:xlink="http://www.w3.org/1999/xlink">
    <!-- Generator: Sketch 57.1 (83088) - https://sketch.com -->
    <title>digital-experience-platforms</title>
    <desc>Created with Sketch.</desc>
    <g id="Page-1" stroke="none" stroke-width="1" fill="none" fill-rule="evenodd" stroke-linejoin="round">
        <g id="digital-experience-platforms" transform="translate(1.000000, 1.000000)" stroke="#363537" stroke-width="1.5">
            <path d="M27.0445624,7.4490564 C27.0445624,4.97596967 27.2623515,0 20.8923282,0 C15.8167351,0 11.2025594,5.47009042 11.0487536,8.6905658 C7.22206393,9.20455069 3.58732399,12.9774978 4.09180719,17.7957957 C0.454606356,19.5935013 -2.18347165,29.1978181 2.56236178,33.7529161 C1.69981855,37.6698782 4.35389237,46.6435082 12.2792004,45.9358478 C14.208541,56.3980475 27.0445624,56.0851871 27.0445624,48.4188666 L27.0445624,42.2113196" id="Stroke-1"></path>
            <path d="M19.3181818,16.2 C14.9018247,16.2 10.8181818,15.471 10.8181818,8.48571429" id="Stroke-3"></path>
            <path d="M11.5909091,24.7240175 C13.6713217,26.0481155 17.1922101,25.5242437 19.0823712,23.5909645 C20.4783725,22.1647355 21.9682642,19.9010325 23.5063365,20.0656436 L27.2125348,20.0656436 L43.2727273,20.0656436" id="Stroke-5"></path>
            <path d="M20.8636364,41.6571429 C21.7786742,39.8202386 23.9760101,39.3428571 27.0883838,39.3428571 L43.2727273,39.3428571" id="Stroke-7"></path>
            <path d="M13.9090909,38.5714286 C11.8566489,38.2498981 10.0454545,36.3182703 10.0454545,34.7142857" id="Stroke-9"></path>
            <path d="M12.3636364,45.5142857 C12.3636364,40.8023828 14.9671145,34.7142857 21.6363636,34.7142857" id="Stroke-11"></path>
            <path d="M7.72727273,20.8285714 C9.86053883,20.8285714 11.5909091,22.3802377 11.5909091,24.572454 C11.5909091,26.3015614 10.5157038,27.9979492 9.01555972,28.5428571" id="Stroke-13"></path>
            <path d="M34.7727273,9.25714286 L27.2553156,9.25714286 C23.8486752,9.25714286 20.4971625,8.79012191 19.3181818,6.17142857" id="Stroke-15"></path>
            <path d="M27.0454545,12.3428571 L27.0454545,20.0571429" id="Stroke-17"></path>
            <path d="M27.0454545,23.1428571 L27.0454545,37.0285714" id="Stroke-19"></path>
            <path d="M27.0454545,29.3142857 L34.7727273,29.3142857" id="Stroke-21"></path>
            <path d="M29.3636364,49.3714286 L34,49.3714286" id="Stroke-23"></path>
            <path d="M51,20.0571429 C51,22.1875714 49.2703788,23.9142857 47.1363636,23.9142857 C45.0023485,23.9142857 43.2727273,22.1875714 43.2727273,20.0571429 C43.2727273,17.9267143 45.0023485,16.2 47.1363636,16.2 C49.2703788,16.2 51,17.9267143 51,20.0571429 Z" id="Stroke-25"></path>
            <path d="M41.7272727,10.0285714 C41.7272727,12.159 39.9976515,13.8857143 37.8636364,13.8857143 C35.7296212,13.8857143 34,12.159 34,10.0285714 C34,7.89814286 35.7296212,6.17142857 37.8636364,6.17142857 C39.9976515,6.17142857 41.7272727,7.89814286 41.7272727,10.0285714 Z" id="Stroke-27"></path>
            <path d="M41.7272727,30.0857143 C41.7272727,32.2161429 39.9976515,33.9428571 37.8636364,33.9428571 C35.7296212,33.9428571 34,32.2161429 34,30.0857143 C34,27.9552857 35.7296212,26.2285714 37.8636364,26.2285714 C39.9976515,26.2285714 41.7272727,27.9552857 41.7272727,30.0857143 Z" id="Stroke-29"></path>
            <path d="M41.7272727,49.3714286 C41.7272727,51.5018571 39.9976515,53.2285714 37.8636364,53.2285714 C35.7296212,53.2285714 34,51.5018571 34,49.3714286 C34,47.241 35.7296212,45.5142857 37.8636364,45.5142857 C39.9976515,45.5142857 41.7272727,47.241 41.7272727,49.3714286 Z" id="Stroke-31"></path>
            <path d="M51,39.3428571 C51,41.4732857 49.2703788,43.2 47.1363636,43.2 C45.0023485,43.2 43.2727273,41.4732857 43.2727273,39.3428571 C43.2727273,37.2124286 45.0023485,35.4857143 47.1363636,35.4857143 C49.2703788,35.4857143 51,37.2124286 51,39.3428571 Z" id="Stroke-33"></path>
        </g>
    </g>
</svg>