<?xml version="1.0" encoding="UTF-8"?>
<svg width="56px" height="56px" viewBox="0 0 56 56" version="1.1" xmlns="http://www.w3.org/2000/svg" xmlns:xlink="http://www.w3.org/1999/xlink">
    <!-- Generator: Sketch 57.1 (83088) - https://sketch.com -->
    <title>internet-of-things</title>
    <desc>Created with Sketch.</desc>
    <g id="Page-1" stroke="none" stroke-width="1" fill="none" fill-rule="evenodd" stroke-linejoin="round">
        <g id="internet-of-things" transform="translate(1.000000, 1.000000)" stroke="#363537" stroke-width="1.5">
            <path d="M30.1395349,7.53488372 L30.1395349,1.25581395 L20.0930233,1.25581395 L20.0930233,6.93711628 C18.2545116,7.41181395 16.5202326,8.13516279 14.9253488,9.07702326 L10.908,5.05967442 L3.80386047,12.163814 L7.8212093,16.1811628 C6.87934884,17.7760465 6.156,19.5103256 5.68130233,21.3488372 L0,21.3488372 L0,31.3953488 L5.68130233,31.3953488 C6.156,33.2338605 6.87934884,34.9681395 7.8212093,36.5630233 L3.80386047,40.5803721 L10.908,47.6845116 L14.9253488,43.6671628 C16.5202326,44.6090233 18.2545116,45.3323721 20.0930233,45.8070698 L20.0930233,51.4883721 L30.1395349,51.4883721 L30.1395349,45.2093023" id="Stroke-1"></path>
            <polyline id="Stroke-3" points="32.6511628 12.5581395 33.9069767 12.5581395 40.1860465 6.27906977"></polyline>
            <path d="M40.1860465,47.7209302 L32.6511628,40.1860465 L25.1162791,40.1860465 C17.4872093,40.1860465 11.3023256,34.0011628 11.3023256,26.372093 C11.3023256,18.7430233 17.4872093,12.5581395 25.1162791,12.5581395" id="Stroke-5"></path>
            <path d="M26.372093,32.6511628 L25.1162791,32.6511628 C21.6489767,32.6511628 18.8372093,29.8393953 18.8372093,26.372093 C18.8372093,22.9047907 21.6489767,20.0930233 25.1162791,20.0930233 L35.1627907,20.0930233 L40.1860465,15.0697674 L46.4651163,15.0697674" id="Stroke-7"></path>
            <polyline id="Stroke-9" points="46.4651163 38.9302326 41.4418605 38.9302326 35.1627907 32.6511628 33.9069767 32.6511628"></polyline>
            <path d="M46.4651163,3.76744186 C46.4651163,5.84832558 44.7785581,7.53488372 42.6976744,7.53488372 C40.6167907,7.53488372 38.9302326,5.84832558 38.9302326,3.76744186 C38.9302326,1.68655814 40.6167907,0 42.6976744,0 C44.7785581,0 46.4651163,1.68655814 46.4651163,3.76744186 Z" id="Stroke-11"></path>
            <path d="M54,15.0697674 C54,17.1506512 52.3134419,18.8372093 50.2325581,18.8372093 C48.1516744,18.8372093 46.4651163,17.1506512 46.4651163,15.0697674 C46.4651163,12.9888837 48.1516744,11.3023256 50.2325581,11.3023256 C52.3134419,11.3023256 54,12.9888837 54,15.0697674 Z" id="Stroke-13"></path>
            <path d="M54,26.372093 C54,28.4529767 52.3134419,30.1395349 50.2325581,30.1395349 C48.1516744,30.1395349 46.4651163,28.4529767 46.4651163,26.372093 C46.4651163,24.2912093 48.1516744,22.6046512 50.2325581,22.6046512 C52.3134419,22.6046512 54,24.2912093 54,26.372093 Z" id="Stroke-15"></path>
            <path d="M54,38.9302326 C54,41.0111163 52.3134419,42.6976744 50.2325581,42.6976744 C48.1516744,42.6976744 46.4651163,41.0111163 46.4651163,38.9302326 C46.4651163,36.8493488 48.1516744,35.1627907 50.2325581,35.1627907 C52.3134419,35.1627907 54,36.8493488 54,38.9302326 Z" id="Stroke-17"></path>
            <path d="M46.4651163,50.2325581 C46.4651163,52.3134419 44.7785581,54 42.6976744,54 C40.6167907,54 38.9302326,52.3134419 38.9302326,50.2325581 C38.9302326,48.1516744 40.6167907,46.4651163 42.6976744,46.4651163 C44.7785581,46.4651163 46.4651163,48.1516744 46.4651163,50.2325581 Z" id="Stroke-19"></path>
            <path d="M33.9069767,26.372093 L45.2093023,26.372093" id="Stroke-21"></path>
            <path d="M23.8604651,26.372093 L26.372093,26.372093" id="Stroke-23"></path>
            <path d="M28.8837209,26.372093 L31.3953488,26.372093" id="Stroke-25"></path>
            <path d="M28.8837209,32.6511628 L31.3953488,32.6511628" id="Stroke-27"></path>
            <path d="M27.627907,12.5581395 L30.1395349,12.5581395" id="Stroke-29"></path>
        </g>
    </g>
</svg>