<svg xmlns="http://www.w3.org/2000/svg" width="85" height="42" viewBox="0 0 85 42">
    <g fill="#363537" fill-rule="evenodd">
        <path d="M52.127 3.5h1v35h-1zM21.302 0C33.19.041 42.513 9.765 42.408 21.012 42.522 32.287 32.998 42.1 21.015 42 9.465 41.903-.15 32.391.002 20.712.147 9.536 9.404-.041 21.302 0zm2.118 12.633c-.215 0-.43.003-.646.002-.289-.002-.518.12-.71.325-.181.193-.29.426-.364.673-.132.429-.254.861-.375 1.294-.618 2.203-1.236 4.405-1.85 6.61-.428 1.534-.843 3.072-1.275 4.605-.269.953-1.01 1.501-2.001 1.505-.733.003-1.465 0-2.197.001-.765 0-1.53.003-2.294-.001-.224-.002-.43.044-.601.189-.31.263-.476.605-.503 1.005-.018.273.098.415.364.491.158.045.32.034.481.034h10.112c.097 0 .193 0 .29-.003.411-.01.717-.205.938-.538.108-.161.177-.34.227-.528l2.536-9.548.955-3.596c.165-.621.571-1.08 1.372-1.05.904.034 1.81.008 2.714.008.185 0 .365-.01.52-.133.311-.247.48-.573.524-.96.026-.22-.076-.343-.303-.371-.138-.017-.28-.014-.42-.014H23.42zm-5.808-.163v.001c-.569 0-1.137-.002-1.705.001-.394.002-.679.172-.818.552-.063.171-.133.34-.183.515-.194.668-.382 1.338-.57 2.008l-2.681 9.523c-.053.189-.069.379-.053.572.02.23.121.354.341.411.092.024.19.03.287.03 1.082.002 2.165-.002 3.248.003.385.002.652-.177.84-.495.121-.205.198-.428.262-.655.163-.577.323-1.155.486-1.732.802-2.844 1.605-5.688 2.404-8.533.136-.484.303-.96.389-1.458.087-.503-.106-.739-.607-.742-.547-.004-1.093-.001-1.64-.001z"/>
        <text font-family="Montserrat-Bold, Montserrat" font-size="10" font-weight="bold">
            <tspan x="64" y="18">CX</tspan> <tspan x="64" y="30">LAB</tspan>
        </text>
    </g>
</svg>
