<?xml version="1.0" encoding="UTF-8"?>
<svg width="50px" height="56px" viewBox="0 0 50 56" version="1.1" xmlns="http://www.w3.org/2000/svg" xmlns:xlink="http://www.w3.org/1999/xlink">
    <!-- Generator: Sketch 57.1 (83088) - https://sketch.com -->
    <title>mobile-centered</title>
    <desc>Created with Sketch.</desc>
    <g id="Page-1" stroke="none" stroke-width="1" fill="none" fill-rule="evenodd" stroke-linejoin="round">
        <g id="mobile-centered" transform="translate(1.000000, 1.000000)" stroke="#fff" stroke-width="1.5">
            <path d="M41.3497685,14.8194783 L41.1513689,14.6116957 C40.1345713,13.5481304 39.8452387,12.164087 40.5089324,11.5383913 L43.3349447,8.89121739 C44.357647,7.92626087 46.0251478,8.00726087 47.0419454,9.07317391 L47.2403449,9.27978261 C48.2571425,10.3445217 48.2524187,12.0044348 47.2308974,12.9682174 L44.404885,15.6165652 C43.7411914,16.2422609 42.366566,15.8842174 41.3497685,14.8194783 Z M20.0761428,54 C20.0761428,54 22.3742707,51.6463043 23.6189915,50.4782609 C33.2460925,51.179087 36.8290935,44.5511739 37.7903864,43.4347826 M42.0831381,36.7916087 L41.8847386,36.6202174 C40.8643982,35.7456522 40.4853134,34.5071739 41.0415406,33.8662174 L43.4093445,31.158 C44.265533,30.1707391 45.8007674,30.0803478 46.8211078,30.954913 L47.0195074,31.1251304 C48.0386669,31.9996957 48.1732951,33.5222609 47.3171067,34.5083478 L44.9481218,37.2177391 C44.3918946,37.8575217 43.1034786,37.6661739 42.0831381,36.7916087 Z M21.2570924,45.7826087 C23.8209339,38.502 21.313778,31.9656522 18.993212,29.0531739 C19.9651335,26.1442174 20.3654754,24.0675652 20.6890556,20.6479565 C20.8756457,18.6816522 20.0371715,16.9947391 19.1620878,15.7773913 C18.266928,14.5306957 16.0833523,14.8171304 15.64522,16.2117391 C13.7143674,22.3548261 13.3518159,24.0264783 12.1578759,27.1115217 C10.821041,30.5616522 11.5874772,35.4028696 10.9237836,36.8186087 C10.7903363,37.1015217 8.26664703,41.0869565 8.26664703,41.0869565 M42.1020333,29.4112174 L41.900091,29.2374783 C40.8620363,28.3476522 40.4758658,27.0868696 41.0403597,26.4353478 L43.4506778,23.679 C44.3210376,22.6753043 45.8834339,22.5825652 46.9214886,23.4735652 L47.1234309,23.6461304 C48.1603047,24.5359565 48.2972948,26.0855217 47.426935,27.0892174 L45.0166169,29.8443913 C44.450942,30.495913 43.1389071,30.3010435 42.1020333,29.4112174 Z M42.1008524,22.2163043 L41.89891,22.0437391 C40.8608553,21.153913 40.4746848,19.8919565 41.0403597,19.2404348 L43.4506778,16.4852609 C44.3210376,15.4815652 45.8834339,15.3888261 46.9203076,16.2786522 L47.1234309,16.4523913 C48.1603047,17.3422174 48.2972948,18.8906087 47.425754,19.8943043 L45.0154359,22.6494783 C44.4497611,23.3021739 43.1389071,23.1073043 42.1008524,22.2163043 Z M28.3427898,39.9130435 L31.8856386,39.9130435 L28.3427898,39.9130435 Z M28.3427898,3.52173913 L31.8856386,3.52173913 L28.3427898,3.52173913 Z M42.5141847,9.39130435 L42.5141847,3.52173913 C42.5141847,1.57656522 40.9281695,0 38.971336,0 L21.2582733,0 C19.3002589,0 17.7142436,1.5753913 17.7154246,3.52056522 C17.7154246,6.98126087 17.7142436,15.2608696 17.7142436,15.2608696 M21.2570924,43.4347826 L38.971336,43.4347826 C40.9281695,43.4347826 42.5141847,41.8582174 42.5141847,39.9130435 L42.5141847,37.5652174 M21.2570924,54 L5.90474788,38.7391304 L0,44.6086957 L9.44759661,54 L21.2570924,54 Z M5.90474788,44.6086957 L8.26664703,46.9565217 L5.90474788,44.6086957 Z M22.4380419,36.3913043 L41.3332352,36.3913043 L22.4380419,36.3913043 Z" id="Stroke-1"></path>
        </g>
    </g>
</svg>