<svg xmlns="http://www.w3.org/2000/svg" width="40" height="33" viewBox="0 0 40 33">
    <g fill="#000" fill-rule="evenodd">
        <path d="M7.135 22.2c2.853-9.37 5.731-12.995 8.638-10.614l1.08-1.316c-.883-.722-1.822-1.089-2.79-1.089-3.237 0-5.955 3.98-8.557 12.524-.698 2.292-1.633 4.217-2.78 5.726l1.356 1.03c1.268-1.669 2.296-3.774 3.053-6.26"/>
        <path d="M31.701 30.638c-3.398 0-6.551-3.423-8.229-8.932-.968-3.183-1.925-5.668-2.924-7.596l-1.511.783c.937 1.81 1.882 4.269 2.806 7.308 1.171 3.844 2.987 6.743 5.177 8.437H10.268c2.903-2.187 5.313-6.401 6.813-12.174 3.417-13.15 6.426-15.91 8.35-15.91 1.923 0 4.933 2.76 8.35 15.91 1.098 4.226 2.726 7.732 4.708 10.14l1.315-1.082c-1.826-2.218-3.338-5.498-4.376-9.485C32.34 6.15 29.257.85 25.431.85c-3.826 0-6.91 5.3-9.997 17.185-2.02 7.773-5.81 12.602-9.89 12.602H1.702V0H0v32.34h40v-1.702h-8.299z"/>
    </g>
</svg>
