<svg xmlns="http://www.w3.org/2000/svg" width="186" height="28" viewBox="0 0 186 28"><defs><style>.cls-1{fill-rule:evenodd;fill:#000}</style></defs><path id="Cirrus" class="cls-1" d="M343.764 609.636c1.256.336 3.209 2.881-.642 6.63 2.791-.224 5.665-2.1 6.307-4.308.977-6.266-6.168-6.686-7.452-6.714a10.754 10.754 0 0 0-10.717 8 10.266 10.266 0 0 0 3.1 10.042c-.195-.84-2.344-6.63 2.372-11.553a7.441 7.441 0 0 1 7.032-2.097zm.307 12.308c-3.489-.028-5.024-3.413-3.461-7.329-4.215 2.154-3.656 8.979-1.814 11.161a11.277 11.277 0 0 0 9.043-1.259 10.356 10.356 0 0 0 4.884-8.587c-.754 2.406-4.438 6.07-8.652 6.014zm27.491-13.511a7.083 7.083 0 0 0-4.577 1.427 7.58 7.58 0 0 0-2.428 6.07c0 5.874 3.1 7.049 6.67 7.049a5.762 5.762 0 0 0 2.986-.671 1.863 1.863 0 0 0 .838-1.259 5.745 5.745 0 0 0-.28-1.119 7.406 7.406 0 0 1-2.958.7c-1.9 0-3.74-.839-3.74-4.867 0-3.357 1.312-4.867 3.182-5.007a1.844 1.844 0 0 1 .363-.028 4.419 4.419 0 0 1 1.7.364 4.087 4.087 0 0 0 1.061.2h.39a3.284 3.284 0 0 0 .5-1.567v-.028c-.135-.369-1.669-1.264-3.707-1.264zm19.286.14a4.206 4.206 0 0 0-1.87.224 9.365 9.365 0 0 0-1.9.839 1.052 1.052 0 0 0-1.172-.587 1.383 1.383 0 0 0-.447.056 4.754 4.754 0 0 0-1.4.727 5.807 5.807 0 0 1 .419 2.182l-.028 4.867c0 2.238-.028 4.224-.056 5.762 2.094 0 2.568-.028 3.1-.391a1.841 1.841 0 0 0 .335-1.2v-9.175a3.034 3.034 0 0 1 2.2-.755 1.507 1.507 0 0 1 .419.056 8.578 8.578 0 0 0 .921.055 1.4 1.4 0 0 0 .5-.055 3.3 3.3 0 0 0 .586-1.847c-.1-.394-.655-.674-1.607-.758zm9.991 0a4.208 4.208 0 0 0-1.87.224 9.365 9.365 0 0 0-1.9.839 1.05 1.05 0 0 0-1.172-.587 1.38 1.38 0 0 0-.446.056 4.74 4.74 0 0 0-1.4.727 5.827 5.827 0 0 1 .419 2.182l-.028 4.867c0 2.238-.028 4.224-.056 5.762 2.093 0 2.568-.028 3.1-.391a1.841 1.841 0 0 0 .335-1.2v-9.175a3.034 3.034 0 0 1 2.2-.755 1.511 1.511 0 0 1 .419.056 8.578 8.578 0 0 0 .921.055 1.4 1.4 0 0 0 .5-.055 3.308 3.308 0 0 0 .586-1.847c-.073-.394-.659-.674-1.608-.758zm14.932 5.9c0-2.209.028-4.2.056-5.734h-.837c-1.424.028-1.787.028-2.233.392a1.862 1.862 0 0 0-.391 1.4v9.091a3.2 3.2 0 0 1-2.456.9c-1.312 0-2.121-.531-2.121-2.993l.335-5.258a8.591 8.591 0 0 0-.363-2.8 1.43 1.43 0 0 0-1.451-1.091 1.926 1.926 0 0 0-.447.056 9.052 9.052 0 0 0-1.619.867 7.287 7.287 0 0 1 .419 2.574l-.279 6.014c.056 3.161.837 4.895 4.772 5.035a7.137 7.137 0 0 0 2.094-.308 7.209 7.209 0 0 0 1.9-.895 1.261 1.261 0 0 0 1.172.644 1.666 1.666 0 0 0 .446-.056 5.66 5.66 0 0 0 1.368-.728 5.918 5.918 0 0 1-.363-2.182v-4.923zm10.606 1.063c-.558-.391-1.256-.811-1.87-1.259-.5-.307-1-.643-1.368-.867a1.647 1.647 0 0 1-.865-1.37c0-.784.7-1.343 1.842-1.343a4.393 4.393 0 0 1 1.451.252 7.163 7.163 0 0 0 1.061.224c.167.028.5.083.642.112a2.84 2.84 0 0 0 .642-1.483c-.14-.42-1.089-1.175-3.126-1.315a8.23 8.23 0 0 0-.949-.056c-3.07 0-5.163 1.371-5.163 3.665a3.749 3.749 0 0 0 1.479 2.825l.809.587a23.512 23.512 0 0 0 2.2 1.539 2.373 2.373 0 0 1 .391.224 2.075 2.075 0 0 1 1.228 1.762 1.536 1.536 0 0 1-1.535 1.566 4.6 4.6 0 0 1-.586.056 6.209 6.209 0 0 1-2.289-.475v.028a2.3 2.3 0 0 0-.977-.252h-.335a2.857 2.857 0 0 0-.642 1.566c.391.812 2.2 1.4 4.3 1.4 3.125 0 5.637-1.4 5.637-4.168.032-1.174-.61-2.209-1.977-3.216zm16.411-6.8c-1.452 0-2.54.084-2.931.811.028.755.056 1.651.056 2.965v5.063c0 .923-.028 1.847-.028 2.686v2.405c2.233-.056 2.763-.056 2.986-.391a2.5 2.5 0 0 0 .447-1.6v-9.762a4.083 4.083 0 0 0-.279-2.1zm15.462 4.923c0-3.329-.782-5.2-4.8-5.2a7.135 7.135 0 0 0-2.093.308 8.1 8.1 0 0 0-1.9.867 1.243 1.243 0 0 0-1.172-.615 1.705 1.705 0 0 0-.447.055 4.193 4.193 0 0 0-1.367.728 5.922 5.922 0 0 1 .363 2.182v4.951c0 2.21-.028 4.2-.056 5.734h.837c1.424-.028 1.786-.028 2.233-.391a1.9 1.9 0 0 0 .391-1.4V611.9l-.084.084a3.536 3.536 0 0 1 2.512-1.147c1.646 0 2.2.755 2.2 2.853v7.637a2.342 2.342 0 0 0 .363 1.314c2.121 0 2.707-.112 3.125-.475a174.476 174.476 0 0 1-.055-4.14v-4.364h-.05zm10.41 1.874c-.558-.391-1.256-.811-1.87-1.259-.5-.307-1-.643-1.367-.867a1.648 1.648 0 0 1-.866-1.37c0-.784.7-1.343 1.842-1.343a4.4 4.4 0 0 1 1.452.252 7.178 7.178 0 0 0 1.06.224c.168.028.5.083.642.112a2.84 2.84 0 0 0 .642-1.483c-.139-.42-1.088-1.175-3.126-1.315a8.109 8.109 0 0 0-.921-.056c-3.07 0-5.163 1.371-5.163 3.665a3.749 3.749 0 0 0 1.479 2.825l.81.587a23.493 23.493 0 0 0 2.2 1.539 2.286 2.286 0 0 1 .391.224 2.075 2.075 0 0 1 1.228 1.762 1.536 1.536 0 0 1-1.535 1.566 4.563 4.563 0 0 1-.586.056 6.214 6.214 0 0 1-2.289-.475v.028a2.291 2.291 0 0 0-.976-.252h-.335a2.85 2.85 0 0 0-.642 1.566c.39.812 2.205 1.4 4.3 1.4 3.126 0 5.638-1.4 5.638-4.168a4.029 4.029 0 0 0-2.008-3.213zm7.313-6.8c-1.452 0-2.54.084-2.931.811.028.755.056 1.651.056 2.965v5.063c0 .923-.028 1.847-.028 2.686v2.405c2.233-.056 2.763-.056 2.986-.391a2.5 2.5 0 0 0 .447-1.6v-9.762a4.083 4.083 0 0 0-.279-2.1zm16.02 1.119a2.178 2.178 0 0 0-.251-.979c-.335 0-1 .028-1.424.056h.028c-.67.028-1.591.056-2.289.084-.083.055-.055.084 0 .112a7.493 7.493 0 0 0-2.874-.672c-3.322 0-5.694 1.874-5.694 5.175a4.21 4.21 0 0 0 2.065 3.972 2.052 2.052 0 0 1-.251.252c-.474.42-1.088.867-1.535 1.287a1.274 1.274 0 0 0-.418.7c.028.867.837 1.651 2.428 2.1a14.926 14.926 0 0 0 2.456.42c.195 0 .418.028.614.028.753.027 1.451.055 2.149.139a1.742 1.742 0 0 1 1.674 1.231v.42c.028 1.2-1.618 3.021-3.739 3.552a17.407 17.407 0 0 1-2.149.252.769.769 0 0 1-.81-.28c-.139-.531 1-1.538 2.038-2.321a1.145 1.145 0 0 0-.419-1.875c-2.038 1.231-5.275 3.721-4.968 5.2.335.951 1.814 1.287 3.4 1.287a19.178 19.178 0 0 0 2.986-.252c3.991-.839 6.922-3.776 6.922-6.321-.084-1.735-1.479-2.742-3.489-3.105a11.14 11.14 0 0 0-1.172-.112c-.5-.028-1.033-.084-1.535-.112l-1.256-.084c-1.061-.084-1.647-.364-1.647-.616a.583.583 0 0 1 .168-.419l.642-.588a9.117 9.117 0 0 0 1.367.084c3.461 0 5.554-1.818 5.554-4.923a3.7 3.7 0 0 0-.753-2.349c.391.027.586.027 1.032.027a1.242 1.242 0 0 0 1.15-1.362zm-6.615 6.573c-1.591 0-2.344-1.146-2.512-2.965-.223-2.07.67-3.049 1.926-3.049 1.451 0 2.261 1.063 2.456 2.826.14 1.826-.419 3.196-1.87 3.196zM505.306 614c0-3.944-.949-5.539-4.3-5.539a6.255 6.255 0 0 0-2.2.364 11.016 11.016 0 0 0-1.535.755v-5.538a3.386 3.386 0 0 0-.363-2.042c-1.619 0-2.652.139-3.07.895.028.643.056 1.482.056 2.685v10.993c0 2.35-.028 4.308-.056 5.986l.279.14c1.814 0 2.205 0 2.763-.419a2.761 2.761 0 0 0 .363-1.511v-8.727a4.38 4.38 0 0 1 2.791-1.175c.977 0 1.646.475 1.73 2.182a6.981 6.981 0 0 1 .056 1.2v6.965a3.654 3.654 0 0 0 .279 1.454c2.289 0 2.763-.084 3.154-.475-.028-1.063-.028-2.434-.028-4V614h.084zm10.885 6.182a5.565 5.565 0 0 1-1.926.559c-1.033 0-1.256-1.091-1.4-2.6v-1.427c0-.615-.028-1.231-.028-1.9 0-1.231.028-2.49.056-3.776 1.2 0 1.647 0 2.289-.028a7.341 7.341 0 0 0 .809-.056c.642-.112.893-.5 1-2.126h-4.1c0-1.119.028-2.042.056-3.273v-.476c-1.926.112-2.763.672-3.042 1.343-.028.811-.14 1.735-.168 2.546a2.337 2.337 0 0 1-.5.084 4.836 4.836 0 0 0-1.395.531c-.252.224-.28.224-.28 1.091a5.032 5.032 0 0 0 1.9.42v6.937c0 2.4.614 4.979 3.824 4.979a6.283 6.283 0 0 0 2.986-.7 1.17 1.17 0 0 0 .447-.56 7.583 7.583 0 0 0 .028-.811 4.292 4.292 0 0 0-.056-.671zm-135.782-11.441c-1.451 0-2.54.084-2.93.811.028.755.056 1.651.056 2.965v5.063c0 .923-.028 1.847-.028 2.686v2.405c2.232-.056 2.763-.056 2.986-.391a2.5 2.5 0 0 0 .447-1.6v-9.762a4.069 4.069 0 0 0-.28-2.1z" transform="translate(-331 -602)"/></svg>