<svg height="37" width="97" xmlns="http://www.w3.org/2000/svg" viewBox="0 0 97 37"><path fill="#000" fill-rule="evenodd" d="M95.78 11.42c-1.89 2.05-3.92 3.95-6.17 5.62-2.58 1.92-5.35 3.47-8.48 4.33-1.66.45-3.37.71-5.09.77-4.65.16-9.2-.5-13.67-1.75-2.69-.75-5.37-1.54-8.07-2.26a46.3 46.3 0 0 0-6.92-1.27c-1.7-.17-3.39-.22-5.09-.18-2.7.05-5.3.63-7.85 1.49-3.35 1.13-6.58 2.53-9.85 3.84-1.96.78-3.93 1.54-5.9 2.3-.26.1-.37.26-.38.51-.06 1.94-.08 3.87.43 5.76.13.5.17.53.71.46 1.21-.16 2.41-.45 3.6-.76.35-.09 1.13-.32 1.85-.58 1.69-.61 5-1.99 5-1.99s3.85-1.85 4.33-2.1c.64-.34 1.19-.63 1.76-.92.01-.01.04-.03.06-.02.36.14.41.54.64.79.14.15.01.26-.1.35-.38.34-9.71 7.53-12.37 8.82-2.06.99-4.21 1.59-6.52 1.5-.82-.03-1.63-.12-2.42-.31-1.36-.33-2.25-1.23-2.87-2.42-.74-1.44-1.1-2.98-1.28-4.58-.05-.5-.1-1-.12-1.5-.01-.3-.09-.35-.38-.27-1.46.42-2.93.8-4.44 1.05-1.31.22-2.63.44-3.96.09-.51-.13-1-.29-1.35-.71-.36-.41-.45-.9-.25-1.3.07-.12.13-.23.3-.18.42.14.84.03 1.26-.02 3.01-.4 5.91-1.23 8.75-2.28.19-.07.25-.2.28-.39.36-2.78 1.14-5.45 2.23-8.03 1.16-2.76 2.76-5.24 4.74-7.49 1.57-1.79 3.29-3.39 5.3-4.68 1.99-1.29 4.19-2.01 6.57-2.19 2.13-.17 4.17.14 6.01 1.28 1.63 1 2.56 2.45 2.77 4.35.11 1.07.27 2.14-.06 3.2-.01.03-.01.05-.02.07-.11.35-1.6 2.79-1.96 3.21-.07.21-.29.29-.38.5.22.02.41-.03.59-.09 2.09-.58 4.21-.99 6.36-1.18 1.81-.16 3.63-.15 5.44-.04 4.15.25 8.16 1.22 12.18 2.15 2.88.66 5.77 1.24 8.7 1.58 1.66.19 3.33.33 5.01.38.97.04 1.95.08 2.93.04 1.79-.05 3.58-.14 5.37-.32 2.1-.22 4.14-.65 6.11-1.42 1.87-.73 3.47-1.87 5.02-3.11.45-.36.89-.73 1.33-1.11.15-.13.25-.12.37.04.31.4.3.6-.05.97zM32.02 4.98c-.14-.19-.33-.33-.52-.47-.32-.22-.65-.24-1.01-.11-.98.38-1.84.95-2.63 1.62-2.06 1.71-3.57 3.86-4.93 6.12a38.59 38.59 0 0 0-3.53 7.6c-.04.12-.07.23-.11.34l1.94-.81 3.69-1.77c-.01 0-.01-.01-.02-.01.58-.28 1.15-.55 1.73-.83 1.74-.84 3.49-1.67 4.97-2.94.41-.35.8-.73 1.15-1.14.07-.09.17-.11.66-.99.1-.17.17-.74.2-1.11.18-2.03-.33-3.88-1.59-5.5zm12.51 21.91h-2.84v1.48h2.69v.87h-2.69v1.64h2.99v.92h-4.04v-5.81h3.89v.9zm2.9 2.73c0 .17.02.34.07.51.04.17.12.31.22.44.1.14.23.24.4.32.17.09.38.13.63.13s.45-.04.62-.13c.17-.08.31-.18.41-.32.1-.13.17-.27.22-.44.04-.17.06-.34.06-.51v-3.63h1.05v3.67c0 .35-.06.67-.19.95-.12.28-.28.52-.49.72-.21.2-.46.35-.75.46a2.792 2.792 0 0 1-1.87 0c-.29-.11-.53-.26-.75-.46-.21-.2-.38-.44-.49-.72-.12-.28-.18-.6-.18-.95v-3.67h1.04v3.63zm8.79-3.55c.26.06.49.15.69.29.2.13.36.3.48.51.12.22.18.48.18.78 0 .42-.12.77-.36 1.03-.24.27-.56.45-.98.54l1.57 2.58h-1.26l-1.36-2.46h-1.04v2.46h-1.05v-5.81h2.32c.28 0 .55.02.81.08zm-2.08.79v1.63h1.13c.15 0 .3-.01.45-.03.15-.03.28-.07.4-.13s.22-.14.29-.26c.08-.11.12-.25.12-.43a.719.719 0 0 0-.38-.63c-.11-.06-.24-.1-.38-.12-.14-.02-.27-.03-.41-.03h-1.22zm5.8-.2c.28-.26.61-.47.99-.61s.8-.21 1.25-.21c.46 0 .88.07 1.27.21.39.14.72.35 1 .61s.5.58.66.96c.16.37.24.79.24 1.26 0 .45-.08.86-.24 1.24-.16.37-.38.7-.66.97s-.61.48-1 .63c-.39.15-.81.23-1.27.23-.45 0-.87-.08-1.25-.23-.38-.15-.71-.36-.99-.63s-.5-.6-.66-.97c-.15-.38-.23-.79-.23-1.24 0-.47.08-.89.23-1.26.16-.38.38-.7.66-.96zm.39 3.07c.09.26.23.49.41.68.18.19.39.34.64.45.24.11.51.16.81.16a2 2 0 0 0 .82-.16c.25-.11.46-.26.64-.45s.32-.42.42-.68c.09-.26.14-.54.14-.85 0-.31-.05-.58-.14-.84-.1-.26-.24-.48-.41-.67-.18-.2-.39-.35-.64-.46-.25-.11-.52-.16-.83-.16-.3 0-.58.05-.82.16-.25.11-.46.26-.63.46-.18.19-.32.41-.41.67-.1.26-.15.53-.15.84 0 .31.05.59.15.85zm7.65 1.16c.24.12.48.18.71.18.12 0 .24-.02.37-.05.13-.03.24-.08.34-.15.11-.07.19-.16.25-.27.07-.1.1-.24.1-.39a.69.69 0 0 0-.11-.39c-.07-.1-.17-.18-.29-.26-.12-.07-.26-.14-.43-.19-.16-.06-.34-.11-.52-.17a5.72 5.72 0 0 1-.53-.2c-.18-.08-.34-.18-.48-.3a1.62 1.62 0 0 1-.34-.47c-.09-.18-.13-.41-.13-.68 0-.3.06-.55.18-.77.13-.21.29-.39.49-.53s.43-.24.69-.31a2.939 2.939 0 0 1 1.69.05c.3.11.57.26.8.47l-.68.74c-.11-.14-.27-.26-.47-.36-.2-.09-.4-.14-.61-.14-.12 0-.24.02-.36.05-.12.03-.23.07-.33.14-.1.06-.18.14-.25.24a.7.7 0 0 0-.09.37c0 .13.03.24.08.33.06.1.13.18.23.24.09.07.21.13.35.17.14.05.29.1.45.15.19.06.39.13.59.21.2.07.38.17.55.3.17.13.31.28.42.48.1.19.16.43.16.71 0 .31-.06.59-.18.82-.11.23-.27.42-.46.58-.19.15-.42.27-.68.34-.26.08-.53.12-.82.12-.38 0-.75-.07-1.12-.21a2.2 2.2 0 0 1-.89-.62l.75-.69c.14.19.33.35.57.46zm8.51-4h-1.8v4.91h-1.04v-4.91h-1.8v-.9h4.64v.9zm3.66-.9l2.53 5.81h-1.19l-.55-1.33H78.4l-.53 1.33H76.7l2.55-5.81h.9zm.43 3.59l-.91-2.36-.92 2.36h1.83zm6.54-3.51c.26.06.49.15.7.29.2.13.36.3.48.51.12.22.18.48.18.78 0 .42-.12.77-.36 1.03-.24.27-.57.45-.98.54l1.56 2.58h-1.25l-1.36-2.46h-1.05v2.46H84v-5.81h2.32c.28 0 .54.02.8.08zm-2.08.79v1.63h1.14c.15 0 .3-.01.45-.03.15-.03.28-.07.4-.13s.22-.14.29-.26c.08-.11.12-.25.12-.43a.719.719 0 0 0-.38-.63c-.11-.06-.24-.1-.38-.12-.14-.02-.28-.03-.41-.03h-1.23zm5.11-.66h-.36v1h-.31v-1h-.35v-.26h1.02v.26zm1.02.55h.01l.28-.81h.44v1.26h-.3l.01-.89h-.01l-.33.89h-.21l-.32-.89h-.01l.01.89h-.29v-1.26h.44l.28.81z"/></svg>