<svg xmlns="http://www.w3.org/2000/svg" xmlns:xlink="http://www.w3.org/1999/xlink" width="34" height="40" viewBox="0 0 34 40">
    <defs>
        <path id="a" d="M6.768 0H.588v33.333h6.179V0z"/>
        <path id="c" d="M0 40h34.023V0H0z"/>
    </defs>
    <g fill="none" fill-rule="evenodd">
        <path fill="#000" d="M27.5 7.5l-1.078 1.078 1.179 1.178 3.089-3.09-3.09-3.089-1.178 1.179L27.5 5.833h-3.333l-3.822 3.822v18.333l-1.422 1.423 1.178 1.178 1.91-1.91V10.344L24.859 7.5z"/>
        <path fill="#000" d="M29.756 12.256l1.077 1.077h-3.332l-2.99 2.989v4.999l-1.421 1.423 1.178 1.178 1.91-1.91v-5L28.19 15h2.643l-1.077 1.077 1.179 1.178 3.089-3.088-3.09-3.09z"/>
        <g>
            <g transform="translate(13.333)">
                <mask id="b" fill="#fff">
                    <use xlink:href="#a"/>
                </mask>
                <path fill="#000" d="M5.59 3.922l1.178-1.178-2.5-2.5a.832.832 0 0 0-1.179 0l-2.5 2.5 1.179 1.178 1.077-1.077v30.488h1.667V2.845l1.077 1.077z" mask="url(#b)"/>
            </g>
            <path fill="#000" d="M13.678 9.655L9.857 5.833H6.523l1.078-1.077-1.178-1.179-3.09 3.09 3.09 3.089L7.6 8.577 6.523 7.5h2.643l2.846 2.845v18.333l1.91 1.911 1.179-1.178-1.423-1.423z"/>
            <path fill="#000" d="M9.512 16.322l-2.989-2.989H3.19l1.078-1.077-1.179-1.179L0 14.167l3.09 3.089 1.178-1.179L3.19 15h2.643l2.012 2.012v5l1.91 1.91 1.18-1.178-1.423-1.422z"/>
            <mask id="d" fill="#fff">
                <use xlink:href="#c"/>
            </mask>
            <path fill="#000" d="M16.178 36.667h1.667V35h-1.667zM16.178 40h1.667v-1.667h-1.667z" mask="url(#d)"/>
        </g>
    </g>
</svg>
