<svg xmlns="http://www.w3.org/2000/svg" width="38" height="38" viewBox="0 0 38 38">
    <g fill="none" fill-rule="evenodd">
        <path d="M-1-1h40v40H-1z"/>
        <g fill="#000">
            <path d="M17.348 21.478h3.304v-4.956h-3.304v4.956zm-1.652 1.652h6.608v-8.26h-6.608v8.26zM12.391 16.522h1.652V14.87h-1.652zM12.391 19.826h1.652v-1.652h-1.652zM12.391 23.13h1.652v-1.652h-1.652zM23.957 16.522h1.652V14.87h-1.652zM23.957 19.826h1.652v-1.652h-1.652zM23.957 23.13h1.652v-1.652h-1.652z"/>
            <path d="M24.782 0v4.544l-3.304 2.478v2.891h-1.651V0h-1.653v9.913H16.52V7.022l-3.303-2.478V0h-1.652v5.37l3.303 2.478v2.065h-2.477V8.745L9.087 5.441V3.304H7.435v2.82l3.304 3.305v.484H9.087v4.957h-1.31l-3.304-3.305H0v1.652h3.788l3.305 3.305h1.994v1.652H0v1.652h9.087v1.652h-2.1l-3.27 3.305H0v1.652h4.406l3.27-3.304h1.41v4.956h1.653v.484l-3.304 3.304v2.82h1.652V32.56l3.305-3.304v-1.168h2.477v2.065l-3.303 2.479V38h1.652v-4.544l3.303-2.479v-2.891h1.653V38h1.653v-9.913h1.651v2.891l3.304 2.479V38h1.653v-5.37l-3.305-2.478v-2.065h2.478v1.168l3.305 3.304v2.137h1.652v-2.82l-3.304-3.305v-.484h1.652v-4.956h1.41l3.27 3.304H38v-1.652h-3.718l-3.27-3.305h-2.1v-1.652H38v-1.652h-9.087v-1.652h1.994l3.305-3.305H38v-1.652h-4.473l-3.304 3.305h-1.31V9.913H27.26V9.43l3.304-3.304v-2.82h-1.652V5.44l-3.305 3.304v1.168H23.13V7.848l3.305-2.478V0h-1.653zM10.74 26.435H27.26v-14.87H10.74v14.87z"/>
        </g>
    </g>
</svg>
