<svg xmlns="http://www.w3.org/2000/svg" width="40" height="38" viewBox="0 0 40 38">
    <g fill="#000" fill-rule="evenodd">
        <path d="M20 35.833a2.503 2.503 0 0 1-2.5-2.5c0-1.378 1.122-2.5 2.5-2.5s2.5 1.122 2.5 2.5c0 1.379-1.122 2.5-2.5 2.5m0-6.666a4.171 4.171 0 0 0-4.167 4.166A4.171 4.171 0 0 0 20 37.5a4.171 4.171 0 0 0 4.167-4.167A4.171 4.171 0 0 0 20 29.167M20 14.167c1.378 0 2.5 1.121 2.5 2.5 0 1.378-1.122 2.5-2.5 2.5a2.503 2.503 0 0 1-2.5-2.5c0-1.379 1.122-2.5 2.5-2.5m-4.167 2.5a4.174 4.174 0 0 0 3.334 4.082v7.584h1.666V20.75a4.174 4.174 0 0 0 3.334-4.082A4.171 4.171 0 0 0 20 12.5a4.171 4.171 0 0 0-4.167 4.167M13.333 1.667c1.379 0 2.5 1.121 2.5 2.5 0 1.378-1.121 2.5-2.5 2.5a2.503 2.503 0 0 1-2.5-2.5c0-1.379 1.122-2.5 2.5-2.5m0 6.666a4.11 4.11 0 0 0 1.096-.165l2.357 3.928 1.428-.858-2.296-3.829c.956-.764 1.582-1.926 1.582-3.242A4.171 4.171 0 0 0 13.333 0a4.171 4.171 0 0 0-4.166 4.167 4.171 4.171 0 0 0 4.166 4.166M29.167 25a2.503 2.503 0 0 1-2.5-2.5c0-1.378 1.121-2.5 2.5-2.5 1.378 0 2.5 1.122 2.5 2.5s-1.122 2.5-2.5 2.5m0-6.667A4.171 4.171 0 0 0 25 22.5c0 1.012.378 1.93.98 2.652l-2.494 3.534 1.361.962 2.437-3.452a4.11 4.11 0 0 0 1.883.47 4.171 4.171 0 0 0 4.166-4.166 4.171 4.171 0 0 0-4.166-4.167M35.833 14.167a2.503 2.503 0 0 1-2.5-2.5c0-1.379 1.122-2.5 2.5-2.5 1.379 0 2.5 1.121 2.5 2.5 0 1.378-1.121 2.5-2.5 2.5m0-6.667a4.171 4.171 0 0 0-4.166 4.167c0 1.309.619 2.466 1.567 3.23l-1.427 2.14 1.386.925 1.532-2.297c.355.098.722.168 1.108.168A4.171 4.171 0 0 0 40 11.667 4.171 4.171 0 0 0 35.833 7.5M1.667 11.667c0-1.379 1.121-2.5 2.5-2.5 1.378 0 2.5 1.121 2.5 2.5 0 1.378-1.122 2.5-2.5 2.5a2.503 2.503 0 0 1-2.5-2.5zm5.14 6.295l1.386-.924-1.427-2.141c.948-.764 1.567-1.921 1.567-3.23A4.171 4.171 0 0 0 4.167 7.5 4.171 4.171 0 0 0 0 11.667a4.171 4.171 0 0 0 4.167 4.166c.386 0 .753-.07 1.108-.168l1.532 2.297zM8.333 22.5c0-1.378 1.122-2.5 2.5-2.5 1.379 0 2.5 1.122 2.5 2.5s-1.121 2.5-2.5 2.5a2.503 2.503 0 0 1-2.5-2.5zm8.181 6.186l-2.494-3.534c.603-.723.98-1.64.98-2.652a4.171 4.171 0 0 0-4.167-4.167A4.171 4.171 0 0 0 6.667 22.5a4.171 4.171 0 0 0 4.166 4.167c.681 0 1.315-.18 1.883-.471l2.437 3.451 1.361-.961zM26.667 1.667c1.378 0 2.5 1.121 2.5 2.5 0 1.378-1.122 2.5-2.5 2.5a2.503 2.503 0 0 1-2.5-2.5c0-1.379 1.121-2.5 2.5-2.5zm-3.453 10.429l2.357-3.928a4.11 4.11 0 0 0 1.096.165 4.171 4.171 0 0 0 4.166-4.166A4.171 4.171 0 0 0 26.667 0 4.171 4.171 0 0 0 22.5 4.167c0 1.316.626 2.478 1.582 3.242l-2.296 3.829 1.428.858z"/>
    </g>
</svg>
