<svg height="13" width="13" xmlns="http://www.w3.org/2000/svg" viewBox="0 0 13 13"><path fill="#999" fill-rule="evenodd" d="M6.5 0a6.5 6.5 0 1 0 0 13 6.5 6.5 0 0 0 0-13zm3.98 3.37c.64.81 1.03 1.8 1.08 2.89-.73-.15-1.42-.23-2.07-.23h-.01c-.52 0-1 .05-1.46.13-.12-.27-.23-.54-.34-.79 1.02-.45 2.01-1.09 2.8-2zM6.5 1.43c1.2 0 2.29.42 3.16 1.11-.66.8-1.54 1.38-2.49 1.78-.66-1.29-1.31-2.21-1.75-2.77.35-.08.71-.12 1.08-.12zm-2.24.53c.35.41 1.06 1.33 1.81 2.76-1.53.45-3.07.56-4.01.56h-.07-.01c-.15 0-.29-.01-.4-.01a5.073 5.073 0 0 1 2.68-3.31zM1.43 6.5v-.07c.15 0 .33.01.55.01h.01c1.02-.01 2.8-.09 4.6-.66.1.21.2.44.29.67-1.2.4-2.15 1.04-2.85 1.68-.68.62-1.14 1.23-1.4 1.63-.75-.88-1.2-2.02-1.2-3.26zm5.07 5.07c-1.13 0-2.17-.37-3.01-1 .18-.29.56-.86 1.17-1.45.63-.6 1.5-1.22 2.64-1.59.38 1.08.73 2.32 1 3.71-.56.21-1.17.33-1.8.33zm2.87-.9c-.26-1.26-.58-2.39-.94-3.41.33-.04.68-.07 1.04-.07h.02c.6 0 1.27.07 1.99.24a5.088 5.088 0 0 1-2.11 3.24z"/></svg>