<svg xmlns="http://www.w3.org/2000/svg" width="100" height="100"><defs><linearGradient id="a" x1="0%" x2="50%" y1="0%" y2="100%"><stop offset="0%" stop-color="#79DFD6" stop-opacity=".3"/><stop offset="100%" stop-color="#79DFD6"/></linearGradient></defs><g fill="none" fill-rule="evenodd"><path fill="url(#a)" fill-rule="nonzero" d="M6.135 0h87.73A6.135 6.135 0 0 1 100 6.135v87.73A6.135 6.135 0 0 1 93.865 100H6.135A6.135 6.135 0 0 1 0 93.865V6.135A6.135 6.135 0 0 1 6.135 0z" opacity=".2"/><g stroke-linejoin="round" stroke-width="3"><path stroke="#22ABB9" d="M54.14 27.535v-6.28H44.093v5.682a19.967 19.967 0 0 0-5.168 2.14l-4.017-4.017-7.104 7.104 4.017 4.017a19.967 19.967 0 0 0-2.14 5.168H24v10.046h5.681a19.967 19.967 0 0 0 2.14 5.168l-4.017 4.017 7.104 7.105 4.017-4.018a19.967 19.967 0 0 0 5.168 2.14v5.681H54.14V65.21"/><path stroke="#79DFD6" d="M56.651 32.558h1.256l6.279-6.279m0 41.441l-7.535-7.534h-7.535c-7.629 0-13.814-6.185-13.814-13.814 0-7.629 6.185-13.814 13.814-13.814"/><path stroke="#79DFD6" d="M50.372 52.651h-1.256a6.28 6.28 0 0 1 0-12.558h10.047l5.023-5.023h6.28m-.001 23.86h-5.023l-6.28-6.279h-1.255m12.558-28.884a3.767 3.767 0 1 1-7.534 0 3.767 3.767 0 0 1 7.534 0zM78 35.07a3.767 3.767 0 1 1-7.534 0 3.767 3.767 0 0 1 7.534 0zm0 11.302a3.767 3.767 0 1 1-7.534 0 3.767 3.767 0 0 1 7.534 0zm0 12.558a3.767 3.767 0 1 1-7.534 0 3.767 3.767 0 0 1 7.534 0zm-7.535 11.303a3.767 3.767 0 1 1-7.534 0 3.767 3.767 0 0 1 7.534 0zM57.907 46.372h11.302m-21.349 0h2.512m2.512 0h2.511m-2.511 6.279h2.511m-3.767-20.093h2.512"/></g></g></svg>