<?xml version="1.0" encoding="utf-8"?>
<!-- Generator: Avocode 2.6.0 - http://avocode.com -->
<svg height="41" width="35" xmlns:xlink="http://www.w3.org/1999/xlink" xmlns="http://www.w3.org/2000/svg" viewBox="0 0 35 41">
    <path fill="#078cf0" fill-rule="evenodd" d="M 17.94 40.15 C 17.8 40.21 17.65 40.24 17.5 40.24 C 17.35 40.24 17.2 40.21 17.05 40.15 C 6.53 35.53 -0.01 26.79 -0.01 17.33 C -0.01 14.94 0 12.54 0.02 10.14 C 0.03 7.75 0.04 5.35 0.04 2.96 C 0.04 2.48 0.34 2.06 0.78 1.89 C 1.21 1.73 1.71 1.86 2.01 2.22 C 3.31 3.77 6.05 4.77 8.99 4.77 C 12.95 4.77 15.75 3.08 16.47 1.41 C 16.65 1 17.06 0.73 17.5 0.73 C 17.94 0.73 18.34 1 18.52 1.41 C 19.25 3.08 22.05 4.77 26.01 4.77 C 28.95 4.77 31.69 3.77 32.98 2.22 C 33.29 1.86 33.78 1.73 34.22 1.89 C 34.66 2.06 34.95 2.48 34.95 2.96 C 34.95 5.35 34.97 7.75 34.98 10.14 C 34.99 12.54 35.01 14.94 35.01 17.33 C 35.01 26.79 28.47 35.53 17.94 40.15 Z M 32.75 10.15 C 32.74 8.55 32.73 6.94 32.72 5.33 C 30.92 6.41 28.54 7.03 26.01 7.03 C 22.42 7.03 19.25 5.82 17.5 3.89 C 15.75 5.82 12.58 7.03 8.99 7.03 C 6.46 7.03 4.07 6.41 2.28 5.33 C 2.27 6.94 2.26 8.55 2.25 10.15 C 2.24 12.55 2.22 14.94 2.22 17.33 C 2.22 25.74 8.06 33.58 17.5 37.87 C 26.93 33.58 32.77 25.74 32.77 17.33 C 32.77 14.94 32.76 12.55 32.75 10.15 Z M 17.89 27.54 C 17.7 27.84 17.38 28.03 17.03 28.05 C 17 28.05 16.98 28.05 16.95 28.05 C 16.63 28.05 16.32 27.91 16.11 27.66 C 16.11 27.66 9.76 20.21 9.76 20.21 C 9.36 19.73 9.41 19.02 9.88 18.61 C 10.34 18.2 11.05 18.25 11.45 18.73 C 11.45 18.73 16.83 25.04 16.83 25.04 C 16.83 25.04 24.99 12.4 24.99 12.4 C 25.33 11.87 26.03 11.73 26.54 12.07 C 27.06 12.41 27.2 13.12 26.87 13.64 C 26.87 13.64 17.89 27.54 17.89 27.54 Z" />
</svg>