<svg id="icon_1" data-name="icon 1" xmlns="http://www.w3.org/2000/svg" width="62" height="35" viewBox="0 0 62 35">
  <defs>
    <style>
      .cls-1 {
        fill: #95733d;
      }

      .cls-1, .cls-2 {
        fill-rule: evenodd;
      }
    </style>
  </defs>
  <path class="cls-1" d="M204.485,939.844h-9.614v16.593h9.614V939.844Zm48.622,5.274h-9.615V961.71h9.615V945.118Z" transform="translate(-193 -936)"/>
  <path class="cls-2" d="M207.062,957.268h0l-2.418-.019a0.468,0.468,0,0,1-.468-0.467V940.875a0.469,0.469,0,0,1,.472-0.467H207.7a8.335,8.335,0,0,1,7.338-4.417h8.7c1.686,0,2.768.517,3.307,1.581a0.465,0.465,0,0,1-.211.627,0.474,0.474,0,0,1-.633-0.209c-0.25-.5-0.758-1.065-2.463-1.065h-8.7a7.382,7.382,0,0,0-6.621,4.151,0.471,0.471,0,0,1-.426.266h-2.872v14.977l1.95,0.015A0.467,0.467,0,1,1,207.062,957.268Zm36.32,5.909h-4.577a0.467,0.467,0,1,1,0-.934h4.1V945.064h-3.533a0.471,0.471,0,0,1-.468-0.406c-0.54-4.117-4.2-6.384-10.3-6.384a0.467,0.467,0,1,1,0-.934c8.515,0,10.676,4.079,11.171,6.79h3.6a0.47,0.47,0,0,1,.471.467V962.71A0.469,0.469,0,0,1,243.382,963.177Zm11.137,1.216H243.365a0.469,0.469,0,0,1-.471-0.467V943.161a0.469,0.469,0,0,1,.471-0.467h11.154a0.467,0.467,0,1,1,0,.934H243.837v19.831h10.682A0.467,0.467,0,1,1,254.519,964.393Zm-27.507,5.233a2.287,2.287,0,0,1-1.74-.735l-0.586-.648a0.463,0.463,0,0,1,.037-0.659,0.472,0.472,0,0,1,.665.036l0.588,0.651a1.844,1.844,0,0,0,2.532-.177,2.233,2.233,0,0,0,.8-1.5,1.3,1.3,0,0,0-.3-0.961l-4.376-4.883a0.466,0.466,0,0,1,.038-0.659,0.477,0.477,0,0,1,.665.036l6.19,6.816a1.843,1.843,0,0,0,2.532-.175,1.8,1.8,0,0,0,.5-2.464l-9.2-10.274a0.462,0.462,0,0,1-.035-0.576l0.038-.053a0.47,0.47,0,0,1,.36-0.2,0.481,0.481,0,0,1,.381.157l8.888,10a1.847,1.847,0,0,0,2.53-.181,1.8,1.8,0,0,0,.5-2.463l-9.776-10.91a0.462,0.462,0,0,1-.039-0.57,0.533,0.533,0,0,1,.378-0.23,0.481,0.481,0,0,1,.4.133l9.548,10.74a1.843,1.843,0,0,0,2.531-.179,1.8,1.8,0,0,0,.5-2.465l-8.835-9.858a0.465,0.465,0,0,1,.039-0.66,0.477,0.477,0,0,1,.666.04l8.837,9.859a2.715,2.715,0,0,1-.585,3.785,3.216,3.216,0,0,1-2.446.811,3.044,3.044,0,0,1-1.1,2.668,3.227,3.227,0,0,1-2.379.818,3.016,3.016,0,0,1-1.078,2.773,2.777,2.777,0,0,1-3.861.1l-0.6-.657a3.236,3.236,0,0,1-1.092,1.892A3.269,3.269,0,0,1,227.012,969.626Zm-17.966-7.845h0a3.279,3.279,0,0,1-1.884-.6,3.189,3.189,0,0,1-1.3-1.913,2.694,2.694,0,0,1,.424-2.179l2.213-3.1a2.784,2.784,0,0,1,2.308-1.144,3.267,3.267,0,0,1,1.882.6,3.189,3.189,0,0,1,1.3,1.912,2.7,2.7,0,0,1-.424,2.182l-2.214,3.094A2.782,2.782,0,0,1,209.046,961.781Zm1.759-8a1.85,1.85,0,0,0-1.538.749l-2.213,3.1a1.78,1.78,0,0,0-.273,1.438,2.259,2.259,0,0,0,.926,1.351,2.328,2.328,0,0,0,1.339.432h0a1.849,1.849,0,0,0,1.536-.749L212.8,957a1.779,1.779,0,0,0,.273-1.441,2.256,2.256,0,0,0-.927-1.351A2.327,2.327,0,0,0,210.805,953.779Zm2.781,11.158h0a3.339,3.339,0,0,1-1.929-.61,3.289,3.289,0,0,1-.8-4.616l3.319-4.644a3.367,3.367,0,0,1,4.661-.79,3.294,3.294,0,0,1,.8,4.617l-3.32,4.644A3.361,3.361,0,0,1,213.586,964.937Zm3.325-10.334a2.411,2.411,0,0,0-1.962,1l-3.319,4.644a2.361,2.361,0,0,0,.571,3.314,2.414,2.414,0,0,0,3.347-.567l3.32-4.644a2.364,2.364,0,0,0-.573-3.314A2.4,2.4,0,0,0,216.911,954.6Zm1.365,13.621h0a3.341,3.341,0,0,1-1.93-.609,3.3,3.3,0,0,1-.8-4.617l3.6-5.029a3.366,3.366,0,0,1,4.661-.791,3.292,3.292,0,0,1,.8,4.617l-3.595,5.031A3.36,3.36,0,0,1,218.276,968.224Zm3.6-10.72a2.414,2.414,0,0,0-1.962,1l-3.6,5.03a2.366,2.366,0,0,0,.573,3.315,2.4,2.4,0,0,0,1.385.437h0a2.411,2.411,0,0,0,1.962-1l3.595-5.031a2.362,2.362,0,0,0-.573-3.314A2.4,2.4,0,0,0,221.877,957.5ZM222.025,971h0a2.738,2.738,0,0,1-1.577-.5,2.516,2.516,0,0,1-.721-3.5l3.067-4.291a2.409,2.409,0,0,1,1.991-.991,2.738,2.738,0,0,1,1.576.5,2.515,2.515,0,0,1,.722,3.5l-3.068,4.291A2.407,2.407,0,0,1,222.025,971Zm2.76-8.345a1.471,1.471,0,0,0-1.221.6l-3.066,4.29a1.586,1.586,0,0,0,.5,2.192,1.659,1.659,0,0,0,2.251-.265l3.068-4.291a1.586,1.586,0,0,0-.5-2.192A1.794,1.794,0,0,0,224.785,962.65Zm-7.2-12.278A6.642,6.642,0,0,1,213,948.719a1.084,1.084,0,0,1-.044-1.584l8.26-8.17a6.879,6.879,0,0,1,3.344-1.6c0.635-.091,5.207.013,5.726,0.025a0.469,0.469,0,0,1,.461.478,0.481,0.481,0,0,1-.483.456c-1.931-.045-5.15-0.094-5.569-0.034a6.036,6.036,0,0,0-2.813,1.333L213.62,947.8c-0.035.034-.094,0.091,0.1,0.315,0.827,0.967,4.326,2.106,6.475.58l5.393-5.313a1.717,1.717,0,0,0,.121-0.129,0.476,0.476,0,0,1,.45-0.153,0.469,0.469,0,0,1,.355.311,4.943,4.943,0,0,0,6.424,3.187c0.091-.027.184-0.056,0.278-0.087a6.311,6.311,0,0,0,1.415-.646,0.474,0.474,0,0,1,.653.137,0.464,0.464,0,0,1-.138.646,7.24,7.24,0,0,1-1.63.749c-0.1.034-.208,0.066-0.31,0.1a5.79,5.79,0,0,1-7.307-3.1l-5.065,4.989a0.469,0.469,0,0,1-.054.046A5.4,5.4,0,0,1,217.584,950.372Zm-12.963,9.086H193.467a0.467,0.467,0,1,1,0-.934H204.15V939.133H193.467a0.467,0.467,0,1,1,0-.934h11.154a0.469,0.469,0,0,1,.472.467v20.325A0.47,0.47,0,0,1,204.621,959.458Z" transform="translate(-193 -936)"/>
</svg>
