<?xml version="1.0" encoding="utf-8"?>
<!-- Generator: Avocode 2.5.3 - http://avocode.com -->
<svg height="32" width="31" xmlns:xlink="http://www.w3.org/1999/xlink" xmlns="http://www.w3.org/2000/svg" viewBox="0 0 31 32">
    <path fill="#97743a" fill-rule="evenodd" d="M 29.44 16.83 C 29.44 16.83 28.82 16.83 28.82 16.83 C 28.82 16.83 28.82 16.92 28.82 16.92 C 28.82 17.51 28.38 17.97 27.8 17.97 C 27.8 17.97 24.86 17.97 24.86 17.97 C 24.29 17.97 23.83 17.51 23.83 16.92 C 23.83 16.92 23.83 16.83 23.83 16.83 C 23.83 16.83 23.23 16.83 23.23 16.83 C 22.38 16.83 21.71 16.14 21.71 15.28 C 21.71 15.28 21.71 11.3 21.71 11.3 C 21.71 10.43 22.38 9.75 23.23 9.75 C 23.23 9.75 29.44 9.75 29.44 9.75 C 30.29 9.75 31 10.43 31 11.3 C 31 11.3 31 15.28 31 15.28 C 31 16.14 30.29 16.83 29.44 16.83 Z M 29.57 11.28 C 29.57 11.18 29.49 11.09 29.39 11.09 C 29.39 11.09 23.2 11.09 23.2 11.09 C 23.1 11.09 23.02 11.18 23.02 11.28 C 23.02 11.28 23.02 15.24 23.02 15.24 C 23.02 15.34 23.11 15.43 23.2 15.43 C 23.2 15.43 29.39 15.43 29.39 15.43 C 29.49 15.43 29.57 15.34 29.57 15.24 C 29.57 15.24 29.57 11.28 29.57 11.28 Z M 23.79 8.68 C 23.52 8.68 23.26 8.6 23.02 8.43 C 23.02 8.43 21.3 7.22 21.3 7.22 C 20.68 6.79 20.53 5.93 20.95 5.3 C 21.38 4.67 22.22 4.51 22.84 4.94 C 22.84 4.94 24.56 6.15 24.56 6.15 C 25.18 6.59 25.33 7.45 24.91 8.08 C 24.64 8.47 24.22 8.68 23.79 8.68 Z M 22.22 29.11 C 22.22 29.11 22.19 29.34 22.19 29.34 C 21.99 30.86 20.72 31.99 19.22 31.99 C 19.22 31.99 11.62 31.99 11.62 31.99 C 10.12 31.99 8.85 30.86 8.65 29.34 C 8.65 29.34 8.62 29.11 8.62 29.11 C 8.12 25.27 10.75 21.74 14.51 21.23 C 18.27 20.72 21.72 23.41 22.22 27.25 C 22.3 27.87 22.29 28.51 22.22 29.11 Z M 15.42 20.18 C 12.74 20.18 10.57 17.95 10.57 15.22 C 10.57 12.48 12.74 10.26 15.42 10.26 C 18.1 10.26 20.27 12.48 20.27 15.22 C 20.27 17.95 18.1 20.18 15.42 20.18 Z M 17.47 8.86 C 17.47 8.86 13.37 8.86 13.37 8.86 C 12.31 8.86 11.49 7.96 11.49 6.88 C 11.49 6.88 11.49 1.95 11.49 1.95 C 11.49 0.88 12.31 0 13.37 0 C 13.37 0 17.47 0 17.47 0 C 18.52 0 19.41 0.88 19.41 1.95 C 19.41 1.95 19.41 6.88 19.41 6.88 C 19.41 7.96 18.52 8.86 17.47 8.86 Z M 17.97 1.95 C 17.97 1.66 17.76 1.41 17.47 1.41 C 17.47 1.41 13.37 1.41 13.37 1.41 C 13.08 1.41 12.86 1.66 12.86 1.95 C 12.86 1.95 12.86 5.82 12.86 5.82 C 12.86 6.12 13.08 6.38 13.37 6.38 C 13.37 6.38 17.47 6.38 17.47 6.38 C 17.76 6.38 17.97 6.12 17.97 5.82 C 17.97 5.82 17.97 1.95 17.97 1.95 Z M 7.29 8.43 C 7.06 8.6 6.79 8.68 6.52 8.68 C 6.09 8.68 5.67 8.47 5.41 8.08 C 4.98 7.45 5.14 6.59 5.76 6.15 C 5.76 6.15 7.48 4.94 7.48 4.94 C 8.1 4.51 8.94 4.67 9.36 5.3 C 9.79 5.93 9.63 6.79 9.01 7.22 C 9.01 7.22 7.29 8.43 7.29 8.43 Z M 5.58 15.81 C 5.58 16.87 4.75 17.74 3.71 17.74 C 3.71 17.74 1.87 17.74 1.87 17.74 C 0.83 17.74 0 16.87 0 15.81 C 0 15.81 0 10.97 0 10.97 C 0 9.92 0.83 9.03 1.87 9.03 C 1.87 9.03 3.71 9.03 3.71 9.03 C 4.75 9.03 5.58 9.92 5.58 10.97 C 5.58 10.97 5.58 15.81 5.58 15.81 Z M 4.23 14.77 C 4.23 14.77 4.23 10.97 4.23 10.97 C 4.23 10.69 3.99 10.48 3.71 10.48 C 3.71 10.48 1.87 10.48 1.87 10.48 C 1.58 10.48 1.34 10.69 1.34 10.97 C 1.34 10.97 1.34 14.77 1.34 14.77 C 1.34 15.06 1.58 15.29 1.87 15.29 C 1.87 15.29 3.71 15.29 3.71 15.29 C 3.99 15.29 4.23 15.06 4.23 14.77 C 4.23 14.77 4.23 14.77 4.23 14.77 Z" />
</svg>