<svg xmlns="http://www.w3.org/2000/svg" preserveAspectRatio="xMidYMid" width="61" height="58" viewBox="0 0 61 58"><defs><style>.cls-2{fill:#c5c5c5}</style></defs><path d="M61 32.566v-7.25l-9.114-3.609c-.254-.68-.522-1.34-.849-1.986l3.68-8.707-5.393-5.127-9.077 3.554c-.692-.319-1.4-.586-2.13-.835L34.253-.003h-7.625L22.86 8.576c-.76.256-1.489.525-2.212.852l-9.062-3.462-5.391 5.125 3.694 8.539a20.479 20.479 0 0 0-.924 2.153L0 25.429v7.249l8.973 3.555c.276.737.573 1.45.929 2.152L6.277 46.98l5.391 5.126 9.003-3.525c.723.326 1.46.587 2.219.835l3.857 8.581h7.625l3.775-8.624a25.716 25.716 0 0 0 2.12-.835l9.145 3.483 5.391-5.125-3.755-8.653c.322-.648.582-1.31.836-1.981L61 32.566zm-30.56 7.306c-6.312 0-11.437-4.871-11.437-10.875 0-6.003 5.125-10.875 11.437-10.875 6.315 0 11.438 4.872 11.438 10.875 0 6.004-5.123 10.875-11.438 10.875z" id="path-1" class="cls-2" fill-rule="evenodd"/></svg>