<svg xmlns="http://www.w3.org/2000/svg" preserveAspectRatio="xMidYMid" width="25" height="30" viewBox="0 0 25 30"><defs><style>.cls-2{fill:#000}</style></defs><path d="M24.242 10.929a1.751 1.751 0 0 1-.722.494A12.64 12.64 0 0 1 25 17.375c0 6.96-5.608 12.624-12.5 12.624-6.893 0-12.5-5.664-12.5-12.624C0 11.113 4.538 5.901 10.467 4.919V3.576h-.623a1.749 1.749 0 0 1-1.738-1.755v-.067c0-.968.779-1.755 1.738-1.755h5.295c.958 0 1.738.787 1.738 1.755v.067a1.75 1.75 0 0 1-1.738 1.755H14.6V4.93c.987.169 1.936.455 2.831.845.073-.22.189-.424.345-.603l.032-.036a1.73 1.73 0 0 1 2.461-.156l3.849 3.428c.722.642.791 1.757.155 2.485l-.031.036zM12.5 7.817c-5.219 0-9.464 4.288-9.464 9.558s4.245 9.557 9.464 9.557c5.218 0 9.464-4.287 9.464-9.557 0-5.27-4.246-9.558-9.464-9.558zm0 12.039c-1.385 0-2.512-1.138-2.512-2.536 0-.93.498-1.744 1.238-2.186v-3.807c0-.705.567-1.278 1.265-1.278.699 0 1.266.573 1.266 1.278v3.797a2.542 2.542 0 0 1 1.254 2.196c0 1.398-1.126 2.536-2.511 2.536z" id="path-1" class="cls-2" fill-rule="evenodd"/></svg>