<svg xmlns="http://www.w3.org/2000/svg" preserveAspectRatio="xMidYMid" width="73" height="58" viewBox="0 0 73 58"><defs><style>.cls-2{fill:#c5c5c5}</style></defs><path d="M70 31.691a18.443 18.443 0 0 0-9.747-5.714C57.2 14.711 46.942 6.622 34.986 6.622c-.342 0-.681.006-1.019.021C36.863 2.618 41.576-.003 46.9-.003c8.167 0 14.899 6.164 15.834 14.11C68.403 14.107 73 18.721 73 24.413c0 2.842-1.147 5.413-3 7.278zm-13.789-1.323c7.6 0 13.761 6.185 13.761 13.816 0 7.629-6.161 13.813-13.76 13.813H13.76C6.16 57.997 0 51.813 0 44.184c0-7.631 6.161-13.816 13.76-13.816 1.254-10.651 10.278-18.913 21.226-18.913 10.947 0 19.972 8.262 21.225 18.913z" id="path-1" class="cls-2" fill-rule="evenodd"/></svg>