<svg xmlns="http://www.w3.org/2000/svg" width="16.504" height="13.382" viewBox="0 0 20.313 16.47"><defs><style>.cls-1{fill:#0577f4;fill-rule:evenodd}</style></defs><path id="twitter" class="cls-1" d="M971.211 6902.52a8.554 8.554 0 0 1-2.087 2.15c.007.12.011.3.011.54a11.867 11.867 0 0 1-.489 3.35 12.028 12.028 0 0 1-1.489 3.19 12.429 12.429 0 0 1-2.38 2.71 10.7 10.7 0 0 1-3.324 1.88 12.159 12.159 0 0 1-4.166.7 11.607 11.607 0 0 1-6.393-1.86c.3.03.636.05 1 .05a8.186 8.186 0 0 0 5.17-1.78 4.17 4.17 0 0 1-3.893-2.88 5.654 5.654 0 0 0 .786.06 4.075 4.075 0 0 0 1.1-.14 4.1 4.1 0 0 1-2.392-1.43 4.037 4.037 0 0 1-.947-2.65v-.05a4.145 4.145 0 0 0 1.882.53 4.179 4.179 0 0 1-1.354-1.48 4.164 4.164 0 0 1 .065-4.08 11.826 11.826 0 0 0 3.795 3.07 11.668 11.668 0 0 0 4.79 1.28 4.733 4.733 0 0 1-.1-.95 4.17 4.17 0 0 1 7.205-2.85 8.138 8.138 0 0 0 2.643-1 4.049 4.049 0 0 1-1.831 2.29 8.258 8.258 0 0 0 2.398-.65z" transform="translate(-950.906 -6900.56)"/></svg>