<svg id="icon_2" data-name="icon 2" xmlns="http://www.w3.org/2000/svg" width="61.998" height="38.38" viewBox="0 0 63 39">
  <defs>
    <style>
      .cls-1, .cls-2 {
        fill-rule: evenodd;
      }

      .cls-2 {
        fill: #95733d;
      }
    </style>
  </defs>
  <path class="cls-1" d="M213.982,1157.94a0.469,0.469,0,0,1-.316-0.12l-4.429-4.32a0.443,0.443,0,0,1,0-.63,0.459,0.459,0,0,1,.635,0l4.43,4.32a0.432,0.432,0,0,1,0,.62A0.441,0.441,0,0,1,213.982,1157.94ZM198.2,1139.79a0.454,0.454,0,0,1-.389-0.22l-1.428-2.43a0.444,0.444,0,0,1-.045-0.34,0.46,0.46,0,0,1,.209-0.27l3.9-2.22a0.452,0.452,0,0,1,.342-0.04,0.443,0.443,0,0,1,.273.2l1.372,2.37a0.435,0.435,0,0,1-.167.6,0.455,0.455,0,0,1-.613-0.16l-1.148-1.98-3.124,1.78,1.2,2.04a0.443,0.443,0,0,1-.164.61A0.457,0.457,0,0,1,198.2,1139.79Zm20.636,0a0.46,0.46,0,0,1-.225-0.06,0.443,0.443,0,0,1-.164-0.61l1.2-2.04-3.124-1.78-1.149,1.98a0.455,0.455,0,0,1-.613.16,0.435,0.435,0,0,1-.167-0.6l1.373-2.37a0.443,0.443,0,0,1,.273-0.2,0.452,0.452,0,0,1,.342.04l3.9,2.22a0.448,0.448,0,0,1,.164.61l-1.428,2.43A0.453,0.453,0,0,1,218.832,1139.79ZM208.514,1168a16.262,16.262,0,1,1,16.515-16.26A16.405,16.405,0,0,1,208.514,1168Zm0-31.63a15.372,15.372,0,1,0,15.617,15.37A15.51,15.51,0,0,0,208.514,1136.37Zm0,27.92a12.547,12.547,0,1,1,12.742-12.55A12.662,12.662,0,0,1,208.514,1164.29Zm0-24.21a11.661,11.661,0,1,0,11.844,11.66A11.766,11.766,0,0,0,208.514,1140.08Zm-0.175,9.93a0.446,0.446,0,0,1-.449-0.44v-4.23a0.449,0.449,0,0,1,.9,0v4.23A0.446,0.446,0,0,1,208.339,1150.01Zm0,3.86a2.24,2.24,0,1,1,2.276-2.24A2.258,2.258,0,0,1,208.339,1153.87Zm0-3.59a1.355,1.355,0,1,0,1.377,1.35A1.368,1.368,0,0,0,208.339,1150.28Zm2.647-13.79a0.449,0.449,0,0,1-.449-0.45v-3.58h-4.046v3.58a0.449,0.449,0,1,1-.9,0v-4.02a0.446,0.446,0,0,1,.449-0.44h4.944a0.446,0.446,0,0,1,.449.44v4.02A0.449,0.449,0,0,1,210.986,1136.49Zm2.415-4.03h-9.493a0.44,0.44,0,0,1-.449-0.44v-2.58a0.44,0.44,0,0,1,.449-0.44H213.4a0.441,0.441,0,0,1,.45.44v2.58A0.441,0.441,0,0,1,213.4,1132.46Zm-9.044-.88h8.595v-1.7h-8.595v1.7Zm43.767,32.91H237.369a0.433,0.433,0,0,1-.322-0.13,0.447,0.447,0,0,1-.127-0.32l0.007-.27a0.445,0.445,0,0,1,.114-0.28,4.1,4.1,0,0,0,1.244-2.69,2.822,2.822,0,0,0-2.932-2.58,0.089,0.089,0,0,1-.05-0.01h-0.016a0.085,0.085,0,0,1-.049.01,2.819,2.819,0,0,0-2.929,2.58,4.079,4.079,0,0,0,1.245,2.69,0.464,0.464,0,0,1,.115.28l0.007,0.16a0.493,0.493,0,0,1,.015.12,0.44,0.44,0,0,1-.449.44H222.51a0.44,0.44,0,0,1-.449-0.44v-9.91a4.741,4.741,0,0,1-2.92,1.13,3.7,3.7,0,0,1-3.537-3.64,0.459,0.459,0,0,1-.01-0.09l0-.08a0.685,0.685,0,0,1,.007-0.08h0a3.7,3.7,0,0,1,3.492-3.76,4.838,4.838,0,0,1,2.969,1.12v-9.9a0.44,0.44,0,0,1,.449-0.44h10.713a0.477,0.477,0,0,1,.323.13,0.447,0.447,0,0,1,.127.32l-0.013.45a0.451,0.451,0,0,1-.114.28,4.092,4.092,0,0,0-1.237,2.7,2.832,2.832,0,0,0,2.941,2.57h0.111a2.827,2.827,0,0,0,2.924-2.59,4.133,4.133,0,0,0-1.252-2.69,0.452,0.452,0,0,1-.115-0.28l-0.016-.44a0.439,0.439,0,0,1,.127-0.32,0.474,0.474,0,0,1,.323-0.13h10.772a0.44,0.44,0,0,1,.449.44v9.89a4.947,4.947,0,0,1,2.91-1.07H251.6a3.694,3.694,0,0,1,3.393,3.78,0.414,0.414,0,0,1,.006.07c0,0.01,0,.07,0,0.08v0.09a0.4,0.4,0,0,1-.014.09,3.726,3.726,0,0,1-3.526,3.54h-0.1a4.693,4.693,0,0,1-2.779-1.12v9.86A0.44,0.44,0,0,1,248.124,1164.49Zm-10.019-.88h9.57v-10.19a0.43,0.43,0,0,1,.142-0.32,0.451,0.451,0,0,1,.335-0.12l0.25,0.02a0.386,0.386,0,0,1,.282.12,4.242,4.242,0,0,0,2.7,1.31h0.075a2.846,2.846,0,0,0,2.636-2.81,0.437,0.437,0,0,1,.009-0.05h0a0.4,0.4,0,0,1,0-.06,2.812,2.812,0,0,0-2.525-2.96l-0.089-.01a4.321,4.321,0,0,0-2.689,1.15,0.489,0.489,0,0,1-.287.1h-0.383a0.446,0.446,0,0,1-.449-0.44v-10.07h-9.711a4.724,4.724,0,0,1,1.219,2.98,3.7,3.7,0,0,1-3.7,3.47c-0.034,0-.069.01-0.106,0.01a0.22,0.22,0,0,1-.08-0.01H235.2a3.7,3.7,0,0,1-3.794-3.45,4.744,4.744,0,0,1,1.215-3h-9.666v10.11a0.455,0.455,0,0,1-.135.32,0.471,0.471,0,0,1-.324.12l-0.368-.01a0.434,0.434,0,0,1-.287-0.11,4.265,4.265,0,0,0-2.732-1.21,2.824,2.824,0,0,0-2.615,2.91c0,0.01,0,.03,0,0.05h0c0,0.02,0,.04,0,0.06a2.824,2.824,0,0,0,2.625,2.87,4.29,4.29,0,0,0,2.743-1.24,0.488,0.488,0,0,1,.281-0.12l0.343-.01a0.439,0.439,0,0,1,.33.12,0.434,0.434,0,0,1,.139.32v10.15h9.529a4.6,4.6,0,0,1-1.078-2.81,3.692,3.692,0,0,1,3.707-3.46,0.361,0.361,0,0,1,.1-0.01h0.149a0.378,0.378,0,0,1,.107.01,3.693,3.693,0,0,1,3.706,3.46A4.6,4.6,0,0,1,238.105,1163.61Z" transform="translate(-192 -1129)"/>
  <path class="cls-2" d="M208.519,1137.87a13.882,13.882,0,1,0,14.118,13.88A14,14,0,0,0,208.519,1137.87Zm0,26.03a12.152,12.152,0,1,1,12.358-12.15A12.256,12.256,0,0,1,208.519,1163.9Zm23.395-3.14a2.748,2.748,0,0,1,.941-2.04,2.8,2.8,0,0,0-1.115,2.19,3.28,3.28,0,0,0,.06.59h-6.744v-19.98h6.863a3.341,3.341,0,0,0-.179,1.06,3.24,3.24,0,0,0,3.344,2.98v0.01h0.144v-0.01a3.712,3.712,0,0,0,2.383-.95,3.732,3.732,0,0,1-2.209.8v0.01h-0.144a3.247,3.247,0,0,1-3.344-2.98,4.537,4.537,0,0,1,1.338-2.97l0.013-.44H222.648v10.44h-0.365a4.65,4.65,0,0,0-3.019-1.31,3.23,3.23,0,0,0-3.018,3.3h-0.007c0,0.02,0,.04,0,0.07s0,0.04,0,.07h0.006a3.237,3.237,0,0,0,3.061,3.26,4.675,4.675,0,0,0,3-1.34l0.34-.02v10.48h10.624l-0.01-.26A4.5,4.5,0,0,1,231.914,1160.76Zm22.482-9.19a3.237,3.237,0,0,0-2.933-3.37,4.714,4.714,0,0,0-3.052,1.23h-0.379v-10.4H237.356l0.015,0.43a5.3,5.3,0,0,1,1.22,2.06h6.793v19.98h-6.745a5.043,5.043,0,0,1-1.258,2.22l-0.007.26h10.658v-10.52l0.248,0.02a4.71,4.71,0,0,0,2.965,1.42,3.237,3.237,0,0,0,3.145-3.18H254.4c0-.03,0-0.05,0-0.07s0-.05,0-0.08h0Z" transform="translate(-192 -1129)"/>
</svg>
