<svg xmlns="http://www.w3.org/2000/svg" width="62" height="62" viewBox="0 0 62 62">
    <g fill="none" fill-rule="evenodd" stroke-linejoin="round">
        <path stroke="#323232" d="M34 19.23c2.534-3.377 3.666-5.23 7.765-5.23h6.47C51.486 14 56 15.267 56 20.538v5.231C56 28.667 53.452 31 50.824 31" transform="translate(1 1)"/>
        <path stroke="#323232" d="M40 30L40 23 38.667 23 36 24.4M50 22L50 35M4.865 44.563C1.889 49.1.117 54.767 0 60h60c-.328-15.698-13.627-29-30-29-1.89 0-3.738.174-5.532.508" transform="translate(1 1)"/>
        <path stroke="#323232" d="M13 60v-2.519c0-1.717.9-2.814 2.617-2.814h8.707c1.717 0 3.343-1.687 3.343-3.404v-1.244c0-1.718 1.15-3.352 2.868-3.352h-.004c1.717 0 2.469-1.151 2.469-2.868v-1.243C33 40.837 32.261 40 30.544 40H25M52 42h-9.06c-1.325 0-2.511 1.652-2.511 2.978v1.2c0 1.324 1.186 2.25 2.51 2.25h2.4c1.324 0 2.804 1.149 2.804 2.473v.136c0 1.325-1.48 2.534-2.804 2.534H39.34c-2.649 0-5.341 1.95-5.341 4.6V60" transform="translate(1 1)"/>
        <path stroke="#3F7FE7" d="M21.216 49V21.778h1.43s3.04 2.267 5.191 3.889c3.366 2.538 7.163-.68 7.163-.68s-4.901-5.1-7.163-7.098C25.467 15.795 22.839 14 18.567 14h-6.621C8.619 14 4 15.807 4 21.778v5.185c0 2.873 2.907 5.185 5.297 5.185M9 21L9 50M14 31L14 49M14.5 0C12.107 0 10 1.651 10 4v2c0 2.349 2.107 4 4.5 4S19 8.349 19 6V4c0-2.349-2.107-4-4.5-4z" transform="translate(1 1)"/>
        <path stroke="#323232" d="M45.5 0C43.107 0 41 1.651 41 4v2c0 2.349 2.107 4 4.5 4S50 8.349 50 6V4c0-2.349-2.107-4-4.5-4z" transform="translate(1 1)"/>
    </g>
</svg>
