<svg xmlns="http://www.w3.org/2000/svg" width="70" height="48" viewBox="0 0 70 48">
    <path fill="#171717" fill-rule="evenodd" d="M63.963 0c3.044 0 5.534 2.528 5.534 5.616v36.601c0 3.085-2.5 5.586-5.586 5.586H5.586c-3.085 0-5.586-2.5-5.586-5.586V5.616C0 2.528 2.488 0 5.532 0zm-3.49 10.578l-16.527.004c-3.442 0-6.235 2.833-6.235 6.328l.001 19.452c0 .477.38.863.85.863h4.021c.469 0 .848-.386.848-.863l-.001-18.014c0-1.084.866-1.963 1.933-1.963l15.11.003c.467 0 .848-.386.848-.863V11.44c0-.476-.381-.862-.849-.862zm-30.093.004l-5.44.003c-3.21 0-6.007 1.802-7.46 4.465L6 35.972c-.063.12-.099.256-.099.4 0 .47.374.85.837.85l4.65-.001c.316 0 .59-.177.732-.438l10.396-18.952c.479-.866 1.39-1.45 2.438-1.45l4.01.004c1.069 0 1.934.879 1.934 1.963l-.002 18.015c0 .476.38.862.848.862h4.021c.47 0 .85-.386.85-.862V16.91c0-3.495-2.793-6.328-6.235-6.328zm-1.419 6.916h-4.003c-.64 0-1.197.357-1.488.886l-9.65 17.588c-.061.12-.098.256-.098.401 0 .469.374.849.835.849l4.652-.001c.316 0 .59-.177.732-.438l7.17-13.073c.142-.258.415-.432.727-.432h1.123c.47 0 .85-.386.85-.862V18.36c0-.476-.38-.862-.85-.862zm31.43 0H45.375c-.469 0-.85.386-.85.862v4.056c0 .476.381.862.85.862h15.016c.469 0 .85-.386.85-.862V18.36c0-.476-.381-.862-.85-.862z"/>
</svg>
