<svg xmlns="http://www.w3.org/2000/svg" width="56" height="65" viewBox="0 0 56 65">
    <g fill="none" fill-rule="evenodd" stroke="#2387FD">
        <path d="M9.9.003l4.792 5.92M44.05.003l-4.794 5.92M21.822 49.515V59.89c0 2.218-1.837 4.015-4.103 4.015s-4.103-1.797-4.103-4.015V49.695M40.332 49.713V59.89c0 2.218-1.837 4.015-4.103 4.015s-4.102-1.797-4.102-4.015V49.71M4.15 20.266c2.266 0 4.103 1.798 4.103 4.015v17.224c0 2.217-1.837 4.015-4.103 4.015S.047 43.722.047 41.505V24.282c0-2.218 1.837-4.016 4.103-4.016zM49.798 20.266c2.266 0 4.103 1.798 4.103 4.015v17.224c0 2.217-1.837 4.015-4.103 4.015s-4.103-1.798-4.103-4.015V24.282c0-2.218 1.837-4.016 4.103-4.016zM8.472 17.81c.114-8.015 7.263-14.587 16.44-15.454.561-.082 1.249-.124 2.062-.124.813 0 1.5.042 2.061.124 9.178.867 16.326 7.44 16.44 15.454" transform="translate(1)"/>
        <path d="M8.352 17.944c-.013.152-.025.306-.025.462V44.5c0 2.807 2.27 5.067 5.088 5.067h27.118c2.818 0 5.088-2.26 5.088-5.067V18.406c0-.156-.006-.31-.02-.462H8.353zM21.462 10.627c.004 1.12-.944 2.031-2.116 2.034-1.172.003-2.126-.902-2.129-2.023v-.011c-.003-1.12.944-2.032 2.117-2.035 1.172-.003 2.125.903 2.128 2.024v.01zm15.845 0c.003 1.12-.944 2.031-2.117 2.034-1.172.003-2.125-.902-2.128-2.023v-.011c-.003-1.12.944-2.032 2.116-2.035 1.172-.003 2.125.903 2.129 2.024v.01z" transform="translate(1)"/>
    </g>
</svg>
