<svg xmlns="http://www.w3.org/2000/svg" width="80" height="48" viewBox="0 0 80 48">
    <path fill-rule="evenodd" d="M65.868 27.244c-3.124 0-6.068-1.001-8.517-2.896-2.449 1.895-5.392 2.896-8.516 2.896-3.082.013-6.08-1.007-8.516-2.896-2.449 1.895-5.392 2.896-8.515 2.896-3.083.013-6.081-1.006-8.517-2.896-2.45 1.895-5.393 2.896-8.515 2.896-7.617 0-13.814-6.109-13.814-13.618S7.155.008 14.772.008c3.12 0 6.064 1.001 8.515 2.896 2.436-1.89 5.434-2.91 8.517-2.896 3.123 0 6.066 1.001 8.515 2.896 2.436-1.89 5.434-2.91 8.516-2.896 3.124 0 6.067 1.001 8.516 2.896 2.436-1.89 5.434-2.91 8.517-2.896 7.616 0 13.813 6.11 13.813 13.618 0 7.51-6.197 13.618-13.813 13.618zM20.927 5.231c-1.802-1.27-3.95-1.957-6.155-1.965-5.795 0-10.51 4.647-10.51 10.36 0 5.713 4.715 10.36 10.51 10.36 2.182 0 4.365-.696 6.155-1.965-1.894-2.389-2.928-5.346-2.937-8.395-.01-3.052 1.026-6.015 2.937-8.395zm2.36 2.325c-1.3 1.757-1.998 3.885-1.992 6.07 0 2.2.688 4.297 1.992 6.07 1.3-1.756 1.998-3.885 1.994-6.07 0-2.202-.69-4.299-1.994-6.07zM37.96 5.231c-1.798-1.284-3.954-1.97-6.164-1.962-2.227 0-4.352.678-6.149 1.962 1.911 2.38 2.948 5.343 2.937 8.395-.008 3.049-1.043 6.006-2.937 8.395 1.793 1.283 3.945 1.97 6.15 1.962 2.237 0 4.366-.677 6.163-1.962-1.894-2.388-2.93-5.346-2.938-8.395 0-3.081 1.015-5.983 2.938-8.395zm2.359 2.325c-1.299 1.757-1.997 3.885-1.992 6.07 0 2.2.688 4.297 1.992 6.07 1.3-1.756 1.998-3.885 1.994-6.07 0-2.202-.69-4.299-1.994-6.07zm14.672-2.325c-1.797-1.285-3.953-1.971-6.163-1.962-2.227 0-4.351.678-6.148 1.961 1.91 2.38 2.947 5.344 2.937 8.396 0 3.025-1.043 6.003-2.937 8.395 1.793 1.283 3.944 1.97 6.148 1.962 2.238 0 4.368-.677 6.163-1.962-1.893-2.39-2.928-5.346-2.937-8.395 0-3.081 1.016-5.983 2.937-8.395zm2.36 2.325c-1.3 1.757-1.998 3.885-1.993 6.07 0 2.2.689 4.296 1.993 6.07 1.3-1.757 1.998-3.885 1.993-6.07.006-2.185-.693-4.313-1.993-6.07zm8.517-4.29c-2.18 0-4.363.697-6.156 1.965 1.91 2.38 2.947 5.343 2.937 8.395-.01 3.049-1.044 6.006-2.937 8.395 1.801 1.272 3.95 1.958 6.156 1.966 5.794 0 10.509-4.648 10.509-10.36 0-5.714-4.715-10.361-10.51-10.361zm11.176 15.106h1.586-1.586zM17.09 33.6h5.334l9.506 14.057h-4.965l-1.463-2.316H16.44l-1.434 2.316h-4.806l8.365-12.339-1.473-1.718zm.992 8.997h5.744l-2.882-4.657-2.862 4.657zm13.108-5.145h4.225v4.504c0 .39-.026.755 0 1.093.026.313.053.625.132.911.264.86.924 1.407 2.35 1.407 1.03 0 2.033-.417 2.324-1.354.079-.339.133-.703.133-2.004v-4.557h4.172v5.936c0 1.484-.502 2.343-1.189 2.993-1.32 1.276-3.169 1.614-5.572 1.614-1.98 0-4.119-.364-5.386-1.588-.74-.676-1.189-1.665-1.189-2.993v-5.962zm17.059.86c1.478-.808 3.142-1.147 4.778-1.147.688 0 1.559.157 2.245.547 0 0-.607-.468-1.082-.988L51.365 33.6h4.965l3.564 4.452c1.479 1.848 1.954 3.175 1.954 4.321 0 1.614-.66 2.837-1.637 3.721-1.663 1.485-4.594 1.901-6.47 1.901-1.267 0-4.725-.181-6.627-2.056-.845-.86-1.505-1.979-1.505-3.436 0-1.9 1.056-3.333 2.64-4.191zm3.089 6.482c.74.364 1.637.52 2.403.52s1.638-.104 2.376-.494c.898-.443 1.61-1.25 1.61-2.317 0-1.016-.791-1.953-1.98-2.447-.66-.261-1.505-.339-2.085-.339-.608 0-1.374.104-2.007.39-1.03.443-1.902 1.329-1.902 2.448 0 .937.687 1.797 1.585 2.239zm15.975 2.863H63.01V37.452h4.304v10.205z"/>
</svg>
