<svg xmlns="http://www.w3.org/2000/svg" width="62" height="58" viewBox="0 0 62 58">
    <g fill="none" fill-rule="evenodd" stroke-linejoin="round">
        <path stroke="#3F7FE7" d="M18.665 14.585c2.29 0 4.001-1.278 4.001-3.98V9.279c0-2.703-1.71-3.977-4-3.977s-4 1.274-4 3.977v1.326c0 2.702 1.71 3.98 3.999 3.98zM24 39.767V23.86h8c2.667 0 4-3.732 4-5.302H14.667C10.985 18.558 8 21.526 8 25.186v2.647c0 2.844 2.473 3.977 5.333 3.977M18.667 33.14L18.667 39.767M13.333 25.186L13.333 39.767" transform="translate(1 1)"/>
        <path stroke="#323232" d="M9.333 49.047v-2.652c0-1.464 1.194-2.65 2.667-2.65h5.333c1.474 0 2.667 1.186 2.667 2.65v2.652M25.333 49.047v-2.652c0-1.464 1.194-2.65 2.667-2.65h5.333c1.474 0 2.667 1.186 2.667 2.65v2.652M41.333 49.047v-2.652c0-1.464 1.194-2.65 2.667-2.65h5.333c1.474 0 2.667 1.186 2.667 2.65v2.652M1.333 57v-2.651c0-1.465 1.194-2.651 2.667-2.651h5.333c1.474 0 2.667 1.186 2.667 2.65V57M17.333 57v-2.651c0-1.465 1.194-2.651 2.667-2.651h5.333c1.474 0 2.667 1.186 2.667 2.65V57M33.333 57v-2.651c0-1.465 1.194-2.651 2.667-2.651h5.333c1.474 0 2.667 1.186 2.667 2.65V57M49.333 57v-2.651c0-1.465 1.194-2.651 2.667-2.651h5.333c1.474 0 2.667 1.186 2.667 2.65V57" transform="translate(1 1)"/>
        <path stroke="#323232" d="M5.244 45.07L0 45.07 0 0 59 0 59 45.07 55.067 45.07" transform="translate(1 1)"/>
    </g>
</svg>
