<svg xmlns="http://www.w3.org/2000/svg" width="80" height="80" viewBox="0 0 80 80">
    <g fill="none">
        <circle cx="40" cy="40" r="40" fill="#1476F2"/>
        <path fill="#FFF" d="M50 51.333V26.667H30v24.666h20zm0 1.334H30v3C30 56.955 31.045 58 32.333 58h15.334C48.955 58 50 56.955 50 55.667v-3zm0-27.334V25c0-1.289-1.045-2.333-2.333-2.333H32.333C31.045 22.667 30 23.71 30 25v.333h20zm-2.333-4.666C50.06 20.667 52 22.607 52 25v30.667C52 58.06 50.06 60 47.667 60H32.333C29.94 60 28 58.06 28 55.667V25c0-2.393 1.94-4.333 4.333-4.333h15.334zm-8 33.666c-.737 0-1.334.597-1.334 1.334 0 .736.597 1.333 1.334 1.333.736 0 1.333-.597 1.333-1.333 0-.737-.597-1.334-1.333-1.334z"/>
    </g>
</svg>
