<svg xmlns="http://www.w3.org/2000/svg" width="80" height="80" viewBox="0 0 80 80">
    <g fill="none">
        <circle cx="40" cy="40" r="40" fill="#1476F2"/>
        <path fill="#FFF" d="M41.212 24.013c-1.203-.125-2.362.49-2.937 1.557l-6.91 12.847c-.016.028-.027.059-.033.09-.037.18.078.356.258.394l4.267.883c.185.038.366.094.54.166 1.524.634 2.247 2.386 1.615 3.914l-4.943 11.96 13.602-12.645c.044-.042.077-.094.093-.153.05-.177-.051-.36-.228-.411l-1.739-.498c-.426-.122-.829-.316-1.191-.572-1.786-1.261-2.214-3.735-.956-5.526l7.76-11.05-9.198-.956zm9.966-.972c.912.094 1.574.912 1.48 1.826-.03.284-.13.554-.294.787l-8.086 11.514c-.625.89-.412 2.118.474 2.745.18.127.38.223.592.283l1.74.498c1.233.354 1.947 1.643 1.595 2.88-.117.41-.343.78-.655 1.07l-16.942 15.75c-.784.728-2.005-.125-1.596-1.115l6.687-16.18c.21-.509-.03-1.093-.538-1.304-.059-.024-.119-.043-.18-.056l-4.268-.883c-1.256-.26-2.065-1.492-1.805-2.752.045-.222.123-.436.23-.636l6.911-12.846c.957-1.779 2.89-2.804 4.894-2.595l9.761 1.014z"/>
    </g>
</svg>
