<svg xmlns="http://www.w3.org/2000/svg" width="71" height="81" viewBox="0 0 71 81">
    <g fill="none" fill-rule="evenodd">
        <path stroke="#2387FD" d="M61.436 71.15l-26.932 7.967h0L7.647 71.15c-1.091-.323-1.871-1.283-1.965-2.417L.123 1.493C.061.733.625.067 1.384.005 1.422.002 1.46 0 1.498 0h66.015c.761 0 1.379.618 1.379 1.38 0 .037-.002.074-.005.111L63.403 68.73c-.093 1.136-.875 2.098-1.967 2.421z" transform="translate(1 1)"/>
        <path fill-rule="nonzero" stroke="#1476F2" stroke-linejoin="round" d="M12.414 15.172L56.69 15.172 55.948 23.83 22.592 23.83 23.182 32.772 54.745 32.772 52.559 58.969 34.569 64.704 16.763 59.993 15.395 46.39 24.386 46.39 24.933 52.776 34.569 55.807 44.265 52.776 45.098 42.042 14.822 42.042z" transform="translate(1 1)"/>
    </g>
</svg>
