<svg xmlns="http://www.w3.org/2000/svg" width="80" height="80" viewBox="0 0 80 80">
    <g fill="none">
        <circle cx="40" cy="40" r="40" fill="#1476F2"/>
        <path fill="#FFF" d="M30.164 53.327c.183-.164.421-.254.668-.254h10.835c1.288 0 2.333-1.036 2.333-2.314V38.861c0-1.278-1.045-2.313-2.333-2.313H22.333c-1.288 0-2.333 1.035-2.333 2.313V50.76c0 1.278 1.045 2.314 2.333 2.314h2.203c.552 0 1 .444 1 .991v3.385l4.628-4.122zm11.503-18.762c2.393 0 4.333 1.923 4.333 4.296V50.76c0 2.373-1.94 4.297-4.333 4.297H31.215l-6.01 5.355c-.645.573-1.67.12-1.67-.738v-4.617h-1.202c-2.393 0-4.333-1.924-4.333-4.297V38.861c0-2.373 1.94-4.296 4.333-4.296h19.334zm16-11.898c2.393 0 4.333 1.923 4.333 4.296v11.898c0 2.373-1.94 4.297-4.333 4.297h-1.203v4.617c0 .858-1.024 1.311-1.668.738l-6.011-5.355h-.356c-.552 0-1-.444-1-.992 0-.547.448-.991 1-.991h.739c.247 0 .485.09.668.254l4.628 4.122v-3.385c0-.547.448-.991 1-.991h2.203c1.288 0 2.333-1.036 2.333-2.314V26.963c0-1.278-1.045-2.313-2.333-2.313H38.333c-1.288 0-2.333 1.035-2.333 2.313v5.3c0 .547-.448.991-1 .991s-1-.444-1-.992v-5.299c0-2.373 1.94-4.296 4.333-4.296h19.334zm-30 20.821c-.737 0-1.334.592-1.334 1.322 0 .73.597 1.322 1.334 1.322.736 0 1.333-.592 1.333-1.322 0-.73-.597-1.322-1.333-1.322zm4.666 0c-.736 0-1.333.592-1.333 1.322 0 .73.597 1.322 1.333 1.322.737 0 1.334-.592 1.334-1.322 0-.73-.597-1.322-1.334-1.322zm4.667 0c-.736 0-1.333.592-1.333 1.322 0 .73.597 1.322 1.333 1.322s1.333-.592 1.333-1.322c0-.73-.597-1.322-1.333-1.322z"/>
    </g>
</svg>
