<svg xmlns="http://www.w3.org/2000/svg" width="52" height="65" viewBox="0 0 52 65">
    <g fill="none" fill-rule="evenodd" stroke="#2387FD">
        <path d="M48.589 22.622c-2.55-3.64-6.31-5.685-11.284-6.142-1.769-.163-4.03.247-6.782 1.241-2.96 1.077-4.625 1.612-4.995 1.612-.78 0-2.28-.452-4.504-1.364-2.218-.91-4.11-1.365-5.672-1.365-2.63.042-5.078.755-7.338 2.14-2.26 1.386-4.068 3.28-5.424 5.676C.86 27.4 0 30.957 0 35.091c0 3.722.635 7.444 1.91 11.168 1.191 3.557 2.715 6.68 4.562 9.365 1.643 2.441 3.087 4.22 4.316 5.338 1.77 1.736 3.576 2.565 5.429 2.48 1.19-.043 2.752-.476 4.684-1.306 1.807-.781 3.618-1.175 5.427-1.175 1.685 0 3.43.391 5.241 1.175 2.013.83 3.66 1.243 4.933 1.243 1.891-.082 3.658-.889 5.304-2.417.573-.499 1.201-1.18 1.879-2.049.782-1.012 1.533-2.046 2.252-3.102.599-.91 1.165-1.841 1.696-2.791.57-1.023 1.074-2.08 1.51-3.165.204-.455.388-.919.555-1.395.163-.475.328-.96.492-1.457-1.52-.66-2.898-1.594-4.13-2.794-2.71-2.643-4.088-5.912-4.13-9.8-.084-5.046 2.137-8.975 6.659-11.787zM34.16 9.927c2.18-2.689 3.269-5.584 3.269-8.686V.62c0-.208-.021-.414-.062-.621-1.521.083-3.134.56-4.841 1.426-1.705.87-3.113 1.968-4.225 3.289-2.218 2.607-3.33 5.397-3.33 8.376v.587c0 .188.022.384.062.592 3.413.33 6.455-1.118 9.126-4.343z" transform="translate(1 1)"/>
    </g>
</svg>
