<svg xmlns="http://www.w3.org/2000/svg" width="106" height="48" viewBox="0 0 106 48">
    <path fill="#171717" fill-rule="evenodd" d="M100.865 44.785l4.926 2.94h-3.813l-4.69-2.885h-4.11v2.885h-3.13V39.4h9.703c2 0 3.004.121 3.817.475.914.4 1.416 1.111 1.416 2.224 0 .832-.38 1.634-1.177 2.06-.768.41-1.765.585-2.942.625zm.988-2.73c0-.597-.12-.983-.46-1.233-.357-.265-.877-.373-2.05-.373h-6.166v3.342h6.204c1 0 1.55-.06 1.943-.328.4-.275.529-.713.529-1.252v-.157zm-8.974-11.138c.729.539 1.024 1.171 1.113 1.828 0 0-.915 1.441-1.729 1.811-2.293 1.044-4.018-.868-5.893-2.633-1.369-1.295-1.818-1.45-2.625-1.869-1.854-.968-3.683-.88-5.927-.748l-3.68.33c-8.135.708-10.479-5.108-12.325-8.037-.455-.717-1.952-1.81-3.594-1.932 0 0-.958-.036-2.178.121-7.025.898-9.706.449-12.564-.48-1.787 2.16-6.534.938-6.534.938-1.596-.416-8.684-2.87-9.486-3.128-1.227-.395-1.69.825-1.69.825-1.261 2.751-3.875 2.955-3.9 2.98 0 0-2.769-.953-1.415-3.717.52-1.059 2.309-3.663 5.095-4.155.977-.172 2.255-.426 3.33-.511-3.762-2.98-5.975-2.37-6.11-2.353 0 0-2.025.352-3.469 1.66-.527.477-.905 1.06-1.405 1.743 0 0-.258.454-.938.413-.986-.06-2.004-.745-2.004-.745-.237-.172-.144-.547-.033-.744.073-.115.184-.314.184-.314-.064-.183-.122-.369-.174-.556-.081-.33-.066-.411-.066-.411s.575.32.883.32c.088 0 .13-.015.13-.015.46-.137.887-1.04.905-1.138.388-1.274-.078-2.168-.469-2.443-.49-.335-1.099-.068-1.335.165-.271.26-.517.776-.642 1.185 0 0-.105.346-.059.706.045.328.35.87.439 1.147 0 0-.713.013-1.152-.418 0 0-.07.12-.392.176-.877.15-1.5-.479-1.807-.843-.214-.247-.373-.661-.546-.94-.081-.131-.277-.283-.277-.283-.436-.4-.2-.97.012-1.31.603-.936 1.788-1.987 1.788-1.987.09-.088.047-.219.047-.219-.214-.458.163-.882.163-.882C14.755 1.28 21.805.97 21.805.97c13.6-.798 33.08 7.68 33.08 7.68C64.956 12.597 71.808 16 71.808 16c5.972 2.91 17.718 9.57 21.37 11.134 0 0 1.895.808 4.268.112 1.106-.323 1.85-1.063 2.502-1.198 0 0 1.378-.358 1.879.745.178.394.127 1.047-.344 1.782-1.819 3.15-6.52 2.832-8.603 2.342zM16.65 7.47c.25.174.464.456.62.807-.366-1.227-1.158-1.197-1.325-1.177 0 0-.253.015-.413.132.39-.07.791.016 1.118.238zm-3.996-1.698c-.01.013-.024.024-.038.036-.012.01-1.03.868-1.81 2.007 0 0 1.545-1.636 2.138-1.885-.094-.053-.178-.122-.248-.204l-.042.046zm42.009 3.426l-.011-.003-.013-.003c-.188-.085-19.5-8.41-32.798-7.63-.032 0-1.217.062-2.738.34.952-.093 2.268-.152 3.97-.075l.952.04s-.302.56-.392.724c.784-.374 1.797-.701 2.955-.701h.013c.282.008 6.033.177 10.837 3.543l-.677-1.086 1.226.14c.013 0 .32.035 1.126.165.211.027 3.187.437 9.992 2.763.045.014 5.235 1.705 8.058 2.816.003 0 1.756.69 2.097.823-1.442-.596-2.98-1.219-4.597-1.856zm46.213 17.942c-.61-.6-2.005.462-2.774.75 0 0-2.368.926-5.786-.596 0 0-12.345-6.375-13.564-7.032-6.825-3.684-17.532-7.792-21.804-9.478-2.844-1.118-8.039-2.808-8.039-2.808-6.935-2.371-9.887-2.736-9.887-2.736-.807-.13-1.102-.164-1.102-.164l.325.522c.773 1.255.989 2.14.989 2.14-4.913-5.09-12.646-5.254-12.646-5.254-2.479 0-4.263 1.66-4.263 1.66-.185.233.192.314.192.314 3.02.906 4.799 4.405 4.799 4.405-3.72-2.96-5.914-3.348-5.914-3.348-2.426-.352-2.445-1.337-2.445-1.337 2.236.488 3.59-.83 3.93-1.469l.16-.292c-3.858-.173-5.664.365-5.664.365-3.66.84-4.22 1.813-4.37 2.041-.167.248-.191 1.059.762.844 0 .002.383-1.312 1.509-1.508 0 0 .558-.074 1.703-.06 0 0-.802 1.75-2.499 2.033 0 0-.615.089-.802.112-.18.023-1.517.254-2.204 1.841 0 0-.37.71.14 1.252.02.022.043.05.07.076 0 0 .423.51.982.53.05.001.202.004.286-.01.19-.036.555-.208.913-.977 0 0 .585-1.29.86-1.712 0 0 .323-.655 1.127-.732 0 0 1.65-.266 2.089 2.02.213 1.14.006 2-1.73 3.758 0 0-.251.24-.56.483 0 0-.102.079-.123.204-.01.059.007.148.069.181 0 0 .8.405 1.168.354.365-.054.28-.096 1.922-2.16 0 0 2.357-.637 2.377-2.651-.008-.274-.028-.548-.062-.82-.056-.42-.205-1.095-.6-1.626 0 0 1.103.038 2.22 1.924.027.047.056.092.084.142 0 0 .374.964 1.175 1.066 0 0 1.91.255 4.329 1.718.561.337 2.034 1.297 2.127 1.33-.329-.908-.534-1.982-.16-3.257l.002.008c.023.072.038 3.936 6.775 5.902-3.174-.306-4.502-1.49-6.622-1.78-.81-.11-1.876-.02-3.154.1-2.922.265-4.515 1.131-6.08 3.837-1.122 1.94.886 3.124.886 3.124.246-.09.536-.196.842-.344-.512-.069-2.131-1.035-.585-3.226 0 0-.979 2.257 1.478 2.695.466-.283 1.39-1.19 1.405-1.968.337-.53.981-1.412 2.846-.858 7.939 2.18 8.605 2.368 9.171 2.478 5.303 1.062 5.802-1.572 5.802-1.572.722-2.472-2.32-6.247-2.32-6.247 4.889 3.862 11.861 3.825 11.861 3.825-4.284.862-8.796-.648-9.504-.871 0 0 1.284 1.87.858 3.691 0 0 3.124 2.275 12.3.98 2.13-.301 2.915.059 2.915.059.111-1.066-1.78-2.679-1.78-2.679 1.925.803 3.827 3.248 4.184 3.718.23.29.472.646.741 1.09.77 1.274 3.696 7.385 10.661 6.864l3.577-.184s4.873-.42 7.046 1.07c1.43.98 1.526 1.153 2.369 1.843 1.108.91 3.085 3.37 5.101 3.482.595.031 1.165-.174 1.747-.655-1.928.555-3.055-.617-3.207-.765 2.153.57 3.05.381 3.773-.336.046-.664-.867-1.351-1.426-1.633-1.608-.802-2.203-1.622-3.016-2.423-.682-.678-1.79-2.222-2.438-2.76-.7-.584-1.65-1.265-3.779-1.231-2.163.03-4.684.054-5.432-.07-.78-.128-1.23-.236-1.95-.81-.58-.46-.963-.981-1.303-1.571-.34-.586-.654-1.387-1.278-2.488-.432-.76-1.195-1.36-1.195-1.36.995.625 1.514.919 2.246 1.985 1.519 2.228 2.661 2.864 3.608 3.177 1.417.466 5.184.568 6.727.773 1.481.197 2.372 1.078 2.734 1.454.823.84 1.714 1.692 2.439 2.441 2.297 2.377 4.919 2.642 4.923 2.642 1.353.218 3.698.088 4.821-.41 1.07-.47 1.95-1.285 2.128-1.897.152-.408.11-.827-.206-1.138zM21.717 4.507l-.001-.015c-.295.132-.604.231-.92.296.203.05.424.098.694.14h.018c.064.011 1.05.202 2.766 1.152-.564-.45-1.208-.836-1.926-1.053-.154-.041-.5-.165-.631-.52zm-7.575 1.131c.138-.004.476-.082.476-.082.866-.15 1.086-.85 1.086-.85-.45 0-.741.017-.741.017-.504.052-.707.602-.728.653l-.093.262zM21 2.902c.202 0 .744.006 1.083.008.022 0-.147.106-.408.227-.366.169-.917.368-1.405.36l-.312-.007c-.188-.008-.309-.02-.306-.048.005-.046.467-.54 1.348-.54zM13.425 39.4v4.06c0 1.312-.304 2.109-.935 2.747-1.1 1.115-3.209 1.517-6.193 1.517H.003v-1.117h5.794c1.778 0 2.978-.292 3.703-1.001.549-.536.796-1.284.796-2.396V39.4h3.129zm11.805 0l7.299 8.324h-3.51l-1.542-1.772h-9.273l-1.537 1.772h-1.814l7.293-8.324h3.084zm1.312 5.475l-3.708-4.263-3.697 4.263h7.405zM40.154 39.4h8.793v1.111H41.13c-1.675 0-2.589.25-3.284.81-.619.498-.947 1.243-.947 2.24-.001 1.032.346 1.793 1.007 2.291.697.526 1.637.76 3.25.76h4.996v-2.71h3.115v3.822h-9.057c-1.698 0-3.036-.196-4.046-.598-1.683-.673-2.452-1.9-2.452-3.58 0-1.585.838-2.685 1.904-3.277 1.134-.628 2.411-.87 4.54-.87zm15.695 4.03c0 1.082.137 1.718.537 2.275.678.945 1.846 1.286 3.948 1.286h.266c2.197 0 3.27-.34 3.947-1.286.4-.56.538-1.222.538-2.271V39.4h3.13v4.148c0 1.074-.119 1.923-.665 2.632-.89 1.155-2.52 1.82-7.068 1.82h-.047c-4.524 0-6.163-.666-7.05-1.818-.547-.71-.666-1.56-.666-2.633V39.4h3.13v4.03zm24.122-4.03l7.299 8.324h-3.51l-1.542-1.772h-9.273l-1.536 1.772h-1.815l7.292-8.324h3.085zm1.312 5.475l-3.709-4.263-3.696 4.263h7.405z"/>
</svg>
