<svg xmlns="http://www.w3.org/2000/svg" width="89" height="48" viewBox="0 0 89 48">
    <path fill="#171717" fill-rule="evenodd" d="M75.2 41.035c-9.173 4.828-20.471 6.704-30.716 6.704-10.248 0-21.541-1.881-30.718-6.704C7.49 37.732.706 32.095.706 24.225c0-7.87 6.785-13.505 13.06-16.805C22.943 2.59 34.236.71 44.484.71 54.729.71 66.025 2.59 75.2 7.42c6.278 3.3 13.063 8.934 13.063 16.806 0 7.869-6.785 13.506-13.063 16.809zm-1.103-31.44c-7.882-4.149-18.393-6.43-29.608-6.43-11.211 0-21.732 2.281-29.618 6.43-7.58 3.99-11.758 9.182-11.758 14.63 0 5.446 4.179 10.643 11.758 14.633.492.258.995.51 1.507.754l.002.002c7.693 3.666 17.592 5.675 28.104 5.675 11.214 0 21.731-2.284 29.613-6.431 6.635-3.49 10.662-7.906 11.567-12.603.08-.42.135-.842.166-1.268.005-.084.012-.168.015-.253.007-.169.012-.338.012-.508 0-5.449-4.177-10.641-11.76-14.631zM44.484 43.822c-9.609 0-20.324-1.735-28.935-6.264-.31-.162-.616-.329-.92-.501-.156-.088-.314-.177-.469-.269-.143-.083-.286-.167-.428-.253-.14-.084-.278-.169-.417-.255l-.416-.263h-.002c-4.165-2.68-8.321-6.69-8.321-11.78 0-6.187 6.137-10.773 10.973-13.317 8.611-4.53 19.324-6.268 28.935-6.268 9.609 0 20.325 1.733 28.938 6.268 3.903 2.054 8.658 5.439 10.346 9.923.055.147.105.292.153.441.05.154.097.31.139.469l.062.236c.112.459.19.926.23 1.397.028.283.041.567.041.852 0 6.185-6.136 10.774-10.971 13.32-8.613 4.53-19.33 6.264-28.938 6.264zm0-38.191c-21.51 0-39.062 8.868-39.062 18.607 0 9.697 17.552 18.605 39.062 18.605 21.51 0 39.06-8.908 39.06-18.605 0-9.74-17.55-18.607-39.06-18.607zM70.19 30.706c-.392.36-.788.587-1.573.719l1.353 3.745h-2.879l-1.081-3.663h-.97l-1.226 3.663h-2.868l3.138-9.228c.166-.488.176-.717-.016-.907l-.182-.18.09-.275h4.49c1.598 0 2.44.455 2.84 1.063.29.442.564 1.304.11 2.812-.307 1.041-.682 1.748-1.226 2.251zm-1.972-3.71h-1.657l-.74 2.19h1.37c.35 0 .714-.023.891-.096.254-.107.453-.215.631-.669.123-.322.21-.67.206-.863-.003-.299-.208-.561-.7-.561zm-7.981-6.193l.335-.904 5.446-1.882h-4.794l.9-2.52h6.921l-.959 2.679-7.85 2.627zm-7.08 1.485h-4.582l3.104-9.228c.167-.488.174-.716-.018-.907l-.179-.18.088-.275h4.161c2.397 0 3.537 1.173 3.57 2.968.033 1.759-1.011 4.955-2.151 6.185-.909.995-2.03 1.437-3.992 1.437zm2.153-8.077h-1.115l-1.88 5.551h.925c.987 0 1.419-.156 1.74-.503.404-.44.687-1.038 1.043-2.08.4-1.162.507-1.7.502-2.095-.013-.61-.441-.873-1.215-.873zm-11.08 8.072l-1.332-6.853-2.273 6.853h-2.608l3.099-9.223c.166-.488.174-.716-.02-.907l-.178-.18.09-.275h3.678l1.084 5.755 1.9-5.755 2.726-.003-3.556 10.588h-2.61zm-9.68-2.34h-3.124l-1.308 2.34h-3.021L32 13.923c.798-1.293.887-1.603.672-1.82l-.132-.13.088-.275h4.1l.595 10.585h-2.741l-.031-2.34zm-.091-5.318h-.095l-1.772 3.199h1.916l-.049-3.199zm-8.13 7.662l-7.098.001 3.104-9.228c.168-.488.174-.716-.017-.907l-.179-.18.086-.275h3.561l-2.724 8.064h4.124l-.857 2.525zm-3.886 4.561l-5.445 1.88h4.793l-.9 2.524h-6.92l.96-2.68 7.85-2.627-.338.903zm3.182-1.813l-.18-.18.091-.275h4.488c1.598 0 2.442.455 2.84 1.063.292.442.566 1.304.112 2.812-.31 1.041-.682 1.748-1.226 2.251-.392.36-.788.587-1.573.719l1.35 3.745H28.65l-1.08-3.663-.97-.003-1.225 3.666h-2.868l3.136-9.228c.167-.488.176-.717-.018-.907zm3.119 4.15c.356 0 .72-.022.896-.095.257-.107.455-.215.633-.669.123-.322.21-.67.207-.863-.005-.299-.21-.561-.704-.561H28.12l-.744 2.188h1.368zm10.914-4.737h.33c2.397 0 3.537 1.246 3.558 3.04.022 1.758-1.03 5.085-2.17 6.317-.922.994-2.042 1.53-4.002 1.53h-.354c-2.397 0-3.537-1.241-3.559-3.037-.021-1.76 1.056-5.086 2.196-6.319.92-.993 2.038-1.53 4.001-1.53zm-2.298 8.366c.988 0 1.418-.255 1.74-.601.416-.441.696-1.111 1.051-2.152.414-1.162.52-1.76.514-2.156 0-.609-.431-.934-1.207-.934-.987 0-1.417.252-1.738.6-.414.442-.695 1.112-1.053 2.154-.412 1.16-.52 1.758-.513 2.154 0 .61.43.935 1.206.935zm10.046-8.234l.19 7.61h.082l3.804-7.61h2.962L48.72 35.17h-3.548l-.432-9.239c-.035-.527-.106-.72-.37-.909l-.273-.167.123-.275h3.186zm7.995.483l-.181-.18.104-.31H62.8l-.87 2.444h-3.96l-.567 1.691h3.654l-.792 2.214h-3.61l-.599 1.782h4.078l-.846 2.464h-6.984l3.113-9.195c.167-.491.176-.72-.016-.91z"/>
</svg>
