<svg xmlns="http://www.w3.org/2000/svg" width="92" height="81" viewBox="0 0 92 81">
    <g fill="none" fill-rule="evenodd" stroke="#2387FD">
        <path d="M25.906 0c-2.425.005-4.799 1.371-6.02 3.455L.902 36.188c-1.201 2.09-1.201 4.821 0 6.91l18.986 32.734c1.22 2.084 3.594 3.45 6.019 3.455h37.97c2.425-.005 4.798-1.371 6.019-3.455L88.88 43.099c1.202-2.09 1.202-4.821 0-6.91L69.895 3.454C68.675 1.371 66.301.005 63.876 0h-37.97z" transform="translate(1 1)"/>
        <path d="M26.41 19.15h6.549c.29.005.57.171.716.421l11.11 19.65c.056.098.155.098.211 0l11.084-19.65c.149-.257.443-.424.742-.422h6.55c.58.005 1.013.73.742 1.24L53.269 39.643l10.845 19.229c.297.512-.148 1.27-.743 1.266h-6.55c-.303-.003-.6-.182-.741-.449L44.996 40.04c-.056-.097-.155-.097-.211 0l-11.11 19.65c-.139.26-.421.437-.716.449h-6.55c-.595.005-1.04-.754-.742-1.266l10.845-19.229L25.667 20.39c-.26-.465.057-1.14.583-1.24.052-.005.107-.005.16 0z" transform="translate(1 1)"/>
    </g>
</svg>
