<svg xmlns="http://www.w3.org/2000/svg" width="61" height="61" viewBox="0 0 61 61">
    <g fill="none" fill-rule="evenodd" stroke-linejoin="round">
        <path stroke="#323232" d="M37.19 47.005c0 .943-1.567 2.268-2.583 2.583-.108.417.16 1.197.513 2.321.971 3.094-1.176 5.544-4.005 5.544-2.028 0-13.256-3.347-14.942-5.659l-4.434-6.727M19.776 53.941L18.378 59.999M38.06 30c1.671 2.263 3.998 5.36 3.998 6.84 0 2.129-2.58 2.296-4.4 2.564.397 2.132 2.067 3.154 1.71 3.776-.355.624-5.908 1.482-9.197 1.482M11.74 0C17 0 22.007 1.467 25.344 2.842c9.39 3.869 12.605 13.392 12.507 18.518" transform="translate(1 1)"/>
        <path stroke="#3F7FE7" d="M6.522 27.391h18.26C26.25 30 30 32.61 33.914 32.61c3.913 0 6.522-5.978 6.522-7.826 0-.707.045-1.305 0-2.61H7.826C2.174 22.174 0 25.218 0 30v2.609M44.15 30.135L58.709 40.435 58.709 10.68 43.03 22.124" transform="translate(1 1)"/>
    </g>
</svg>
