<svg xmlns="http://www.w3.org/2000/svg" width="91" height="80" viewBox="0 0 91 80">
    <g fill="none" fill-rule="evenodd">
        <path stroke="#2387FD" d="M86.924 65.617H1.932C.865 65.617 0 64.752 0 63.687V1.93C0 .865.865 0 1.932 0h84.992c1.067 0 1.932.865 1.932 1.93v61.757c0 1.065-.865 1.93-1.932 1.93z" transform="translate(1 1)"/>
        <path stroke="#1476F2" stroke-linejoin="round" d="M54.681 69.718L54.681 77.92M36.909 77.92L36.909 69.718M61.516 77.92L28.707 77.92M0 54.681L88.856 54.681M42.377 60.149L47.845 60.149M5.468 8.202L20.505 8.202M13.67 15.037L19.138 15.037M21.872 15.037L45.111 15.037M13.67 23.239L31.441 23.239M32.808 23.239L41.01 23.239M13.67 38.276L19.138 38.276M21.872 38.276L58.782 38.276M13.67 46.478L31.441 46.478M32.808 46.478L41.01 46.478M5.468 31.441L23.239 31.441" transform="translate(1 1)"/>
    </g>
</svg>
