<svg xmlns="http://www.w3.org/2000/svg" width="45" height="44" viewBox="0 0 45 44">
    <g fill="none" fill-rule="evenodd" stroke="#3681EE" stroke-width="1.515">
        <path d="M26.107 38.8a3.773 3.773 0 0 1-3.766 3.78 3.773 3.773 0 0 1-3.766-3.78 3.773 3.773 0 0 1 3.766-3.78 3.773 3.773 0 0 1 3.766 3.78zM26.107 19.48a3.773 3.773 0 0 1-3.766 3.78 3.773 3.773 0 0 1-3.766-3.78 3.773 3.773 0 0 1 3.766-3.78 3.773 3.773 0 0 1 3.766 3.78zM22.76 32.5v-9.24M28.618 26.2a3.773 3.773 0 0 0 3.766 3.78 3.773 3.773 0 0 0 3.766-3.78 3.773 3.773 0 0 0-3.766-3.78 3.773 3.773 0 0 0-3.766 3.78zM26.944 34.18l3.348-5.04M16.064 26.2a3.773 3.773 0 0 1-3.766 3.78 3.773 3.773 0 0 1-3.766-3.78 3.773 3.773 0 0 1 3.766-3.78 3.773 3.773 0 0 1 3.766 3.78zM17.738 34.18l-3.348-5.04M18.575 5.2a3.773 3.773 0 0 1-3.766 3.78 3.773 3.773 0 0 1-3.766-3.78 3.773 3.773 0 0 1 3.766-3.78 3.773 3.773 0 0 1 3.766 3.78zM19.412 14.02l-2.51-5.04M26.107 5.2a3.773 3.773 0 0 0 3.766 3.78A3.773 3.773 0 0 0 33.64 5.2a3.773 3.773 0 0 0-3.766-3.78 3.773 3.773 0 0 0-3.766 3.78zM36.15 20.74l1.674-2.52M43.682 14.44a3.773 3.773 0 0 1-3.766 3.78 3.773 3.773 0 0 1-3.766-3.78 3.773 3.773 0 0 1 3.766-3.78 3.773 3.773 0 0 1 3.766 3.78zM8.532 20.74l-1.674-2.52M1 14.44a3.773 3.773 0 0 0 3.766 3.78 3.773 3.773 0 0 0 3.766-3.78 3.773 3.773 0 0 0-3.766-3.78A3.773 3.773 0 0 0 1 14.44zM25.27 14.02l2.511-5.04"/>
    </g>
</svg>
