<svg xmlns="http://www.w3.org/2000/svg" width="42" height="39" viewBox="0 0 42 39">
    <g fill="none" fill-rule="evenodd" stroke="#3F86EE" stroke-width="1.449">
        <path d="M13.443 10.723c1.526 0 2.668-.851 2.668-2.653v-.884c0-1.802-1.14-2.651-2.667-2.651-1.526 0-2.667.85-2.667 2.651v.884c0 1.802 1.14 2.653 2.666 2.653zM17 27.512V16.907h5.333c1.778 0 2.667-2.489 2.667-3.535H10.778c-2.454 0-4.445 1.979-4.445 4.419v1.764c0 1.896 1.65 2.652 3.556 2.652M13.444 23.093v4.419M9.889 17.79v9.722M7.222 33.698V31.93c0-.976.796-1.767 1.778-1.767h3.556c.982 0 1.777.79 1.777 1.767v1.768M17.889 33.698V31.93c0-.976.795-1.767 1.778-1.767h3.555c.982 0 1.778.79 1.778 1.767v1.768M28.556 33.698V31.93c0-.976.795-1.767 1.777-1.767h3.556c.982 0 1.778.79 1.778 1.767v1.768M1.889 39v-1.767c0-.977.795-1.768 1.778-1.768h3.555c.982 0 1.778.791 1.778 1.768V39M12.556 39v-1.767c0-.977.795-1.768 1.777-1.768h3.556c.982 0 1.778.791 1.778 1.768V39M23.222 39v-1.767c0-.977.796-1.768 1.778-1.768h3.556c.982 0 1.777.791 1.777 1.768V39M33.889 39v-1.767c0-.977.795-1.768 1.778-1.768h3.555c.982 0 1.778.791 1.778 1.768V39"/>
        <path d="M4.496 31.047H1V1h39.333v30.047h-2.622"/>
    </g>
</svg>
