<svg xmlns="http://www.w3.org/2000/svg" width="45" height="41" viewBox="0 0 45 41">
    <g fill="none" fill-rule="evenodd" stroke="#3681EE" stroke-width="1.515">
        <path d="M33.476 26.684h3.711c3.587 0 6.495-2.932 6.495-6.55 0-3.617-2.908-6.55-6.495-6.55-.69 0-1.353.11-1.976.311.077-.404.12-.82.12-1.247 0-3.617-2.908-6.55-6.495-6.55a6.432 6.432 0 0 0-4.242 1.598C23.329 4.045 19.892 1.42 15.84 1.42c-5.124 0-9.28 4.19-9.28 9.359 0 .987.154 1.936.435 2.83C3.643 13.868 1 16.687 1 20.135c0 3.616 2.908 6.55 6.495 6.55h2.784"/>
        <path d="M7.695 13.563a8.4 8.4 0 0 1 .534-.016c1.34 0 2.591.309 3.65.842M24.852 8.579c.251.804.421 1.65.499 2.526M35.313 14.053a4.535 4.535 0 0 1-.837 1.684"/>
        <g>
            <path d="M28.379 39.316h-13.75c-1.518 0-2.75-1.293-2.75-2.887v-.963c0-1.595 1.232-2.887 2.75-2.887h13.75c1.519 0 2.75 1.292 2.75 2.887v.963c0 1.594-1.231 2.887-2.75 2.887zM28.379 32.579h-13.75c-1.518 0-2.75-1.293-2.75-2.887v-.963c0-1.594 1.232-2.887 2.75-2.887h13.75c1.519 0 2.75 1.293 2.75 2.887v.963c0 1.594-1.231 2.887-2.75 2.887zM28.379 25.842h-13.75c-1.518 0-2.75-1.292-2.75-2.887v-.963c0-1.594 1.232-2.887 2.75-2.887h13.75c1.519 0 2.75 1.293 2.75 2.887v.963c0 1.595-1.231 2.887-2.75 2.887z"/>
        </g>
    </g>
</svg>
