<svg xmlns="http://www.w3.org/2000/svg" width="45" height="45" viewBox="0 0 45 45">
    <g fill="none" fill-rule="evenodd" stroke="#3681EE" stroke-width="1.515">
        <path d="M24.433 6.858V1.837h-7.81V6.38c-1.43.38-2.779.958-4.019 1.712L9.481 4.879 3.957 10.56l3.124 3.213a16.223 16.223 0 0 0-1.664 4.132H1v8.035h4.417c.37 1.47.932 2.857 1.664 4.132l-3.124 3.213 5.524 5.681 3.123-3.212a15.289 15.289 0 0 0 4.018 1.711v4.543h7.811v-5.021M26.944 11.043h.976l4.882-5.022"/>
        <path d="M32.802 39.498L26.908 33.4h-5.895c-5.968 0-10.807-5.005-10.807-11.178 0-6.174 4.839-11.18 10.807-11.18"/>
        <path d="M21.999 26.944h-.99c-2.73 0-4.945-2.275-4.945-5.081 0-2.806 2.215-5.081 4.946-5.081h7.912l3.956-4.065h4.946M37.824 31.966h-4.017l-5.022-5.022h-1.004M37.824 3.93a2.929 2.929 0 1 1-5.858 0 2.929 2.929 0 0 1 5.858 0zM43.682 13.135a2.929 2.929 0 1 1-5.858 0 2.929 2.929 0 0 1 5.858 0zM43.682 21.504a2.929 2.929 0 1 1-5.858 0 2.929 2.929 0 0 1 5.858 0z"/>
        <path d="M43.682 31.547a2.929 2.929 0 1 1-5.858 0 2.929 2.929 0 0 1 5.858 0zM37.824 40.753a2.929 2.929 0 1 1-5.858 0 2.929 2.929 0 0 1 5.858 0zM27.781 21.923h9.206M20.249 21.923h1.674M23.596 21.923h1.674M23.596 26.944h1.674M22.76 11.043h1.673"/>
    </g>
</svg>
