<svg xmlns="http://www.w3.org/2000/svg" width="41" height="32" viewBox="0 0 41 32">
    <g fill="none" fill-rule="evenodd" stroke="#3F86EE" stroke-width="1.449">
        <path d="M17.866 11.261l-2.347-2.168-5.958 5.143 1.702 1.714c-.452 1.393-.106 2.393.851 3.429l6.809 6.857c1.543 1.339 3.067 1.339 4.255 0 1.365-.036 2.288-.822 2.553-1.714 1.454-.25 2.11-.93 2.554-1.714 1.613-.733 1.808-2.358.85-3.429M23.178 26.236l-2.553-2.572M25.731 24.521l-2.553-2.571M28.285 22.807l-2.554-2.571"/>
        <path d="M28.285 10.807h-1.703c-1.409 0-3.597-.728-4.14-.863-.541-.136-5.952 1.594-6.353 2.25-.402.657 1.298 2.437 2.838 2.24 1.538-.197 3.815-.954 4.48-.283 0 0 4.24 3.904 5.729 5.228.308-.07.591-.173.85-.298a4.18 4.18 0 0 0 .852-.55c1.261-1.047 1.702-2.581 1.702-2.581l-4.255-5.143zM12.114 19.379l-.933.939c-.59.594-.44 1.835.082 2.49 1.09 1.365 2.334 3.294 4.302 4.285.718.36 1.94.57 2.507 0l.85-.857M3.71 25.221c-.893-.398-1.567-1.316-2.375-2.9 2.172-1.375 4.55-.557 6.095 2.38M10.527 29.048c-1.53 1.582-3.805 2.656-6.671-.589 1.894-1.957 4.511-1.855 6.671.59zM2.852 18.79c-.947-.71-1.659-2.032-1.802-4.358 2.616-.188 4.563 1.706 4.77 5.08M3.459 12.155c-.64-1.04-.852-2.553-.189-4.776 2.494.87 3.657 3.408 2.697 6.625M6.382 5.835c-.175-1.21.229-2.683 1.716-4.456 1.944 1.799 2.007 4.592-.147 7.16M30.722 29.048c1.532 1.582 3.806 2.656 6.672-.589-1.895-1.957-4.512-1.855-6.672.59zM37.54 25.221c.893-.398 1.566-1.316 2.375-2.9-2.172-1.375-4.55-.557-6.095 2.38M38.398 18.79c.947-.71 1.659-2.032 1.802-4.358-2.616-.188-4.563 1.706-4.77 5.08M37.791 12.155c.64-1.04.852-2.553.188-4.776-2.493.87-3.656 3.408-2.696 6.625M34.982 5.846c.183-1.226-.237-2.717-1.777-4.513-2.014 1.822-2.08 4.651.151 7.251"/>
    </g>
</svg>
