<?xml version="1.0" encoding="utf-8"?>
<!-- Generator: Avocode 2.5.4 - http://avocode.com -->
<svg height="42" width="36" xmlns:xlink="http://www.w3.org/1999/xlink" xmlns="http://www.w3.org/2000/svg" viewBox="0 0 36 42">
    <path fill="#ba9444" fill-rule="evenodd" d="M 21.74 40.94 C 22.6 41.33 23.49 41.74 24.88 41.74 C 28.04 41.7 30.44 38.71 32.38 35.78 C 33.57 33.96 34.04 33.02 34.96 30.99 C 34.96 30.99 34.96 30.99 34.96 30.99 C 35.05 30.78 35.06 30.55 34.97 30.33 C 34.88 30.12 34.71 29.96 34.49 29.88 C 31.64 28.8 29.73 26.24 29.51 23.17 C 29.3 20.17 30.78 17.5 33.47 16.04 C 33.69 15.92 33.84 15.72 33.89 15.48 C 33.94 15.24 33.88 14.99 33.72 14.8 C 31.59 12.16 28.56 10.58 25.61 10.58 C 23.55 10.58 22.15 11.11 20.91 11.57 C 19.95 11.93 19.14 12.24 18.2 12.24 C 17.16 12.24 16.23 11.91 15.15 11.53 C 13.89 11.08 12.49 10.59 10.76 10.59 C 7.41 10.59 4.02 12.6 1.91 15.83 C -1.31 20.75 -0.37 29.27 4.14 36.09 C 5.87 38.7 8.28 41.71 11.51 41.74 C 11.51 41.74 11.58 41.74 11.58 41.74 C 12.92 41.74 13.82 41.34 14.69 40.95 C 15.67 40.52 16.58 40.12 18.28 40.11 C 19.91 40.11 20.8 40.51 21.74 40.94 Z M 11.31 40.08 C 8.96 39.91 7 37.38 5.54 35.18 C 0.87 28.12 0.91 20.4 3.31 16.73 C 5.12 13.96 7.97 12.24 10.76 12.24 C 12.2 12.24 13.34 12.65 14.56 13.08 C 15.7 13.48 16.86 13.89 18.2 13.89 C 19.44 13.89 20.47 13.51 21.47 13.14 C 22.66 12.69 23.85 12.24 25.62 12.24 C 27.69 12.24 29.86 13.22 31.59 14.93 C 31.59 14.93 31.79 15.12 31.79 15.12 C 31.79 15.12 31.57 15.28 31.57 15.28 C 28.97 17.16 27.62 20.08 27.85 23.29 C 27.85 23.29 27.85 23.29 27.85 23.29 C 28.08 26.61 29.97 29.48 32.88 30.98 C 32.88 30.98 33.09 31.08 33.09 31.08 C 33.09 31.08 32.99 31.29 32.99 31.29 C 32.33 32.71 31.86 33.55 30.98 34.88 C 29.38 37.29 27.24 40.06 24.83 40.08 C 23.86 40.08 23.21 39.78 22.45 39.44 C 21.49 39 20.29 38.46 18.23 38.46 C 16.21 38.47 14.99 39.01 14.01 39.44 C 13.27 39.77 12.66 40.04 11.81 40.08 M 18.26 3.56 C 16.54 5.64 15.75 8.17 16.15 10.34 C 16.22 10.72 16.56 11.01 16.95 11.02 C 16.95 11.02 17.13 11.02 17.13 11.02 C 19.48 11.02 22.02 9.71 23.62 7.68 C 25.27 5.58 26.01 3.07 25.68 0.8 C 25.61 0.38 25.27 0.09 24.86 0.09 C 24.84 0.09 24.82 0.09 24.79 0.09 C 22.48 0.25 19.86 1.64 18.26 3.56 Z M 23.78 1.94 C 23.78 1.94 24.09 1.86 24.09 1.86 C 24.09 1.86 24.07 2.18 24.07 2.18 C 23.99 4.2 22.92 5.86 22.3 6.66 C 21.24 8.01 19.59 9.01 17.99 9.29 C 17.99 9.29 17.72 9.34 17.72 9.34 C 17.72 9.34 17.72 9.05 17.72 9.05 C 17.77 6.92 19.14 5.12 19.56 4.62 C 20.57 3.39 22.19 2.37 23.78 1.94 Z" />
</svg>