<?xml version="1.0" encoding="utf-8"?>
<!-- Generator: Avocode 2.5.4 - http://avocode.com -->
<svg height="42" width="42" xmlns:xlink="http://www.w3.org/1999/xlink" xmlns="http://www.w3.org/2000/svg" viewBox="0 0 42 42">
    <path fill="#ba9444" fill-rule="evenodd" d="M 37.8 37.63 C 37.8 37.63 21.35 41.78 21.35 41.78 C 21.35 41.78 4.9 37.63 4.9 37.63 C 4.9 37.63 0.78 0.24 0.78 0.24 C 0.78 0.24 41.92 0.24 41.92 0.24 C 41.92 0.24 37.8 37.63 37.8 37.63 Z M 6 36.64 C 6 36.64 21.22 40.46 21.22 40.46 C 21.22 40.46 21.27 40.47 21.27 40.47 C 21.27 40.47 36.62 36.64 36.62 36.64 C 36.62 36.64 40.49 1.48 40.49 1.48 C 40.49 1.48 2.13 1.48 2.13 1.48 C 2.13 1.48 6 36.64 6 36.64 Z M 15.11 14.08 C 15.11 14.08 15.26 16.19 15.26 16.19 C 15.26 16.19 33.76 16.19 33.76 16.19 C 33.76 16.19 32.51 32.22 32.51 32.22 C 32.51 32.22 21.27 35.94 21.27 35.94 C 21.27 35.94 10.03 32.22 10.03 32.22 C 10.03 32.22 9.36 23.75 9.36 23.75 C 9.36 23.75 15.7 23.75 15.7 23.75 C 15.7 23.75 15.87 27.47 15.87 27.47 C 15.87 27.47 21.27 29.58 21.27 29.58 C 21.27 29.58 26.69 27.46 26.69 27.46 C 26.69 27.46 27.24 22.47 27.24 22.47 C 27.24 22.47 9.37 22.47 9.37 22.47 C 9.37 22.47 8.2 6.95 8.2 6.95 C 8.2 6.95 34.5 6.95 34.5 6.95 C 34.5 6.95 34 14.08 34 14.08 C 34 14.08 15.11 14.08 15.11 14.08 Z M 9.53 8.2 C 9.53 8.2 10.52 21.23 10.52 21.23 C 10.52 21.23 28.62 21.23 28.62 21.23 C 28.62 21.23 27.84 28.34 27.84 28.34 C 27.84 28.34 21.27 30.92 21.27 30.92 C 21.27 30.92 14.68 28.33 14.68 28.33 C 14.68 28.33 14.52 24.99 14.52 24.99 C 14.52 24.99 10.7 24.99 10.7 24.99 C 10.7 24.99 11.19 31.3 11.19 31.3 C 11.19 31.3 21.27 34.64 21.27 34.64 C 21.27 34.64 31.34 31.3 31.34 31.3 C 31.34 31.3 32.42 17.44 32.42 17.44 C 32.42 17.44 14.12 17.44 14.12 17.44 C 14.12 17.44 13.78 12.83 13.78 12.83 C 13.78 12.83 32.85 12.83 32.85 12.83 C 32.85 12.83 33.18 8.2 33.18 8.2 C 33.18 8.2 9.53 8.2 9.53 8.2 Z" />
</svg>