<?xml version="1.0" encoding="UTF-8"?>
<svg width="120px" height="120px" viewBox="0 0 120 120" version="1.1" xmlns="http://www.w3.org/2000/svg" xmlns:xlink="http://www.w3.org/1999/xlink">
    <!-- Generator: Sketch 41.2 (35397) - http://www.bohemiancoding.com/sketch -->
    <title>begin_developing</title>
    <desc>Created with Sketch.</desc>
    <defs></defs>
    <g id="LP_Icons" stroke="none" stroke-width="1" fill="none" fill-rule="evenodd">
        <g id="begin_developing" fill="#FFFFFF">
            <path d="M3,14.45525 C3,9.34475 7.158,5.1875 12.26775,5.1875 L34.5,5.1875 C35.328,5.1875 36,4.5155 36,3.6875 C36,2.85875 35.328,2.1875 34.5,2.1875 L12.26775,2.1875 C5.5035,2.1875 0,7.691 0,14.45525 L0,21.6875 C0,22.5155 0.67125,23.1875 1.5,23.1875 C2.328,23.1875 3,22.5155 3,21.6875 L3,14.45525 Z M118.5,57.6875 C117.672,57.6875 117,58.3595 117,59.1875 L117,84.19925 C117,89.43125 112.743,93.6875 107.511,93.6875 L94.5,93.6875 C93.67125,93.6875 93,94.3595 93,95.1875 C93,96.0155 93.67125,96.6875 94.5,96.6875 L107.511,96.6875 C114.3975,96.6875 120,91.085 120,84.19925 L120,59.1875 C120,58.3595 119.328,57.6875 118.5,57.6875 Z M37.5,108.6875 L82.5,108.6875 L82.5,105.6875 L37.5,105.6875 L37.5,108.6875 Z M48.993,95.7725 L48.993,87.6875 L55.5,87.6875 L55.5,92.348 C55.5,94.74125 57.51825,96.6875 60,96.6875 C62.48175,96.6875 64.5,94.74125 64.5,92.348 L64.5,87.6875 L70.884,87.6875 L70.884,95.7725 C70.884,98.183 71.4105,100.5335 72.41775,102.6875 L47.4585,102.6875 C48.46575,100.5335 48.993,98.18225 48.993,95.7725 Z M58.5,87.6875 L61.5,87.6875 L61.5,92.348 C61.5,93.074 60.813,93.6875 60,93.6875 C59.187,93.6875 58.5,93.074 58.5,92.348 L58.5,87.6875 Z M12,84.41975 L12,14.45525 C12,14.3075 12.12,14.1875 12.26775,14.1875 L107.73225,14.1875 C107.88,14.1875 108,14.3075 108,14.45525 L108,84.1985 C108,84.46775 107.78025,84.6875 107.511,84.6875 L12.26775,84.6875 C12.12,84.6875 12,84.5675 12,84.41975 Z M115.5,108.6875 L85.5,108.6875 L85.5,104.1875 C85.5,103.3595 84.828,102.6875 84,102.6875 L75.82425,102.6875 C74.55825,100.60325 73.884,98.22725 73.884,95.7725 L73.884,87.6875 L107.511,87.6875 C109.43475,87.6875 111,86.12225 111,84.1985 L111,14.45525 C111,12.65375 109.53375,11.1875 107.73225,11.1875 L12.26775,11.1875 C10.46625,11.1875 9,12.65375 9,14.45525 L9,84.41975 C9,86.22125 10.46625,87.6875 12.26775,87.6875 L45.993,87.6875 L45.993,95.7725 C45.993,98.2265 45.31875,100.6025 44.0535,102.6875 L36,102.6875 C35.17125,102.6875 34.5,103.3595 34.5,104.1875 L34.5,108.6875 L4.5,108.6875 C3.67125,108.6875 3,109.3595 3,110.1875 C3,111.0155 3.67125,111.6875 4.5,111.6875 L115.5,111.6875 C116.328,111.6875 117,111.0155 117,110.1875 C117,109.3595 116.328,108.6875 115.5,108.6875 Z M94.5,114.6875 L18,114.6875 C17.17125,114.6875 16.5,115.3595 16.5,116.1875 C16.5,117.0155 17.17125,117.6875 18,117.6875 L94.5,117.6875 C95.328,117.6875 96,117.0155 96,116.1875 C96,115.3595 95.328,114.6875 94.5,114.6875 Z M88.3125,95.1875 C88.3125,96.11825 89.06925,96.875 90,96.875 C90.93075,96.875 91.6875,96.11825 91.6875,95.1875 C91.6875,94.25675 90.93075,93.5 90,93.5 C89.06925,93.5 88.3125,94.25675 88.3125,95.1875 Z M40.5,5.375 C41.43075,5.375 42.1875,4.61825 42.1875,3.6875 C42.1875,2.75675 41.43075,2 40.5,2 C39.56925,2 38.8125,2.75675 38.8125,3.6875 C38.8125,4.61825 39.56925,5.375 40.5,5.375 Z M99,114.5 C98.06925,114.5 97.3125,115.25675 97.3125,116.1875 C97.3125,117.11825 98.06925,117.875 99,117.875 C99.93075,117.875 100.6875,117.11825 100.6875,116.1875 C100.6875,115.25675 99.93075,114.5 99,114.5 Z M18,78.6875 L102,78.6875 L102,20.1875 L18,20.1875 L18,78.6875 Z M103.5,17.1875 L16.5,17.1875 C15.67125,17.1875 15,17.85875 15,18.6875 L15,80.1875 C15,81.0155 15.67125,81.6875 16.5,81.6875 L103.5,81.6875 C104.328,81.6875 105,81.0155 105,80.1875 L105,18.6875 C105,17.85875 104.328,17.1875 103.5,17.1875 Z M53.3963482,55.6595846 C52.729201,55.6595846 52.18742,56.2008133 52.18742,56.8674083 C52.18742,57.5340032 52.729201,58.0757842 53.3963482,58.0757842 C54.0629432,58.0757842 54.6036196,57.5340032 54.6036196,56.8674083 C54.6036196,56.2008133 54.0629432,55.6595846 53.3963482,55.6595846 Z M70.1932154,40.5615128 L68.8302027,42.4939202 C67.7521635,44.0204061 66.6570038,44.7626626 65.4817643,44.7626626 C64.9223106,44.7626626 64.3926796,44.5886962 63.9072306,44.2462862 L61.7401067,42.717039 C61.0028206,42.1967967 59.527144,40.6471153 61.7483908,37.4974956 L63.0175169,35.697634 C61.3606943,35.9356642 59.8579562,36.8795008 58.8069785,38.368432 C57.6184844,40.0539728 57.3158381,42.2227536 57.9973445,44.1706247 C58.1359653,44.5671575 58.0862606,45.0062155 57.8620373,45.3618801 L51.1375468,56.0445198 C50.3627061,57.1452022 50.6128863,58.5893992 51.6539231,59.3250284 C52.6612713,60.0347008 54.1667707,59.7685046 54.8731294,58.7677838 L62.6093863,48.9384077 C62.8816574,48.5926841 63.3085654,48.4087768 63.7426529,48.4126427 L63.9657717,48.4170609 C66.0351431,48.4170609 67.9885369,47.3992196 69.1908378,45.6949014 C70.2721907,44.1617883 70.6090779,42.2984152 70.1932154,40.5615128 Z M71.6186351,37.0192262 C73.6951861,40.1644277 73.6278086,44.195477 71.4468779,47.2871079 C69.8060712,49.6127345 67.1827688,51.0442292 64.3678273,51.1690432 L57.0860921,60.4179791 C56.1798101,61.7053302 54.6295765,62.5077846 52.9815903,62.5077846 C51.9317171,62.5077846 50.9221598,62.1874656 50.0617167,61.5810685 C47.7764061,59.9667711 47.2296546,56.7961649 48.8411907,54.5125111 L55.188478,44.4263276 C54.4904034,41.8151752 54.9813751,39.0013382 56.5509384,36.7767778 C58.7092259,33.7171788 62.322756,32.2923114 65.8909995,33.111334 C66.3394461,33.2146093 66.7072608,33.534376 66.8718385,33.9634931 C67.0364162,34.3937147 66.975666,34.8769546 66.7105744,35.2530533 L64.0044309,39.0891498 C63.2942063,40.0959457 63.3328654,40.4957922 63.33397,40.4996581 L65.4994371,41.9896939 C65.4651961,42.0012916 65.867804,41.9024346 66.5736104,40.9011615 L69.3377427,36.9833283 C69.6006252,36.6110955 70.0556992,36.3841108 70.4870253,36.3990222 C70.9437561,36.4062018 71.3667981,36.638157 71.6186351,37.0192262 Z M90.143016,49.5784935 L78.545258,32.1813043 L76.2477974,33.7127606 L87.2623538,50.2345953 L75.3868019,63.9370702 L77.4732938,65.7457682 L90.0375317,51.2485707 C90.4445577,50.7785853 90.4876351,50.0948699 90.143016,49.5784935 Z M32.7374276,51.2010751 L44.6129795,64.90355 L42.5264876,66.7116957 L29.9622498,52.2144982 C29.5552237,51.7450652 29.5121463,51.0613497 29.8567654,50.5444211 L41.4545234,33.1477841 L43.751984,34.6797927 L32.7374276,51.2010751 Z" id="Combined-Shape"></path>
        </g>
    </g>
</svg>