<?xml version="1.0" encoding="UTF-8"?>
<svg width="120px" height="120px" viewBox="0 0 120 120" version="1.1" xmlns="http://www.w3.org/2000/svg" xmlns:xlink="http://www.w3.org/1999/xlink">
    <!-- Generator: Sketch 41.2 (35397) - http://www.bohemiancoding.com/sketch -->
    <title>contact_us</title>
    <desc>Created with Sketch.</desc>
    <defs></defs>
    <g id="LP_Icons" stroke="none" stroke-width="1" fill="none" fill-rule="evenodd">
        <g id="contact_us" fill="#FFFFFF">
            <path d="M48.344574,23.9393089 C47.8540557,23.5348464 47.2000313,23.440185 46.6406684,23.6553246 C46.3652897,23.749986 46.1157277,23.9220977 45.9177993,24.1630541 L43.8008257,26.7103069 L38.5256027,33.0440167 L35.9869555,30.5053694 L34.6866517,29.2059262 C34.0162767,28.5346907 32.9319732,28.5346907 32.2607376,29.2059262 C31.5808965,29.8857674 31.5808965,30.9700709 32.2607376,31.6413065 L37.424088,36.8046568 C37.7424946,37.131669 38.1813794,37.3123863 38.6374753,37.3123863 L38.7149256,37.3123863 C39.1968383,37.2865695 39.6529342,37.0628244 39.9627352,36.6927842 L47.2430592,27.9581166 L48.5683192,26.3660835 C49.17071,25.6346089 49.0760486,24.5503053 48.344574,23.9393089 Z M48.5683192,52.1725086 C49.17071,51.441034 49.0760486,50.3567304 48.344574,49.7457339 C47.8540557,49.3412715 47.2000313,49.2560762 46.6492739,49.4531441 C46.3738952,49.5564111 46.1243333,49.7285228 45.9177993,49.9694791 L43.8008257,52.516732 L38.5256027,58.8504417 L35.9869555,56.3117945 L34.6866517,55.0209569 C34.0162767,54.3411158 32.9319732,54.3411158 32.2607376,55.0209569 C31.5808965,55.6921924 31.5808965,56.776496 32.2607376,57.4477316 L37.424088,62.6110819 C37.7424946,62.9380941 38.1813794,63.1188114 38.6374753,63.1188114 L38.7149256,63.1188114 C39.1968383,63.0929946 39.6529342,62.8692494 39.9627352,62.4992093 L47.2430592,53.7645416 L48.5683192,52.1725086 Z M105.86946,3.40208283 C109.795328,4.25317508 112.645497,7.78834896 112.645497,11.8080172 L112.645497,29.0191851 C112.645497,29.9701021 113.415697,30.7403018 114.366614,30.7403018 C115.31667,30.7403018 116.087731,29.9701021 116.087731,29.0191851 L116.087731,11.8080172 C116.087731,6.17996532 112.096461,1.23003345 106.598353,0.038160077 C105.672392,-0.158907795 104.753316,0.426271912 104.551085,1.35567498 C104.350575,2.28507804 104.940918,3.20157273 105.86946,3.40208283 Z M14.43341,116.596492 C10.506682,115.74626 7.65737317,112.211086 7.65737317,108.190557 L7.65737317,61.720404 C7.65737317,60.7703475 6.88631285,59.9992872 5.93625638,59.9992872 C4.98533936,59.9992872 4.2151396,60.7703475 4.2151396,61.720404 L4.2151396,108.190557 C4.2151396,113.82033 8.20554886,118.769401 13.7036564,119.960414 C13.8275768,119.987092 13.9489156,120 14.0702543,120 C14.8628286,120 15.5762315,119.449243 15.7509249,118.642899 C15.951435,117.713496 15.3619525,116.797862 14.43341,116.596492 Z M76.5020446,63.4415208 C76.5020446,62.4914643 75.7309843,61.720404 74.7809278,61.720404 L54.1275264,61.720404 C53.1766093,61.720404 52.4064096,62.4914643 52.4064096,63.4415208 C52.4064096,64.3924378 53.1766093,65.1626376 54.1275264,65.1626376 L74.7809278,65.1626376 C75.7309843,65.1626376 76.5020446,64.3924378 76.5020446,63.4415208 Z M88.5498621,53.1148201 C88.5498621,52.1647636 87.7788017,51.3937033 86.8287453,51.3937033 L54.1275264,51.3937033 C53.1766093,51.3937033 52.4064096,52.1647636 52.4064096,53.1148201 C52.4064096,54.0657371 53.1766093,54.8359368 54.1275264,54.8359368 L86.8287453,54.8359368 C87.7788017,54.8359368 88.5498621,54.0657371 88.5498621,53.1148201 Z M76.5020446,89.2582725 C76.5020446,88.3082161 75.7309843,87.5371558 74.7809278,87.5371558 L54.1275264,87.5371558 C53.1766093,87.5371558 52.4064096,88.3082161 52.4064096,89.2582725 C52.4064096,90.2091896 53.1766093,90.9793893 54.1275264,90.9793893 L74.7809278,90.9793893 C75.7309843,90.9793893 76.5020446,90.2091896 76.5020446,89.2582725 Z M88.5498621,78.9315718 C88.5498621,77.9815154 87.7788017,77.210455 86.8287453,77.210455 L54.1275264,77.210455 C53.1766093,77.210455 52.4064096,77.9815154 52.4064096,78.9315718 C52.4064096,79.8824889 53.1766093,80.6526886 54.1275264,80.6526886 L86.8287453,80.6526886 C87.7788017,80.6526886 88.5498621,79.8824889 88.5498621,78.9315718 Z M54.1275264,39.3458858 L85.1076285,39.3458858 C86.057685,39.3458858 86.8287453,38.575686 86.8287453,37.624769 C86.8287453,36.6747125 86.057685,35.9036522 85.1076285,35.9036522 L54.1275264,35.9036522 C53.1766093,35.9036522 52.4064096,36.6747125 52.4064096,37.624769 C52.4064096,38.575686 53.1766093,39.3458858 54.1275264,39.3458858 Z M54.1275264,29.0191851 L85.1076285,29.0191851 C86.057685,29.0191851 86.8287453,28.2489853 86.8287453,27.2980683 C86.8287453,26.3480118 86.057685,25.5769515 85.1076285,25.5769515 L54.1275264,25.5769515 C53.1766093,25.5769515 52.4064096,26.3480118 52.4064096,27.2980683 C52.4064096,28.2489853 53.1766093,29.0191851 54.1275264,29.0191851 Z M101.681983,111.632791 L24.868541,111.632791 L24.868541,109.911674 L98.5151283,109.911674 C97.8008648,108.430357 97.3791912,107.05462 97.0435734,106.46944 L17.9840739,106.46944 L17.9840739,8.36578364 L95.4343292,8.36578364 L95.4343292,109.051116 L98.8765628,109.051116 L98.8765628,13.529134 L102.318796,13.529134 L102.318796,112.493349 C102.921187,112.493349 105.270512,113.363374 105.76103,113.818609 L105.76103,11.8080172 C105.76103,10.861403 104.986527,10.0869004 104.039913,10.0869004 L98.8765628,10.0869004 L98.8765628,6.64466686 C98.8765628,5.69461039 98.1055025,4.92355007 97.155446,4.92355007 L16.2629571,4.92355007 C15.3120401,4.92355007 14.5418403,5.69461039 14.5418403,6.64466686 L14.5418403,108.190557 C14.5418403,109.141474 15.3120401,109.911674 16.2629571,109.911674 L21.4263074,109.911674 L21.4263074,113.353908 C21.4263074,114.300522 22.20081,115.075024 23.1474242,115.075024 L105.304934,115.075024 C104.633698,114.532873 102.15529,112.166337 101.681983,111.632791 Z M5.93625638,58.49331 C7.00334879,58.49331 7.87251277,57.6250066 7.87251277,56.5570536 C7.87251277,55.4899612 7.00334879,54.6207972 5.93625638,54.6207972 C4.86830342,54.6207972 4,55.4899612 4,56.5570536 C4,57.6250066 4.86830342,58.49331 5.93625638,58.49331 Z M114.366614,32.246279 C113.298661,32.246279 112.430357,33.115443 112.430357,34.1825354 C112.430357,35.2504884 113.298661,36.1187918 114.366614,36.1187918 C115.433706,36.1187918 116.30287,35.2504884 116.30287,34.1825354 C116.30287,33.115443 115.433706,32.246279 114.366614,32.246279 Z M43.3705465,76.9720804 L30.4621706,76.9720804 C30.2246565,76.9720804 30.0318914,77.1648455 30.0318914,77.4023596 L30.0318914,90.3107355 C30.0318914,90.5482496 30.2246565,90.7410147 30.4621706,90.7410147 L43.3705465,90.7410147 C43.6072,90.7410147 43.8008257,90.5482496 43.8008257,90.3107355 L43.8008257,77.4023596 C43.8008257,77.1648455 43.6072,76.9720804 43.3705465,76.9720804 Z M43.3705465,73.5298468 C45.5055918,73.5298468 47.2430592,75.2673142 47.2430592,77.4023596 L47.2430592,90.3107355 C47.2430592,92.4466414 45.5055918,94.1832482 43.3705465,94.1832482 L30.4621706,94.1832482 C28.3262646,94.1832482 26.5896578,92.4466414 26.5896578,90.3107355 L26.5896578,77.4023596 C26.5896578,75.2673142 28.3262646,73.5298468 30.4621706,73.5298468 L43.3705465,73.5298468 Z M47.2430592,56.525213 L43.8008257,60.6558932 L43.8008257,64.4939837 C43.8008257,64.73494 43.6115028,64.9242629 43.3705465,64.9242629 L30.4621706,64.9242629 C30.2212142,64.9242629 30.0318914,64.73494 30.0318914,64.4939837 L30.0318914,51.5856078 C30.0318914,51.3446514 30.2212142,51.1553286 30.4621706,51.1553286 L42.75955,51.1553286 L44.601145,48.9522991 C44.8248901,48.685526 45.0830577,48.4617808 45.3756475,48.2810636 C44.7904678,47.919629 44.1020211,47.713095 43.3705465,47.713095 L30.4621706,47.713095 C28.3279858,47.713095 26.5896578,49.451423 26.5896578,51.5856078 L26.5896578,64.4939837 C26.5896578,66.6281685 28.3279858,68.3664964 30.4621706,68.3664964 L43.3705465,68.3664964 C45.5047313,68.3664964 47.2430592,66.6281685 47.2430592,64.4939837 L47.2430592,56.525213 Z M30.0318914,25.768856 L30.0318914,38.6772319 C30.0318914,38.9181883 30.2212142,39.1075111 30.4621706,39.1075111 L43.3705465,39.1075111 C43.6115028,39.1075111 43.8008257,38.9181883 43.8008257,38.6772319 L43.8008257,34.8219303 L47.2430592,30.69125 L47.2430592,38.6772319 C47.2430592,40.8114167 45.5047313,42.5497447 43.3705465,42.5497447 L30.4621706,42.5497447 C28.3279858,42.5497447 26.5896578,40.8114167 26.5896578,38.6772319 L26.5896578,25.768856 C26.5896578,23.6346712 28.3279858,21.8963432 30.4621706,21.8963432 L43.3705465,21.8963432 C44.1020211,21.8963432 44.7818622,22.1028773 45.3670419,22.4557062 C45.0830577,22.6364235 44.8248901,22.8515631 44.601145,23.1183362 L42.7509444,25.3385768 L30.4621706,25.3385768 C30.2212142,25.3385768 30.0318914,25.5278997 30.0318914,25.768856 L30.0318914,25.768856 Z" id="Fill-43"></path>
        </g>
    </g>
</svg>