<?xml version="1.0" encoding="UTF-8"?>
<svg width="120px" height="120px" viewBox="0 0 120 120" version="1.1" xmlns="http://www.w3.org/2000/svg" xmlns:xlink="http://www.w3.org/1999/xlink">
    <!-- Generator: Sketch 41.2 (35397) - http://www.bohemiancoding.com/sketch -->
    <title>expanded_hours</title>
    <desc>Created with Sketch.</desc>
    <defs></defs>
    <g id="LP_Icons" stroke="none" stroke-width="1" fill="none" fill-rule="evenodd">
        <g id="expanded_hours" fill="#3F3E3B">
            <path d="M5.31543769,85.9982036 L5.31543769,78.1119248 C5.31543769,68.517667 17.3607563,65.2481072 17.3607563,69.0234062 C17.3607563,69.8396871 16.6982675,70.5021759 15.8819866,70.5021759 C11.6859776,70.5021759 8.27297709,73.9159158 8.27297709,78.1119248 L8.27297709,85.9982036 C8.27297709,87.9523978 5.31543769,87.9546159 5.31543769,85.9982036 Z M76.6971299,2.4787697 C76.6971299,1.66248883 77.3588794,1 78.1758996,1 C78.9921805,1 79.6546693,1.66248883 79.6546693,2.4787697 C79.6546693,3.29505058 78.9921805,3.9575394 78.1758996,3.9575394 C77.3588794,3.9575394 76.6971299,3.29505058 76.6971299,2.4787697 Z M6.79420739,88.984579 C8.74840155,88.984579 8.7506197,91.9421184 6.79420739,91.9421184 C4.84001323,91.9421184 4.83705569,88.984579 6.79420739,88.984579 Z M100.296076,87.4769733 C100.296076,89.4311675 97.3385368,89.4333856 97.3385368,87.4769733 C97.3385368,85.5227792 100.296076,85.520561 100.296076,87.4769733 Z M119.957059,60.0709345 C116.126306,75.6261129 104.285797,86.0780572 102.668762,86.0780572 C101.285373,86.0780572 100.65246,84.3279333 101.737877,83.4502834 C109.320268,77.3156073 114.771013,68.761664 117.084549,59.3633432 C117.279746,58.5692438 118.084197,58.0879043 118.874599,58.2808837 C119.66722,58.4760813 120.151517,59.2768351 119.957059,60.0709345 Z M46.7897521,9.30329187 C54.7440543,3.87177076 64.0359037,1 73.6612157,1 C74.4774966,1 75.1399854,1.66248883 75.1399854,2.4787697 C75.1399854,3.29505058 74.4774966,3.9575394 73.6612157,3.9575394 C64.6340661,3.9575394 55.9181975,6.65111841 48.4578043,11.74548 C48.2027166,11.9207142 47.9121383,12.0035253 47.625257,12.0035253 C46.1753233,12.0035253 45.5912093,10.1225303 46.7897521,9.30329187 Z M10.4608169,116.344037 C8.67520245,116.344037 7.18164505,115.072295 6.83857048,113.386497 L88.0215483,113.386497 C87.6784737,115.072295 86.1849163,116.344037 84.3993019,116.344037 L10.4608169,116.344037 Z M14.1873165,78.1119248 C14.1873165,77.1773424 14.9474041,76.4172547 15.8819866,76.4172547 L78.918242,76.4172547 C79.8528245,76.4172547 80.6121727,77.1773424 80.6121727,78.1119248 C80.6121727,78.3988061 80.6099545,110.140598 80.6158696,110.428958 L14.1836196,110.428958 C14.1895347,110.140598 14.1873165,78.3988061 14.1873165,78.1119248 Z M35.8261535,65.3974629 C42.1826451,70.6130837 51.2748606,70.6064292 57.6232189,65.3811965 C62.7715556,66.3557057 67.4148925,69.2651851 70.5772415,73.4597153 L22.949027,73.4597153 C26.0899338,69.2821909 30.6652473,66.3963719 35.8261535,65.3974629 Z M104.074333,45.8296429 C103.373396,43.1308882 100.873536,42.3286556 99.6498538,42.281335 C98.8838511,42.2133116 98.2087928,42.8233041 98.1230241,43.5952218 C98.1060183,43.7460564 97.7230169,47.3320729 98.6871748,51.1643046 C99.6151027,54.8516168 103.78893,54.8737984 105.821499,55.103747 C104.938674,56.7422239 102.276888,60.154485 99.8568816,62.6646965 C96.9991591,65.6318479 98.8838511,66.5265036 98.5008498,69.2969786 C98.1577752,71.7864874 92.1088677,75.9403515 90.4970088,76.0386897 C89.8382169,75.808741 88.5568629,73.2415968 87.7708968,69.9269345 C87.4647915,68.6381867 88.270721,65.2133561 88.6744251,62.6432544 C89.2821995,58.7836654 85.8832473,58.873131 85.0263003,56.7163454 C83.2392071,52.2164492 75.9429574,56.6912063 73.4127824,56.4656939 C71.771348,56.3296471 70.680016,52.8959439 70.9809456,48.8101032 C71.2005429,45.8148552 71.325499,45.7091231 72.5203449,44.6902508 C74.4242609,43.0650829 76.4324301,40.8735462 77.6354093,39.7903474 C77.9252482,39.5241689 78.0812584,39.1677854 78.1056581,38.804008 C81.0550642,38.0542718 83.625166,37.3607288 86.3002604,38.7019729 C90.6848125,40.9075579 93.208333,42.1756029 96.2560774,42.1756029 C96.7847375,42.1756029 97.3289248,42.1378943 97.901948,42.0595195 C98.7100957,41.9500906 99.2772039,41.2040512 99.1670355,40.3944248 C99.0561278,39.5862772 98.313046,39.0147327 97.5019408,39.1293373 C94.5318319,39.5315627 92.5022205,38.5200842 87.4026832,35.9462856 C83.0432701,33.7547489 78.2564926,35.9255828 75.6324157,36.3211537 C77.2605412,35.3843531 81.4609865,34.110393 80.5545007,31.5602546 C79.8927512,29.7014411 76.9633085,29.7842522 74.9536604,29.0012437 C75.5828769,28.1598237 77.4808779,26.8718153 78.3762729,26.8873424 C79.2073415,27.0514858 80.5752035,31.631975 84.4488407,30.3868509 C86.4614462,29.7406285 86.9642279,28.0252557 87.3686715,26.6463029 C87.8633199,24.9560692 88.3306112,23.3604766 91.1402736,22.1789397 C94.0408804,20.9582153 94.3950457,21.7870657 95.0420074,23.2894957 C95.3873002,24.0902495 95.7791741,24.9974747 96.6812237,25.4455419 C98.5045467,26.350549 101.045812,24.5479287 102.73161,23.0262747 C108.732457,29.8463606 112.164682,38.1252527 112.444169,47.7202499 C107.312838,49.8304543 104.502437,47.4792105 104.074333,45.8296429 Z M104.992649,116.344037 L89.9284218,116.344037 C91.0286265,114.702602 91.0537656,113.305165 91.0537656,111.907728 C91.0537656,111.094404 90.3912767,110.428958 89.5749959,110.428958 L83.5660152,110.428958 C83.5719303,110.140598 83.5697121,88.907683 83.5697121,88.6193229 C83.9431014,88.9217313 84.4163078,89.0333784 84.893211,88.9017679 C104.392268,83.4672893 116.682323,64.8118701 115.326291,46.1098697 C113.477829,14.5337003 78.0598162,-3.58714361 51.3502779,13.3787812 C49.6955346,14.4301864 51.2911271,16.9226528 52.935519,15.8756838 C67.8548265,6.39898818 87.6969583,8.20160844 100.682035,20.8791011 C99.6749929,21.7589691 98.5910547,22.5020508 98.0187708,22.6920727 C97.9330022,22.5220142 97.8331852,22.2913262 97.757768,22.1183101 C97.0553524,20.4879665 95.5943279,17.0964082 89.9934877,19.4520883 C85.888423,21.1792913 85.0706633,23.968251 84.530173,25.814495 C84.1338627,27.1668299 83.9859858,27.4293115 83.5453124,27.5712734 C82.9959495,27.7502045 82.7460374,27.6452119 81.7633949,26.2817862 C81.0188344,25.2466474 80.0909064,23.9578996 78.4228542,23.929803 L78.3703578,23.929803 C74.8967278,23.929803 69.2766636,29.1269391 73.000945,31.336221 C74.0612229,31.9669163 75.5451683,32.2530582 76.645373,32.5184974 C76.3614492,32.6604593 76.0701316,32.7979849 75.8239164,32.9140683 C74.2357177,33.6638045 72.5928046,34.4386799 72.1794885,35.9189283 C72.0375266,36.4231888 71.9916847,37.2084155 72.5706231,38.0838472 C72.956582,38.6672218 73.450491,39.0036419 74.0205568,39.1744398 C68.8411659,44.2658439 68.4123227,43.411115 68.0315395,48.5934634 C67.5760784,54.7725026 69.6404409,59.1200855 73.168046,59.412882 C74.487848,59.5193534 76.109319,59.0328381 77.8291281,58.5160081 C78.8746183,58.202509 82.0539732,57.2464843 82.2780068,57.8091562 C82.9560227,59.5141777 84.0991117,60.3001438 84.9338771,60.8746458 C86.0333424,61.6317759 85.9298285,61.2931376 85.3878594,64.2846887 C84.9420104,66.7313132 84.5213004,69.0426302 84.893211,70.6101261 C85.6407291,73.7613844 87.3472293,78.9895746 90.4400761,78.9895746 C93.2393872,78.9895746 100.846918,73.9358792 101.431032,69.7014221 C101.953777,65.9135536 100.300512,66.4680922 101.987049,64.7172289 C103.174501,63.4846743 105.045884,61.3397189 106.547575,59.3285921 C114.067858,49.2566916 102.415893,53.8652774 101.555249,50.4419256 C101.153023,48.8441149 101.02437,47.2699646 100.998492,46.0684642 C101.45765,46.807849 101.617357,49.199759 104.962334,50.7480309 C106.525394,51.4718887 108.997157,51.9865005 112.389455,50.8877746 C111.446,67.3213423 100.083873,81.5981244 84.0991117,86.0521787 C83.8994777,86.1076326 83.721286,86.2022738 83.5697121,86.3250117 L83.5697121,78.1119248 C83.5697121,75.5462594 81.4831681,73.4597153 78.918242,73.4597153 L74.0146417,73.4597153 C73.7928262,72.07189 67.4562981,63.8454941 57.7703565,62.4029543 L57.7703565,62.4014755 C57.4058398,62.3349309 57.3038047,62.3349309 57.121916,62.3393672 C56.778102,62.3526761 56.447597,62.485026 56.1910305,62.7149747 C53.5699112,65.0573459 50.2042313,66.3475725 46.7150742,66.3475725 C43.0773008,66.3475725 40.0021992,65.0610428 37.2028881,62.680963 C36.6919732,62.2543379 36.2549968,62.3112706 35.6745796,62.417742 C28.923996,63.599279 23.0022627,67.6200538 19.3726225,73.4597153 L15.8819866,73.4597153 C13.3163212,73.4597153 11.2297771,75.5462594 11.2297771,78.1119248 C11.2297771,78.3988061 11.227559,110.140598 11.233474,110.428958 L5.28512291,110.428958 C4.46810265,110.428958 3.80635321,111.094404 3.80635321,111.907728 L3.80635321,112.647112 C3.80635321,114.014974 4.22114811,115.286716 4.93095757,116.344037 L1.4787697,116.344037 C0.661749441,116.344037 0,117.009483 0,117.822806 C0,118.63613 0.661749441,119.301576 1.4787697,119.301576 L10.4608169,119.301576 L104.992649,119.301576 C105.80893,119.301576 106.471418,118.63613 106.471418,117.822806 C106.471418,117.009483 105.80893,116.344037 104.992649,116.344037 Z M49.1580018,42.486884 L52.6057533,42.486884 C54.5599475,42.486884 54.5621656,45.4444234 52.6057533,45.4444234 L49.1580018,45.4444234 C47.2038076,45.4444234 47.2008501,42.486884 49.1580018,42.486884 Z M38.8066139,42.486884 L42.2543654,42.486884 C44.2085596,42.486884 44.2107777,45.4444234 42.2543654,45.4444234 L38.8066139,45.4444234 C36.8524197,45.4444234 36.8494622,42.486884 38.8066139,42.486884 Z M31.9332923,41.2010937 C33.2804515,41.2306691 33.254573,40.5452593 36.0080422,34.3041118 C42.9131573,31.4042444 46.7705281,41.4421332 56.3951007,35.4398069 C58.6250854,40.4920236 58.6546608,41.2025725 59.9012637,41.2025725 C60.5430497,41.2025725 61.1035034,40.7892563 61.3038767,40.1962697 C61.4288328,39.8258379 61.5345648,39.4546667 61.6395574,39.0842349 C61.7142353,39.4945935 61.7268048,40.2347177 61.4539718,41.4184728 C61.1648724,42.6709908 60.7663439,42.9637872 60.3042284,43.3031648 C59.8435916,43.6410637 59.1478305,44.1512393 58.9348877,45.2913707 C57.8783067,52.6105413 53.2490182,60.2949681 45.9239324,60.2151145 C38.8465407,60.3134527 34.0597631,52.8560171 32.9580797,45.2300018 C32.5602907,43.1161005 31.0134975,43.8665761 30.4486075,41.4192122 C30.1757745,40.2354571 30.1883441,39.4945935 30.2630219,39.0842349 C30.5425094,40.07575 30.7347495,41.1456398 31.9332923,41.2010937 Z M59.4169666,34.9621643 C58.332289,32.5022309 58.2672231,31.9846615 57.3829189,31.7621067 C56.9422455,31.6504596 56.4712573,31.7495372 56.1126557,32.0305034 C47.8921749,38.4365337 44.9065389,29.6585568 37.2051063,30.9044203 C36.2039792,31.0656062 33.9525523,31.6408476 33.527406,32.5990904 L32.4952248,34.9392434 L32.4856128,34.9621643 C30.5831756,14.7170677 61.337149,14.5373972 59.4169666,34.9621643 Z M30.0604305,45.8466487 C33.5089214,68.9746068 58.4535481,68.9228499 61.8406701,45.8481275 C62.580055,45.2396138 63.7453255,44.6392333 64.336094,42.0831798 C64.9224262,39.5389566 64.8137366,36.4993454 62.3027856,35.8730865 C65.594527,10.3229036 26.3221007,10.4412052 29.5997937,35.8738259 C27.0991942,36.4956485 26.9757169,39.5197326 27.5664854,42.0839192 C28.1535569,44.6251849 29.3210456,45.247747 30.0604305,45.8466487 Z M45.3760483,94.901876 C45.3760483,91.9709545 49.8123574,91.9694757 49.8123574,94.901876 C49.8123574,97.8327975 45.3760483,97.8342763 45.3760483,94.901876 Z M47.5942028,89.726182 C44.7401773,89.726182 42.4185089,92.0485899 42.4185089,94.901876 C42.4185089,97.7551621 44.7401773,100.07757 47.5942028,100.07757 C50.447489,100.07757 52.7698968,97.7551621 52.7698968,94.901876 C52.7698968,92.0485899 50.447489,89.726182 47.5942028,89.726182 L47.5942028,89.726182 Z" id="Fill-119"></path>
        </g>
    </g>
</svg>