<?xml version="1.0" encoding="UTF-8"?>
<svg width="120px" height="120px" viewBox="0 0 120 120" version="1.1" xmlns="http://www.w3.org/2000/svg" xmlns:xlink="http://www.w3.org/1999/xlink">
    <!-- Generator: Sketch 41.2 (35397) - http://www.bohemiancoding.com/sketch -->
    <title>finalize_deal</title>
    <desc>Created with Sketch.</desc>
    <defs></defs>
    <g id="LP_Icons" stroke="none" stroke-width="1" fill="none" fill-rule="evenodd">
        <g id="finalize_deal" fill="#FFFFFF">
            <path d="M76.4647923,86.2060064 C76.0837061,86.0626198 75.6619808,86.0771885 75.2916294,86.2458786 C74.9220447,86.4138019 74.6329712,86.7228115 74.4903514,87.1038978 L73.5226837,89.6848562 L70.2615974,82.3215335 C70.4816613,82.1873482 70.6917572,82.0355272 70.8903514,81.8645367 C70.9102875,81.8476677 70.9286901,81.8292652 70.9486262,81.8116294 C71.1380192,81.6429393 71.3189776,81.4619808 71.4838339,81.2603195 C71.8802556,80.7703514 72.564984,80.5502875 73.1630671,80.7013419 C73.3938658,80.764984 73.6269649,80.8063898 73.8615974,80.8324601 C73.9605112,80.8447284 74.0594249,80.8447284 74.1591054,80.8493291 C74.2886901,80.85623 74.417508,80.8615974 74.5470927,80.8569968 C74.6766773,80.8531629 74.8039617,80.8408946 74.9320128,80.8263259 C75.0247923,80.8148243 75.1168051,80.8025559 75.2080511,80.7856869 C75.353738,80.7603834 75.4955911,80.7304792 75.6374441,80.6913738 C75.7095208,80.6722045 75.7792971,80.646901 75.8498403,80.6238978 C75.9594888,80.5886262 76.0722045,80.5633227 76.1787859,80.5196166 L79.1415974,87.2089457 L76.4647923,86.2060064 Z M62.1882428,89.8458786 L61.1607668,87.1038978 C61.018147,86.7235783 60.7298403,86.4138019 60.358722,86.2458786 C60.1578275,86.1538658 59.9415974,86.1086262 59.7246006,86.1086262 C59.5428754,86.1086262 59.3603834,86.1408307 59.1855591,86.2067732 L56.6904792,87.1430032 L59.8373163,80.6515016 C60.0451118,80.7174441 60.2590415,80.7642173 60.4752716,80.8010224 C60.4875399,80.8033227 60.5005751,80.8048562 60.5128435,80.8071565 C60.7528435,80.8454952 60.9966773,80.8715655 61.2428115,80.8715655 C61.4283706,80.8715655 61.6131629,80.85623 61.795655,80.8339936 C61.8079233,80.8324601 61.8194249,80.8332268 61.8316933,80.8316933 C62.0479233,80.8040895 62.2587859,80.7642173 62.458147,80.7090096 C62.6115016,80.6699042 62.7610224,80.6492013 62.8913738,80.6492013 C63.3920767,80.6492013 63.8552077,80.8692652 64.1726518,81.2664537 C64.2792332,81.3975719 64.3927157,81.5217891 64.5107987,81.6391054 C64.5430032,81.6713099 64.5782748,81.6989137 64.611246,81.7295847 C64.6986581,81.8123962 64.7868371,81.8944409 64.8796166,81.9688179 C64.9225559,82.0040895 64.9685623,82.0339936 65.0130351,82.0669649 C65.0996805,82.1321406 65.1855591,82.1973163 65.2760383,82.2555911 C65.3258786,82.2885623 65.3787859,82.3161661 65.429393,82.3468371 C65.5175719,82.3989776 65.6057508,82.451885 65.69623,82.4978914 C65.7092652,82.5040256 65.7207668,82.5124601 65.7330351,82.5185942 L62.1882428,89.8458786 Z M55.5610224,70.5738019 C55.5610224,70.2532907 55.6492013,69.9557827 55.8194249,69.6958466 C56.3231949,68.9359744 56.5884984,68.0465176 56.5884984,67.1233227 C56.5884984,66.2001278 56.3231949,65.3106709 55.8232588,64.5561661 C55.6492013,64.2908626 55.5610224,63.9933546 55.5610224,63.6728435 C55.5610224,62.9842812 55.9720128,62.3815974 56.5992332,62.1408307 C57.4626198,61.8157188 58.2025559,61.2498403 58.7316294,60.513738 C59.2699042,59.7761022 59.5789137,58.9027476 59.6226198,57.9964217 C59.669393,57.1246006 60.3847923,56.4421725 61.2504792,56.4421725 C61.4076677,56.4421725 61.5433866,56.4590415 61.6691374,56.4943131 C62.0594249,56.6016613 62.4757827,56.656869 62.9067093,56.656869 C64.330607,56.656869 65.6601917,56.0204473 66.5542492,54.9124601 C66.9813419,54.3826198 67.5364856,54.3028754 67.829393,54.3028754 C68.1184665,54.3028754 68.6697764,54.3826198 69.0999361,54.9162939 C70.2600639,56.3470927 72.193099,56.9842812 73.9812141,56.4943131 C74.1069649,56.4598083 74.2442173,56.4421725 74.400639,56.4421725 C75.1635783,56.4421725 75.9801917,57.0210863 76.0292652,58.0071565 C76.0844728,58.9180831 76.3942492,59.7853035 76.9202556,60.5045367 C77.4539297,61.2467732 78.1892652,61.811885 79.0457508,62.1385304 C79.6844728,62.3815974 80.0977636,62.9842812 80.0977636,63.6728435 C80.0977636,63.9841534 80.0034505,64.2939297 79.8378275,64.553099 C79.3355911,65.3129712 79.0702875,66.2016613 79.0702875,67.1233227 C79.0702875,68.044984 79.3355911,68.9336741 79.8270927,69.6782109 C80.0034505,69.9534824 80.0977636,70.262492 80.0977636,70.5738019 C80.0977636,71.2577636 79.6844728,71.8573802 79.044984,72.1004473 C78.2007668,72.4232588 77.4677316,72.9853035 76.9202556,73.7344409 C76.3919489,74.4690096 76.0837061,75.3354633 76.0277316,76.2709265 C76.0108626,76.6811502 75.8368051,76.9847923 75.6734824,77.1856869 C75.6658147,77.1948882 75.6550799,77.2010224 75.6474121,77.2102236 C75.6366773,77.222492 75.6129073,77.2539297 75.5914377,77.2823003 C75.5461981,77.330607 75.4948243,77.3704792 75.444984,77.411885 C75.4089457,77.4425559 75.3752077,77.4762939 75.336869,77.503131 C75.2831949,77.5414696 75.2249201,77.570607 75.1674121,77.601278 C75.1275399,77.6227476 75.0899681,77.6488179 75.0485623,77.6672204 C74.9826198,77.6963578 74.9136102,77.7139936 74.8446006,77.7339297 C74.8077955,77.7446645 74.7732907,77.7607668 74.7357188,77.7692013 C74.6283706,77.7914377 74.518722,77.8044728 74.4083067,77.8044728 C74.268754,77.8044728 74.1215335,77.78377 73.954377,77.7377636 C73.484345,77.6173802 73.0173802,77.5683067 72.5626837,77.5844089 C71.2001278,77.6327157 69.9571885,78.2699042 69.10377,79.3257508 C69.0347604,79.4100958 68.9580831,79.4844728 68.8775719,79.5527157 C68.6352716,79.7520767 68.3392971,79.879361 68.0187859,79.9169329 C68.0019169,79.9184665 67.9873482,79.9253674 67.971246,79.9276677 C67.9589776,79.9292013 67.947476,79.9330351 67.9352077,79.9338019 C67.9283067,79.9345687 67.9221725,79.9322684 67.9160383,79.9322684 L67.829393,79.9361022 L67.7036422,79.9330351 C67.2504792,79.8992971 66.8402556,79.6838339 66.5580831,79.3395527 C65.6663259,78.2223642 64.3298403,77.5821086 62.8913738,77.5821086 C62.5026198,77.5821086 62.1008307,77.6342492 61.6683706,77.7454313 C61.5326518,77.7830032 61.3946326,77.7975719 61.2573802,77.7991054 C61.1799361,77.7991054 61.1040256,77.7845367 61.028115,77.7730351 C60.9752077,77.7653674 60.9230671,77.7615335 60.8716933,77.7492652 C60.7566773,77.719361 60.6439617,77.6771885 60.5358466,77.6204473 C60.531246,77.618147 60.5258786,77.6158466 60.5205112,77.6135463 C60.4031949,77.5506709 60.291246,77.4732268 60.1869649,77.3796805 C60.1808307,77.3743131 60.1739297,77.3720128 60.1685623,77.3666454 C60.1309904,77.3329073 60.0872843,77.3076038 60.0527796,77.2700319 C59.8702875,77.0691374 59.6471565,76.7302236 59.6233866,76.2571246 C59.5789137,75.3507987 59.2729712,74.4782109 58.7316294,73.7252396 C58.188754,72.9822364 57.4511182,72.4186581 56.6092013,72.1019808 C55.9720128,71.858147 55.5610224,71.2585304 55.5610224,70.5738019 Z M78.5603834,78.3220447 C78.8701597,77.726262 79.0641534,77.0798722 79.0902236,76.4250479 C79.1101597,76.0999361 79.2205751,75.789393 79.4038339,75.5348243 C79.5939936,75.2733546 79.8477955,75.0770607 80.1384026,74.9674121 C81.9771246,74.2650479 83.1648562,72.5413419 83.1648562,70.5738019 C83.1648562,69.6728435 82.9026198,68.7895208 82.3965495,68.0035783 C82.2270927,67.7459425 82.1373802,67.4423003 82.1373802,67.1233227 C82.1373802,66.804345 82.2270927,66.4999361 82.4072843,66.2277316 C82.9026198,65.4571246 83.1648562,64.5738019 83.1648562,63.6728435 C83.1648562,61.730607 81.948754,59.9616613 80.1384026,59.2723323 C79.8439617,59.1603834 79.5924601,58.9671565 79.4038339,58.7041534 C79.2182748,58.4503514 79.1101597,58.1451757 79.0917572,57.84 C78.9690735,55.3364856 76.908754,53.3750799 74.400639,53.3750799 C73.9697125,53.3750799 73.5533546,53.4302875 73.166901,53.536869 C72.5573163,53.7009585 71.8848562,53.4816613 71.4853674,52.9886262 C70.5882428,51.8745048 69.2555911,51.2357827 67.829393,51.2357827 C66.3978275,51.2357827 65.0628754,51.8745048 64.1665176,52.9870927 C63.8582748,53.3704792 63.3989776,53.5897764 62.9067093,53.5897764 C62.7495208,53.5897764 62.6130351,53.5721406 62.4880511,53.5376358 C62.0985304,53.4302875 61.6821725,53.3750799 61.2504792,53.3750799 C58.7538658,53.3750799 56.6927796,55.3334185 56.559361,57.84 C56.5447923,58.1536102 56.4389776,58.451885 56.2480511,58.7133546 C56.0663259,58.9663898 55.8148243,59.1588498 55.5104153,59.2738658 C53.6778275,59.9754633 52.4939297,61.7022364 52.4939297,63.6728435 C52.4939297,64.5891374 52.7584665,65.4770607 53.2630032,66.2453674 C53.4324601,66.4999361 53.5214058,66.804345 53.5214058,67.1233227 C53.5214058,67.4423003 53.4324601,67.7459425 53.2591693,68.0066454 C52.7584665,68.7703514 52.4939297,69.657508 52.4939297,70.5738019 C52.4939297,72.5382748 53.6770607,74.2627476 55.5188498,74.9697125 C55.8102236,75.0785942 56.0647923,75.2741214 56.2480511,75.525623 C56.4366773,75.7878594 56.5447923,76.0922684 56.5601278,76.4081789 C56.6015335,77.2485623 56.880639,78.0613419 57.3453035,78.760639 L52.25623,89.2585304 C51.982492,89.8228754 52.0798722,90.496869 52.503131,90.9607668 C52.925623,91.4246645 53.588115,91.581853 54.1754633,91.3625559 L58.8267093,89.6166134 L60.5734185,94.2762939 C60.7888818,94.850607 61.325623,95.2416613 61.9390415,95.2700319 C61.9620447,95.2707987 61.9858147,95.2715655 62.0095847,95.2715655 C62.5953994,95.2715655 63.1329073,94.9364856 63.3897764,94.4058786 L68.0203195,84.8342492 L72.2383387,94.3591054 C72.4852396,94.915016 73.035016,95.2715655 73.6415335,95.2715655 C73.6561022,95.2715655 73.6714377,95.2715655 73.6860064,95.2707987 C74.3086262,95.2531629 74.8584026,94.8598083 75.0776997,94.2762939 L76.8244089,89.6166134 L81.4840895,91.3633227 C82.0614696,91.5787859 82.7139936,91.4292652 83.1380192,90.9791693 C83.5620447,90.5298403 83.6755272,89.8711821 83.4247923,89.3068371 L78.5603834,78.3220447 Z M101.565879,101.405751 C101.565879,111.55016 93.3100319,119.808307 83.1633227,119.808307 L64.8083067,119.808307 C63.9617891,119.808307 63.2747604,119.118211 63.2747604,118.27476 C63.2747604,117.43131 63.9617891,116.741214 64.8083067,116.741214 L83.1610224,116.741214 C91.6185304,116.741214 98.4987859,109.861725 98.4987859,101.405751 C98.4987859,100.559233 99.1850479,99.8722045 100.032332,99.8722045 C100.87885,99.8722045 101.565879,100.559233 101.565879,101.405751 Z M61.9329073,118.27476 C61.9329073,119.225559 61.1584665,120 60.2076677,120 C59.256869,120 58.4824281,119.225559 58.4824281,118.27476 C58.4824281,117.323962 59.256869,116.549521 60.2076677,116.549521 C61.1584665,116.549521 61.9329073,117.323962 61.9329073,118.27476 Z M32.3638339,1.72523962 C32.3638339,0.774440895 33.137508,0 34.0890735,0 C35.0398722,0 35.8143131,0.774440895 35.8143131,1.72523962 C35.8143131,2.67603834 35.0398722,3.45047923 34.0890735,3.45047923 C33.137508,3.45047923 32.3638339,2.67603834 32.3638339,1.72523962 Z M6.51514377,41.5974441 L6.51514377,16.2939297 C6.51514377,7.41546326 13.738147,0.191693291 22.6173802,0.191693291 L29.4884345,0.191693291 C30.3349521,0.191693291 31.0219808,0.878722045 31.0219808,1.72523962 C31.0219808,2.57175719 30.3349521,3.25878594 29.4884345,3.25878594 L22.6173802,3.25878594 C15.4296486,3.25878594 9.58223642,9.10619808 9.58223642,16.2939297 L9.58223642,41.5974441 C9.58223642,42.4439617 8.89520767,43.1309904 8.0486901,43.1309904 C7.20140575,43.1309904 6.51514377,42.4439617 6.51514377,41.5974441 Z M47.8909904,87.6038339 C47.8909904,88.4503514 47.2039617,89.1373802 46.3574441,89.1373802 L27.9786581,89.1373802 C27.1313738,89.1373802 26.4451118,88.4503514 26.4451118,87.6038339 C26.4451118,86.7573163 27.1313738,86.0702875 27.9786581,86.0702875 L46.3574441,86.0702875 C47.2039617,86.0702875 47.8909904,86.7573163 47.8909904,87.6038339 Z M52.4916294,78.4025559 C52.4916294,79.2490735 51.8046006,79.9361022 50.9580831,79.9361022 L27.9786581,79.9361022 C27.1313738,79.9361022 26.4451118,79.2490735 26.4451118,78.4025559 C26.4451118,77.5560383 27.1313738,76.8690096 27.9786581,76.8690096 L50.9580831,76.8690096 C51.8046006,76.8690096 52.4916294,77.5560383 52.4916294,78.4025559 Z M26.4451118,69.201278 C26.4451118,68.3547604 27.1313738,67.6677316 27.9786581,67.6677316 L44.8238978,67.6677316 C45.6704153,67.6677316 46.3574441,68.3547604 46.3574441,69.201278 C46.3574441,70.0477955 45.6704153,70.7348243 44.8238978,70.7348243 L27.9786581,70.7348243 C27.1313738,70.7348243 26.4451118,70.0477955 26.4451118,69.201278 Z M26.4451118,60 C26.4451118,59.1534824 27.1313738,58.4664537 27.9786581,58.4664537 L49.4245367,58.4664537 C50.2710543,58.4664537 50.9580831,59.1534824 50.9580831,60 C50.9580831,60.8465176 50.2710543,61.5335463 49.4245367,61.5335463 L27.9786581,61.5335463 C27.1313738,61.5335463 26.4451118,60.8465176 26.4451118,60 Z M26.4451118,41.5974441 C26.4451118,40.7509265 27.1313738,40.0638978 27.9786581,40.0638978 L37.1561661,40.0638978 C38.0026837,40.0638978 38.6897125,40.7509265 38.6897125,41.5974441 C38.6897125,42.4439617 38.0026837,43.1309904 37.1561661,43.1309904 L27.9786581,43.1309904 C27.1313738,43.1309904 26.4451118,42.4439617 26.4451118,41.5974441 Z M26.4451118,50.798722 C26.4451118,49.9522045 27.1313738,49.2651757 27.9786581,49.2651757 L54.0251757,49.2651757 C54.8716933,49.2651757 55.558722,49.9522045 55.558722,50.798722 C55.558722,51.6452396 54.8716933,52.3322684 54.0251757,52.3322684 L27.9786581,52.3322684 C27.1313738,52.3322684 26.4451118,51.6452396 26.4451118,50.798722 Z M70.8941853,40.0638978 C71.7407029,40.0638978 72.4277316,40.7509265 72.4277316,41.5974441 C72.4277316,42.4439617 71.7407029,43.1309904 70.8941853,43.1309904 L43.2903514,43.1309904 C42.4430671,43.1309904 41.7568051,42.4439617 41.7568051,41.5974441 C41.7568051,40.7509265 42.4430671,40.0638978 43.2903514,40.0638978 L70.8941853,40.0638978 Z M26.4451118,32.3961661 C26.4451118,31.5496486 27.1313738,30.8626198 27.9786581,30.8626198 L72.4277316,30.8626198 C73.2742492,30.8626198 73.961278,31.5496486 73.961278,32.3961661 C73.961278,33.2426837 73.2742492,33.9297125 72.4277316,33.9297125 L27.9786581,33.9297125 C27.1313738,33.9297125 26.4451118,33.2426837 26.4451118,32.3961661 Z M26.4451118,23.1948882 C26.4451118,22.3483706 27.1313738,21.6613419 27.9786581,21.6613419 L61.6929073,21.6613419 C62.5394249,21.6613419 63.2264537,22.3483706 63.2264537,23.1948882 C63.2264537,24.0414058 62.5394249,24.7284345 61.6929073,24.7284345 L27.9786581,24.7284345 C27.1313738,24.7284345 26.4451118,24.0414058 26.4451118,23.1948882 Z M66.2935463,23.1948882 C66.2935463,22.3483706 66.9798083,21.6613419 67.8270927,21.6613419 L77.0283706,21.6613419 C77.8748882,21.6613419 78.5619169,22.3483706 78.5619169,23.1948882 C78.5619169,24.0414058 77.8748882,24.7284345 77.0283706,24.7284345 L67.8270927,24.7284345 C66.9798083,24.7284345 66.2935463,24.0414058 66.2935463,23.1948882 Z M107.996805,84.9377636 C107.322812,85.9238339 105.976358,86.176869 104.990288,85.5021086 C104.004217,84.828115 103.751182,83.4816613 104.425942,82.4955911 C105.099936,81.5095208 106.44639,81.2564856 107.43246,81.931246 C108.41853,82.6052396 108.671565,83.9516933 107.996805,84.9377636 Z M104.680511,73.4722045 L92.3661342,85.3265176 L92.3661342,53.513099 C92.3661342,53.4440895 92.3584665,53.3827476 92.3507987,53.313738 C92.343131,53.2523962 92.3354633,53.1833866 92.3124601,53.1220447 C92.2971246,53.0607029 92.2817891,52.999361 92.2511182,52.9380192 C92.228115,52.8766773 92.1974441,52.8153355 92.1667732,52.7616613 C92.1361022,52.7079872 92.1054313,52.6543131 92.0747604,52.6083067 C92.0517572,52.5853035 92.0364217,52.5623003 92.0134185,52.5392971 C91.9827476,52.5009585 91.9520767,52.4702875 91.913738,52.4319489 C91.8830671,52.3936102 91.8523962,52.3629393 91.8140575,52.3399361 C91.8140575,52.3399361 91.8140575,52.3322684 91.8063898,52.3322684 C91.7450479,52.2785942 91.6760383,52.2325879 91.6070288,52.1865815 L91.5610224,52.1635783 L82.8044728,47.0415335 C80.5808307,45.7303514 79.829393,42.8626198 81.1252396,40.6389776 C81.9610224,39.2127796 83.5175719,38.3309904 85.1891374,38.3309904 C86.0019169,38.3309904 86.8070288,38.5533546 87.5201278,38.9597444 L89.9507987,40.3859425 L89.9738019,40.401278 L90.1578275,40.5086262 L102.372524,47.6626198 C103.791054,48.4907348 104.680511,50.0396166 104.680511,51.7035144 L104.680511,73.4722045 Z M89.2990415,88.7846645 L89.2990415,101.405751 C89.2990415,104.78722 86.5539936,107.532268 83.172524,107.539936 L83.1648562,107.539936 C79.7833866,107.539936 77.0306709,104.78722 77.0306709,101.405751 L77.0306709,99.8722045 C77.0306709,99.028754 76.3405751,98.3386581 75.4971246,98.3386581 L18.8172524,98.3386581 L18.8172524,69.201278 C18.8172524,69.1015974 18.8019169,68.9942492 18.7865815,68.9022364 L18.7865815,16.2939297 C18.7865815,14.1776358 20.5041534,12.4600639 22.6204473,12.4600639 L90.4630032,12.4600639 C90.2950799,12.7107987 90.1486262,12.9761022 90.0144409,13.2483067 C89.9899042,13.2973802 89.9661342,13.3456869 89.943131,13.3947604 C89.6847284,13.9506709 89.4991693,14.5449201 89.3964217,15.1683067 C89.3872204,15.2227476 89.3795527,15.2771885 89.3711182,15.3316294 C89.3274121,15.6467732 89.2967412,15.9665176 89.2967412,16.2939297 L89.2967412,20.1277955 C89.2967412,20.1369968 89.2990415,20.1446645 89.2990415,20.1538658 L89.2990415,36.4523962 L89.0690096,36.314377 C87.8805112,35.6242812 86.5386581,35.2638978 85.1891374,35.2638978 C82.4364217,35.2638978 79.8600639,36.7284345 78.4798722,39.0900958 C76.3329073,42.770607 77.5750799,47.5169329 81.2555911,49.6792332 L84.7904153,51.7495208 L89.2990415,54.3872204 L89.2990415,88.7846645 Z M17.2607029,107.539936 L14.1629393,107.539936 C10.7968051,107.516933 8.06709265,104.771885 8.06709265,101.405751 L73.9635783,101.405751 C73.9635783,103.759744 74.8530351,105.914377 76.3099042,107.539936 L17.2607029,107.539936 Z M92.3661342,16.2939297 C92.3661342,14.1776358 94.0829393,12.4600639 96.1992332,12.4600639 C96.4146965,12.4600639 96.581853,12.4723323 96.7704792,12.5053035 C98.6291374,12.7798083 100.031565,14.4092013 100.031565,16.2939297 L100.031565,18.5942492 L92.3661342,18.5942492 L92.3661342,16.2939297 Z M114.709904,80.6185304 L107.747604,73.4952077 L107.747604,51.5348243 C107.747604,51.4290096 107.736869,51.3254952 107.715399,51.2250479 C107.555144,48.6647923 106.13738,46.3161661 103.921406,45.0095847 L92.3661342,38.2466454 L92.3661342,21.6613419 L101.565112,21.6613419 C102.411629,21.6613419 103.098658,20.9743131 103.098658,20.1277955 L103.098658,16.2939297 C103.098658,12.8994249 100.571374,9.96651757 97.2635144,9.47808307 C96.9391693,9.42057508 96.6010224,9.39297125 96.2015335,9.39297125 L96.2,9.39297125 L22.6204473,9.39297125 C18.8095847,9.39297125 15.7194888,12.4907348 15.7194888,16.2939297 L15.7194888,69.201278 C15.7194888,69.3009585 15.7271565,69.4083067 15.7501597,69.5003195 L15.7501597,98.3386581 L6.53354633,98.3386581 C5.69009585,98.3386581 5,99.028754 5,99.8722045 L5,101.405751 C5,106.481789 9.12523962,110.607029 14.201278,110.607029 L83.1878594,110.607029 L83.2031949,110.607029 C88.25623,110.584026 92.3661342,106.466454 92.3661342,101.405751 L92.3661342,90.1265176 L106.191054,76.3015974 L112.516933,82.7654952 C113.107348,83.371246 114.073482,83.3789137 114.679233,82.7884984 C115.284984,82.1980831 115.300319,81.2242812 114.709904,80.6185304 Z M67.829393,61.7559105 C70.7883706,61.7559105 73.1968051,64.164345 73.1968051,67.1233227 C73.1968051,68.2382109 72.8563578,69.3086262 72.2161022,70.2134185 C71.5260064,71.1826198 70.526901,71.9056869 69.394377,72.2538019 C68.400639,72.5666454 67.2972524,72.5735463 66.2467732,72.2492013 C65.1265176,71.9118211 64.1327796,71.1895208 63.4457508,70.2095847 C62.8016613,69.2994249 62.4619808,68.2320767 62.4619808,67.1233227 C62.4619808,64.164345 64.8696486,61.7559105 67.829393,61.7559105 Z M65.3504153,75.1821086 C66.1539936,75.4313099 66.9882428,75.5578275 67.829393,75.5578275 C68.6805112,75.5578275 69.5162939,75.4305431 70.30377,75.1836422 C72.0688818,74.6415335 73.6346326,73.5082428 74.7173163,71.9884984 C75.7286901,70.5584665 76.2638978,68.8753994 76.2638978,67.1233227 C76.2638978,62.4728435 72.4798722,58.6888179 67.829393,58.6888179 C63.178147,58.6888179 59.3948882,62.4728435 59.3948882,67.1233227 C59.3948882,68.8707987 59.9293291,70.5507987 60.9384026,71.9754633 C62.0157188,73.5120767 63.5876038,74.6515016 65.3504153,75.1821086 L65.3504153,75.1821086 Z" id="Fill-26"></path>
        </g>
    </g>
</svg>