<?xml version="1.0" encoding="UTF-8"?>
<svg width="120px" height="120px" viewBox="0 0 120 120" version="1.1" xmlns="http://www.w3.org/2000/svg" xmlns:xlink="http://www.w3.org/1999/xlink">
    <!-- Generator: Sketch 41.2 (35397) - http://www.bohemiancoding.com/sketch -->
    <title>meet_the_team</title>
    <desc>Created with Sketch.</desc>
    <defs></defs>
    <g id="LP_Icons" stroke="none" stroke-width="1" fill="none" fill-rule="evenodd">
        <g id="meet_the_team" fill="#FFFFFF">
            <path d="M64.1987587,21.1917411 C67.1460623,21.1917411 67.1468019,16.7297381 64.1987587,16.7297381 C62.968805,16.7297381 61.9673874,17.730416 61.9673874,18.9603698 C61.9673874,20.1910632 62.968805,21.1917411 64.1987587,21.1917411 Z M58.0179267,18.9603698 C58.0179267,16.0130663 53.5566632,16.0115871 53.5566632,18.9603698 C53.5566632,21.9084129 58.0179267,21.9106317 58.0179267,18.9603698 Z M49.3786663,18.9603698 C49.3786663,16.0123267 44.9166632,16.0115871 44.9166632,18.9603698 C44.9166632,21.9091525 49.3786663,21.9098921 49.3786663,18.9603698 Z M40.8947218,29.2585516 C41.2216247,29.4915254 41.4390669,29.8472727 41.4982349,30.2451772 C41.8776493,32.8004931 41.6150916,35.3772573 40.7416247,37.7868721 C43.3257849,36.915624 45.6732734,35.3957473 47.5082194,33.3226502 C48.6139205,32.0690293 49.5354614,33.651772 55.5691131,33.651772 C67.1638127,33.651772 76.5966632,26.7668413 76.5966632,18.3050847 C76.5966632,9.8433282 67.1638127,2.95839753 55.5691131,2.95839753 C36.8291439,2.95839753 27.4140438,19.6297072 40.8947218,29.2585516 Z M73.9082194,6.52400616 C82.652503,14.4391988 81.0468327,26.2313713 70.4446755,32.6488752 C74.7765091,32.4033282 75.2809159,31.3501387 76.2623643,32.4610169 C77.6920099,34.072604 79.5395292,35.3765177 81.7945677,36.2181818 C80.9277572,33.5652388 80.7539513,29.6290909 81.8463396,28.859168 C85.4038127,26.3149461 87.363751,22.9423729 87.363751,19.3627119 C87.363751,13.2395686 81.6584814,8.07938367 73.9082194,6.52400616 Z M55.5691131,0 C60.4859698,0 65.0611316,1.13676425 68.870808,3.08191063 C87.9428574,2.95543914 97.4341362,20.6814176 84.1021178,30.8708783 C83.8698835,33.2975039 84.472657,35.6235439 85.6996524,37.6234206 C86.0028882,38.1115562 85.9954922,38.7328197 85.6774644,39.2135593 C85.3860623,39.6624961 84.8749991,39.9354083 84.234506,39.8644068 C80.486956,39.326718 77.134352,37.5790447 74.6574336,35.0718028 C71.3432888,35.7640678 67.9707156,35.8350693 64.5559852,35.2714946 C59.6487433,36.7913713 54.2393134,37.0243451 49.1183273,35.9341757 C44.918882,40.2423421 39.3755846,41.4175655 38.0635353,41.4175655 C36.9053227,41.4175655 36.1982657,40.1439753 36.8039976,39.162527 C38.3253535,36.692265 38.9140746,33.9513097 38.6463396,31.2761787 C23.5326262,19.8242219 34.2257541,0 55.5691131,0 Z M72.2611316,87.4576271 C71.4446139,87.4576271 70.7819329,88.1203082 70.7819329,88.9368259 L70.7819329,94.853621 C70.7819329,95.6701387 71.4446139,96.3328197 72.2611316,96.3328197 C73.0776493,96.3328197 73.7403304,95.6701387 73.7403304,94.853621 L73.7403304,88.9368259 C73.7403304,88.1203082 73.0776493,87.4576271 72.2611316,87.4576271 Z M48.5939513,88.9368259 L48.5939513,96.1479199 C48.5939513,96.9644376 49.2566324,97.6271186 50.0731501,97.6271186 C50.8896678,97.6271186 51.5523489,96.9644376 51.5523489,96.1479199 L51.5523489,88.9368259 C51.5523489,88.1203082 50.8896678,87.4576271 50.0731501,87.4576271 C49.2566324,87.4576271 48.5939513,88.1203082 48.5939513,88.9368259 Z M50.8097911,55.6422804 C52.6898527,52.0870262 56.4122564,49.6507858 61.1664013,49.6507858 C64.133674,49.6507858 66.8117634,50.5959938 68.911486,52.3836055 C70.0830114,53.3813251 70.9224567,54.5084746 71.5230114,55.6452388 C71.3773104,53.9042219 70.8033812,52.2097997 69.8064013,50.7187673 C66.7770022,46.1850231 61.4666786,46.0896148 61.24258,46.0881356 C61.24258,46.0881356 61.1538281,46.0888752 61.1530885,46.0888752 L61.0813473,44.6089368 L61.0776493,46.0881356 C60.8661239,46.0896148 55.5558003,46.1842835 52.5256617,50.7187673 C51.5294213,52.2090601 50.9554922,53.9020031 50.8097911,55.6422804 Z M56.7043982,44.0002465 C59.028959,43.1711556 60.9171563,43.1312173 61.0658158,43.1297381 C61.0709929,43.1275193 61.1345985,43.1297381 61.1434737,43.1297381 C61.1479113,43.1304777 61.257372,43.1341757 61.2669868,43.1297381 C61.4156463,43.1312173 63.3038435,43.1711556 65.6276647,43.9995069 C65.4057849,43.6223112 65.1387896,43.2665639 64.8192826,42.9463174 C62.4126262,40.5337442 58.4439359,41.0448074 56.7043982,44.0002465 Z M66.9929652,54.6364253 C63.8112087,51.9272727 58.5275107,51.9206163 55.3398373,54.6356857 C52.2505307,57.2664407 52.2697603,61.2824653 52.3267094,62.2794453 C52.3488974,62.38151 52.360731,62.4872727 52.360731,62.5959938 C52.360731,62.6359322 52.3518558,62.6729122 52.3488974,62.7121109 C53.2497295,68.0002465 56.6748142,71.8224961 60.5843366,71.8395069 L61.7654768,71.8395069 C65.6705615,71.8224961 69.1037819,67.977319 69.9920407,62.6632974 C69.9890823,62.597473 69.9868635,62.5316487 69.9927803,62.4650847 C70.0371563,61.9628968 70.3344752,57.4809245 66.9929652,54.6364253 Z M49.3853227,62.9450847 C47.0799914,58.4549769 47.3233196,53.1779353 50.0657541,49.0746379 C50.9510546,47.750755 51.9901917,46.7338059 53.0670484,45.9335593 C53.61805,39.0863482 61.9917942,35.9238213 66.9145677,40.8576888 C68.2946601,42.2414792 69.112657,44.0239137 69.2657541,45.9335593 C74.4599606,49.7920493 76.0219945,56.9587673 72.9460007,62.9465639 C70.4823951,78.7673344 51.8489282,78.7732512 49.3853227,62.9450847 Z M79.2052302,93.9993837 C80.0128728,94.0881356 80.7458158,93.4964561 80.8323489,92.684376 C81.2058466,89.1624037 80.9203612,87.6380894 79.1327495,83.6161479 C78.3798373,81.9446533 76.8126262,78.467057 73.0184814,76.1365794 C71.538543,75.2187365 69.8633504,74.5878582 68.0380191,74.2616949 C67.5691131,74.1781202 67.0876339,74.3253005 66.745939,74.6581202 C66.1209775,75.2668105 66.3495137,75.7468105 66.3495137,76.4864099 C66.3495137,78.6926348 63.16258,80.9831741 61.4134275,81.9919877 C59.5119174,80.9920493 55.9825492,78.6859784 55.9825492,76.4864099 C55.9825492,76.2741448 55.9943828,76.0885054 56.0173104,75.9354083 C56.0875723,75.4642835 55.9263396,74.9887211 55.5846447,74.656641 C55.2422102,74.3253005 54.7659082,74.1781202 54.2933042,74.2616949 C48.8801763,75.2298305 45.4632272,78.5868721 43.1970946,83.6228043 C40.9516709,88.6750077 41.1077264,89.8613251 41.8584198,95.564376 C41.9553073,96.3039753 42.0085584,97.6271186 43.4248913,97.6271186 C43.4892364,97.6271186 43.5535815,97.6234206 43.6186663,97.6145455 C44.4285276,97.5087827 44.9994983,96.766225 44.8937356,95.9563636 C44.0557695,89.6002465 43.9189436,89.2822188 45.897372,84.8313097 C46.5763242,83.3217874 47.8410392,80.5127889 50.8733966,78.6504777 C51.5730577,78.2155932 52.334845,77.8628043 53.1476647,77.5935901 C54.086956,81.8107858 60.0939822,84.6671186 60.8306231,85.0028968 C61.2359236,85.187057 61.7026108,85.1804006 62.1005153,84.982188 C62.7802071,84.6456703 68.3190669,81.7848998 69.1925338,77.5965485 C70.0031347,77.8650231 70.7634429,78.2185516 71.4653227,78.6541757 C74.4895446,80.5113097 75.7557387,83.3217874 76.4324721,84.8246533 C78.016694,88.3902619 78.2075107,89.3776271 77.8894829,92.372265 C77.8036894,93.1850847 78.3924105,93.9135901 79.2052302,93.9993837 Z M113.737865,93.2412943 C112.902118,87.0212635 111.282395,80.9195686 108.930469,75.0915254 C105.593397,76.8421572 101.941255,77.8938675 98.0361701,78.1534669 C94.5770638,85.0598459 92.0624259,92.5653005 90.6978651,100.585516 L92.3412549,100.585516 C94.7375569,100.585516 96.6679113,97.7232666 96.6679113,95.3491525 L96.6679113,86.1337442 C96.6679113,85.3201849 97.3261547,84.6545455 98.14711,84.6545455 C98.9606694,84.6545455 99.6263088,85.3201849 99.6263088,86.1337442 L99.6263088,95.3491525 C99.6263088,99.2172573 96.5125954,103.543914 92.3412549,103.543914 L84.8343211,103.543914 L84.8343211,110.939908 L96.1427957,110.939908 C102.140947,110.939908 107.022303,106.058552 107.022303,100.060401 L107.022303,88.6409861 C107.022303,87.8200308 107.680546,87.1617874 108.501501,87.1617874 C109.315061,87.1617874 109.9807,87.8200308 109.9807,88.6409861 L109.9807,100.060401 C109.9807,104.476549 107.893551,108.404561 104.66446,110.939908 L114.033705,110.939908 C114.63278,105.0453 114.529236,99.0989214 113.737865,93.2412943 Z M80.3967248,110.939908 L81.8759236,110.939908 L81.8759236,103.543914 L80.3967248,103.543914 L80.3967248,110.939908 Z M77.4383273,104.239137 L73.0835661,103.515809 L72.736694,103.952912 C72.4438127,104.321233 72.0126262,104.512789 71.5770022,104.512789 C71.2545369,104.512789 70.9298527,104.407766 70.6576802,104.191803 C70.39956,103.986934 70.2331501,103.712542 70.154013,103.416703 C70.0445523,103.492142 69.941748,103.577935 69.8574336,103.684438 L67.8605153,106.310015 C67.6460315,106.598459 67.5498835,106.946071 67.6016555,107.293683 C67.6534275,107.64869 67.8457233,107.951926 68.1267711,108.159014 C69.3175261,109.031741 70.7005769,110.0302 71.5585122,110.651464 C71.824768,110.836364 72.1353997,110.939908 72.4608235,110.939908 L77.4383273,110.939908 L77.4383273,104.239137 Z M56.7591285,109.867488 C56.7591285,109.586441 56.5594367,109.334977 56.2857849,109.283205 L49.7921023,107.922342 C49.022919,107.75963 48.3720715,107.234515 48.0466478,106.524499 C47.7212241,105.807088 47.750808,104.971341 48.1353997,104.290909 L48.8897911,102.944838 C48.7492672,102.92265 48.6013473,102.937442 48.4682194,102.974422 C48.4090515,102.99661 48.3498835,103.011402 48.2907156,103.018798 L45.1770022,103.558706 C44.9551224,103.603082 44.7406386,103.647458 44.5187587,103.706626 L41.9375569,104.409245 L41.9375569,110.69584 L46.1236894,110.939908 L56.2709929,110.385208 C56.5446447,110.370416 56.7591285,110.14114 56.7591285,109.867488 Z M37.4999606,110.939908 L38.8608235,110.939908 L38.8608235,103.543914 L37.4999606,103.543914 L37.4999606,110.939908 Z M34.5415631,103.543914 L27.0272333,103.543914 C22.8632888,103.543914 19.7495754,99.2172573 19.7495754,95.3491525 L19.7495754,86.1337442 C19.7495754,85.3201849 20.4078188,84.6545455 21.2287741,84.6545455 C22.0423335,84.6545455 22.7079729,85.3201849 22.7079729,86.1337442 L22.7079729,95.3491525 C22.7079729,97.7232666 24.6383273,100.585516 27.0272333,100.585516 L28.6750607,100.585516 C27.348959,92.8567026 24.9918558,85.4592296 21.3323181,78.1534669 C17.4117017,77.8916487 13.7247988,76.8214484 10.4454151,75.0915254 C5.82070019,86.5508783 4.11592361,98.8896148 5.34217939,110.939908 L14.7092056,110.939908 C11.4793751,108.404561 9.39518401,104.476549 9.39518401,100.060401 L9.39518401,88.6409861 C9.39518401,86.6817874 12.3535815,86.6869646 12.3535815,88.6409861 L12.3535815,100.060401 C12.3535815,106.058552 17.2349375,110.939908 23.2330885,110.939908 L34.5415631,110.939908 L34.5415631,103.543914 Z M116.82939,112.59661 C116.740639,113.33621 116.111979,113.898305 115.357588,113.898305 L4.0109005,113.898305 C3.26390512,113.898305 2.63524564,113.33621 2.54649372,112.59661 C0.926771066,98.8999692 2.91999141,85.0872111 8.35974487,72.3993837 C8.73250296,71.5407088 9.75610851,71.274453 10.4823951,71.7189522 C14.1397141,73.9325732 18.2193443,75.1129738 22.3159852,75.2394453 C22.8477572,75.2616333 23.3366324,75.564869 23.5807002,76.0456086 C27.7379883,84.1338675 30.3080962,92.2960863 31.6652611,100.585516 L40.4583581,100.585516 C41.0278496,100.585516 41.5307772,100.91094 41.774845,101.39168 L43.7495754,100.851772 C44.0528111,100.770416 44.3560469,100.703852 44.665939,100.644684 L47.7064321,100.119569 C48.9119791,99.7867488 50.25805,100.060401 51.2343211,100.851772 C52.1144444,101.561787 52.3585122,102.796918 51.8038127,103.787982 L51.0427649,105.15624 L56.8922564,106.383975 C58.5267711,106.724191 59.7175261,108.188598 59.7175261,109.867488 C59.7175261,110.243205 59.6435661,110.599692 59.5326262,110.939908 L63.4110854,110.939908 L65.041902,108.888998 C64.874013,108.520678 64.7386663,108.135347 64.6802379,107.72265 C64.5101301,106.576271 64.8059698,105.437288 65.5085892,104.520185 L67.5055076,101.894607 C68.4521948,100.65208 70.0645215,100.016025 71.6028882,100.274884 L71.846956,100.315562 L75.4473258,95.7825578 C75.9561701,95.1420647 76.8858466,95.0370416 77.5256,95.5444068 C78.1646139,96.0525116 78.2718558,96.9829276 77.763751,97.622681 L75.1855076,100.868783 L77.6683427,101.28074 C77.9264629,100.866564 78.3850145,100.585516 78.9175261,100.585516 L87.7024876,100.585516 C89.1336124,91.8523267 91.8767865,83.6568259 95.795184,76.0456086 C96.0392518,75.564869 96.528127,75.2616333 97.059899,75.2394453 C99.2113936,75.1728814 101.342179,74.8178737 103.398266,74.1818182 C105.321224,73.5975347 107.170223,72.7617874 108.886093,71.7189522 C109.255893,71.4970724 109.699652,71.4453005 110.106432,71.5784284 C110.513212,71.7041602 110.846031,72.007396 111.016139,72.3993837 C113.818481,78.9374422 115.719991,85.8157165 116.674075,92.8493066 C117.554198,99.3873652 117.606709,106.028968 116.82939,112.59661 Z M89.8591594,46.1413867 C89.9523489,46.611772 90.0899144,47.0725424 90.2711162,47.5155624 C90.6557079,48.46151 91.1157387,49.1064407 91.7384814,49.8157165 C93.1407618,50.5789831 95.2182965,51.3866256 97.8194675,51.3548228 C98.6589128,51.348906 99.5020561,51.2564561 100.326709,51.0789522 C102.231178,50.671433 104.138605,51.6181202 105.009853,53.2696456 C106.670253,51.7867488 108.859468,51.4605855 110.564244,52.8872727 C110.823843,51.5522958 110.891147,49.7742989 110.168558,47.9179045 C107.203505,40.3029892 95.8092364,40.6409861 89.8591594,46.1413867 Z M87.2298835,44.5712173 C88.587788,43.1918644 90.1268943,42.0602773 91.8065245,41.2082589 C99.3363859,37.3860092 109.756602,38.7143297 112.924306,46.8432666 C114.476725,50.8274884 113.319252,54.485547 112.74976,55.873775 C112.628466,56.1696148 112.420639,56.4011094 112.169914,56.5593837 C112.100392,57.9587057 111.448065,59.3424961 110.547233,60.3816333 L110.547233,68.6126348 C110.547233,69.4291525 109.884552,70.0918336 109.068035,70.0918336 C108.250777,70.0918336 107.588836,69.4291525 107.588836,68.6126348 L107.588836,62.2801849 C106.958697,62.4680431 106.290839,62.5730663 105.603011,62.5752851 L105.597095,62.5752851 C103.646031,62.5752851 103.639375,59.6242835 105.591178,59.6168875 C108.471917,59.6072727 109.650839,56.7916179 109.071733,55.6533744 C108.229329,53.9988906 106.438759,55.5084129 105.841162,57.2738367 C105.368558,58.6738983 103.326525,58.5851464 102.997403,57.1259168 L102.509267,54.965547 C102.349514,54.2540524 101.660947,53.81547 100.947233,53.972265 C99.9258466,54.1911864 98.8807926,54.3058243 97.8401763,54.3132203 C95.5851378,54.3398459 93.6311162,53.8480123 92.0631655,53.2267488 C91.303597,57.5326965 91.1823027,62.1795994 92.2532426,66.6046225 C92.46107,67.4581202 92.5128419,68.219168 93.3079113,68.4706317 C96.2663088,69.4047458 99.1906848,68.2428351 100.973119,66.0218182 C102.200854,64.4975039 104.503227,66.3509399 103.27993,67.873775 C102.749637,68.5357165 101.055954,70.4046841 98.3497603,71.2848074 L98.3497603,72.94151 C98.3497603,73.7587673 97.6878188,74.4207088 96.8705615,74.4207088 C96.0540438,74.4207088 95.3913627,73.7587673 95.3913627,72.94151 L95.3913627,71.7559322 C94.3914244,71.7551926 93.3929652,71.6006163 92.416694,71.2914638 C89.9168481,70.5015716 89.58107,68.1392912 89.3784198,67.3013251 C89.0241517,65.8391371 88.7179575,64.5759014 88.5870484,62.3400924 C88.3777418,58.7811402 88.6373412,55.2022188 89.3473566,51.6935593 C89.2748758,51.5885362 89.2201455,51.4761171 89.1765091,51.3585208 C88.4931193,50.5353467 87.9354614,49.6241602 87.5309005,48.6316179 C87.1581424,47.7167334 86.9162934,46.7508166 86.8134891,45.7619723 C86.7676339,45.3226502 86.9199914,44.885547 87.2298835,44.5712173 Z M8.8109005,52.8872727 C10.5053227,51.4539291 12.7078496,51.7926656 14.3638127,53.2696456 C15.2358003,51.6181202 17.1387896,50.671433 19.0484352,51.0789522 C19.8716093,51.2564561 20.7147526,51.348906 21.5534583,51.3548228 L21.6422102,51.3548228 C24.4615631,51.3548228 26.686278,50.3911248 28.0611933,49.5775655 C28.0952148,49.5575963 28.1314552,49.5457627 28.1662164,49.5287519 C28.6950299,49.0864715 29.1883427,48.4977504 29.5167248,47.7167334 C29.9279421,46.7382435 29.9382965,45.7856394 29.8347526,45.0512173 C28.331147,45.3677658 26.8319791,45.4520801 25.3564783,45.2989831 C23.2811624,45.08302 21.9787279,44.4602773 20.8293905,43.910755 C19.728127,43.3841602 18.8583581,42.9677658 17.3547526,42.9093374 C10.6325338,42.6549153 7.87752607,48.0872727 8.8109005,52.8872727 Z M6.44935966,46.8432666 C9.05792669,40.1491525 16.2342595,38.433282 22.105939,41.2415408 C23.128805,41.7311556 24.096201,42.1934052 25.6626725,42.3561171 C29.8199606,42.7895223 31.438204,40.6631741 32.2532426,42.697812 C32.632657,43.64302 33.3900068,46.13547 32.2443674,48.8623729 C31.702241,50.1514946 30.9005153,51.1026194 30.049976,51.8074576 C31.0306848,56.7272727 31.2392518,62.172943 29.9959852,67.2998459 C29.6979267,68.5290601 29.3458774,71.754453 23.9823027,71.7559322 L23.9823027,72.94151 C23.9823027,73.7587673 23.3196216,74.4207088 22.5031039,74.4207088 C21.6858466,74.4207088 21.0239051,73.7587673 21.0239051,72.94151 L21.0239051,71.2899846 C18.526278,70.4882589 14.2528728,67.4581202 16.3193134,65.7947612 C16.9575877,65.2844376 17.8872641,65.3842835 18.3998065,66.0210786 C18.8761085,66.6134977 20.6526262,68.5653005 23.4727187,68.7783051 C24.2589128,68.8382126 26.5960469,68.8382126 26.9007618,67.5232049 C27.367449,65.5277658 27.6958312,64.5204314 27.8348758,62.1662866 C28.0072025,59.222681 27.8356154,56.2628043 27.3312087,53.3473035 C26.6574336,53.5906317 26.1537664,53.6882589 26.008805,53.7134052 C25.927449,53.7274576 25.8475723,53.7289368 25.7684352,53.7296764 C19.702241,55.427057 17.3850762,52.6476425 16.8643982,54.9662866 L16.3762626,57.1259168 C16.0500993,58.5733128 14.0110238,58.6909091 13.532503,57.2738367 C12.9349067,55.5076733 11.1376802,54.0048074 10.3034121,55.6526348 C9.71617014,56.8056703 10.9254151,59.6072727 13.7824876,59.6168875 C15.7335507,59.6242835 15.7283735,62.5752851 13.7765708,62.5752851 C13.1427341,62.5752851 12.4608235,62.4813559 11.7848296,62.2801849 L11.7848296,68.6126348 C11.7848296,70.5666564 8.82643208,70.5696148 8.82643208,68.6126348 L8.82643208,60.3816333 C7.92633963,59.3424961 7.27327338,57.9587057 7.20449063,56.5601233 C6.18014549,55.914453 4.80449063,51.0648998 6.44935966,46.8432666 Z M92.230315,116.856703 L16.7911778,116.856703 C15.9746601,116.856703 15.3119791,117.519384 15.3119791,118.335901 C15.3119791,119.152419 15.9746601,119.8151 16.7911778,119.8151 L92.230315,119.8151 C93.0468327,119.8151 93.7095137,119.152419 93.7095137,118.335901 C93.7095137,117.519384 93.0468327,116.856703 92.230315,116.856703 Z M98.3320099,118.335901 C98.3320099,119.253744 97.5850145,120 96.6679113,120 C95.750808,120 95.0038127,119.253744 95.0038127,118.335901 C95.0038127,117.418059 95.750808,116.671803 96.6679113,116.671803 C97.5850145,116.671803 98.3320099,117.418059 98.3320099,118.335901 L98.3320099,118.335901 Z" id="Fill-31"></path>
        </g>
    </g>
</svg>