<?xml version="1.0" encoding="UTF-8"?>
<svg width="120px" height="120px" viewBox="0 0 120 120" version="1.1" xmlns="http://www.w3.org/2000/svg" xmlns:xlink="http://www.w3.org/1999/xlink">
    <!-- Generator: Sketch 41.2 (35397) - http://www.bohemiancoding.com/sketch -->
    <title>technical_skills</title>
    <desc>Created with Sketch.</desc>
    <defs></defs>
    <g id="LP_Icons" stroke="none" stroke-width="1" fill="none" fill-rule="evenodd">
        <g id="technical_skills" fill="#2B2E2D">
            <path d="M66.2173755,73.5056343 C65.7564522,72.8484188 65.916394,71.9411123 66.5736096,71.480916 C67.6866594,70.7001091 68.7284624,69.476554 69.2911668,68.2864413 C70.5379862,65.6459469 70.2479099,61.5049073 68.7546347,60.6470374 C68.0588877,60.2471828 67.8189749,59.3580516 68.2188295,58.6623046 C68.6194111,57.9665576 69.5078153,57.7266449 70.2042893,58.1264995 C73.3500545,59.9338422 73.7099237,65.740458 71.9207561,69.5281716 C71.1428571,71.1733915 69.7680843,72.7931661 68.2420938,73.8625954 C67.9890949,74.0407125 67.6975645,74.1257724 67.4096692,74.1257724 C66.9509269,74.1257724 66.5001818,73.909851 66.2173755,73.5056343 Z M16.9443839,102.697201 C16.69502,103.221374 16.173028,103.528899 15.6292257,103.528899 C15.4205743,103.528899 15.2082879,103.483824 15.0076336,103.387859 C10.518357,101.259905 7.00763359,98.0436205 4.57288259,93.827699 C4.17157397,93.131952 4.41003272,92.2428208 5.10505271,91.8415122 C5.8000727,91.4380225 6.68993093,91.6779353 7.09196656,92.3736823 C9.22500909,96.0683388 12.3075245,98.8898582 16.2522719,100.760451 C16.9778262,101.104326 17.2875318,101.971647 16.9443839,102.697201 Z M115.384951,93.827699 C115.115231,94.2944384 114.626681,94.5547074 114.124318,94.5547074 C113.877863,94.5547074 113.627772,94.4921847 113.398764,94.3598691 C112.70229,93.9585605 112.464558,93.0687023 112.865867,92.3736823 C117.624864,84.1323155 116.151945,74.1294075 108.607779,63.4467466 C108.144675,62.7909851 108.300981,61.8829517 108.956743,61.4198473 C109.611778,60.956743 110.520538,61.1137768 110.982915,61.7688113 C119.229371,73.4467466 120.751727,84.5321701 115.384951,93.827699 Z M34.785169,16.9218466 C37.7121047,10.8215194 41.3326063,6.08869502 45.5463468,2.85568884 C46.1839331,2.36641221 47.0970556,2.48636859 47.5856052,3.12395493 C48.0741549,3.76081425 47.9541985,4.67393675 47.3173391,5.16248637 C43.4685569,8.11486732 40.1344965,12.4950927 37.4060342,18.1795711 C37.1559433,18.7008361 36.6368593,19.0047256 36.0952381,19.0047256 C35.8829517,19.0047256 35.6699382,18.958924 35.4663759,18.8615049 C34.7422755,18.5139949 34.436932,17.6452199 34.785169,16.9218466 Z M112.890585,96.0087241 C112.890585,96.9102145 112.156307,97.6444929 111.254816,97.6444929 C110.353326,97.6444929 109.619048,96.9102145 109.619048,96.0087241 C109.619048,95.1072337 110.353326,94.3729553 111.254816,94.3729553 C112.156307,94.3729553 112.890585,95.1072337 112.890585,96.0087241 Z M3.63576881,90.7960742 C2.73427844,90.7960742 2,90.0617957 2,89.1603053 C2,88.258815 2.73427844,87.5245365 3.63576881,87.5245365 C4.53725918,87.5245365 5.27153762,88.258815 5.27153762,89.1603053 C5.27153762,90.0617957 4.53725918,90.7960742 3.63576881,90.7960742 Z M47.9832788,1.63576881 C47.9832788,0.727008361 48.7175573,0 49.6190476,0 C50.520538,0 51.2548164,0.727008361 51.2548164,1.63576881 C51.2548164,2.53725918 50.520538,3.27153762 49.6190476,3.27153762 C48.7175573,3.27153762 47.9832788,2.53725918 47.9832788,1.63576881 Z M50.8913123,43.1188659 C50.8913123,42.2173755 51.6255907,41.4830971 52.5270811,41.4830971 C53.4285714,41.4830971 54.1628499,42.2173755 54.1628499,43.1188659 C54.1628499,44.0203562 53.4285714,44.7546347 52.5270811,44.7546347 C51.6255907,44.7546347 50.8913123,44.0203562 50.8913123,43.1188659 Z M107.830607,89.4656489 C103.148673,97.5790622 92.9123955,98.1970193 85.1479462,97.2882588 C84.3918575,97.2010178 83.6139586,97.0919666 82.8287895,96.9611051 C84.6753908,91.2250091 86.0203562,84.5728826 86.7982552,77.3173391 C92.6870229,73.0207197 97.7760814,68.5278081 101.818248,64.0639767 C102.319884,64.6819338 102.806979,65.2998909 103.264995,65.9178481 C107.932388,72.1846601 112.512541,81.3522356 107.830607,89.4656489 Z M79.9716467,96.4303889 C74.868048,95.3616867 69.3209742,93.5877863 63.5339876,91.1741185 C66.9218466,89.5528899 70.3533261,87.7499091 73.7920756,85.7651763 C77.2453653,83.7731734 80.5314431,81.6939295 83.6357688,79.563795 C82.8360596,85.8669575 81.6001454,91.5303526 79.9716467,96.4303889 Z M77.390767,102.915304 C76.7219193,102.682661 75.9949109,102.551799 75.2460923,102.551799 C71.6401309,102.551799 68.7030171,105.488913 68.7030171,109.094875 C68.7030171,110.599782 69.219193,111.995638 70.084333,113.100691 C67.0745184,115.703381 63.6793893,117.091967 59.9789168,117.091967 C51.9309342,117.091967 45.3224282,110.512541 40.9676481,99.1930207 C46.8636859,97.9280262 53.2977099,95.7542712 59.9789168,92.8026172 C66.6601236,95.7542712 73.0941476,97.9280262 78.9901854,99.1930207 C78.4885496,100.494366 77.9578335,101.73755 77.390767,102.915304 Z M75.2460923,112.729916 C75.04253,112.729916 74.8462377,112.715376 74.6499455,112.679026 C73.6103235,112.511814 72.7161032,111.893857 72.170847,111.035987 C71.8146129,110.47619 71.6110505,109.807343 71.6110505,109.094875 C71.6110505,107.088332 73.2395493,105.459833 75.2460923,105.459833 C75.5150854,105.459833 75.7768084,105.488913 76.0312614,105.547074 C77.041803,105.765176 77.8924028,106.412214 78.4013086,107.284624 C78.7066521,107.81534 78.8811341,108.433297 78.8811341,109.094875 C78.8811341,111.101418 77.2526354,112.729916 75.2460923,112.729916 Z M36.3220647,79.563795 C39.4263904,81.6939295 42.7124682,83.7731734 46.1657579,85.7651763 C49.6045075,87.7499091 53.0359869,89.5528899 56.4238459,91.1741185 C50.6368593,93.5877863 45.0897855,95.3616867 39.9861868,96.4303889 C38.3576881,91.5303526 37.1217739,85.8669575 36.3220647,79.563795 Z M34.8098873,97.2882588 C27.045438,98.1970193 16.8091603,97.5790622 12.1272265,89.4656489 C10.084333,85.9251181 9.80079971,82.1810251 10.5278081,78.5605234 L10.5423482,78.5605234 C14.1483097,78.5605234 17.0854235,75.6234097 17.0854235,72.0174482 C17.0854235,70.3598691 16.4601963,68.8404217 15.4351145,67.6844784 C15.8495093,67.0737913 16.2711741,66.4849146 16.692839,65.9178481 C17.1508542,65.2998909 17.6379498,64.6819338 18.1395856,64.0639767 C22.1817521,68.5278081 27.2708106,73.0207197 33.1595783,77.3173391 C33.9374773,84.5728826 35.2824427,91.2250091 37.129044,96.9611051 C36.343875,97.0919666 35.565976,97.2010178 34.8098873,97.2882588 Z M8.47037441,75.0054526 C7.52526354,74.351145 6.90730643,73.2533624 6.90730643,72.0174482 C6.90730643,70.0109051 8.53580516,68.3824064 10.5423482,68.3824064 C10.869502,68.3824064 11.1821156,68.4260269 11.480189,68.5059978 C12.4761905,68.7677208 13.30498,69.4438386 13.7702654,70.345329 C14.0319884,70.8469647 14.17739,71.4140313 14.17739,72.0174482 C14.17739,73.7477281 12.9705562,75.1944747 11.3565976,75.5579789 C11.0948746,75.6234097 10.8186114,75.65249 10.5423482,75.65249 C9.77171937,75.65249 9.05925118,75.4125772 8.47037441,75.0054526 Z M32.7960742,73.4278444 C27.823337,69.6328608 23.5121774,65.7215558 20.0443475,61.8393312 C23.5121774,57.9571065 27.823337,54.0458015 32.7960742,50.2508179 C32.5052708,53.9876409 32.3525991,57.8698655 32.3525991,61.8393312 C32.3525991,65.8087968 32.5052708,69.6910214 32.7960742,73.4278444 Z M12.1272265,34.2130134 C15.827699,27.8080698 22.9741912,26.0777899 29.6408579,26.0777899 C31.4220284,26.0777899 33.1741185,26.2013813 34.8098873,26.3904035 C35.565976,26.4776445 36.343875,26.5866957 37.129044,26.7175573 C35.2824427,32.4536532 33.9374773,39.1057797 33.1595783,46.3613232 C27.2708106,50.6579426 22.1817521,55.1508542 18.1395856,59.6146856 C17.6379498,58.9967285 17.1508542,58.3787714 16.692839,57.7608142 C12.0254453,51.4940022 7.44529262,42.3264268 12.1272265,34.2130134 Z M39.9861868,27.2482734 C45.0897855,28.3169756 50.6368593,30.090876 56.4238459,32.5045438 C53.0359869,34.1257724 49.6045075,35.9287532 46.1657579,37.913486 C42.7124682,39.9054889 39.4263904,41.9847328 36.3220647,44.1148673 C37.1217739,37.8117048 38.3576881,32.1483097 39.9861868,27.2482734 Z M59.9789168,6.58669575 C68.0268993,6.58669575 74.6354053,13.1661214 78.9901854,24.4856416 C73.0941476,25.7506361 66.6601236,27.9243911 59.9789168,30.8760451 C53.2977099,27.9243911 46.8636859,25.7506361 40.9676481,24.4856416 C45.3224282,13.1661214 51.9309342,6.58669575 59.9789168,6.58669575 Z M83.6357688,44.1148673 C80.5314431,41.9847328 77.2453653,39.9054889 73.7920756,37.913486 C70.3533261,35.9287532 66.9218466,34.1257724 63.5339876,32.5045438 C69.3209742,30.090876 74.868048,28.3169756 79.9716467,27.2482734 C81.6001454,32.1483097 82.8360596,37.8117048 83.6357688,44.1148673 Z M84.697201,61.8393312 C84.697201,66.7102872 84.4790985,71.3486005 84.0647037,75.7106507 C80.436932,78.3133406 76.5038168,80.8360596 72.3380589,83.2424573 C68.1795711,85.6415849 64.0283533,87.7789895 59.9789168,89.6255907 C55.9294802,87.7789895 51.7782625,85.6415849 47.6197746,83.2424573 C43.4540167,80.8360596 39.5209015,78.3133406 35.8931298,75.7106507 C35.478735,71.3486005 35.2606325,66.7102872 35.2606325,61.8393312 C35.2606325,56.9683751 35.478735,52.3300618 35.8931298,47.9680116 C39.5209015,45.3653217 43.4540167,42.8426027 47.6197746,40.436205 C51.7782625,38.0370774 55.9294802,35.8996728 59.9789168,34.0530716 C64.0283533,35.8996728 68.1795711,38.0370774 72.3380589,40.436205 C76.5038168,42.8426027 80.436932,45.3653217 84.0647037,47.9680116 C84.4790985,52.3300618 84.697201,56.9683751 84.697201,61.8393312 Z M87.1617594,50.2508179 C92.1344965,54.0458015 96.4456561,57.9571065 99.913486,61.8393312 C96.4456561,65.7215558 92.1344965,69.6328608 87.1617594,73.4278444 C87.4525627,69.6910214 87.6052345,65.8087968 87.6052345,61.8393312 C87.6052345,57.8698655 87.4525627,53.9876409 87.1617594,50.2508179 Z M85.1479462,26.3904035 C85.7295529,26.3249727 86.3184297,26.2668121 86.9218466,26.2231916 C87.2853508,29.4874591 90.0625227,32.0319884 93.4213013,32.0319884 C96.3075245,32.0319884 98.7720829,30.1490367 99.6299527,27.5390767 C102.945111,28.7459106 105.867684,30.8251545 107.830607,34.2130134 C112.512541,42.3264268 107.932388,51.4940022 103.264995,57.7608142 C102.806979,58.3787714 102.319884,58.9967285 101.818248,59.6146856 C97.7760814,55.1508542 92.6870229,50.6579426 86.7982552,46.3613232 C86.0203562,39.1057797 84.6753908,32.4536532 82.8287895,26.7175573 C83.6139586,26.5866957 84.3918575,26.4776445 85.1479462,26.3904035 Z M90.6295892,23.1624864 C91.2984369,22.3627772 92.3017085,21.8538713 93.4213013,21.8538713 C94.7735369,21.8538713 95.9585605,22.5954198 96.5837877,23.7004726 C96.8818611,24.2239186 97.0563431,24.8346056 97.0563431,25.4889131 C97.0563431,25.9251181 96.9763722,26.346783 96.8382406,26.7320974 C96.3293348,28.1279535 94.9916394,29.1239549 93.4213013,29.1239549 C91.6183206,29.1239549 90.1206834,27.8080698 89.8371501,26.08506 C89.8007997,25.8887677 89.7862595,25.6924755 89.7862595,25.4889131 C89.7862595,24.6019629 90.1061432,23.7949836 90.6295892,23.1624864 Z M105.591421,64.1802981 C105.009815,63.4023991 104.399128,62.6245002 103.74482,61.8393312 C104.399128,61.0541621 105.009815,60.2762632 105.591421,59.4983642 C113.035987,49.5092694 114.679026,40.261723 110.346056,32.7589967 C108.06325,28.8113413 104.537259,26.0487096 99.8989458,24.5292621 L99.8916758,24.5292621 C99.4263904,21.3740458 96.7001091,18.9458379 93.4213013,18.9458379 C90.5932388,18.9458379 88.172301,20.7560887 87.2635405,23.2788077 C86.4638313,23.3296983 85.649582,23.4096692 84.8135224,23.5041803 C83.8538713,23.6132316 82.87241,23.7586332 81.8691385,23.9331152 C81.5129044,22.9807343 81.1494002,22.0574337 80.7640858,21.1632134 C75.827699,9.72737186 68.6448564,3.6786623 59.9789168,3.6786623 C51.3129771,3.6786623 44.1301345,9.72737186 39.1937477,21.1632134 C38.8084333,22.0574337 38.4449291,22.9807343 38.088695,23.9331152 C37.0854235,23.7586332 36.1039622,23.6132316 35.1443112,23.5041803 C22.7706289,22.0501636 13.9447474,25.2562704 9.61177754,32.7589967 C5.27880771,40.261723 6.9218466,49.5092694 14.3664122,59.4983642 C14.9480189,60.2762632 15.5587059,61.0541621 16.2130134,61.8393312 C15.5587059,62.6245002 14.9480189,63.4023991 14.3664122,64.1802981 C13.915667,64.7909851 13.479462,65.394402 13.0796074,65.9905489 C12.3017085,65.656125 11.4438386,65.474373 10.5423482,65.474373 C6.93638677,65.474373 3.99927299,68.4114867 3.99927299,72.0174482 C3.99927299,74.5983279 5.5041803,76.8375136 7.68520538,77.8989458 C6.71828426,82.6172301 7.35078153,87.0083606 9.61177754,90.9196656 C13.2613595,97.2446383 20.1170483,100.516176 29.5899673,100.516176 C31.3493275,100.516176 33.2031988,100.399855 35.1443112,100.174482 C36.1039622,100.065431 37.0854235,99.9200291 38.088695,99.7455471 C38.4449291,100.697928 38.8084333,101.621229 39.1937477,102.515449 C44.1301345,113.95129 51.3129771,120 59.9789168,120 C64.5736096,120 68.7539077,118.2988 72.4034896,114.990912 C73.2686296,115.405307 74.2282806,115.63795 75.2460923,115.63795 C78.8520538,115.63795 81.7891676,112.700836 81.7891676,109.094875 C81.7891676,107.291894 81.0548891,105.656125 79.8698655,104.471101 C80.175209,103.838604 80.4732824,103.184297 80.7640858,102.515449 C81.1494002,101.621229 81.5129044,100.697928 81.8691385,99.7455471 C82.87241,99.9200291 83.8538713,100.065431 84.8135224,100.174482 C86.7546347,100.399855 88.608506,100.516176 90.3678662,100.516176 C99.8407852,100.516176 106.696474,97.2446383 110.346056,90.9196656 C114.679026,83.4169393 113.035987,74.1693929 105.591421,64.1802981 Z M71.654671,55.6015994 C76.7509996,58.5314431 76.5983279,66.434024 74.5481643,70.7669938 C72.6506725,74.7873501 68.2086514,78.5459833 64.0792439,77.8989458 C62.9669211,77.7244638 61.8836787,77.2300981 60.873137,76.4449291 C60.611414,76.2413668 60.2915304,76.1395856 59.9789168,76.1395856 C59.6663032,76.1395856 59.3464195,76.2413668 59.0846965,76.4449291 C58.0741549,77.2300981 56.9909124,77.7244638 55.8785896,77.8989458 C51.7491821,78.5387132 47.307161,74.7873501 45.4096692,70.7669938 C43.3595056,66.434024 43.2068339,58.5314431 48.3031625,55.6015994 C52.2188295,53.3565976 56.9625591,55.3442385 58.6157761,56.173755 C58.778626,56.6157761 59.1515812,56.9698292 59.6444929,57.0861505 C59.7564522,57.1130498 59.8698655,57.126136 59.9803708,57.126136 C60.5808797,57.126136 61.1254089,56.7488186 61.3376954,56.175936 L61.3384224,56.175936 C62.9887314,55.3471465 67.736096,53.3551436 71.654671,55.6015994 Z M62.9305707,45.6946565 C63.828426,44.9734642 64.9618321,44.5961469 66.3017085,44.5736096 C65.9752817,45.3580516 65.4700109,46.1824791 64.6906579,46.8804071 C63.5288986,47.9200291 61.8989458,48.5801527 60.9698292,48.6339513 C61.1239549,47.9527445 61.7957107,46.607779 62.9305707,45.6946565 Z M61.6655762,52.8535078 C61.6626681,52.8549618 61.6597601,52.8556888 61.6568521,52.8571429 C61.6328608,52.4274809 61.5754271,51.9709197 61.4918212,51.5019993 C63.1566703,51.2969829 65.1784806,50.346783 66.6295892,49.047619 C68.5685205,47.3115231 69.3260632,45.1094148 69.6205016,43.568157 C69.7688113,42.7880771 69.2649945,42.0334424 68.4878226,41.8720465 C67.8364231,41.736823 67.1246819,41.6648491 66.4303889,41.6648491 C64.3845874,41.6648491 62.5438023,42.2748092 61.1094148,43.4285714 C60.2108324,44.1504907 59.4227554,45.1392221 58.8651399,46.1599418 C58.0378044,45.2446383 57.2024718,44.6165031 56.6223192,44.2464558 C55.9462014,43.8160669 55.047619,44.0130862 54.6143221,44.6906579 C54.1824791,45.3682297 54.3816794,46.2668121 55.0585242,46.698655 C55.8676845,47.213377 57.3486005,48.3867684 58.1882952,50.4543802 C58.5634315,51.3776808 58.7153762,52.2559069 58.7575427,53.0352599 C56.1039622,51.9229371 51.2402763,50.5634315 46.8564158,53.0861505 C40.175209,56.9247546 40.1970193,66.5430752 42.7778989,72.0101781 C45.0970556,76.9247546 50.6368593,81.6648491 56.3293348,80.7706289 C57.6015994,80.5670665 58.8229735,80.1017812 59.9789168,79.3675027 C61.1348601,80.1017812 62.3562341,80.5670665 63.6284987,80.7706289 C64.1010542,80.8433297 64.5663395,80.8796801 65.0388949,80.8796801 C70.2151945,80.8796801 75.0498001,76.51763 77.1799346,72.0101781 C79.7608142,66.5430752 79.7826245,56.9247546 73.1014177,53.0861505 C68.95747,50.7015631 64.3918575,51.7848055 61.6655762,52.8535078 L61.6655762,52.8535078 Z" id="Fill-25"></path>
        </g>
    </g>
</svg>