<?xml version="1.0" encoding="UTF-8"?>
<svg width="120px" height="120px" viewBox="0 0 120 120" version="1.1" xmlns="http://www.w3.org/2000/svg" xmlns:xlink="http://www.w3.org/1999/xlink">
    <!-- Generator: Sketch 41.2 (35397) - http://www.bohemiancoding.com/sketch -->
    <title>android</title>
    <desc>Created with Sketch.</desc>
    <defs></defs>
    <g id="Company-Icons" stroke="none" stroke-width="1" fill="none" fill-rule="evenodd">
        <g id="android">
            <path d="M71.3127753,75.0281449 L71.4831131,75.0281449 C73.8771415,75.0281449 75.8054332,73.0653451 75.8054332,70.6294665 L75.8054332,47.9772394 C75.8054332,47.8421439 75.8005384,47.7080274 75.7892805,47.5763583 L44.1468429,47.5763583 C44.1353402,47.7085169 44.1253059,47.8421439 44.1253059,47.9772394 L44.1253059,70.6294665 C44.1253059,73.0655898 46.0535977,75.0281449 48.4473813,75.0281449 L48.6184533,75.0281449 L48.6184533,83.9880078 C48.6184533,85.9128732 50.1789036,87.4730788 52.1035242,87.4730788 C54.0283896,87.4730788 55.5888399,85.9128732 55.5888399,83.9880078 L55.5888399,75.0281449 L64.3423886,75.0281449 L64.3423886,83.9880078 C64.3423886,85.9128732 65.902839,87.4730788 67.8274596,87.4730788 C69.752325,87.4730788 71.3127753,85.9128732 71.3127753,83.9880078 L71.3127753,75.0281449 Z M38.5254528,49.5922663 C40.4500734,49.5922663 42.0105237,51.1527166 42.0105237,53.077582 L42.0105237,68.0286344 C42.0105237,69.9534998 40.4500734,71.5139501 38.5254528,71.5139501 C36.6005874,71.5139501 35.0401371,69.9534998 35.0401371,68.0288791 L35.0401371,53.0778267 C35.0398923,51.1529613 36.6003426,49.5922663 38.5254528,49.5922663 Z M81.4057758,49.5922663 C83.3303965,49.5922663 84.8908468,51.1527166 84.8908468,53.077582 L84.8908468,68.0286344 C84.8908468,69.9534998 83.3303965,71.5139501 81.4057758,71.5139501 C79.4809104,71.5139501 77.9204601,69.9534998 77.9204601,68.0288791 L77.9204601,53.0778267 C77.9204601,51.1529613 79.4809104,49.5922663 81.4057758,49.5922663 Z M44.2486539,46.0883505 C44.3455702,39.1304454 50.4185022,33.4255996 58.2139011,32.6737641 L61.7165932,32.6737641 C69.5124816,33.4258443 75.5849241,39.1309349 75.6818404,46.0883505 L44.2486539,46.0883505 Z M55.2834068,39.8529124 C55.2863436,40.8255017 54.4813999,41.6162506 53.4853157,41.6189427 C52.489721,41.6213901 51.6801273,40.8352912 51.6771904,39.8627019 L51.6771904,39.8529124 C51.6744983,38.8800783 52.479442,38.0895742 53.4752814,38.086882 C54.4708762,38.0841899 55.2804699,38.8700441 55.2834068,39.8431229 L55.2834068,39.8529124 Z M68.743025,39.8529124 C68.7459618,40.8255017 67.9410181,41.6162506 66.9449339,41.6189427 C65.9493392,41.6213901 65.1397455,40.8352912 65.1368086,39.8627019 L65.1368086,39.8529124 C65.1341165,38.8800783 65.9390602,38.0895742 66.9348997,38.086882 C67.9304944,38.0841899 68.7400881,38.8700441 68.743025,39.8431229 L68.743025,39.8529124 Z" id="Combined-Shape" fill="#FFFFFF"></path>
            <path d="M45.4608419,32.0022026 L49.1372981,38.3702888 M74.4703867,32.0022026 L70.7936858,38.3702888" id="Shape" stroke="#FFFFFF" stroke-width="2"></path>
        </g>
    </g>
</svg>