<?xml version="1.0" encoding="UTF-8"?>
<svg width="120px" height="120px" viewBox="0 0 120 120" version="1.1" xmlns="http://www.w3.org/2000/svg" xmlns:xlink="http://www.w3.org/1999/xlink">
    <!-- Generator: Sketch 41.2 (35397) - http://www.bohemiancoding.com/sketch -->
    <title>css3</title>
    <desc>Created with Sketch.</desc>
    <defs></defs>
    <g id="Company-Icons" stroke="none" stroke-width="1" fill="none" fill-rule="evenodd">
        <g id="css3" fill="#FFFFFF">
            <path d="M63.9342105,34.9802632 L61.2105263,32.3157895 L63.9342105,32.3157895 L63.9342105,29.4144737 L57.0657895,29.4144737 L57.0657895,32.3157895 C57.9539474,33.2039474 58.4276316,33.6776316 59.7894737,34.9802632 L57.0657895,34.9802632 L57.0657895,37.6447368 L63.875,37.6447368 L63.875,34.9802632 L63.9342105,34.9802632 Z" id="Shape"></path>
            <path d="M73.5855263,34.9802632 L70.8618421,32.3157895 L73.5855263,32.3157895 L73.5855263,29.4144737 L66.7763158,29.4144737 L66.7763158,32.3157895 C67.6644737,33.2039474 68.1381579,33.6776316 69.5,34.9802632 L66.7763158,34.9802632 L66.7763158,37.6447368 L73.5855263,37.6447368 L73.5855263,34.9802632 Z" id="Shape"></path>
            <polygon id="Shape" points="54.1644737 34.9802632 50.2565789 34.9802632 50.2565789 32.3157895 54.1644737 32.3157895 54.1644737 29.4144737 47.3552632 29.4144737 47.3552632 37.6447368 54.1644737 37.6447368"></polygon>
            <path d="M38.3552632,41.6118421 L42.5,86.4934211 L60.4407895,91.3486842 L78.3815789,86.4934211 L82.5263158,41.6118421 L38.3552632,41.6118421 L38.3552632,41.6118421 Z M74.2368421,50.7302632 L73.7039474,56.1776316 L73.7039474,56.1776316 L60.5,61.8026316 L60.4407895,61.8026316 L73.2302632,61.8026316 L71.75,78.6184211 L60.5,81.9342105 L60.5,81.9342105 L60.5,81.9342105 L49.1907895,78.5592105 L48.4802632,70.0921053 L48.4802632,70.0921053 L54.1052632,70.0921053 L54.4605263,74.4736842 L60.5,76.0131579 L60.5592105,76.0131579 L60.5592105,76.0131579 L66.7763158,74.2368421 L67.1907895,67.1907895 L48.0657895,67.0723684 L48.0657895,67.0723684 L48.0657895,67.0723684 L47.6513158,61.8026316 L60.5,56.4736842 L61.2697368,56.1776316 L47.1184211,56.1776316 L46.4671053,50.7302632 L74.2368421,50.7302632 L74.2368421,50.7302632 L74.2368421,50.7302632 Z" id="Shape"></path>
        </g>
    </g>
</svg>