<?xml version="1.0" encoding="UTF-8"?>
<svg width="120px" height="120px" viewBox="0 0 120 120" version="1.1" xmlns="http://www.w3.org/2000/svg" xmlns:xlink="http://www.w3.org/1999/xlink">
    <!-- Generator: Sketch 41.2 (35397) - http://www.bohemiancoding.com/sketch -->
    <title>java</title>
    <desc>Created with Sketch.</desc>
    <defs></defs>
    <g id="Company-Icons" stroke="none" stroke-width="1" fill="none" fill-rule="evenodd">
        <g id="java" fill="#FFFFFF">
            <g id="Group" transform="translate(38.000000, 77.230769)">
                <path d="M42.7576792,5.23838278 L42.4457863,5.23838278 L42.4457863,5.06825939 L43.2964033,5.06825939 L43.2964033,5.23838278 L42.9845104,5.23838278 L42.9845104,6.11735364 L42.7576792,6.11735364 L42.7576792,5.23838278 L42.7576792,5.23838278 Z M44.4305592,5.26673668 L44.4305592,5.26673668 L44.1186663,6.08899974 L43.9768968,6.08899974 L43.6650039,5.26673668 L43.6650039,5.26673668 L43.6650039,6.08899974 L43.4665266,6.08899974 L43.4665266,5.03990549 L43.7784195,5.03990549 L44.0619585,5.77710685 L44.3454975,5.03990549 L44.6573904,5.03990549 L44.6573904,6.08899974 L44.4589131,6.08899974 L44.4305592,5.26673668 L44.4305592,5.26673668 Z" id="Shape"></path>
                <path d="M15.2543975,15.0488317 C14.2903649,15.8994487 13.2696246,16.3531111 12.3622998,16.3531111 C11.0580205,16.3531111 10.349173,15.5592019 10.349173,14.3116303 C10.349173,12.9506432 11.1147283,11.9582568 14.1485954,11.9582568 L15.2827514,11.9582568 L15.2827514,15.0488317 L15.2543975,15.0488317 Z M17.919664,18.054345 L17.919664,8.75426621 C17.919664,6.37253872 16.5586768,4.8130743 13.2979785,4.8130743 C11.3982673,4.8130743 9.72538724,5.29509057 8.36440011,5.89052245 L8.76135469,7.53504857 C9.83880284,7.13809399 11.19979,6.76949331 12.5607771,6.76949331 C14.4321344,6.76949331 15.2543975,7.53504857 15.2543975,9.094513 L15.2543975,10.2570228 L14.3187188,10.2570228 C9.75374114,10.2570228 7.68390654,12.0433185 7.68390654,14.680231 C7.68390654,16.9768968 9.04489367,18.2811762 11.5967446,18.2811762 C13.2412707,18.2811762 14.4604883,17.6006826 15.6229982,16.6082961 L15.8214755,18.0259911 L17.919664,18.054345 L17.919664,18.054345 Z" id="Shape"></path>
                <path d="M26.7944342,18.054345 L23.4770281,18.054345 L19.4791284,5.06825939 L22.3995799,5.06825939 L24.8663691,13.0640588 L25.4050932,15.4741402 C26.6526647,12.0149646 27.5599895,8.47072722 27.985298,5.09661328 L30.7923339,5.09661328 C30.0551326,9.32134418 28.6941454,14.0280914 26.7944342,18.054345" id="Shape"></path>
                <path d="M39.5253347,15.0488317 C38.5613022,15.8994487 37.5405618,16.3531111 36.6332371,16.3531111 C35.3289577,16.3531111 34.6201103,15.5592019 34.6201103,14.3116303 C34.6201103,12.9506432 35.3856655,11.9582568 38.4195327,11.9582568 L39.5536886,11.9582568 L39.5536886,15.0488317 L39.5253347,15.0488317 Z M42.1906012,18.054345 L42.1906012,8.75426621 C42.1906012,6.37253872 40.8296141,4.8130743 37.5689157,4.8130743 C35.6692045,4.8130743 33.9963245,5.29509057 32.6353374,5.89052245 L33.0322919,7.53504857 C34.1097401,7.13809399 35.4990811,6.76949331 36.8317144,6.76949331 C38.7030717,6.76949331 39.5253347,7.53504857 39.5253347,9.094513 L39.5253347,10.2570228 L38.5896561,10.2570228 C34.0246784,10.2570228 31.9548438,12.0433185 31.9548438,14.680231 C31.9548438,16.9768968 33.3158309,18.2811762 35.8676818,18.2811762 C37.5122079,18.2811762 38.7314256,17.6006826 39.8939354,16.6082961 L40.0924127,18.0259911 L42.1906012,18.054345 L42.1906012,18.054345 Z" id="Shape"></path>
                <path d="M4.76345498,20.2375952 C3.99789971,21.3433972 2.77868207,22.2223681 1.44604883,22.7043844 L0.141769493,21.1449199 C1.16250985,20.6345498 2.0414807,19.7839328 2.43843528,18.9900236 C2.77868207,18.2811762 2.94880546,17.3738514 2.94880546,15.2189551 L2.94880546,0.389866107 L5.78419533,0.389866107 L5.78419533,15.0204778 C5.75584143,17.9409294 5.52901024,19.1034392 4.76345498,20.2375952" id="Shape"></path>
            </g>
            <path d="M52.8574429,61.0903124 C52.8574429,61.0903124 50.6741927,62.337884 54.3885534,62.7915463 C58.8968233,63.3019165 61.1934891,63.2452087 66.1554214,62.2811762 C66.1554214,62.2811762 67.4597007,63.1034392 69.2743502,63.8122867 C58.1596219,68.5757417 44.1244421,63.5287477 52.8574429,61.0903124 Z M51.4964558,54.8808086 C51.4964558,54.8808086 49.0580205,56.6954581 52.7723812,57.0640588 C57.5641901,57.5460751 61.3636125,57.6027829 67.941717,56.3268574 C67.941717,56.3268574 68.8490417,57.2341822 70.2667367,57.7445524 C56.8269887,61.6857443 41.8844841,58.0847992 51.4964558,54.8808086 Z M62.9230769,44.3331583 C65.6734051,47.4804411 62.2142295,50.3158309 62.2142295,50.3158309 C62.2142295,50.3158309 69.1609346,46.7148858 65.985298,42.2349698 C63.0081386,38.0385928 60.7114728,35.9687582 73.1021265,28.7668679 C73.1021265,28.7952218 53.6513521,33.6437385 62.9230769,44.3331583 Z M77.6387503,65.683644 C77.6387503,65.683644 79.2549226,67.0162772 75.8808086,68.0370176 C69.4728275,69.9934366 49.1714361,70.5605146 43.5573641,68.1220793 C41.5442373,67.2431084 45.3436598,66.0238908 46.5345235,65.7687057 C47.782095,65.4851667 48.4909425,65.5418745 48.4909425,65.5418745 C46.2509845,63.9540562 33.9170386,68.6608034 42.2530848,69.9934366 C64.8794959,73.6794434 83.5080074,68.3489105 77.6387503,65.683644 Z M53.8781833,48.4444736 C53.8781833,48.4444736 43.5573641,50.8829089 50.2205303,51.7902337 C53.0275663,52.1588343 58.6416382,52.0737726 63.8587556,51.6484642 C68.1401943,51.2798635 72.421633,50.5143082 72.421633,50.5143082 C72.421633,50.5143082 70.9188763,51.1664479 69.8130743,51.9036493 C59.3221318,54.6539774 39.105802,53.378052 44.9183513,50.571016 C49.8802835,48.1609346 53.8781833,48.4444736 53.8781833,48.4444736 Z M72.3932791,58.7936466 C83.054345,53.2646364 78.1207666,47.9341034 74.6899449,48.6429509 C73.8393279,48.8130743 73.4707272,48.9831977 73.4707272,48.9831977 C73.4707272,48.9831977 73.7826201,48.5011814 74.378052,48.2743502 C81.1829877,45.8926227 86.400105,55.334471 72.1948018,59.0771856 C72.1948018,59.0771856 72.3365713,58.9070622 72.3932791,58.7936466 Z M65.985298,17.1984773 C65.985298,17.1984773 71.8829089,23.0960882 60.3995799,32.1693358 C51.1845629,39.4562877 58.3013914,43.5959569 60.3995799,48.331058 C55.0123392,43.4825413 51.0711473,39.2011027 53.7080599,35.2315568 C57.592544,29.3906537 68.3670255,26.5552638 65.985298,17.1984773 Z M54.9272775,73.792859 C65.1630349,74.4449987 80.8427409,73.4242583 81.2113416,68.6040956 C81.2113416,68.6040956 80.5024941,70.447099 72.7618798,71.8931478 C64.028879,73.5376739 53.2827514,73.3391966 46.9031242,72.2901024 C46.9031242,72.2617485 48.2074035,73.3675505 54.9272775,73.792859 Z" id="Combined-Shape"></path>
        </g>
    </g>
</svg>