<?xml version="1.0" encoding="UTF-8"?>
<svg width="120px" height="120px" viewBox="0 0 120 120" version="1.1" xmlns="http://www.w3.org/2000/svg" xmlns:xlink="http://www.w3.org/1999/xlink">
    <!-- Generator: Sketch 41.2 (35397) - http://www.bohemiancoding.com/sketch -->
    <title>rails</title>
    <desc>Created with Sketch.</desc>
    <defs></defs>
    <g id="Company-Icons" stroke="none" stroke-width="1" fill="none" fill-rule="evenodd">
        <g id="rails" fill="#FFFFFF">
            <g id="1483478882_Ruby_on_Rails_2" transform="translate(38.000000, 32.000000)">
                <path d="M3.02080881,46.026972 L3.02080881,55.5818267 L5.45780016,55.5818267 L5.45780016,53.0932566 L7.67568511,55.3111416 L11.414936,55.3111416 L8.44895328,52.3451589 C8.44895328,52.3451589 10.5826618,52.310498 10.744,49.2248526 C10.744,46.3937999 8.60781574,46.026972 6.14070241,46.026972 L3.02080881,46.026972 Z M5.57374913,48.6186995 L7.67568511,48.6186995 L7.67568511,50.3207973 L5.57374913,50.3207973 L5.57374913,48.6186995 Z" id="path3993"></path>
                <path d="M16.1218036,46.0657592 C14.787359,46.0579192 12.9367145,46.1817082 12.9367145,48.6962739 L12.9367145,55.3371372 L15.4380761,55.3371372 L15.4380761,53.7122013 L17.8622759,53.7122013 L17.8622759,55.29835 L20.3768417,55.29835 L20.3768417,48.3352229 C20.3768417,46.1511736 17.9501661,46.0657592 16.6503823,46.0657592 C16.4878062,46.0657592 16.3124386,46.0669971 16.1218036,46.0657592 Z M15.4768633,48.4639634 L17.8239014,48.4639634 L17.8239014,51.0816865 L15.4768633,51.0816865 L15.4768633,48.4639634 Z" id="path3997"></path>
                <rect id="rect4001" x="22.8831548" y="46.0719487" width="2.58801384" height="9.14057439"></rect>
                <polygon id="path4003" points="28.1817336 46.1932618 28.1817336 55.3338362 34.4099671 55.3338362 34.4099671 52.9071606 30.7297223 52.9071606 30.7297223 46.1528241"></polygon>
                <path d="M42.6609118,46.1123864 L42.6609118,48.5794997 L38.4950017,48.5794997 L38.4950017,49.4691295 L40.2742612,49.4691295 C41.2039161,49.4691295 43.1457517,49.4286917 43.1457517,52.3410326 C43.1457517,55.2529608 41.8113071,55.4147116 39.1015675,55.4147116 L35.8256998,55.4147116 L35.8256998,53.189812 L39.5868201,53.189812 C40.7190761,53.189812 40.7817958,52.820921 40.7817958,52.499895 C40.7817958,52.1788691 40.2028763,52.0290845 39.025231,52.0290845 C37.8475856,52.0290845 35.663949,51.4505776 35.663949,49.1856528 C35.663949,46.9207281 36.796205,46.0711234 39.0611297,46.0711234 C41.3260545,46.0711234 42.6609118,46.1123864 42.6609118,46.1123864 L42.6609118,46.1123864 Z" id="path4005"></path>
                <path d="M5.28944722,43.3217713 L26.8064386,43.3217713 C26.8064386,43.3217713 22.0339628,32.4824002 23.2470943,22.5330715 C24.4606384,12.5837428 32.3067932,8.05348067 36.7557673,7.56822807 C41.2043287,7.08256285 43.6314169,9.83315281 43.6314169,9.83315281 L44.6023348,8.3769824 C44.6023348,8.3769824 38.2119377,1.9057099 30.1227439,2.63400143 C22.0335502,3.36188032 16.4523201,8.70048413 12.9742638,15.1717566 C9.49579497,21.6434417 7.47349653,26.1728786 6.09861418,32.9676528 C4.72373183,39.762427 5.28944722,43.3217713 5.28944722,43.3217713 Z M1.00263667,32.4824002 L5.20898442,32.8059019 L4.4806929,37.0118371 L0.517384074,36.5265845 L1.00263667,32.4824002 Z M7.63566003,23.5844521 L8.76832871,20.4298976 L5.04723356,18.9737272 L3.83410207,22.370908 L7.63566003,23.5844521 Z M12.8933884,12.745081 L15.0774377,10.1570672 L12.2463849,8.29651959 L9.9814602,10.803658 L12.8933884,12.745081 Z M18.6363694,2.71487686 L20.5777924,5.06067703 L23.2470943,3.52363119 L21.3056713,1.33958188 L18.6363694,2.71487686 Z M28.1008581,0.0455749567 L28.5861107,2.39178776 L31.9028287,2.31091233 L31.5789144,0.207738452 L28.1008581,0.0455749567 Z M39.3446064,2.55312599 L39.263731,4.00888378 L41.5286557,5.22201527 L42.0139083,4.49413638 L39.3446064,2.55312599 Z M38.8589412,8.78177219 L38.8589412,9.99490368 L41.0429905,10.23753 L41.0429905,9.26661215 L38.8589412,8.78177219 Z M31.9028287,9.83315281 L32.9542093,11.7741632 L34.4912552,10.5610317 L34.1677535,9.26661215 L31.9028287,9.83315281 Z M28.5856981,12.3411165 L30.2036194,14.7677921 L29.2327015,16.4661762 L26.8869014,13.8781623 L28.5856981,12.3411165 Z M25.3506808,19.0546026 L24.2988875,21.1577765 L27.0490649,23.5039893 L27.6960683,20.8342748 L25.3506808,19.0546026 Z M24.2180121,26.4155049 L24.0562612,29.2465577 L27.453442,30.7027281 L27.2916912,28.0330135 L24.2180121,26.4155049 Z M25.1885173,36.4461217 L25.9976842,39.3584625 L30.2844948,39.6010888 L28.747449,36.4461217 L25.1885173,36.4461217 Z" id="Combined-Shape"></path>
            </g>
        </g>
    </g>
</svg>