<?xml version="1.0" encoding="utf-8"?>
<!-- Generator: Avocode 2.5.3 - http://avocode.com -->
<svg height="27" width="21" xmlns:xlink="http://www.w3.org/1999/xlink" xmlns="http://www.w3.org/2000/svg" viewBox="0 0 21 27">
    <path fill="#1476F2" fill-rule="evenodd" d="M 20.33 12.9 C 20.03 13.54 19.58 14.2 19.11 14.89 C 18.03 16.48 16.81 18.28 17.4 20.13 C 17.44 20.27 17.4 20.42 17.3 20.52 C 17.3 20.52 10.62 26.9 10.62 26.9 C 10.55 26.96 10.46 27 10.37 27 C 10.33 27 10.3 26.99 10.26 26.99 C 10.14 26.95 10.04 26.85 10 26.72 C 9.59 25.14 8.45 22.5 7.15 22.15 C 7.04 22.12 6.9 22.11 6.72 22.11 C 6.4 22.11 6 22.15 5.57 22.2 C 5.07 22.26 4.56 22.32 4.07 22.32 C 2.99 22.32 2.41 21.98 2.29 21.29 C 2.23 20.89 2.17 20.48 2.12 20.08 C 1.9 18.4 1.68 16.66 0.39 15.78 C -0.37 15.26 0.25 14.17 0.85 13.12 C 1.25 12.41 1.66 11.68 1.6 11.21 C 1.57 11.04 1.55 10.86 1.52 10.7 C 1.14 7.92 0.84 5.73 3.14 3.36 C 3.15 3.36 3.15 3.35 3.15 3.35 C 5.51 1.13 8.08 0 10.77 0 C 14.79 0 17.88 2.52 19.06 4 C 20.73 6.09 21.74 9.92 20.33 12.9 Z M 15.74 5.89 C 15.61 5.89 15.48 5.9 15.36 5.92 C 15.06 4.96 14.17 4.27 13.12 4.27 C 13.04 4.27 12.96 4.28 12.88 4.28 C 12.33 3.35 11.32 2.72 10.16 2.72 C 8.41 2.72 7 4.14 7 5.89 C 7 5.9 7 5.92 7 5.94 C 5.94 6.16 5.14 7.1 5.14 8.23 C 5.14 9.52 6.19 10.57 7.48 10.57 C 7.48 10.57 9.44 10.57 9.44 10.57 C 9.45 10.67 9.48 10.76 9.53 10.85 C 9.63 11.02 9.82 11.12 10.02 11.12 C 10.02 11.12 10.19 11.12 10.19 11.12 C 10.19 11.12 9.54 13.05 9.54 13.05 C 9.44 13.31 9.54 13.61 9.78 13.76 C 9.87 13.81 9.97 13.84 10.07 13.84 C 10.25 13.84 10.41 13.76 10.52 13.62 C 10.52 13.62 13.11 10.57 13.11 10.57 C 13.11 10.57 15.74 10.57 15.74 10.57 C 17.03 10.57 18.08 9.53 18.08 8.23 C 18.08 6.94 17.03 5.89 15.74 5.89 Z M 13.06 9.21 C 13.14 9.21 13.22 9.26 13.26 9.33 C 13.29 9.41 13.28 9.5 13.23 9.57 C 13.23 9.57 10.56 12.83 10.56 12.83 C 10.51 12.88 10.45 12.91 10.39 12.91 C 10.35 12.91 10.31 12.9 10.28 12.88 C 10.19 12.83 10.15 12.71 10.19 12.61 C 10.19 12.61 10.99 10.58 10.99 10.58 C 10.99 10.58 10.32 10.58 10.32 10.58 C 10.24 10.58 10.17 10.54 10.13 10.47 C 10.09 10.41 10.09 10.33 10.12 10.26 C 10.12 10.26 11.53 7.62 11.53 7.62 C 11.57 7.55 11.64 7.5 11.73 7.5 C 11.73 7.5 13.21 7.5 13.21 7.5 C 13.28 7.5 13.35 7.54 13.39 7.6 C 13.43 7.67 13.44 7.75 13.4 7.81 C 13.4 7.81 12.61 9.21 12.61 9.21 C 12.61 9.21 13.06 9.21 13.06 9.21 Z" />
</svg>