<?xml version="1.0" encoding="utf-8"?>
<!-- Generator: Adobe Illustrator 19.1.0, SVG Export Plug-In . SVG Version: 6.00 Build 0)  -->
<svg version="1.1" id="Слой_1" xmlns="http://www.w3.org/2000/svg" xmlns:xlink="http://www.w3.org/1999/xlink" x="0px" y="0px"
	 viewBox="0 0 18.364 15.852" style="enable-background:new 0 0 18.364 15.852;" xml:space="preserve">
<style type="text/css">
	.st0{fill-rule:evenodd;clip-rule:evenodd;fill:#FFFFFF;}
	.st1{fill:#1E1E1C;}
</style>
<g>
	<g>
		<path class="st0" d="M14.264,8.786c0,3.82-3.16,6.917-7.058,6.917c-3.897,0-7.056-3.097-7.056-6.917
			c0-3.82,3.159-6.917,7.056-6.917C11.103,1.869,14.264,4.965,14.264,8.786z"/>
		<path class="st1" d="M7.206,15.852C3.232,15.852,0,12.682,0,8.786c0-3.896,3.232-7.066,7.206-7.066
			c3.974,0,7.207,3.17,7.207,7.066C14.413,12.682,11.18,15.852,7.206,15.852z M7.206,2.019c-3.808,0-6.905,3.035-6.905,6.767
			c0,3.731,3.098,6.767,6.905,6.767c3.808,0,6.907-3.035,6.907-6.767C14.113,5.054,11.015,2.019,7.206,2.019z"/>
	</g>
	<g>
		<path class="st0" d="M7.206,14.651c-1.6,0-3.104-0.611-4.234-1.719c-1.13-1.108-1.752-2.581-1.752-4.146
			c0-1.565,0.622-3.038,1.752-4.146C4.102,3.532,5.606,2.92,7.206,2.92c1.6,0,3.103,0.611,4.235,1.719
			c1.13,1.108,1.752,2.581,1.752,4.146c0,1.565-0.622,3.038-1.752,4.146C10.31,14.04,8.807,14.651,7.206,14.651z"/>
		<path class="st1" d="M7.206,14.801c-1.639,0-3.18-0.625-4.339-1.762c-1.159-1.137-1.798-2.648-1.798-4.253
			c0-1.606,0.639-3.117,1.798-4.253c1.159-1.136,2.7-1.762,4.339-1.762c1.639,0,3.18,0.625,4.34,1.762
			c1.16,1.137,1.798,2.647,1.798,4.253c0,1.606-0.638,3.117-1.798,4.253C10.386,14.175,8.845,14.801,7.206,14.801z M7.206,3.07
			c-1.56,0-3.026,0.595-4.13,1.676c-1.1,1.08-1.707,2.514-1.707,4.039c0,1.525,0.607,2.959,1.707,4.039
			c1.103,1.081,2.57,1.676,4.13,1.676c1.56,0,3.026-0.595,4.13-1.676c1.102-1.08,1.708-2.514,1.708-4.039
			c0-1.525-0.606-2.959-1.708-4.039C10.232,3.665,8.766,3.07,7.206,3.07z"/>
	</g>
	<g>
		<path class="st0" d="M7.206,13.599c-1.315,0-2.551-0.501-3.48-1.412c-0.928-0.909-1.438-2.117-1.438-3.401
			c0-1.284,0.511-2.491,1.438-3.401c0.929-0.911,2.165-1.412,3.48-1.412c1.315,0,2.552,0.501,3.481,1.412
			c0.927,0.91,1.438,2.117,1.438,3.401c0,1.284-0.511,2.492-1.438,3.401C9.758,13.097,8.521,13.599,7.206,13.599z"/>
		<path class="st1" d="M7.206,13.748c-1.355,0-2.627-0.517-3.585-1.455c-0.956-0.938-1.482-2.183-1.482-3.508
			c0-1.324,0.526-2.57,1.482-3.508c0.958-0.938,2.23-1.455,3.585-1.455c1.354,0,2.629,0.517,3.586,1.455
			c0.956,0.938,1.482,2.184,1.482,3.508c0,1.325-0.526,2.57-1.482,3.508C9.835,13.232,8.561,13.748,7.206,13.748z M7.206,4.123
			c-1.275,0-2.474,0.486-3.375,1.37C2.933,6.373,2.438,7.543,2.438,8.786c0,1.243,0.494,2.413,1.393,3.293
			c0.901,0.883,2.1,1.37,3.375,1.37c1.276,0,2.475-0.486,3.376-1.37c0.898-0.88,1.393-2.049,1.393-3.293
			c0-1.243-0.494-2.413-1.393-3.293C9.682,4.609,8.482,4.123,7.206,4.123z"/>
	</g>
	<g>
		<path class="st0" d="M7.206,12.547c-1.029,0-1.997-0.393-2.726-1.106c-0.724-0.711-1.123-1.654-1.123-2.656
			c0-1.002,0.399-1.945,1.123-2.655c0.728-0.713,1.696-1.106,2.726-1.106c1.03,0,1.999,0.393,2.727,1.106
			c0.724,0.71,1.122,1.653,1.122,2.655c0,1.002-0.398,1.945-1.122,2.656C9.205,12.154,8.236,12.547,7.206,12.547z"/>
		<path class="st1" d="M7.206,12.697c-1.068,0-2.073-0.408-2.83-1.148C3.623,10.81,3.208,9.828,3.208,8.786
			c0-1.043,0.415-2.024,1.168-2.763c0.756-0.741,1.761-1.148,2.83-1.148c1.07,0,2.075,0.408,2.831,1.148
			c0.753,0.738,1.168,1.72,1.168,2.763c0,1.043-0.415,2.024-1.168,2.763C9.281,12.29,8.275,12.697,7.206,12.697z M7.206,5.174
			c-0.99,0-1.921,0.378-2.62,1.063C3.891,6.919,3.508,7.824,3.508,8.786c0,0.962,0.383,1.867,1.078,2.549
			c0.7,0.686,1.631,1.063,2.62,1.063c0.99,0,1.921-0.377,2.622-1.063c0.694-0.682,1.077-1.587,1.077-2.549
			c0-0.962-0.383-1.867-1.077-2.548C9.128,5.552,8.197,5.174,7.206,5.174z"/>
	</g>
	<g>
		<path class="st0" d="M7.206,11.285c-0.688,0-1.334-0.262-1.819-0.738c-0.48-0.471-0.746-1.097-0.746-1.761
			c0-0.665,0.266-1.29,0.746-1.761c0.485-0.476,1.131-0.738,1.819-0.738c0.688,0,1.335,0.262,1.82,0.738
			c0.481,0.471,0.746,1.097,0.746,1.761c0,0.665-0.265,1.29-0.746,1.761C8.541,11.023,7.894,11.285,7.206,11.285z"/>
		<path class="st1" d="M7.206,11.435c-0.728,0-1.411-0.277-1.924-0.78c-0.511-0.5-0.792-1.164-0.792-1.869
			c0-0.705,0.281-1.369,0.792-1.869c0.513-0.504,1.196-0.781,1.924-0.781c0.727,0,1.412,0.277,1.926,0.781
			c0.51,0.5,0.791,1.163,0.791,1.869c0,0.706-0.281,1.369-0.791,1.869C8.618,11.158,7.935,11.435,7.206,11.435z M7.206,6.436
			c-0.648,0-1.257,0.247-1.714,0.695C5.039,7.575,4.79,8.162,4.79,8.786c0,0.624,0.249,1.211,0.702,1.654
			c0.457,0.448,1.065,0.695,1.714,0.695c0.649,0,1.259-0.247,1.716-0.695c0.451-0.442,0.701-1.03,0.701-1.654
			c0-0.624-0.25-1.212-0.701-1.654C8.464,6.683,7.855,6.436,7.206,6.436z"/>
	</g>
	<g>
		<path class="st0" d="M16.671,1.447c0.227-0.166,0.55-0.12,0.718,0.104c0.169,0.224,0.121,0.54-0.106,0.707L7.555,9.354
			C7.326,9.52,7.005,9.472,6.836,9.249c-0.169-0.224-0.121-0.54,0.107-0.706L16.671,1.447z"/>
		<path class="st1" d="M7.25,9.603c-0.21,0-0.408-0.099-0.533-0.264C6.61,9.199,6.566,9.026,6.592,8.853
			c0.026-0.174,0.119-0.327,0.262-0.431l9.728-7.096c0.283-0.206,0.718-0.143,0.927,0.135c0.105,0.14,0.149,0.312,0.124,0.485
			c-0.025,0.174-0.118,0.328-0.262,0.433L7.643,9.475C7.527,9.559,7.392,9.603,7.25,9.603z M16.977,1.498
			c-0.079,0-0.154,0.025-0.217,0.071L7.031,8.665C6.953,8.721,6.902,8.803,6.889,8.897C6.875,8.99,6.899,9.082,6.956,9.159
			c0.116,0.152,0.352,0.189,0.51,0.074l9.729-7.096c0.077-0.057,0.128-0.14,0.142-0.234c0.014-0.093-0.01-0.186-0.066-0.261
			C17.201,1.552,17.092,1.498,16.977,1.498z"/>
	</g>
	<g>
		<path class="st0" d="M17.217,2.313l0.997,1.324l-3.479,2.538l-2.623-0.138L17.217,2.313z"/>
		<path class="st1" d="M14.734,6.325c-0.002,0-0.006,0-0.008,0l-2.623-0.138c-0.064-0.003-0.118-0.046-0.136-0.107
			c-0.019-0.061,0.004-0.127,0.055-0.164l5.106-3.725c0.066-0.047,0.158-0.034,0.207,0.031l0.998,1.324
			c0.024,0.032,0.034,0.073,0.028,0.112c-0.006,0.039-0.027,0.075-0.06,0.099l-3.48,2.538C14.797,6.315,14.766,6.325,14.734,6.325z
			 M12.541,5.91l2.149,0.113l3.313-2.417l-0.817-1.084L12.541,5.91z"/>
	</g>
	<g>
		<path class="st0" d="M16.672,1.473L15.675,0.15l-3.479,2.539l-0.629,2.509L16.672,1.473z"/>
		<path class="st1" d="M11.566,5.347c-0.029,0-0.059-0.009-0.084-0.025c-0.052-0.035-0.077-0.1-0.061-0.161l0.628-2.509
			c0.008-0.034,0.028-0.065,0.057-0.085l3.479-2.538c0.066-0.047,0.158-0.036,0.208,0.031l0.997,1.323
			c0.025,0.032,0.035,0.073,0.029,0.113c-0.006,0.039-0.027,0.075-0.06,0.099l-5.105,3.725C11.629,5.338,11.598,5.347,11.566,5.347z
			 M12.327,2.777l-0.515,2.055l4.648-3.391l-0.817-1.084L12.327,2.777z"/>
	</g>
</g>
<g>
</g>
<g>
</g>
<g>
</g>
<g>
</g>
<g>
</g>
<g>
</g>
</svg>
