<svg height="22" width="114" xmlns="http://www.w3.org/2000/svg" viewBox="0 0 114 22"><path fill-rule="evenodd" d="M112.83 5.88h-5.51l-3.72 9.2h-5.84l3.66-9.23h-5.61l1.26-3.29h16.89l-1.13 3.32zM84.7 15.14l-3.58-7.08-3.14 7.08H72.2l5.15-12.55h7.22l3.33 6.69 2.89-6.69h5.65l-5.07 12.55H84.7zm-11.04 2.99c.41.25.52.63.35 1.09H73a.48.48 0 0 0-.09-.46c-.16-.19-.46-.3-.93-.27-.5.02-.94.24-1.3.62l-.44.68c-.14.36-.19.63-.16.85.05.24.22.43.46.54l.39.06.44-.06c.47-.08.86-.33 1.1-.71h1.02c-.19.46-.58.85-1.13 1.09-.47.25-1.04.35-1.68.38-.58 0-.99-.13-1.29-.38-.31-.24-.42-.57-.39-1.01.03-.21.08-.43.19-.68l.42-.76c.69-.84 1.62-1.28 2.78-1.28.55 0 .96.11 1.27.3zm-8.87-4.46h-6.72l-1.35 1.47h-6.37L62.47 2.59h7.69l1.32 12.55h-6.39l-.3-1.47zm-.14-7.3l-3.47 4.03 3.61-.03-.14-4zm-20.88 8.77l5.09-12.58h6.15l-5.1 12.58h-6.14zm-4.82-8.69c-.2-.68-.64-1.25-1.38-1.36-1.09-.16-2.33-.04-3.5.14-1.22.18-2.12 1-2.84 1.99-.99 1.44-1.26 2.66-.85 3.72.66.74 1.6 1.12 2.84 1.17.96.03 2.01-.16 3.11-.54.61-.22 1.1-.63 1.46-1.2h-2.48l1.05-2.72h8.84l-2.92 7.05c-1.46-.65-3.31-.76-5.54-.3l-2.75.6-2.87.27c-1.84-.05-3.25-.22-4.18-.51-1.46-.44-2.51-1.26-3.15-2.43-.3-1.63-.02-3.24.83-4.79.77-1.39 1.93-2.61 3.47-3.67 1.96-1.2 4.44-1.88 7.41-2.05 2.67-.13 5.29.14 7.88.82.69.27 1.21.6 1.57.95.75.63.97 1.58.64 2.86h-6.64zM15.14 9.56c-1.37.3-2.67.87-3.88 1.68v-.02c.99-1.47 2.34-2.48 4.02-3.03 1.79-.57 3.47-.43 5.04.36.2.92.22 1.63.11 2.09-1.95-.95-3.71-1.33-5.29-1.08zm-.3-3.49c-1.79.25-3.39.93-4.74 2.02L8.12 9.91c-.77.68-1.49 1.23-2.12 1.58-1.71.98-3.39 1.14-5.04.46-.17-.19-.25-.52-.28-.95l-.08-.98c.03-1.88.55-3.62 1.63-5.23C3.3 3.16 4.71 1.96 6.41 1.22 7.87.57 9.5.3 11.29.44c1.79.13 3.36.59 4.68 1.44 1.46.95 2.54 2.04 3.28 3.29l.72 1.66c-1.55-.76-3.25-1-5.13-.76zM6.58 15c2.09.08 3.8-.41 5.15-1.41l1.07-.82.99-.93c.8-.7 1.6-1.06 2.37-1.06 1.35-.05 2.7.33 4.05 1.17-.22 1.53-.96 2.97-2.25 4.3-1.22 1.26-2.59 2.13-4.14 2.64-1.7.58-3.47.71-5.29.36-1.81-.36-3.39-1.09-4.68-2.24a8.129 8.129 0 0 1-2.42-3.42C3 14.46 4.71 14.92 6.58 15zm56.75 2.89c1.18 0 1.68.35 1.46 1.03-.17.33-.44.6-.83.79.3.24.39.6.19 1.01-.14.3-.41.6-.88.84-.36.16-.8.25-1.35.25h-2.31l1.6-3.92h2.12zm.38 1.11c.14-.3-.03-.43-.47-.43h-1.26l-.36.87h1.21c.47 0 .75-.14.88-.44zm-1.54 2.13c.52 0 .88-.17 1.02-.52.14-.33 0-.49-.39-.49h-1.46l-.41 1.01h1.24zm6.06-3.24l-1.6 3.92h-1.07l1.62-3.92h1.05zm8.95 0l.36 1.68 1.68-1.68h1.19l-2.68 2.47-.57 1.45h-1.08l.61-1.45-.69-2.47h1.18zm4.27 1.22c.69-.84 1.63-1.28 2.79-1.28.55 0 .96.11 1.26.3.42.25.53.63.36 1.09h-1.02c.14-.52-.22-.76-1.02-.73-.49.02-.93.24-1.29.62l-.44.68c-.14.36-.2.63-.17.85.06.24.19.43.44.54l.41.06.45-.06c.35-.08.6-.19.79-.35l.31-.36h1.02c-.2.46-.58.82-1.13 1.09-.47.25-1.05.35-1.68.38-.58 0-1.02-.13-1.32-.38-.28-.24-.39-.57-.36-1.01.03-.21.08-.43.16-.68.14-.27.28-.51.44-.76zm7.83-1.22l-1.35 3.24h2.48l-.25.68h-3.55l1.62-3.92h1.05zm7.98 0l-.24.68h-2.7l-.36.87h2.48l-.28.68h-2.48l-.41 1.01h2.81l-.27.68h-3.86l1.6-3.92h3.71zm1.58 2.75c-.09.13-.06.27.05.4.14.2.44.25.88.22l.88-.16.34-.3c.08-.14.05-.27-.03-.35-.09-.11-.36-.19-.8-.25l-1.05-.19c-.63-.19-.8-.57-.49-1.09.41-.73 1.21-1.09 2.39-1.09.8 0 1.32.16 1.52.49.16.25.16.49 0 .76h-.99c.19-.4-.09-.59-.83-.62-.58 0-.96.16-1.13.46-.08.19-.03.33.19.38l1.19.25c.52.08.88.19 1.04.38.2.24.2.54-.05.92-.25.36-.55.63-.96.79-.42.19-1 .3-1.74.3-.52 0-.88-.11-1.13-.3-.36-.21-.47-.54-.33-1h1.05zm9.64-8.58c.41 0 .77.16 1.07.46.31.3.44.66.44 1.07 0 .4-.13.76-.44 1.06-.3.3-.66.43-1.07.43-.44 0-.8-.13-1.1-.43-.31-.3-.45-.66-.45-1.06 0-.41.14-.77.45-1.07.3-.3.66-.46 1.1-.46zm-.91 2.37c.25.24.55.38.91.38.33 0 .63-.14.88-.38.22-.25.33-.52.33-.84 0-.36-.11-.63-.33-.88-.25-.24-.55-.38-.88-.38-.36 0-.66.14-.91.38-.25.25-.36.52-.36.88 0 .32.11.59.36.84zm1.51-1.58c.16.05.2.22.2.41 0 .3-.17.43-.47.46l.41.65h-.38l-.36-.65h-.33v.65h-.31v-1.6h.82c.12 0 .28.03.42.08zm-.93.16v.47h.49c.2 0 .31-.09.31-.25 0-.14-.14-.22-.39-.22h-.41z"/></svg>