<svg height="46" width="89" xmlns="http://www.w3.org/2000/svg" viewBox="0 0 89 46"><path fill="#171717" fill-rule="evenodd" d="M87.18 32.18c-.49 0-.89-.39-.89-.89 0-.48.4-.88.89-.88s.88.4.88.88c0 .5-.39.89-.88.89zm0-1.6a.715.715 0 1 0 0 1.43c.39 0 .71-.31.71-.72 0-.39-.32-.71-.71-.71zm.13.74l.27.42h-.16l-.25-.42h-.16v.42h-.13v-.9h.39c.07 0 .15 0 .22.04.06.04.1.12.1.2 0 .17-.13.24-.28.24zm-.07-.38h-.23v.27h.15c.12 0 .29.03.29-.14 0-.11-.09-.13-.21-.13zm-4.09 5.84c2.3 1.54 3.01 2.66 3.01 4.58 0 2.83-1.96 4.57-4.86 4.57-2.03 0-3.22-.64-3.86-.64v-3.33h.33c.29 1.45 1.78 2.45 3.37 2.45 1.35 0 2.42-.72 2.42-2.14 0-.98-.48-1.83-1.71-2.69l-1.73-1.19c-1.49-1.02-2.75-2.18-2.75-4.28 0-2.47 1.66-4.06 4.41-4.06 1.63 0 2.32.38 3.27.48v2.87h-.33c-.22-1.09-1.35-1.97-2.87-1.97-1.42 0-2.06.78-2.06 1.83 0 .9.54 1.61 1.87 2.52l1.49 1zm-9.74 0c2.3 1.54 3.01 2.66 3.01 4.58 0 2.83-1.96 4.57-4.85 4.57-2.04 0-3.23-.64-3.87-.64v-3.33h.34c.28 1.45 1.77 2.45 3.36 2.45 1.35 0 2.42-.72 2.42-2.14 0-.98-.48-1.83-1.71-2.69l-1.73-1.19c-1.49-1.02-2.75-2.18-2.75-4.28 0-2.47 1.66-4.06 4.41-4.06 1.63 0 2.32.38 3.27.48v2.87h-.33c-.22-1.09-1.35-1.97-2.87-1.97-1.42 0-2.06.78-2.06 1.83 0 .9.54 1.61 1.87 2.52l1.49 1zm-15.11 8.6c.11-.12.14-.74.14-1.07V32.19c0-1-.33-1.52-.69-1.59v-.31h8.32v2.09h-.31c-.07-.36-.78-.6-1.23-.6h-3.15v5.28h2.65c.36 0 1.19-.09 1.28-.33h.31v2h-.31c-.12-.12-.78-.17-1.18-.17h-2.75v5.63h3.13c.85 0 1.37-.33 1.47-.71h.3v2.21H58.3v-.31zm-1.92-20.7v-.18c.57.02.9-.32.91-.88-.05.09-.21.17-.37.19-.43.05-.69-.17-.73-.56-.03-.42.24-.78.65-.81.54-.05.83.3.85.88.04 1.01-.58 1.45-1.31 1.36zm.53-2.07c-.28 0-.3.36-.3.51 0 .28.07.48.3.48.31 0 .31-.38.31-.51 0-.15-.05-.48-.31-.48zM46.1 31.78c-.27-.47-.76-1.11-1.21-1.18v-.31h3.79l5.47 9.84v-7.94c0-1-.26-1.52-.59-1.59v-.31h2.25v15.4h-1.87L46.1 31.78zm9.07-7.87c0 .44-.33.78-.87.78-.16 0-.33-.02-.47-.09l.01-.18c.13.04.28.08.45.06.26-.03.46-.24.46-.52 0-.3-.2-.47-.5-.47-.12 0-.24.02-.36.06l.08-1.08h1.11v.29a.712.712 0 0 0-.23-.03h-.54l-.03.55c.09-.01.16-.02.27-.02.38.02.62.29.62.65zM54.85 6h-.03l-.25.97h-.16L54.16 6v.97h-.2V5.75h.3l.23.86.23-.86h.3v1.22h-.17V6zm-1.35.97h-.23V5.95h-.3v-.2h.83v.2h-.3v1.02zm-6.52-.93c-1.43-.07-2.72-.43-4.51-1.23-1.19-.53-2.2-1.1-2.98-1.52-.01.04-.15.7-.53 1.55-.38.84-.79 1.39-.81 1.41l.6 1.34c.01-.05.2-.89.69-1.96.48-1.09.99-1.78 1.02-1.81-.01.04-.19.88-.69 1.96-.48 1.08-.99 1.77-1.02 1.81.21.45.42.92.64 1.41.01-.05.25-1.08.86-2.4.59-1.34 1.21-2.2 1.24-2.24-.01.05-.24 1.09-.86 2.41-.59 1.33-1.2 2.19-1.24 2.24.23.48.45.99.69 1.5.01-.06.29-1.31 1.03-2.92.72-1.62 1.48-2.66 1.51-2.71-.01.06-.29 1.32-1.03 2.93-.72 1.61-1.47 2.65-1.51 2.7.24.54.49 1.08.73 1.63.02-.09.37-1.58 1.25-3.51.87-1.94 1.77-3.19 1.81-3.25-.01.07-.36 1.58-1.25 3.51-.86 1.93-1.76 3.18-1.81 3.25.27.59.54 1.17.79 1.74.02-.1.44-1.89 1.5-4.19 1.04-2.32 2.11-3.82 2.16-3.89-.01.09-.43 1.88-1.5 4.19-1.03 2.32-2.1 3.81-2.16 3.89.3.67.6 1.31.86 1.89.03-.11.54-2.27 1.82-5.04 1.24-2.8 2.52-4.61 2.59-4.69-.02.1-.53 2.26-1.81 5.04-1.25 2.8-2.53 4.6-2.6 4.7.36.79.68 1.5.93 2.04.03-.14.69-2.75 2.24-6.14 1.52-3.42 3.06-5.64 3.13-5.74-.02.12-.68 2.75-2.24 6.14-1.52 3.41-3.05 5.63-3.13 5.74.34.74.54 1.19.54 1.19.18.41.48.67.82.72-.61.89-2.6 2.87-3.05 3.18L35.84 6.72c-.28.12-.61.2-.94.2-1.43 0-2.52-1.1-2.52-2.7 0-1.96 1.68-3.82 4.95-3.82 1.25 0 2.74.28 4.44.92 4.37 1.65 8 .92 10.33-.92l1.32 3.44c-1.38 1.31-4.04 2.32-6.44 2.2zM34.82 3.61c-.51 0-.94.43-.94.94s.43.94.94.94.94-.43.94-.94-.43-.94-.94-.94zm3.79-.75c-.85-.34-1.86-.38-2.47-.16.51.27.83.9 1.22 1.79.06.16.36.82.79 1.76 0-.03.14-.7.53-1.54.38-.85.78-1.39.81-1.42-.34-.18-.64-.33-.88-.43zM31.9 22.63c-.22 0-.38.12-.4.29-.01.08.02.17.09.24.06.06.16.11.31.18.4.17.56.36.56.69 0 .33-.23.66-.76.66-.23 0-.44-.07-.56-.17v-.21c.16.1.33.18.56.16.19-.01.36-.13.37-.33.01-.19-.11-.29-.37-.42-.41-.18-.57-.33-.56-.66 0-.34.27-.63.69-.64.18 0 .37.04.49.11v.23a.775.775 0 0 0-.42-.13zm-.76 23.06H27.8v-.31c.09-.07.17-.74.17-1.14V32.19c0-1-.34-1.52-.69-1.59v-.31h3.6v13.69c0 .88.16 1.38.26 1.4v.31zm-2.06-21.41v-1.5c0-.13 0-.18-.02-.3h1.19v.28a.928.928 0 0 0-.26-.03h-.47v.66h.35c.05 0 .14 0 .23-.02v.29c-.08-.01-.18-.01-.23-.01h-.35v.74h.55c.11 0 .16-.02.23-.04v.29h-1.24c.02-.13.02-.25.02-.36zm-8.53 21.65c-3.6 0-5.12-2.02-5.12-5.11v-8.63c0-1-.33-1.52-.69-1.59v-.31h3.65v10.6c0 1.02.12 1.57.33 2 .48.92 1.33 1.21 2.26 1.21.97 0 1.89-.29 2.36-1.21.22-.43.34-.98.34-2.12v-8.58c0-1-.34-1.52-.69-1.59v-.31h2.44v10.27c0 1.21-.1 1.87-.29 2.47-.56 1.92-2.1 2.9-4.59 2.9zm-7.49-.71c-.17.07-2.25.76-5 .76-4.29 0-7.91-3.12-7.91-9.63 0-5.63 3.17-9.37 7.77-9.37 2.25 0 3.32.57 3.98.57.09 0 .14-.02.17-.04h.23v3.82h-.38c-.45-1.95-1.94-2.8-3.6-2.8-2.7 0-4.9 2.26-4.9 7.7 0 5.82 2.44 8.13 5 8.13.73 0 1.25-.1 1.58-.24v-5.56c0-.81-.21-1.83-1.09-2.02v-.33h4.32v.31c-.12.07-.17 1.16-.17 1.64v7.06zm20.29-22.46c-.08 0-.15 0-.23.02v-.3h1.6v.3c-.08-.02-.15-.02-.23-.02h-.36v1.52c0 .11 0 .23.03.36h-.48c.02-.13.02-.25.02-.36v-1.52h-.35zm8.33 17.37v-7.94c0-1-.26-1.52-.59-1.59v-.31h2.25v15.4h-1.87l-7.84-13.91c-.26-.47-.76-1.11-1.21-1.18v-.31h3.79l5.47 9.84zm-8.22-6.56l1.66 3.06v7.49c0 .6.12 1.19.24 1.26v.31h-2.04v-.31c.12-.12.14-1.02.14-1.19V33.57zm2.98-9.18v.27c-.04-.02-.1-.02-.15-.02h-.25c-.05 0-.11 0-.16.02v-.27c.05.02.11.02.16.02h.25c.05 0 .1-.01.15-.02zm-.83-.54V22.6c0-.02 0-.07-.03-.12h.56c.51 0 .81.17.81.71 0 .46-.3.79-.73.79h-.64c.03-.05.03-.1.03-.13zm.35-.07h.15c.28 0 .46-.17.46-.6 0-.35-.18-.51-.41-.51h-.2v1.11zm15.6-1.02v-.29h1.41l-.99 2.17h-.45l.92-1.91h-.66c-.11 0-.17.01-.23.03zm-11.41 3.1L34.97 8.27c-.05-.18-.15-.51-.15-.66 0-.21.15-.33.35-.33.16 0 .28.07.33.23l5.56 17.03c5.94-4.81 9.12-10.77 8.56-18.13.81-.18 1.85-.56 2.46-.92 1.39 7.85-1.22 15.02-7.56 20.37h-4.37zm9.6-3.24l.57-.2v1.86c0 .1 0 .23.03.36h-.45c.02-.13.02-.26.02-.36v-1.33c0-.13-.05-.25-.17-.33zm-3.82 10.95l1.66 3.06v7.49c0 .6.12 1.19.23 1.26v.31h-2.03v-.31c.11-.12.14-1.02.14-1.19V33.57z"/></svg>