<svg height="60" width="80" xmlns="http://www.w3.org/2000/svg" viewBox="0 0 80 60"><path fill="#171717" fill-rule="evenodd" d="M80.01 19.33H63.12c.11-1.79 1.6-3.21 3.44-3.21V8.64C50.96 8.1 43.66 3.05 40.31.5c-3.36 2.55-10.68 7.6-26.28 8.14v7.48c1.84 0 3.34 1.42 3.44 3.21H.49v20.7h15.78c0 .66-.35 2.62-4.59 3.08C14.58 45.76 31.52 60 40.31 60s25.76-14.24 28.67-16.89c-3.97-.42-4.59-2.15-4.59-3.08h15.62v-20.7zm-64.25-4.49v-4.66c14.11-.73 21.08-4.93 24.55-7.51 3.72 2.62 10.41 6.78 24.52 7.51v4.66c-1.93.69-3.31 2.37-3.38 4.49h-1.69c.06-2.4 1.38-4.38 3.34-5.53l.01-2.11c-11.4-.8-18.84-4.3-22.8-7-3.46 2.52-10.42 5.89-22.82 7v2.11c1.96 1.15 3.29 3.13 3.34 5.53h-1.69c-.07-2.12-1.46-3.8-3.38-4.49zm42.46 2.59v1.9h-1.84v-1.49c0-.47-.57-.68-.82-.68h-1.77v2.17h-1.85V11.3l4.44.92c.63.13 1.84.54 1.84 1.75v1.3c0 .47-.06.88-.64 1.17.27.15.64.68.64.99zm-7.84-4.79v4.91c.01.6-.34 1.78-1.95 1.78h-2.41c-.81 0-1.85-.42-1.85-1.86v-7.16c0-.86.89-1.4 1.87-1.05l3.22 1.22c.78.32 1.13 1 1.12 2.16zm-13.43-2.23V8.38l3.36-1.81 3.51 1.91v2.02l-2.43-1.3v10.13h-2V9.08l-2.44 1.33zm-.23-.1v7.16c0 1.44-1.04 1.86-1.85 1.86h-2.41c-1.61 0-1.96-1.18-1.94-1.78v-4.91c-.02-1.16.33-1.84 1.12-2.16l3.21-1.22c.99-.35 1.87.19 1.87 1.05zm-10.58 9.02l-1.51-3.2v3.2h-1.84v-6.74l1.84-.34 1.45 3.08 1.61-3.72 1.73-.45v8.17h-1.85v-3.32l-1.43 3.32zm38.91 24.48c-4.63 4.67-18.62 14.4-24.74 14.4-6.13 0-20.08-9.73-24.71-14.4 2.4-1.05 2.79-2.58 2.95-3.78h1.92c-.12 1.13-.35 2.93-1.92 4.02 1.8 1.71 15.32 12.45 21.76 12.45 6.43 0 19.99-10.74 21.8-12.45-1.57-1.09-1.81-2.89-1.92-4.02h1.92c.16 1.2.55 2.73 2.94 3.78zM24.46 44.9c.11.07 4.25 3.27 4.25 3.27v1.95s-5.83-4.32-6-4.42c-.22-.14-.5-.63-.57-.97-.07-.35 0-3.14 0-3.45 0-.31.35-1.25.85-1.25h4.53v1.84h-2.71c-.42-.03-.67.1-.67.49v2.05c0 .14.18.42.32.49zm4.14-4.87h1.9l1.02 3.13 1.65-3.13h1.79l-2.57 5.5v6.58c0 .31-1.79-.66-1.82-.91-.07-.24 0-5.74 0-5.74l-1.97-5.43zm8.85 11.93c.11.21 2.43 1.29 2.43 1.29v2.16s-3.73-1.57-4.08-1.92c-.38-.38-.42-.8-.42-.97V41.59c0-.66 1.34-1.56 1.65-1.56h2.74v1.98c0 .06-1.58.06-1.96 0-.22-.04-.5.24-.5 1.21v8.08c0 .17 0 .49.14.66zm7.9-.52v1.88s-3.09 1.36-3.58 1.6c-.28.14-.6-.1-.6-.52V40.03h2.11v12.25l2.07-.84zm4.53-6.61v1.6h-1.97v3.87l2.39-1.12v1.71l-3.16 1.56c-.38.18-.88 0-.88-.34V40.72c0-.45.39-.69.7-.69h3.69v1.98h-2.74v2.82h1.97zm6.07.13s-3.09.07-3.65 0c-.53-.07-.74-.17-.74-.55 0-.35-.03-2.65 0-3.31.07-.66 1.12-1.01 1.62-1.07.45-.04 4.63 0 4.63 0v1.8h-4.46c-.17 0-.14 1.5 0 1.5h4c.57 0 .5.14.5.38v2.23c0 .24-.36.52-.5.66-.1.1-5.97 3.62-5.97 3.62v-1.57s4.68-2.92 4.71-3.13c.07-.31-.14-.56-.14-.56zm22.37-6.67H2.26V21.32h76.06v16.97zM32.79 12.04l1.5-.58c.27-.12.58 0 .58.43v4.97c0 .34-.15.61-.57.61h-1.35c-.43 0-.59-.21-.59-.57v-3.97c0-.42.04-.7.43-.89zm15.74.89v3.97c0 .36-.16.57-.59.57h-1.35c-.41 0-.57-.27-.57-.61v-4.97c0-.43.31-.55.59-.43l1.49.58c.39.19.43.47.43.89zm7.46.98c.39.08.39.45.39.78s-.06.64-.41.64h-2.18v-1.87l2.2.45zM4.03 22.88v13.66h72.56V22.88H4.03zm6.77 12.06H9.2v-4.57H7.94v4.57h-1.6V24.3h1.6v4.26H9.2V24.3h1.6v10.64zm3.72 0l-.29-2.77h-1.17l-.32 2.77h-1.45l1.22-10.64h2.4l1.22 10.64h-1.61zm6.68-7.3c0 .79-.14 1.41-.72 1.86.09.09.7.5.72 1.22v4.22h-1.59v-3.56c0-.64-.28-.84-1.3-.84v4.4h-1.59V24.3h2.64c1.28 0 1.84.45 1.84 1.83v1.51zm4.15 7.3h-3.22V24.3h1.6v8.96h1.62v1.68zm3.86 0h-3.33V24.3h3.3v1.66h-1.7v2.6h1.63v1.68h-1.63v3.02h1.73v1.68zm3.71 0h-1.6v-3.97l-1.64-6.67h1.64l.86 3.72.89-3.72h1.49l-1.64 6.59v4.05zm4.07-4.69h-2.92v-1.34h2.92v1.34zm5.04 2.76c0 1.02-.67 1.93-1.9 1.93h-2.28V24.3h1.93c1.58 0 2.25.54 2.25 2.41v6.3zm3.65 1.93l-.29-2.77h-1.17l-.32 2.77h-1.45l1.22-10.64h2.4l1.22 10.64h-1.61zm4.39 0h-1.78l-1.5-10.64h1.62l.78 6.4.77-6.4h1.61l-1.5 10.64zm3.55 0h-1.6V24.3h1.6v10.64zm5.12-1.93c0 1.02-.66 1.93-1.89 1.93h-2.28V24.3h1.93c1.58 0 2.24.54 2.24 2.41v6.3zm5.2-5.1h-1.59v-1.48c0-.54-.33-.66-.64-.66-.33 0-.64.12-.64.66v1.18c0 .76 2.85 2.11 2.85 3.18v2.57c0 1.39-1.23 1.79-2.23 1.79-.98 0-2.2-.4-2.2-1.79v-2.32h1.6v1.89c0 .54.29.66.62.66.31 0 .62-.12.62-.66v-1.12c0-1.49-2.86-1.91-2.86-3.64v-2.28c0-1.39 1.24-1.8 2.22-1.8 1 0 2.25.41 2.25 1.8v2.02zm5.19 5.45c0 1.39-1.29 1.79-2.27 1.79s-2.23-.4-2.23-1.79v-7.47c0-1.39 1.25-1.8 2.23-1.8s2.27.41 2.27 1.8v7.47zm5.49 1.58h-1.96l-1.27-6.05v6.05h-1.6V24.3h2.16l1.04 5.41V24.3h1.63v10.64zm-61.37-4.56l.38-4.14h.1l.31 4.14h-.79zm5.06-4.61h.63c.37 0 .61.25.61.66v1.59c0 .39-.12.87-.68.87h-.56v-3.12zm21.14.21h.38c.4 0 .6.11.6.79v5.7c0 .69-.2.79-.6.79h-.38v-7.28zm4.96 4.4l.38-4.14h.1l.31 4.14h-.79zm11.76-4.4h.38c.4 0 .6.11.6.79v5.7c0 .69-.2.79-.6.79h-.38v-7.28zm10.05 6.74v-6.25c0-.54.33-.66.66-.66s.65.12.65.66v6.25c0 .54-.32.66-.65.66s-.66-.12-.66-.66z"/></svg>