<?xml version="1.0" encoding="utf-8"?>
<!-- Generator: Avocode 2.5.4 - http://avocode.com -->
<svg height="14" width="8" xmlns:xlink="http://www.w3.org/1999/xlink" xmlns="http://www.w3.org/2000/svg" viewBox="0 0 8 14">
    <path fill="#999999" fill-rule="evenodd" d="M 4.94 4.59 C 4.94 4.59 7.15 4.59 7.15 4.59 C 7.15 4.59 6.9 7 6.9 7 C 6.9 7 4.94 7 4.94 7 C 4.94 7 4.94 14 4.94 14 C 4.94 14 1.99 14 1.99 14 C 1.99 14 1.99 7 1.99 7 C 1.99 7 0.53 7 0.53 7 C 0.53 7 0.53 4.59 0.53 4.59 C 0.53 4.59 1.99 4.59 1.99 4.59 C 1.99 4.59 1.99 3.14 1.99 3.14 C 1.99 2.1 2.24 1.32 2.73 0.8 C 3.23 0.27 4.04 0 5.18 0 C 5.18 0 7.14 0 7.14 0 C 7.14 0 7.14 2.41 7.14 2.41 C 7.14 2.41 5.91 2.41 5.91 2.41 C 5.69 2.41 5.51 2.43 5.37 2.47 C 5.24 2.51 5.14 2.57 5.08 2.67 C 5.02 2.76 4.98 2.86 4.96 2.96 C 4.94 3.06 4.94 3.2 4.94 3.38 C 4.94 3.38 4.94 4.59 4.94 4.59 Z" />
</svg>