<?xml version="1.0" encoding="utf-8"?>
<!-- Generator: Avocode 2.5.4 - http://avocode.com -->
<svg height="88" width="53" xmlns:xlink="http://www.w3.org/1999/xlink" xmlns="http://www.w3.org/2000/svg" viewBox="0 0 53 88">
    <path fill="#ba9444" fill-rule="evenodd" d="M 52.48 59.59 C 52.43 59.63 52.38 59.67 52.32 59.7 C 51.74 60 50.78 60.31 49.93 60.59 C 49.93 60.59 49.4 60.76 49.4 60.76 C 49 61.01 48.81 61.8 49.51 63.22 C 50.28 64.34 49.76 64.96 49 65.76 C 49.44 66.42 49.68 67.22 48.66 68.52 C 48.77 69.45 48.95 71.98 47.74 73.61 C 47.14 74.41 46.32 74.88 45.29 74.98 C 45.29 74.98 45.15 75 45.15 75 C 41.76 75.35 34.72 76.08 35.33 87.21 C 35.35 87.62 35.04 87.98 34.62 88 C 34.61 88 34.6 88 34.58 88 C 34.19 88 33.86 87.69 33.83 87.29 C 33.14 74.74 41.75 73.84 45 73.51 C 45 73.51 45.13 73.49 45.13 73.49 C 45.74 73.43 46.19 73.18 46.54 72.72 C 47.45 71.48 47.27 69.15 47.13 68.44 C 47.09 68.21 47.15 67.98 47.3 67.8 C 48.02 66.99 47.89 66.81 47.74 66.58 C 47.55 66.31 47.07 65.61 47.82 64.82 C 48.04 64.6 48.27 64.35 48.37 64.21 C 48.35 64.18 48.31 64.12 48.25 64.04 C 48.23 64.01 48.21 63.97 48.19 63.94 C 46.95 61.46 47.72 59.95 48.75 59.4 C 48.79 59.38 48.82 59.37 48.86 59.36 C 48.86 59.36 49.47 59.16 49.47 59.16 C 50.13 58.95 51.01 58.66 51.51 58.43 C 51.85 57.8 49.59 54.77 48.84 53.75 C 48.35 53.1 47.9 52.49 47.55 51.97 C 46.25 50.24 45.74 48.99 45.96 48.06 C 46.13 47.33 46.68 47.05 46.89 46.94 C 47.51 46.53 47.43 45.83 47.22 44.73 C 47.18 44.56 47.15 44.39 47.13 44.24 C 47.03 42.83 46.84 41.54 46.58 40.26 C 41.99 42.98 24.96 43.02 24.13 43.02 C 23.3 43.02 6.4 42.98 1.73 40.29 C 1.58 41.52 1.51 42.8 1.53 44.1 C 1.54 45.14 1.55 45.24 1.56 45.55 C 1.56 45.55 1.57 45.83 1.57 45.83 C 1.93 54.06 5.95 61.1 8.35 65.3 C 9.09 66.61 9.68 67.63 9.97 68.37 C 9.99 68.41 10 68.45 10.01 68.49 C 10.51 70.97 9.03 84.73 8.86 86.29 C 8.82 86.68 8.49 86.96 8.11 86.96 C 8.09 86.96 8.06 86.96 8.03 86.96 C 7.62 86.91 7.32 86.54 7.37 86.13 C 7.82 81.99 8.91 70.92 8.55 68.86 C 8.29 68.22 7.74 67.26 7.05 66.05 C 4.58 61.72 0.44 54.49 0.08 45.89 C 0.08 45.89 0.06 45.62 0.06 45.62 C 0.05 45.3 0.04 45.2 0.03 44.12 C 0 42.24 0.15 40.42 0.46 38.69 C 0.48 38.56 0.54 38.46 0.62 38.36 C 1.76 35.34 15.31 34.71 20.76 34.58 C 20.76 34.58 10.68 24.22 10.68 24.22 C 10.4 23.93 10.39 23.48 10.67 23.18 C 10.67 23.18 17.28 16.19 17.28 16.19 C 17.28 16.18 17.29 16.18 17.3 16.17 C 17.34 16.13 17.38 16.11 17.43 16.08 C 17.47 16.06 17.5 16.03 17.55 16.01 C 17.56 16.01 17.56 16 17.57 16 C 17.61 15.98 17.66 15.98 17.7 15.98 C 17.74 15.97 17.78 15.95 17.82 15.95 C 17.82 15.95 33.37 15.95 33.37 15.95 C 33.41 15.95 33.44 15.97 33.48 15.98 C 33.53 15.98 33.57 15.98 33.62 16 C 33.63 16 33.63 16.01 33.64 16.01 C 33.69 16.03 33.72 16.06 33.76 16.08 C 33.81 16.11 33.85 16.13 33.89 16.17 C 33.9 16.18 33.91 16.18 33.91 16.19 C 33.91 16.19 40.52 23.18 40.52 23.18 C 40.8 23.48 40.79 23.93 40.51 24.22 C 40.51 24.22 30.42 34.59 30.42 34.59 C 35.68 34.81 46.61 35.61 47.63 38.36 C 47.7 38.44 47.76 38.54 47.79 38.65 C 48.22 40.42 48.49 42.19 48.62 44.07 C 48.63 44.14 48.66 44.29 48.69 44.44 C 48.89 45.47 49.23 47.2 47.67 48.22 C 47.64 48.24 47.59 48.27 47.56 48.28 C 47.43 48.35 47.42 48.36 47.41 48.4 C 47.39 48.51 47.33 49.18 48.78 51.1 C 49.13 51.64 49.57 52.23 50.04 52.86 C 51.99 55.48 54 58.19 52.48 59.59 Z M 23.73 35.49 C 23.73 35.49 19.79 24.45 19.79 24.45 C 19.79 24.45 12.99 24.45 12.99 24.45 C 12.99 24.45 23.73 35.49 23.73 35.49 Z M 25.6 36.25 C 25.6 36.25 29.81 24.45 29.81 24.45 C 29.81 24.45 21.38 24.45 21.38 24.45 C 21.38 24.45 25.6 36.25 25.6 36.25 Z M 17.53 18.11 C 17.53 18.11 12.95 22.95 12.95 22.95 C 12.95 22.95 19.26 22.95 19.26 22.95 C 19.26 22.95 17.53 18.11 17.53 18.11 Z M 18.89 17.45 C 18.89 17.45 20.51 22.02 20.51 22.02 C 20.51 22.02 24.06 17.45 24.06 17.45 C 24.06 17.45 18.89 17.45 18.89 17.45 Z M 21.69 22.95 C 21.69 22.95 29.5 22.95 29.5 22.95 C 29.5 22.95 25.6 17.92 25.6 17.92 C 25.6 17.92 21.69 22.95 21.69 22.95 Z M 27.13 17.45 C 27.13 17.45 30.68 22.02 30.68 22.02 C 30.68 22.02 32.31 17.45 32.31 17.45 C 32.31 17.45 27.13 17.45 27.13 17.45 Z M 33.66 18.11 C 33.66 18.11 31.93 22.95 31.93 22.95 C 31.93 22.95 38.24 22.95 38.24 22.95 C 38.24 22.95 33.66 18.11 33.66 18.11 Z M 38.2 24.45 C 38.2 24.45 31.4 24.45 31.4 24.45 C 31.4 24.45 27.46 35.49 27.46 35.49 C 27.46 35.49 38.2 24.45 38.2 24.45 Z M 29.01 36.04 C 29.01 36.04 26.13 39 26.13 39 C 26.13 39 26.12 39.01 26.12 39.01 C 26.11 39.02 26.1 39.02 26.09 39.03 C 26.03 39.08 25.97 39.12 25.89 39.15 C 25.88 39.16 25.88 39.16 25.87 39.17 C 25.86 39.17 25.85 39.18 25.85 39.18 C 25.84 39.18 25.84 39.18 25.83 39.18 C 25.76 39.21 25.68 39.22 25.6 39.22 C 25.51 39.22 25.43 39.21 25.34 39.18 C 25.33 39.17 25.32 39.16 25.3 39.15 C 25.29 39.15 25.27 39.14 25.26 39.14 C 25.24 39.13 25.22 39.11 25.21 39.1 C 25.16 39.07 25.11 39.05 25.07 39.01 C 25.07 39.01 25.06 39 25.06 39 C 25.06 39 22.19 36.05 22.19 36.05 C 9.17 36.22 2.78 37.87 2.06 38.78 C 2.92 39.92 11.06 41.52 24.13 41.52 C 37.22 41.52 45.37 39.92 46.2 38.77 C 45.65 38.03 40.8 36.4 29.01 36.04 Z M 45.24 2.71 C 45.24 2.71 40.75 7.21 40.75 7.21 C 40.6 7.36 40.41 7.43 40.22 7.43 C 40.03 7.43 39.84 7.36 39.69 7.21 C 39.4 6.92 39.4 6.44 39.69 6.15 C 39.69 6.15 44.18 1.65 44.18 1.65 C 44.48 1.36 44.95 1.36 45.24 1.65 C 45.54 1.95 45.54 2.42 45.24 2.71 Z M 25.51 8.23 C 25.1 8.23 24.76 7.9 24.76 7.48 C 24.76 7.48 24.76 0.75 24.76 0.75 C 24.76 0.33 25.1 0 25.51 0 C 25.93 0 26.26 0.33 26.26 0.75 C 26.26 0.75 26.26 7.48 26.26 7.48 C 26.26 7.9 25.93 8.23 25.51 8.23 Z M 10.61 6.9 C 10.46 7.04 10.27 7.12 10.08 7.12 C 9.89 7.12 9.69 7.04 9.55 6.9 C 9.55 6.9 5.29 2.64 5.29 2.64 C 5 2.35 5 1.88 5.29 1.58 C 5.59 1.29 6.06 1.29 6.35 1.58 C 6.35 1.58 10.61 5.84 10.61 5.84 C 10.9 6.13 10.9 6.61 10.61 6.9 Z" />
</svg>