<?xml version="1.0" encoding="utf-8"?>
<!-- Generator: Avocode 2.5.4 - http://avocode.com -->
<svg height="81" width="90" xmlns:xlink="http://www.w3.org/1999/xlink" xmlns="http://www.w3.org/2000/svg" viewBox="0 0 90 81">
    <path fill="#ba9444" fill-rule="evenodd" d="M 90 11.42 C 90 12.41 89.56 13.28 88.91 13.77 C 89.23 14.25 89.43 14.84 89.43 15.5 C 89.43 16.95 88.48 18.13 87.29 18.26 C 87.29 18.26 64.05 58.52 64.05 58.52 C 63.92 58.76 63.66 58.89 63.4 58.89 C 63.28 58.89 63.15 58.86 63.03 58.79 C 63.03 58.79 62.67 58.59 62.67 58.59 C 62.67 58.59 61.29 60.97 61.29 60.97 C 61.6 61.58 61.61 62.37 61.26 62.98 C 61.26 62.98 58.3 68.12 58.3 68.12 C 58.29 68.12 58.29 68.12 58.29 68.13 C 58.29 68.13 51.57 79.76 51.57 79.76 C 51.24 80.33 50.71 80.74 50.07 80.91 C 49.85 80.97 49.63 81 49.42 81 C 48.99 81 48.56 80.89 48.18 80.67 C 47.86 80.48 47.6 80.23 47.4 79.94 C 47.06 80.32 46.58 80.57 46.03 80.65 C 45.9 80.66 45.78 80.67 45.64 80.67 C 45.11 80.67 44.57 80.52 44.07 80.24 C 43.51 79.92 43.08 79.45 42.82 78.91 C 42.51 79.05 42.18 79.13 41.82 79.13 C 41.3 79.13 40.76 78.99 40.25 78.69 C 39.63 78.34 39.16 77.81 38.92 77.2 C 38.83 76.99 38.79 76.79 38.76 76.58 C 38.7 76.59 38.64 76.6 38.58 76.6 C 38.05 76.6 37.5 76.44 37.01 76.16 C 36.39 75.8 35.92 75.27 35.67 74.66 C 35.42 74.05 35.45 73.4 35.71 72.85 C 35.71 72.85 12.57 32.75 12.57 32.75 C 12.47 32.58 12.44 32.37 12.49 32.18 C 12.54 31.99 12.67 31.82 12.84 31.72 C 12.84 31.72 13.2 31.52 13.2 31.52 C 13.2 31.52 11.82 29.13 11.82 29.13 C 11.14 29.09 10.45 28.71 10.1 28.1 C 10.1 28.1 7.14 22.96 7.14 22.96 C 7.13 22.96 7.13 22.95 7.13 22.95 C 7.13 22.95 0.42 11.32 0.42 11.32 C 0.09 10.75 0 10.08 0.17 9.43 C 0.34 8.79 0.75 8.26 1.33 7.92 C 1.65 7.74 2 7.64 2.35 7.61 C 2.01 6.54 2.58 5.26 3.76 4.58 C 4.31 4.26 4.92 4.12 5.51 4.16 C 5.54 3.95 5.58 3.74 5.67 3.54 C 5.91 2.93 6.38 2.4 7 2.04 C 7.62 1.69 8.31 1.54 8.96 1.63 C 9.18 1.67 9.38 1.73 9.58 1.81 C 9.84 1.28 10.27 0.82 10.82 0.5 C 11.43 0.14 12.13 0 12.78 0.09 C 13.37 0.18 13.88 0.47 14.22 0.89 C 14.22 0.89 60.63 0.89 60.63 0.89 C 61.05 0.89 61.38 1.23 61.38 1.64 C 61.38 1.64 61.38 2.06 61.38 2.06 C 61.38 2.06 64.13 2.06 64.13 2.06 C 64.51 1.48 65.19 1.08 65.89 1.08 C 65.89 1.08 71.82 1.08 71.82 1.08 C 71.83 1.08 71.83 1.08 71.84 1.08 C 71.84 1.08 85.26 1.08 85.26 1.08 C 86.63 1.08 87.74 2.2 87.74 3.57 C 87.74 3.94 87.65 4.29 87.51 4.61 C 88.6 4.85 89.43 5.98 89.43 7.34 C 89.43 8 89.23 8.6 88.91 9.07 C 89.56 9.57 90 10.43 90 11.42 Z M 63.13 57.12 C 63.13 57.12 85.54 18.29 85.54 18.29 C 85.54 18.29 73.22 18.29 73.22 18.29 C 70.34 18.29 67.98 19.57 66.76 21.81 C 66.75 21.82 66.74 21.83 66.73 21.84 C 66.73 21.84 50.56 49.86 50.56 49.86 C 50.56 49.86 63.13 57.12 63.13 57.12 Z M 37.06 74.1 C 37.18 74.4 37.44 74.67 37.76 74.86 C 38.08 75.05 38.44 75.13 38.76 75.08 C 38.9 75.06 39.17 74.99 39.3 74.77 C 39.3 74.77 41.83 70.38 41.83 70.38 C 41.83 70.38 43.38 67.69 43.38 67.69 C 43.38 67.69 43.38 67.69 43.38 67.69 C 43.38 67.69 43.67 67.2 43.67 67.2 C 43.88 66.84 44.34 66.71 44.69 66.92 C 45.05 67.13 45.18 67.59 44.97 67.95 C 44.97 67.95 43.73 70.09 43.73 70.09 C 43.73 70.09 40.31 76.02 40.31 76.02 C 40.18 76.24 40.25 76.5 40.31 76.64 C 40.43 76.93 40.68 77.21 41 77.4 C 41.6 77.74 42.32 77.7 42.54 77.31 C 42.54 77.31 46.91 69.73 46.91 69.73 C 46.91 69.73 46.91 69.73 46.91 69.73 C 46.91 69.73 47.2 69.24 47.2 69.24 C 47.41 68.88 47.87 68.75 48.22 68.96 C 48.58 69.17 48.7 69.63 48.5 69.98 C 48.5 69.98 44.13 77.56 44.13 77.56 C 44 77.78 44.07 78.05 44.13 78.18 C 44.24 78.48 44.5 78.75 44.82 78.94 C 45.14 79.12 45.51 79.21 45.82 79.16 C 45.97 79.14 46.23 79.07 46.36 78.85 C 46.36 78.85 47.27 77.27 47.27 77.27 C 47.27 77.27 47.27 77.27 47.27 77.27 C 47.27 77.27 48.08 75.87 48.08 75.87 C 48.08 75.87 50.73 71.27 50.73 71.27 C 50.94 70.91 51.4 70.79 51.76 71 C 52.11 71.21 52.24 71.66 52.03 72.02 C 52.03 72.02 51.99 72.09 51.99 72.09 C 51.99 72.09 51.99 72.09 51.99 72.1 C 51.99 72.1 48.57 78.02 48.57 78.02 C 48.44 78.25 48.4 78.52 48.47 78.77 C 48.54 79.02 48.7 79.23 48.93 79.37 C 49.16 79.5 49.42 79.53 49.68 79.46 C 49.93 79.4 50.14 79.23 50.28 79.01 C 50.28 79.01 57.27 66.89 57.27 66.89 C 57.27 66.89 57.28 66.88 57.28 66.88 C 57.28 66.88 59.96 62.23 59.96 62.23 C 60.08 62.03 60.02 61.67 59.89 61.55 C 59.88 61.54 59.87 61.52 59.86 61.5 C 59.82 61.46 59.79 61.42 59.77 61.38 C 59.74 61.34 59.72 61.3 59.71 61.25 C 59.69 61.21 59.68 61.16 59.68 61.11 C 59.67 61.07 59.66 61.02 59.67 60.97 C 59.67 60.92 59.68 60.88 59.69 60.84 C 59.7 60.79 59.71 60.74 59.74 60.69 C 59.75 60.67 59.75 60.65 59.76 60.63 C 59.76 60.63 61.37 57.84 61.37 57.84 C 61.37 57.84 49.7 51.1 49.7 51.1 C 49 51.05 47.35 51.02 45.33 51.71 C 44.79 51.9 44.36 52.06 44.02 52.19 C 44.02 52.19 44.21 52.54 44.21 52.54 C 44.22 52.56 44.22 52.58 44.23 52.59 C 45.8 55.2 45.73 58.39 44.04 61.38 C 44.04 61.39 44.04 61.4 44.03 61.41 C 44.03 61.41 44 61.47 44 61.47 C 44 61.47 44 61.47 43.99 61.48 C 43.99 61.48 43.99 61.48 43.99 61.48 C 43.99 61.48 37.07 73.48 37.07 73.48 C 36.94 73.7 37.01 73.97 37.06 74.1 Z M 36.57 71.34 C 36.57 71.34 42.7 60.72 42.7 60.72 C 44.16 58.18 44.24 55.5 42.94 53.35 C 42.93 53.33 42.93 53.31 42.93 53.3 C 42.92 53.29 42.92 53.29 42.92 53.29 C 42.92 53.29 26.81 25.39 26.81 25.39 C 26.81 25.39 14.24 32.65 14.24 32.65 C 14.24 32.65 36.57 71.34 36.57 71.34 Z M 13.11 1.89 C 12.98 1.67 12.71 1.6 12.57 1.58 C 12.25 1.53 11.89 1.61 11.57 1.8 C 11.25 1.99 10.99 2.26 10.87 2.56 C 10.82 2.69 10.75 2.95 10.88 3.18 C 10.88 3.18 12.91 6.71 12.91 6.71 C 12.91 6.71 14.96 10.26 14.96 10.26 C 14.96 10.26 14.96 10.26 14.96 10.26 C 14.96 10.26 15.25 10.75 15.25 10.75 C 15.45 11.11 15.33 11.57 14.97 11.78 C 14.61 11.98 14.15 11.86 13.95 11.5 C 13.95 11.5 10.77 6 10.77 6 C 10.77 6 9.29 3.43 9.29 3.43 C 9.16 3.21 8.9 3.14 8.75 3.12 C 8.44 3.08 8.07 3.16 7.75 3.34 C 7.43 3.53 7.18 3.8 7.06 4.1 C 7 4.23 6.93 4.5 7.06 4.72 C 7.06 4.72 7.34 5.21 7.34 5.21 C 7.34 5.21 7.34 5.22 7.35 5.22 C 7.35 5.22 11.72 12.79 11.72 12.79 C 11.92 13.15 11.8 13.61 11.44 13.82 C 11.08 14.02 10.62 13.9 10.42 13.54 C 10.42 13.54 10.13 13.05 10.13 13.05 C 10.13 13.05 10.13 13.05 10.13 13.05 C 10.13 13.05 6.05 5.97 6.05 5.97 C 5.92 5.74 5.65 5.67 5.51 5.66 C 5.19 5.61 4.83 5.69 4.51 5.88 C 3.91 6.22 3.59 6.87 3.81 7.26 C 3.81 7.26 5.53 10.22 5.53 10.22 C 5.53 10.22 8.14 14.76 8.14 14.76 C 8.15 14.76 8.14 14.76 8.15 14.76 C 8.15 14.76 8.19 14.83 8.19 14.83 C 8.39 15.19 8.27 15.65 7.91 15.86 C 7.79 15.92 7.66 15.96 7.54 15.96 C 7.28 15.96 7.02 15.82 6.89 15.58 C 6.89 15.58 3.43 9.58 3.43 9.58 C 3.15 9.11 2.55 8.95 2.08 9.22 C 1.85 9.36 1.69 9.57 1.62 9.82 C 1.55 10.08 1.59 10.34 1.72 10.57 C 1.72 10.57 8.71 22.68 8.71 22.68 C 8.71 22.69 8.71 22.69 8.71 22.69 C 8.71 22.69 11.4 27.35 11.4 27.35 C 11.52 27.55 11.85 27.68 12.02 27.63 C 12.04 27.62 12.06 27.63 12.08 27.62 C 12.13 27.61 12.18 27.61 12.23 27.61 C 12.28 27.61 12.33 27.61 12.38 27.62 C 12.42 27.63 12.46 27.64 12.51 27.66 C 12.55 27.67 12.6 27.69 12.64 27.72 C 12.68 27.75 12.71 27.78 12.74 27.81 C 12.78 27.84 12.81 27.88 12.85 27.92 C 12.86 27.94 12.88 27.95 12.89 27.97 C 12.89 27.97 14.5 30.77 14.5 30.77 C 14.5 30.77 26.09 24.07 26.09 24.07 C 26.68 23.26 27.43 21.89 27.82 19.93 C 27.94 19.34 28.02 18.82 28.09 18.41 C 28.09 18.41 27.66 18.41 27.66 18.41 C 27.65 18.41 27.65 18.41 27.64 18.41 C 27.58 18.42 27.52 18.42 27.45 18.42 C 24.43 18.42 21.76 16.81 20.09 13.98 C 20.09 13.97 20.08 13.97 20.08 13.96 C 20.08 13.96 20.04 13.9 20.04 13.9 C 20.04 13.9 20.04 13.89 20.04 13.89 C 20.04 13.89 20.04 13.89 20.04 13.89 C 20.04 13.89 13.11 1.89 13.11 1.89 Z M 59.88 2.39 C 59.88 2.39 15.13 2.39 15.13 2.39 C 15.13 2.39 21.34 13.15 21.34 13.15 C 22.76 15.61 24.96 16.96 27.53 16.91 C 27.53 16.91 59.88 16.91 59.88 16.91 C 59.88 16.91 59.88 2.39 59.88 2.39 Z M 60.42 18.41 C 60.42 18.41 29.61 18.41 29.61 18.41 C 29.54 18.85 29.44 19.48 29.29 20.22 C 29.01 21.65 28.5 22.98 27.82 24.14 C 27.82 24.14 43.26 50.88 43.26 50.88 C 43.63 50.73 44.17 50.53 44.85 50.3 C 46.52 49.72 47.97 49.58 48.99 49.58 C 48.99 49.58 64.46 22.77 64.46 22.77 C 64.13 22.5 63.67 22.12 63.12 21.64 C 61.77 20.47 60.92 19.27 60.42 18.41 Z M 87.65 10.13 C 87.65 10.13 87.08 10.13 87.08 10.13 C 87.08 10.13 78.91 10.13 78.91 10.13 C 78.91 10.13 78.34 10.13 78.34 10.13 C 77.92 10.13 77.59 9.8 77.59 9.38 C 77.59 8.97 77.92 8.63 78.34 8.63 C 78.34 8.63 78.91 8.63 78.91 8.63 C 78.91 8.63 87.08 8.63 87.08 8.63 C 87.53 8.63 87.93 8.03 87.93 7.34 C 87.93 6.66 87.53 6.05 87.08 6.05 C 87.08 6.05 85.26 6.05 85.26 6.05 C 85.26 6.05 78.42 6.05 78.42 6.05 C 78.42 6.05 78.34 6.05 78.34 6.05 C 77.92 6.05 77.59 5.72 77.59 5.3 C 77.59 4.89 77.92 4.55 78.34 4.55 C 78.34 4.55 78.42 4.55 78.42 4.55 C 78.42 4.55 85.26 4.55 85.26 4.55 C 85.8 4.55 86.24 4.11 86.24 3.57 C 86.24 3.03 85.8 2.58 85.26 2.58 C 85.26 2.58 71.27 2.58 71.27 2.58 C 71.27 2.58 71.27 2.58 71.26 2.58 C 71.26 2.58 65.89 2.58 65.89 2.58 C 65.66 2.58 65.38 2.8 65.34 2.98 C 65.33 3 65.32 3.02 65.31 3.05 C 65.3 3.08 65.29 3.11 65.27 3.15 C 65.24 3.2 65.21 3.24 65.18 3.28 C 65.15 3.31 65.13 3.34 65.11 3.36 C 65.06 3.4 65.01 3.43 64.96 3.46 C 64.93 3.47 64.91 3.49 64.88 3.5 C 64.79 3.54 64.7 3.56 64.61 3.56 C 64.61 3.56 64.61 3.56 64.61 3.56 C 64.61 3.56 64.61 3.56 64.61 3.56 C 64.61 3.56 61.38 3.56 61.38 3.56 C 61.38 3.56 61.38 17.04 61.38 17.04 C 61.7 17.7 62.51 19.12 64.1 20.51 C 64.55 20.9 64.92 21.21 65.22 21.45 C 65.22 21.45 65.53 20.91 65.53 20.91 C 65.55 20.88 65.59 20.86 65.61 20.83 C 67.13 18.29 69.83 16.83 73.11 16.8 C 73.12 16.8 73.13 16.79 73.14 16.79 C 73.14 16.79 87.08 16.79 87.08 16.79 C 87.53 16.79 87.93 16.19 87.93 15.5 C 87.93 14.81 87.53 14.21 87.08 14.21 C 87.08 14.21 78.91 14.21 78.91 14.21 C 78.91 14.21 78.34 14.21 78.34 14.21 C 77.92 14.21 77.59 13.87 77.59 13.46 C 77.59 13.05 77.92 12.71 78.34 12.71 C 78.34 12.71 78.91 12.71 78.91 12.71 C 78.91 12.71 87.08 12.71 87.08 12.71 C 87.08 12.71 87.65 12.71 87.65 12.71 C 88.11 12.71 88.5 12.11 88.5 11.42 C 88.5 10.73 88.11 10.13 87.65 10.13 Z" />
</svg>