<?xml version="1.0" encoding="utf-8"?>
<!-- Generator: Avocode 2.5.4 - http://avocode.com -->
<svg height="61" width="105" xmlns:xlink="http://www.w3.org/1999/xlink" xmlns="http://www.w3.org/2000/svg" viewBox="0 0 105 61">
    <path fill="#ba9444" fill-rule="evenodd" d="M 100.73 32.59 C 99.98 34.14 95.01 38.81 92.44 40.75 C 86.76 45.1 73.83 44.98 70.35 44.87 C 70.35 44.87 70.45 46.15 70.45 46.15 C 70.45 46.15 72.43 46.15 72.43 46.15 C 72.84 46.15 73.18 46.49 73.18 46.9 C 73.18 46.9 73.18 51 73.18 51 C 73.18 51 74.06 51 74.06 51 C 74.47 51 74.81 51.33 74.81 51.74 C 74.81 51.74 74.81 60.22 74.81 60.22 C 74.81 60.63 74.47 60.96 74.06 60.96 C 73.64 60.96 73.3 60.63 73.3 60.22 C 73.3 60.22 73.3 52.49 73.3 52.49 C 73.3 52.49 72.43 52.49 72.43 52.49 C 72.43 52.49 56.15 52.49 56.15 52.49 C 56.15 52.49 55.28 52.49 55.28 52.49 C 55.28 52.49 55.28 60.22 55.28 60.22 C 55.28 60.63 54.94 60.96 54.53 60.96 C 54.11 60.96 53.78 60.63 53.78 60.22 C 53.78 60.22 53.78 51.74 53.78 51.74 C 53.78 51.33 54.11 51 54.53 51 C 54.53 51 55.4 51 55.4 51 C 55.4 51 55.4 46.9 55.4 46.9 C 55.4 46.49 55.74 46.15 56.15 46.15 C 56.15 46.15 58.58 46.15 58.58 46.15 C 58.58 46.15 60.09 37.21 60.09 37.21 C 60.12 37.1 62.11 27.32 70.8 28.35 C 72.98 28.66 74.35 29.02 75.35 29.28 C 77.05 29.73 77.75 29.92 80.18 29.31 C 81.23 29.1 82.3 28.84 83.34 28.59 C 87.39 27.6 91.22 26.67 92.02 29.2 C 92.47 30.35 92.19 31.35 91.56 32.21 C 92.75 31.61 93.63 30.88 94.78 29.51 C 95.28 28.88 97.36 23.07 97.87 21.43 C 98.72 18.88 101.88 17.6 103.59 17.97 C 104.48 18.16 104.99 18.81 104.9 19.63 C 104.81 24.17 100.78 32.51 100.73 32.59 Z M 56.91 47.65 C 56.91 47.65 56.91 51 56.91 51 C 56.91 51 71.67 51 71.67 51 C 71.67 51 71.67 47.65 71.67 47.65 C 71.67 47.65 69.81 47.65 69.81 47.65 C 69.81 47.65 69.8 47.65 69.8 47.65 C 69.78 47.65 69.77 47.65 69.75 47.65 C 69.74 47.65 69.73 47.65 69.73 47.65 C 69.73 47.65 56.91 47.65 56.91 47.65 Z M 102.11 19.52 C 101.09 19.8 99.74 20.58 99.3 21.89 C 99.29 21.95 96.78 29.47 95.94 30.47 C 93.55 33.3 92.07 33.79 88.12 35.09 C 87.53 35.29 86.89 35.5 86.18 35.74 C 86.18 35.74 85.68 35.86 85.68 35.86 C 85.29 35.94 83.42 36.29 82.44 36.06 C 82.04 35.96 81.78 35.56 81.88 35.16 C 81.97 34.76 82.38 34.51 82.79 34.6 C 83.28 34.72 84.58 34.55 85.36 34.4 C 85.36 34.4 85.76 34.31 85.76 34.31 C 85.78 34.3 85.79 34.3 85.81 34.29 C 85.83 34.28 85.84 34.26 85.86 34.25 C 85.86 34.25 86.02 34.18 86.02 34.18 C 87.63 33.44 91.39 31.73 90.61 29.7 C 90.2 28.45 86.6 29.33 83.7 30.04 C 82.64 30.29 81.55 30.56 80.51 30.76 C 77.74 31.46 76.76 31.2 74.96 30.73 C 73.95 30.46 72.68 30.13 70.6 29.83 C 63.34 28.98 61.64 37.13 61.57 37.48 C 61.57 37.48 60.11 46.15 60.11 46.15 C 60.11 46.15 68.94 46.15 68.94 46.15 C 68.94 46.15 68.79 44.14 68.79 44.14 C 68.77 43.92 68.85 43.71 69 43.56 C 69.15 43.41 69.37 43.33 69.58 43.34 C 69.74 43.35 85.51 44.17 91.53 39.57 C 94.28 37.48 98.83 33.07 99.38 31.94 C 99.42 31.86 103.31 23.82 103.4 19.53 C 103.36 19.42 102.9 19.31 102.11 19.52 Z M 88.3 25.21 C 88.29 25.22 88.28 25.22 88.27 25.22 C 88.17 25.27 88.06 25.31 87.94 25.31 C 87.94 25.31 87.94 25.31 87.94 25.31 C 87.94 25.31 87.94 25.31 87.94 25.31 C 87.94 25.31 87.94 25.31 87.94 25.31 C 87.94 25.31 69.23 25.31 69.23 25.31 C 68.82 25.31 68.48 24.97 68.48 24.56 C 68.48 24.56 68.48 5.9 68.48 5.9 C 68.48 5.87 68.49 5.85 68.5 5.82 C 68.5 5.77 68.51 5.72 68.53 5.67 C 68.54 5.63 68.56 5.59 68.59 5.55 C 68.61 5.5 68.63 5.47 68.66 5.43 C 68.7 5.39 68.73 5.36 68.78 5.33 C 68.8 5.31 68.81 5.28 68.83 5.27 C 68.83 5.27 74.29 1.88 74.29 1.88 C 74.4 1.8 74.54 1.76 74.68 1.76 C 74.68 1.76 94.45 1.76 94.45 1.76 C 94.46 1.76 94.46 1.77 94.47 1.77 C 94.48 1.77 94.5 1.77 94.52 1.77 C 94.62 1.78 94.71 1.81 94.8 1.86 C 94.81 1.86 94.83 1.86 94.84 1.87 C 94.86 1.88 94.87 1.9 94.89 1.91 C 94.96 1.96 95.02 2.02 95.06 2.09 C 95.08 2.12 95.1 2.14 95.12 2.17 C 95.17 2.28 95.21 2.39 95.21 2.51 C 95.21 2.51 95.21 20.96 95.21 20.96 C 95.21 21.23 95.06 21.48 94.82 21.61 C 94.82 21.61 88.3 25.21 88.3 25.21 Z M 69.99 23.82 C 69.99 23.82 87.18 23.82 87.18 23.82 C 87.18 23.82 87.18 6.65 87.18 6.65 C 87.18 6.65 69.99 6.65 69.99 6.65 C 69.99 6.65 69.99 23.82 69.99 23.82 Z M 74.9 3.26 C 74.9 3.26 71.85 5.16 71.85 5.16 C 71.85 5.16 87.85 5.16 87.85 5.16 C 87.85 5.16 91.44 3.26 91.44 3.26 C 91.44 3.26 74.9 3.26 74.9 3.26 Z M 93.7 3.75 C 93.7 3.75 88.69 6.4 88.69 6.4 C 88.69 6.4 88.69 23.29 88.69 23.29 C 88.69 23.29 93.7 20.52 93.7 20.52 C 93.7 20.52 93.7 3.75 93.7 3.75 Z M 50.46 60.96 C 50.05 60.96 49.71 60.63 49.71 60.22 C 49.71 60.22 49.71 52.49 49.71 52.49 C 49.71 52.49 48.83 52.49 48.83 52.49 C 48.83 52.49 32.56 52.49 32.56 52.49 C 32.56 52.49 31.69 52.49 31.69 52.49 C 31.69 52.49 31.69 60.22 31.69 60.22 C 31.69 60.63 31.35 60.96 30.93 60.96 C 30.52 60.96 30.18 60.63 30.18 60.22 C 30.18 60.22 30.18 51.74 30.18 51.74 C 30.18 51.33 30.52 51 30.93 51 C 30.93 51 31.81 51 31.81 51 C 31.81 51 31.81 46.9 31.81 46.9 C 31.81 46.49 32.15 46.15 32.56 46.15 C 32.56 46.15 34.54 46.15 34.54 46.15 C 34.54 46.15 34.64 44.87 34.64 44.87 C 31.16 44.98 18.22 45.1 12.55 40.75 C 9.98 38.81 5.01 34.14 4.25 32.59 C 4.21 32.51 0.18 24.18 0.09 19.56 C 0 18.81 0.51 18.16 1.4 17.97 C 3.11 17.59 6.27 18.88 7.11 21.42 C 7.62 23.02 9.72 28.89 10.21 29.51 C 11.37 30.89 12.25 31.62 13.44 32.22 C 12.81 31.35 12.53 30.33 12.98 29.16 C 13.77 26.67 17.6 27.6 21.65 28.59 C 22.69 28.84 23.76 29.1 24.77 29.3 C 27.24 29.92 27.94 29.73 29.64 29.28 C 30.64 29.02 32 28.66 34.17 28.36 C 42.88 27.34 44.87 37.1 44.89 37.19 C 44.89 37.19 46.41 46.15 46.41 46.15 C 46.41 46.15 48.83 46.15 48.83 46.15 C 49.25 46.15 49.59 46.49 49.59 46.9 C 49.59 46.9 49.59 51 49.59 51 C 49.59 51 50.46 51 50.46 51 C 50.88 51 51.21 51.33 51.21 51.74 C 51.21 51.74 51.21 60.22 51.21 60.22 C 51.21 60.63 50.88 60.96 50.46 60.96 Z M 43.41 37.46 C 43.35 37.13 41.67 28.99 34.37 29.84 C 32.3 30.13 31.04 30.46 30.03 30.73 C 28.23 31.2 27.24 31.46 24.44 30.76 C 23.44 30.56 22.35 30.29 21.29 30.04 C 18.39 29.33 14.78 28.46 14.4 29.66 C 13.6 31.73 17.36 33.44 18.97 34.18 C 18.97 34.18 19.12 34.25 19.12 34.25 C 19.14 34.26 19.16 34.27 19.17 34.29 C 19.22 34.3 19.25 34.31 19.3 34.33 C 19.3 34.33 19.66 34.41 19.66 34.41 C 20.4 34.55 21.71 34.72 22.2 34.6 C 22.61 34.51 23.01 34.76 23.11 35.16 C 23.2 35.56 22.95 35.96 22.55 36.06 C 21.57 36.29 19.7 35.94 19.34 35.87 C 19.34 35.87 18.88 35.76 18.88 35.76 C 18.1 35.5 17.46 35.29 16.87 35.09 C 12.91 33.79 11.43 33.3 9.05 30.47 C 8.2 29.46 5.7 21.95 5.68 21.87 C 5.25 20.58 3.9 19.8 2.88 19.52 C 2.09 19.31 1.63 19.42 1.56 19.49 C 1.66 23.1 4.52 29.7 5.61 31.94 C 6.16 33.07 10.71 37.48 13.46 39.56 C 19.48 44.17 35.25 43.35 35.41 43.34 C 35.61 43.33 35.83 43.41 35.99 43.56 C 36.14 43.71 36.21 43.92 36.2 44.14 C 36.2 44.14 36.05 46.15 36.05 46.15 C 36.05 46.15 44.88 46.15 44.88 46.15 C 44.88 46.15 43.41 37.46 43.41 37.46 Z M 48.08 47.65 C 48.08 47.65 35.26 47.65 35.26 47.65 C 35.25 47.65 35.25 47.65 35.24 47.65 C 35.22 47.65 35.2 47.65 35.19 47.65 C 35.18 47.65 35.18 47.65 35.18 47.65 C 35.18 47.65 33.31 47.65 33.31 47.65 C 33.31 47.65 33.31 51 33.31 51 C 33.31 51 48.08 51 48.08 51 C 48.08 51 48.08 47.65 48.08 47.65 Z M 24.08 25.86 C 17.16 25.86 11.53 20.27 11.53 13.4 C 11.53 6.54 17.16 0.96 24.08 0.96 C 31 0.96 36.63 6.54 36.63 13.4 C 36.63 20.27 31 25.86 24.08 25.86 Z M 24.08 2.45 C 17.99 2.45 13.04 7.36 13.04 13.4 C 13.04 19.45 17.99 24.36 24.08 24.36 C 30.17 24.36 35.12 19.45 35.12 13.4 C 35.12 7.36 30.17 2.45 24.08 2.45 Z" />
</svg>