<?xml version="1.0" encoding="utf-8"?>
<!-- Generator: Avocode 2.5.4 - http://avocode.com -->
<svg height="78" width="77" xmlns:xlink="http://www.w3.org/1999/xlink" xmlns="http://www.w3.org/2000/svg" viewBox="0 0 77 78">
    <path fill="#ba9444" fill-rule="evenodd" d="M 76.25 10.91 C 76.25 10.91 63.2 10.91 63.2 10.91 C 63.2 10.91 63.2 11.87 63.2 11.87 C 63.21 11.9 63.22 11.93 63.22 11.97 C 63.22 11.97 63.22 34.82 63.22 34.82 C 63.22 34.85 63.21 34.88 63.2 34.92 C 63.2 34.92 63.2 35.6 63.2 35.6 C 63.2 35.6 76.25 35.6 76.25 35.6 C 76.66 35.6 77 35.94 77 36.35 C 77 36.77 76.66 37.11 76.25 37.11 C 76.25 37.11 62.45 37.11 62.45 37.11 C 62.04 37.11 61.71 36.77 61.71 36.35 C 61.71 36.35 61.71 35.57 61.71 35.57 C 61.71 35.57 59.12 35.57 59.12 35.57 C 59.12 35.57 59.12 77.18 59.12 77.18 C 59.12 77.59 58.79 77.93 58.38 77.93 C 58.38 77.93 23.82 77.93 23.82 77.93 C 23.41 77.93 23.07 77.59 23.07 77.18 C 23.07 77.18 23.07 36.94 23.07 36.94 C 22.17 36.27 21.57 35.3 21.38 34.18 C 21.35 33.97 21.34 33.76 21.34 33.55 C 20.92 33.7 20.48 33.81 20 33.81 C 19.14 33.81 18.3 33.54 17.58 33.02 C 15.94 31.85 15.39 29.74 16.2 28.1 C 16.2 28.1 15.28 28.1 15.28 28.1 C 15.28 28.1 15.28 30.13 15.28 30.13 C 15.28 30.54 14.94 30.88 14.53 30.88 C 14.53 30.88 0.73 30.88 0.73 30.88 C 0.32 30.88 -0.01 30.54 -0.01 30.13 C -0.01 29.71 0.32 29.37 0.73 29.37 C 0.73 29.37 13.78 29.37 13.78 29.37 C 13.78 29.37 13.78 5.24 13.78 5.24 C 13.78 5.24 0.73 5.24 0.73 5.24 C 0.32 5.24 -0.01 4.9 -0.01 4.49 C -0.01 4.07 0.32 3.73 0.73 3.73 C 0.73 3.73 14.53 3.73 14.53 3.73 C 14.94 3.73 15.28 4.07 15.28 4.49 C 15.28 4.49 15.28 6.52 15.28 6.52 C 15.28 6.52 18.24 6.52 18.24 6.52 C 20.03 3.12 23.59 0.94 27.41 0.94 C 27.41 0.94 38.17 0.94 38.17 0.94 C 40.1 0.94 41.38 1.52 42.13 2.64 C 42.79 2.65 43.47 2.66 44.1 2.67 C 44.13 2.66 44.16 2.65 44.2 2.65 C 44.88 2.65 45.52 2.67 46.14 2.71 C 46.19 2.71 46.24 2.71 46.28 2.71 C 46.31 2.71 46.33 2.73 46.36 2.73 C 55.1 3.38 57.54 7.99 58.15 11.21 C 58.15 11.21 61.71 11.21 61.71 11.21 C 61.71 11.21 61.71 10.15 61.71 10.15 C 61.71 9.74 62.04 9.4 62.45 9.4 C 62.45 9.4 76.25 9.4 76.25 9.4 C 76.66 9.4 77 9.74 77 10.15 C 77 10.57 76.66 10.91 76.25 10.91 Z M 24.57 76.42 C 24.57 76.42 57.63 76.42 57.63 76.42 C 57.63 76.42 57.63 35.57 57.63 35.57 C 57.63 35.57 56.82 35.57 56.82 35.57 C 56.62 35.87 56.38 36.16 56.1 36.41 C 55.25 37.17 54.18 37.52 53.24 37.5 C 53.38 38.67 52.88 40 51.82 40.94 C 50.24 42.35 47.99 42.4 46.81 41.05 C 46.81 41.05 46.29 40.46 46.29 40.46 C 46.09 41.27 45.63 42.03 44.96 42.62 C 44.17 43.32 43.18 43.71 42.23 43.71 C 42.15 43.71 42.08 43.71 42.01 43.7 C 41.18 43.65 40.46 43.3 39.95 42.72 C 39.95 42.72 39.77 42.52 39.77 42.52 C 39.77 42.52 38.65 44.12 38.65 44.12 C 38.07 44.95 37.12 45.44 36.06 45.44 C 35.33 45.44 34.62 45.2 34.01 44.77 C 33 44.05 32.49 42.9 32.54 41.78 C 32.18 41.88 31.8 41.94 31.42 41.94 C 30.53 41.94 29.67 41.66 28.94 41.14 C 27.73 40.28 27.09 38.88 27.13 37.48 C 26.65 37.67 26.14 37.79 25.62 37.79 C 25.62 37.79 25.62 37.79 25.62 37.79 C 25.26 37.79 24.91 37.74 24.57 37.65 C 24.57 37.65 24.57 76.42 24.57 76.42 Z M 39.47 34.91 C 38.9 34.91 38.4 35.16 38.1 35.59 C 38.1 35.59 34.93 40.11 34.93 40.11 C 34.93 40.11 34.93 40.11 34.93 40.11 C 34.93 40.11 34.3 41.01 34.3 41.01 C 33.76 41.79 34.01 42.92 34.88 43.54 C 35.72 44.14 36.9 44 37.43 43.24 C 37.43 43.24 38.99 41.02 38.99 41.02 C 39.03 40.9 39.09 40.8 39.19 40.71 C 39.2 40.7 39.21 40.7 39.22 40.69 C 39.22 40.69 41.23 37.83 41.23 37.83 C 41.77 37.05 41.52 35.91 40.65 35.3 C 40.3 35.04 39.89 34.91 39.47 34.91 Z M 40.04 33.45 C 40.04 33.45 39.74 33.12 39.74 33.12 C 39.7 33.22 39.63 33.31 39.58 33.41 C 39.73 33.41 39.89 33.42 40.04 33.45 Z M 38.64 30.77 C 38.51 30.03 38.1 29.37 37.49 28.94 C 37.01 28.6 36.46 28.42 35.87 28.42 C 34.96 28.42 34.11 28.86 33.58 29.61 C 33.58 29.61 29.13 35.96 29.13 35.96 C 28.24 37.23 28.54 39.01 29.8 39.91 C 31.02 40.79 32.85 40.46 33.71 39.24 C 33.71 39.24 36.88 34.72 36.88 34.72 C 36.88 34.72 36.88 34.72 36.88 34.72 C 36.88 34.72 38.16 32.89 38.16 32.89 C 38.59 32.27 38.76 31.52 38.64 30.77 Z M 40.66 41.25 C 40.66 41.25 41.07 41.73 41.07 41.73 C 41.38 42.08 41.8 42.18 42.1 42.2 C 42.73 42.23 43.41 41.98 43.97 41.49 C 44.52 40.99 44.87 40.34 44.91 39.7 C 44.92 39.4 44.88 38.97 44.57 38.61 C 44.57 38.61 43 36.82 43 36.82 C 43.02 37.48 42.84 38.14 42.45 38.7 C 42.45 38.7 40.66 41.25 40.66 41.25 Z M 22.86 33.93 C 22.98 34.67 23.39 35.33 24 35.76 C 25.22 36.63 27.05 36.31 27.91 35.09 C 27.91 35.09 32.02 29.23 32.02 29.23 C 32.45 28.61 32.62 27.86 32.5 27.11 C 32.37 26.37 31.96 25.71 31.35 25.28 C 30.87 24.94 30.31 24.76 29.73 24.76 C 28.82 24.76 27.96 25.2 27.44 25.95 C 27.44 25.95 23.33 31.81 23.33 31.81 C 22.9 32.43 22.73 33.18 22.86 33.93 Z M 18.44 31.79 C 19.54 32.57 21.09 32.4 21.77 31.43 C 21.77 31.43 24.1 28.11 24.1 28.11 C 24.1 28.11 24.51 27.52 24.51 27.52 C 25.21 26.51 24.87 25.04 23.74 24.23 C 23.27 23.9 22.73 23.72 22.18 23.72 C 21.45 23.72 20.8 24.04 20.41 24.59 C 20.41 24.59 18.5 27.33 18.5 27.33 C 18.5 27.33 18.5 27.34 18.5 27.34 C 18.5 27.67 18.28 27.94 17.99 28.05 C 17.99 28.05 17.67 28.5 17.67 28.5 C 16.97 29.51 17.32 30.98 18.44 31.79 Z M 38.17 2.45 C 38.17 2.45 27.41 2.45 27.41 2.45 C 24 2.45 20.84 4.47 19.37 7.6 C 19.25 7.86 18.99 8.03 18.7 8.03 C 18.7 8.03 15.31 8.03 15.31 8.03 C 15.31 8.03 15.31 26.59 15.31 26.59 C 15.31 26.59 17.18 26.59 17.18 26.59 C 17.18 26.59 19.19 23.72 19.19 23.72 C 19.86 22.76 20.95 22.21 22.18 22.21 C 23.04 22.21 23.88 22.48 24.6 23 C 25.38 23.56 25.9 24.33 26.16 25.16 C 26.16 25.16 26.22 25.08 26.22 25.08 C 27.02 23.93 28.34 23.25 29.73 23.25 C 30.62 23.25 31.48 23.52 32.21 24.05 C 33.15 24.71 33.77 25.71 33.97 26.86 C 34 27.02 33.99 27.19 34 27.35 C 34.58 27.07 35.22 26.91 35.87 26.91 C 36.77 26.91 37.62 27.18 38.36 27.7 C 39.29 28.38 39.91 29.37 40.11 30.52 C 40.16 30.8 40.18 31.09 40.17 31.37 C 40.2 31.39 40.24 31.41 40.27 31.44 C 40.27 31.44 47.93 40.04 47.93 40.04 C 48.57 40.78 49.87 40.67 50.83 39.81 C 51.8 38.95 52.07 37.66 51.44 36.94 C 51.44 36.94 40.05 23.98 40.05 23.98 C 39.82 23.72 39.8 23.34 39.99 23.05 C 40.12 22.86 40.36 22.7 40.59 22.69 C 40.82 22.68 41.07 22.73 41.22 22.91 C 41.22 22.91 52.21 35.52 52.21 35.52 C 52.84 36.25 54.14 36.14 55.11 35.28 C 56.06 34.44 56.34 33.12 55.71 32.41 C 55.71 32.41 43.62 18.64 43.62 18.64 C 43.39 18.38 43.37 18 43.56 17.72 C 43.69 17.52 43.92 17.37 44.15 17.36 C 44.39 17.34 44.63 17.41 44.78 17.58 C 44.78 17.58 56.59 31.13 56.59 31.13 C 56.88 31.46 57.31 31.62 57.84 31.61 C 58.41 31.58 59 31.33 59.49 30.89 C 59.98 30.45 60.3 29.9 60.4 29.32 C 60.49 28.81 60.38 28.34 60.09 28.02 C 60.09 28.02 49.45 15.9 49.45 15.9 C 44.77 17.06 42 14.38 40.8 11.99 C 40.8 11.99 34.7 18.12 34.7 18.12 C 34.67 18.15 34.64 18.17 34.61 18.2 C 33.4 19.09 31.96 19.44 30.53 19.44 C 28.09 19.44 25.71 18.4 24.77 17.27 C 24 16.36 24.25 15.53 24.73 15.05 C 24.73 15.05 34.94 4.74 34.94 4.74 C 34.96 4.72 36.76 3.04 39.17 2.68 C 39.28 2.67 39.48 2.66 39.74 2.65 C 39.34 2.53 38.84 2.45 38.17 2.45 Z M 61.71 12.72 C 61.71 12.72 57.52 12.72 57.52 12.72 C 57.14 12.72 56.83 12.44 56.78 12.06 C 56.18 7.37 52.33 4.62 45.91 4.21 C 43.51 4.16 39.87 4.11 39.38 4.18 C 37.5 4.45 36 5.8 35.99 5.82 C 35.99 5.82 25.78 16.12 25.78 16.12 C 25.8 16.22 26.24 16.78 27.45 17.29 C 29.3 18.06 31.93 18.27 33.69 17.01 C 33.69 17.01 40.35 10.32 40.35 10.32 C 40.4 10.27 40.43 10.23 40.47 10.19 C 40.64 9.99 40.93 9.88 41.19 9.93 C 41.45 9.98 41.68 10.16 41.77 10.42 C 41.96 11 43.79 16.04 49.51 14.33 C 49.62 14.3 49.73 14.26 49.85 14.22 C 50.52 13.99 51.1 13.73 51.56 13.42 C 51.91 13.2 52.37 13.3 52.6 13.65 C 52.82 14 52.72 14.47 52.38 14.69 C 51.98 14.95 51.51 15.18 51 15.39 C 51 15.39 61.21 27.02 61.21 27.02 C 61.43 27.27 61.59 27.56 61.71 27.87 C 61.71 27.87 61.71 12.72 61.71 12.72 Z M 61.71 30.21 C 61.47 30.89 61.05 31.52 60.48 32.02 C 59.73 32.68 58.82 33.07 57.9 33.11 C 57.78 33.12 57.65 33.12 57.53 33.11 C 57.55 33.42 57.52 33.74 57.46 34.07 C 57.46 34.07 58.26 34.07 58.26 34.07 C 58.3 34.06 58.34 34.04 58.38 34.04 C 58.41 34.04 58.45 34.06 58.49 34.07 C 58.49 34.07 61.71 34.07 61.71 34.07 C 61.71 34.07 61.71 30.21 61.71 30.21 Z M 29.78 47.54 C 29.78 47.54 52.42 47.54 52.42 47.54 C 52.83 47.54 53.16 47.88 53.16 48.29 C 53.16 48.71 52.83 49.05 52.42 49.05 C 52.42 49.05 29.78 49.05 29.78 49.05 C 29.37 49.05 29.03 48.71 29.03 48.29 C 29.03 47.88 29.37 47.54 29.78 47.54 Z M 29.78 53.56 C 29.78 53.56 52.42 53.56 52.42 53.56 C 52.83 53.56 53.16 53.89 53.16 54.31 C 53.16 54.73 52.83 55.06 52.42 55.06 C 52.42 55.06 29.78 55.06 29.78 55.06 C 29.37 55.06 29.03 54.73 29.03 54.31 C 29.03 53.89 29.37 53.56 29.78 53.56 Z M 29.78 68 C 29.78 68 38.12 68 38.12 68 C 38.53 68 38.87 68.34 38.87 68.75 C 38.87 69.17 38.53 69.51 38.12 69.51 C 38.12 69.51 29.78 69.51 29.78 69.51 C 29.37 69.51 29.03 69.17 29.03 68.75 C 29.03 68.34 29.37 68 29.78 68 Z M 50.03 62.92 C 53.08 62.92 55.55 65.42 55.55 68.49 C 55.55 71.56 53.08 74.06 50.03 74.06 C 47 74.06 44.52 71.56 44.52 68.49 C 44.52 65.42 47 62.92 50.03 62.92 Z M 50.03 72.55 C 52.25 72.55 54.05 70.73 54.05 68.49 C 54.05 66.25 52.25 64.43 50.03 64.43 C 47.82 64.43 46.02 66.25 46.02 68.49 C 46.02 70.73 47.82 72.55 50.03 72.55 Z M 50.03 65.85 C 51.47 65.85 52.64 67.04 52.64 68.49 C 52.64 69.94 51.47 71.12 50.03 71.12 C 48.6 71.12 47.43 69.94 47.43 68.49 C 47.43 67.04 48.6 65.85 50.03 65.85 Z M 50.03 69.62 C 50.65 69.62 51.15 69.11 51.15 68.49 C 51.15 67.87 50.65 67.36 50.03 67.36 C 49.42 67.36 48.92 67.87 48.92 68.49 C 48.92 69.11 49.42 69.62 50.03 69.62 Z" />
</svg>