<svg xmlns="http://www.w3.org/2000/svg" width="16" height="11" viewBox="0 0 16 11"><defs><style>.cls-1{fill:#fff;fill-rule:evenodd;filter:url(#filter)}</style><filter id="filter" x="1085" y="78" width="16" height="11" filterUnits="userSpaceOnUse"><feFlood result="flood" flood-color="#69adf9"/><feComposite result="composite" operator="in" in2="SourceGraphic"/><feBlend result="blend" in2="SourceGraphic"/></filter></defs><path id="email_icon" data-name="email icon" class="cls-1" d="M1100.54 89h-15.08a.457.457 0 0 1-.46-.461V78.461a.457.457 0 0 1 .46-.46h15.08a.456.456 0 0 1 .46.46v10.078a.457.457 0 0 1-.46.461zm-14.63-.922h14.18v-9.155h-14.18v9.156zm7.09-4.117a.429.429 0 0 1-.25-.076l-7.55-5.04a.461.461 0 0 1-.12-.638.451.451 0 0 1 .63-.13l7.29 4.871 7.29-4.871a.451.451 0 0 1 .63.13.46.46 0 0 1-.12.638l-7.55 5.039a.424.424 0 0 1-.25.077zm-7.54 4.578" transform="translate(-1085 -78)"/></svg>