<?xml version="1.0" encoding="utf-8"?>
<!-- Generator: Adobe Illustrator 19.1.0, SVG Export Plug-In . SVG Version: 6.00 Build 0)  -->
<svg version="1.1" id="Слой_1" xmlns="http://www.w3.org/2000/svg" xmlns:xlink="http://www.w3.org/1999/xlink" x="0px" y="0px"
	 viewBox="0 0 13.994 16.497" style="enable-background:new 0 0 13.994 16.497;" xml:space="preserve">
<style type="text/css">
	.st0{fill-rule:evenodd;clip-rule:evenodd;fill:#FFFFFF;}
	.st1{fill:#1E1E1C;}
</style>
<g>
	<g>
		<g>
			<path class="st0" d="M1.369,16.347h1.017V0.15H1.369V16.347z"/>
			<path class="st1" d="M2.386,16.497H1.369c-0.083,0-0.15-0.067-0.15-0.15V0.15C1.219,0.067,1.286,0,1.369,0h1.017
				c0.082,0,0.149,0.067,0.149,0.15v16.197C2.535,16.43,2.468,16.497,2.386,16.497z M1.518,16.197h0.717V0.3H1.518V16.197z"/>
		</g>
		<g>
			<path class="st0" d="M0.149,1.628h8.328l0.211,0.116l2.406,1.327l2.617,1.444L11.095,5.96L8.688,7.288L8.477,7.405H0.149V1.628z"
				/>
			<path class="st1" d="M8.477,7.555H0.149C0.066,7.555,0,7.488,0,7.405V1.628c0-0.083,0.066-0.15,0.149-0.15h8.328
				c0.025,0,0.05,0.007,0.072,0.019l5.235,2.888c0.047,0.026,0.077,0.077,0.077,0.131c0,0.055-0.03,0.105-0.077,0.131L8.55,7.536
				C8.527,7.548,8.503,7.555,8.477,7.555z M0.3,7.255h8.139l4.963-2.739L8.438,1.778H0.3V7.255z"/>
		</g>
	</g>
	<g>
		<g>
			<path class="st0" d="M6.101,16.347H4.477v-2.409h1.624V16.347z"/>
			<path class="st1" d="M6.101,16.497H4.477c-0.082,0-0.149-0.067-0.149-0.15v-2.409c0-0.082,0.067-0.15,0.149-0.15h1.624
				c0.082,0,0.15,0.067,0.15,0.15v2.409C6.252,16.43,6.184,16.497,6.101,16.497z M4.628,16.197h1.323v-2.108H4.628V16.197z"/>
		</g>
		<g>
			<path class="st0" d="M8.037,16.347H6.414V12.12h1.623V16.347z"/>
			<path class="st1" d="M8.037,16.497H6.414c-0.083,0-0.15-0.067-0.15-0.15V12.12c0-0.083,0.067-0.15,0.15-0.15h1.623
				c0.083,0,0.15,0.067,0.15,0.15v4.228C8.187,16.43,8.12,16.497,8.037,16.497z M6.563,16.197h1.324v-3.927H6.563V16.197z"/>
		</g>
		<g>
			<path class="st0" d="M9.973,16.347H8.35v-3.444h1.623V16.347z"/>
			<path class="st1" d="M9.973,16.497H8.35c-0.082,0-0.15-0.067-0.15-0.15v-3.444c0-0.083,0.068-0.15,0.15-0.15h1.623
				c0.083,0,0.15,0.067,0.15,0.15v3.444C10.123,16.43,10.056,16.497,9.973,16.497z M8.5,16.197h1.322v-3.144H8.5V16.197z"/>
		</g>
		<g>
			<path class="st0" d="M11.908,16.347h-1.623v-4.42h1.623V16.347z"/>
			<path class="st1" d="M11.908,16.497h-1.623c-0.083,0-0.15-0.067-0.15-0.15v-4.42c0-0.083,0.067-0.15,0.15-0.15h1.623
				c0.083,0,0.15,0.067,0.15,0.15v4.42C12.059,16.43,11.991,16.497,11.908,16.497z M10.435,16.197h1.323v-4.12h-1.323V16.197z"/>
		</g>
		<g>
			<path class="st0" d="M13.844,16.347h-1.623v-5.25h1.623V16.347z"/>
			<path class="st1" d="M13.844,16.497h-1.623c-0.083,0-0.15-0.067-0.15-0.15v-5.25c0-0.083,0.067-0.15,0.15-0.15h1.623
				c0.083,0,0.15,0.067,0.15,0.15v5.25C13.994,16.43,13.927,16.497,13.844,16.497z M12.37,16.197h1.324v-4.95H12.37V16.197z"/>
		</g>
		<g>
			<path class="st0" d="M4.478,13.151L4.26,12.744l3.346-2.352L9.439,11.3l3.033-1.742l-0.229-0.371l1.492-0.108l-0.693,1.114
				l-0.318-0.265l-3.272,1.897l-1.814-0.897L4.478,13.151z"/>
			<path class="st1" d="M4.478,13.301c-0.012,0-0.023-0.002-0.035-0.004c-0.041-0.01-0.077-0.037-0.097-0.075l-0.22-0.407
				c-0.036-0.067-0.016-0.15,0.046-0.193l3.346-2.352c0.046-0.032,0.104-0.037,0.153-0.012l1.763,0.873l2.829-1.625l-0.148-0.24
				c-0.027-0.044-0.03-0.1-0.006-0.147c0.024-0.046,0.07-0.077,0.123-0.081l1.492-0.108c0.06-0.006,0.11,0.024,0.139,0.072
				c0.029,0.048,0.029,0.108-0.001,0.157l-0.693,1.114c-0.023,0.037-0.061,0.062-0.102,0.069c-0.043,0.006-0.087-0.005-0.12-0.033
				l-0.237-0.198l-3.182,1.845c-0.044,0.025-0.098,0.027-0.142,0.004l-1.734-0.857l-3.088,2.17
				C4.539,13.292,4.509,13.301,4.478,13.301z M4.454,12.79l0.076,0.141l3.022-2.125c0.045-0.032,0.105-0.037,0.152-0.012
				l1.742,0.861l3.203-1.856c0.055-0.033,0.123-0.026,0.171,0.014l0.186,0.155l0.446-0.718l-0.952,0.069L12.6,9.48
				c0.021,0.034,0.028,0.076,0.018,0.115c-0.01,0.039-0.035,0.073-0.07,0.093L9.514,11.43c-0.043,0.025-0.097,0.026-0.141,0.004
				l-1.755-0.869L4.454,12.79z"/>
		</g>
	</g>
</g>
</svg>
