<?xml version="1.0" encoding="utf-8"?>
<!-- Generator: Avocode 2.6.0 - http://avocode.com -->
<svg height="37" width="97" xmlns:xlink="http://www.w3.org/1999/xlink" xmlns="http://www.w3.org/2000/svg" viewBox="0 0 97 37">
    <path fill="#000000" fill-rule="evenodd" d="M 95.78 11.42 C 93.89 13.47 91.86 15.37 89.61 17.04 C 87.03 18.96 84.26 20.51 81.13 21.37 C 79.47 21.82 77.76 22.08 76.04 22.14 C 71.39 22.3 66.84 21.64 62.37 20.39 C 59.68 19.64 57 18.85 54.3 18.13 C 52.03 17.53 49.72 17.11 47.38 16.86 C 45.68 16.69 43.99 16.64 42.29 16.68 C 39.59 16.73 36.99 17.31 34.44 18.17 C 31.09 19.3 27.86 20.7 24.59 22.01 C 22.63 22.79 20.66 23.55 18.69 24.31 C 18.43 24.41 18.32 24.57 18.31 24.82 C 18.25 26.76 18.23 28.69 18.74 30.58 C 18.87 31.08 18.91 31.11 19.45 31.04 C 20.66 30.88 21.86 30.59 23.05 30.28 C 23.4 30.19 24.18 29.96 24.9 29.7 C 26.59 29.09 29.9 27.71 29.9 27.71 C 29.9 27.71 33.75 25.86 34.23 25.61 C 34.23 25.61 34.23 25.61 34.23 25.61 C 34.87 25.27 35.42 24.98 35.99 24.69 C 36 24.68 36.03 24.66 36.05 24.67 C 36.41 24.81 36.46 25.21 36.69 25.46 C 36.83 25.61 36.7 25.72 36.59 25.81 C 36.21 26.15 26.88 33.34 24.22 34.63 C 22.16 35.62 20.01 36.22 17.7 36.13 C 16.88 36.1 16.07 36.01 15.28 35.82 C 13.92 35.49 13.03 34.59 12.41 33.4 C 11.67 31.96 11.31 30.42 11.13 28.82 C 11.08 28.32 11.03 27.82 11.01 27.32 C 11 27.02 10.92 26.97 10.63 27.05 C 9.17 27.47 7.7 27.85 6.19 28.1 C 4.88 28.32 3.56 28.54 2.23 28.19 C 1.72 28.06 1.23 27.9 0.88 27.48 C 0.52 27.07 0.43 26.58 0.63 26.18 C 0.7 26.06 0.76 25.95 0.93 26 C 1.35 26.14 1.77 26.03 2.19 25.98 C 5.2 25.58 8.1 24.75 10.94 23.7 C 11.13 23.63 11.19 23.5 11.22 23.31 C 11.58 20.53 12.36 17.86 13.45 15.28 C 14.61 12.52 16.21 10.04 18.19 7.79 C 19.76 6 21.48 4.4 23.49 3.11 C 25.48 1.82 27.68 1.1 30.06 0.92 C 32.19 0.75 34.23 1.06 36.07 2.2 C 37.7 3.2 38.63 4.65 38.84 6.55 C 38.95 7.62 39.11 8.69 38.78 9.75 C 38.77 9.78 38.77 9.8 38.76 9.82 C 38.65 10.17 37.16 12.61 36.8 13.03 C 36.73 13.24 36.51 13.32 36.42 13.53 C 36.64 13.55 36.83 13.5 37.01 13.44 C 39.1 12.86 41.22 12.45 43.37 12.26 C 45.18 12.1 47 12.11 48.81 12.22 C 52.96 12.47 56.97 13.44 60.99 14.37 C 63.87 15.03 66.76 15.61 69.69 15.95 C 71.35 16.14 73.02 16.28 74.7 16.33 C 75.67 16.37 76.65 16.41 77.63 16.37 C 79.42 16.32 81.21 16.23 83 16.05 C 85.1 15.83 87.14 15.4 89.11 14.63 C 90.98 13.9 92.58 12.76 94.13 11.52 C 94.58 11.16 95.02 10.79 95.46 10.41 C 95.61 10.28 95.71 10.29 95.83 10.45 C 96.14 10.85 96.13 11.05 95.78 11.42 Z M 32.02 4.98 C 31.88 4.79 31.69 4.65 31.5 4.51 C 31.18 4.29 30.85 4.27 30.49 4.4 C 29.51 4.78 28.65 5.35 27.86 6.02 C 25.8 7.73 24.29 9.88 22.93 12.14 C 21.48 14.54 20.3 17.08 19.4 19.74 C 19.36 19.86 19.33 19.97 19.29 20.08 C 19.29 20.08 21.23 19.27 21.23 19.27 C 21.23 19.27 24.92 17.5 24.92 17.5 C 24.91 17.5 24.91 17.49 24.9 17.49 C 25.48 17.21 26.05 16.94 26.63 16.66 C 28.37 15.82 30.12 14.99 31.6 13.72 C 32.01 13.37 32.4 12.99 32.75 12.58 C 32.82 12.49 32.92 12.47 33.41 11.59 C 33.51 11.42 33.58 10.85 33.61 10.48 C 33.79 8.45 33.28 6.6 32.02 4.98 Z M 44.53 26.89 C 44.53 26.89 41.69 26.89 41.69 26.89 C 41.69 26.89 41.69 28.37 41.69 28.37 C 41.69 28.37 44.38 28.37 44.38 28.37 C 44.38 28.37 44.38 29.24 44.38 29.24 C 44.38 29.24 41.69 29.24 41.69 29.24 C 41.69 29.24 41.69 30.88 41.69 30.88 C 41.69 30.88 44.68 30.88 44.68 30.88 C 44.68 30.88 44.68 31.8 44.68 31.8 C 44.68 31.8 40.64 31.8 40.64 31.8 C 40.64 31.8 40.64 25.99 40.64 25.99 C 40.64 25.99 44.53 25.99 44.53 25.99 C 44.53 25.99 44.53 26.89 44.53 26.89 Z M 47.43 29.62 C 47.43 29.79 47.45 29.96 47.5 30.13 C 47.54 30.3 47.62 30.44 47.72 30.57 C 47.82 30.71 47.95 30.81 48.12 30.89 C 48.29 30.98 48.5 31.02 48.75 31.02 C 49 31.02 49.2 30.98 49.37 30.89 C 49.54 30.81 49.68 30.71 49.78 30.57 C 49.88 30.44 49.95 30.3 50 30.13 C 50.04 29.96 50.06 29.79 50.06 29.62 C 50.06 29.62 50.06 25.99 50.06 25.99 C 50.06 25.99 51.11 25.99 51.11 25.99 C 51.11 25.99 51.11 29.66 51.11 29.66 C 51.11 30.01 51.05 30.33 50.92 30.61 C 50.8 30.89 50.64 31.13 50.43 31.33 C 50.22 31.53 49.97 31.68 49.68 31.79 C 49.4 31.89 49.08 31.95 48.75 31.95 C 48.41 31.95 48.1 31.89 47.81 31.79 C 47.52 31.68 47.28 31.53 47.06 31.33 C 46.85 31.13 46.68 30.89 46.57 30.61 C 46.45 30.33 46.39 30.01 46.39 29.66 C 46.39 29.66 46.39 25.99 46.39 25.99 C 46.39 25.99 47.43 25.99 47.43 25.99 C 47.43 25.99 47.43 29.62 47.43 29.62 Z M 56.22 26.07 C 56.48 26.13 56.71 26.22 56.91 26.36 C 57.11 26.49 57.27 26.66 57.39 26.87 C 57.51 27.09 57.57 27.35 57.57 27.65 C 57.57 28.07 57.45 28.42 57.21 28.68 C 56.97 28.95 56.65 29.13 56.23 29.22 C 56.23 29.22 57.8 31.8 57.8 31.8 C 57.8 31.8 56.54 31.8 56.54 31.8 C 56.54 31.8 55.18 29.34 55.18 29.34 C 55.18 29.34 54.14 29.34 54.14 29.34 C 54.14 29.34 54.14 31.8 54.14 31.8 C 54.14 31.8 53.09 31.8 53.09 31.8 C 53.09 31.8 53.09 25.99 53.09 25.99 C 53.09 25.99 55.41 25.99 55.41 25.99 C 55.69 25.99 55.96 26.01 56.22 26.07 Z M 54.14 26.86 C 54.14 26.86 54.14 28.49 54.14 28.49 C 54.14 28.49 55.27 28.49 55.27 28.49 C 55.42 28.49 55.57 28.48 55.72 28.46 C 55.87 28.43 56 28.39 56.12 28.33 C 56.24 28.27 56.34 28.19 56.41 28.07 C 56.49 27.96 56.53 27.82 56.53 27.64 C 56.53 27.49 56.49 27.36 56.42 27.26 C 56.35 27.15 56.26 27.07 56.15 27.01 C 56.04 26.95 55.91 26.91 55.77 26.89 C 55.63 26.87 55.5 26.86 55.36 26.86 C 55.36 26.86 54.14 26.86 54.14 26.86 Z M 59.94 26.66 C 60.22 26.4 60.55 26.19 60.93 26.05 C 61.31 25.91 61.73 25.84 62.18 25.84 C 62.64 25.84 63.06 25.91 63.45 26.05 C 63.84 26.19 64.17 26.4 64.45 26.66 C 64.73 26.92 64.95 27.24 65.11 27.62 C 65.27 27.99 65.35 28.41 65.35 28.88 C 65.35 29.33 65.27 29.74 65.11 30.12 C 64.95 30.49 64.73 30.82 64.45 31.09 C 64.17 31.36 63.84 31.57 63.45 31.72 C 63.06 31.87 62.64 31.95 62.18 31.95 C 61.73 31.95 61.31 31.87 60.93 31.72 C 60.55 31.57 60.22 31.36 59.94 31.09 C 59.66 30.82 59.44 30.49 59.28 30.12 C 59.13 29.74 59.05 29.33 59.05 28.88 C 59.05 28.41 59.13 27.99 59.28 27.62 C 59.44 27.24 59.66 26.92 59.94 26.66 Z M 60.33 29.73 C 60.42 29.99 60.56 30.22 60.74 30.41 C 60.92 30.6 61.13 30.75 61.38 30.86 C 61.62 30.97 61.89 31.02 62.19 31.02 C 62.49 31.02 62.76 30.97 63.01 30.86 C 63.26 30.75 63.47 30.6 63.65 30.41 C 63.83 30.22 63.97 29.99 64.07 29.73 C 64.16 29.47 64.21 29.19 64.21 28.88 C 64.21 28.57 64.16 28.3 64.07 28.04 C 63.97 27.78 63.83 27.56 63.66 27.37 C 63.48 27.17 63.27 27.02 63.02 26.91 C 62.77 26.8 62.5 26.75 62.19 26.75 C 61.89 26.75 61.61 26.8 61.37 26.91 C 61.12 27.02 60.91 27.17 60.74 27.37 C 60.56 27.56 60.42 27.78 60.33 28.04 C 60.23 28.3 60.18 28.57 60.18 28.88 C 60.18 29.19 60.23 29.47 60.33 29.73 Z M 67.98 30.89 C 68.22 31.01 68.46 31.07 68.69 31.07 C 68.81 31.07 68.93 31.05 69.06 31.02 C 69.19 30.99 69.3 30.94 69.4 30.87 C 69.51 30.8 69.59 30.71 69.65 30.6 C 69.72 30.5 69.75 30.36 69.75 30.21 C 69.75 30.05 69.71 29.93 69.64 29.82 C 69.57 29.72 69.47 29.64 69.35 29.56 C 69.23 29.49 69.09 29.42 68.92 29.37 C 68.76 29.31 68.58 29.26 68.4 29.2 C 68.22 29.14 68.05 29.08 67.87 29 C 67.69 28.92 67.53 28.82 67.39 28.7 C 67.25 28.57 67.14 28.41 67.05 28.23 C 66.96 28.05 66.92 27.82 66.92 27.55 C 66.92 27.25 66.98 27 67.1 26.78 C 67.23 26.57 67.39 26.39 67.59 26.25 C 67.79 26.11 68.02 26.01 68.28 25.94 C 68.54 25.87 68.8 25.84 69.06 25.84 C 69.36 25.84 69.66 25.89 69.97 25.99 C 70.27 26.1 70.54 26.25 70.77 26.46 C 70.77 26.46 70.09 27.2 70.09 27.2 C 69.98 27.06 69.82 26.94 69.62 26.84 C 69.42 26.75 69.22 26.7 69.01 26.7 C 68.89 26.7 68.77 26.72 68.65 26.75 C 68.53 26.78 68.42 26.82 68.32 26.89 C 68.22 26.95 68.14 27.03 68.07 27.13 C 68.01 27.23 67.98 27.35 67.98 27.5 C 67.98 27.63 68.01 27.74 68.06 27.83 C 68.12 27.93 68.19 28.01 68.29 28.07 C 68.38 28.14 68.5 28.2 68.64 28.24 C 68.78 28.29 68.93 28.34 69.09 28.39 C 69.28 28.45 69.48 28.52 69.68 28.6 C 69.88 28.67 70.06 28.77 70.23 28.9 C 70.4 29.03 70.54 29.18 70.65 29.38 C 70.75 29.57 70.81 29.81 70.81 30.09 C 70.81 30.4 70.75 30.68 70.63 30.91 C 70.52 31.14 70.36 31.33 70.17 31.49 C 69.98 31.64 69.75 31.76 69.49 31.83 C 69.23 31.91 68.96 31.95 68.67 31.95 C 68.29 31.95 67.92 31.88 67.55 31.74 C 67.19 31.6 66.89 31.39 66.66 31.12 C 66.66 31.12 67.41 30.43 67.41 30.43 C 67.55 30.62 67.74 30.78 67.98 30.89 Z M 76.49 26.89 C 76.49 26.89 74.69 26.89 74.69 26.89 C 74.69 26.89 74.69 31.8 74.69 31.8 C 74.69 31.8 73.65 31.8 73.65 31.8 C 73.65 31.8 73.65 26.89 73.65 26.89 C 73.65 26.89 71.85 26.89 71.85 26.89 C 71.85 26.89 71.85 25.99 71.85 25.99 C 71.85 25.99 76.49 25.99 76.49 25.99 C 76.49 25.99 76.49 26.89 76.49 26.89 Z M 80.15 25.99 C 80.15 25.99 82.68 31.8 82.68 31.8 C 82.68 31.8 81.49 31.8 81.49 31.8 C 81.49 31.8 80.94 30.47 80.94 30.47 C 80.94 30.47 78.4 30.47 78.4 30.47 C 78.4 30.47 77.87 31.8 77.87 31.8 C 77.87 31.8 76.7 31.8 76.7 31.8 C 76.7 31.8 79.25 25.99 79.25 25.99 C 79.25 25.99 80.15 25.99 80.15 25.99 Z M 80.58 29.58 C 80.58 29.58 79.67 27.22 79.67 27.22 C 79.67 27.22 78.75 29.58 78.75 29.58 C 78.75 29.58 80.58 29.58 80.58 29.58 Z M 87.12 26.07 C 87.38 26.13 87.61 26.22 87.82 26.36 C 88.02 26.49 88.18 26.66 88.3 26.87 C 88.42 27.09 88.48 27.35 88.48 27.65 C 88.48 28.07 88.36 28.42 88.12 28.68 C 87.88 28.95 87.55 29.13 87.14 29.22 C 87.14 29.22 88.7 31.8 88.7 31.8 C 88.7 31.8 87.45 31.8 87.45 31.8 C 87.45 31.8 86.09 29.34 86.09 29.34 C 86.09 29.34 85.04 29.34 85.04 29.34 C 85.04 29.34 85.04 31.8 85.04 31.8 C 85.04 31.8 84 31.8 84 31.8 C 84 31.8 84 25.99 84 25.99 C 84 25.99 86.32 25.99 86.32 25.99 C 86.6 25.99 86.86 26.01 87.12 26.07 Z M 85.04 26.86 C 85.04 26.86 85.04 28.49 85.04 28.49 C 85.04 28.49 86.18 28.49 86.18 28.49 C 86.33 28.49 86.48 28.48 86.63 28.46 C 86.78 28.43 86.91 28.39 87.03 28.33 C 87.15 28.27 87.25 28.19 87.32 28.07 C 87.4 27.96 87.44 27.82 87.44 27.64 C 87.44 27.49 87.4 27.36 87.33 27.26 C 87.26 27.15 87.17 27.07 87.06 27.01 C 86.95 26.95 86.82 26.91 86.68 26.89 C 86.54 26.87 86.4 26.86 86.27 26.86 C 86.27 26.86 85.04 26.86 85.04 26.86 Z M 90.15 26.2 C 90.15 26.2 89.79 26.2 89.79 26.2 C 89.79 26.2 89.79 27.2 89.79 27.2 C 89.79 27.2 89.48 27.2 89.48 27.2 C 89.48 27.2 89.48 26.2 89.48 26.2 C 89.48 26.2 89.13 26.2 89.13 26.2 C 89.13 26.2 89.13 25.94 89.13 25.94 C 89.13 25.94 90.15 25.94 90.15 25.94 C 90.15 25.94 90.15 26.2 90.15 26.2 Z M 91.17 26.75 C 91.17 26.75 91.18 26.75 91.18 26.75 C 91.18 26.75 91.46 25.94 91.46 25.94 C 91.46 25.94 91.9 25.94 91.9 25.94 C 91.9 25.94 91.9 27.2 91.9 27.2 C 91.9 27.2 91.6 27.2 91.6 27.2 C 91.6 27.2 91.61 26.31 91.61 26.31 C 91.61 26.31 91.6 26.31 91.6 26.31 C 91.6 26.31 91.27 27.2 91.27 27.2 C 91.27 27.2 91.06 27.2 91.06 27.2 C 91.06 27.2 90.74 26.31 90.74 26.31 C 90.74 26.31 90.73 26.31 90.73 26.31 C 90.73 26.31 90.74 27.2 90.74 27.2 C 90.74 27.2 90.45 27.2 90.45 27.2 C 90.45 27.2 90.45 25.94 90.45 25.94 C 90.45 25.94 90.89 25.94 90.89 25.94 C 90.89 25.94 91.17 26.75 91.17 26.75 Z" />
</svg>