<?xml version="1.0" encoding="utf-8"?>
<!-- Generator: Avocode 2.5.4 - http://avocode.com -->
<svg height="22" width="22" xmlns:xlink="http://www.w3.org/1999/xlink" xmlns="http://www.w3.org/2000/svg" viewBox="0 0 22 22">
    <path fill="#e5e5e5" fill-rule="evenodd" d="M 0 0 C 0 0 22 0 22 0 C 22 0 22 22 22 22 C 22 22 0 22 0 22 C 0 22 0 0 0 0 Z" />
    <path fill="#91713c" fill-rule="evenodd" d="M 18.51 7.61 C 18.51 7.61 11.61 17.51 11.61 17.51 C 11.31 17.82 10.9 17.95 10.5 17.94 C 10.1 17.95 9.69 17.82 9.39 17.51 C 9.39 17.51 4.49 10.61 4.49 10.61 C 3.9 10.02 3.9 9.07 4.49 8.49 C 5.07 7.9 6.03 7.9 6.61 8.49 C 6.61 8.49 10.49 13.95 10.49 13.95 C 10.49 13.95 16.39 5.49 16.39 5.49 C 16.97 4.9 17.93 4.9 18.51 5.49 C 19.1 6.07 19.1 7.02 18.51 7.61 Z" />
</svg>