<svg xmlns="http://www.w3.org/2000/svg" width="48" height="33"><path fill="#282E33" fill-rule="evenodd" d="M3.818 0h40.325c2.101 0 3.82 1.738 3.82 3.86v25.15a3.854 3.854 0 0 1-3.854 3.855H3.854A3.854 3.854 0 0 1 0 29.01V3.86C0 1.738 1.717 0 3.818 0zm37.86 16.004a.59.59 0 0 0 .586-.593v-2.788a.59.59 0 0 0-.586-.593H31.315a.59.59 0 0 0-.586.593v2.788a.59.59 0 0 0 .586.593h10.363zm-15.652-4.378v13.373a.59.59 0 0 0 .588.593h2.774a.589.589 0 0 0 .586-.593l-.001-12.385c0-.745.597-1.35 1.334-1.35l10.427.002a.59.59 0 0 0 .586-.592V7.865a.59.59 0 0 0-.586-.593l-11.405.003c-2.376 0-4.303 1.948-4.303 4.35zm-10.487.633c.33-.595.96-.996 1.683-.996l2.767.002c.738 0 1.335.604 1.335 1.35l-.001 12.384a.59.59 0 0 0 .585.594h2.775a.59.59 0 0 0 .587-.594V11.626c0-2.403-1.928-4.35-4.304-4.35l-3.753.001c-2.217 0-4.147 1.239-5.15 3.07L4.142 24.731a.585.585 0 0 0 .509.86l3.21-.002a.575.575 0 0 0 .504-.3l7.175-13.03zm-6 12.472a.597.597 0 0 0-.069.275.58.58 0 0 0 .577.584h3.21a.575.575 0 0 0 .505-.302l4.948-8.987a.574.574 0 0 1 .502-.297h.775a.59.59 0 0 0 .587-.593v-2.788a.59.59 0 0 0-.587-.593h-2.763c-.441 0-.826.246-1.027.61L9.538 24.73z"/></svg>