<svg xmlns="http://www.w3.org/2000/svg" width="83" height="32"><path fill="#282E33" fill-rule="evenodd" d="M82.089 9.85c-1.632 1.781-3.382 3.433-5.317 4.884-2.224 1.666-4.61 3.014-7.308 3.76-1.433.395-2.907.62-4.392.67-4.007.142-7.928-.43-11.78-1.518-2.318-.655-4.628-1.342-6.956-1.964a38.675 38.675 0 0 0-5.961-1.102 35.458 35.458 0 0 0-4.384-.164c-2.33.044-4.57.55-6.768 1.3-2.88.983-5.67 2.197-8.49 3.333-1.688.68-3.38 1.347-5.077 2.004-.23.09-.321.22-.328.447-.051 1.68-.07 3.358.363 5.003.116.439.152.465.614.402 1.05-.144 2.075-.397 3.102-.665a18.7 18.7 0 0 0 1.595-.504c1.455-.53 4.31-1.724 4.31-1.724s3.322-1.608 3.735-1.83l-.007-.002 1.516-.798c.018-.009.042-.022.057-.017.313.125.353.469.551.688.116.128.01.226-.083.307-.334.295-8.369 6.542-10.666 7.663-1.772.864-3.627 1.38-5.617 1.304a10.53 10.53 0 0 1-2.083-.27c-1.175-.284-1.938-1.063-2.473-2.104-.641-1.25-.951-2.592-1.1-3.977-.047-.435-.094-.87-.107-1.306-.008-.259-.08-.31-.327-.237-1.26.366-2.529.7-3.825.914-1.133.187-2.27.384-3.416.08-.435-.117-.859-.257-1.166-.619-.303-.358-.385-.783-.21-1.127.054-.105.111-.206.253-.16.366.119.732.027 1.09-.02 2.593-.344 5.09-1.063 7.536-1.977.172-.064.22-.175.242-.342.31-2.419.985-4.736 1.925-6.981 1.002-2.397 2.38-4.552 4.084-6.512 1.35-1.553 2.837-2.944 4.564-4.066A11.979 11.979 0 0 1 25.448.715c1.842-.146 3.595.127 5.184 1.116 1.4.87 2.208 2.132 2.38 3.782.098.929.238 1.86-.05 2.784-.006.02-.008.04-.014.06-.095.3-1.383 2.428-1.692 2.791-.059.179-.244.249-.326.437.192.015.354-.034.513-.079a29.862 29.862 0 0 1 5.476-1.027c1.561-.139 3.129-.131 4.693-.037 3.57.215 7.03 1.06 10.495 1.866 2.477.576 4.968 1.079 7.495 1.373 1.433.168 2.87.287 4.313.336.845.029 1.688.064 2.53.036 1.543-.05 3.085-.121 4.622-.281 1.81-.189 3.573-.561 5.269-1.231 1.61-.636 2.994-1.63 4.325-2.71a41.65 41.65 0 0 0 1.144-.961c.133-.116.215-.105.32.032.27.35.26.525-.036.847zM27.142 4.245a2.034 2.034 0 0 0-.454-.405c-.275-.196-.553-.212-.865-.093-.849.323-1.583.824-2.273 1.404-1.77 1.488-3.072 3.353-4.245 5.316a33.702 33.702 0 0 0-3.04 6.615l-.093.294 1.67-.708 3.179-1.533-.017-.012c.498-.24.995-.48 1.492-.722 1.5-.732 3.003-1.456 4.283-2.557.355-.306.687-.635.99-.993.062-.073.143-.097.57-.855.085-.151.145-.644.173-.97.152-1.765-.287-3.368-1.37-4.781zm10.775 19.049h-2.446v1.284h2.318v.757H35.47v1.428h2.574v.799h-3.473V22.51h3.345v.785zm2.503 2.376c0 .148.02.294.057.44.039.145.102.274.19.388a.975.975 0 0 0 .35.279c.144.07.324.107.537.107.215 0 .394-.036.54-.107a.981.981 0 0 0 .537-.667c.038-.146.058-.292.058-.44v-3.16h.898v3.197c0 .305-.052.58-.156.824a1.85 1.85 0 0 1-.428.625 1.882 1.882 0 0 1-.642.396 2.279 2.279 0 0 1-.807.139 2.278 2.278 0 0 1-.805-.139 1.91 1.91 0 0 1-.646-.396 1.776 1.776 0 0 1-.428-.625 2.112 2.112 0 0 1-.153-.824V22.51h.898v3.161zm7.57-3.086c.223.05.422.132.596.246.173.114.312.264.417.45.104.185.157.411.157.677 0 .367-.104.666-.31.896-.207.231-.489.387-.846.468l1.348 2.24h-1.084l-1.17-2.14h-.9v2.14H45.3V22.51h1.998c.238 0 .468.025.692.075zm-1.792.681v1.42h.979c.128 0 .257-.01.385-.028a1.11 1.11 0 0 0 .346-.107.68.68 0 0 0 .253-.225.649.649 0 0 0 .1-.374.58.58 0 0 0-.092-.34.699.699 0 0 0-.236-.21.986.986 0 0 0-.324-.107 2.283 2.283 0 0 0-.353-.029h-1.058zm4.998-.17a2.5 2.5 0 0 1 .856-.53 3.07 3.07 0 0 1 1.08-.184c.396 0 .759.062 1.092.185.333.124.62.3.863.528.243.228.432.505.567.831.136.327.204.692.204 1.096 0 .395-.068.756-.204 1.081a2.485 2.485 0 0 1-1.43 1.392c-.348.133-.718.2-1.091.196a2.913 2.913 0 0 1-1.081-.196 2.54 2.54 0 0 1-.856-.55 2.515 2.515 0 0 1-.563-.842 2.79 2.79 0 0 1-.204-1.081c0-.404.068-.77.204-1.096a2.38 2.38 0 0 1 .563-.83zm.335 2.671c.083.227.202.423.357.59.154.166.337.296.549.388.212.093.446.14.703.14.256 0 .492-.047.706-.14.21-.09.398-.222.553-.389.154-.166.273-.362.357-.589a2.14 2.14 0 0 0 .124-.745c0-.261-.041-.505-.124-.728a1.79 1.79 0 0 0-.354-.585 1.641 1.641 0 0 0-.55-.393 1.732 1.732 0 0 0-.712-.143 1.645 1.645 0 0 0-1.255.535c-.155.17-.275.37-.354.586a2.06 2.06 0 0 0-.125.728c0 .27.042.52.125.745zm6.598 1.01c.207.1.41.15.61.15.105 0 .211-.012.32-.039a.845.845 0 0 0 .297-.132.744.744 0 0 0 .214-.232.672.672 0 0 0 .082-.346.563.563 0 0 0-.093-.332.83.83 0 0 0-.25-.228 1.823 1.823 0 0 0-.37-.168l-.45-.15a4.506 4.506 0 0 1-.456-.171 1.517 1.517 0 0 1-.41-.264 1.274 1.274 0 0 1-.297-.403 1.376 1.376 0 0 1-.113-.596c0-.257.053-.478.16-.664a1.43 1.43 0 0 1 .42-.46 1.88 1.88 0 0 1 .593-.271 2.415 2.415 0 0 1 1.455.046c.255.086.49.224.688.407l-.585.642a1.088 1.088 0 0 0-.402-.31 1.207 1.207 0 0 0-.839-.086.957.957 0 0 0-.285.121.674.674 0 0 0-.21.215.59.59 0 0 0-.082.317.567.567 0 0 0 .267.5c.083.057.185.107.303.15.119.042.25.085.393.128.161.053.329.112.502.179.174.066.333.154.478.263.145.11.265.248.357.414.093.167.139.374.139.621 0 .272-.05.508-.15.71-.094.195-.23.367-.4.503a1.68 1.68 0 0 1-.584.3c-.23.068-.468.101-.706.1a2.65 2.65 0 0 1-.963-.182 1.859 1.859 0 0 1-.77-.538l.641-.6c.124.171.29.307.496.407zm7.329-3.482H63.91v4.268h-.899v-4.268h-1.547v-.785h3.994v.785zm3.16-.785l2.176 5.053h-1.028l-.47-1.156h-2.19l-.457 1.156h-1.006l2.197-5.053h.778zm.364 3.125l-.778-2.054-.792 2.054h1.57zm5.643-3.05c.223.05.422.132.595.246.174.114.313.264.418.45.104.185.157.411.157.677 0 .367-.104.666-.31.896-.207.231-.49.387-.846.468l1.348 2.24h-1.084l-1.17-2.14h-.9v2.14h-.899V22.51h2c.237 0 .467.025.691.075zm-1.792.681v1.42h.98c.127 0 .256-.01.384-.028.129-.019.244-.055.346-.107a.674.674 0 0 0 .253-.225.649.649 0 0 0 .1-.374.575.575 0 0 0-.093-.34.693.693 0 0 0-.235-.21.986.986 0 0 0-.325-.107 2.27 2.27 0 0 0-.353-.029h-1.057zm4.398-.571h-.308v.868h-.264v-.868h-.31v-.226h.882v.226zm.884.476h.006l.238-.702h.382v1.094h-.26l.007-.774h-.005l-.283.774h-.186l-.276-.774h-.005l.006.774h-.248v-1.094h.375l.25.702z"/></svg>