<svg xmlns="http://www.w3.org/2000/svg" width="73" height="33"><path fill="#282E33" fill-rule="evenodd" d="M69.598 30.79l3.399 2.02h-2.631l-3.236-1.982h-2.837v1.983h-2.16v-5.723h6.696c1.38 0 2.073.084 2.634.327.63.275.977.764.977 1.529 0 .572-.262 1.123-.812 1.416-.53.282-1.218.402-2.03.43zm.681-1.878c0-.41-.083-.675-.317-.847-.246-.182-.605-.256-1.414-.256h-4.255v2.297h4.28c.69 0 1.07-.041 1.341-.225.276-.19.365-.49.365-.86v-.109zm-6.192-7.657c.503.37.707.806.768 1.257 0 0-.631.991-1.193 1.245-1.582.718-2.772-.597-4.066-1.81-.944-.89-1.254-.996-1.811-1.285-1.28-.665-2.541-.605-4.09-.514l-2.54.227c-5.613.487-7.23-3.512-8.504-5.526-.314-.493-1.346-1.244-2.48-1.328 0 0-.66-.025-1.502.083-4.848.618-6.698.309-8.67-.33-1.233 1.486-4.508.645-4.508.645-1.101-.286-5.992-1.973-6.546-2.15-.846-.272-1.165.567-1.165.567-.87 1.891-2.674 2.032-2.692 2.049 0 0-1.91-.656-.976-2.556.36-.728 1.593-2.518 3.516-2.856.674-.119 1.556-.293 2.297-.352-2.595-2.048-4.122-1.629-4.215-1.617 0 0-1.398.241-2.394 1.141-.364.328-.625.728-.97 1.198 0 0-.177.312-.647.284-.68-.041-1.383-.512-1.383-.512-.163-.118-.1-.376-.022-.512.05-.079.126-.215.126-.215a6.292 6.292 0 0 1-.12-.383c-.056-.227-.045-.282-.045-.282s.397.22.61.22c.06 0 .09-.01.09-.01.316-.095.611-.716.623-.783.268-.876-.054-1.49-.323-1.68-.338-.23-.758-.047-.922.114-.187.179-.356.533-.442.815 0 0-.073.237-.041.485.03.226.241.598.303.788 0 0-.492.01-.795-.287 0 0-.048.083-.27.121-.606.104-1.036-.33-1.248-.58-.147-.17-.257-.454-.376-.645-.056-.091-.192-.195-.192-.195-.3-.275-.137-.668.009-.901.416-.643 1.234-1.366 1.234-1.366.061-.06.032-.15.032-.15-.148-.316.112-.607.112-.607C10.181.88 15.046.667 15.046.667c9.384-.549 22.826 5.28 22.826 5.28C44.819 8.66 49.547 11 49.547 11c4.12 2 12.226 6.579 14.746 7.655 0 0 1.308.555 2.945.077.763-.222 1.276-.731 1.726-.824 0 0 .95-.246 1.297.512.123.271.087.72-.237 1.225-1.255 2.165-4.5 1.947-5.937 1.61zM11.489 5.135c.173.12.32.314.429.556-.253-.844-.8-.824-.915-.81 0 0-.175.01-.285.091.269-.048.546.01.771.164zM8.732 3.969c-.007.01-.017.017-.026.025-.008.006-.71.597-1.25 1.38 0 0 1.067-1.125 1.476-1.296a.622.622 0 0 1-.17-.14c-.012.01-.02.021-.03.031zm28.987 2.355l-.008-.002-.01-.002c-.128-.058-13.454-5.781-22.63-5.245-.022 0-.84.042-1.89.233a19.517 19.517 0 0 1 2.74-.051l.657.028s-.208.385-.27.497a4.764 4.764 0 0 1 2.039-.482h.009c.194.006 4.163.122 7.477 2.436l-.467-.747.846.097c.01 0 .221.024.777.113.146.019 2.199.3 6.895 1.9.03.01 3.612 1.172 5.56 1.936l1.446.566a208.45 208.45 0 0 0-3.171-1.277zM69.606 18.66c-.42-.413-1.384.317-1.915.516 0 0-1.633.636-3.991-.41 0 0-8.518-4.383-9.36-4.835-4.709-2.533-12.097-5.357-15.045-6.516-1.962-.768-5.547-1.93-5.547-1.93-4.785-1.63-6.822-1.881-6.822-1.881-.556-.09-.76-.113-.76-.113l.224.359c.534.862.682 1.471.682 1.471-3.39-3.5-8.725-3.612-8.725-3.612-1.71 0-2.942 1.14-2.942 1.14-.128.161.132.217.132.217 2.084.623 3.312 3.029 3.312 3.029-2.567-2.036-4.08-2.302-4.08-2.302-1.674-.243-1.688-.92-1.688-.92 1.543.336 2.477-.57 2.712-1.01l.11-.2c-2.662-.12-3.908.25-3.908.25C9.47 2.49 9.083 3.16 8.98 3.317c-.116.17-.132.728.525.58 0 .001.265-.902 1.042-1.036 0 0 .385-.052 1.175-.042 0 0-.554 1.204-1.724 1.398l-.554.077c-.124.015-1.046.174-1.52 1.266 0 0-.256.487.096.86.013.015.03.034.048.052 0 0 .292.351.678.364.034.002.14.004.197-.007.13-.024.383-.142.63-.671 0 0 .404-.887.594-1.177 0 0 .223-.45.777-.503 0 0 1.139-.183 1.442 1.39.147.783.004 1.373-1.195 2.582 0 0-.172.166-.385.332 0 0-.071.055-.085.14-.007.041.004.103.047.125 0 0 .553.278.806.244.252-.037.193-.066 1.327-1.486 0 0 1.626-.437 1.64-1.822a5.877 5.877 0 0 0-.043-.564c-.039-.289-.142-.752-.414-1.118 0 0 .76.026 1.531 1.323.02.033.039.063.058.097 0 0 .258.664.812.733 0 0 1.317.176 2.986 1.181.388.233 1.404.892 1.468.915-.227-.624-.368-1.363-.11-2.239l.001.005c.016.05.026 2.707 4.675 4.058-2.19-.21-3.107-1.024-4.57-1.224-.559-.076-1.294-.014-2.176.069-2.016.182-3.115.778-4.195 2.638-.774 1.334.612 2.147.612 2.147.17-.061.37-.134.58-.236-.353-.047-1.47-.712-.404-2.218 0 0-.675 1.552 1.02 1.853.322-.194.96-.818.97-1.353.232-.364.677-.97 1.964-.59 5.477 1.499 5.937 1.628 6.328 1.704 3.659.73 4.003-1.081 4.003-1.081.499-1.7-1.6-4.295-1.6-4.295 3.373 2.656 8.184 2.63 8.184 2.63-2.957.592-6.07-.445-6.558-.599 0 0 .886 1.286.592 2.538 0 0 2.155 1.564 8.486.673 1.471-.207 2.012.04 2.012.04.077-.732-1.228-1.84-1.228-1.84 1.328.551 2.64 2.232 2.887 2.555.16.2.326.445.511.75.532.876 2.55 5.077 7.357 4.719l2.468-.127s3.362-.289 4.861.736c.987.674 1.054.793 1.635 1.267.765.625 2.129 2.317 3.52 2.394.41.021.804-.12 1.205-.45-1.33.381-2.108-.425-2.212-.526 1.485.391 2.104.262 2.603-.231.032-.457-.598-.93-.984-1.123-1.11-.552-1.52-1.115-2.081-1.666-.47-.466-1.236-1.527-1.683-1.898-.483-.401-1.138-.87-2.607-.846-1.492.021-3.232.037-3.748-.048-.538-.088-.849-.162-1.346-.556-.4-.317-.664-.675-.899-1.08-.234-.404-.451-.955-.881-1.711-.299-.522-.825-.935-.825-.935.686.43 1.045.632 1.55 1.364 1.048 1.532 1.836 1.97 2.49 2.185.977.32 3.576.39 4.641.531 1.022.135 1.637.741 1.886 1 .568.578 1.183 1.163 1.683 1.678 1.585 1.634 3.394 1.816 3.397 1.816.934.15 2.552.06 3.327-.282.738-.323 1.345-.883 1.468-1.304.105-.28.076-.568-.142-.782zM14.985 3.099v-.011c-.204.091-.417.16-.636.204.14.035.293.067.479.096h.013c.044.008.725.14 1.908.792a4.008 4.008 0 0 0-1.329-.724c-.106-.028-.345-.113-.435-.357zm-5.227.777c.095-.003.329-.056.329-.056.597-.104.749-.585.749-.585-.31 0-.512.012-.512.012-.347.036-.488.414-.502.449l-.064.18zm4.731-1.88l.748.005c.015 0-.102.072-.282.155-.253.117-.632.254-.97.249l-.214-.006c-.13-.005-.213-.013-.212-.033.004-.031.323-.37.93-.37zm-5.226 25.09v2.791c0 .903-.21 1.45-.645 1.89-.758.766-2.214 1.042-4.273 1.042H.002v-.768H4c1.227 0 2.055-.2 2.555-.688.379-.368.55-.882.55-1.647v-2.62h2.158zm8.146 0l5.036 5.723h-2.421l-1.064-1.218h-6.4l-1.06 1.218h-1.252l5.032-5.723h2.128zm.905 3.765l-2.558-2.931-2.551 2.93h5.109zm9.393-3.765h6.067v.764h-5.395c-1.156 0-1.786.172-2.265.558-.428.342-.654.854-.654 1.54 0 .709.239 1.232.694 1.574.481.362 1.13.523 2.243.523h3.448v-1.864h2.149v2.628h-6.25c-1.171 0-2.094-.134-2.791-.411-1.161-.463-1.692-1.307-1.692-2.461 0-1.09.578-1.846 1.314-2.253.782-.432 1.663-.598 3.132-.598zm10.83 2.772c0 .743.094 1.18.37 1.563.468.65 1.274.884 2.724.884h.183c1.517 0 2.257-.234 2.724-.884.276-.384.371-.84.371-1.561v-2.774h2.16v2.852c0 .738-.082 1.322-.46 1.81-.613.794-1.738 1.25-4.876 1.25L41.7 33c-3.12 0-4.252-.458-4.864-1.25-.378-.488-.46-1.073-.46-1.81v-2.852h2.16v2.77zm16.643-2.772l5.037 5.723h-2.422l-1.064-1.218h-6.398l-1.06 1.218H48.02l5.03-5.723h2.13zm.906 3.765l-2.56-2.931-2.55 2.93h5.11z"/></svg>