<svg xmlns="http://www.w3.org/2000/svg" width="55" height="33"><path fill="#282E33" fill-rule="evenodd" d="M45.35 18.73a9.735 9.735 0 0 1-5.95-1.991 9.735 9.735 0 0 1-5.95 1.99 9.743 9.743 0 0 1-5.95-1.99 9.734 9.734 0 0 1-5.95 1.99 9.743 9.743 0 0 1-5.95-1.99 9.734 9.734 0 0 1-5.95 1.99C4.33 18.73 0 14.53 0 9.366 0 4.201 4.33 0 9.65 0c2.181 0 4.238.689 5.95 1.992A9.74 9.74 0 0 1 21.55 0a9.73 9.73 0 0 1 5.95 1.992A9.74 9.74 0 0 1 33.45 0c2.182 0 4.238.689 5.95 1.992A9.74 9.74 0 0 1 45.35 0C50.67 0 55 4.201 55 9.365c0 5.164-4.33 9.365-9.65 9.365zM13.95 3.592a7.592 7.592 0 0 0-4.3-1.351c-4.049 0-7.342 3.196-7.342 7.124 0 3.929 3.293 7.125 7.342 7.125 1.524 0 3.05-.48 4.3-1.352a9.245 9.245 0 0 1-2.05-5.773 9.08 9.08 0 0 1 2.051-5.773zm1.65 1.599a6.918 6.918 0 0 0-1.392 4.174c0 1.513.481 2.955 1.392 4.175a6.92 6.92 0 0 0 1.393-4.175A6.915 6.915 0 0 0 15.6 5.191zm10.252-1.599a7.44 7.44 0 0 0-4.307-1.35 7.42 7.42 0 0 0-4.296 1.35 9.08 9.08 0 0 1 2.052 5.773 9.243 9.243 0 0 1-2.052 5.773 7.418 7.418 0 0 0 4.296 1.35 7.436 7.436 0 0 0 4.307-1.35 9.241 9.241 0 0 1-2.053-5.773 9.08 9.08 0 0 1 2.053-5.773zM27.5 5.191a6.918 6.918 0 0 0-1.392 4.174A6.92 6.92 0 0 0 27.5 13.54a6.923 6.923 0 0 0 1.393-4.175A6.915 6.915 0 0 0 27.5 5.191zm10.25-1.599a7.433 7.433 0 0 0-4.305-1.35c-1.556 0-3.04.467-4.296 1.35A9.084 9.084 0 0 1 31.2 9.364c0 2.08-.729 4.128-2.052 5.773a7.42 7.42 0 0 0 4.296 1.35 7.429 7.429 0 0 0 4.305-1.35 9.25 9.25 0 0 1-2.052-5.773c0-2.119.71-4.115 2.052-5.773zm1.65 1.599a6.916 6.916 0 0 0-1.393 4.174 6.92 6.92 0 0 0 1.392 4.175 6.924 6.924 0 0 0 1.393-4.175 6.918 6.918 0 0 0-1.393-4.174zm5.95-2.95a7.59 7.59 0 0 0-4.301 1.351A9.081 9.081 0 0 1 43.1 9.365a9.25 9.25 0 0 1-2.051 5.773 7.582 7.582 0 0 0 4.3 1.352c4.049 0 7.342-3.196 7.342-7.125 0-3.928-3.293-7.124-7.342-7.124zm7.808 10.388h1.108-1.108zM11.27 23.101h3.727l6.641 9.667H18.17l-1.022-1.593h-6.333l-1.002 1.593H6.456l5.845-8.486-1.03-1.181zm.693 6.187h4.014l-2.014-3.203-2 3.203zm9.159-3.538h2.951v3.097c0 .269-.018.52 0 .752.018.215.037.43.092.626.185.591.646.967 1.643.967.719 0 1.42-.286 1.623-.93.055-.233.092-.484.092-1.379V25.75h2.915v4.082c0 1.02-.35 1.61-.83 2.058-.922.878-2.214 1.11-3.893 1.11-1.383 0-2.878-.25-3.763-1.092-.517-.465-.83-1.145-.83-2.058v-4.1zm11.917.59c1.033-.554 2.196-.787 3.34-.787.48 0 1.088.107 1.567.375 0 0-.424-.321-.756-.68l-1.974-2.147h3.469l2.49 3.061c1.033 1.271 1.365 2.184 1.365 2.972 0 1.11-.46 1.95-1.144 2.559-1.162 1.02-3.21 1.307-4.52 1.307-.886 0-3.301-.125-4.63-1.414-.59-.59-1.052-1.36-1.052-2.363 0-1.307.738-2.292 1.845-2.882zm2.159 4.458c.516.251 1.143.358 1.678.358.536 0 1.145-.071 1.66-.34.628-.304 1.126-.86 1.126-1.593 0-.698-.553-1.343-1.384-1.683-.46-.18-1.051-.233-1.457-.233-.424 0-.96.072-1.402.269-.72.304-1.329.913-1.329 1.683 0 .644.48 1.236 1.108 1.54zm11.161 1.97h-3.008V25.75h3.008v7.018z"/></svg>