<svg id="SvgjsSvg1000" xmlns="http://www.w3.org/2000/svg" version="1.1" xmlns:xlink="http://www.w3.org/1999/xlink" xmlns:svgjs="http://svgjs.com/svgjs" width="154" height="53"><defs id="SvgjsDefs1001"></defs><path id="SvgjsPath1007" d="M58.4 69.64L85.69 86L58.51 102.28999999999999C57.93 102.66999999999999 58.01 103.24 58.01 103.24L58.01 110.50999999999999C58.01 110.50999999999999 58.21 111.27999999999999 58.86 110.88999999999999L99.67 86.50999999999999C99.67 86.50999999999999 100 86.33999999999999 100 86.02999999999999C100 85.71 99.67 85.53999999999999 99.67 85.53999999999999L58.89 61.13999999999999C57.82 60.56999999999999 58.01 61.959999999999994 58.01 61.959999999999994L58.01 68.66999999999999C58.01 68.66999999999999 57.93 69.40999999999998 58.4 69.63999999999999 " fill="#42a5f5" fill-opacity="1" transform="matrix(1,0,0,1,-57,-61)"></path><path id="SvgjsPath1008" d="M144.89 90.43L144.89 90.46000000000001L144.89 90.66000000000001C144.89 90.86000000000001 144.94 91.00000000000001 145.14999999999998 91.00000000000001L145.42999999999998 91.00000000000001L145.42999999999998 91.00000000000001L145.42999999999998 91.00000000000001L146.42999999999998 91.00000000000001L146.42999999999998 91.00000000000001L146.73999999999998 91.00000000000001C146.92 91.00000000000001 146.99999999999997 90.86000000000001 146.99999999999997 90.66000000000001L146.99999999999997 90.43L146.99999999999997 90.09L146.99999999999997 80.91L146.99999999999997 80.57L146.99999999999997 80.33999999999999C146.99999999999997 80.13999999999999 146.94999999999996 79.99999999999999 146.73999999999998 79.99999999999999L146.45999999999998 79.99999999999999L146.42999999999998 79.99999999999999L145.42999999999998 79.99999999999999L145.42999999999998 79.99999999999999L145.42999999999998 79.99999999999999L145.14999999999998 79.99999999999999C144.96999999999997 79.99999999999999 144.89 80.13999999999999 144.89 80.33999999999999L144.89 80.53999999999999L144.89 80.57L144.89 84.25L141.10999999999999 84.25L141.10999999999999 80.57L141.10999999999999 80.53999999999999L141.10999999999999 80.33999999999999C141.10999999999999 80.13999999999999 141.05999999999997 79.99999999999999 140.85 79.99999999999999L140.57 79.99999999999999L140.54 79.99999999999999L139.54 79.99999999999999L139.54 79.99999999999999L139.54 79.99999999999999L139.26 79.99999999999999C139.07999999999998 79.99999999999999 139 80.13999999999999 139 80.33999999999999L139 80.57L139 80.85L139 90.14999999999999L139 90.42999999999999L139 90.66C139 90.86 139.05 91 139.26 91L139.54 91L139.54 91L139.54 91L140.54 91L140.54 91L140.85 91C141.03 91 141.10999999999999 90.86 141.10999999999999 90.66L141.10999999999999 90.46L141.10999999999999 90.42999999999999L141.10999999999999 86.44L144.89 86.44L144.89 90.42999999999999Z " fill="#212121" fill-opacity="1" transform="matrix(1,0,0,1,-57,-61)"></path><path id="SvgjsPath1009" d="M161.54 86.02C161.84 85.42999999999999 162 84.75 162 83.92999999999999C162 83.13999999999999 161.84 82.42999999999999 161.54 81.83999999999999C161.25 81.24 160.76 80.78999999999999 160.14 80.47999999999999C159.51999999999998 80.16999999999999 158.76999999999998 79.99999999999999 157.88 79.99999999999999L154.26999999999998 79.99999999999999C154.07999999999998 79.99999999999999 153.99999999999997 80.05999999999999 153.99999999999997 80.27999999999999L153.99999999999997 90.65999999999998C153.99999999999997 90.85999999999999 154.04999999999998 90.99999999999999 154.26999999999998 90.99999999999999L155.93999999999997 90.99999999999999C156.12999999999997 90.99999999999999 156.20999999999998 90.85999999999999 156.20999999999998 90.65999999999998L156.20999999999998 87.82999999999998L157.87999999999997 87.82999999999998C158.76999999999995 87.82999999999998 159.51999999999995 87.68999999999998 160.13999999999996 87.37999999999998C160.75999999999996 87.06999999999998 161.21999999999997 86.61999999999998 161.53999999999996 86.01999999999998ZM156.18 82.18L157.58 82.18C158.28 82.18 158.82000000000002 82.32000000000001 159.17000000000002 82.60000000000001C159.52 82.88000000000001 159.71 83.31 159.71 83.9C159.71 84.5 159.52 84.95 159.17000000000002 85.23C158.82000000000002 85.51 158.28000000000003 85.66000000000001 157.58 85.66000000000001L156.18 85.66000000000001Z " fill="#212121" fill-opacity="1" transform="matrix(1,0,0,1,-57,-61)"></path><path id="SvgjsPath1010" d="M208.17 102.48C207.54999999999998 102.17 206.79 102 205.89999999999998 102L202.26999999999998 102C202.07999999999998 102 201.99999999999997 102.06 201.99999999999997 102.28L201.99999999999997 112.66C201.99999999999997 112.86 202.04999999999998 113 202.26999999999998 113L203.93999999999997 113C204.12999999999997 113 204.20999999999998 112.86 204.20999999999998 112.66L204.20999999999998 109.83L205.87999999999997 109.83C206.76999999999995 109.83 207.51999999999995 109.66 208.13999999999996 109.35C208.75999999999996 109.03999999999999 209.21999999999997 108.58999999999999 209.53999999999996 107.99C209.83999999999997 107.39999999999999 209.99999999999997 106.72 209.99999999999997 105.89999999999999C210.01999999999998 105.10999999999999 209.85999999999999 104.42999999999999 209.56999999999996 103.83999999999999C209.26999999999995 103.24 208.78999999999996 102.78999999999999 208.16999999999996 102.47999999999999ZM205.61 107.66L204.21 107.66L204.21 104.17999999999999L205.61 104.17999999999999C206.31 104.17999999999999 206.85000000000002 104.32 207.20000000000002 104.6C207.55 104.88 207.74 105.30999999999999 207.74 105.89999999999999C207.74 106.52 207.57000000000002 106.94999999999999 207.20000000000002 107.22999999999999C206.85000000000002 107.50999999999999 206.31000000000003 107.66 205.61 107.66Z " fill="#212121" fill-opacity="1" transform="matrix(1,0,0,1,-57,-61)"></path><path id="SvgjsPath1011" d="M133.77 102.15C133.77 102.15 133.69 102 133.55 102C133.41000000000003 102 133.32000000000002 102.15 133.32000000000002 102.15L130.02 108.74000000000001L126.73 102.15C126.73 102.15 126.64 102 126.5 102C126.36 102 126.27 102.15 126.27 102.15L123.03 113.21000000000001C122.89 113.53 123.26 113.56 123.26 113.56L125.28 113.56C125.28 113.56 125.56 113.56 125.62 113.41L127.10000000000001 108.53C127.10000000000001 108.53 129.34 112.85 129.77 113.79C129.82000000000002 113.91000000000001 129.88000000000002 113.97000000000001 129.97 114L129.97 114L130 114L130.02 114L130.02 114C130.08 113.97 130.17000000000002 113.91 130.22 113.79C130.65 112.85000000000001 132.87 108.21000000000001 132.87 108.21000000000001L134.37 113.41000000000001C134.43 113.56000000000002 134.71 113.56000000000002 134.71 113.56000000000002L136.73000000000002 113.56000000000002C136.73000000000002 113.56000000000002 137.13000000000002 113.53000000000002 136.96 113.21000000000002L133.77 102.15000000000002Z " fill="#212121" fill-opacity="1" transform="matrix(1,0,0,1,-57,-61)"></path><path id="SvgjsPath1012" d="M193.69 102L193.41 102L193.38 102L192.38 102L192.38 102L192.38 102L192.1 102C191.92 102 191.85 102.14 191.85 102.33L191.85 102.53L191.85 102.55L191.85 108.64999999999999C191.85 109.36999999999999 191.67 109.91999999999999 191.32999999999998 110.27999999999999C190.99999999999997 110.63999999999999 190.54 110.83999999999999 189.96999999999997 110.83999999999999C189.40999999999997 110.83999999999999 188.94999999999996 110.63999999999999 188.61999999999998 110.27999999999999C188.27999999999997 109.91999999999999 188.09999999999997 109.36999999999999 188.09999999999997 108.64999999999999L188.09999999999997 102.55L188.09999999999997 102.53L188.09999999999997 102.33C188.09999999999997 102.14 188.04999999999995 102 187.84999999999997 102L187.55999999999997 102L187.53999999999996 102L186.53999999999996 102L186.53999999999996 102L186.53999999999996 102L186.25999999999996 102C186.07999999999996 102 185.99999999999997 102.14 185.99999999999997 102.33L185.99999999999997 102.55L185.99999999999997 102.83L185.99999999999997 108.84C185.99999999999997 109.7 186.14999999999998 110.45 186.48999999999998 111.09C186.82 111.7 187.27999999999997 112.17 187.86999999999998 112.5C188.45999999999998 112.83 189.17999999999998 113 189.99999999999997 113C190.81999999999996 113 191.50999999999996 112.83 192.12999999999997 112.5C192.71999999999997 112.17 193.17999999999998 111.7 193.50999999999996 111.09C193.84999999999997 110.48 193.99999999999997 109.73 193.99999999999997 108.84L193.99999999999997 102.89L193.99999999999997 102.55L193.99999999999997 102.33C193.91999999999996 102.14 193.86999999999998 102 193.68999999999997 102Z " fill="#212121" fill-opacity="1" transform="matrix(1,0,0,1,-57,-61)"></path><path id="SvgjsPath1013" d="M180.64 102L180.39999999999998 102L180.10999999999999 102L171.89 102L171.6 102L171.35999999999999 102C171.14999999999998 102 170.99999999999997 102.06 170.99999999999997 102.28L170.99999999999997 102.93L170.99999999999997 103.13000000000001L170.99999999999997 103.91000000000001C170.99999999999997 104.11000000000001 171.14999999999998 104.19000000000001 171.35999999999999 104.19000000000001L171.54 104.19000000000001C171.57 104.19000000000001 171.57 104.19000000000001 171.6 104.19000000000001L174.78 104.19000000000001L174.78 112.41000000000001C174.78 112.41000000000001 174.78 112.41000000000001 174.78 112.44000000000001L174.78 112.66000000000001C174.78 112.86000000000001 174.84 113.00000000000001 175.08 113.00000000000001L175.4 113.00000000000001L175.4 113.00000000000001L175.4 113.00000000000001L176.57 113.00000000000001L176.57 113.00000000000001L176.92 113.00000000000001C177.13 113.00000000000001 177.22 112.86000000000001 177.22 112.66000000000001L177.22 112.44000000000001C177.22 112.44000000000001 177.22 112.44000000000001 177.22 112.41000000000001L177.22 104.17000000000002L180.4 104.17000000000002C180.43 104.17000000000002 180.43 104.17000000000002 180.46 104.17000000000002L180.64000000000001 104.17000000000002C180.85000000000002 104.17000000000002 181.00000000000003 104.11000000000001 181.00000000000003 103.88000000000001L181.00000000000003 103.10000000000001L181.00000000000003 102.9L181.00000000000003 102.25C181.00000000000003 102.06 180.85000000000002 102 180.64000000000001 102Z " fill="#212121" fill-opacity="1" transform="matrix(1,0,0,1,-57,-61)"></path><path id="SvgjsPath1014" d="M126.94 91C127.13 91 127.21 90.86 127.21 90.66L127.21 87.84L128.88 87.84C129.76999999999998 87.84 130.51999999999998 87.67 131.14 87.36C131.76 87.05 132.22 86.6 132.54 86.01C132.84 85.42 133 84.74000000000001 133 83.92C133 83.13 132.84 82.43 132.54 81.83C132.25 81.24 131.76 80.78999999999999 131.14 80.48C130.51999999999998 80.17 129.76999999999998 80 128.88 80L125.27 80C125.08 80 125 80.06 125 80.28L125 90.63C125 90.86 125.08 91 125.27 91ZM128.61 82.17C129.31 82.17 129.85000000000002 82.31 130.20000000000002 82.59C130.55 82.88000000000001 130.74 83.3 130.74 83.89C130.74 84.48 130.55 84.94 130.20000000000002 85.22C129.85000000000002 85.5 129.31000000000003 85.64 128.61 85.64L127.21000000000001 85.64L127.21000000000001 82.17Z " fill="#212121" fill-opacity="1" transform="matrix(1,0,0,1,-57,-61)"></path><path id="SvgjsPath1015" d="M164.52 110.82L160.05 110.82L160.05 108.41999999999999L163.13000000000002 108.41999999999999C163.40000000000003 108.41999999999999 163.48000000000002 108.32999999999998 163.48000000000002 108.01999999999998L163.48000000000002 106.66999999999999C163.48000000000002 106.32999999999998 163.4 106.23999999999998 163.13000000000002 106.23999999999998L160.05 106.23999999999998L160.05 104.17999999999998L164.43 104.17999999999998C164.55 104.17999999999998 164.83 104.17999999999998 164.83 103.74999999999997L164.83 102.41999999999997C164.83 102.07999999999997 164.58 101.99999999999997 164.43 101.99999999999997L158.38 101.99999999999997C158.1 101.99999999999997 158 102.13999999999997 158 102.33999999999997L158 112.57999999999997C158 112.76999999999997 158.05 112.99999999999997 158.38 112.99999999999997L164.53 112.99999999999997C164.88 112.99999999999997 165 112.88999999999997 165 112.54999999999997L165 111.29999999999997C164.98 110.95999999999997 164.9 110.81999999999996 164.52 110.81999999999996Z " fill="#212121" fill-opacity="1" transform="matrix(1,0,0,1,-57,-61)"></path><path id="SvgjsPath1016" d="M148.55 110.82L144.06 110.82L144.06 108.41999999999999L147.14000000000001 108.41999999999999C147.42000000000002 108.41999999999999 147.49 108.32999999999998 147.49 108.01999999999998L147.49 106.66999999999999C147.49 106.32999999999998 147.42000000000002 106.23999999999998 147.14000000000001 106.23999999999998L144.06 106.23999999999998L144.06 104.17999999999998L148.45 104.17999999999998C148.57 104.17999999999998 148.85 104.17999999999998 148.85 103.74999999999997L148.85 102.41999999999997C148.85 102.07999999999997 148.6 101.99999999999997 148.45 101.99999999999997L142.38 101.99999999999997C142.1 101.99999999999997 142 102.13999999999997 142 102.33999999999997L142 112.57999999999997C142 112.76999999999997 142.05 112.99999999999997 142.38 112.99999999999997L148.54999999999998 112.99999999999997C148.89999999999998 112.99999999999997 148.99999999999997 112.88999999999997 148.99999999999997 112.54999999999997L148.99999999999997 111.29999999999997C148.99999999999997 110.95999999999997 148.89999999999998 110.81999999999996 148.54999999999998 110.81999999999996Z " fill="#212121" fill-opacity="1" transform="matrix(1,0,0,1,-57,-61)"></path></svg>