<?xml version="1.0" encoding="utf-8"?>
<!-- Generator: Avocode 2.6.0 - http://avocode.com -->
<svg height="51" width="96" xmlns:xlink="http://www.w3.org/1999/xlink" xmlns="http://www.w3.org/2000/svg" viewBox="0 0 96 51">
    <path fill="#000000" fill-rule="evenodd" d="M 53.19 1.61 C 51.97 1.31 50.63 1.54 50.66 1.59 C 50.53 1.54 50.28 1.45 50.14 1.48 C 50.12 1.49 50.1 1.5 50.09 1.5 C 50.12 1.51 50.15 1.52 50.18 1.54 C 50.09 1.57 50.06 1.53 49.99 1.51 C 50.03 1.57 50.02 1.56 49.99 1.63 C 49.99 1.63 49.99 1.65 50 1.65 C 50.19 1.7 50.39 1.78 50.66 1.75 C 50.66 1.75 50.66 1.74 50.66 1.74 C 50.6 1.67 50.46 1.66 50.4 1.61 C 50.39 1.61 50.38 1.61 50.37 1.61 C 50.37 1.6 50.37 1.6 50.37 1.59 C 50.55 1.63 50.7 1.71 50.83 1.79 C 50.85 1.78 50.87 1.76 50.88 1.75 C 50.84 1.83 50.78 1.85 50.81 1.93 C 50.51 1.87 50.3 1.77 50.19 2.1 C 50.21 2.13 50.24 2.15 50.28 2.18 C 50.26 2.19 50.23 2.2 50.21 2.21 C 50.2 2.23 50.2 2.26 50.19 2.28 C 50.31 2.39 50.38 2.45 50.52 2.51 C 50.53 2.57 50.54 2.63 50.55 2.69 C 50.59 2.71 50.59 2.71 50.63 2.7 C 50.7 2.76 50.65 2.81 50.68 2.85 C 50.76 2.95 51.07 3.1 51.14 3.2 C 51.16 3.23 51.14 3.28 51.2 3.32 C 51.31 3.39 51.44 3.44 51.53 3.52 C 51.57 3.54 51.54 3.53 51.53 3.56 C 51.75 3.67 52.08 3.66 52.27 3.77 C 52.3 3.8 52.28 3.78 52.28 3.84 C 52.46 3.89 52.66 3.93 52.85 3.99 C 52.86 3.99 52.87 3.98 52.89 3.97 C 52.9 3.93 52.9 3.93 52.88 3.88 C 53 3.81 53.02 3.69 53.1 3.6 C 53.06 3.53 53.05 3.53 53.06 3.43 C 53.22 3.41 53.27 3.32 53.4 3.28 C 53.38 3.21 53.39 3.2 53.33 3.16 C 53.37 3.14 53.36 3.15 53.41 3.16 C 53.42 3.15 53.44 3.14 53.46 3.12 C 53.41 3.09 53.37 3.05 53.33 3.01 C 53.32 3.01 53.31 3.01 53.3 3.01 C 53.3 3.01 53.3 3 53.3 3 C 53.38 3.02 53.45 3.03 53.53 3.02 C 53.55 3.02 53.56 3.01 53.57 3.01 C 53.55 2.99 53.53 2.96 53.51 2.93 C 53.51 2.93 53.52 2.93 53.52 2.92 C 53.63 2.99 53.69 2.99 53.86 2.99 C 53.86 2.95 53.88 2.91 53.88 2.88 C 53.91 2.88 53.93 2.88 53.95 2.87 C 53.93 2.91 53.91 2.94 53.88 2.97 C 53.89 2.99 53.9 3 53.9 3.01 C 54.23 3.08 54.45 2.95 54.76 2.9 C 54.76 2.9 54.76 2.82 54.76 2.82 C 55.13 2.71 55.66 2.94 56.02 2.91 C 56.14 2.9 54.69 1.98 53.19 1.61 M 46.26 2.28 C 46.43 2.31 46.66 2.33 46.85 2.42 C 47.05 2.51 47.09 2.64 47.3 2.67 C 47.25 2.7 47.23 2.68 47.17 2.66 C 47.21 2.74 47.26 2.79 47.39 2.81 C 47.36 2.82 47.34 2.82 47.33 2.84 C 47.39 2.89 47.42 2.92 47.49 2.96 C 47.51 2.96 47.53 2.96 47.55 2.96 C 47.53 2.9 47.54 2.91 47.49 2.89 C 47.49 2.89 47.49 2.88 47.49 2.88 C 47.9 3.01 48.27 3.3 48.73 3.37 C 48.75 3.3 48.72 3.34 48.78 3.33 C 48.78 3.32 48.78 3.32 48.78 3.32 C 48.64 3.14 48.33 2.94 48.11 2.85 C 48.11 2.82 48.1 2.82 48.09 2.79 C 48.18 2.84 48.27 2.89 48.36 2.93 C 48.36 2.91 48.36 2.89 48.36 2.88 C 48.61 3.03 48.9 3.2 49.15 3.35 C 49.17 3.34 49.19 3.34 49.21 3.34 C 49.22 3.34 49.23 3.34 49.24 3.34 C 49.24 3.34 49.24 3.32 49.24 3.32 C 49.16 3.27 49.11 3.28 49.05 3.19 C 49.09 3.2 49.12 3.21 49.16 3.23 C 49.17 3.23 49.17 3.23 49.18 3.23 C 49.18 3.18 49.17 3.17 49.14 3.12 C 49.14 3.11 49.14 3.1 49.15 3.1 C 49.18 3.11 49.18 3.11 49.19 3.15 C 49.27 3.14 49.25 3.14 49.29 3.08 C 49.31 3.14 49.32 3.14 49.36 3.17 C 49.36 3.17 49.37 3.17 49.37 3.17 C 49.36 3.15 49.36 3.13 49.34 3.11 C 49.38 3.11 49.41 3.11 49.44 3.11 C 49.44 3.11 49.44 3.1 49.44 3.09 C 49.36 3.03 49.29 2.98 49.18 2.95 C 49.18 2.94 49.17 2.93 49.17 2.92 C 49.19 2.91 49.22 2.91 49.25 2.91 C 49.25 2.91 49.25 2.9 49.25 2.89 C 49.18 2.84 48.93 2.64 48.76 2.66 C 48.76 2.58 48.72 2.47 48.61 2.45 C 48.65 2.45 48.7 2.45 48.73 2.45 C 48.74 2.44 48.74 2.43 48.74 2.42 C 48.73 2.39 48.71 2.39 48.69 2.36 C 48.87 2.38 49.03 2.52 49.19 2.53 C 49.13 2.71 49.49 2.76 49.61 2.86 C 49.7 2.85 49.7 2.82 49.77 2.82 C 49.75 2.81 49.74 2.79 49.73 2.78 C 49.75 2.74 49.74 2.76 49.77 2.73 C 49.84 2.76 49.91 2.78 49.98 2.75 C 49.98 2.76 49.98 2.78 49.98 2.81 C 50.01 2.81 50.04 2.81 50.07 2.81 C 50.06 2.78 50.04 2.76 50.03 2.75 C 50.08 2.73 50.04 2.74 50.09 2.75 C 50.1 2.74 50.12 2.74 50.13 2.74 C 50.11 2.71 50.09 2.69 50.08 2.66 C 50.2 2.69 50.25 2.69 50.35 2.67 C 50.32 2.54 50.17 2.5 50.02 2.51 C 50.01 2.47 50.03 2.49 50.06 2.47 C 50.02 2.47 49.97 2.47 49.93 2.47 C 49.88 2.45 49.84 2.36 49.69 2.36 C 49.72 2.33 49.69 2.34 49.75 2.33 C 49.7 2.28 49.57 2.22 49.48 2.22 C 49.47 2.21 49.46 2.21 49.45 2.19 C 49.47 2.18 49.49 2.17 49.51 2.16 C 49.36 2.13 49.33 2.1 49.23 2.15 C 49.15 2.08 49.16 2.04 49.01 2.02 C 49.02 2.01 49.03 2 49.04 1.98 C 48.93 1.95 48.82 1.93 48.71 1.9 C 48.71 1.89 48.71 1.89 48.71 1.89 C 48.74 1.88 48.77 1.88 48.79 1.87 C 48.8 1.82 48.8 1.84 48.78 1.8 C 48.88 1.82 48.98 1.85 49.09 1.88 C 49.1 1.87 49.1 1.86 49.12 1.86 C 49.05 1.79 48.96 1.75 48.87 1.75 C 48.87 1.74 48.88 1.72 48.88 1.71 C 48.93 1.72 48.98 1.75 49.03 1.76 C 49.03 1.75 49.04 1.75 49.05 1.75 C 49.05 1.73 49.05 1.72 49.05 1.7 C 48.92 1.61 48.9 1.61 48.7 1.62 C 48.75 1.56 48.76 1.58 48.84 1.57 C 48.84 1.57 48.84 1.56 48.84 1.56 C 48.7 1.45 48.5 1.5 48.35 1.42 C 48.35 1.42 48.22 1.27 48.19 1.26 C 48.09 1.2 47.74 1.13 47.67 1.13 C 47.68 1.11 47.69 1.09 47.7 1.08 C 47.56 1.02 47.43 0.98 47.29 0.91 C 47.29 0.91 47.26 0.91 47.26 0.91 C 47.26 0.91 47.29 0.91 47.29 0.91 C 47.32 0.92 47.36 0.92 47.4 0.92 C 47.4 0.91 47.4 0.9 47.4 0.9 C 47.33 0.8 46.7 1.05 46.59 1.22 C 46.55 1.19 46.84 1.45 46.77 1.43 C 46.75 1.45 46.75 1.46 46.73 1.47 C 46.73 1.47 46.7 1.47 46.7 1.47 C 46.75 1.54 47.04 1.52 47.1 1.52 C 47.11 1.54 47.12 1.55 47.12 1.56 C 47.07 1.58 47.05 1.54 46.99 1.56 C 46.97 1.56 46.97 1.56 46.95 1.56 C 46.99 1.65 47.08 1.63 47.18 1.59 C 47.19 1.63 47.2 1.67 47.21 1.7 C 47.15 1.68 47.12 1.67 47.04 1.67 C 47.06 1.77 47.23 1.79 47.35 1.8 C 47.36 1.78 47.36 1.76 47.36 1.74 C 47.32 1.72 47.27 1.72 47.23 1.71 C 47.23 1.68 47.24 1.66 47.25 1.63 C 47.32 1.66 47.36 1.7 47.48 1.72 C 47.5 1.8 47.52 1.87 47.54 1.94 C 47.32 1.97 47.1 1.99 46.89 2.01 C 46.88 2.02 46.88 2.03 46.87 2.04 C 46.92 2.08 46.97 2.13 47.01 2.17 C 47.01 2.17 47.01 2.18 47.01 2.18 C 46.86 2.14 46.69 2.17 46.55 2.15 C 46.25 2.1 46.01 1.94 45.72 2.12 C 45.72 2.13 45.73 2.15 45.73 2.16 C 45.82 2.32 46.08 2.26 46.26 2.28 M 36.72 32.37 C 36.88 32.64 37.03 33.03 37.25 33.25 C 37.7 33.71 38.43 33.95 38.72 34.55 C 38.85 34.69 38.99 34.82 39.13 34.95 C 39.12 35.01 39.11 35.09 39.11 35.14 C 39.13 35.33 39.21 35.59 39.18 35.79 C 39.16 35.88 39.13 36 39.14 36.09 C 39.16 36.16 39.17 36.22 39.18 36.28 C 39.15 36.46 39.07 36.66 39.07 36.9 C 39.01 36.92 39.04 36.91 38.97 36.9 C 38.97 36.96 38.96 37.04 38.96 37.1 C 38.96 37.1 39.03 37.1 39.03 37.1 C 39.01 37.22 39 37.35 38.98 37.47 C 39 37.6 39.01 37.72 39.02 37.85 C 39.01 37.89 38.93 37.91 38.92 37.99 C 38.93 38.03 38.94 38.09 38.94 38.14 C 38.93 38.38 38.87 38.6 38.8 38.75 C 38.72 38.9 38.8 39.06 38.67 39.15 C 38.69 39.35 38.76 39.45 38.74 39.66 C 38.69 39.68 38.71 39.68 38.65 39.68 C 38.61 40.14 38.85 40.4 38.7 40.75 C 38.72 40.75 38.78 40.9 38.76 40.94 C 38.64 41.26 38.5 41.55 38.48 41.92 C 38.46 41.9 38.45 41.89 38.43 41.88 C 38.43 41.95 38.43 42.01 38.43 42.07 C 38.39 42.05 38.36 42.04 38.32 42.03 C 38.31 42.03 38.3 42.03 38.3 42.04 C 38.33 42.3 38.45 42.57 38.56 42.8 C 38.54 43.09 38.37 43.17 38.59 43.51 C 38.59 43.53 38.59 43.55 38.59 43.57 C 38.57 43.56 38.54 43.54 38.52 43.52 C 38.48 43.66 38.55 43.8 38.52 43.97 C 38.56 44.02 38.61 44.03 38.69 44.06 C 38.71 44.06 38.72 44.06 38.74 44.05 C 38.76 43.9 38.75 43.72 38.68 43.61 C 38.69 43.6 38.7 43.59 38.7 43.58 C 38.74 43.59 38.77 43.61 38.8 43.63 C 38.8 43.63 38.82 43.63 38.82 43.63 C 38.8 43.56 38.84 43.57 38.78 43.57 C 38.8 43.55 38.8 43.53 38.81 43.51 C 38.83 43.54 38.85 43.57 38.89 43.59 C 38.87 43.62 38.85 43.63 38.84 43.65 C 38.91 43.7 38.94 43.86 38.85 43.89 C 38.89 43.91 38.9 43.93 38.93 43.95 C 38.89 44.19 38.94 44.36 38.93 44.61 C 38.93 44.61 38.9 44.61 38.9 44.61 C 38.89 44.54 38.83 44.32 38.86 44.3 C 38.81 44.22 38.76 44.18 38.67 44.15 C 38.62 44.21 38.59 44.3 38.58 44.4 C 38.62 44.44 38.66 44.48 38.7 44.52 C 38.69 44.58 38.69 44.64 38.69 44.71 C 38.69 44.71 38.59 44.71 38.59 44.71 C 38.59 44.71 38.59 44.73 38.59 44.73 C 38.6 44.75 38.61 44.78 38.63 44.81 C 38.59 44.84 38.56 44.86 38.52 44.89 C 38.52 44.91 38.52 44.93 38.52 44.95 C 38.56 44.97 38.58 44.99 38.61 45.01 C 38.63 44.99 38.66 44.97 38.67 44.95 C 38.74 45.01 38.86 45.03 38.93 45.1 C 38.9 45.09 38.89 45.08 38.87 45.08 C 38.89 45.12 38.89 45.11 38.91 45.14 C 38.9 45.18 38.89 45.23 38.87 45.27 C 38.82 45.24 38.81 45.23 38.73 45.22 C 38.73 45.22 38.73 45.23 38.73 45.23 C 38.74 45.25 38.76 45.26 38.77 45.27 C 38.75 45.28 38.72 45.3 38.7 45.31 C 38.78 45.45 38.8 45.66 38.89 45.78 C 38.95 45.81 39.01 45.84 39.08 45.88 C 39.04 45.86 39 45.86 38.97 45.85 C 38.97 45.85 38.97 45.86 38.97 45.86 C 38.98 45.92 39 45.97 39.01 46.03 C 39.04 46.04 39.05 46.05 39.09 46.06 C 39.1 46.02 39.12 45.97 39.14 45.93 C 39.15 45.97 39.16 46 39.18 46.03 C 39.18 46.03 39.13 46.03 39.13 46.03 C 39.12 46.04 39.11 46.04 39.11 46.05 C 39.16 46.12 39.18 46.16 39.18 46.28 C 39.24 46.27 39.29 46.25 39.35 46.23 C 39.38 46.26 39.37 46.27 39.43 46.28 C 39.42 46.3 39.41 46.32 39.4 46.34 C 39.36 46.32 39.31 46.31 39.26 46.3 C 39.25 46.3 39.25 46.31 39.25 46.32 C 39.3 46.42 39.37 46.47 39.46 46.52 C 39.45 46.5 39.44 46.48 39.43 46.47 C 39.51 46.53 39.58 46.59 39.66 46.66 C 39.66 46.66 39.66 46.68 39.66 46.68 C 39.59 46.64 39.52 46.61 39.44 46.57 C 39.54 46.7 39.61 46.74 39.73 46.76 C 39.71 46.8 39.73 46.76 39.71 46.81 C 39.82 46.9 40.26 47.2 40.39 47.18 C 40.39 47.23 40.39 47.19 40.38 47.23 C 40.5 47.36 40.93 47.51 41.13 47.57 C 41.13 47.57 41.13 47.55 41.13 47.55 C 41.1 47.52 41.07 47.49 41.04 47.45 C 41.19 47.51 41.28 47.46 41.38 47.55 C 41.38 47.55 41.38 47.49 41.38 47.49 C 41.45 47.51 41.51 47.51 41.57 47.52 C 41.57 47.52 41.59 47.52 41.59 47.52 C 41.59 47.51 41.6 47.51 41.61 47.49 C 41.61 47.48 41.6 47.47 41.6 47.45 C 41.23 47.4 41.1 47.08 40.8 46.99 C 40.82 46.97 40.83 46.96 40.84 46.94 C 40.75 46.84 40.64 46.85 40.56 46.76 C 40.55 46.76 40.54 46.75 40.54 46.74 C 40.55 46.74 40.56 46.72 40.58 46.72 C 40.65 46.74 40.72 46.77 40.78 46.81 C 40.78 46.8 40.78 46.79 40.78 46.78 C 40.67 46.64 40.5 46.55 40.48 46.31 C 40.49 46.3 40.49 46.29 40.49 46.28 C 40.56 46.27 40.62 46.25 40.69 46.24 C 40.74 46.2 40.72 46.12 40.71 46.02 C 40.8 45.95 40.98 45.92 41.06 45.84 C 41.08 45.8 41.08 45.71 41.07 45.62 C 40.84 45.47 40.5 45.43 40.58 45.1 C 40.69 45.01 40.83 44.98 40.96 45.03 C 40.96 45.03 41.02 45.03 41.02 45.03 C 41.01 44.98 41.03 45.01 40.98 44.98 C 41.01 44.92 41.02 44.93 41.08 44.91 C 41.09 44.82 41.06 44.75 41.04 44.67 C 41.09 44.58 41.14 44.54 41.28 44.54 C 41.25 44.48 41.17 44.46 41.11 44.41 C 41.11 44.41 41.1 44.4 41.09 44.4 C 41.12 44.39 41.15 44.38 41.19 44.36 C 41.26 44.41 41.28 44.43 41.32 44.51 C 41.36 44.52 41.4 44.53 41.44 44.53 C 41.45 44.51 41.46 44.5 41.48 44.49 C 41.48 44.39 41.47 44.36 41.44 44.32 C 41.42 44.3 41.42 44.29 41.4 44.28 C 41.35 44.28 41.3 44.28 41.26 44.29 C 41.27 44.31 41.3 44.33 41.32 44.34 C 41.32 44.34 41.32 44.36 41.32 44.36 C 41.3 44.35 41.26 44.34 41.23 44.33 C 41.18 44.3 41.18 44.26 41.09 44.23 C 41.04 44.15 41.04 43.98 41 43.88 C 41.11 43.75 41.35 44.01 41.49 44.05 C 41.59 44.04 41.71 44.04 41.82 44.03 C 41.85 43.98 41.87 43.93 41.89 43.88 C 41.87 43.89 41.85 43.9 41.83 43.91 C 41.81 43.89 41.79 43.87 41.77 43.86 C 41.85 43.75 41.94 43.65 41.88 43.51 C 41.9 43.52 41.92 43.53 41.94 43.54 C 41.94 43.54 41.95 43.54 41.95 43.54 C 41.94 43.51 41.94 43.49 41.92 43.46 C 42.12 43.54 43.01 43.67 43.25 43.52 C 43.31 43.5 43.52 43.24 43.6 43.17 C 43.6 43.11 43.6 43.04 43.6 42.98 C 43.48 42.93 43.43 42.93 43.41 42.78 C 43.45 42.75 43.48 42.71 43.52 42.68 C 43.46 42.43 43.22 42.41 43.1 42.21 C 43.12 42.19 43.14 42.16 43.16 42.14 C 43.17 42.14 43.19 42.13 43.2 42.13 C 43.24 42.18 43.28 42.2 43.3 42.28 C 43.39 42.3 43.47 42.32 43.57 42.34 C 43.64 42.4 43.74 42.56 43.84 42.58 C 43.92 42.6 43.99 42.53 44.08 42.58 C 44.14 42.61 44.19 42.69 44.3 42.68 C 44.58 42.65 44.63 42.52 44.79 42.4 C 44.89 42.36 44.99 42.31 45.09 42.27 C 45.16 42.18 45.23 42.08 45.31 41.99 C 45.49 41.91 45.67 41.83 45.85 41.75 C 46.07 41.61 46.19 41.34 46.4 41.18 C 46.65 40.99 46.97 40.95 47.07 40.59 C 47.05 40.59 47.03 40.58 47.02 40.57 C 47.05 40.44 47.06 40.26 47.14 40.07 C 47.2 39.91 48.17 39.41 48.42 39.49 C 48.48 39.53 48.54 39.58 48.59 39.62 C 48.6 39.59 48.61 39.56 48.62 39.52 C 48.6 39.51 48.58 39.51 48.56 39.51 C 48.56 39.51 48.56 39.49 48.56 39.49 C 48.69 39.46 48.81 39.27 48.94 39.31 C 48.98 39.27 48.98 39.28 48.94 39.24 C 48.94 39.24 48.94 39.2 48.94 39.2 C 49.19 39.2 49.69 39.3 49.94 39.42 C 49.97 39.39 49.97 39.39 50.01 39.37 C 50 39.15 50.26 39.23 50.43 39.16 C 50.53 39.07 50.54 38.81 50.7 38.74 C 50.96 38.6 50.94 38.52 51.13 38.4 C 51.2 38.35 51.29 38.36 51.34 38.28 C 51.52 37.97 51.4 37.84 51.78 37.7 C 51.84 37.49 51.89 37.33 52.01 37.17 C 52.08 37.11 52.13 37.04 52.19 36.96 C 52.26 36.78 52.22 36.63 52.29 36.46 C 52.37 36.28 52.52 36.16 52.54 35.93 C 52.71 35.83 52.86 35.87 53.02 35.76 C 53.26 35.55 53.5 35.34 53.73 35.13 C 53.82 35.11 53.9 35.09 53.99 35.08 C 54.09 34.99 54.2 34.91 54.3 34.82 C 54.69 34.58 55 34.36 55.15 33.87 C 55.15 33.78 55.16 33.68 55.17 33.59 C 55.2 33.41 55.41 32.26 55.4 32.26 C 44.68 32.24 36.72 32.37 36.72 32.37 M 37.14 12.1 C 37.24 12.18 37.53 12.01 37.68 12.01 C 37.74 12.09 37.88 12.43 37.95 12.44 C 38.07 12.71 37.75 12.84 37.78 13.04 C 37.79 13.04 37.8 13.05 37.81 13.06 C 37.86 13 37.86 13.01 37.84 12.94 C 37.85 12.94 37.86 12.94 37.87 12.93 C 37.89 13 37.86 12.99 37.93 13 C 37.88 13.04 37.84 13.07 37.78 13.11 C 37.75 13.16 37.79 13.31 37.81 13.43 C 37.83 13.44 37.86 13.45 37.88 13.45 C 37.89 13.44 37.89 13.42 37.9 13.4 C 37.91 13.41 37.92 13.42 37.92 13.43 C 37.86 13.5 37.86 13.53 37.82 13.59 C 37.86 13.6 37.84 13.59 37.88 13.58 C 37.91 13.63 37.92 13.66 37.9 13.74 C 37.91 13.95 38.13 13.95 38.03 14.18 C 38.1 14.28 38.35 14.21 38.41 14.22 C 38.41 14.05 38.63 13.87 38.7 13.7 C 38.8 13.48 38.71 13.18 38.71 12.93 C 38.74 12.91 38.76 12.91 38.8 12.89 C 38.76 12.7 38.73 12.5 38.7 12.3 C 38.77 11.54 39.37 11.36 39.97 11.18 C 40.26 11.09 40.15 10.84 40.67 10.95 C 40.81 10.7 41.25 10.75 41.5 10.68 C 41.51 10.68 41.51 10.66 41.51 10.66 C 41.46 10.62 41.48 10.64 41.45 10.58 C 41.45 10.58 41.45 10.57 41.45 10.57 C 41.51 10.52 41.73 10.47 41.81 10.47 C 41.83 10.44 41.86 10.41 41.88 10.37 C 41.83 10.31 41.74 10.27 41.63 10.26 C 41.63 10.25 41.63 10.25 41.63 10.25 C 41.72 10.26 41.81 10.27 41.9 10.29 C 41.9 10.32 41.9 10.36 41.9 10.4 C 41.9 10.39 41.94 10.11 41.94 9.96 C 41.92 9.95 41.89 9.94 41.86 9.93 C 41.81 9.9 41.85 9.93 41.85 9.86 C 41.85 9.8 41.94 9.67 41.99 9.6 C 41.95 9.57 41.99 9.34 41.99 9.28 C 42.06 9.21 42.12 9.16 42.19 9.1 C 42.03 9.32 42.11 9.33 42.06 9.59 C 42.1 9.6 42.14 9.62 42.18 9.63 C 42.1 9.71 42.02 9.73 41.97 9.84 C 41.97 9.84 41.96 9.85 41.95 9.86 C 41.98 9.89 41.98 9.88 42.03 9.9 C 42.1 9.72 42.43 9.61 42.58 9.38 C 42.49 9.28 42.53 9.23 42.5 9.1 C 42.56 9.16 42.59 9.21 42.69 9.24 C 42.67 9.26 42.65 9.28 42.63 9.31 C 42.63 9.31 42.63 9.32 42.63 9.32 C 42.85 9.35 43.15 9.07 43.24 8.91 C 43.23 8.87 43.24 8.89 43.2 8.86 C 43.2 8.86 43.19 8.84 43.19 8.84 C 43.44 8.8 43.8 8.88 44.07 8.85 C 44.05 8.82 44.03 8.78 44 8.76 C 43.79 8.78 43.61 8.71 43.4 8.75 C 43.64 8.56 44.4 8.84 44.73 8.71 C 44.77 8.79 44.85 8.78 45.01 8.79 C 45.02 8.76 45.05 8.74 45.07 8.71 C 45.06 8.69 45.04 8.67 45.02 8.65 C 44.99 8.72 45.02 8.73 44.94 8.73 C 44.91 8.72 44.87 8.71 44.83 8.71 C 44.8 8.63 44.84 8.51 44.69 8.49 C 44.69 8.48 44.69 8.47 44.69 8.46 C 44.76 8.45 44.83 8.43 44.89 8.41 C 44.88 8.39 44.86 8.35 44.84 8.32 C 44.93 8.21 45.13 8.14 45.21 8.06 C 45.43 8.1 45.57 8.09 45.8 7.99 C 45.83 8.02 45.82 8.01 45.82 8.06 C 46.09 8.04 46.35 8.06 46.64 7.99 C 46.62 7.96 46.61 7.93 46.6 7.9 C 46.63 7.9 46.77 7.96 46.82 7.97 C 47.03 8.01 47.44 7.97 47.62 7.91 C 47.63 7.91 47.64 7.92 47.65 7.94 C 47.58 7.95 47.52 7.97 47.45 7.99 C 47.45 7.99 47.44 8 47.44 8.01 C 47.51 8.02 47.59 8.04 47.66 8.06 C 47.39 8.09 47.12 8.14 46.86 8.19 C 46.85 8.19 46.85 8.21 46.84 8.21 C 46.88 8.21 46.91 8.2 46.94 8.19 C 46.92 8.2 46.9 8.21 46.88 8.21 C 46.82 8.29 46.8 8.3 46.8 8.44 C 46.82 8.45 46.86 8.45 46.88 8.45 C 46.94 8.52 46.9 8.56 47.01 8.57 C 47.21 8.58 47.39 8.45 47.6 8.44 C 47.63 8.39 47.61 8.37 47.67 8.34 C 47.68 8.36 47.69 8.37 47.7 8.39 C 47.72 8.37 47.74 8.35 47.76 8.34 C 47.77 8.43 47.82 8.43 47.89 8.45 C 48.01 8.32 48.76 8.49 48.98 8.42 C 48.99 8.42 48.99 8.42 49.01 8.42 C 48.97 8.38 48.93 8.36 48.84 8.36 C 48.88 8.34 48.88 8.34 48.91 8.3 C 49.08 8.36 49.27 8.32 49.51 8.33 C 49.51 8.33 49.51 8.29 49.51 8.29 C 49.51 8.21 49.38 8.13 49.29 8.13 C 49.29 8.13 49.29 8.11 49.29 8.11 C 49.33 8.07 49.37 8.03 49.4 7.99 C 49.37 7.94 49.38 7.97 49.38 7.9 C 49.35 7.89 49.32 7.89 49.29 7.88 C 49.16 7.95 48.83 8.03 48.83 8.23 C 48.73 8.24 48.68 8.23 48.68 8.12 C 48.35 8.15 48.22 7.99 47.96 7.96 C 47.94 7.94 47.92 7.91 47.9 7.89 C 47.92 7.89 47.94 7.89 47.96 7.89 C 47.96 7.88 47.96 7.87 47.97 7.86 C 47.89 7.83 47.81 7.8 47.72 7.76 C 47.67 7.73 47.63 7.6 47.6 7.54 C 47.62 7.52 47.65 7.5 47.67 7.48 C 47.63 7.45 47.59 7.44 47.51 7.44 C 47.51 7.44 47.51 7.41 47.51 7.41 C 47.66 7.39 47.73 7.32 47.87 7.26 C 47.87 7.24 47.89 7.22 47.89 7.2 C 47.89 7.2 47.89 7.2 47.89 7.19 C 47.75 7.23 47.63 7.21 47.42 7.2 C 47.39 7.11 47.32 7.07 47.21 7.05 C 47.21 7.04 47.2 7.03 47.19 7.02 C 47.39 7.04 47.45 7.13 47.62 7.15 C 47.76 7.13 47.91 7.11 48.05 7.09 C 48.06 7.07 48.06 7.06 48.06 7.05 C 48.09 7.02 48.06 7.02 48.04 6.96 C 48.06 6.97 48.07 6.98 48.09 6.98 C 48.09 6.98 48.09 6.97 48.09 6.97 C 47.75 6.51 46.55 6.66 46.04 6.76 C 45.82 6.8 45.69 7 45.4 7 C 45.52 6.87 46.26 6.6 46.48 6.53 C 46.48 6.53 46.94 6.56 46.98 6.55 C 47.02 6.52 47.06 6.47 47.1 6.42 C 47.29 6.32 47.57 6.36 47.82 6.42 C 48.14 6.52 48.45 6.55 48.77 6.66 C 48.97 6.73 49.57 6.98 49.78 6.94 C 49.94 6.92 50.08 6.87 50.23 6.81 C 50.56 6.66 51.24 7.02 51.47 6.77 C 51.49 6.72 51.49 6.76 51.46 6.7 C 51.47 6.7 51.48 6.71 51.49 6.71 C 51.53 6.64 51.49 6.42 51.53 6.34 C 51.45 6.31 51.37 6.28 51.3 6.26 C 51.3 6.21 51.3 6.25 51.31 6.2 C 51.16 6.18 51.16 6.15 51.06 6.16 C 51.03 5.99 50.88 5.94 50.71 5.91 C 50.71 5.91 50.71 5.9 50.71 5.9 C 50.83 5.91 50.95 5.92 51.07 5.94 C 51.01 5.85 50.86 5.84 50.84 5.74 C 50.72 5.71 50.63 5.74 50.53 5.68 C 50.48 5.64 50.49 5.64 50.49 5.59 C 50.43 5.55 50.28 5.56 50.23 5.51 C 50.17 5.46 50.15 5.41 50.06 5.37 C 50.04 5.31 50.02 5.35 50.07 5.31 C 50.06 5.27 49.82 5.1 49.71 5.07 C 49.75 5.04 49.74 5.05 49.78 5.05 C 49.79 5.02 49.79 4.94 49.8 4.84 C 49.76 4.82 49.73 4.81 49.7 4.79 C 49.69 4.79 49.73 4.72 49.73 4.63 C 49.6 4.58 49.46 4.53 49.48 4.38 C 49.45 4.38 49.44 4.38 49.41 4.38 C 49.33 4.25 49.01 3.84 49.01 3.71 C 48.68 3.8 48.24 4.35 47.76 3.97 C 47.69 3.98 47.64 3.86 47.49 3.84 C 47.49 3.8 47.49 3.76 47.48 3.72 C 47.45 3.71 47.42 3.71 47.39 3.7 C 47.43 3.59 47.47 3.57 47.46 3.42 C 47.51 3.4 47.56 3.38 47.62 3.36 C 47.6 3.34 47.59 3.32 47.57 3.29 C 47.53 3.31 47.49 3.32 47.45 3.34 C 47.36 3.24 47.15 3.19 46.99 3.15 C 46.99 3.14 46.98 3.13 46.98 3.12 C 46.98 3.12 46.98 3.11 46.98 3.11 C 47.01 3.09 47 3.1 47.05 3.08 C 47.05 3.08 47.05 3.08 47.05 3.07 C 46.94 2.97 46.71 2.81 46.58 2.76 C 46.46 2.76 46.35 2.76 46.23 2.77 C 45.94 2.67 45.67 2.56 45.37 2.56 C 45.35 2.59 45.32 2.62 45.29 2.65 C 45.28 2.67 45.28 2.68 45.28 2.7 C 45.3 2.73 45.3 2.73 45.34 2.75 C 45.28 2.82 45.21 2.86 45.09 2.88 C 45.2 3.01 45.12 3.03 45.18 3.11 C 45.13 3.16 44.8 3.28 44.68 3.29 C 44.66 3.32 44.65 3.34 44.64 3.37 C 44.8 3.42 44.96 3.56 44.97 3.78 C 44.82 4.1 44.49 4.16 44.08 4.22 C 43.94 4.23 43.79 4.23 43.65 4.23 C 43.65 4.23 43.62 4.23 43.62 4.23 C 43.63 4.29 43.62 4.38 43.7 4.41 C 43.63 4.55 43.47 4.72 43.58 4.88 C 43.5 4.94 43.41 5.01 43.31 5.01 C 43.31 5.05 43.31 5.09 43.3 5.13 C 43.29 5.14 43.27 5.14 43.25 5.14 C 43.24 5.1 43.22 5.1 43.2 5.04 C 43.08 5.05 43.02 5.1 42.95 5.14 C 42.89 5.12 42.85 5.1 42.8 5.08 C 42.76 4.86 42.62 4.73 42.53 4.53 C 42.6 4.46 42.66 4.41 42.71 4.33 C 42.71 4.28 42.71 4.25 42.71 4.22 C 42.78 4.14 42.87 4.1 42.93 3.99 C 42.64 3.97 41.81 3.72 41.65 3.56 C 41.59 3.51 41.57 3.38 41.49 3.31 C 41.36 3.25 41.24 3.19 41.11 3.14 C 40.96 3.14 40.82 3.14 40.68 3.14 C 40.68 3.14 40.65 3.14 40.65 3.14 C 40.75 3.03 40.82 2.88 40.9 2.76 C 40.83 2.73 40.73 2.72 40.61 2.73 C 40.61 2.71 40.61 2.68 40.62 2.66 C 40.88 2.34 41.76 2.02 42.13 2.04 C 42.11 2.02 42.09 2 42.08 1.98 C 42.21 1.99 42.36 2.01 42.51 1.99 C 42.56 1.92 42.55 1.92 42.5 1.86 C 42.5 1.86 42.46 1.86 42.46 1.86 C 42.46 1.86 42.46 1.85 42.46 1.85 C 42.68 1.91 43.41 1.9 43.74 1.73 C 43.79 1.7 43.76 1.72 43.74 1.68 C 43.89 1.65 44.03 1.62 44.18 1.59 C 44.18 1.59 44.21 1.59 44.21 1.59 C 44.21 1.59 44.21 1.58 44.21 1.58 C 44.18 1.56 44.16 1.55 44.11 1.54 C 44.11 1.52 44.11 1.52 44.1 1.51 C 44.2 1.52 44.29 1.52 44.38 1.54 C 44.38 1.61 44.59 1.74 44.69 1.77 C 44.71 1.74 44.69 1.77 44.7 1.73 C 44.71 1.72 44.71 1.72 44.71 1.72 C 44.68 1.72 44.7 1.71 44.66 1.73 C 44.64 1.68 44.63 1.67 44.57 1.63 C 44.57 1.62 44.57 1.62 44.57 1.61 C 44.62 1.63 44.66 1.66 44.7 1.68 C 44.7 1.64 44.69 1.6 44.69 1.56 C 44.75 1.6 44.8 1.64 44.86 1.68 C 44.86 1.67 44.86 1.65 44.86 1.64 C 45.1 1.58 45.32 1.59 45.5 1.53 C 45.46 1.5 45.43 1.46 45.39 1.42 C 45.4 1.41 44.09 0.68 42.58 0.72 C 41.59 0.73 38.07 1.94 35.29 3.36 C 33.15 4.43 31.52 5.78 31.42 5.89 C 30.57 6.63 29.75 7.54 29.32 8.65 C 29.27 8.7 29.22 8.75 29.17 8.82 C 29.14 8.89 28.89 9.53 28.89 9.56 C 28.93 9.56 28.97 9.56 29.01 9.56 C 28.99 9.75 29.1 9.76 29.04 9.99 C 28.97 10.32 28.74 10.73 28.63 11.1 C 28.61 11.18 28.54 11.36 28.56 11.46 C 28.58 11.59 28.62 11.75 28.58 11.91 C 28.52 12 28.47 12.09 28.42 12.18 C 28.36 12.18 28.34 12.2 28.27 12.18 C 28.26 12.18 28.26 12.18 28.25 12.18 C 28.23 12.37 28.31 12.48 28.29 12.65 C 28.33 12.65 28.32 12.65 28.36 12.62 C 28.47 12.92 28.41 13.24 28.19 13.44 C 28.26 13.71 28.4 13.87 28.35 14.29 C 28.35 14.29 28.35 14.3 28.35 14.3 C 28.36 14.3 28.37 14.31 28.38 14.31 C 28.62 14.06 28.56 14.08 28.59 13.76 C 28.58 13.72 28.57 13.69 28.56 13.66 C 28.54 13.69 28.52 13.71 28.5 13.74 C 28.49 13.74 28.49 13.74 28.49 13.74 C 28.45 13.53 28.67 12.99 28.71 12.76 C 28.74 12.61 28.66 12.36 28.7 12.18 C 28.79 11.77 28.84 10.88 29.18 10.62 C 29.19 10.65 29.21 10.68 29.23 10.72 C 29.24 10.7 29.26 10.68 29.28 10.68 C 29.35 10.92 29.06 11.28 29.1 11.61 C 29.02 11.66 28.99 11.7 28.93 11.78 C 28.95 11.79 28.96 11.8 28.97 11.81 C 29 11.79 29.02 11.76 29.05 11.73 C 29.05 11.81 29.01 12.07 29.1 12.15 C 29.11 12.18 29.1 12.16 29.13 12.16 C 29.14 12.16 29.15 12.18 29.16 12.18 C 29.11 12.28 29.07 12.33 29.07 12.48 C 29.11 12.5 29.1 12.5 29.15 12.51 C 29.13 12.56 29.12 12.62 29.11 12.68 C 29.13 12.68 29.15 12.67 29.17 12.67 C 29.17 12.85 29.1 12.91 29.01 13.04 C 29.03 13.2 29.11 13.24 29.18 13.37 C 29.13 13.43 29.13 13.47 29.11 13.55 C 29.24 13.73 29.42 14.95 29.17 15.14 C 29.11 15.23 29.11 15.2 29.14 15.29 C 29.1 15.35 29.07 15.34 29 15.37 C 28.81 15.84 29.23 15.97 29.24 16.35 C 29.27 16.36 29.3 16.39 29.33 16.41 C 29.33 16.41 30.88 16.36 31.8 16.34 C 31.83 16.34 31.73 16.3 31.69 16.27 C 31.65 16.23 31.46 15.29 31.5 15.16 C 31.53 15.11 31.56 15.06 31.59 15.01 C 31.46 14.71 31.67 14.41 31.78 14.15 C 31.88 13.91 31.97 13.68 32.06 13.45 C 32.15 13.34 32.33 13.37 32.38 13.17 C 32.41 13.04 32.35 12.92 32.42 12.75 C 32.48 12.6 32.64 12.55 32.64 12.36 C 32.73 12.37 32.88 12.3 32.89 12.23 C 32.9 12.2 32.92 12.18 32.94 12.15 C 32.94 12.2 32.94 12.18 32.92 12.24 C 32.99 12.2 32.97 12.19 33 12.2 C 33.02 12.18 33.04 12.15 33.06 12.13 C 33.04 12.11 33.02 12.09 33.01 12.06 C 33.25 12.09 33.43 11.99 33.64 11.87 C 33.77 11.9 33.72 11.81 33.7 11.74 C 33.74 11.7 33.78 11.69 33.82 11.66 C 33.82 11.67 33.83 11.68 33.83 11.68 C 33.82 11.7 33.8 11.72 33.78 11.74 C 33.78 11.74 33.83 11.76 33.83 11.76 C 33.89 11.81 34.11 11.69 34.24 11.7 C 34.37 11.72 34.64 11.83 34.74 11.88 C 34.75 11.88 34.77 11.88 34.78 11.87 C 34.78 11.86 34.78 11.84 34.78 11.82 C 34.75 11.82 34.72 11.81 34.69 11.81 C 34.68 11.8 34.68 11.79 34.68 11.77 C 34.71 11.76 34.75 11.75 34.78 11.74 C 34.79 11.79 34.88 11.87 34.92 11.92 C 34.91 11.92 34.9 11.93 34.89 11.94 C 34.88 11.95 34.88 11.96 34.87 11.98 C 34.91 12.01 34.95 12.05 34.99 12.08 C 35.07 12.05 35.13 12.03 35.19 12 C 35.2 12.03 35.21 12.07 35.21 12.09 C 35.32 12.07 35.32 12.02 35.38 11.96 C 35.43 12.02 35.49 12.11 35.56 12.14 C 35.57 12.15 35.58 12.16 35.6 12.16 C 35.6 12.16 35.61 12.16 35.61 12.16 C 35.61 12.16 35.67 12.1 35.67 12.1 C 35.62 12.05 35.58 12.01 35.53 11.96 C 35.52 11.96 35.52 11.95 35.51 11.94 C 35.54 11.89 35.58 11.88 35.65 11.87 C 35.69 11.81 35.67 11.82 35.67 11.74 C 35.63 11.76 35.6 11.78 35.56 11.8 C 35.56 11.8 35.55 11.8 35.55 11.8 C 35.54 11.79 35.53 11.78 35.52 11.76 C 35.74 11.63 35.99 11.66 36.2 11.7 C 36.22 11.66 36.24 11.63 36.25 11.6 C 36.26 11.59 36.28 11.59 36.29 11.57 C 36.29 11.63 36.29 11.69 36.29 11.75 C 36.6 11.79 36.83 11.66 37.06 11.91 C 37.11 11.96 37.11 12.07 37.14 12.1 M 46.58 1.56 C 46.51 1.58 46.46 1.6 46.4 1.63 C 46.39 1.65 46.38 1.67 46.38 1.69 C 46.38 1.69 46.38 1.7 46.38 1.7 C 46.48 1.76 46.78 1.82 46.9 1.75 C 46.93 1.72 46.97 1.7 46.99 1.67 C 46.99 1.65 46.99 1.64 46.99 1.63 C 46.86 1.59 46.76 1.56 46.58 1.56 M 47.31 1.61 C 47.34 1.63 47.31 1.61 47.35 1.63 C 47.34 1.63 47.32 1.61 47.31 1.61 M 45.09 2.22 C 45.07 2.21 45.06 2.19 45.04 2.16 C 44.97 2.11 44.88 2.09 44.79 2.1 C 44.8 2.07 44.82 2.04 44.83 2 C 44.72 1.94 44.51 1.87 44.44 1.77 C 44.38 1.72 44.45 1.65 44.36 1.61 C 44.35 1.63 44.34 1.64 44.32 1.65 C 44.07 1.63 43.79 1.76 43.7 1.93 C 43.58 1.93 43.46 1.93 43.39 1.98 C 43.46 2.03 43.65 2.02 43.75 2.02 C 43.72 2.03 43.71 2.04 43.69 2.06 C 43.68 2.08 43.67 2.11 43.64 2.13 C 43.85 2.17 44.19 2.11 44.31 2.03 C 44.4 2.05 44.47 2.07 44.55 2.09 C 44.53 2.1 44.5 2.11 44.48 2.11 C 44.61 2.23 44.85 2.24 45.09 2.22 M 44.34 1.73 C 44.32 1.72 44.31 1.7 44.3 1.69 C 44.29 1.72 44.28 1.74 44.27 1.77 C 44.3 1.76 44.33 1.74 44.36 1.73 C 44.36 1.73 44.34 1.73 44.34 1.73 Z M 48.09 2.24 C 48.07 2.22 48.06 2.21 48.04 2.2 C 48.09 2.16 48.07 2.21 48.07 2.14 C 47.89 2.13 47.92 2.07 47.79 2.04 C 47.76 2.05 47.73 2.07 47.69 2.09 C 47.72 2.14 47.72 2.15 47.69 2.21 C 47.87 2.2 47.93 2.21 48.09 2.24 M 49.22 2.08 C 49.21 2.09 49.21 2.1 49.21 2.11 C 49.21 2.11 49.23 2.11 49.23 2.11 C 49.23 2.1 49.23 2.09 49.22 2.08 M 48.12 2.19 C 48.15 2.21 48.12 2.19 48.16 2.21 C 48.15 2.21 48.13 2.19 48.12 2.19 M 44.12 2.24 C 44.05 2.26 43.98 2.28 43.89 2.31 C 43.9 2.34 43.9 2.37 43.9 2.39 C 44.11 2.38 44.31 2.39 44.49 2.34 C 44.49 2.32 44.5 2.32 44.51 2.31 C 44.38 2.28 44.25 2.26 44.12 2.24 M 45.69 2.26 C 45.69 2.27 45.69 2.28 45.69 2.3 C 45.69 2.3 45.78 2.3 45.78 2.3 C 45.78 2.3 45.78 2.28 45.78 2.28 C 45.76 2.28 45.72 2.26 45.69 2.26 M 47.71 2.47 C 47.68 2.39 47.57 2.35 47.48 2.32 C 47.49 2.36 47.49 2.39 47.49 2.42 C 47.45 2.42 47.41 2.42 47.36 2.41 C 47.38 2.43 47.38 2.43 47.38 2.44 C 47.52 2.46 47.63 2.48 47.74 2.51 C 47.73 2.5 47.72 2.49 47.71 2.47 M 45.44 2.34 C 45.44 2.34 45.44 2.36 45.43 2.36 C 45.47 2.39 45.5 2.41 45.53 2.44 C 45.57 2.44 45.61 2.45 45.65 2.46 C 45.65 2.45 45.66 2.44 45.67 2.44 C 45.67 2.43 45.67 2.41 45.67 2.4 C 45.59 2.38 45.52 2.36 45.44 2.34 M 45.89 2.38 C 45.84 2.37 45.8 2.36 45.75 2.35 C 45.78 2.41 45.81 2.41 45.86 2.45 C 45.87 2.45 45.9 2.45 45.92 2.45 C 45.93 2.44 45.93 2.43 45.93 2.43 C 45.92 2.41 45.9 2.39 45.89 2.38 M 44.89 2.49 C 44.84 2.51 44.79 2.52 44.75 2.54 C 44.74 2.56 44.73 2.58 44.72 2.6 C 44.73 2.61 44.75 2.64 44.76 2.65 C 44.86 2.67 44.91 2.61 45.01 2.6 C 45.02 2.58 45.04 2.56 45.06 2.54 C 45 2.51 44.97 2.5 44.89 2.49 M 47 2.57 C 47 2.58 47 2.59 47 2.6 C 47.01 2.59 47.02 2.59 47.04 2.58 C 47.04 2.58 47.04 2.58 47.04 2.57 C 47.02 2.57 47.01 2.57 47 2.57 M 46.36 2.67 C 46.38 2.71 46.42 2.71 46.46 2.73 C 46.48 2.73 46.5 2.73 46.52 2.73 C 46.48 2.7 46.42 2.68 46.36 2.67 M 53.23 2.98 C 53.26 3.01 53.23 2.99 53.27 3.01 C 53.24 2.98 53.27 3 53.23 2.98 M 44.95 2.88 C 44.95 2.89 44.97 2.9 44.97 2.91 C 45 2.91 45.02 2.91 45.06 2.91 C 45.06 2.91 45.06 2.89 45.06 2.89 C 45.02 2.89 44.99 2.89 44.95 2.88 M 58.56 3.93 C 58.45 3.97 58.4 3.89 58.31 3.84 C 58.29 3.84 58.27 3.84 58.24 3.84 C 58.25 3.86 58.27 3.87 58.29 3.89 C 58.13 3.92 57.94 3.82 57.78 3.78 C 57.77 3.78 57.77 3.79 57.77 3.79 C 57.77 3.81 57.8 3.83 57.8 3.85 C 57.73 3.8 57.68 3.75 57.57 3.73 C 57.57 3.73 57.57 3.75 57.57 3.75 C 57.61 3.77 57.63 3.8 57.66 3.83 C 57.66 3.83 57.66 3.84 57.66 3.84 C 57.59 3.82 57.61 3.8 57.55 3.85 C 57.39 3.73 57.26 3.55 57 3.53 C 57.02 3.55 57.04 3.57 57.06 3.59 C 57.02 3.58 56.99 3.56 56.95 3.55 C 56.91 3.58 56.88 3.6 56.84 3.64 C 56.84 3.64 56.83 3.66 56.83 3.67 C 57.01 3.71 57.19 3.76 57.37 3.8 C 57.28 3.86 57.19 3.84 57.04 3.81 C 57.03 3.82 57.02 3.82 57.02 3.82 C 57.02 3.84 57.03 3.84 57.04 3.85 C 57.29 3.91 57.39 3.99 57.56 4.07 C 57.56 4.08 57.57 4.09 57.57 4.1 C 57.53 4.09 57.48 4.08 57.44 4.07 C 57.43 4.07 57.43 4.08 57.43 4.08 C 57.43 4.1 57.44 4.12 57.45 4.14 C 57.83 4.24 58.75 4.7 59.07 4.34 C 59.07 4.34 59.07 4.32 59.07 4.32 C 58.91 4.21 58.67 4.06 58.56 3.93 M 47.43 3.29 C 47.43 3.3 47.43 3.31 47.43 3.32 C 47.44 3.31 47.45 3.3 47.46 3.29 C 47.45 3.29 47.44 3.29 47.43 3.29 M 48.73 3.37 C 48.76 3.4 48.74 3.39 48.79 3.41 C 48.79 3.4 48.79 3.4 48.79 3.39 C 48.77 3.38 48.78 3.38 48.73 3.37 M 49.05 3.43 C 49.01 3.42 48.98 3.41 48.94 3.4 C 48.92 3.45 48.94 3.44 48.84 3.43 C 48.84 3.44 48.84 3.45 48.84 3.45 C 48.88 3.51 48.95 3.55 49.02 3.56 C 49.04 3.55 49.07 3.53 49.09 3.51 C 49.07 3.49 49.06 3.45 49.05 3.43 M 47.96 3.51 C 47.94 3.51 47.91 3.51 47.89 3.5 C 47.87 3.51 47.86 3.51 47.85 3.53 C 47.84 3.54 47.83 3.55 47.82 3.56 C 47.87 3.6 47.94 3.59 48.01 3.58 C 48.02 3.57 48.03 3.56 48.03 3.55 C 48 3.54 47.98 3.53 47.96 3.51 M 69.57 15.53 C 69.5 15.39 69.43 15.24 69.36 15.1 C 69.37 15.12 69.39 15.14 69.4 15.16 C 69.41 15.16 69.42 15.16 69.43 15.17 C 69.43 15.17 69.43 15.14 69.43 15.14 C 69.44 15.08 69.37 14.99 69.32 14.92 C 69.33 14.92 69.34 14.91 69.35 14.91 C 69.38 14.95 69.41 14.99 69.44 15.02 C 69.44 15.02 69.45 15.02 69.46 15.02 C 69.43 14.97 69.41 14.9 69.39 14.85 C 69.44 14.89 69.48 14.95 69.54 15 C 69.47 14.84 69.28 14.53 69.13 14.47 C 69.15 14.41 69.13 14.43 69.19 14.44 C 69.14 14.26 68.87 14.1 68.84 13.84 C 68.85 13.84 68.85 13.84 68.86 13.84 C 68.88 13.99 68.98 13.95 69.05 14.01 C 69.05 14.01 69.06 14.01 69.06 14.01 C 69 13.94 68.95 13.85 68.9 13.78 C 68.93 13.76 68.95 13.74 68.98 13.72 C 69.05 13.67 69.1 13.82 69.19 13.82 C 69.19 13.87 69.2 13.88 69.21 13.95 C 69.22 13.78 69.2 13.56 69.18 13.5 C 69.11 13.42 69.06 13.3 68.99 13.18 C 68.78 12.84 68.63 12.55 68.48 12.14 C 68.44 12.05 67.17 10.07 65.56 8.54 C 63.89 6.97 61.87 5.88 61.9 5.87 C 61.86 5.92 61.82 5.96 61.74 5.98 C 61.76 6.07 61.74 6.07 61.78 6.13 C 61.73 6.14 61.71 6.16 61.65 6.18 C 61.71 6.26 61.77 6.31 61.82 6.37 C 61.83 6.42 61.83 6.47 61.86 6.51 C 61.98 6.71 62.24 6.8 62.35 7.03 C 62.41 7.05 62.41 7.03 62.46 7 C 62.47 7.06 62.5 7.11 62.51 7.17 C 62.58 7.26 62.95 7.46 63.08 7.39 C 63.15 7.35 63.16 7.25 63.13 7.16 C 63.16 7.16 63.18 7.15 63.21 7.13 C 63.2 7.11 63.19 7.09 63.18 7.07 C 63.18 7.07 63.18 7.06 63.18 7.05 C 63.57 7.24 63.76 7.72 64.17 7.89 C 64.19 7.94 64.21 7.98 64.23 8.04 C 64.16 8.05 64.15 8.09 64.12 8.14 C 64.2 8.24 64.29 8.32 64.41 8.39 C 64.37 8.44 64.39 8.41 64.32 8.39 C 64.32 8.39 64.32 8.4 64.32 8.41 C 64.35 8.45 64.37 8.47 64.43 8.5 C 64.46 8.51 64.48 8.51 64.51 8.51 C 64.51 8.47 64.51 8.44 64.51 8.4 C 64.47 8.36 64.43 8.28 64.35 8.25 C 64.35 8.21 64.35 8.23 64.38 8.2 C 64.35 8.17 64.33 8.13 64.3 8.1 C 64.33 8.14 64.35 8.17 64.38 8.2 C 64.41 8.22 64.44 8.24 64.46 8.28 C 64.51 8.28 64.56 8.28 64.62 8.29 C 64.63 8.29 64.63 8.29 64.63 8.29 C 64.63 8.29 64.63 8.25 64.63 8.25 C 64.59 8.21 64.56 8.16 64.52 8.11 C 64.54 8.07 64.54 8.09 64.53 8.05 C 64.58 8.05 64.64 8.06 64.68 8.07 C 64.67 8.04 64.64 8 64.63 7.97 C 64.66 7.99 65.21 8.49 65.18 8.51 C 65.11 8.54 65.13 8.58 65.14 8.66 C 65.13 8.67 65.1 8.67 65.08 8.68 C 64.98 8.8 64.96 8.69 64.85 8.68 C 64.79 8.63 64.81 8.67 64.83 8.61 C 64.78 8.58 64.74 8.54 64.7 8.51 C 64.7 8.53 64.7 8.55 64.7 8.58 C 64.68 8.58 64.65 8.58 64.63 8.57 C 64.64 8.65 64.6 8.62 64.58 8.72 C 64.56 8.71 64.54 8.71 64.52 8.7 C 64.49 8.67 64.48 8.6 64.47 8.57 C 64.44 8.54 64.45 8.54 64.41 8.52 C 64.41 8.54 64.42 8.56 64.43 8.58 C 64.32 8.58 64.23 8.49 64.15 8.42 C 64.12 8.41 64.15 8.41 64.16 8.4 C 64.13 8.36 64.11 8.34 64.04 8.34 C 64.04 8.33 64.03 8.32 64.03 8.31 C 64.03 8.3 64.04 8.29 64.04 8.28 C 64.13 8.34 64.23 8.4 64.32 8.45 C 64.26 8.33 64.13 8.14 63.99 8.19 C 63.95 8.15 63.93 8.05 63.89 7.99 C 63.91 8 63.93 8.01 63.95 8.02 C 63.95 8 63.96 7.98 63.97 7.96 C 63.84 7.81 63.65 7.73 63.59 7.52 C 63.56 7.54 63.53 7.55 63.5 7.56 C 63.51 7.6 63.52 7.63 63.53 7.67 C 63.51 7.67 63.49 7.67 63.48 7.67 C 63.45 7.68 63.44 7.7 63.41 7.71 C 63.45 7.96 63.95 8.34 63.93 8.45 C 63.96 8.45 64 8.46 64.03 8.47 C 64.09 8.57 64.14 8.62 64.21 8.73 C 64.15 8.74 64.17 8.72 64.18 8.8 C 64.1 8.78 64.09 8.76 63.98 8.77 C 63.98 8.77 63.98 8.83 63.98 8.83 C 63.91 8.84 63.85 8.84 63.79 8.85 C 63.79 8.85 63.76 8.91 63.76 8.91 C 63.78 8.94 63.8 8.97 63.82 9.01 C 63.87 9.04 63.86 9.03 63.91 9.01 C 63.95 9.09 63.98 9.1 63.97 9.17 C 63.93 9.22 63.96 9.2 63.9 9.18 C 63.89 9.18 63.89 9.18 63.89 9.18 C 63.9 9.28 63.89 9.3 63.94 9.36 C 63.91 9.35 63.87 9.34 63.84 9.34 C 63.79 9.2 63.73 9.06 63.69 8.92 C 63.68 8.92 63.67 8.91 63.66 8.91 C 63.66 8.91 63.65 8.91 63.65 8.91 C 63.69 9.09 63.85 9.39 63.74 9.49 C 63.67 9.56 63.52 9.57 63.47 9.66 C 63.5 9.74 63.55 9.82 63.58 9.91 C 63.53 9.95 63.5 9.97 63.43 9.99 C 63.4 10.03 63.36 10.08 63.43 10.12 C 63.42 10.14 63.4 10.15 63.39 10.16 C 63.21 10.19 63.03 10.05 62.9 10.01 C 62.89 10.01 62.89 10.01 62.88 10.02 C 62.97 10.14 63.07 10.2 63.12 10.34 C 63.13 10.36 63.14 10.38 63.16 10.39 C 63.16 10.39 63.16 10.4 63.16 10.4 C 63.05 10.38 62.98 10.36 62.91 10.42 C 62.85 10.38 62.79 10.34 62.74 10.31 C 62.64 10.35 62.5 10.33 62.42 10.41 C 62.41 10.42 62.4 10.42 62.39 10.42 C 62.41 10.53 62.5 10.52 62.57 10.58 C 62.55 10.58 62.52 10.59 62.49 10.59 C 62.64 10.73 62.85 10.69 63.06 10.77 C 63.07 10.77 63.72 11.38 63.73 11.41 C 63.7 11.4 63.68 11.38 63.66 11.36 C 63.65 11.36 63.65 11.36 63.65 11.37 C 63.81 11.6 63.99 11.92 63.99 12.35 C 63.75 12.45 63.19 12.29 62.87 12.25 C 62.79 12.24 62.58 12.33 62.45 12.29 C 62.39 12.27 62.37 12.22 62.27 12.24 C 62.19 12.22 62.15 12.31 62.19 12.37 C 62.12 12.4 62.03 12.4 62 12.46 C 61.98 12.47 61.97 12.48 61.95 12.49 C 61.96 12.63 62.04 12.62 62.06 12.72 C 62.1 12.72 62.09 12.72 62.13 12.7 C 62.16 12.93 62.3 13.1 62.38 13.33 C 62.45 13.52 62.41 14.11 62.37 14.31 C 62.43 14.37 62.46 14.41 62.52 14.47 C 62.55 14.45 62.57 14.44 62.61 14.42 C 62.67 14.61 62.73 14.8 62.72 15.09 C 62.84 15.05 63.01 15.12 63.08 15.1 C 63.12 15.08 63.15 15.02 63.23 15.01 C 63.47 14.89 63.59 15.47 63.84 15.51 C 63.89 15.46 64.1 15.26 64.11 15.22 C 64.3 15.21 64.43 15.19 64.58 15.24 C 64.59 15.22 64.6 15.2 64.61 15.17 C 64.69 15.19 64.69 15.19 64.73 15.23 C 64.77 15.13 64.81 14.96 64.85 14.88 C 64.9 14.86 64.92 14.85 65 14.85 C 65 14.77 64.94 14.64 64.99 14.5 C 65.01 14.42 65.09 14.42 65.11 14.31 C 64.69 14.03 65.07 13.67 64.95 13.44 C 65.02 13.34 65.09 13.37 65.2 13.3 C 65.26 13.26 65.32 13.12 65.37 13.07 C 65.35 12.91 65.11 12.69 65.17 12.53 C 65.18 12.48 65.25 12.45 65.28 12.4 C 65.49 12.46 65.62 12.55 65.81 12.63 C 65.9 12.54 65.88 12.37 66.04 12.35 C 66.06 12.29 66.07 12.23 66.09 12.16 C 66.09 12.16 66.09 12.13 66.09 12.13 C 66.46 12.2 66.67 12.71 66.86 12.97 C 66.86 12.97 67.38 13.48 67.4 13.49 C 67.42 13.5 67.48 13.46 67.52 13.5 C 67.55 13.55 67.59 13.6 67.62 13.66 C 68.02 14.04 68.14 14.15 68.31 14.72 C 68.27 14.74 68.19 14.76 68.15 14.82 C 68.01 14.82 68.01 14.8 67.93 14.73 C 67.91 14.76 67.91 14.76 67.9 14.8 C 67.88 14.79 67.87 14.78 67.85 14.76 C 67.84 14.76 67.84 14.76 67.84 14.76 C 67.83 14.82 67.82 14.88 67.85 14.94 C 67.87 14.99 68.37 15.39 68.43 15.41 C 68.44 15.41 68.45 15.41 68.45 15.41 C 68.41 15.21 68.31 15.09 68.31 14.84 C 68.34 14.86 68.36 14.88 68.39 14.89 C 68.39 14.89 68.4 14.89 68.4 14.89 C 68.43 14.79 68.41 14.65 68.36 14.56 C 68.38 14.48 68.37 14.5 68.42 14.47 C 68.38 14.3 68.29 14.28 68.2 14.17 C 68.18 14.05 68.15 13.95 68.12 13.84 C 68.13 13.84 68.14 13.83 68.15 13.82 C 68.21 13.91 68.36 14.07 68.45 14.13 C 68.38 13.82 68.08 13.57 67.82 13.44 C 67.79 13.39 67.78 13.35 67.78 13.26 C 67.7 13.21 67.64 13.24 67.55 13.17 C 67.35 13.01 67.26 12.75 67.11 12.55 C 66.97 12.37 66.71 12.3 66.64 12.06 C 66.65 12.03 66.65 12 66.65 11.96 C 66.63 11.89 66.55 11.87 66.52 11.77 C 66.6 11.76 66.6 11.74 66.63 11.68 C 66.65 11.69 66.67 11.69 66.68 11.69 C 66.73 11.76 66.83 11.94 66.87 12.04 C 66.88 12.05 66.89 12.05 66.9 12.06 C 66.9 12.06 66.91 11.96 66.91 11.96 C 66.93 12.01 66.96 12.06 66.98 12.11 C 67 12.11 67.01 12.13 67.02 12.14 C 67.01 12.09 66.99 12.05 66.97 12.01 C 67.1 12.06 67.14 12.28 67.22 12.36 C 67.31 12.48 67.46 12.55 67.55 12.64 C 67.53 12.64 67.51 12.64 67.5 12.63 C 67.53 12.69 67.56 12.71 67.6 12.76 C 67.62 12.76 67.64 12.76 67.66 12.77 C 67.64 12.75 67.62 12.72 67.6 12.7 C 67.61 12.7 67.61 12.7 67.62 12.7 C 67.65 12.72 67.68 12.74 67.7 12.76 C 67.71 12.77 67.71 12.78 67.71 12.79 C 67.69 12.8 67.66 12.8 67.64 12.81 C 67.69 12.87 67.68 12.81 67.75 12.85 C 67.91 12.93 68.15 13.18 68.25 13.33 C 68.32 13.53 68.39 13.73 68.48 13.94 C 68.57 14.11 68.78 14.28 68.86 14.47 C 68.89 14.47 68.86 14.47 68.9 14.46 C 68.9 14.47 68.87 14.53 68.9 14.6 C 68.94 14.66 69.02 14.74 69.12 14.76 C 69.09 14.84 69.09 14.81 69.09 14.92 C 69.19 15.06 69.28 15.19 69.33 15.37 C 69.35 15.39 69.36 15.39 69.37 15.41 C 69.38 15.41 69.39 15.41 69.39 15.41 C 69.38 15.37 69.37 15.34 69.36 15.3 C 69.37 15.3 69.37 15.3 69.37 15.3 C 69.4 15.38 69.44 15.45 69.47 15.52 C 69.48 15.53 69.48 15.53 69.5 15.53 C 69.48 15.5 69.48 15.46 69.47 15.43 C 69.5 15.46 69.53 15.49 69.55 15.53 C 69.56 15.53 69.56 15.53 69.57 15.53 M 42.95 4.57 C 42.87 4.53 42.78 4.51 42.66 4.5 C 42.64 4.51 42.62 4.52 42.6 4.53 C 42.63 4.61 42.84 4.68 42.94 4.7 C 42.94 4.7 42.96 4.7 42.96 4.7 C 42.97 4.64 42.96 4.61 42.95 4.57 M 49.81 4.97 C 49.84 5.02 49.8 4.99 49.85 5.01 C 49.86 5.01 49.86 5.01 49.86 5.01 C 49.87 5.01 49.88 5 49.88 4.99 C 49.86 4.99 49.83 4.98 49.81 4.97 M 50.54 5.64 C 50.55 5.65 50.56 5.66 50.57 5.68 C 50.58 5.68 50.59 5.68 50.59 5.68 C 50.59 5.68 50.59 5.66 50.59 5.66 C 50.57 5.66 50.56 5.64 50.54 5.64 M 50.08 5.88 C 50.05 5.89 50.02 5.89 49.99 5.91 C 49.97 6 49.97 5.94 49.95 5.99 C 50.14 5.98 50.32 5.95 50.49 5.94 C 50.35 5.92 50.22 5.9 50.08 5.88 M 50.98 6.16 C 50.98 6.2 50.97 6.18 51.01 6.22 C 51.01 6.21 51.03 6.2 51.04 6.18 C 51.04 6.18 51.04 6.18 51.04 6.17 C 51.03 6.17 51.01 6.16 50.98 6.16 M 48.08 6.62 C 48.07 6.63 48.07 6.64 48.07 6.64 C 48.38 6.85 48.6 7.01 49.01 7.14 C 49.02 7.13 49.03 7.13 49.04 7.13 C 49.04 7.11 49.04 7.1 49.04 7.09 C 48.82 6.89 48.45 6.64 48.08 6.62 M 51.58 6.84 C 51.58 6.85 51.58 6.87 51.57 6.88 C 51.62 6.86 51.59 6.89 51.61 6.84 C 51.6 6.84 51.6 6.84 51.58 6.84 M 63.38 9.55 C 63.38 9.53 63.36 9.49 63.36 9.47 C 63.29 9.46 63.22 9.45 63.16 9.45 C 63.19 9.39 63.26 9.3 63.24 9.21 C 63.21 9.08 62.96 8.8 62.81 8.98 C 62.79 8.97 62.78 8.97 62.77 8.97 C 62.68 8.78 62.55 8.58 62.33 8.45 C 62.24 8.4 62.16 8.37 62.07 8.33 C 61.86 8.11 61.74 7.95 61.39 7.94 C 61.44 7.91 61.47 7.89 61.51 7.87 C 61.49 7.85 61.47 7.83 61.44 7.82 C 61.49 7.7 61.43 7.61 61.45 7.5 C 61.32 7.39 61.1 7.41 60.93 7.45 C 60.93 7.37 60.95 7.4 60.88 7.37 C 60.9 7.3 60.93 7.27 60.99 7.24 C 60.97 7.2 60.96 7.18 60.95 7.14 C 60.81 7.11 60.67 7.18 60.53 7.13 C 60.5 7.17 60.51 7.18 60.53 7.22 C 60.51 7.28 60.52 7.29 60.57 7.34 C 60.56 7.35 60.54 7.35 60.53 7.35 C 60.49 7.35 60.51 7.34 60.48 7.39 C 60.51 7.43 60.53 7.47 60.57 7.52 C 60.57 7.52 60.57 7.53 60.57 7.53 C 60.5 7.48 60.44 7.45 60.38 7.4 C 60.36 7.45 60.37 7.43 60.33 7.48 C 60.4 7.56 60.55 7.61 60.62 7.61 C 60.64 7.63 60.64 7.65 60.65 7.67 C 60.63 7.68 60.61 7.69 60.58 7.7 C 60.62 7.78 60.64 7.78 60.62 7.86 C 60.67 7.85 60.71 7.85 60.76 7.84 C 60.77 7.82 60.78 7.8 60.78 7.77 C 60.78 7.77 60.78 7.74 60.78 7.74 C 60.78 7.74 60.79 7.74 60.79 7.74 C 60.82 7.89 60.9 8 60.94 8.16 C 60.95 8.16 60.97 8.16 61 8.16 C 61 8.15 61.01 8.14 61.01 8.13 C 61 8.11 60.99 8.09 60.97 8.07 C 61.01 8.09 61.04 8.1 61.06 8.12 C 61.07 8.12 61.08 8.12 61.08 8.12 C 61.06 8.08 61.05 8.03 61.04 7.99 C 61.07 8.01 61.11 8.04 61.15 8.07 C 61.18 8.13 61.18 8.19 61.15 8.27 C 61.19 8.3 61.24 8.34 61.28 8.38 C 61.28 8.38 61.29 8.38 61.29 8.38 C 61.29 8.36 61.27 8.34 61.26 8.32 C 61.26 8.32 61.26 8.31 61.26 8.31 C 61.3 8.32 61.34 8.34 61.39 8.36 C 61.39 8.36 61.39 8.3 61.39 8.3 C 61.49 8.34 61.52 8.32 61.58 8.26 C 61.69 8.38 61.64 8.57 61.87 8.53 C 61.87 8.65 61.9 8.69 61.94 8.76 C 61.83 8.84 61.72 8.78 61.6 8.76 C 61.62 8.85 61.65 8.83 61.71 8.88 C 61.69 8.91 61.67 8.93 61.65 8.95 C 61.65 8.96 61.66 8.97 61.67 8.97 C 61.7 8.96 61.74 8.95 61.78 8.93 C 61.81 8.98 61.86 9.03 61.89 9.08 C 61.87 9.17 61.8 9.21 61.71 9.21 C 61.7 9.23 61.68 9.25 61.67 9.26 C 61.71 9.3 61.76 9.34 61.8 9.38 C 61.96 9.3 62.09 9.4 62.25 9.45 C 62.3 9.43 62.33 9.41 62.37 9.4 C 62.35 9.45 62.35 9.44 62.35 9.49 C 62.26 9.49 62.17 9.49 62.07 9.49 C 62.08 9.62 61.99 9.77 61.89 9.86 C 61.89 9.88 61.89 9.88 61.89 9.89 C 61.96 9.9 61.96 9.88 62.04 9.93 C 62.08 9.88 62.06 9.83 62.16 9.8 C 62.23 9.78 62.31 9.82 62.38 9.84 C 62.39 9.8 62.37 9.71 62.41 9.68 C 62.41 9.68 62.86 9.72 62.87 9.72 C 62.88 9.72 62.9 9.72 62.92 9.72 C 62.9 9.7 62.89 9.68 62.88 9.66 C 63.1 9.67 63.2 9.66 63.37 9.58 C 63.38 9.57 63.38 9.56 63.38 9.55 M 52.42 8.48 C 52.36 8.46 52.34 8.52 52.23 8.54 C 52.22 8.52 52.21 8.5 52.21 8.49 C 52.25 8.43 52.3 8.39 52.37 8.37 C 52.37 8.35 52.38 8.34 52.38 8.34 C 52.38 8.33 52.37 8.33 52.37 8.32 C 52.19 8.34 52.15 8.38 52.06 8.45 C 52.04 8.43 52.04 8.41 52.02 8.39 C 51.99 8.39 52.02 8.41 51.99 8.38 C 52.08 8.29 52.29 8.24 52.33 8.2 C 52.34 8.19 52.34 8.19 52.36 8.17 C 52.3 8.11 52.15 8.13 52.04 8.11 C 52.08 8.03 52.04 8.09 52.03 7.98 C 52.11 7.97 52.14 7.95 52.19 7.9 C 52.1 7.82 51.95 7.74 51.82 7.76 C 51.77 7.7 51.81 7.67 51.73 7.63 C 51.69 7.65 51.73 7.66 51.68 7.64 C 51.68 7.68 51.67 7.67 51.69 7.7 C 51.67 7.7 51.64 7.69 51.61 7.69 C 51.53 7.7 51.56 7.7 51.57 7.63 C 51.5 7.63 51.53 7.62 51.51 7.66 C 51.46 7.63 51.44 7.61 51.37 7.61 C 51.38 7.6 51.39 7.59 51.4 7.57 C 51.35 7.55 51.38 7.56 51.33 7.57 C 51.32 7.56 51.31 7.56 51.31 7.55 C 51.31 7.53 51.31 7.51 51.31 7.48 C 51.36 7.48 51.41 7.48 51.47 7.48 C 51.47 7.48 51.47 7.46 51.47 7.46 C 51.38 7.41 51.29 7.41 51.2 7.34 C 51.12 7.37 51.04 7.4 50.95 7.43 C 50.99 7.29 51.24 7.17 51.38 7.14 C 51.39 7.11 51.41 7.09 51.44 7.07 C 51.39 7.03 51.39 7.03 51.32 7.02 C 51.32 7.02 51.32 7 51.32 7 C 51.39 7.01 51.44 7.03 51.52 7.03 C 51.53 7.02 51.53 7.01 51.55 7 C 51.55 6.99 51.55 6.98 51.56 6.96 C 51.49 6.94 51.41 6.93 51.33 6.9 C 51.25 6.91 51.16 6.91 51.09 6.91 C 51.03 6.92 50.88 7 50.8 7.04 C 50.65 7.12 50.59 7.31 50.39 7.35 C 50.37 7.41 50.37 7.39 50.39 7.45 C 50.39 7.45 50.39 7.46 50.39 7.46 C 50.33 7.45 50.35 7.46 50.32 7.43 C 50.23 7.45 50.19 7.52 50.14 7.57 C 50.17 7.6 50.2 7.63 50.23 7.65 C 50.11 7.63 49.97 7.69 49.83 7.71 C 49.84 7.76 49.84 7.81 49.86 7.85 C 50.09 7.91 51.03 8.1 51.11 8.19 C 51.09 8.19 51.07 8.18 51.05 8.18 C 51.14 8.22 51.24 8.25 51.32 8.29 C 51.35 8.26 51.35 8.27 51.35 8.22 C 51.42 8.24 51.48 8.27 51.54 8.3 C 51.42 8.34 51.3 8.38 51.11 8.35 C 51.1 8.38 51.09 8.4 51.09 8.41 C 51.38 8.53 51.62 8.39 51.88 8.31 C 51.89 8.34 51.92 8.37 51.93 8.39 C 51.93 8.51 51.86 8.54 51.79 8.59 C 51.81 8.64 51.8 8.63 51.85 8.66 C 51.92 8.64 51.97 8.62 52.04 8.6 C 52.01 8.65 52 8.67 52 8.76 C 52.08 8.78 52.13 8.8 52.21 8.82 C 52.32 8.76 52.34 8.65 52.43 8.6 C 52.43 8.55 52.43 8.52 52.42 8.48 M 60.29 7.18 C 60.27 7.17 60.25 7.17 60.22 7.16 C 60.19 7.2 60.15 7.24 60.11 7.26 C 60.16 7.31 60.18 7.33 60.18 7.37 C 60.2 7.38 60.22 7.39 60.23 7.4 C 60.26 7.37 60.29 7.34 60.33 7.32 C 60.31 7.27 60.3 7.22 60.29 7.18 M 51.45 7.14 C 51.45 7.14 51.45 7.16 51.45 7.16 C 51.45 7.16 51.47 7.15 51.47 7.14 C 51.47 7.14 51.45 7.14 51.45 7.14 M 60.23 7.43 C 60.21 7.42 60.19 7.41 60.17 7.4 C 60.16 7.41 60.13 7.42 60.11 7.43 C 60.17 7.48 60.2 7.52 60.23 7.59 C 60.24 7.59 60.26 7.6 60.27 7.6 C 60.26 7.55 60.24 7.49 60.23 7.43 M 51.44 7.19 C 51.45 7.2 51.46 7.22 51.47 7.23 C 51.49 7.23 51.49 7.22 51.5 7.22 C 51.5 7.22 51.5 7.21 51.5 7.21 C 51.48 7.2 51.46 7.2 51.44 7.19 M 63.73 7.65 C 63.73 7.66 63.75 7.67 63.76 7.68 C 63.76 7.68 63.77 7.68 63.77 7.68 C 63.74 7.64 63.78 7.67 63.73 7.65 M 60.48 7.6 C 60.5 7.62 60.51 7.63 60.52 7.65 C 60.53 7.65 60.53 7.63 60.53 7.63 C 60.52 7.62 60.5 7.61 60.48 7.6 M 60.23 7.62 C 60.23 7.63 60.23 7.64 60.23 7.65 C 60.24 7.64 60.26 7.64 60.27 7.63 C 60.27 7.63 60.27 7.62 60.27 7.62 C 60.26 7.62 60.24 7.62 60.23 7.62 M 60.51 7.72 C 60.51 7.73 60.51 7.73 60.5 7.74 C 60.5 7.74 60.5 7.75 60.5 7.75 C 60.51 7.76 60.51 7.76 60.51 7.76 C 60.52 7.76 60.52 7.76 60.53 7.76 C 60.53 7.75 60.54 7.74 60.54 7.72 C 60.53 7.72 60.52 7.72 60.51 7.72 M 60.46 7.76 C 60.46 7.76 60.46 7.8 60.46 7.8 C 60.47 7.8 60.48 7.8 60.48 7.8 C 60.47 7.76 60.48 7.79 60.46 7.76 M 50.05 7.52 C 50.02 7.52 50 7.52 49.96 7.52 C 49.96 7.52 49.95 7.52 49.94 7.52 C 49.93 7.54 49.93 7.55 49.93 7.57 C 49.99 7.58 50.06 7.59 50.11 7.59 C 50.1 7.57 50.07 7.54 50.05 7.52 M 51.89 7.67 C 51.89 7.68 51.88 7.7 51.88 7.72 C 51.91 7.72 51.95 7.72 51.99 7.72 C 51.97 7.66 51.97 7.67 51.89 7.67 M 60.8 7.88 C 60.76 7.93 60.75 7.95 60.68 7.97 C 60.71 8.06 60.73 8.03 60.79 8.07 C 60.82 8.03 60.84 7.93 60.8 7.88 M 60.7 7.89 C 60.69 7.9 60.69 7.9 60.68 7.91 C 60.68 7.91 60.68 7.92 60.68 7.92 C 60.69 7.93 60.7 7.93 60.71 7.93 C 60.71 7.93 60.72 7.93 60.72 7.92 C 60.71 7.91 60.7 7.9 60.7 7.89 M 48.03 7.76 C 47.97 7.73 47.99 7.76 47.98 7.69 C 47.92 7.63 47.95 7.65 47.97 7.56 C 47.96 7.56 47.94 7.56 47.93 7.55 C 47.88 7.57 47.83 7.59 47.77 7.61 C 47.77 7.62 47.76 7.63 47.76 7.63 C 47.91 7.77 48.04 7.85 48.25 7.93 C 48.3 7.96 48.27 7.93 48.28 7.97 C 48.31 8.01 48.33 8.02 48.39 8.04 C 48.52 8.02 48.5 7.95 48.69 7.96 C 48.69 7.95 48.7 7.95 48.7 7.95 C 48.7 7.95 48.7 7.93 48.7 7.93 C 48.61 7.89 48.03 7.76 48.03 7.76 M 61 7.98 C 61 7.98 60.97 7.98 60.97 7.98 C 60.97 8 60.97 8.02 60.97 8.04 C 60.99 8.03 61.01 8.03 61.03 8.02 C 61.02 8.01 61.01 8 61 7.98 M 61.08 8.62 C 61.08 8.61 61.07 8.6 61.07 8.59 C 61.15 8.56 61.15 8.52 61.21 8.49 C 61.21 8.49 61.21 8.43 61.21 8.43 C 61.11 8.33 61.03 8.33 60.94 8.21 C 60.84 8.15 60.75 8.17 60.67 8.24 C 60.68 8.21 60.68 8.22 60.7 8.18 C 60.66 8.16 60.62 8.14 60.57 8.13 C 60.53 8.17 60.46 8.2 60.37 8.21 C 60.35 8.3 60.36 8.3 60.31 8.35 C 60.36 8.41 60.41 8.39 60.48 8.38 C 60.45 8.45 60.42 8.43 60.42 8.49 C 60.29 8.49 60.17 8.5 60.04 8.5 C 60.05 8.58 60.06 8.52 60.09 8.58 C 60.08 8.58 60.07 8.59 60.06 8.6 C 60.11 8.65 60.16 8.64 60.24 8.64 C 60.19 8.69 60.18 8.7 60.14 8.74 C 60.25 8.89 60.34 8.8 60.51 8.85 C 60.41 8.91 60.44 8.91 60.44 9.01 C 60.38 9.07 60.38 9.05 60.44 9.09 C 60.4 9.15 60.41 9.12 60.42 9.19 C 60.39 9.19 60.35 9.18 60.31 9.18 C 60.3 9.21 60.29 9.23 60.28 9.26 C 60.33 9.25 60.39 9.23 60.44 9.23 C 60.41 9.25 60.38 9.27 60.34 9.29 C 60.51 9.7 61.1 9.17 61.36 9.18 C 61.34 9 61.26 8.71 61.08 8.62 M 52.08 7.99 C 52.07 8 52.07 8.02 52.06 8.03 C 52.08 8.02 52.09 8.02 52.1 8.02 C 52.1 8.01 52.08 8 52.08 7.99 M 64.73 8.32 C 64.74 8.34 64.75 8.37 64.76 8.39 C 64.79 8.4 64.82 8.41 64.86 8.42 C 64.82 8.36 64.79 8.35 64.73 8.32 M 46.64 8.02 C 46.62 8.04 46.61 8.05 46.6 8.07 C 46.6 8.08 46.61 8.08 46.62 8.08 C 46.66 8.06 46.66 8.07 46.68 8.02 C 46.66 8.02 46.65 8.02 46.64 8.02 M 47.67 8.07 C 47.67 8.09 47.67 8.11 47.66 8.13 C 47.67 8.14 47.69 8.15 47.7 8.15 C 47.78 8.15 47.87 8.13 47.95 8.13 C 47.86 8.11 47.76 8.09 47.67 8.07 M 61.44 8.44 C 61.43 8.47 61.41 8.49 61.41 8.52 C 61.41 8.53 61.41 8.54 61.43 8.56 C 61.45 8.55 61.47 8.55 61.5 8.54 C 61.5 8.53 61.51 8.52 61.51 8.51 C 61.49 8.49 61.47 8.46 61.44 8.44 M 45.75 8.04 C 45.74 8.08 45.74 8.07 45.76 8.1 C 45.77 8.09 45.78 8.09 45.79 8.07 C 45.78 8.06 45.76 8.05 45.75 8.04 M 49.18 8.18 C 49.17 8.18 49.16 8.18 49.15 8.18 C 49.14 8.19 49.14 8.2 49.14 8.21 C 49.18 8.2 49.2 8.22 49.18 8.18 M 45.83 8.09 C 45.83 8.09 45.83 8.11 45.83 8.11 C 45.84 8.11 45.85 8.09 45.86 8.09 C 45.85 8.09 45.84 8.09 45.83 8.09 M 49.14 8.22 C 49.12 8.22 49.09 8.22 49.06 8.22 C 49.03 8.23 49.01 8.25 48.98 8.26 C 49.03 8.27 49.1 8.27 49.15 8.27 C 49.15 8.27 49.15 8.26 49.15 8.26 C 49.14 8.24 49.14 8.23 49.14 8.22 M 50.93 8.3 C 50.94 8.32 50.95 8.34 50.96 8.35 C 50.97 8.34 50.98 8.34 50.98 8.32 C 50.97 8.32 50.95 8.31 50.93 8.3 M 51.83 8.35 C 51.81 8.36 51.79 8.38 51.78 8.39 C 51.77 8.41 51.76 8.42 51.76 8.43 C 51.78 8.43 51.79 8.43 51.8 8.43 C 51.82 8.42 51.86 8.41 51.88 8.39 C 51.88 8.39 51.88 8.35 51.88 8.35 C 51.86 8.35 51.85 8.35 51.83 8.35 M 46.81 8.21 C 46.83 8.22 46.81 8.22 46.83 8.21 C 46.82 8.21 46.81 8.21 46.81 8.21 M 50.93 8.37 C 50.92 8.38 50.92 8.39 50.92 8.39 C 50.93 8.4 50.94 8.41 50.96 8.41 C 50.97 8.41 50.98 8.4 50.98 8.39 C 50.97 8.39 50.95 8.38 50.93 8.37 M 50.98 8.41 C 50.98 8.41 50.98 8.44 50.98 8.44 C 50.99 8.43 51.01 8.43 51.01 8.41 C 51.01 8.41 50.99 8.41 50.98 8.41 M 64.98 8.78 C 65.01 8.8 65.04 8.81 65.07 8.83 C 65.07 8.83 65.07 8.82 65.07 8.82 C 65.04 8.79 65.04 8.8 64.98 8.78 M 64 8.89 C 63.99 8.89 63.99 8.9 63.99 8.91 C 64.02 8.9 64.01 8.91 64.02 8.89 C 64.02 8.89 64.01 8.89 64 8.89 M 63.84 8.96 C 63.84 8.97 63.84 8.98 63.83 8.99 C 63.84 8.99 63.84 8.99 63.84 9 C 63.85 8.99 63.86 8.98 63.87 8.97 C 63.87 8.97 63.87 8.96 63.87 8.96 C 63.86 8.96 63.85 8.96 63.84 8.96 M 63.82 9.05 C 63.82 9.05 63.82 9.09 63.82 9.09 C 63.83 9.09 63.84 9.09 63.85 9.09 C 63.83 9.05 63.85 9.08 63.82 9.05 M 44.97 8.62 C 44.97 8.63 44.97 8.64 44.97 8.65 C 44.97 8.64 44.99 8.63 44.99 8.62 C 44.99 8.62 44.97 8.62 44.97 8.62 M 44.45 8.67 C 44.45 8.69 44.45 8.71 44.44 8.72 C 44.46 8.69 44.47 8.71 44.45 8.67 M 44.7 8.79 C 44.68 8.8 44.66 8.81 44.63 8.82 C 44.63 8.82 44.63 8.84 44.63 8.84 C 44.68 8.85 44.72 8.86 44.77 8.86 C 44.77 8.86 44.77 8.85 44.77 8.84 C 44.74 8.8 44.75 8.81 44.7 8.79 M 43.93 8.8 C 43.92 8.81 43.91 8.81 43.9 8.82 C 43.9 8.82 43.9 8.82 43.9 8.83 C 43.92 8.82 43.95 8.81 43.98 8.8 M 44.29 8.81 C 44.32 8.82 44.29 8.82 44.32 8.81 C 44.31 8.81 44.3 8.81 44.29 8.81 M 44.12 8.82 C 44.13 8.83 44.14 8.84 44.15 8.85 C 44.15 8.85 44.16 8.85 44.16 8.85 C 44.14 8.82 44.16 8.84 44.12 8.82 M 44.88 8.89 C 44.88 8.89 44.88 8.91 44.87 8.91 C 44.89 8.92 44.91 8.93 44.93 8.94 C 44.93 8.94 44.95 8.94 44.95 8.94 C 44.95 8.93 44.96 8.93 44.97 8.91 C 44.93 8.89 44.93 8.89 44.88 8.89 M 29.35 9.85 C 29.3 10.01 29.24 10.12 29.22 10.25 C 29.22 10.25 29.22 10.25 29.23 10.25 C 29.29 10.15 29.44 10.03 29.35 9.85 M 29.13 10.37 C 29.17 10.34 29.15 10.35 29.15 10.32 C 29.15 10.34 29.13 10.35 29.13 10.37 M 41.83 10.59 C 41.83 10.6 41.83 10.61 41.82 10.62 C 41.82 10.62 41.86 10.62 41.86 10.62 C 41.86 10.61 41.85 10.6 41.83 10.59 M 28.89 11.48 C 28.87 11.55 28.86 11.61 28.84 11.68 C 28.85 11.69 28.85 11.7 28.86 11.71 C 28.86 11.71 28.87 11.7 28.87 11.7 C 28.89 11.64 28.91 11.57 28.93 11.5 C 28.91 11.49 28.9 11.49 28.89 11.48 M 66.87 11.87 C 66.89 11.89 66.9 11.9 66.91 11.92 C 66.91 11.92 66.91 11.89 66.91 11.89 C 66.9 11.88 66.89 11.87 66.87 11.87 M 34.15 11.61 C 34.14 11.63 34.13 11.65 34.13 11.66 C 34.15 11.64 34.17 11.64 34.15 11.61 M 35.45 11.59 C 35.41 11.63 35.37 11.63 35.34 11.7 C 35.43 11.71 35.5 11.7 35.58 11.7 C 35.58 11.7 35.58 11.69 35.58 11.68 C 35.54 11.65 35.5 11.62 35.45 11.59 M 33.78 11.78 C 33.77 11.79 33.75 11.81 33.74 11.82 C 33.77 11.81 33.78 11.8 33.8 11.79 C 33.8 11.79 33.78 11.79 33.78 11.78 M 67.54 12.76 C 67.54 12.76 67.54 12.8 67.54 12.8 C 67.55 12.8 67.56 12.8 67.57 12.8 C 67.55 12.76 67.57 12.78 67.54 12.76 M 66.45 12.7 C 66.46 12.73 66.48 12.76 66.49 12.8 C 66.46 12.82 66.44 12.83 66.41 12.85 C 66.41 13.02 66.54 13.26 66.65 13.32 C 66.67 13.33 66.67 13.34 66.69 13.35 C 66.69 13.35 66.69 13.35 66.7 13.35 C 66.69 13.15 66.6 12.78 66.45 12.7 M 66.66 12.77 C 66.65 12.78 66.64 12.78 66.63 12.78 C 66.63 12.78 66.63 12.82 66.63 12.82 C 66.65 12.82 66.68 12.83 66.7 12.83 C 66.69 12.78 66.69 12.8 66.66 12.77 M 28.21 13.59 C 28.2 13.61 28.2 13.61 28.19 13.62 C 28.21 13.64 28.22 13.65 28.24 13.67 C 28.25 13.67 28.25 13.67 28.25 13.67 C 28.25 13.6 28.25 13.61 28.21 13.59 M 67.11 14.31 C 67.07 13.99 66.93 13.65 66.77 13.43 C 66.76 13.42 66.74 13.41 66.72 13.41 C 66.71 13.45 66.7 13.49 66.69 13.53 C 66.63 13.57 66.65 13.57 66.59 13.54 C 66.6 13.7 66.76 13.85 66.82 13.99 C 66.86 14.09 66.83 14.22 66.85 14.29 C 66.91 14.32 66.92 14.37 67.04 14.39 C 67.03 14.35 67.02 14.31 67.02 14.28 C 67.05 14.28 67.06 14.28 67.1 14.31 C 67.11 14.31 67.11 14.31 67.11 14.31 M 68.97 13.74 C 68.97 13.74 68.97 13.79 68.97 13.79 C 68.98 13.8 69 13.81 69.01 13.83 C 69 13.76 69 13.77 68.97 13.74 M 69.09 13.85 C 69.1 13.87 69.11 13.89 69.12 13.91 C 69.13 13.91 69.13 13.91 69.13 13.91 C 69.11 13.86 69.13 13.88 69.09 13.85 M 69 13.99 C 69 14.02 69.02 14.04 69.02 14.06 C 69 14.04 68.99 14.03 68.97 14.02 C 68.99 14.04 69 14.08 69.02 14.11 C 69.04 14.09 69.05 14.08 69.06 14.06 C 69.04 14.04 69.02 14.02 69 13.99 M 69.15 14.06 C 69.15 14.06 69.15 14.1 69.15 14.1 C 69.17 14.11 69.18 14.13 69.2 14.15 C 69.2 14.15 69.2 14.09 69.2 14.09 C 69.18 14.08 69.17 14.08 69.15 14.06 M 69.28 14.49 C 69.28 14.49 69.28 14.53 69.28 14.53 C 69.3 14.54 69.32 14.55 69.33 14.56 C 69.32 14.54 69.3 14.52 69.28 14.49 M 62.51 14.27 C 62.51 14.3 62.51 14.32 62.53 14.35 C 62.53 14.32 62.54 14.3 62.54 14.27 C 62.53 14.27 62.53 14.27 62.51 14.27 M 68.95 14.69 C 68.95 14.72 68.95 14.76 68.95 14.8 C 68.96 14.81 68.97 14.82 68.98 14.84 C 69 14.85 69.01 14.86 69.02 14.86 C 69.03 14.86 69.03 14.84 69.04 14.84 C 69 14.78 68.98 14.73 68.95 14.69 M 69.2 14.76 C 69.18 14.76 69.16 14.75 69.15 14.74 C 69.19 14.78 69.22 14.82 69.26 14.87 C 69.27 14.86 69.28 14.86 69.3 14.84 C 69.26 14.82 69.23 14.79 69.2 14.76 M 69.04 14.92 C 69.04 14.94 69.04 14.96 69.05 14.97 C 69.07 14.99 69.09 15.01 69.11 15.02 C 69.11 15.02 69.11 14.97 69.11 14.97 C 69.09 14.95 69.06 14.93 69.04 14.92 M 31.5 14.94 C 31.5 14.98 31.5 15.01 31.5 15.06 C 31.52 15.04 31.53 15.04 31.55 15.04 C 31.55 15.04 31.55 15.03 31.55 15.03 C 31.54 14.99 31.53 14.97 31.5 14.94 M 69.55 15.57 C 69.57 15.6 69.58 15.62 69.59 15.66 C 69.6 15.64 69.61 15.64 69.61 15.63 C 69.59 15.61 69.57 15.59 69.55 15.57 M 49.54 39.21 C 49.53 39.23 49.53 39.25 49.52 39.26 C 49.54 39.25 49.57 39.23 49.59 39.21 M 49.09 39.23 C 49.07 39.24 49.06 39.25 49.05 39.26 C 49.05 39.27 49.07 39.28 49.07 39.28 C 49.07 39.28 49.14 39.28 49.14 39.28 C 49.14 39.28 49.14 39.27 49.14 39.27 C 49.13 39.26 49.11 39.25 49.09 39.23 M 49.2 39.25 C 49.2 39.25 49.2 39.26 49.2 39.27 C 49.21 39.26 49.22 39.26 49.23 39.25 C 49.23 39.25 49.2 39.25 49.2 39.25 Z M 46.99 40.59 C 46.98 40.61 46.98 40.62 46.97 40.63 C 47 40.61 46.98 40.63 47 40.59 C 47 40.59 46.99 40.59 46.99 40.59 Z M 46.96 40.66 C 46.95 40.68 46.95 40.69 46.94 40.7 C 46.95 40.7 46.97 40.69 46.97 40.68 C 46.97 40.67 46.97 40.67 46.96 40.66 M 45.96 41.57 C 45.96 41.53 45.96 41.48 45.96 41.44 C 45.89 41.44 45.83 41.46 45.76 41.47 C 45.69 41.63 45.52 41.72 45.37 41.82 C 45.37 41.82 45.37 41.83 45.37 41.83 C 45.4 41.84 45.42 41.85 45.45 41.87 C 45.57 41.85 45.67 41.8 45.75 41.74 C 45.75 41.72 45.75 41.69 45.75 41.67 C 45.83 41.65 45.9 41.61 45.96 41.57 M 38.33 41.98 C 38.36 42 38.33 42 38.36 41.98 C 38.36 41.98 38.33 41.98 38.33 41.98 Z M 38.28 42.4 C 38.27 42.41 38.27 42.42 38.26 42.43 C 38.27 42.43 38.28 42.44 38.29 42.44 C 38.3 42.44 38.3 42.43 38.3 42.43 C 38.3 42.42 38.28 42.41 38.28 42.4 M 41.81 43.39 C 41.83 43.46 41.82 43.47 41.89 43.5 C 41.89 43.5 41.89 43.49 41.89 43.49 C 41.87 43.43 41.88 43.41 41.81 43.39 M 38.76 43.74 C 38.78 43.78 38.76 43.75 38.8 43.77 C 38.8 43.77 38.81 43.76 38.81 43.75 C 38.81 43.75 38.81 43.74 38.81 43.74 C 38.81 43.74 38.76 43.74 38.76 43.74 Z M 38.43 44.04 C 38.43 44.05 38.45 44.06 38.46 44.08 C 38.46 44.08 38.51 44.08 38.51 44.08 C 38.51 44.08 38.51 44.06 38.51 44.06 C 38.48 44.04 38.48 44.04 38.43 44.04 M 38.53 44.34 C 38.53 44.34 38.53 44.38 38.53 44.38 C 38.53 44.38 38.57 44.38 38.57 44.38 C 38.56 44.36 38.54 44.35 38.53 44.34 M 38.67 44.53 C 38.67 44.54 38.67 44.55 38.66 44.56 C 38.66 44.56 38.69 44.56 38.69 44.56 C 38.68 44.55 38.68 44.54 38.67 44.53 M 39.92 46.65 C 39.92 46.66 39.92 46.66 39.91 46.66 C 39.92 46.68 39.93 46.68 39.94 46.69 C 39.95 46.69 39.97 46.68 39.98 46.68 C 39.97 46.67 39.95 46.66 39.92 46.65 M 40.18 46.77 C 40.17 46.77 40.15 46.77 40.14 46.76 C 40.11 46.78 40.08 46.8 40.05 46.81 C 40.14 46.83 40.18 46.85 40.21 46.77 M 40.5 46.77 C 40.49 46.77 40.46 46.77 40.44 46.76 C 40.43 46.77 40.41 46.77 40.39 46.77 C 40.41 46.78 40.41 46.78 40.43 46.79 C 40.44 46.8 40.45 46.81 40.47 46.83 C 40.49 46.82 40.5 46.81 40.52 46.8 C 40.51 46.79 40.51 46.78 40.5 46.77 M 40.63 46.99 C 40.63 46.99 40.63 46.98 40.63 46.98 C 40.52 46.97 40.47 46.97 40.4 46.93 C 40.39 46.83 40.4 46.8 40.3 46.77 C 40.32 46.87 40.35 46.99 40.34 47.05 C 40.36 47.05 40.38 47.06 40.39 47.06 C 40.4 47.03 40.41 47 40.43 46.97 C 40.43 46.97 40.45 46.97 40.45 46.98 C 40.48 47.05 40.52 47.11 40.58 47.14 C 40.55 47.11 40.53 47.07 40.5 47.03 C 40.5 47.03 40.5 47.02 40.5 47.02 C 40.55 47.01 40.6 47 40.63 46.99 M 40.41 47.2 C 40.42 47.21 40.42 47.22 40.43 47.23 C 40.43 47.22 40.43 47.21 40.44 47.2 C 40.44 47.2 40.41 47.2 40.41 47.2 Z M 41.29 47.49 C 41.28 47.55 41.27 47.51 41.33 47.53 C 41.31 47.52 41.3 47.51 41.29 47.49 M 41.69 47.51 C 41.72 47.55 41.79 47.55 41.86 47.57 C 41.87 47.55 41.87 47.55 41.87 47.53 C 41.81 47.53 41.75 47.51 41.69 47.51 M 47.21 -0.01 C 36.74 -0.01 27.76 6.37 23.91 15.45 C 27.46 9.1 34.98 1.48 47.19 1.49 C 58.22 1.5 66.46 8.16 70.51 15.47 C 66.66 6.37 57.67 -0.01 47.21 -0.01 M 71.34 33.1 C 68.07 43.17 58.84 51.01 47.15 51.01 C 34.75 51.01 26.43 43.28 23.07 33.32 C 26.56 42.6 36.03 49.25 47.18 49.25 C 58.39 49.25 67.93 42.49 71.34 33.1 M 3.91 32.25 C 1.39 32.25 0.05 30.63 0.03 27.55 C 0.03 27.55 0 20.49 0 20.49 C 0 20.41 0.06 20.34 0.14 20.33 C 0.14 20.33 2.33 20.11 2.33 20.11 C 2.38 20.11 2.42 20.13 2.45 20.16 C 2.48 20.19 2.49 20.22 2.49 20.26 C 2.49 20.26 2.53 27.26 2.53 27.26 C 2.54 28.79 3.12 29.57 4.27 29.57 C 4.35 29.57 4.45 29.57 4.54 29.56 C 5.88 29.43 6.57 28.51 6.55 26.84 C 6.55 26.84 6.52 19.85 6.52 19.85 C 6.52 19.77 6.58 19.7 6.66 19.69 C 6.66 19.69 8.87 19.48 8.87 19.48 C 8.91 19.47 8.95 19.49 8.98 19.52 C 9.01 19.55 9.03 19.59 9.03 19.63 C 9.03 19.63 9.06 26.7 9.06 26.7 C 9.07 28.6 8.5 31.84 4.56 32.22 C 4.33 32.24 4.12 32.25 3.91 32.25 M 11.42 31.24 C 11.38 31.24 11.35 31.23 11.32 31.2 C 11.29 31.18 11.27 31.14 11.27 31.09 C 11.27 31.09 11.21 19.43 11.21 19.43 C 11.21 19.34 11.28 19.28 11.36 19.27 C 11.36 19.27 13.7 19.11 13.7 19.11 C 13.75 19.11 13.81 19.13 13.84 19.17 C 13.84 19.17 18.81 25.75 18.81 25.75 C 18.81 25.75 18.77 18.9 18.77 18.9 C 18.77 18.82 18.83 18.76 18.92 18.75 C 18.92 18.75 20.81 18.61 20.81 18.61 C 20.85 18.61 20.89 18.63 20.92 18.65 C 20.95 18.68 20.97 18.72 20.97 18.76 C 20.97 18.76 21.03 30.43 21.03 30.43 C 21.03 30.52 20.96 30.58 20.88 30.58 C 20.88 30.58 18.94 30.72 18.94 30.72 C 18.89 30.72 18.84 30.7 18.81 30.66 C 18.81 30.66 13.44 23.52 13.44 23.52 C 13.44 23.52 13.48 30.96 13.48 30.96 C 13.48 31.03 13.42 31.1 13.33 31.11 C 13.33 31.11 11.44 31.24 11.44 31.24 C 11.44 31.24 11.44 31.24 11.42 31.24 M 23.81 30.44 C 23.76 30.44 23.73 30.43 23.7 30.4 C 23.67 30.37 23.65 30.33 23.65 30.29 C 23.65 30.29 23.59 18.66 23.59 18.66 C 23.59 18.58 23.65 18.51 23.73 18.51 C 23.73 18.51 26.26 18.38 26.26 18.38 C 26.3 18.38 26.34 18.39 26.37 18.42 C 26.4 18.44 26.42 18.49 26.42 18.53 C 26.42 18.53 26.47 30.16 26.47 30.16 C 26.47 30.25 26.41 30.31 26.33 30.31 C 26.33 30.31 23.82 30.44 23.82 30.44 C 23.82 30.44 23.81 30.44 23.81 30.44 M 33.1 30.05 C 33.05 30.05 32.99 30.01 32.97 29.95 C 32.97 29.95 28.03 18.47 28.03 18.47 C 28.01 18.42 28.01 18.37 28.04 18.33 C 28.07 18.29 28.11 18.26 28.16 18.26 C 28.16 18.26 31.05 18.17 31.05 18.17 C 31.12 18.17 31.17 18.2 31.19 18.26 C 31.19 18.26 34.41 25.76 34.41 25.76 C 34.41 25.76 37.73 18.06 37.73 18.06 C 37.75 18 37.8 17.97 37.86 17.97 C 37.86 17.97 40.13 17.9 40.13 17.9 C 40.19 17.9 40.24 17.92 40.26 17.97 C 40.29 18.01 40.3 18.07 40.28 18.11 C 40.28 18.11 35.21 29.9 35.21 29.9 C 35.19 29.95 35.14 29.98 35.08 29.98 C 35.08 29.98 33.11 30.05 33.11 30.05 C 33.11 30.05 33.1 30.05 33.1 30.05 Z M 42.05 29.83 C 41.97 29.83 41.9 29.76 41.9 29.68 C 41.9 29.68 41.83 18.05 41.83 18.05 C 41.83 18.01 41.85 17.97 41.88 17.94 C 41.9 17.9 41.94 17.89 41.98 17.89 C 41.98 17.89 51.27 17.88 51.27 17.88 C 51.35 17.88 51.42 17.95 51.42 18.03 C 51.42 18.03 51.43 20.3 51.43 20.3 C 51.44 20.34 51.41 20.38 51.38 20.41 C 51.36 20.43 51.32 20.45 51.28 20.45 C 51.28 20.45 44.8 20.45 44.8 20.45 C 44.8 20.45 44.81 22.47 44.81 22.47 C 44.81 22.47 49.16 22.47 49.16 22.47 C 49.25 22.47 49.32 22.53 49.32 22.61 C 49.32 22.61 49.32 24.9 49.32 24.9 C 49.33 24.94 49.31 24.98 49.28 25.01 C 49.25 25.04 49.21 25.05 49.18 25.05 C 49.18 25.05 44.83 25.05 44.83 25.05 C 44.83 25.05 44.84 27.24 44.84 27.24 C 44.84 27.24 51.38 27.23 51.38 27.23 C 51.47 27.23 51.53 27.3 51.53 27.38 C 51.53 27.38 51.55 29.66 51.55 29.66 C 51.55 29.71 51.53 29.75 51.5 29.77 C 51.47 29.8 51.44 29.81 51.39 29.81 C 51.39 29.81 42.05 29.83 42.05 29.83 Z M 64.43 30.18 C 64.43 30.18 64.42 30.18 64.42 30.18 C 64.42 30.18 61.41 30.09 61.41 30.09 C 61.36 30.09 61.32 30.06 61.29 30.01 C 61.29 30.01 58.75 25.62 58.75 25.62 C 58.75 25.62 57.1 25.57 57.1 25.57 C 57.1 25.57 57.12 29.81 57.12 29.81 C 57.12 29.85 57.1 29.89 57.08 29.91 C 57.05 29.94 57 29.95 56.97 29.95 C 56.97 29.95 54.43 29.88 54.43 29.88 C 54.35 29.88 54.29 29.81 54.29 29.73 C 54.29 29.73 54.23 18.06 54.23 18.06 C 54.23 18.02 54.25 17.98 54.28 17.95 C 54.3 17.92 54.34 17.9 54.38 17.91 C 54.38 17.91 60.76 18.1 60.76 18.1 C 62.88 18.16 64.1 19.52 64.11 21.81 C 64.12 24.03 62.94 24.95 61.87 25.34 C 61.87 25.34 64.56 29.95 64.56 29.95 C 64.58 30 64.58 30.06 64.56 30.11 C 64.53 30.15 64.48 30.18 64.43 30.18 M 57.08 23.01 C 57.08 23.01 59.13 23.07 59.13 23.07 C 59.23 23.07 59.32 23.08 59.4 23.08 C 60.16 23.08 60.61 22.97 60.84 22.72 C 61.04 22.53 61.12 22.23 61.12 21.73 C 61.12 21.18 61.01 20.69 59.76 20.65 C 59.76 20.65 57.06 20.56 57.06 20.56 C 57.06 20.56 57.08 23.01 57.08 23.01 Z M 71.02 30.86 C 70.86 30.86 70.7 30.85 70.53 30.85 C 68.74 30.75 66.86 29.63 66.33 29.28 C 66.28 29.25 66.26 29.2 66.26 29.15 C 66.26 29.15 66.25 26.46 66.25 26.46 C 66.25 26.41 66.28 26.36 66.33 26.33 C 66.37 26.3 66.43 26.31 66.48 26.34 C 68.11 27.43 69.66 28.13 70.54 28.18 C 71.37 28.23 71.92 28.1 72.19 27.82 C 72.33 27.69 72.4 27.51 72.39 27.29 C 72.39 27.03 72.13 26.77 71.55 26.48 C 71.22 26.32 70.81 26.15 70.38 25.97 C 68.57 25.22 66.09 24.2 66.08 21.45 C 66.07 20.53 66.36 19.77 66.93 19.18 C 67.68 18.44 68.86 18.07 70.19 18.13 C 71.76 18.22 73.63 19.02 74.5 19.55 C 74.55 19.57 74.57 19.62 74.57 19.68 C 74.57 19.68 74.59 22.29 74.59 22.29 C 74.59 22.34 74.55 22.39 74.51 22.42 C 74.46 22.44 74.4 22.44 74.35 22.41 C 73.82 22.06 71.93 20.89 70.19 20.8 C 69.57 20.77 69.27 20.94 69.13 21.07 C 69 21.2 68.98 21.33 68.98 21.4 C 68.99 21.69 69.26 21.97 69.83 22.28 C 70.18 22.47 70.62 22.65 71.08 22.84 C 72.86 23.6 75.31 24.63 75.32 27.1 C 75.32 28.21 75.01 29.1 74.37 29.74 C 73.63 30.48 72.51 30.86 71.02 30.86 M 86.88 31.59 C 86.87 31.59 86.87 31.59 86.86 31.59 C 86.86 31.59 84.36 31.41 84.36 31.41 C 84.31 31.41 84.25 31.37 84.23 31.31 C 84.23 31.31 83.39 28.96 83.39 28.96 C 83.39 28.96 79.33 28.67 79.33 28.67 C 79.33 28.67 78.46 30.87 78.46 30.87 C 78.44 30.93 78.38 30.98 78.32 30.96 C 78.32 30.96 76.22 30.81 76.22 30.81 C 76.17 30.81 76.13 30.78 76.1 30.74 C 76.07 30.7 76.07 30.65 76.09 30.61 C 76.09 30.61 80.58 19.17 80.58 19.17 C 80.61 19.11 80.67 19.07 80.73 19.08 C 80.73 19.08 82.49 19.2 82.49 19.2 C 82.54 19.2 82.59 19.25 82.62 19.31 C 82.62 19.31 87.02 31.39 87.02 31.39 C 87.04 31.45 87.03 31.5 87 31.54 C 86.97 31.57 86.92 31.59 86.88 31.59 M 80.32 26.16 C 80.32 26.16 82.42 26.32 82.42 26.32 C 82.42 26.32 81.38 23.46 81.38 23.46 C 81.38 23.46 80.32 26.16 80.32 26.16 Z M 95.85 32.43 C 95.85 32.43 95.83 32.43 95.83 32.43 C 95.83 32.43 88.63 31.76 88.63 31.76 C 88.55 31.75 88.49 31.69 88.49 31.61 C 88.49 31.61 88.42 19.8 88.42 19.8 C 88.42 19.76 88.44 19.72 88.48 19.69 C 88.5 19.67 88.54 19.65 88.59 19.65 C 88.59 19.65 90.76 19.85 90.76 19.85 C 90.85 19.86 90.9 19.93 90.9 20 C 90.9 20 90.94 29.36 90.94 29.36 C 90.94 29.36 95.85 29.81 95.85 29.81 C 95.93 29.81 95.99 29.89 95.99 29.96 C 95.99 29.96 96 32.28 96 32.28 C 96 32.32 95.98 32.36 95.95 32.39 C 95.92 32.42 95.89 32.43 95.85 32.43" />
</svg>