<?xml version="1.0" encoding="UTF-8"?>
<svg width="120px" height="120px" viewBox="0 0 120 120" version="1.1" xmlns="http://www.w3.org/2000/svg" xmlns:xlink="http://www.w3.org/1999/xlink">
    <!-- Generator: Sketch 41.2 (35397) - http://www.bohemiancoding.com/sketch -->
    <title>a_team</title>
    <desc>Created with Sketch.</desc>
    <defs></defs>
    <g id="LP_Icons" stroke="none" stroke-width="1" fill="none" fill-rule="evenodd">
        <g id="a_team" fill="#006EFA">
            <path d="M53.8331672,76.564643 C52.9182892,75.8476774 52.7577188,74.525772 53.4746844,73.6099605 C54.1907164,72.6960161 55.5116882,72.5354456 56.4265662,73.2505441 L60.3894816,76.3545945 L64.008851,72.9256691 C66.0355858,71.0081595 68.9183851,74.0720672 66.9037864,75.9802414 C62.6085275,80.0495813 61.1643273,82.3050357 59.2244125,80.7852179 L53.8331672,76.564643 Z M30.2909291,65.7382755 C32.1766981,63.9215892 34.8699868,59.5815201 34.8699868,54.7616067 C34.8699868,48.5647086 32.21404,42.2800569 25.9620625,42.3145982 C15.8601291,42.4443615 14.409394,57.4203542 21.1449498,65.8680389 C22.3828358,67.4270656 22.597552,71.8931639 19.5056378,73.4167159 C13.8464639,76.1977583 12.447074,76.8745813 8.93319567,78.7500812 C5.6760433,80.4874158 5.04683129,84.3215014 4.95347639,86.4014486 L27.2727653,86.4014486 C28.56293,86.4014486 29.6103719,87.447957 29.6103719,88.7390552 C29.6103719,90.0301534 28.56293,91.0766618 27.2727653,91.0766618 L2.33673862,91.0766618 C0.225984384,91.0766618 -0.796251744,88.4944654 0.732901477,87.0455974 C0.741303418,76.5497062 6.86631824,74.9552046 17.6478754,69.6405103 C17.7113567,69.5742283 17.9288736,69.1186564 17.6366728,68.2131139 C8.99107571,57.0077255 12.113797,38.2854008 25.9069831,38.1061594 C33.7403926,37.9679942 39.0765585,44.9079973 39.0765585,54.7616067 C39.0765585,60.5076006 36.0723979,66.0118054 33.2810865,68.6957587 C33.1382535,68.8525949 33.0495663,69.111188 33.099978,69.3697811 C33.1625258,69.68252 33.4164511,69.9607176 33.7982726,70.1343577 C34.8559836,70.6160689 35.3236917,71.8632904 34.8429139,72.9210014 C33.6246325,75.6040211 29.6178403,73.4596591 28.972758,70.1838358 C28.6572184,68.5846664 29.1370626,66.9640253 30.2909291,65.7382755 Z M117.663645,91.0766618 L95.8447382,91.0766618 C94.5545735,91.0766618 93.5071315,90.0301534 93.5071315,88.7390552 C93.5071315,87.447957 94.5545735,86.4014486 95.8447382,86.4014486 L114.906875,86.4014486 C114.804184,84.3149666 114.161903,80.4706119 110.934624,78.7500812 C107.326457,76.8251032 105.876655,76.1277421 100.364982,73.4176494 C97.2693339,71.8922304 97.4859173,67.4270656 98.7228696,65.8680389 C105.476163,57.3988826 103.983418,42.4443615 93.9057569,42.3145982 C84.1361669,42.2585853 82.0870269,58.5247426 89.50314,65.6635916 C94.1372771,70.5675244 86.806117,76.8335051 85.0267726,72.9210014 C84.5459949,71.8642239 85.0118358,70.6160689 86.0695468,70.1352912 C86.4532355,69.9607176 86.7071608,69.6815864 86.7678415,69.3697811 C86.8201202,69.111188 86.7314331,68.8525949 86.5120491,68.6210748 C83.7954215,66.0108718 80.793128,60.5048 80.793128,54.7616067 C80.793128,45.941436 85.3301761,38.0893556 93.7899969,38.0893556 C107.840842,38.0893556 110.859006,57.0282636 102.231147,68.2084461 C101.938946,69.1139886 102.161131,69.5751618 102.272223,69.6703838 C108.154515,72.5009043 111.358455,74.2046312 112.916548,75.0373569 C118.450627,77.9883052 119.116247,84.2365485 119.133984,86.9354386 C120.84518,88.3329614 119.845349,91.0766618 117.663645,91.0766618 Z M40.4087329,76.7961632 C43.8628641,74.859049 46.262085,73.6146282 52.1695829,70.9250737 C55.8617691,69.2400178 56.9633569,64.7627169 54.067488,61.6950749 C46.729793,54.6355776 47.301125,41.3558434 52.8622762,35.867509 C54.6826967,34.0713608 56.8952078,33.1751537 59.5922308,33.2106286 C71.7638423,33.3665313 73.9866225,51.4279033 65.6341598,61.8995222 C64.389739,63.4585489 63.9285658,68.5454573 67.4499125,70.2762571 C74.397384,73.6893122 76.0693702,74.5108353 80.0472224,76.6327921 C84.2304554,78.8639741 84.9231487,83.9266102 85.0015668,86.4014486 L36.2208322,86.4014486 C36.2198987,86.3603724 36.2264335,86.3202298 36.2236329,86.2791536 C36.217098,86.210071 35.7269848,79.4194358 40.4087329,76.7961632 Z M89.2184075,86.7244565 C89.1978695,83.5858649 88.4286251,76.3331229 82.0272798,72.9200678 C78.0438263,70.7943768 76.3559698,69.9653853 70.0769193,66.8790724 L69.3132763,66.5037857 C69.1396362,66.4010953 68.6355197,65.7289401 69.1377691,64.2520656 C79.3358581,51.1123638 75.6828809,29.2094377 59.6473102,29.0021898 C43.5781317,28.7323942 39.4369084,53.4621065 51.0754635,64.6534916 C51.875515,65.5030212 51.504896,66.6027419 50.4247799,67.0956558 C44.3791167,69.8477581 41.9136139,71.1276538 38.3502574,73.1254486 C32.290591,76.5216998 31.5932299,84.6995888 32.0805425,86.8990302 C30.3161349,88.267613 31.288893,91.0766618 33.5060718,91.0766618 L88.0524049,91.0766618 C89.3425695,91.0766618 90.3900115,90.0301534 90.3900115,88.7390552 C90.3900115,87.8745888 89.9157686,87.1286832 89.2184075,86.7244565 L89.2184075,86.7244565 Z" id="A-team"></path>
        </g>
    </g>
</svg>