<?xml version="1.0" encoding="UTF-8"?>
<svg width="120px" height="120px" viewBox="0 0 120 120" version="1.1" xmlns="http://www.w3.org/2000/svg" xmlns:xlink="http://www.w3.org/1999/xlink">
    <!-- Generator: Sketch 41.2 (35397) - http://www.bohemiancoding.com/sketch -->
    <title>driven_employees</title>
    <desc>Created with Sketch.</desc>
    <defs></defs>
    <g id="LP_Icons" stroke="none" stroke-width="1" fill="none" fill-rule="evenodd">
        <g id="driven_employees" fill="#006EFA">
            <g id="Group" transform="translate(20.000000, 21.000000)">
                <path d="M63.5257143,15.9423074 C64.8440816,15.9423074 65.917551,17.0156379 65.917551,18.3356547 C65.917551,19.6548547 64.8440816,20.7281853 63.5257143,20.7281853 C62.2073469,20.7281853 61.1355102,19.6548547 61.1355102,18.3356547 C61.1355102,17.0156379 62.2073469,15.9423074 63.5257143,15.9423074 Z M43.2653061,45.8673179 L47.3469388,45.8673179 L47.3469388,24.3092211 C47.3469388,22.2679326 49.515102,19.7283705 51.7681633,19.7283705 L57.3289796,19.7283705 C58.1020408,22.9957389 60.5722449,24.6269726 63.5257143,24.6269726 C67.0946939,24.6269726 69.9991837,21.8137684 69.9991837,18.2425347 C69.9991837,14.6704842 67.0946939,11.6261137 63.5257143,11.6261137 C60.7763265,11.6261137 58.437551,13.1936337 57.5012245,15.64416 L51.7681633,15.64416 C47.5346939,15.64416 43.2653061,19.6581221 43.2653061,24.3092211 L43.2653061,45.8673179 L43.2653061,45.8673179 Z" id="Fill-227"></path>
                <path d="M63.6734694,60.2608926 L63.6734694,37.6988968 L59.5918367,37.6988968 L59.5918367,58.1199495 L18.7755102,58.1199495 L18.7755102,37.6988968 L14.6938776,37.6988968 L14.6938776,60.2608926 C14.6938776,61.3889516 16.56,62.20416 17.6873469,62.20416 L62.5853061,62.20416 C63.7126531,62.20416 63.6734694,61.3889516 63.6734694,60.2608926" id="Fill-228"></path>
                <path d="M75.9142857,63.7210358 C75.3232653,63.2946442 71.8367347,61.8071747 71.0204082,61.0360758 L71.0204082,30.31056 C71.0204082,29.1825011 70.515102,27.8967916 69.3877551,27.8967916 L54.6938776,27.8967916 L54.6938776,31.9810021 L66.9387755,31.9810021 L66.9387755,63.4294232 L68.9534694,64.3655242 C71.0138776,65.5376926 73.3640816,66.7727579 73.7289796,67.0325137 C75.0440816,67.9825011 75.5102041,68.5493895 75.5102041,70.3627789 C75.5102041,71.8216589 74.3306122,72.8231074 72.882449,72.8231074 L7.5044898,72.8231074 C6.0555102,72.8231074 4.87591837,71.8437137 4.87591837,70.3848337 C4.87591837,68.6661979 5.60244898,67.7497011 7.30530612,66.8323874 C8.65714286,66.1037642 11.4179592,64.1253726 11.7289796,63.8974737 L11.6212245,63.8378442 L12.244898,63.8378442 L12.244898,31.9810021 L24.4897959,31.9810021 L24.4897959,27.8967916 L10.8840816,27.8967916 C9.75673469,27.8967916 8.16326531,29.1825011 8.16326531,30.31056 L8.16326531,60.8596379 C8.16326531,61.5694737 5.81877551,62.6754779 5.03102041,63.1002358 C1.99428571,64.7347368 0.794285714,67.1166484 0.794285714,70.3627789 C0.794285714,74.0736926 3.80489796,76.9073179 7.5044898,76.9073179 L72.882449,76.9073179 C76.5820408,76.9073179 79.5918367,74.0736926 79.5918367,70.3627789 C79.5918367,66.6502316 77.7191837,65.0255326 75.9142857,63.7210358" id="Fill-229"></path>
                <path d="M39.5591837,4.44362105 C40.8783673,4.44362105 41.9510204,5.51695158 41.9510204,6.83696842 C41.9510204,8.15616842 40.8783673,9.22949895 39.5591837,9.22949895 C38.2408163,9.22949895 37.1681633,8.15616842 37.1681633,6.83696842 C37.1681633,5.51695158 38.2408163,4.44362105 39.5591837,4.44362105 Z M36.7346939,12.9199916 L36.7346939,52.4020547 L40.8163265,52.4020547 L40.8163265,12.9845221 C43.5371429,12.1546105 45.6922449,9.72858947 45.6922449,6.83696842 C45.6922449,3.26491789 42.9583673,0.359410526 39.3893878,0.359410526 C35.8195918,0.359410526 32.6612245,3.26491789 32.6612245,6.83696842 C32.6612245,9.65262316 35.3738776,12.0296337 36.7346939,12.9199916 L36.7346939,12.9199916 Z" id="Fill-230"></path>
                <path d="M16.2253061,15.8483705 C17.5444898,15.8483705 18.6171429,16.9217011 18.6171429,18.2409011 C18.6171429,19.5609179 17.5444898,20.6342484 16.2253061,20.6342484 C14.9069388,20.6342484 13.8342857,19.5609179 13.8342857,18.2409011 C13.8342857,16.9217011 14.9069388,15.8483705 16.2253061,15.8483705 Z M16.2253061,24.5322189 C19.1453061,24.5322189 21.5902041,22.9957389 22.3942857,19.7283705 L27.9844898,19.7283705 C30.2710204,19.7283705 30.2040816,22.6779874 30.2040816,24.2144674 L30.2040816,45.8673179 L34.2857143,45.8673179 L34.2857143,24.2144674 C34.2857143,19.2333642 32.0604082,15.64416 27.9844898,15.64416 L22.2808163,15.64416 C21.3689796,13.1936337 19.0106122,11.57792 16.2253061,11.57792 C12.6563265,11.57792 9.75265306,14.4834274 9.75265306,18.0554779 C9.75265306,21.6267116 12.6563265,24.5322189 16.2253061,24.5322189 L16.2253061,24.5322189 Z" id="Fill-231"></path>
                <polygon id="Fill-232" points="34.2857143 70.3725811 46.5306122 70.3725811 46.5306122 66.2883705 34.2857143 66.2883705"></polygon>
            </g>
        </g>
    </g>
</svg>