<svg xmlns="http://www.w3.org/2000/svg" width="80" height="59.969" viewBox="0 0 80 59.969">
  <defs>
    <style>
      .cls-1 {
        fill-rule: evenodd;
      }
    </style>
  </defs>
  <path id="Harley" class="cls-1" d="M248.005,651.984H231.021a3.451,3.451,0,0,1,3.456-3.236h0V641.2h0c-15.689-.546-23.031-5.632-26.41-8.2-3.379,2.573-10.743,7.659-26.431,8.2h0v7.544h0a3.45,3.45,0,0,1,3.455,3.236H168.014v20.862h15.872c0,0.666-.355,2.64-4.619,3.112,2.922,2.667,19.956,17.026,28.8,17.026s25.922-14.359,28.844-17.026c-3.988-.432-4.62-2.171-4.62-3.112h15.714V651.984h0Zm-64.636-4.524,0-4.705h0c14.2-.733,21.2-4.966,24.695-7.568,3.743,2.639,10.476,6.835,24.673,7.568h0l-0.007,4.705h0a4.951,4.951,0,0,0-3.391,4.524h-1.7a6.586,6.586,0,0,1,3.36-5.575h0l0-2.132h0c-11.464-.8-18.949-4.333-22.935-7.058-3.482,2.54-10.481,5.942-22.957,7.058h0l0,2.132h0a6.588,6.588,0,0,1,3.36,5.575h-1.7a4.961,4.961,0,0,0-3.4-4.524h0Zm42.723,2.606v1.918h-1.855v-1.506h0a0.83,0.83,0,0,0-.829-0.687h-1.777v2.193h-1.856v-8.1l4.462,0.922h0c0.632,0.137,1.855.549,1.855,1.765h0v1.314h0a1.108,1.108,0,0,1-.651,1.177,1.552,1.552,0,0,1,.651,1h0Zm-7.9-4.825v4.942h0a1.753,1.753,0,0,1-1.954,1.8h-2.428a1.74,1.74,0,0,1-1.856-1.879h0v-7.218h0a1.286,1.286,0,0,1,1.875-1.06h0l3.238,1.236h0a1.985,1.985,0,0,1,1.125,2.178h0Zm-13.5-2.256v-2.04l3.374-1.825,3.536,1.923v2.04l-2.448-1.315v10.216h-2.014V641.651l-2.448,1.334h0Zm-0.237-.1v7.218h0a1.739,1.739,0,0,1-1.855,1.879h-2.428a1.754,1.754,0,0,1-1.955-1.8h0v-4.942h0a1.984,1.984,0,0,1,1.126-2.178h0l3.237-1.236h0a1.286,1.286,0,0,1,1.875,1.06h0Zm-10.64,9.1-1.52-3.232v3.232H190.44v-6.8l1.856-.333,1.461,3.1,1.618-3.746,1.738-.452v8.235h-1.856v-3.35l-1.441,3.35h0Zm39.146,24.68c-4.659,4.707-18.736,14.515-24.895,14.515s-20.193-9.808-24.852-14.515a4.371,4.371,0,0,0,2.961-3.818h1.935a5.241,5.241,0,0,1-1.935,4.053c1.816,1.726,15.415,12.554,21.891,12.554S228.185,678.625,230,676.9a5.244,5.244,0,0,1-1.935-4.053H230a4.372,4.372,0,0,0,2.961,3.818h0Zm-40.836,1.094c0.106,0.07,4.274,3.3,4.274,3.3h0v1.966h0s-5.864-4.352-6.04-4.457a1.915,1.915,0,0,1-.565-0.982c-0.071-.352,0-3.16,0-3.475a1.423,1.423,0,0,1,.847-1.262H195.2v1.859h-2.72c-0.424-.035-0.671.1-0.671,0.491h0v2.07h0a0.76,0.76,0,0,0,.318.492h0Zm4.166-4.912H198.2L199.224,676l1.66-3.158h1.8l-2.578,5.545v6.633h0c0,0.316-1.8-.667-1.837-0.913-0.071-.245,0-5.79,0-5.79h0l-1.978-5.475h0Zm8.905,12.031a18.605,18.605,0,0,0,2.437,1.3h0v2.176h0a40.891,40.891,0,0,1-4.1-1.929,1.371,1.371,0,0,1-.424-0.983h0v-11.02h0c0-.667,1.342-1.573,1.66-1.573h2.755v1.994h0a9.141,9.141,0,0,1-1.978,0c-0.212-.035-0.494.246-0.494,1.228h0v8.142h0a1.146,1.146,0,0,0,.141.667h0Zm7.946-.526v1.894h0s-3.109,1.369-3.6,1.615a0.459,0.459,0,0,1-.6-0.527h0V672.846h2.119v12.347l2.084-.842h0Zm4.554-6.664V679.3h-1.978v3.9l2.4-1.124v1.72l-3.179,1.579h0a0.589,0.589,0,0,1-.883-0.351h0V673.546h0a0.7,0.7,0,0,1,.707-0.7h3.708v2h-2.755v2.842H217.7Zm6.107,0.136s-3.108.07-3.673,0c-0.53-.07-0.742-0.175-0.742-0.561,0-.351-0.035-2.668,0-3.334,0.071-.667,1.13-1.013,1.625-1.082,0.459-.036,4.662,0,4.662,0h0v1.819h-4.485a2.436,2.436,0,0,0,0,1.508h4.026c0.565,0,.495.141,0.495,0.386h0v2.247h0a1.33,1.33,0,0,1-.495.666c-0.106.106-6,3.65-6,3.65h0v-1.579h0s4.7-2.948,4.733-3.158a0.7,0.7,0,0,0-.142-0.562h0Zm22.5-6.73H169.791v-17.1h76.516v17.1h0Zm-45.8-26.461,1.5-.588h0a0.407,0.407,0,0,1,.592.431h0V649.5h0a0.538,0.538,0,0,1-.573.609h-1.362a0.508,0.508,0,0,1-.592-0.57h0v-4h0a0.816,0.816,0,0,1,.434-0.9h0Zm15.832,0.9v4h0a0.508,0.508,0,0,1-.592.57h-1.362a0.538,0.538,0,0,1-.572-0.609h0v-5.021h0a0.407,0.407,0,0,1,.592-0.431h0l1.5,0.588h0a0.816,0.816,0,0,1,.434.9h0Zm7.5,0.98a0.638,0.638,0,0,1,.395.785c0,0.334-.059.647-0.415,0.647h-2.191v-1.883l2.211,0.451h0Zm-52.274,9.043v13.77h73v-13.77h-73Zm6.809,12.161H176.77v-4.6H175.5v4.6h-1.607V656.994H175.5v4.289h1.269v-4.289h1.607v10.725h0Zm3.743,0-0.284-2.79H180.66l-0.329,2.79h-1.456l1.228-10.725h2.411l1.228,10.725H182.12Zm6.729-7.366a2.161,2.161,0,0,1-.723,1.878,1.759,1.759,0,0,1,.722,1.231h0v4.257h-1.607v-3.587h0c0-.648-0.276-0.855-1.3-0.855h0v4.442h-1.607V656.994h2.655c1.289,0,1.86.451,1.86,1.837h0v1.522h0Zm4.169,7.366h-3.239V656.994h1.607v9.03h1.632v1.7h0Zm3.891,0h-3.352V656.994h3.321v1.675h-1.714v2.62H196.8v1.7h-1.638v3.04h1.745v1.7h0Zm3.727,0h-1.607v-4.007l-1.652-6.718h1.652l0.866,3.746,0.893-3.746h1.5l-1.653,6.643v4.082h0Zm4.1-4.727h-2.942v-1.353h2.942v1.353h0Zm5.064,2.784a1.842,1.842,0,0,1-1.91,1.943H205.6V656.994h1.94c1.592,0,2.259.542,2.259,2.425h0v6.357h0Zm3.672,1.943-0.284-2.79h-1.176l-0.329,2.79h-1.456l1.228-10.725h2.411l1.228,10.725h-1.622Zm4.423,0h-1.8l-1.509-10.725h1.639l0.78,6.449,0.779-6.449H219.4l-1.509,10.725h0Zm3.57,0h-1.607V656.994h1.607v10.725h0Zm5.155-1.943a1.842,1.842,0,0,1-1.911,1.943h-2.289V656.994h1.941c1.592,0,2.259.542,2.259,2.425h0v6.357h0Zm5.23-5.142H230.24v-1.5h0a0.577,0.577,0,0,0-.643-0.663,0.569,0.569,0,0,0-.639.663h0v1.189h0c0,0.767,2.869,2.126,2.869,3.211h0v2.584h0c0,1.4-1.245,1.808-2.245,1.808s-2.211-.406-2.211-1.808h0v-2.333h1.607v1.9h0a0.557,0.557,0,0,0,.619.664,0.565,0.565,0,0,0,.623-0.664h0v-1.129h0c0-1.507-2.869-1.924-2.869-3.671h0v-2.3h0c0-1.4,1.245-1.808,2.231-1.808s2.265,0.408,2.265,1.808h0v2.044h0Zm5.218,5.488c0,1.4-1.295,1.808-2.281,1.808s-2.25-.406-2.25-1.808h0V658.59h0c0-1.4,1.265-1.808,2.25-1.808s2.281,0.408,2.281,1.808h0v7.532h0Zm5.518,1.6h-1.966l-1.278-6.106v6.106h-1.615V656.994H239.9l1.051,5.453v-5.453h1.635v10.725h0Zm-61.732-4.6,0.374-4.165h0.106l0.314,4.165h-0.794Zm5.09-4.647h0.636a0.6,0.6,0,0,1,.606.665h0v1.61h0a0.724,0.724,0,0,1-.683.869h-0.559V658.47h0Zm21.264,0.216h0.379c0.409,0,.606.106,0.606,0.8h0v5.744h0c0,0.692-.2.8-0.606,0.8h-0.379v-7.341h0Zm4.995,4.431,0.374-4.165h0.106l0.314,4.165H212.2Zm11.824-4.431H224.4c0.409,0,.607.106,0.607,0.8h0v5.744h0c0,0.692-.2.8-0.607,0.8h-0.379v-7.341h0Zm10.118,6.791v-6.3h0a0.658,0.658,0,1,1,1.316,0h0v6.3h0a0.658,0.658,0,1,1-1.316,0h0Z" transform="translate(-168 -633)"/>
</svg>
