<?xml version="1.0" encoding="UTF-8"?>
<svg width="120px" height="120px" viewBox="0 0 120 120" version="1.1" xmlns="http://www.w3.org/2000/svg" xmlns:xlink="http://www.w3.org/1999/xlink">
    <!-- Generator: Sketch 41.2 (35397) - http://www.bohemiancoding.com/sketch -->
    <title>c-sharp</title>
    <desc>Created with Sketch.</desc>
    <defs></defs>
    <g id="Company-Icons" stroke="none" stroke-width="1" fill="none" fill-rule="evenodd">
        <g id="c-sharp" fill="#FFFFFF">
            <g id="csharp" transform="translate(38.000000, 35.000000)">
                <g id="Layer_1">
                    <g id="g27" transform="translate(0.012813, 0.017660)">
                        <g id="g4323">
                            <path d="M22.0001865,0.0594794293 C20.9973456,0.11324145 20.8287888,0.190556356 18.4800542,1.53952226 C17.4732195,2.117848 16.4811822,2.67794586 16.2799587,2.78956605 C16.0787351,2.90118625 15.6003555,3.17562856 15.2199252,3.39958578 C14.8394949,3.62333819 14.4065314,3.88139589 14.2498535,3.96961681 C13.9907718,4.1155423 12.6209155,4.89693487 7.93962595,7.58974649 C7.04466751,8.10458184 6.2037271,8.59350902 6.06957805,8.66979989 C5.93542901,8.74609076 5.11210206,9.21551 4.23951886,9.71984896 C3.36693566,10.2241879 2.51452602,10.7146512 2.33941544,10.8098867 C1.82079114,11.0914973 1.05122621,11.9072464 0.759375244,12.4899243 C0.220730997,13.561171 0.25913244,12.8846911 0.25913244,24.6203771 C0.25913244,34.9632683 0.263843017,35.6125087 0.489029082,36.2008188 C0.87099544,37.1986931 1.35521204,37.835389 2.12912913,38.3609256 C2.38974693,38.5375722 2.61861953,38.690666 2.6391003,38.690666 C2.65958107,38.690666 3.07892484,38.9200506 3.57911644,39.2106727 C4.07987126,39.5014996 4.50377199,39.740715 4.51913257,39.740715 C4.53449315,39.740715 4.78487056,39.8886886 5.06914365,40.0607271 C5.35331433,40.2327655 5.74797876,40.4672703 5.94920233,40.5807338 C6.41309177,40.8428877 7.86722643,41.6718468 8.18928653,41.8607819 C8.32343557,41.9396329 8.80181516,42.2135632 9.24931998,42.4708017 C9.6968248,42.7278353 10.16522,43.0019704 10.299369,43.0808214 C10.5876359,43.2502998 12.5833333,44.3933827 13.1094843,44.6908659 C13.3107078,44.8045342 13.7053211,45.039039 13.9894918,45.2109239 C14.2736624,45.3829623 14.5241423,45.5206955 14.5395028,45.5206955 C14.5548634,45.5206955 14.8687312,45.7029744 15.2395355,45.9205825 C15.6102375,46.1381907 16.0783767,46.4080249 16.2796002,46.5206179 C16.4808238,46.6332621 17.437583,47.172572 18.3996671,47.7306218 C20.4946451,48.9455922 20.6707797,49.0317651 21.4898057,49.2207002 C22.0673122,49.3548492 22.254404,49.3635536 22.8398468,49.2616617 C23.296568,49.1812747 24.1227111,48.9042723 24.2998697,48.7716593 C24.3853769,48.7076569 25.1302625,48.2734646 25.8699255,47.8615963 C26.1110866,47.7274473 27.0675386,47.178665 27.9900436,46.6415568 C28.9125487,46.1044998 29.8288584,45.5746623 30.0300819,45.4615061 C30.3531661,45.2797392 33.2556496,43.6147039 33.9002306,43.2414418 C34.3595119,42.9751918 35.7683328,42.1662014 36.1303304,41.9613937 C36.3295059,41.8487495 36.6740437,41.6454778 36.9003562,41.5113288 C37.3831903,41.224598 37.7470824,41.0208144 38.2503973,40.741303 C38.4516209,40.6296828 38.9300517,40.3557526 39.3104308,40.1312833 C39.6908611,39.9075309 40.2042116,39.6059004 40.4504928,39.4712393 C40.6967741,39.3365782 41.0844751,39.1107778 41.3205159,38.9612681 C41.5560448,38.8117585 41.7700688,38.691434 41.7905496,38.691434 C41.9410833,38.691434 42.774241,38.0505395 43.1306064,37.6614049 C43.6441105,37.100539 43.9690891,36.4307666 44.1406155,35.611331 C44.3275026,34.7200079 44.3372309,14.5911489 44.1508559,13.690507 C43.993154,12.9277519 43.6349453,12.2076993 43.1608155,11.6804219 C42.6539164,11.1164839 42.38654,10.9384548 40.1207012,9.66035232 C39.9194777,9.54668405 39.3176502,9.20260712 38.7806445,8.89032658 C37.9635641,8.41517272 33.9780063,6.11661591 33.160414,5.65016638 C33.0262649,5.57387551 32.4773291,5.26256781 31.9403745,4.95013367 C31.4034199,4.63780193 30.8015413,4.28225576 30.6003178,4.17012355 C30.3990942,4.05799133 29.3542165,3.46783795 28.2802561,2.85008673 C27.2062958,2.23238671 25.7700818,1.4101862 25.0901202,1.02002754 C23.5680406,0.146471499 23.1168493,8.5196683e-05 22.0000329,0.0599914485 L22.0001865,0.0594794293 Z M21.312135,10.1019177 L21.312135,10.1121581 C19.3795184,10.2473312 17.4847399,10.7360024 15.8319418,11.5822166 C10.0882123,14.5229991 6.94451654,20.5486464 7.86164542,26.8627654 C8.14684014,28.8256935 8.93514497,30.917497 10.0016811,32.5430045 C10.2110969,32.8619925 10.4010561,33.1425278 10.4215368,33.1630086 C10.4420176,33.1834893 10.6304407,33.4241384 10.8316643,33.6930509 C11.3349792,34.3646153 12.6079614,35.6396457 13.3917605,36.2531471 C15.5976418,37.979676 18.4980772,39.0881977 21.3720925,39.3032458 C21.986362,39.3493275 23.8978834,39.2674044 24.5422084,39.1731929 C24.8555642,39.1271112 25.2355337,39.0641328 25.3922116,39.0231713 C25.5488895,38.9822097 25.8586611,38.9064309 26.0822599,38.8531809 C28.6996511,38.2317943 31.4017303,36.5912334 33.3525236,34.4330211 C33.874732,33.8553098 34.5737919,32.9331631 34.8625708,32.4329203 L35.0724987,32.0627304 L32.0423688,30.3126486 C30.3783062,29.3525101 28.9608833,28.5528385 28.8922727,28.5425981 C28.819566,28.5323577 28.6480396,28.7064443 28.4821453,28.9527255 C27.6769951,30.1483929 26.271195,31.2086823 24.8620157,31.6828121 C23.8390012,32.0268891 23.5705495,32.0632424 22.3818968,32.0627304 C21.0669802,32.06186 20.3481564,31.9152689 19.3117782,31.4426751 C18.5376563,31.0898939 18.0361847,30.7460729 17.2717399,30.0326253 C15.9500647,28.7991197 15.1396406,27.0718228 15.0116358,25.2124761 C14.7653545,21.6371993 17.0547974,18.4840824 20.5718576,17.5321874 C21.4263665,17.2997307 23.2989745,17.2705456 24.0919899,17.4809855 C24.797962,17.6704326 25.5879053,17.9822523 26.1120594,18.2810156 C26.9945246,18.7838185 28.0869689,19.8122091 28.5621227,20.5811084 C28.6604304,20.7398344 28.7899713,20.861695 28.8421973,20.861183 C28.8944232,20.8606709 29.1186877,20.7577551 29.3424401,20.6312863 C29.7797045,20.383469 31.2221139,19.5562507 31.622513,19.3212339 C31.756662,19.2423829 32.2250572,18.9684526 32.672562,18.7112141 C33.1200669,18.4541805 33.6334174,18.1571581 33.8126241,18.0511701 C33.9918308,17.9451821 34.3551085,17.7419105 34.6126542,17.6011052 C34.8701999,17.4602999 35.0724475,17.3215427 35.0724475,17.2908215 C35.0724475,17.2601004 34.874296,16.9277999 34.6223825,16.5508001 C32.8338481,13.8772916 30.0997165,11.7949094 27.0520756,10.7905836 C25.2231428,10.1880906 23.2444957,9.96541339 21.311879,10.1005865 L21.312135,10.1019177 Z M34.9926237,21.1223128 L34.9926237,22.0523445 L34.0625919,22.0523445 L34.0625919,23.9223924 L34.9926237,23.9223924 L34.9926237,25.7825071 L34.0625919,25.7825071 L34.0625919,27.652555 L34.9926237,27.652555 L34.9926237,28.5825868 L36.8627228,28.5825868 L36.8627228,27.652555 L38.7227863,27.652555 L38.7227863,28.5825868 L40.5928342,28.5825868 L40.5928342,27.652555 L41.5229171,27.652555 L41.5229171,25.7825071 L40.5928342,25.7825071 L40.5928342,23.9223924 L41.5229171,23.9223924 L41.5229171,22.0523445 L40.5928342,22.0523445 L40.5928342,21.1223128 L38.7227863,21.1223128 L38.7227863,22.0523445 L36.8627228,22.0523445 L36.8627228,21.1223128 L34.9926237,21.1223128 Z M36.8627228,23.9223924 L38.7227863,23.9223924 L38.7227863,25.7825071 L36.8627228,25.7825071 L36.8627228,23.9223924 Z" id="Combined-Shape"></path>
                        </g>
                    </g>
                </g>
            </g>
        </g>
    </g>
</svg>