<?xml version="1.0" encoding="UTF-8"?>
<svg width="120px" height="120px" viewBox="0 0 120 120" version="1.1" xmlns="http://www.w3.org/2000/svg" xmlns:xlink="http://www.w3.org/1999/xlink">
    <!-- Generator: Sketch 41.2 (35397) - http://www.bohemiancoding.com/sketch -->
    <title>html5</title>
    <desc>Created with Sketch.</desc>
    <defs></defs>
    <g id="Company-Icons" stroke="none" stroke-width="1" fill="none" fill-rule="evenodd">
        <g id="html5" fill="#FFFFFF">
            <path d="M60.2444106,50.5576669 L46.3308095,50.5576669 L46.4636379,52.0472922 L47.8284324,67.3486372 L60.2444106,67.3486372 L67.0722077,67.3486372 L66.4275379,74.5498837 L60.2346745,76.2213657 L60.2296326,76.2231043 L54.0458099,74.5533609 L53.6504541,70.1249942 L53.6504541,70.1249942 L48.0765294,70.1249942 L48.8543753,78.8433358 L60.2284156,82.0006182 L60.2539729,81.9936638 L60.2539729,81.992662 L71.6177555,78.8433358 L71.7012079,77.9051917 L73.0061948,63.2871133 L73.1416311,61.7960971 L60.2444106,61.7960971 L52.9065108,61.7960971 L52.3990159,56.110207 L52.3990159,56.110207 L60.2444106,56.110207 L73.6468658,56.110207 L73.7581357,54.862246 L74.0112746,52.0472922 L74.1439291,50.5576669 L60.2444106,50.5576669 Z M82.4305784,41.3033175 L78.3899176,86.5692893 L60.2268509,91.6045983 L42.1138555,86.5762436 L38.0773673,41.3033175 L82.4305784,41.3033175 Z" id="Combined-Shape"></path>
            <path d="M42.2039146,29 L45.0256488,29 L45.0256488,31.7878317 L47.6069358,31.7878317 L47.6069358,29 L50.4288439,29 L50.4288439,37.4422532 L47.6071096,37.4422532 L47.6071096,34.6153033 L45.0258226,34.6153033 L45.0258226,37.4422532 L42.2040884,37.4422532 L42.2040884,29 L42.2039146,29 Z M54.1393461,31.7996541 L51.6555941,31.7996541 L51.6555941,29 L59.4469186,29 L59.4469186,31.7996541 L56.9616019,31.7996541 L56.9616019,37.4422532 L54.1398677,37.4422532 L54.1398677,31.7996541 L54.1396938,31.7996541 L54.1393461,31.7996541 Z M60.683405,29 L63.6256236,29 L65.4354975,31.966385 L67.2436328,29 L70.1870685,29 L70.1870685,37.4422532 L67.3768089,37.4422532 L67.3768089,33.2578109 L65.4354975,36.2594894 L65.386817,36.2594894 L63.4442885,33.2578109 L63.4442885,37.4422532 L60.683405,37.4422532 L60.683405,29 Z M71.5913289,29 L74.4139324,29 L74.4139324,34.6518137 L78.382094,34.6518137 L78.382094,37.4422532 L71.5911551,37.4422532 L71.5911551,29 L71.5913289,29 Z" id="Shape"></path>
        </g>
    </g>
</svg>