<?xml version="1.0" encoding="UTF-8"?>
<svg width="120px" height="120px" viewBox="0 0 120 120" version="1.1" xmlns="http://www.w3.org/2000/svg" xmlns:xlink="http://www.w3.org/1999/xlink">
    <!-- Generator: Sketch 41.2 (35397) - http://www.bohemiancoding.com/sketch -->
    <title>ios</title>
    <desc>Created with Sketch.</desc>
    <defs></defs>
    <g id="Company-Icons" stroke="none" stroke-width="1" fill="none" fill-rule="evenodd">
        <g id="ios" fill="#FFFFFF">
            <path d="M63.5478088,44.5498008 C62.7410359,44.8187251 61.6653386,44.998008 60.1414343,45.0876494 C60.2310757,41.8605578 61.0378486,39.0816733 62.6513944,36.750996 C64.2649402,34.4203187 66.9541833,32.8067729 70.7191235,32 C70.7191235,32.0896414 70.8087649,32.1792829 70.8087649,32.3585657 C70.8087649,32.5378486 70.8984064,32.62749 70.8984064,32.7171315 L70.8984064,33.0756972 L70.8984064,33.4342629 C70.8984064,34.7788845 70.6294821,36.2131474 70.001992,37.8266932 C69.374502,39.440239 68.3884462,40.9641434 67.0438247,42.3087649 C65.8784861,43.3844622 64.7131474,44.1912351 63.5478088,44.5498008 Z M78.0697211,67.2290837 C76.5458167,65.0776892 75.8286853,62.6573705 75.8286853,60.0577689 C75.8286853,57.6374502 76.5458167,55.3964143 77.8904382,53.3346614 C78.6075697,52.2589641 79.8625498,51.0039841 81.5657371,49.4800797 C80.4003984,48.1354582 79.3247012,47.059761 78.1593625,46.252988 C76.0976096,44.8187251 73.8565737,44.1912351 71.2569721,44.1912351 C69.7330677,44.1912351 67.8505976,44.5498008 65.6992032,45.2669323 C63.5478088,45.9840637 62.0239044,46.3426295 61.0378486,46.3426295 C60.3207171,46.3426295 58.7968127,45.9840637 56.5557769,45.3565737 C54.314741,44.7290837 52.3426295,44.3705179 50.8187251,44.3705179 C47.1434263,44.3705179 44.0956175,45.8944223 41.6752988,49.0318725 C39.2549801,52.1693227 38,56.2031873 38,61.1334661 C38,66.3326693 39.6135458,71.8007968 42.750996,77.3585657 C45.9780876,82.9163347 49.2051793,85.6952191 52.5219124,85.6952191 C53.5976096,85.6952191 55.0318725,85.3366534 56.8247012,84.6195219 C58.5278884,83.9023904 60.1414343,83.5438247 61.3964143,83.5438247 C62.8306773,83.5438247 64.4442231,83.9023904 66.2370518,84.6195219 C68.2091633,85.3366534 69.7330677,85.6952191 70.7191235,85.6952191 C73.498008,85.6952191 76.2768924,83.5438247 79.0557769,79.3306773 C80.8486056,76.6414343 82.1932271,73.9521912 83,71.2629482 C81.2968127,70.7250996 79.5936255,69.2908367 78.0697211,67.2290837 Z" id="Shape"></path>
        </g>
    </g>
</svg>