<?xml version="1.0" encoding="UTF-8"?>
<svg width="120px" height="120px" viewBox="0 0 120 120" version="1.1" xmlns="http://www.w3.org/2000/svg" xmlns:xlink="http://www.w3.org/1999/xlink">
    <!-- Generator: Sketch 41.2 (35397) - http://www.bohemiancoding.com/sketch -->
    <title>js</title>
    <desc>Created with Sketch.</desc>
    <defs>
        <rect id="path-1" x="0" y="0" width="45" height="45"></rect>
        <mask id="mask-2" maskContentUnits="userSpaceOnUse" maskUnits="objectBoundingBox" x="0" y="0" width="45" height="45" fill="white">
            <use xlink:href="#path-1"></use>
        </mask>
    </defs>
    <g id="Company-Icons" stroke="none" stroke-width="1" fill="none" fill-rule="evenodd">
        <g id="js">
            <g id="Group" transform="translate(38.000000, 38.000000)">
                <path d="M11.8321875,37.6052344 L15.2757422,35.5211719 C15.9401953,36.699082 16.5445312,37.6957617 17.9941992,37.6957617 C19.38375,37.6957617 20.2600195,37.1522461 20.2600195,35.0379492 L20.2600195,20.6593945 L24.4887891,20.6593945 L24.4887891,35.0977148 C24.4887891,39.4776562 21.9213281,41.4713672 18.1754297,41.4713672 C14.7925195,41.4713672 12.8288672,39.7193555 11.8320117,37.6048828 M26.7857227,37.1520703 L30.2289258,35.1585352 C31.1354297,36.6387891 32.3135156,37.7261719 34.3975781,37.7261719 C36.1499414,37.7261719 37.267207,36.8500781 37.267207,35.6417578 C37.267207,34.1919141 36.1193555,33.6782812 34.1861133,32.8327734 L33.1291406,32.3792578 C30.0781055,31.0807617 28.0543359,29.4495117 28.0543359,26.005957 C28.0543359,22.8341602 30.4708008,20.4175195 34.2467578,20.4175195 C36.9351562,20.4175195 38.8683984,21.354082 40.2577734,23.8007812 L36.9650391,25.9154297 C36.2399414,24.616582 35.4549023,24.103125 34.246582,24.103125 C33.0080273,24.103125 32.2226367,24.8885156 32.2226367,25.9154297 C32.2226367,27.184043 33.0080273,27.6978516 34.820332,28.4832422 L35.8774805,28.9362305 C39.472207,30.4769531 41.4959766,32.0475586 41.4959766,35.5814648 C41.4959766,39.387832 38.5055859,41.4718945 34.4881055,41.4718945 C30.5613281,41.4718945 28.0239258,39.5991211 26.7855469,37.1522461" id="Shape" fill="#FFFFFF"></path>
                <use id="Rectangle" stroke="#FFFFFF" mask="url(#mask-2)" stroke-width="4" xlink:href="#path-1"></use>
            </g>
        </g>
    </g>
</svg>