<?xml version="1.0" encoding="UTF-8"?>
<svg width="120px" height="120px" viewBox="0 0 120 120" version="1.1" xmlns="http://www.w3.org/2000/svg" xmlns:xlink="http://www.w3.org/1999/xlink">
    <!-- Generator: Sketch 41.2 (35397) - http://www.bohemiancoding.com/sketch -->
    <title>linux</title>
    <desc>Created with Sketch.</desc>
    <defs></defs>
    <g id="Company-Icons" stroke="none" stroke-width="1" fill="none" fill-rule="evenodd">
        <g id="linux" fill="#FFFFFF">
            <path d="M57.3862442,46.1349536 C56.8167303,46.1956849 57.0132882,46.7195873 56.6962756,46.7309272 C56.384051,46.742393 56.4476803,46.0638903 57.3862442,46.1349536 Z M59.1031017,46.2213886 C59.6573698,46.0790102 59.6602678,46.6370582 59.9629165,46.5355033 C60.2571233,46.4368463 59.9582545,45.8265089 59.1031017,46.2213886 Z M78.2050003,82.7727134 C76.4929307,83.6335362 74.2597307,85.5459436 73.4246117,86.3383491 C72.8106203,86.9258807 70.237728,87.2173156 68.8083993,86.4817355 C67.1143476,85.6095729 68.0130959,84.2485355 65.397364,84.1841502 C64.09731,84.1537846 62.8330396,84.1423187 61.5661233,84.1575645 C60.4452393,84.1726844 59.3253634,84.206956 58.1826817,84.2666794 C54.2553039,84.300825 53.871008,86.8689294 51.3693049,86.7749344 C49.6571094,86.7114311 47.4962326,85.3608516 43.7853205,84.5835659 C41.1774006,84.0406378 38.6736815,83.9116152 38.1374313,82.7575936 C37.6020631,81.607352 38.7980422,80.3175038 38.8776733,79.1710422 C38.9753223,77.6763203 37.7454495,75.6434581 38.6545297,74.8557146 C39.4052297,74.2035456 41.050016,74.6819625 42.1101686,74.0897688 C43.2376044,73.4643116 43.6903176,72.9433072 43.6903176,71.5700479 C44.1051051,72.9727909 43.6714178,74.1352543 42.7394058,74.7047682 C42.1851378,75.0397986 41.1544688,75.2172047 40.307002,75.1308956 C39.6359332,75.0673923 39.2202636,75.1763811 39.0162718,75.4319064 C38.7562106,75.7640388 38.8397477,76.3448926 39.1670922,77.1183983 C39.4964527,77.8919039 39.8922144,78.3825427 39.839043,79.3287925 C39.7858716,80.2759243 38.7447448,81.4004622 38.910937,82.1967736 C38.9754483,82.5024463 39.276207,82.7577196 39.9975493,82.9617114 C41.1934024,83.2977498 43.3278195,83.6024145 45.4338868,84.115733 C47.7751936,84.6900348 50.1924776,85.7719852 51.6947594,85.5640874 C56.1867371,84.9386301 53.6251847,80.1211979 52.8982985,78.9756183 C49.1067473,73.0069365 46.5993743,69.0997185 44.5920899,70.6505098 C44.0681875,71.0538315 44.0482797,69.6349608 44.0710855,69.0883786 C44.1575205,67.1267057 45.1540438,66.4403911 45.7462374,64.9134136 C46.8547735,62.0538743 47.7192502,58.7786656 49.4343438,57.0854958 C50.710836,55.4521753 52.7019926,52.7634903 53.0835165,51.3446195 C52.762724,48.2592907 52.664067,45.0115497 52.6145496,42.1672563 C52.5661661,39.1416508 53.0454649,36.4871114 56.4621702,34.6307733 C57.2953992,34.1780602 58.3782315,34.011994 59.5257012,34.0006541 C61.5774631,33.9778484 63.8400208,34.5520242 65.2854772,35.6235167 C67.5898664,37.3318063 69.0380949,40.9677492 68.8691307,43.582473 C68.7324222,45.5954274 69.0950463,47.7051487 69.7404113,49.8738373 C70.512909,52.4495016 71.7353479,54.2603542 73.677113,56.319802 C76.0174118,58.8015973 77.8387222,63.6912267 78.3512847,66.7880214 C78.8343635,69.6808243 78.2051263,71.468871 77.5702191,71.5589601 C76.6249773,71.6984406 76.0355556,74.7012403 73.0744614,74.5617598 C71.1848598,74.4706627 70.9997678,73.3545667 70.4759914,72.403655 C69.6340685,70.8832293 68.7780337,71.3587482 68.4344354,72.9436852 C68.2570293,73.7541084 68.3860519,74.9166979 68.6461131,75.8212422 C69.1737954,77.6738003 68.9926094,79.4313554 68.6774867,81.5619924 C68.0729453,85.6515305 71.535136,86.4250361 73.8707729,84.481381 C76.1751621,82.5624217 76.6686988,82.256749 79.5851894,81.2612337 C83.9830461,79.7550459 82.50546,78.4234922 80.1403394,77.6281888 C78.0201602,76.9154144 77.9328432,73.332643 78.692111,72.6569122 C78.8610752,76.5044069 80.8635717,77.0624549 81.7130545,77.5873652 C85.3513914,79.8457649 80.3384093,81.698323 78.2050003,82.7727134 Z M68.4116296,71.5026387 C68.8120533,71.0272458 69.2837922,70.9740744 69.9053435,70.9626085 C70.0002205,68.6175217 73.6512832,68.7902658 74.8471364,69.7715433 C74.8471364,69.2278591 73.6997927,68.7408744 73.2404017,68.5111788 C74.0365871,65.8633173 73.6627491,64.7993848 73.1350668,62.2985637 C72.7345171,60.3900622 70.9957358,57.8218318 69.6339425,57.0180865 C69.9775408,57.3188453 70.6304657,58.1949138 71.3204343,59.479848 C72.5087275,61.6921322 73.6816489,64.961671 72.9005833,67.7073075 C72.5998246,68.7559942 71.9126279,68.8880408 71.441015,68.9410862 C69.3472955,69.1593159 70.5781763,66.4668508 69.7089117,62.7579547 C68.7408641,58.6351531 67.7481207,58.3258264 67.4986434,58.0022619 C66.2990103,52.6381216 64.9645587,53.1734899 64.5869408,51.1481876 C64.2481304,49.3562349 66.148946,47.8739869 63.5647138,47.3727643 C62.7769702,47.2180379 61.6496604,46.4189545 61.1997192,46.3620031 C60.754566,46.3012718 60.5362103,43.4046889 62.1695308,43.2870062 C63.8028512,43.1664255 64.1150758,45.1320044 63.7944093,45.90551 C63.3302303,46.6714558 63.8285549,46.9579767 64.6362062,46.7084994 C65.2968171,46.5053896 64.8706897,44.7846261 65.028188,44.5294788 C64.6020606,42.0657013 63.5732817,41.7107632 62.5017892,41.5038734 C58.4350569,41.816098 60.2610293,46.3204236 59.8491397,45.8866102 C59.2730739,45.2753908 57.5409706,45.8524646 57.5495385,45.4604828 C57.5865821,43.1636535 56.8168563,41.8322259 55.7567038,41.8046322 C54.5760965,41.7704865 54.0892377,43.4238407 54.0179225,44.3547187 C53.9505132,45.2488051 54.5495107,47.1118211 54.986852,46.9694426 C55.2734989,46.8745656 55.7641377,46.2984998 55.2393533,46.3012718 C54.9679522,46.3050517 54.5579526,45.6682546 54.5152391,44.8937409 C54.4744155,44.1212432 54.7572825,43.3439576 55.7604837,43.3847812 C56.937311,43.4303927 56.9258452,45.7289859 56.7977046,45.818193 C56.4209686,46.0791362 55.9378898,46.5850207 55.8857264,46.6713298 C55.5117624,47.2977951 54.7610625,47.4523954 54.4858814,47.7277024 C53.9619791,48.2514788 53.8556362,48.8436724 54.2485,49.070596 C55.5944175,49.8430937 55.1568242,50.7029084 57.0397479,50.7826656 C58.2762986,50.831175 59.2074286,50.5900136 60.0492256,50.3328504 C60.7050485,50.1345285 62.8109899,49.6855954 63.2551351,48.9122157 C63.447787,48.5838632 63.6898304,48.5723973 63.8511087,48.6663923 C64.1338496,48.8295606 64.194707,49.3762687 63.4666868,49.5718186 C62.42556,49.8546856 61.3739753,50.4098356 60.4524212,50.7790116 C59.5327571,51.1519676 59.2385503,51.2953541 58.3710496,51.4547423 C56.4159287,51.8048926 54.9724882,50.7486459 56.2841341,52.0165703 C56.7188294,52.4390438 57.1372709,52.7027589 58.2619348,52.6572734 C60.7248303,52.5594985 63.4845786,49.6021843 63.7569877,50.926178 C63.8139391,51.1975791 62.9769301,51.5667551 62.3240051,51.8913276 C60.0149539,53.0274574 58.3891934,55.2709893 56.9104733,54.4945856 C55.5874876,53.7970571 54.2711797,50.5151704 54.2938595,51.9853226 C54.3309031,54.2525422 51.3051716,56.2704105 52.6974567,58.8508628 C51.7959364,59.0965601 49.7401425,63.4338115 49.4450537,65.6925892 C49.2837754,66.9718534 49.5676503,68.5787141 49.2609696,69.4765805 C48.8158164,70.7739885 46.7944202,68.2399038 47.4396592,65.1345412 C47.555578,64.5878331 47.457803,64.4720403 47.3115186,64.7358815 C46.4897554,66.1880158 46.9413346,68.2134441 47.5895976,69.6350868 C47.8734726,70.2500861 48.5368554,70.5214872 49.0273681,71.0690773 C50.0865127,72.2534646 54.1391332,75.2592883 54.8737052,75.9796225 C55.7637597,76.8545571 55.5142824,78.8618415 53.6217827,79.0536114 C54.5917203,80.8833637 55.5369621,81.0569899 55.5227243,84.0485757 C56.6199205,83.459154 56.1785472,82.1703139 55.7192822,81.320957 C55.3984896,80.7402293 54.9790401,80.4763881 55.0701371,80.3406876 C55.1385544,80.2382507 55.7031543,79.7522739 56.0429727,80.1327898 C57.0423939,81.2527918 58.9290976,81.4531296 60.9581798,81.2006283 C62.983482,80.9434651 65.1559506,80.2354787 66.1600338,78.6210581 C66.6307648,77.8626722 66.9705831,77.5941691 67.1888128,77.7269717 C67.4042704,77.8626722 67.4982654,78.3979145 67.4753337,79.2577292 C67.449756,80.212421 67.0502143,81.2041563 66.8014929,81.9966878 C66.5213979,82.8945541 66.4352149,83.5313513 67.3101495,83.5654969 C67.5702107,81.9054648 68.0268297,80.2721443 68.1586243,78.6209321 C68.3061687,76.7422923 66.9452574,73.2450739 68.4116296,71.5026387 Z M55.9978652,44.8301116 C55.9304559,45.2002956 55.9570416,45.4308731 56.2133228,45.4308731 C56.2550284,45.4308731 56.2996319,45.4223052 56.3157597,45.3284362 C56.4391124,44.5928562 56.0585965,44.0576139 55.9037442,44.0149004 C55.5422541,43.9246853 55.5877396,44.4410278 55.7756035,44.4002042 C55.8895063,44.3772725 56.0433507,44.5661444 55.9978652,44.8301116 Z M62.6829752,43.8193505 C62.3127912,43.8534961 62.4191341,44.0375801 62.6032181,44.0907516 C62.8442535,44.1628228 63.0711771,44.5728224 63.1233405,45.0189836 C63.1271205,45.0598071 63.4326672,44.9544723 63.4326672,44.8566973 C63.4555989,44.142915 62.8442535,43.8049866 62.6829752,43.8193505 Z" id="Shape"></path>
        </g>
    </g>
</svg>