<?xml version="1.0" encoding="UTF-8"?>
<svg width="120px" height="120px" viewBox="0 0 120 120" version="1.1" xmlns="http://www.w3.org/2000/svg" xmlns:xlink="http://www.w3.org/1999/xlink">
    <!-- Generator: Sketch 41.2 (35397) - http://www.bohemiancoding.com/sketch -->
    <title>node-js</title>
    <desc>Created with Sketch.</desc>
    <defs></defs>
    <g id="Company-Icons" stroke="none" stroke-width="1" fill="none" fill-rule="evenodd">
        <g id="node-js" fill="#FFFFFF">
            <g id="nodejs" transform="translate(38.000000, 35.000000)">
                <g id="Group">
                    <path d="M20.527633,0.630784574 C21.7543152,-0.0713597074 23.3520678,-0.07453125 24.5776928,0.630784574 C30.7437001,4.11490027 36.9116456,7.59355386 43.0765957,11.0797839 C44.2361469,11.7329455 45.0117653,13.0234109 44.9999601,14.3595113 L44.9999601,35.3212932 C45.0085938,36.7127194 44.1563298,38.0340193 42.9329953,38.6723803 C36.7872507,42.1372906 30.6446775,45.6064295 24.49999,49.0713398 C23.2479355,49.7872274 21.618115,49.7320778 20.4051762,48.9575166 C18.5626862,47.8894116 16.7170246,46.8265924 14.8743584,45.7595445 C14.4978258,45.5350698 14.0733677,45.3564063 13.8074867,44.9913265 C14.0425332,44.6745246 14.4627626,44.6350565 14.804232,44.496742 C15.5733311,44.2521809 16.2797041,43.8596144 16.9862533,43.4786769 C17.1649169,43.3563963 17.3830485,43.4032646 17.5543118,43.5126828 C19.1298637,44.4160439 20.691496,45.3456582 22.2723338,46.2403856 C22.6095745,46.4350831 22.9510439,46.1766024 23.2393019,46.0159109 C29.2701662,42.6073836 35.3084309,39.2117188 41.338238,35.8021343 C41.5616556,35.6946543 41.6851695,35.4574934 41.6670213,35.212756 C41.67125,28.2979122 41.6680785,21.3818351 41.6691356,14.4669914 C41.6946842,14.1893052 41.5339927,13.933996 41.2829122,13.8203491 C35.1584874,10.3712965 29.037234,6.91695811 22.9138664,3.4670246 C22.6967096,3.31773181 22.4101101,3.31731178 22.1925166,3.46596742 C16.0691489,6.91695811 9.94895279,10.3744681 3.82558511,13.8233444 C3.57538564,13.9371676 3.40747008,14.188248 3.43724734,14.4669914 C3.43830452,21.3818351 3.43724734,28.2979122 3.43724734,35.2138132 C3.41550055,35.4583848 3.54838719,35.69062 3.77025931,35.7957912 C5.40430851,36.7224102 7.04047207,37.64251 8.67557846,38.5659574 C9.59673537,39.0617753 10.7277427,39.3563763 11.7426363,38.976496 C12.6382447,38.6552892 13.2660339,37.7413564 13.2489428,36.7904222 C13.2574003,29.9159275 13.2447141,23.0403757 13.2552859,16.1669382 C13.2329089,15.8617653 13.5224003,15.6096277 13.8191157,15.6383477 C14.6042487,15.6330618 15.3904388,15.6277759 16.1755718,15.6404621 C16.5032979,15.6330618 16.7288298,15.9616689 16.6883045,16.2691323 C16.685133,23.1871476 16.696762,30.1053391 16.6830186,37.0233544 C16.685133,38.8670778 15.9276629,40.8732547 14.222254,41.7753823 C12.1212832,42.86375 9.52449468,42.6329322 7.44889628,41.5893185 C5.65204122,40.6924767 3.93729388,39.6340625 2.17233045,38.6732613 C0.945824468,38.0384242 0.0977892287,36.7118384 0.106422872,35.3214694 L0.106422872,14.3595113 C0.0935605053,12.995748 0.900013298,11.6818484 2.09568484,11.0382015 C8.24037234,7.57047207 14.3840027,4.10009973 20.527633,0.630784574 Z M25.8882447,15.1511636 C28.5681981,14.9786669 31.4372108,15.0489694 33.8488165,16.3692121 C35.7159741,17.3809342 36.7511303,19.5042819 36.7840791,21.5786469 C36.7319249,21.8584475 36.4394382,22.0127959 36.1723238,21.9935904 C35.3947673,21.9925332 34.6170346,22.0041622 33.8394781,21.9883045 C33.5096376,22.0009907 33.3179355,21.696875 33.2765293,21.4052693 C33.0531117,20.4127527 32.5118351,19.4297507 31.5776396,18.9510239 C30.1435738,18.2330219 28.4808045,18.2691423 26.9170578,18.284119 C25.7754787,18.3447307 24.5479156,18.4435771 23.5807713,19.114887 C22.8382779,19.623391 22.612746,20.6499136 22.877746,21.476629 C23.1275931,22.070236 23.8128225,22.261762 24.3734807,22.4383112 C27.6031682,23.2829987 31.025615,23.1989528 34.1936336,24.3105785 C35.5052427,24.7637566 36.7883078,25.6447407 37.2372573,27.0180186 C37.8245213,28.8585705 37.5670977,31.0585638 36.2576031,32.5361503 C35.1956649,33.7520844 33.6490093,34.4138797 32.1064063,34.7733211 C30.054242,35.2309043 27.9245512,35.2425332 25.8404953,35.0393783 C23.8808344,34.8159608 21.8415326,34.3011137 20.3287068,32.9658943 C19.0350698,31.8426396 18.4032281,30.0924767 18.4659541,28.4032779 C18.4809309,28.1180153 18.7649601,27.9190891 19.0382414,27.9425233 C19.82126,27.9361802 20.6042786,27.9340658 21.3872972,27.9435805 C21.7000465,27.9212035 21.9319215,28.1914894 21.9479555,28.4862666 C22.0924368,29.4319149 22.4478258,30.4244315 23.2724269,30.9850898 C24.8638364,32.0117886 26.8606749,31.941486 28.6829023,31.9702061 C30.1925565,31.9032513 31.8872174,31.8829887 33.1191855,30.8851862 C33.7691755,30.3160705 33.9617586,29.3639029 33.7860904,28.544764 C33.5957979,27.8531915 32.8723338,27.5309275 32.2510638,27.3201961 C29.0627826,26.3116456 25.6021011,26.6776064 22.4446543,25.5370844 C21.1628225,25.0840824 19.9232779,24.2275898 19.4308078,22.9106948 C18.7436403,21.046885 19.058504,18.7415259 20.505256,17.3138032 C21.9158876,15.8936569 23.9521941,15.346742 25.8882447,15.1509874 L25.8882447,15.1511636 Z" id="Combined-Shape"></path>
                </g>
            </g>
        </g>
    </g>
</svg>