<?xml version="1.0" encoding="UTF-8"?>
<svg width="120px" height="120px" viewBox="0 0 120 120" version="1.1" xmlns="http://www.w3.org/2000/svg" xmlns:xlink="http://www.w3.org/1999/xlink">
    <!-- Generator: Sketch 41.2 (35397) - http://www.bohemiancoding.com/sketch -->
    <title>python</title>
    <desc>Created with Sketch.</desc>
    <defs></defs>
    <g id="Company-Icons" stroke="none" stroke-width="1" fill="none" fill-rule="evenodd">
        <g id="python" fill="#FFFFFF">
            <path d="M45.2808403,59.8560504 C45.2808403,56.184958 44.2341176,54.3002521 42.1404202,54.1971429 C41.3072269,54.1578151 40.4942017,54.2904202 39.7028571,54.5977311 C39.0713445,54.8236134 38.6463025,55.047479 38.4226891,55.2736134 L38.4226891,64.0361345 C39.7618487,64.8766387 40.9510084,65.267395 41.9881513,65.2058824 C44.1821849,65.0604202 45.2808403,63.2790756 45.2808403,59.8560504 Z M47.8633613,60.0083193 C47.8633613,61.8733613 47.4259664,63.4215126 46.5461345,64.652521 C45.5657143,66.0458824 44.2068908,66.7633613 42.4696639,66.8026891 C41.16,66.8442857 39.8107563,66.4341176 38.422437,65.5739496 L38.422437,73.5380672 L36.1764706,72.7368908 L36.1764706,55.0595798 C36.545042,54.607563 37.0194958,54.2193277 37.5942857,53.8898319 C38.9311765,53.1108403 40.5552101,52.7105042 42.4671429,52.6908403 L42.4989076,52.722605 C44.2462185,52.7006723 45.592437,53.4181513 46.5385714,54.8727731 C47.4209244,56.2071429 47.8633613,57.917395 47.8633613,60.0083193 L47.8633613,60.0083193 Z M61.5894958,65.2351261 C61.5894958,67.7367227 61.3389076,69.4689076 60.8377311,70.4321849 C60.3340336,71.3952101 59.3755462,72.1643697 57.9602521,72.7371429 C56.8126891,73.1891597 55.5715966,73.434958 54.24,73.4768067 L53.8686555,72.0615126 C55.2226891,71.877479 56.1761345,71.6929412 56.7289916,71.5086555 C57.817563,71.140084 58.5645378,70.5751261 58.974958,69.8180672 C59.3042017,69.2014286 59.4663025,68.0243697 59.4663025,66.2823529 L59.4663025,65.697479 C57.9305042,66.3955462 56.3210924,66.7419328 54.6380672,66.7419328 C53.5321008,66.7419328 52.5567227,66.3955462 51.7162185,65.697479 C50.772605,64.9381513 50.3009244,63.9751261 50.3009244,62.8078992 L50.3009244,53.46 L52.5468908,52.6908403 L52.5468908,62.0994958 C52.5468908,63.1043697 52.8710924,63.8785714 53.5197479,64.4215966 C54.1684034,64.9646218 55.0089076,65.2252941 56.0384874,65.2053782 C57.0680672,65.1831933 58.1712605,64.7851261 59.3432773,64.0061345 L59.3432773,53.0296639 L61.5892437,53.0296639 L61.5892437,65.2351261 L61.5894958,65.2351261 Z M70.3568067,66.679916 C70.1107956,66.7006992 69.86403,66.7112965 69.6171429,66.7116807 C68.3468067,66.7116807 67.3563025,66.4096639 66.6489076,65.802605 C65.9435294,65.1957983 65.5898319,64.3580672 65.5898319,63.2889076 L65.5898319,54.4426891 L64.0515126,54.4426891 L64.0515126,53.029916 L65.5898319,53.029916 L65.5898319,49.2776471 L67.8332773,48.4789916 L67.8332773,53.029916 L70.3568067,53.029916 L70.3568067,54.4426891 L67.8332773,54.4426891 L67.8332773,63.227395 C67.8332773,64.0704202 68.0591597,64.667395 68.5111765,65.0165546 C68.8994118,65.3039496 69.5163025,65.4685714 70.3565546,65.5104202 L70.3565546,66.679916 L70.3568067,66.679916 Z M83.9553782,66.4956303 L81.7094118,66.4956303 L81.7094118,57.8263866 C81.7094118,56.9442857 81.5031933,56.184958 81.0927731,55.5511765 C80.6185714,54.8334454 79.960084,54.4747059 79.1145378,54.4747059 C78.084958,54.4747059 76.797479,55.0177311 75.2518487,56.1037815 L75.2518487,66.4956303 L73.0061345,66.4956303 L73.0061345,45.7736975 L75.2518487,45.0660504 L75.2518487,54.5042017 C76.6868067,53.4597479 78.2546218,52.9363866 79.957563,52.9363866 C81.1469748,52.9363866 82.11,53.3369748 82.847395,54.1356303 C83.5870588,54.9340336 83.9556303,55.9293277 83.9556303,57.1187395 L83.9556303,66.4956303 L83.9553782,66.4956303 L83.9553782,66.4956303 Z M95.892605,59.5023529 C95.892605,58.0918487 95.6248739,56.9271429 95.0914286,56.0057143 C94.457395,54.8828571 93.4721849,54.2904202 92.1403361,54.2291597 C89.6780672,54.3715966 88.4493277,56.1357983 88.4493277,59.5172269 C88.4493277,61.0676471 88.704958,62.3626891 89.2210084,63.4021008 C89.8794958,64.7266387 90.867479,65.3803361 92.1847059,65.3581513 C94.6565546,65.3382353 95.892605,63.3872269 95.892605,59.5023529 L95.892605,59.5023529 Z M98.3523529,59.5169748 C98.3523529,61.5247059 97.8388235,63.1956303 96.8140336,64.5297479 C95.6858824,66.0239496 94.1284034,66.7731933 92.1403361,66.7731933 C90.1696639,66.7731933 88.6338655,66.0236975 87.5256303,64.5297479 C86.5205042,63.1956303 86.0190756,61.5247059 86.0190756,59.5169748 C86.0190756,57.63 86.5621008,56.042521 87.6484034,54.75 C88.7959664,53.3788235 90.3045378,52.6908403 92.1698319,52.6908403 C94.0346218,52.6908403 95.5532773,53.3788235 96.7230252,54.75 C97.8093277,56.042521 98.3523529,57.63 98.3523529,59.5169748 L98.3523529,59.5169748 Z M111.228151,66.4956303 L108.982185,66.4956303 L108.982185,57.335042 C108.982185,56.3301681 108.680168,55.5461345 108.07563,54.9809244 C107.471092,54.4182353 106.664874,54.1454622 105.66,54.167395 C104.593866,54.1870588 103.578655,54.5359664 102.61563,55.2118487 L102.61563,66.4956303 L100.369664,66.4956303 L100.369664,54.9342857 C101.662185,53.9934454 102.851597,53.3788235 103.937647,53.0914286 C104.962185,52.8236975 105.866471,52.6908403 106.645462,52.6908403 C107.178403,52.6908403 107.680084,52.7422689 108.151765,52.8456303 C109.033866,53.0495798 109.751597,53.4279832 110.304202,53.9833613 C110.921092,54.5977311 111.228151,55.3346218 111.228151,56.1973109 L111.228151,66.4956303 L111.228151,66.4956303 Z" id="Shape"></path>
            <path d="M13.9941176,45.8566387 C12.8384874,45.8619328 11.735042,45.9605042 10.7642017,46.132437 C7.90386555,46.6378992 7.38453782,47.6954622 7.38453782,49.6462185 L7.38453782,52.222437 L14.1438655,52.222437 L14.1438655,53.0810924 L4.84764706,53.0810924 C2.88327731,53.0810924 1.16294118,54.2619328 0.624957983,56.5081513 C0.00428571429,59.0828571 -0.0231932773,60.6894958 0.624957983,63.3778992 C1.10546218,65.3790756 2.25302521,66.804958 4.21739496,66.804958 L6.54151261,66.804958 L6.54151261,63.7167227 C6.54151261,61.4856303 8.47184874,59.5177311 10.7642017,59.5177311 L17.5157143,59.5177311 C19.3951261,59.5177311 20.8953782,57.9703361 20.8953782,56.0828571 L20.8953782,49.6459664 C20.8953782,47.8142017 19.35,46.4379832 17.5157143,46.1321849 C16.3542857,45.9390756 15.1497479,45.8510924 13.9941176,45.8566387 L13.9941176,45.8566387 Z M10.3386555,47.9284034 C11.0369748,47.9284034 11.6069748,48.5079832 11.6069748,49.2204202 C11.6069748,49.9303361 11.0367227,50.5046218 10.3386555,50.5046218 C9.63806723,50.5046218 9.07033613,49.9305882 9.07033613,49.2204202 C9.07033613,48.5079832 9.63806723,47.9284034 10.3386555,47.9284034 Z" id="Shape"></path>
            <path d="M21.7384034,53.0808403 L21.7384034,56.0823529 C21.7384034,58.4094958 19.7654622,60.3680672 17.5157143,60.3680672 L10.7642017,60.3680672 C8.91478992,60.3680672 7.38453782,61.9507563 7.38453782,63.8029412 L7.38453782,70.2393277 C7.38453782,72.0713445 8.97731092,73.1488235 10.7642017,73.6742017 C12.9037815,74.3034454 14.9556303,74.4171429 17.5157143,73.6742017 C19.217395,73.1815966 20.8953782,72.1898319 20.8953782,70.2393277 L20.8953782,67.6633613 L14.1438655,67.6633613 L14.1438655,66.8047059 L24.275042,66.8047059 C26.2396639,66.8047059 26.9715126,65.4342857 27.6547059,63.3776471 C28.3605882,61.2605042 28.3305882,59.2240336 27.6547059,56.5078992 C27.1691597,54.5523529 26.2419328,53.0808403 24.275042,53.0808403 L21.7384034,53.0808403 L21.7384034,53.0808403 Z M17.9410084,69.3806723 C18.6415966,69.3806723 19.2093277,69.9547059 19.2093277,70.6648739 C19.2093277,71.3773109 18.6415966,71.9568908 17.9410084,71.9568908 C17.2426891,71.9568908 16.6726891,71.3773109 16.6726891,70.6648739 C16.6726891,69.954958 17.2429412,69.3806723 17.9410084,69.3806723 Z" id="Shape"></path>
            <path d="M115.601849,51.027479 L115.99563,51.027479 L115.99563,48.5578992 L116.928151,48.5578992 L116.928151,48.2634454 L114.668824,48.2634454 L114.668824,48.5578992 L115.601597,48.5578992 L115.601597,51.027479 M117.277563,51.027479 L117.613866,51.027479 L117.613866,48.7719328 L118.34395,51.0272269 L118.718319,51.0272269 L119.479412,48.7794958 L119.479412,51.027479 L119.846471,51.027479 L119.846471,48.2636975 L119.360924,48.2636975 L118.529244,50.6316807 L117.820336,48.2636975 L117.277563,48.2636975 L117.277563,51.027479" id="Shape"></path>
        </g>
    </g>
</svg>