<?xml version="1.0" encoding="UTF-8"?>
<svg width="120px" height="120px" viewBox="0 0 120 120" version="1.1" xmlns="http://www.w3.org/2000/svg" xmlns:xlink="http://www.w3.org/1999/xlink">
    <!-- Generator: Sketch 41.2 (35397) - http://www.bohemiancoding.com/sketch -->
    <title>windows</title>
    <desc>Created with Sketch.</desc>
    <defs></defs>
    <g id="Company-Icons" stroke="none" stroke-width="1" fill="none" fill-rule="evenodd">
        <g id="windows" fill="#FFFFFF">
            <path d="M11.8811881,49.0524752 C16.5594059,48.3366337 21.2465347,47.6623762 25.9336634,47.0118812 C25.9366337,51.119802 25.9336634,55.2247525 25.9366337,59.3326733 C21.2524752,59.350495 16.5683168,59.4217822 11.8811881,59.4366337 C11.8782178,55.9732673 11.8782178,52.5128713 11.8811881,49.0524752 L11.8811881,49.0524752 Z M0,50.709901 C3.52277228,50.1663366 7.06069307,49.6970297 10.5983168,49.2544554 C10.6012871,52.6613861 10.6012871,56.0653465 10.6042574,59.4722772 C7.06960396,59.4693069 3.53465347,59.5227723 0,59.5138614 L0,50.709901 Z M55.9663366,51.2831683 C56.8930693,50.6920792 58.0782178,51.9247525 57.5376238,52.8514851 C57.2762376,53.5316832 56.319802,53.790099 55.7792079,53.2910891 C55.1019802,52.8306931 55.1970297,51.6069307 55.9663366,51.2831683 Z M80.2366337,51.1613861 C80.8306931,51.1584158 81.4247525,51.1584158 82.0188119,51.1584158 L82.0188119,67.7920792 L80.2428713,67.7920792 C80.2458416,67.1891089 80.2339604,66.5858416 80.1923762,65.9831683 C78.9062376,68.2937624 75.4666337,68.8049505 73.500297,67.0910891 C72.0956436,65.8821782 71.6676238,63.9158416 71.7418812,62.1363366 C71.7567327,60.330396 72.3507921,58.4115842 73.7884158,57.2323762 C75.6567327,55.6937624 78.9686139,55.7828713 80.2488119,58.0432673 C80.2247525,55.7475248 80.2455446,53.4544554 80.2366337,51.1613861 L80.2366337,51.1613861 Z M76.3990099,57.7376238 C74.9732673,57.9633663 74.0079208,59.2643564 73.7408911,60.609901 C73.390099,62.2316832 73.4524752,64.1086139 74.4745545,65.4871287 C75.579505,66.9541584 78.0181188,66.9871287 79.200297,65.6 C80.0052475,64.7623762 80.2336634,63.5623762 80.239901,62.439604 C80.2485149,61.2544554 80.349802,59.9178218 79.5626733,58.9287129 C78.8673267,57.939604 77.5693069,57.4940594 76.3990099,57.7376238 L76.3990099,57.7376238 Z M33.8465347,52.0465347 C34.5148515,52.049505 35.1831683,52.049505 35.8544554,52.0584158 C36.8973267,55.8247525 37.9250495,59.5970297 38.970297,63.3660396 C39.195387,64.1581662 39.3582586,64.9666648 39.4574257,65.7841584 C40.5445545,61.1594059 42.029703,56.6326733 43.2772277,52.0465347 C43.8564356,52.049505 44.4356436,52.049505 45.0151485,52.0524752 C45.9329703,55.3168317 46.7910891,58.5960396 47.7,61.8633663 C48.0359406,63.1643564 48.469604,64.4475248 48.6062376,65.7927723 C49.5894059,61.1739604 50.9910891,56.6472277 52.1049505,52.0584158 C52.7643564,52.049505 53.4237624,52.049505 54.0831683,52.049505 C52.6455446,57.3039604 51.1485149,62.5435644 49.6933663,67.7920792 L47.5514851,67.7920792 C46.4970297,64.0230693 45.4517822,60.250198 44.3854455,56.4871287 C44.2069307,55.8782178 44.1326733,55.2485149 44.0765347,54.6188119 C43.9933663,55.1623762 43.9161386,55.7118812 43.7762376,56.2435644 C42.6980198,60.0811881 41.6049505,63.9125743 40.5564356,67.7564356 C39.8438614,67.7950495 39.1306931,67.7980198 38.4178218,67.7920792 C36.8881188,62.5465347 35.370297,57.2950495 33.8465347,52.0465347 L33.8465347,52.0465347 Z M62.0970297,58.3227723 C63.1158416,56.5079208 65.4920792,55.6732673 67.4079208,56.5138614 C68.9316832,57.1079208 69.4990099,58.8719802 69.5465347,60.3752475 C69.6294059,62.8462376 69.5613861,65.320495 69.5821782,67.7920792 C68.9881188,67.7920792 68.3940594,67.7920792 67.8,67.7891089 C67.7729703,65.4158416 67.8623762,63.0366337 67.7581188,60.6633663 C67.7105941,59.4871287 67.2115842,58.0732673 65.9316832,57.7732673 C64.0633663,57.2089109 62.1980198,58.8930693 62.1383168,60.7405941 C62.0848515,63.090099 62.1353465,65.4425743 62.1175248,67.7920792 L60.3353465,67.7920792 C60.3386139,64.0287129 60.3386139,60.2683168 60.3353465,56.5049505 L62.1207921,56.5049505 C62.1178218,57.1108911 62.1148515,57.7168317 62.0970297,58.3227723 Z M88.9514851,56.2257426 C90.5405941,56.0861386 92.3016832,56.3356436 93.4960396,57.4851485 C94.8445545,58.729703 95.2455446,60.6633663 95.1712871,62.4306931 C95.150495,64.019802 94.5623762,65.6326733 93.3980198,66.7405941 C90.9683168,68.950495 86.4564356,68.4663366 84.9145545,65.4277228 C83.7029703,62.8821782 83.9462376,59.3594059 86.1591089,57.4257426 C86.9524752,56.7544554 87.9564356,56.4485149 88.9514851,56.2257426 L88.9514851,56.2257426 Z M88.6306931,57.8415842 C86.0135644,58.6465347 85.5709901,62.0653465 86.3878218,64.3138614 C87.0383168,66.309901 89.5749505,67.1950495 91.3957426,66.2623762 C92.6284158,65.6950495 93.189802,64.3049505 93.3086139,63.0306931 C93.4419802,61.5425743 93.3234653,59.8557426 92.2719802,58.6940594 C91.3811881,57.690099 89.8722772,57.4732673 88.6306931,57.8415842 Z M115.978218,56.219802 C117.092079,56.1425743 118.226733,56.249505 119.275545,56.6594059 C119.566337,57.2118812 119.340891,57.9366337 119.409208,58.5574257 C118.158713,57.7762376 116.435644,57.2772277 115.078515,58.0732673 C114.148812,58.5782178 114.104257,60.0719802 115.010198,60.6277228 C116.308218,61.4683168 117.956733,61.6881188 119.109208,62.7693069 C120.380495,63.9930693 120.071584,66.3455446 118.583465,67.2633663 C116.774554,68.4158416 114.392376,68.3029703 112.497327,67.4237624 C112.497327,66.7584158 112.494356,66.0933663 112.482475,65.4277228 C113.83099,66.4554455 115.72604,67.0257426 117.338911,66.2950495 C118.280495,65.8227723 118.32802,64.3762376 117.499307,63.7673267 C116.201287,62.8108911 114.422376,62.6594059 113.269604,61.4653465 C112.132277,60.3188119 112.336931,58.209901 113.605545,57.2386139 C114.261386,56.6356436 115.149505,56.4544554 115.978218,56.219802 L115.978218,56.219802 Z M55.5831683,56.5079208 C56.1772277,56.5049505 56.7712871,56.5049505 57.3653465,56.5049505 L57.3653465,67.7920792 L55.5831683,67.7920792 C55.5831683,64.0287129 55.5861386,60.2683168 55.5831683,56.5079208 Z M95.9138614,56.5049505 L97.7732673,56.5049505 C98.509901,59.1930693 99.2230693,61.8871287 99.9742574,64.5722772 C100.125743,65.0769307 100.182178,65.6 100.235644,66.1227723 C101.076238,62.8854455 102.139604,59.7069307 103.093069,56.5019802 L104.718119,56.5108911 C105.53495,59.7188119 106.550792,62.8792079 107.227723,66.119802 C107.92604,62.8967327 108.917822,59.7455446 109.693366,56.5405941 C110.290396,56.5108911 110.887426,56.5019802 111.487129,56.4960396 C110.355446,60.259703 109.271287,64.0346535 108.13396,67.7920792 L106.286139,67.7920792 C105.484158,64.7326733 104.444554,61.7326733 103.794059,58.6405941 C103.018812,61.729703 101.943564,64.7356436 101.058416,67.7920792 L99.2732673,67.7920792 C98.1564356,64.0287129 97.0158416,60.2739604 95.9138614,56.5049505 L95.9138614,56.5049505 Z M0,60.5861386 C3.5319802,60.5742574 7.06336634,60.6306931 10.5950495,60.6247525 C10.5950495,64.0405941 10.6039604,67.4564356 10.5983168,70.8722772 C7.06960396,70.3492079 3.53465347,69.8920792 0,69.4138614 L0,60.5861386 Z M11.860396,60.7227723 L25.9336634,60.7227723 C25.939604,64.8188119 25.9336634,68.9148515 25.9336634,73.0138614 C21.2554455,72.3128713 16.5683168,71.6623762 11.8811881,71.0270297 C11.8752475,67.5930693 11.8663366,64.1594059 11.860396,60.7227723 L11.860396,60.7227723 Z" id="Shape"></path>
        </g>
    </g>
</svg>