<svg xmlns="http://www.w3.org/2000/svg" width="114" height="51" viewBox="0 0 114 51">
  <defs>
    <style>
      .cls-1 {
        fill: #171717;
        fill-rule: evenodd;
      }
    </style>
  </defs>
  <path id="jaguar" class="cls-1" d="M1036.51,623.781l0.33,0.008a3.705,3.705,0,0,0,1.51-.391,1.528,1.528,0,0,0,.44-0.245c-0.36,0-.95-0.009-1.16-0.009a1.786,1.786,0,0,0-1.45.585A0.537,0.537,0,0,0,1036.51,623.781Zm88.21,25.245a1.757,1.757,0,0,0-2.02-.807c-0.71.145-1.51,0.948-2.7,1.3a7.349,7.349,0,0,1-4.6-.122c-3.93-1.695-16.59-8.909-23.03-12.061,0,0-7.38-3.686-18.23-7.964,0,0-20.99-9.184-35.64-8.319,0,0-7.6.336-9.98,3.774a0.956,0.956,0,0,0-.17.956,0.268,0.268,0,0,1-.05.237,13.142,13.142,0,0,0-1.93,2.152,1.09,1.09,0,0,0-.01,1.42,1.59,1.59,0,0,1,.3.307,7.665,7.665,0,0,0,.58,1.018,2.147,2.147,0,0,0,1.95.913,0.577,0.577,0,0,0,.42-0.191,1.95,1.95,0,0,0,1.25.453,8.867,8.867,0,0,1-.48-1.243,2,2,0,0,1,.07-0.765,3.17,3.17,0,0,1,.69-1.283,1.2,1.2,0,0,1,1.44-.179,2.594,2.594,0,0,1-.47,3.88,0.535,0.535,0,0,1-.14.015,2.869,2.869,0,0,1-.96-0.346,1.7,1.7,0,0,0,.08.445c0.05,0.206.12,0.429,0.18,0.6,0,0-.12.215-0.2,0.34a0.655,0.655,0,0,0,.04.806,5.164,5.164,0,0,0,2.16.807,1.066,1.066,0,0,0,1.01-.448,11.945,11.945,0,0,1,1.52-1.887,8.357,8.357,0,0,1,3.73-1.8c0.15-.019,2.53-0.679,6.59,2.549-1.16.092-2.54,0.367-3.59,0.554-3,.533-4.93,3.354-5.49,4.5a2.736,2.736,0,0,0,1.52,4.027,5.513,5.513,0,0,0,4.21-3.229,1.449,1.449,0,0,1,1.82-.893c0.86,0.279,8.5,2.938,10.22,3.388,0,0,5.11,1.325,7.04-1.016,3.08,1.006,5.97,1.493,13.54.52a15.625,15.625,0,0,1,2.34-.131,5.633,5.633,0,0,1,3.88,2.093c1.99,3.173,4.51,9.474,13.28,8.707l3.96-.358c2.42-.143,4.39-0.238,6.39.811a9.268,9.268,0,0,1,2.83,2.024c2.02,1.912,3.88,3.984,6.35,2.853a6.511,6.511,0,0,0,1.86-1.962,2.8,2.8,0,0,0-1.2-1.981c2.25,0.531,7.31.875,9.27-2.537A2.133,2.133,0,0,0,1124.72,649.026Zm-86.18-27.334c14.32-.845,35.13,8.174,35.34,8.266l0.01,0,0.01,0c1.75,0.691,3.4,1.366,4.96,2.011-0.37-.144-2.26-0.892-2.26-0.892-3.05-1.2-8.64-3.035-8.69-3.049-7.33-2.521-10.53-2.965-10.76-2.994-0.87-.141-1.2-0.179-1.22-0.179l-1.32-.152s0.73,1.169.73,1.176a23.23,23.23,0,0,0-11.68-3.837h-0.01a7.341,7.341,0,0,0-3.18.759c0.09-.177.42-0.783,0.42-0.783l-1.03-.045a30.272,30.272,0,0,0-4.28.081A24.415,24.415,0,0,1,1038.54,621.692Zm-11.89,6.774a12.452,12.452,0,0,1,1.94-2.174,0.217,0.217,0,0,0,.05-0.039,0.176,0.176,0,0,1,.04-0.05,0.976,0.976,0,0,0,.27.221A13.866,13.866,0,0,0,1026.65,628.466Zm6.29-.373a1.605,1.605,0,0,0-1.2-.258,0.95,0.95,0,0,1,.44-0.143c0.18-.022,1.04-0.054,1.43,1.275A2.083,2.083,0,0,0,1032.94,628.093Zm90.98,22.542a4.233,4.233,0,0,1-2.29,2.054,11.569,11.569,0,0,1-5.2.445,9.384,9.384,0,0,1-5.3-2.862c-0.78-.812-1.74-1.734-2.63-2.645a4.941,4.941,0,0,0-2.94-1.575c-1.67-.222-5.73-0.333-7.25-0.837-1.02-.339-2.25-1.028-3.89-3.442a6.527,6.527,0,0,0-2.42-2.15,5.963,5.963,0,0,1,1.29,1.473c0.67,1.192,1.01,2.06,1.37,2.7a5.692,5.692,0,0,0,1.41,1.7,3.742,3.742,0,0,0,2.1.877c0.8,0.134,3.52.108,5.85,0.075a5.43,5.43,0,0,1,4.07,1.333c0.7,0.584,1.9,2.256,2.63,2.991a10.874,10.874,0,0,0,3.25,2.626c0.6,0.3,1.59,1.049,1.54,1.768-0.78.777-1.75,0.981-4.07,0.365a3.4,3.4,0,0,0,3.46.828,2.66,2.66,0,0,1-1.88.709c-2.18-.121-4.31-2.787-5.5-3.772a23.587,23.587,0,0,0-2.56-2c-2.34-1.614-7.59-1.159-7.59-1.159l-3.85.2c-7.51.565-10.66-6.056-11.49-7.437a11.214,11.214,0,0,0-.8-1.18c-0.38-.509-2.43-3.158-4.51-4.028,0,0,2.04,1.746,1.92,2.9a6.3,6.3,0,0,0-3.14-.064c-9.89,1.4-13.25-1.061-13.25-1.061a5.794,5.794,0,0,0-.93-4c0.77,0.242,5.63,1.877,10.24.944,0,0-7.51.04-12.78-4.144,0,0,3.28,4.09,2.5,6.768,0,0-.53,2.853-6.25,1.7-0.61-.12-1.33-0.324-9.88-2.685-2.01-.6-2.71.355-3.07,0.929a3.335,3.335,0,0,1-1.51,2.133,2,2,0,0,1-1.59-2.92c-1.67,2.373.07,3.42,0.63,3.5-0.33.16-.65,0.275-0.91,0.372a2.482,2.482,0,0,1-.96-3.384c1.69-2.93,3.41-3.87,6.56-4.156a16.171,16.171,0,0,1,3.39-.109c2.29,0.314,3.72,1.6,7.14,1.928-7.26-2.129-7.28-6.315-7.3-6.394v-0.008a5.46,5.46,0,0,0,.17,3.528c-0.1-.036-1.69-1.075-2.29-1.441a13.45,13.45,0,0,0-4.67-1.861,1.872,1.872,0,0,1-1.26-1.155c-0.03-.054-0.06-0.1-0.09-0.153-1.21-2.044-2.4-2.085-2.4-2.085a3.87,3.87,0,0,1,.65,1.762,8.559,8.559,0,0,1,.07.888c-0.02,2.182-2.56,2.871-2.56,2.871-1.77,2.237-1.68,2.283-2.08,2.341a3.324,3.324,0,0,1-1.25-.383,0.194,0.194,0,0,1-.08-0.2,0.382,0.382,0,0,1,.13-0.221c0.34-.262.61-0.523,0.61-0.523,1.87-1.9,2.09-2.835,1.86-4.07-0.47-2.477-2.25-2.189-2.25-2.189a1.539,1.539,0,0,0-1.21.793c-0.3.457-.93,1.854-0.93,1.854a1.59,1.59,0,0,1-.98,1.058,1.92,1.92,0,0,1-.31.011,1.672,1.672,0,0,1-1.06-.574,0.862,0.862,0,0,1-.08-0.082,1.24,1.24,0,0,1-.15-1.356,3.161,3.161,0,0,1,2.38-2c0.2-.025.86-0.121,0.86-0.121a4.059,4.059,0,0,0,2.69-2.2,13.857,13.857,0,0,0-1.83.066,2.407,2.407,0,0,0-1.63,1.632c-1.02.233-1-.645-0.82-0.914,0.16-.247.77-1.3,4.71-2.211a20.473,20.473,0,0,1,6.1-.4l-0.17.317a3.818,3.818,0,0,1-4.23,1.591s0.02,1.067,2.63,1.449c0,0,2.37.419,6.37,3.627,0,0-1.91-3.791-5.17-4.773,0,0-.4-0.087-0.2-0.341a7.365,7.365,0,0,1,4.59-1.8s8.33,0.178,13.63,5.692a9.311,9.311,0,0,0-1.07-2.318l-0.35-.566s0.32,0.037,1.19.178c0,0,3.18.395,10.65,2.963,0,0,5.6,1.832,8.66,3.043,4.61,1.826,16.15,6.276,23.5,10.268,1.31,0.712,14.62,7.618,14.62,7.618a8.555,8.555,0,0,0,6.23.646c0.83-.313,2.33-1.464,2.99-0.813A1.119,1.119,0,0,1,1123.92,650.635Zm-93.68-24.527s0.08-.229.1-0.284a1.055,1.055,0,0,1,.78-0.707s0.32-.019.8-0.019a1.46,1.46,0,0,1-1.17.922A4.141,4.141,0,0,1,1030.24,626.108Zm8.84-.662a6.236,6.236,0,0,1,2.08,1.141,11.005,11.005,0,0,0-2.98-1.248h-0.02c-0.29-.045-0.53-0.1-0.75-0.151a4.615,4.615,0,0,0,.99-0.321v0.017A0.957,0.957,0,0,0,1039.08,625.446Zm-3.46,43.169h7.98l-4-4.619Zm8.99,1.166h-9.99l-1.66,1.92h-1.95l7.85-9.019h3.33l7.86,9.019h-3.78Zm50-1.166h7.98l-4-4.619Zm8.98,1.166h-9.99l-1.65,1.92h-1.96l7.86-9.019h3.32l7.87,9.019h-3.78Zm-74.12-7.1v4.4a3.871,3.871,0,0,1-1.01,2.977c-1.19,1.207-3.46,1.643-6.68,1.643H1015v-1.21h6.25c1.91,0,3.21-.316,3.99-1.084a3.4,3.4,0,0,0,.85-2.6v-4.129h3.38Zm35.26,7.815V667.56h3.36V671.7h-9.76a11.941,11.941,0,0,1-4.36-.648,3.869,3.869,0,0,1-2.65-3.878,3.934,3.934,0,0,1,2.06-3.55,9.475,9.475,0,0,1,4.89-.943h9.47v1.2h-8.42a5.247,5.247,0,0,0-3.54.878,3.393,3.393,0,0,0,.06,4.908,5.555,5.555,0,0,0,3.51.823h5.38Zm58.96-1.98a7.314,7.314,0,0,0,3.17-.677,2.448,2.448,0,0,0,1.26-2.232,2.409,2.409,0,0,0-1.52-2.409,10.23,10.23,0,0,0-4.11-.515h-10.46V671.7h3.37v-3.125h4.43l5.06,3.125h4.1Zm-1.64-4.7a3.653,3.653,0,0,1,2.21.4,1.512,1.512,0,0,1,.49,1.335v0.17a1.515,1.515,0,0,1-.57,1.356,3.689,3.689,0,0,1-2.09.355h-6.69v-3.62h6.65Zm-33.54-1.138v4.5a4.42,4.42,0,0,1-.72,2.851c-0.96,1.253-2.72,1.971-7.62,1.971h-0.05c-4.87,0-6.64-.721-7.6-1.97a4.424,4.424,0,0,1-.71-2.852v-4.494h3.37v4.366a3.93,3.93,0,0,0,.58,2.464c0.73,1.023,1.99,1.392,4.25,1.392h0.29c2.37,0,3.52-.369,4.25-1.392a3.987,3.987,0,0,0,.58-2.461v-4.371h3.38Z" transform="translate(-1015 -621)"/>
</svg>
