<svg xmlns="http://www.w3.org/2000/svg" width="161" height="44" viewBox="0 0 161 44">
  <defs>
    <style>
      .cls-1 {
        fill: #fff;
        fill-rule: evenodd;
      }
    </style>
  </defs>
  <path id="Intellectsoft_logo" data-name="Intellectsoft logo" class="cls-1" d="M121.948,60A22,22,0,1,0,143.9,82,22.039,22.039,0,0,0,121.948,60Zm-9.876,26.29c0.219-.66,3.182-11.44,3.4-12.1s0.329-1.1,1.1-1.1h3.622c0.439,0,.632.437,0.439,1.1s-3.185,11.336-3.4,12.1a1.208,1.208,0,0,1-1.04,1.1h-3.563C112.078,87.39,111.852,87.06,112.072,86.29ZM132.761,73.7a1.228,1.228,0,0,1-.938,1.145h-3.29a1.315,1.315,0,0,0-1.1,1.1L123.814,89.7a1.339,1.339,0,0,1-1.207,1.1H111.523a0.532,0.532,0,0,1-.659-0.511,1.354,1.354,0,0,1,1.1-1.352h4.913a2.047,2.047,0,0,0,1.891-1.54c0.272-1.055,3.4-12.437,3.622-13.1a1.278,1.278,0,0,1,1.207-1.1h8.56C132.594,73.2,132.812,73.246,132.761,73.7Zm22.32,0.541h-1.214V72.52h1.214v1.719Zm0,14.243h-1.214V77.411h1.214V88.482Zm4.461-11.071,0.113,1.933a3.947,3.947,0,0,1,1.434-1.581,3.987,3.987,0,0,1,2.138-.558,3.4,3.4,0,0,1,2.736,1.1,5.213,5.213,0,0,1,.939,3.433v6.743h-1.225V81.736a4.029,4.029,0,0,0-.709-2.7,2.571,2.571,0,0,0-2.016-.789,3.15,3.15,0,0,0-2.1.682,3.793,3.793,0,0,0-1.169,1.81v7.741H158.46V77.411h1.082Zm12.475-2.835v2.835h2.429v1h-2.429v7.213a2.363,2.363,0,0,0,.393,1.54,1.311,1.311,0,0,0,1.046.456q0.3,0,.577-0.026t0.648-.087l0.184,0.911a3.2,3.2,0,0,1-.746.2,5.486,5.486,0,0,1-.878.072,2.284,2.284,0,0,1-1.811-.737,3.472,3.472,0,0,1-.649-2.333V78.414h-1.909v-1h1.909V74.576h1.236Zm9.166,14.12a4.428,4.428,0,0,1-3.445-1.535,5.616,5.616,0,0,1-1.373-3.888V82.711a5.787,5.787,0,0,1,1.363-3.939,4.225,4.225,0,0,1,3.3-1.565,4.087,4.087,0,0,1,3.195,1.289,4.935,4.935,0,0,1,1.164,3.438v1.044h-7.8v0.3a4.891,4.891,0,0,0,.99,3.124,3.155,3.155,0,0,0,2.6,1.255,5.334,5.334,0,0,0,1.95-.317,3.815,3.815,0,0,0,1.378-.911l0.521,0.84a4.421,4.421,0,0,1-1.577,1.045A6.029,6.029,0,0,1,181.183,88.7ZM181.03,78.25a2.919,2.919,0,0,0-2.276,1.036,4.45,4.45,0,0,0-1.072,2.6l0.02,0.051h6.472V81.628a3.527,3.527,0,0,0-.847-2.408A2.9,2.9,0,0,0,181.03,78.25Zm8.146,10.232h-1.215V72.52h1.215V88.482Zm4.747,0h-1.215V72.52h1.215V88.482Zm7.523,0.215A4.428,4.428,0,0,1,198,87.162a5.616,5.616,0,0,1-1.373-3.888V82.711a5.782,5.782,0,0,1,1.363-3.939,4.223,4.223,0,0,1,3.3-1.565,4.087,4.087,0,0,1,3.195,1.289,4.935,4.935,0,0,1,1.164,3.438v1.044h-7.8v0.3a4.891,4.891,0,0,0,.99,3.124,3.155,3.155,0,0,0,2.6,1.255,5.334,5.334,0,0,0,1.95-.317,3.823,3.823,0,0,0,1.378-.911l0.521,0.84a4.43,4.43,0,0,1-1.577,1.045A6.029,6.029,0,0,1,201.446,88.7ZM201.293,78.25a2.919,2.919,0,0,0-2.276,1.036,4.45,4.45,0,0,0-1.072,2.6l0.02,0.051h6.472V81.628a3.527,3.527,0,0,0-.847-2.408A2.9,2.9,0,0,0,201.293,78.25Zm10.872,9.4a3.491,3.491,0,0,0,2.144-.693,2.268,2.268,0,0,0,.928-1.926h1.082L216.34,85.1a3.04,3.04,0,0,1-1.225,2.568,4.551,4.551,0,0,1-2.95,1.034,4.193,4.193,0,0,1-3.486-1.55,6.21,6.21,0,0,1-1.231-3.985V82.732a6.184,6.184,0,0,1,1.236-3.97,4.178,4.178,0,0,1,3.47-1.555,4.39,4.39,0,0,1,3.027,1.074A3.481,3.481,0,0,1,216.35,81.1l-0.02.061h-1.093a2.7,2.7,0,0,0-.893-2.123,3.181,3.181,0,0,0-2.19-.793,2.942,2.942,0,0,0-2.628,1.272,5.641,5.641,0,0,0-.853,3.2v0.43a5.7,5.7,0,0,0,.848,3.23A2.955,2.955,0,0,0,212.165,87.653Zm8.656-13.077v2.835h2.43v1h-2.43v7.213a2.357,2.357,0,0,0,.394,1.54,1.311,1.311,0,0,0,1.046.456q0.3,0,.576-0.026c0.187-.017.4-0.046,0.649-0.087l0.183,0.911a3.177,3.177,0,0,1-.745.2,5.486,5.486,0,0,1-.878.072,2.281,2.281,0,0,1-1.811-.737,3.472,3.472,0,0,1-.649-2.333V78.414h-1.909v-1h1.909V74.576h1.235Zm10.525,10.856a1.045,1.045,0,0,0-.475-0.849,4.823,4.823,0,0,0-1.761-.635,7.081,7.081,0,0,1-2.955-1.182,2.566,2.566,0,0,1-1-2.133,3.051,3.051,0,0,1,1.2-2.43,4.862,4.862,0,0,1,3.211-1,5.265,5.265,0,0,1,3.363.992,2.934,2.934,0,0,1,1.2,2.507l-0.021.061h-2.879a1.462,1.462,0,0,0-.423-1.084,2.029,2.029,0,0,0-2.379-.067,1.117,1.117,0,0,0-.413.885,1,1,0,0,0,.434.839,4.717,4.717,0,0,0,1.761.583,7.124,7.124,0,0,1,3.031,1.2,2.643,2.643,0,0,1,.991,2.184,2.912,2.912,0,0,1-1.276,2.44,5.523,5.523,0,0,1-3.369.947,5.111,5.111,0,0,1-3.486-1.121,3.135,3.135,0,0,1-1.22-2.553l0.02-.061h2.726a1.552,1.552,0,0,0,.582,1.289,2.4,2.4,0,0,0,1.439.4,2.067,2.067,0,0,0,1.261-.328A1.056,1.056,0,0,0,231.346,85.433Zm4.348-2.589a5.953,5.953,0,0,1,1.378-4.057,4.8,4.8,0,0,1,3.818-1.581,4.849,4.849,0,0,1,3.838,1.576,5.916,5.916,0,0,1,1.389,4.062v0.215a5.931,5.931,0,0,1-1.383,4.067,5.45,5.45,0,0,1-7.656,0,5.922,5.922,0,0,1-1.384-4.067V82.844Zm2.971,0.21a4.811,4.811,0,0,0,.531,2.426,1.832,1.832,0,0,0,1.715.915,1.814,1.814,0,0,0,1.689-.919,4.773,4.773,0,0,0,.536-2.421V82.839a4.728,4.728,0,0,0-.541-2.4,1.831,1.831,0,0,0-1.705-.93,1.807,1.807,0,0,0-1.689.935,4.766,4.766,0,0,0-.536,2.4v0.215Zm10.065,5.428V79.508h-1.644v-2.1h1.644V76.183a3.747,3.747,0,0,1,1.072-2.87,4.225,4.225,0,0,1,3.011-1.008,5.467,5.467,0,0,1,.771.056q0.393,0.056.862,0.159l-0.255,2.22c-0.163-.027-0.322-0.051-0.474-0.071a4.078,4.078,0,0,0-.536-0.031,1.43,1.43,0,0,0-1.1.4,1.62,1.62,0,0,0-.372,1.146v1.228h2.194v2.1h-2.194v8.974H248.73ZM258.969,74.7v2.712h1.857v2.1h-1.857v5.638a1.3,1.3,0,0,0,.265.921,0.944,0.944,0,0,0,.715.276,2.777,2.777,0,0,0,.4-0.026,3.552,3.552,0,0,0,.393-0.087L261,88.39a5.947,5.947,0,0,1-.878.23,5.272,5.272,0,0,1-.929.077,3.173,3.173,0,0,1-2.373-.849,3.729,3.729,0,0,1-.832-2.691V79.508h-1.613v-2.1h1.613V74.7h2.981Z" transform="translate(-100 -60)"/>
</svg>
