<svg xmlns="http://www.w3.org/2000/svg" preserveAspectRatio="xMidYMid" width="25" height="30" viewBox="0 0 25 30"><defs><style>.cls-2{fill:#000}</style></defs><path d="M22.836 15.533a5.684 5.684 0 0 1-.883 2.118l1.521 1.501-1.555 1.529-1.519-1.5a5.786 5.786 0 0 1-2.143.873v2.127h-2.198v-2.127a5.817 5.817 0 0 1-2.144-.873l-1.521 1.5-1.554-1.53 1.52-1.502a5.673 5.673 0 0 1-.881-2.117H9.325v-2.17h2.155a5.64 5.64 0 0 1 .88-2.116l-1.519-1.505 1.555-1.531 1.516 1.502a5.821 5.821 0 0 1 2.144-.873V6.71h2.199v2.129c.781.15 1.51.446 2.143.873l1.519-1.502 1.555 1.53-1.522 1.504c.43.628.733 1.344.883 2.118h2.158v2.171h-2.155zm-5.679-3.454c-1.322 0-2.396 1.062-2.396 2.368 0 1.306 1.074 2.361 2.396 2.361 1.322 0 2.392-1.051 2.392-2.361a2.38 2.38 0 0 0-2.392-2.368zM7.77 21.642H3.527v-2.554H7.77v2.554zM3.527 5.695H7.77v2.557H3.527V5.695zm4.243 9.1H3.527v-2.556H7.77v2.556zm8.281-11.111H1.907v20.039h14.147v-.035h1.898v3.033c0 1.801-1.494 3.271-3.313 3.271H3.321c-1.822 0-3.312-1.47-3.312-3.271V3.275c0-1.798 1.49-3.27 3.312-3.27h11.318c1.819 0 3.313 1.472 3.313 3.27v1.908h-1.901V3.684zM8.978 28.356c.84 0 1.519-.67 1.519-1.498s-.679-1.498-1.519-1.498c-.839 0-1.516.67-1.516 1.498s.677 1.498 1.516 1.498z" id="path-1" class="cls-2" fill-rule="evenodd"/></svg>