<svg height="51" width="96" xmlns="http://www.w3.org/2000/svg" viewBox="0 0 96 51"><path fill-rule="evenodd" d="M53.19 1.61c-1.22-.3-2.56-.07-2.53-.02-.13-.05-.38-.14-.52-.11-.02.01-.04.02-.05.02.03.01.06.02.09.04-.09.03-.12-.01-.19-.03.04.06.03.05 0 .12 0 0 0 .02.01.02.19.05.39.13.66.1v-.01c-.06-.07-.2-.08-.26-.13h-.03v-.02c.18.04.33.12.46.2.02-.01.04-.03.05-.04-.04.08-.1.1-.07.18-.3-.06-.51-.16-.62.17.02.03.05.05.09.08-.02.01-.05.02-.07.03-.01.02-.01.05-.02.07.12.11.19.17.33.23l.03.18c.04.02.04.02.08.01.07.06.02.11.05.15.08.1.39.25.46.35.02.03 0 .08.06.12.11.07.24.12.33.2.04.02.01.01 0 .04.22.11.55.1.74.21.03.03.01.01.01.07.18.05.38.09.57.15.01 0 .02-.01.04-.02.01-.04.01-.04-.01-.09.12-.07.14-.19.22-.28-.04-.07-.05-.07-.04-.17.16-.02.21-.11.34-.15-.02-.07-.01-.08-.07-.12.04-.02.03-.01.08 0 .01-.01.03-.02.05-.04-.05-.03-.09-.07-.13-.11h-.03V3c.08.02.15.03.23.02.02 0 .03-.01.04-.01-.02-.02-.04-.05-.06-.08 0 0 .01 0 .01-.01.11.07.17.07.34.07 0-.04.02-.08.02-.11.03 0 .05 0 .07-.01a.36.36 0 0 1-.07.1c.01.02.02.03.02.04.33.07.55-.06.86-.11v-.08c.37-.11.9.12 1.26.09.12-.01-1.33-.93-2.83-1.3m-6.93.67c.17.03.4.05.59.14.2.09.24.22.45.25-.05.03-.07.01-.13-.01.04.08.09.13.22.15-.03.01-.05.01-.06.03.06.05.09.08.16.12h.06c-.02-.06-.01-.05-.06-.07v-.01c.41.13.78.42 1.24.49.02-.07-.01-.03.05-.04v-.01c-.14-.18-.45-.38-.67-.47 0-.03-.01-.03-.02-.06.09.05.18.1.27.14v-.05c.25.15.54.32.79.47.02-.01.04-.01.06-.01h.03v-.02c-.08-.05-.13-.04-.19-.13.04.01.07.02.11.04h.02c0-.05-.01-.06-.04-.11 0-.01 0-.02.01-.02.03.01.03.01.04.05.08-.01.06-.01.1-.07.02.06.03.06.07.09h.01c-.01-.02-.01-.04-.03-.06h.1v-.02a.722.722 0 0 0-.26-.14c0-.01-.01-.02-.01-.03.02-.01.05-.01.08-.01v-.02c-.07-.05-.32-.25-.49-.23 0-.08-.04-.19-.15-.21h.12c.01-.01.01-.02.01-.03-.01-.03-.03-.03-.05-.06.18.02.34.16.5.17-.06.18.3.23.42.33.09-.01.09-.04.16-.04-.02-.01-.03-.03-.04-.04.02-.04.01-.02.04-.05.07.03.14.05.21.02v.06h.09c-.01-.03-.03-.05-.04-.06.05-.02.01-.01.06 0 .01-.01.03-.01.04-.01-.02-.03-.04-.05-.05-.08.12.03.17.03.27.01-.03-.13-.18-.17-.33-.16-.01-.04.01-.02.04-.04h-.13c-.05-.02-.09-.11-.24-.11.03-.03 0-.02.06-.03a.472.472 0 0 0-.27-.11c-.01-.01-.02-.01-.03-.03l.06-.03c-.15-.03-.18-.06-.28-.01-.08-.07-.07-.11-.22-.13.01-.01.02-.02.03-.04-.11-.03-.22-.05-.33-.08v-.01c.03-.01.06-.01.08-.02.01-.05.01-.03-.01-.07.1.02.2.05.31.08.01-.01.01-.02.03-.02a.358.358 0 0 0-.25-.11c0-.01.01-.03.01-.04.05.01.1.04.15.05 0-.01.01-.01.02-.01V1.7c-.13-.09-.15-.09-.35-.08.05-.06.06-.04.14-.05v-.01c-.14-.11-.34-.06-.49-.14 0 0-.13-.15-.16-.16-.1-.06-.45-.13-.52-.13.01-.02.02-.04.03-.05-.14-.06-.27-.1-.41-.17h-.03.03c.03.01.07.01.11.01V.9c-.07-.1-.7.15-.81.32-.04-.03.25.23.18.21-.02.02-.02.03-.04.04h-.03c.05.07.34.05.4.05.01.02.02.03.02.04-.05.02-.07-.02-.13 0h-.04c.04.09.13.07.23.03.01.04.02.08.03.11-.06-.02-.09-.03-.17-.03.02.1.19.12.31.13.01-.02.01-.04.01-.06-.04-.02-.09-.02-.13-.03 0-.03.01-.05.02-.08.07.03.11.07.23.09.02.08.04.15.06.22-.22.03-.44.05-.65.07-.01.01-.01.02-.02.03.05.04.1.09.14.13v.01c-.15-.04-.32-.01-.46-.03-.3-.05-.54-.21-.83-.03 0 .01.01.03.01.04.09.16.35.1.53.12m-9.54 30.09c.16.27.31.66.53.88.45.46 1.18.7 1.47 1.3.13.14.27.27.41.4-.01.06-.02.14-.02.19.02.19.1.45.07.65-.02.09-.05.21-.04.3.02.07.03.13.04.19-.03.18-.11.38-.11.62-.06.02-.03.01-.1 0 0 .06-.01.14-.01.2h.07c-.02.12-.03.25-.05.37.02.13.03.25.04.38-.01.04-.09.06-.1.14.01.04.02.1.02.15-.01.24-.07.46-.14.61-.08.15 0 .31-.13.4.02.2.09.3.07.51-.05.02-.03.02-.09.02-.04.46.2.72.05 1.07.02 0 .08.15.06.19-.12.32-.26.61-.28.98a.176.176 0 0 0-.05-.04v.19a.487.487 0 0 0-.11-.04c-.01 0-.02 0-.02.01.03.26.15.53.26.76-.02.29-.19.37.03.71v.06a.304.304 0 0 1-.07-.05c-.04.14.03.28 0 .45.04.05.09.06.17.09.02 0 .03 0 .05-.01.02-.15.01-.33-.06-.44.01-.01.02-.02.02-.03.04.01.07.03.1.05h.02c-.02-.07.02-.06-.04-.06.02-.02.02-.04.03-.06.02.03.04.06.08.08-.02.03-.04.04-.05.06.07.05.1.21.01.24.04.02.05.04.08.06-.04.24.01.41 0 .66h-.03c-.01-.07-.07-.29-.04-.31a.317.317 0 0 0-.19-.15c-.05.06-.08.15-.09.25l.12.12c-.01.06-.01.12-.01.19h-.1v.02c.01.02.02.05.04.08l-.11.08v.06c.04.02.06.04.09.06.02-.02.05-.04.06-.06.07.06.19.08.26.15-.03-.01-.04-.02-.06-.02.02.04.02.03.04.06-.01.04-.02.09-.04.13-.05-.03-.06-.04-.14-.05v.01c.01.02.03.03.04.04-.02.01-.05.03-.07.04.08.14.1.35.19.47.06.03.12.06.19.1-.04-.02-.08-.02-.11-.03v.01c.01.06.03.11.04.17.03.01.04.02.08.03.01-.04.03-.09.05-.13a.3.3 0 0 0 .04.1h-.05c-.01.01-.02.01-.02.02.05.07.07.11.07.23.06-.01.11-.03.17-.05.03.03.02.04.08.05l-.03.06c-.04-.02-.09-.03-.14-.04-.01 0-.01.01-.01.02.05.1.12.15.21.2a.219.219 0 0 0-.03-.05c.08.06.15.12.23.19v.02c-.07-.04-.14-.07-.22-.11.1.13.17.17.29.19-.02.04 0 0-.02.05.11.09.55.39.68.37 0 .05 0 .01-.01.05.12.13.55.28.75.34v-.02a.902.902 0 0 1-.09-.1c.15.06.24.01.34.1v-.06c.07.02.13.02.19.03h.02c0-.01.01-.01.02-.03 0-.01-.01-.02-.01-.04-.37-.05-.5-.37-.8-.46.02-.02.03-.03.04-.05-.09-.1-.2-.09-.28-.18-.01 0-.02-.01-.02-.02.01 0 .02-.02.04-.02.07.02.14.05.2.09v-.03c-.11-.14-.28-.23-.3-.47.01-.01.01-.02.01-.03.07-.01.13-.03.2-.04.05-.04.03-.12.02-.22.09-.07.27-.1.35-.18.02-.04.02-.13.01-.22-.23-.15-.57-.19-.49-.52.11-.09.25-.12.38-.07h.06c-.01-.05.01-.02-.04-.05.03-.06.04-.05.1-.07.01-.09-.02-.16-.04-.24.05-.09.1-.13.24-.13-.03-.06-.11-.08-.17-.13 0 0-.01-.01-.02-.01.03-.01.06-.02.1-.04.07.05.09.07.13.15.04.01.08.02.12.02.01-.02.02-.03.04-.04 0-.1-.01-.13-.04-.17-.02-.02-.02-.03-.04-.04-.05 0-.1 0-.14.01.01.02.04.04.06.05v.02c-.02-.01-.06-.02-.09-.03-.05-.03-.05-.07-.14-.1-.05-.08-.05-.25-.09-.35.11-.13.35.13.49.17.1-.01.22-.01.33-.02.03-.05.05-.1.07-.15l-.06.03a.265.265 0 0 0-.06-.05c.08-.11.17-.21.11-.35l.06.03h.01c-.01-.03-.01-.05-.03-.08.2.08 1.09.21 1.33.06.06-.02.27-.28.35-.35v-.19c-.12-.05-.17-.05-.19-.2.04-.03.07-.07.11-.1-.06-.25-.3-.27-.42-.47.02-.02.04-.05.06-.07.01 0 .03-.01.04-.01.04.05.08.07.1.15.09.02.17.04.27.06.07.06.17.22.27.24.08.02.15-.05.24 0 .06.03.11.11.22.1.28-.03.33-.16.49-.28.1-.04.2-.09.3-.13.07-.09.14-.19.22-.28l.54-.24c.22-.14.34-.41.55-.57.25-.19.57-.23.67-.59-.02 0-.04-.01-.05-.02.03-.13.04-.31.12-.5.06-.16 1.03-.66 1.28-.58.06.04.12.09.17.13.01-.03.02-.06.03-.1-.02-.01-.04-.01-.06-.01v-.02c.13-.03.25-.22.38-.18.04-.04.04-.03 0-.07v-.04c.25 0 .75.1 1 .22.03-.03.03-.03.07-.05-.01-.22.25-.14.42-.21.1-.09.11-.35.27-.42.26-.14.24-.22.43-.34.07-.05.16-.04.21-.12.18-.31.06-.44.44-.58.06-.21.11-.37.23-.53.07-.06.12-.13.18-.21.07-.18.03-.33.1-.5.08-.18.23-.3.25-.53.17-.1.32-.06.48-.17.24-.21.48-.42.71-.63.09-.02.17-.04.26-.05.1-.09.21-.17.31-.26.39-.24.7-.46.85-.95 0-.09.01-.19.02-.28.03-.18.24-1.33.23-1.33-10.72-.02-18.68.11-18.68.11m.42-20.27c.1.08.39-.09.54-.09.06.08.2.42.27.43.12.27-.2.4-.17.6.01 0 .02.01.03.02.05-.06.05-.05.03-.12.01 0 .02 0 .03-.01.02.07-.01.06.06.07-.05.04-.09.07-.15.11-.03.05.01.2.03.32.02.01.05.02.07.02.01-.01.01-.03.02-.05.01.01.02.02.02.03-.06.07-.06.1-.1.16.04.01.02 0 .06-.01.03.05.04.08.02.16.01.21.23.21.13.44.07.1.32.03.38.04 0-.17.22-.35.29-.52.1-.22.01-.52.01-.77.03-.02.05-.02.09-.04-.04-.19-.07-.39-.1-.59.07-.76.67-.94 1.27-1.12.29-.09.18-.34.7-.23.14-.25.58-.2.83-.27.01 0 .01-.02.01-.02-.05-.04-.03-.02-.06-.08v-.01c.06-.05.28-.1.36-.1.02-.03.05-.06.07-.1-.05-.06-.14-.1-.25-.11v-.01c.09.01.18.02.27.04v.11c0-.01.04-.29.04-.44a.689.689 0 0 0-.08-.03c-.05-.03-.01 0-.01-.07 0-.06.09-.19.14-.26-.04-.03 0-.26 0-.32.07-.07.13-.12.2-.18-.16.22-.08.23-.13.49.04.01.08.03.12.04-.08.08-.16.1-.21.21l-.02.02c.03.03.03.02.08.04.07-.18.4-.29.55-.52-.09-.1-.05-.15-.08-.28.06.06.09.11.19.14-.02.02-.04.04-.06.07v.01c.22.03.52-.25.61-.41-.01-.04 0-.02-.04-.05l-.01-.02c.25-.04.61.04.88.01-.02-.03-.04-.07-.07-.09-.21.02-.39-.05-.6-.01.24-.19 1 .09 1.33-.04.04.08.12.07.28.08.01-.03.04-.05.06-.08-.01-.02-.03-.04-.05-.06-.03.07 0 .08-.08.08a.36.36 0 0 0-.11-.02c-.03-.08.01-.2-.14-.22v-.03c.07-.01.14-.03.2-.05a.901.901 0 0 0-.05-.09c.09-.11.29-.18.37-.26.22.04.36.03.59-.07.03.03.02.02.02.07.27-.02.53 0 .82-.07-.02-.03-.03-.06-.04-.09.03 0 .17.06.22.07.21.04.62 0 .8-.06.01 0 .02.01.03.03-.07.01-.13.03-.2.05 0 0-.01.01-.01.02.07.01.15.03.22.05-.27.03-.54.08-.8.13-.01 0-.01.02-.02.02.04 0 .07-.01.1-.02-.02.01-.04.02-.06.02-.06.08-.08.09-.08.23.02.01.06.01.08.01.06.07.02.11.13.12.2.01.38-.12.59-.13.03-.05.01-.07.07-.1.01.02.02.03.03.05.02-.02.04-.04.06-.05.01.09.06.09.13.11.12-.13.87.04 1.09-.03h.03c-.04-.04-.08-.06-.17-.06.04-.02.04-.02.07-.06.17.06.36.02.6.03v-.04c0-.08-.13-.16-.22-.16v-.02c.04-.04.08-.08.11-.12-.03-.05-.02-.02-.02-.09-.03-.01-.06-.01-.09-.02-.13.07-.46.15-.46.35-.1.01-.15 0-.15-.11-.33.03-.46-.13-.72-.16-.02-.02-.04-.05-.06-.07h.06c0-.01 0-.02.01-.03-.08-.03-.16-.06-.25-.1-.05-.03-.09-.16-.12-.22.02-.02.05-.04.07-.06-.04-.03-.08-.04-.16-.04v-.03c.15-.02.22-.09.36-.15 0-.02.02-.04.02-.06v-.01c-.14.04-.26.02-.47.01-.03-.09-.1-.13-.21-.15 0-.01-.01-.02-.02-.03.2.02.26.11.43.13l.43-.06c.01-.02.01-.03.01-.04.03-.03 0-.03-.02-.09.02.01.03.02.05.02v-.01c-.34-.46-1.54-.31-2.05-.21-.22.04-.35.24-.64.24.12-.13.86-.4 1.08-.47 0 0 .46.03.5.02.04-.03.08-.08.12-.13.19-.1.47-.06.72 0 .32.1.63.13.95.24.2.07.8.32 1.01.28.16-.02.3-.07.45-.13.33-.15 1.01.21 1.24-.04.02-.05.02-.01-.01-.07.01 0 .02.01.03.01.04-.07 0-.29.04-.37-.08-.03-.16-.06-.23-.08 0-.05 0-.01.01-.06-.15-.02-.15-.05-.25-.04-.03-.17-.18-.22-.35-.25V5.9c.12.01.24.02.36.04-.06-.09-.21-.1-.23-.2-.12-.03-.21 0-.31-.06-.05-.04-.04-.04-.04-.09-.06-.04-.21-.03-.26-.08-.06-.05-.08-.1-.17-.14-.02-.06-.04-.02.01-.06-.01-.04-.25-.21-.36-.24.04-.03.03-.02.07-.02.01-.03.01-.11.02-.21-.04-.02-.07-.03-.1-.05-.01 0 .03-.07.03-.16-.13-.05-.27-.1-.25-.25h-.07c-.08-.13-.4-.54-.4-.67-.33.09-.77.64-1.25.26-.07.01-.12-.11-.27-.13 0-.04 0-.08-.01-.12-.03-.01-.06-.01-.09-.02.04-.11.08-.13.07-.28.05-.02.1-.04.16-.06-.02-.02-.03-.04-.05-.07-.04.02-.08.03-.12.05-.09-.1-.3-.15-.46-.19 0-.01-.01-.02-.01-.03v-.01c.03-.02.02-.01.07-.03v-.01c-.11-.1-.34-.26-.47-.31-.12 0-.23 0-.35.01-.29-.1-.56-.21-.86-.21-.02.03-.05.06-.08.09-.01.02-.01.03-.01.05.02.03.02.03.06.05-.06.07-.13.11-.25.13.11.13.03.15.09.23-.05.05-.38.17-.5.18a.3.3 0 0 0-.04.08c.16.05.32.19.33.41-.15.32-.48.38-.89.44-.14.01-.29.01-.43.01h-.03c.01.06 0 .15.08.18-.07.14-.23.31-.12.47-.08.06-.17.13-.27.13 0 .04 0 .08-.01.12-.01.01-.03.01-.05.01-.01-.04-.03-.04-.05-.1-.12.01-.18.06-.25.1-.06-.02-.1-.04-.15-.06-.04-.22-.18-.35-.27-.55.07-.07.13-.12.18-.2v-.11c.07-.08.16-.12.22-.23-.29-.02-1.12-.27-1.28-.43-.06-.05-.08-.18-.16-.25-.13-.06-.25-.12-.38-.17h-.43-.03c.1-.11.17-.26.25-.38-.07-.03-.17-.04-.29-.03 0-.02 0-.05.01-.07.26-.32 1.14-.64 1.51-.62a.265.265 0 0 1-.05-.06c.13.01.28.03.43.01.05-.07.04-.07-.01-.13h-.04v-.01c.22.06.95.05 1.28-.12.05-.03.02-.01 0-.05l.44-.09h.03v-.01a.232.232 0 0 0-.1-.04c0-.02 0-.02-.01-.03.1.01.19.01.28.03 0 .07.21.2.31.23.02-.03 0 0 .01-.04l.01-.01c-.03 0-.01-.01-.05.01-.02-.05-.03-.06-.09-.1v-.02c.05.02.09.05.13.07 0-.04-.01-.08-.01-.12.06.04.11.08.17.12v-.04c.24-.06.46-.05.64-.11-.04-.03-.07-.07-.11-.11.01-.01-1.3-.74-2.81-.7-.99.01-4.51 1.22-7.29 2.64-2.14 1.07-3.77 2.42-3.87 2.53-.85.74-1.67 1.65-2.1 2.76-.05.05-.1.1-.15.17-.03.07-.28.71-.28.74h.12c-.02.19.09.2.03.43-.07.33-.3.74-.41 1.11-.02.08-.09.26-.07.36.02.13.06.29.02.45-.06.09-.11.18-.16.27-.06 0-.08.02-.15 0h-.02c-.02.19.06.3.04.47.04 0 .03 0 .07-.03.11.3.05.62-.17.82.07.27.21.43.16.85v.01c.01 0 .02.01.03.01.24-.25.18-.23.21-.55-.01-.04-.02-.07-.03-.1-.02.03-.04.05-.06.08h-.01c-.04-.21.18-.75.22-.98.03-.15-.05-.4-.01-.58.09-.41.14-1.3.48-1.56.01.03.03.06.05.1.01-.02.03-.04.05-.04.07.24-.22.6-.18.93-.08.05-.11.09-.17.17.02.01.03.02.04.03.03-.02.05-.05.08-.08 0 .08-.04.34.05.42.01.03 0 .01.03.01.01 0 .02.02.03.02-.05.1-.09.15-.09.3.04.02.03.02.08.03-.02.05-.03.11-.04.17.02 0 .04-.01.06-.01 0 .18-.07.24-.16.37.02.16.1.2.17.33-.05.06-.05.1-.07.18.13.18.31 1.4.06 1.59-.06.09-.06.06-.03.15-.04.06-.07.05-.14.08-.19.47.23.6.24.98.03.01.06.04.09.06 0 0 1.55-.05 2.47-.07.03 0-.07-.04-.11-.07-.04-.04-.23-.98-.19-1.11l.09-.15c-.13-.3.08-.6.19-.86.1-.24.19-.47.28-.7.09-.11.27-.08.32-.28.03-.13-.03-.25.04-.42.06-.15.22-.2.22-.39.09.01.24-.06.25-.13.01-.03.03-.05.05-.08 0 .05 0 .03-.02.09.07-.04.05-.05.08-.04.02-.02.04-.05.06-.07a.18.18 0 0 1-.05-.07c.24.03.42-.07.63-.19.13.03.08-.06.06-.13.04-.04.08-.05.12-.08 0 .01.01.02.01.02-.01.02-.03.04-.05.06l.05.02c.06.05.28-.07.41-.06.13.02.4.13.5.18.01 0 .03 0 .04-.01v-.05c-.03 0-.06-.01-.09-.01-.01-.01-.01-.02-.01-.04l.1-.03c.01.05.1.13.14.18-.01 0-.02.01-.03.02-.01.01-.01.02-.02.04.04.03.08.07.12.1.08-.03.14-.05.2-.08.01.03.02.07.02.09.11-.02.11-.07.17-.13.05.06.11.15.18.18.01.01.02.02.04.02h.01l.06-.06-.14-.14c-.01 0-.01-.01-.02-.02.03-.05.07-.06.14-.07.04-.06.02-.05.02-.13-.04.02-.07.04-.11.06h-.01c-.01-.01-.02-.02-.03-.04.22-.13.47-.1.68-.06.02-.04.04-.07.05-.1.01-.01.03-.01.04-.03v.18c.31.04.54-.09.77.16.05.05.05.16.08.19m9.44-10.54c-.07.02-.12.04-.18.07-.01.02-.02.04-.02.06v.01c.1.06.4.12.52.05.03-.03.07-.05.09-.08v-.04c-.13-.04-.23-.07-.41-.07m.73.05c.03.02 0 0 .04.02-.01 0-.03-.02-.04-.02m-2.22.61c-.02-.01-.03-.03-.05-.06a.361.361 0 0 0-.25-.06c.01-.03.03-.06.04-.1-.11-.06-.32-.13-.39-.23-.06-.05.01-.12-.08-.16-.01.02-.02.03-.04.04-.25-.02-.53.11-.62.28-.12 0-.24 0-.31.05.07.05.26.04.36.04-.03.01-.04.02-.06.04-.01.02-.02.05-.05.07.21.04.55-.02.67-.1.09.02.16.04.24.06-.02.01-.05.02-.07.02.13.12.37.13.61.11m-.75-.49c-.02-.01-.03-.03-.04-.04-.01.03-.02.05-.03.08.03-.01.06-.03.09-.04h-.02zm3.75.51c-.02-.02-.03-.03-.05-.04.05-.04.03.01.03-.06-.18-.01-.15-.07-.28-.1-.03.01-.06.03-.1.05.03.05.03.06 0 .12.18-.01.24 0 .4.03m1.13-.16c-.01.01-.01.02-.01.03h.02c0-.01 0-.02-.01-.03m-1.1.11c.03.02 0 0 .04.02-.01 0-.03-.02-.04-.02m-4 .05c-.07.02-.14.04-.23.07.01.03.01.06.01.08.21-.01.41 0 .59-.05 0-.02.01-.02.02-.03-.13-.03-.26-.05-.39-.07m1.57.02v.04h.09v-.02c-.02 0-.06-.02-.09-.02m2.02.21c-.03-.08-.14-.12-.23-.15.01.04.01.07.01.1-.04 0-.08 0-.13-.01.02.02.02.02.02.03.14.02.25.04.36.07a.138.138 0 0 1-.03-.04m-2.27-.13s0 .02-.01.02c.04.03.07.05.1.08.04 0 .08.01.12.02 0-.01.01-.02.02-.02V2.4l-.23-.06m.45.04l-.14-.03c.03.06.06.06.11.1h.06c.01-.01.01-.02.01-.02-.01-.02-.03-.04-.04-.05m-1 .11c-.05.02-.1.03-.14.05l-.03.06c.01.01.03.04.04.05.1.02.15-.04.25-.05.01-.02.03-.04.05-.06a.425.425 0 0 0-.17-.05m2.11.08v.03c.01-.01.02-.01.04-.02v-.01H47m-.64.1c.02.04.06.04.1.06h.06a.382.382 0 0 0-.16-.06m6.87.31c.03.03 0 .01.04.03-.03-.03 0-.01-.04-.03m-8.28-.1c0 .01.02.02.02.03h.09v-.02c-.04 0-.07 0-.11-.01m13.61 1.05c-.11.04-.16-.04-.25-.09h-.07c.01.02.03.03.05.05-.16.03-.35-.07-.51-.11-.01 0-.01.01-.01.01 0 .02.03.04.03.06-.07-.05-.12-.1-.23-.12v.02c.04.02.06.05.09.08v.01c-.07-.02-.05-.04-.11.01-.16-.12-.29-.3-.55-.32l.06.06c-.04-.01-.07-.03-.11-.04-.04.03-.07.05-.11.09 0 0-.01.02-.01.03.18.04.36.09.54.13-.09.06-.18.04-.33.01-.01.01-.02.01-.02.01 0 .02.01.02.02.03.25.06.35.14.52.22 0 .01.01.02.01.03l-.13-.03c-.01 0-.01.01-.01.01 0 .02.01.04.02.06.38.1 1.3.56 1.62.2v-.02c-.16-.11-.4-.26-.51-.39m-11.13-.64v.03l.03-.03h-.03m1.3.08c.03.03.01.02.06.04v-.02c-.02-.01-.01-.01-.06-.02m.32.06l-.11-.03c-.02.05 0 .04-.1.03v.02c.04.06.11.1.18.11.02-.01.05-.03.07-.05-.02-.02-.03-.06-.04-.08m-1.09.08c-.02 0-.05 0-.07-.01-.02.01-.03.01-.04.03l-.03.03c.05.04.12.03.19.02.01-.01.02-.02.02-.03a.161.161 0 0 1-.07-.04m21.61 12.02c-.07-.14-.14-.29-.21-.43.01.02.03.04.04.06.01 0 .02 0 .03.01v-.03c.01-.06-.06-.15-.11-.22.01 0 .02-.01.03-.01.03.04.06.08.09.11h.02c-.03-.05-.05-.12-.07-.17.05.04.09.1.15.15-.07-.16-.26-.47-.41-.53.02-.06 0-.04.06-.03-.05-.18-.32-.34-.35-.6h.02c.02.15.12.11.19.17h.01c-.06-.07-.11-.16-.16-.23.03-.02.05-.04.08-.06.07-.05.12.1.21.1 0 .05.01.06.02.13.01-.17-.01-.39-.03-.45-.07-.08-.12-.2-.19-.32-.21-.34-.36-.63-.51-1.04-.04-.09-1.31-2.07-2.92-3.6-1.67-1.57-3.69-2.66-3.66-2.67-.04.05-.08.09-.16.11.02.09 0 .09.04.15-.05.01-.07.03-.13.05.06.08.12.13.17.19.01.05.01.1.04.14.12.2.38.29.49.52.06.02.06 0 .11-.03.01.06.04.11.05.17.07.09.44.29.57.22.07-.04.08-.14.05-.23.03 0 .05-.01.08-.03l-.03-.06v-.02c.39.19.58.67.99.84.02.05.04.09.06.15-.07.01-.08.05-.11.1.08.1.17.18.29.25-.04.05-.02.02-.09 0v.02c.03.04.05.06.11.09.03.01.05.01.08.01V8.4c-.04-.04-.08-.12-.16-.15 0-.04 0-.02.03-.05-.03-.03-.05-.07-.08-.1.03.04.05.07.08.1.03.02.06.04.08.08.05 0 .1 0 .16.01h.01v-.04c-.04-.04-.07-.09-.11-.14.02-.04.02-.02.01-.06.05 0 .11.01.15.02-.01-.03-.04-.07-.05-.1.03.02.58.52.55.54-.07.03-.05.07-.04.15-.01.01-.04.01-.06.02-.1.12-.12.01-.23 0-.06-.05-.04-.01-.02-.07-.05-.03-.09-.07-.13-.1v.07c-.02 0-.05 0-.07-.01.01.08-.03.05-.05.15-.02-.01-.04-.01-.06-.02-.03-.03-.04-.1-.05-.13-.03-.03-.02-.03-.06-.05 0 .02.01.04.02.06-.11 0-.2-.09-.28-.16-.03-.01 0-.01.01-.02-.03-.04-.05-.06-.12-.06 0-.01-.01-.02-.01-.03 0-.01.01-.02.01-.03.09.06.19.12.28.17-.06-.12-.19-.31-.33-.26-.04-.04-.06-.14-.1-.2l.06.03c0-.02.01-.04.02-.06-.13-.15-.32-.23-.38-.44-.03.02-.06.03-.09.04l.03.11h-.05c-.03.01-.04.03-.07.04.04.25.54.63.52.74.03 0 .07.01.1.02.06.1.11.15.18.26-.06.01-.04-.01-.03.07-.08-.02-.09-.04-.2-.03v.06c-.07.01-.13.01-.19.02l-.03.06c.02.03.04.06.06.1.05.03.04.02.09 0 .04.08.07.09.06.16-.04.05-.01.03-.07.01h-.01c.01.1 0 .12.05.18a.355.355 0 0 0-.1-.02c-.05-.14-.11-.28-.15-.42-.01 0-.02-.01-.03-.01h-.01c.04.18.2.48.09.58-.07.07-.22.08-.27.17.03.08.08.16.11.25a.36.36 0 0 1-.15.08c-.03.04-.07.09 0 .13-.01.02-.03.03-.04.04-.18.03-.36-.11-.49-.15-.01 0-.01 0-.02.01.09.12.19.18.24.32.01.02.02.04.04.05v.01c-.11-.02-.18-.04-.25.02a4.6 4.6 0 0 0-.17-.11c-.1.04-.24.02-.32.1-.01.01-.02.01-.03.01.02.11.11.1.18.16-.02 0-.05.01-.08.01.15.14.36.1.57.18.01 0 .66.61.67.64a.18.18 0 0 1-.07-.05c-.01 0-.01 0-.01.01.16.23.34.55.34.98-.24.1-.8-.06-1.12-.1-.08-.01-.29.08-.42.04-.06-.02-.08-.07-.18-.05-.08-.02-.12.07-.08.13-.07.03-.16.03-.19.09-.02.01-.03.02-.05.03.01.14.09.13.11.23.04 0 .03 0 .07-.02.03.23.17.4.25.63.07.19.03.78-.01.98.06.06.09.1.15.16.03-.02.05-.03.09-.05.06.19.12.38.11.67.12-.04.29.03.36.01.04-.02.07-.08.15-.09.24-.12.36.46.61.5.05-.05.26-.25.27-.29.19-.01.32-.03.47.02.01-.02.02-.04.03-.07.08.02.08.02.12.06.04-.1.08-.27.12-.35.05-.02.07-.03.15-.03 0-.08-.06-.21-.01-.35.02-.08.1-.08.12-.19-.42-.28-.04-.64-.16-.87.07-.1.14-.07.25-.14.06-.04.12-.18.17-.23-.02-.16-.26-.38-.2-.54.01-.05.08-.08.11-.13.21.06.34.15.53.23.09-.09.07-.26.23-.28.02-.06.03-.12.05-.19v-.03c.37.07.58.58.77.84 0 0 .52.51.54.52.02.01.08-.03.12.01.03.05.07.1.1.16.4.38.52.49.69 1.06-.04.02-.12.04-.16.1-.14 0-.14-.02-.22-.09-.02.03-.02.03-.03.07-.02-.01-.03-.02-.05-.04h-.01c-.01.06-.02.12.01.18.02.05.52.45.58.47h.02c-.04-.2-.14-.32-.14-.57.03.02.05.04.08.05h.01c.03-.1.01-.24-.04-.33.02-.08.01-.06.06-.09-.04-.17-.13-.19-.22-.3-.02-.12-.05-.22-.08-.33.01 0 .02-.01.03-.02.06.09.21.25.3.31-.07-.31-.37-.56-.63-.69-.03-.05-.04-.09-.04-.18-.08-.05-.14-.02-.23-.09-.2-.16-.29-.42-.44-.62-.14-.18-.4-.25-.47-.49.01-.03.01-.06.01-.1-.02-.07-.1-.09-.13-.19.08-.01.08-.03.11-.09.02.01.04.01.05.01.05.07.15.25.19.35.01.01.02.01.03.02l.01-.1c.02.05.05.1.07.15.02 0 .03.02.04.03-.01-.05-.03-.09-.05-.13.13.05.17.27.25.35.09.12.24.19.33.28-.02 0-.04 0-.05-.01.03.06.06.08.1.13.02 0 .04 0 .06.01-.02-.02-.04-.05-.06-.07h.02c.03.02.06.04.08.06.01.01.01.02.01.03-.02.01-.05.01-.07.02.05.06.04 0 .11.04.16.08.4.33.5.48.07.2.14.4.23.61.09.17.3.34.38.53.03 0 0 0 .04-.01 0 .01-.03.07 0 .14.04.06.12.14.22.16-.03.08-.03.05-.03.16.1.14.19.27.24.45.02.02.03.02.04.04h.02l-.03-.11h.01c.03.08.07.15.1.22.01.01.01.01.03.01-.02-.03-.02-.07-.03-.1.03.03.06.06.08.1h.02M42.95 4.57a.772.772 0 0 0-.29-.07l-.06.03c.03.08.24.15.34.17h.02c.01-.06 0-.09-.01-.13m6.86.4c.03.05-.01.02.04.04h.01c.01 0 .02-.01.02-.02-.02 0-.05-.01-.07-.02m.73.67c.01.01.02.02.03.04h.02v-.02c-.02 0-.03-.02-.05-.02m-.46.24c-.03.01-.06.01-.09.03-.02.09-.02.03-.04.08.19-.01.37-.04.54-.05l-.41-.06m.9.28c0 .04-.01.02.03.06 0-.01.02-.02.03-.04v-.01c-.01 0-.03-.01-.06-.01m-2.9.46c-.01.01-.01.02-.01.02.31.21.53.37.94.5.01-.01.02-.01.03-.01v-.04c-.22-.2-.59-.45-.96-.47m3.5.22c0 .01 0 .03-.01.04.05-.02.02.01.04-.04h-.03m11.8 2.71c0-.02-.02-.06-.02-.08-.07-.01-.14-.02-.2-.02.03-.06.1-.15.08-.24-.03-.13-.28-.41-.43-.23-.02-.01-.03-.01-.04-.01-.09-.19-.22-.39-.44-.52-.09-.05-.17-.08-.26-.12-.21-.22-.33-.38-.68-.39.05-.03.08-.05.12-.07a.18.18 0 0 0-.07-.05c.05-.12-.01-.21.01-.32-.13-.11-.35-.09-.52-.05 0-.08.02-.05-.05-.08.02-.07.05-.1.11-.13a.418.418 0 0 1-.04-.1c-.14-.03-.28.04-.42-.01-.03.04-.02.05 0 .09-.02.06-.01.07.04.12-.01.01-.03.01-.04.01-.04 0-.02-.01-.05.04.03.04.05.08.09.13v.01c-.07-.05-.13-.08-.19-.13-.02.05-.01.03-.05.08.07.08.22.13.29.13.02.02.02.04.03.06-.02.01-.04.02-.07.03.04.08.06.08.04.16.05-.01.09-.01.14-.02.01-.02.02-.04.02-.07v-.03h.01c.03.15.11.26.15.42H61c0-.01.01-.02.01-.03a.21.21 0 0 0-.04-.06c.04.02.07.03.09.05h.02c-.02-.04-.03-.09-.04-.13.03.02.07.05.11.08.03.06.03.12 0 .2.04.03.09.07.13.11h.01c0-.02-.02-.04-.03-.06v-.01c.04.01.08.03.13.05V8.3c.1.04.13.02.19-.04.11.12.06.31.29.27 0 .12.03.16.07.23-.11.08-.22.02-.34 0 .02.09.05.07.11.12-.02.03-.04.05-.06.07 0 .01.01.02.02.02.03-.01.07-.02.11-.04.03.05.08.1.11.15-.02.09-.09.13-.18.13-.01.02-.03.04-.04.05.04.04.09.08.13.12.16-.08.29.02.45.07.05-.02.08-.04.12-.05-.02.05-.02.04-.02.09h-.28c.01.13-.08.28-.18.37v.03c.07.01.07-.01.15.04.04-.05.02-.1.12-.13.07-.02.15.02.22.04.01-.04-.01-.13.03-.16l.46.04h.05c-.02-.02-.03-.04-.04-.06.22.01.32 0 .49-.08.01-.01.01-.02.01-.03M52.42 8.48c-.06-.02-.08.04-.19.06-.01-.02-.02-.04-.02-.05.04-.06.09-.1.16-.12 0-.02.01-.03.01-.03 0-.01-.01-.01-.01-.02-.18.02-.22.06-.31.13-.02-.02-.02-.04-.04-.06-.03 0 0 .02-.03-.01.09-.09.3-.14.34-.18l.03-.03c-.06-.06-.21-.04-.32-.06.04-.08 0-.02-.01-.13.08-.01.11-.03.16-.08-.09-.08-.24-.16-.37-.14-.05-.06-.01-.09-.09-.13-.04.02 0 .03-.05.01 0 .04-.01.03.01.06-.02 0-.05-.01-.08-.01-.08.01-.05.01-.04-.06-.07 0-.04-.01-.06.03-.05-.03-.07-.05-.14-.05.01-.01.02-.02.03-.04-.05-.02-.02-.01-.07 0-.01-.01-.02-.01-.02-.02v-.07h.16v-.02c-.09-.05-.18-.05-.27-.12-.08.03-.16.06-.25.09.04-.14.29-.26.43-.29.01-.03.03-.05.06-.07-.05-.04-.05-.04-.12-.05V7c.07.01.12.03.2.03.01-.01.01-.02.03-.03 0-.01 0-.02.01-.04-.07-.02-.15-.03-.23-.06-.08.01-.17.01-.24.01-.06.01-.21.09-.29.13-.15.08-.21.27-.41.31-.02.06-.02.04 0 .1v.01c-.06-.01-.04 0-.07-.03-.09.02-.13.09-.18.14.03.03.06.06.09.08-.12-.02-.26.04-.4.06.01.05.01.1.03.14.23.06 1.17.25 1.25.34-.02 0-.04-.01-.06-.01.09.04.19.07.27.11.03-.03.03-.02.03-.07.07.02.13.05.19.08a.81.81 0 0 1-.43.05c-.01.03-.02.05-.02.06.29.12.53-.02.79-.1.01.03.04.06.05.08 0 .12-.07.15-.14.2.02.05.01.04.06.07.07-.02.12-.04.19-.06-.03.05-.04.07-.04.16.08.02.13.04.21.06.11-.06.13-.17.22-.22 0-.05 0-.08-.01-.12m7.87-1.3c-.02-.01-.04-.01-.07-.02-.03.04-.07.08-.11.1.05.05.07.07.07.11.02.01.04.02.05.03.03-.03.06-.06.1-.08-.02-.05-.03-.1-.04-.14m-8.84-.04v.02s.02-.01.02-.02h-.02m8.78.29l-.06-.03c-.01.01-.04.02-.06.03.06.05.09.09.12.16.01 0 .03.01.04.01-.01-.05-.03-.11-.04-.17m-8.79-.24c.01.01.02.03.03.04.02 0 .02-.01.03-.01v-.01c-.02-.01-.04-.01-.06-.02m12.29.46c0 .01.02.02.03.03h.01c-.03-.04.01-.01-.04-.03m-3.25-.05c.02.02.03.03.04.05.01 0 .01-.02.01-.02-.01-.01-.03-.02-.05-.03m-.25.02v.03c.01-.01.03-.01.04-.02v-.01h-.04m.28.1c0 .01 0 .01-.01.02v.01l.01.01h.02c0-.01.01-.02.01-.04h-.03m-.05.04v.04h.02c-.01-.04 0-.01-.02-.04m-10.41-.24h-.09-.02c-.01.02-.01.03-.01.05.06.01.13.02.18.02a.374.374 0 0 0-.06-.07m1.84.15c0 .01-.01.03-.01.05h.11c-.02-.06-.02-.05-.1-.05m8.91.21c-.04.05-.05.07-.12.09.03.09.05.06.11.1.03-.04.05-.14.01-.19m-.1.01l-.02.02v.01c.01.01.02.01.03.01 0 0 .01 0 .01-.01-.01-.01-.02-.02-.02-.03m-12.67-.13c-.06-.03-.04 0-.05-.07-.06-.06-.03-.04-.01-.13-.01 0-.03 0-.04-.01-.05.02-.1.04-.16.06 0 .01-.01.02-.01.02.15.14.28.22.49.3.05.03.02 0 .03.04.03.04.05.05.11.07.13-.02.11-.09.3-.08 0-.01.01-.01.01-.01v-.02c-.09-.04-.67-.17-.67-.17M61 7.98h-.03v.06c.02-.01.04-.01.06-.02-.01-.01-.02-.02-.03-.04m.08.64c0-.01-.01-.02-.01-.03.08-.03.08-.07.14-.1v-.06c-.1-.1-.18-.1-.27-.22-.1-.06-.19-.04-.27.03.01-.03.01-.02.03-.06-.04-.02-.08-.04-.13-.05-.04.04-.11.07-.2.08-.02.09-.01.09-.06.14.05.06.1.04.17.03-.03.07-.06.05-.06.11-.13 0-.25.01-.38.01.01.08.02.02.05.08-.01 0-.02.01-.03.02.05.05.1.04.18.04l-.1.1c.11.15.2.06.37.11-.1.06-.07.06-.07.16-.06.06-.06.04 0 .08-.04.06-.03.03-.02.1-.03 0-.07-.01-.11-.01-.01.03-.02.05-.03.08.05-.01.11-.03.16-.03-.03.02-.06.04-.1.06.17.41.76-.12 1.02-.11-.02-.18-.1-.47-.28-.56m-9-.63c-.01.01-.01.03-.02.04.02-.01.03-.01.04-.01 0-.01-.02-.02-.02-.03m12.65.33c.01.02.02.05.03.07.03.01.06.02.1.03-.04-.06-.07-.07-.13-.1m-18.09-.3c-.02.02-.03.03-.04.05 0 .01.01.01.02.01.04-.02.04-.01.06-.06h-.04m1.03.05c0 .02 0 .04-.01.06.01.01.03.02.04.02.08 0 .17-.02.25-.02l-.28-.06m13.77.37c-.01.03-.03.05-.03.08 0 .01 0 .02.02.04.02-.01.04-.01.07-.02 0-.01.01-.02.01-.03-.02-.02-.04-.05-.07-.07m-15.69-.4c-.01.04-.01.03.01.06.01-.01.02-.01.03-.03-.01-.01-.03-.02-.04-.03m3.43.14h-.03c-.01.01-.01.02-.01.03.04-.01.06.01.04-.03m-3.35-.09v.02c.01 0 .02-.02.03-.02h-.03m3.31.13h-.08c-.03.01-.05.03-.08.04.05.01.12.01.17.01v-.01c-.01-.02-.01-.03-.01-.04m1.79.08c.01.02.02.04.03.05.01-.01.02-.01.02-.03-.01 0-.03-.01-.05-.02m.9.05c-.02.01-.04.03-.05.04-.01.02-.02.03-.02.04h.04c.02-.01.06-.02.08-.04v-.04h-.05m-5.02-.14c.02.01 0 .01.02 0h-.02m4.12.16c-.01.01-.01.02-.01.02.01.01.02.02.04.02.01 0 .02-.01.02-.02-.01 0-.03-.01-.05-.02m.05.04v.03c.01-.01.03-.01.03-.03h-.03m14 .37c.03.02.06.03.09.05v-.01c-.03-.03-.03-.02-.09-.04m-.98.11c-.01 0-.01.01-.01.02.03-.01.02 0 .03-.02H64m-.16.07c0 .01 0 .02-.01.03.01 0 .01 0 .01.01l.03-.03v-.01h-.03m-.02.09v.04h.03c-.02-.04 0-.01-.03-.04m-18.85-.43v.03c0-.01.02-.02.02-.03h-.02m-.52.05c0 .02 0 .04-.01.05.02-.03.03-.01.01-.05m.25.12c-.02.01-.04.02-.07.03v.02c.05.01.09.02.14.02v-.02c-.03-.04-.02-.03-.07-.05m-.77.01c-.01.01-.02.01-.03.02v.01c.02-.01.05-.02.08-.03m.31.01c.03.01 0 .01.03 0h-.03m-.17.01l.03.03h.01c-.02-.03 0-.01-.04-.03m.76.07s0 .02-.01.02l.06.03h.02c0-.01.01-.01.02-.03-.04-.02-.04-.02-.09-.02m-15.53.96c-.05.16-.11.27-.13.4h.01c.06-.1.21-.22.12-.4m-.22.52c.04-.03.02-.02.02-.05 0 .02-.02.03-.02.05m12.7.22c0 .01 0 .02-.01.03h.04c0-.01-.01-.02-.03-.03m-12.94.89c-.02.07-.03.13-.05.2.01.01.01.02.02.03l.01-.01c.02-.06.04-.13.06-.2-.02-.01-.03-.01-.04-.02m37.98.39c.02.02.03.03.04.05v-.03c-.01-.01-.02-.02-.04-.02m-32.72-.26c-.01.02-.02.04-.02.05.02-.02.04-.02.02-.05m1.3-.02c-.04.04-.08.04-.11.11.09.01.16 0 .24 0v-.02c-.04-.03-.08-.06-.13-.09m-1.67.19l-.04.04c.03-.01.04-.02.06-.03 0 0-.02 0-.02-.01m33.76.98v.04h.03c-.02-.04 0-.02-.03-.04m-1.09-.06c.01.03.03.06.04.1-.03.02-.05.03-.08.05 0 .17.13.41.24.47.02.01.02.02.04.03h.01c-.01-.2-.1-.57-.25-.65m.21.07c-.01.01-.02.01-.03.01v.04c.02 0 .05.01.07.01-.01-.05-.01-.03-.04-.06m-38.45.82c-.01.02-.01.02-.02.03l.05.05h.01c0-.07 0-.06-.04-.08m38.9.72a2.03 2.03 0 0 0-.34-.88.076.076 0 0 0-.05-.02l-.03.12c-.06.04-.04.04-.1.01.01.16.17.31.23.45.04.1.01.23.03.3.06.03.07.08.19.1-.01-.04-.02-.08-.02-.11.03 0 .04 0 .08.03h.01m1.86-.57v.05c.01.01.03.02.04.04-.01-.07-.01-.06-.04-.09m.12.11l.03.06h.01c-.02-.05 0-.03-.04-.06m-.09.14c0 .03.02.05.02.07a.176.176 0 0 0-.05-.04c.02.02.03.06.05.09.02-.02.03-.03.04-.05-.02-.02-.04-.04-.06-.07m.15.07v.04c.02.01.03.03.05.05v-.06c-.02-.01-.03-.01-.05-.03m.13.43v.04c.02.01.04.02.05.03-.01-.02-.03-.04-.05-.07m-6.77-.22c0 .03 0 .05.02.08 0-.03.01-.05.01-.08h-.03m6.44.42v.11c.01.01.02.02.03.04.02.01.03.02.04.02.01 0 .01-.02.02-.02-.04-.06-.06-.11-.09-.15m.25.07c-.02 0-.04-.01-.05-.02.04.04.07.08.11.13.01-.01.02-.01.04-.03-.04-.02-.07-.05-.1-.08m-.16.16c0 .02 0 .04.01.05.02.02.04.04.06.05v-.05a.304.304 0 0 0-.07-.05m-37.54.02v.12c.02-.02.03-.02.05-.02v-.01a.162.162 0 0 0-.05-.09m38.05.63c.02.03.03.05.04.09.01-.02.02-.02.02-.03l-.06-.06M49.54 39.21c-.01.02-.01.04-.02.05.02-.01.05-.03.07-.05m-.5.02c-.02.01-.03.02-.04.03 0 .01.02.02.02.02h.07v-.01c-.01-.01-.03-.02-.05-.04m.11.02v.02c.01-.01.02-.01.03-.02h-.03zm-2.21 1.34c-.01.02-.01.03-.02.04.03-.02.01 0 .03-.04h-.01zm-.03.07c-.01.02-.01.03-.02.04.01 0 .03-.01.03-.02s0-.01-.01-.02m-1 .91v-.13c-.07 0-.13.02-.2.03-.07.16-.24.25-.39.35v.01a.3.3 0 0 1 .08.04c.12-.02.22-.07.3-.13v-.07a.68.68 0 0 0 .21-.1m-7.63.41c.03.02 0 .02.03 0h-.03zm-.05.42c-.01.01-.01.02-.02.03.01 0 .02.01.03.01.01 0 .01-.01.01-.01 0-.01-.02-.02-.02-.03m3.53.99c.02.07.01.08.08.11v-.01c-.02-.06-.01-.08-.08-.1m-3.05.35c.02.04 0 .01.04.03 0 0 .01-.01.01-.02v-.01h-.05zm-.33.3c0 .01.02.02.03.04h.05v-.02c-.03-.02-.03-.02-.08-.02m.1.3v.04h.04c-.01-.02-.03-.03-.04-.04m.14.19c0 .01 0 .02-.01.03h.03c-.01-.01-.01-.02-.02-.03m1.25 2.12c0 .01 0 .01-.01.01.01.02.02.02.03.03.01 0 .03-.01.04-.01a.163.163 0 0 0-.06-.03m.26.12c-.01 0-.03 0-.04-.01-.03.02-.06.04-.09.05.09.02.13.04.16-.04m.29 0c-.01 0-.04 0-.06-.01-.01.01-.03.01-.05.01l.04.02.04.04c.02-.01.03-.02.05-.03-.01-.01-.01-.02-.02-.03m.13.22v-.01c-.11-.01-.16-.01-.23-.05-.01-.1 0-.13-.1-.16.02.1.05.22.04.28.02 0 .04.01.05.01.01-.03.02-.06.04-.09 0 0 .02 0 .02.01.03.07.07.13.13.16-.03-.03-.05-.07-.08-.11v-.01c.05-.01.1-.02.13-.03m-.22.21c.01.01.01.02.02.03 0-.01 0-.02.01-.03h-.03zm.88.29c-.01.06-.02.02.04.04a.078.078 0 0 1-.04-.04m.4.02c.03.04.1.04.17.06.01-.02.01-.02.01-.04-.06 0-.12-.02-.18-.02M47.21-.01c-10.47 0-19.45 6.38-23.3 15.46C27.46 9.1 34.98 1.48 47.19 1.49c11.03.01 19.27 6.67 23.32 13.98C66.66 6.37 57.67-.01 47.21-.01M71.34 33.1c-3.27 10.07-12.5 17.91-24.19 17.91-12.4 0-20.72-7.73-24.08-17.69 3.49 9.28 12.96 15.93 24.11 15.93 11.21 0 20.75-6.76 24.16-16.15m-67.43-.85c-2.52 0-3.86-1.62-3.88-4.7L0 20.49c0-.08.06-.15.14-.16l2.19-.22c.05 0 .09.02.12.05.03.03.04.06.04.1l.04 7c.01 1.53.59 2.31 1.74 2.31.08 0 .18 0 .27-.01 1.34-.13 2.03-1.05 2.01-2.72l-.03-6.99c0-.08.06-.15.14-.16l2.21-.21c.04-.01.08.01.11.04s.05.07.05.11l.03 7.07c.01 1.9-.56 5.14-4.5 5.52-.23.02-.44.03-.65.03m7.51-1.01c-.04 0-.07-.01-.1-.04-.03-.02-.05-.06-.05-.11l-.06-11.66c0-.09.07-.15.15-.16l2.34-.16c.05 0 .11.02.14.06l4.97 6.58-.04-6.85c0-.08.06-.14.15-.15l1.89-.14c.04 0 .08.02.11.04.03.03.05.07.05.11l.06 11.67c0 .09-.07.15-.15.15l-1.94.14c-.05 0-.1-.02-.13-.06l-5.37-7.14.04 7.44c0 .07-.06.14-.15.15l-1.89.13h-.02m12.39-.8c-.05 0-.08-.01-.11-.04a.16.16 0 0 1-.05-.11l-.06-11.63c0-.08.06-.15.14-.15l2.53-.13c.04 0 .08.01.11.04.03.02.05.07.05.11l.05 11.63c0 .09-.06.15-.14.15l-2.51.13h-.01m9.29-.39c-.05 0-.11-.04-.13-.1l-4.94-11.48c-.02-.05-.02-.1.01-.14.03-.04.07-.07.12-.07l2.89-.09c.07 0 .12.03.14.09l3.22 7.5 3.32-7.7c.02-.06.07-.09.13-.09l2.27-.07c.06 0 .11.02.13.07.03.04.04.1.02.14L35.21 29.9c-.02.05-.07.08-.13.08l-1.97.07h-.01zm8.95-.22c-.08 0-.15-.07-.15-.15l-.07-11.63c0-.04.02-.08.05-.11.02-.04.06-.05.1-.05l9.29-.01c.08 0 .15.07.15.15l.01 2.27c.01.04-.02.08-.05.11-.02.02-.06.04-.1.04H44.8l.01 2.02h4.35c.09 0 .16.06.16.14v2.29c.01.04-.01.08-.04.11s-.07.04-.1.04h-4.35l.01 2.19 6.54-.01c.09 0 .15.07.15.15l.02 2.28c0 .05-.02.09-.05.11-.03.03-.06.04-.11.04l-9.34.02zm22.38.35h-.01l-3.01-.09c-.05 0-.09-.03-.12-.08l-2.54-4.39-1.65-.05.02 4.24c0 .04-.02.08-.04.1-.03.03-.08.04-.11.04l-2.54-.07c-.08 0-.14-.07-.14-.15l-.06-11.67c0-.04.02-.08.05-.11.02-.03.06-.05.1-.04l6.38.19c2.12.06 3.34 1.42 3.35 3.71.01 2.22-1.17 3.14-2.24 3.53l2.69 4.61c.02.05.02.11 0 .16a.17.17 0 0 1-.13.07m-7.35-7.17l2.05.06c.1 0 .19.01.27.01.76 0 1.21-.11 1.44-.36.2-.19.28-.49.28-.99 0-.55-.11-1.04-1.36-1.08l-2.7-.09.02 2.45zm13.94 7.85c-.16 0-.32-.01-.49-.01-1.79-.1-3.67-1.22-4.2-1.57a.146.146 0 0 1-.07-.13l-.01-2.69c0-.05.03-.1.08-.13.04-.03.1-.02.15.01 1.63 1.09 3.18 1.79 4.06 1.84.83.05 1.38-.08 1.65-.36.14-.13.21-.31.2-.53 0-.26-.26-.52-.84-.81-.33-.16-.74-.33-1.17-.51-1.81-.75-4.29-1.77-4.3-4.52-.01-.92.28-1.68.85-2.27.75-.74 1.93-1.11 3.26-1.05 1.57.09 3.44.89 4.31 1.42.05.02.07.07.07.13l.02 2.61c0 .05-.04.1-.08.13-.05.02-.11.02-.16-.01-.53-.35-2.42-1.52-4.16-1.61-.62-.03-.92.14-1.06.27-.13.13-.15.26-.15.33.01.29.28.57.85.88.35.19.79.37 1.25.56 1.78.76 4.23 1.79 4.24 4.26 0 1.11-.31 2-.95 2.64-.74.74-1.86 1.12-3.35 1.12m15.86.73h-.02l-2.5-.18c-.05 0-.11-.04-.13-.1l-.84-2.35-4.06-.29-.87 2.2c-.02.06-.08.11-.14.09l-2.1-.15c-.05 0-.09-.03-.12-.07a.123.123 0 0 1-.01-.13l4.49-11.44c.03-.06.09-.1.15-.09l1.76.12c.05 0 .1.05.13.11l4.4 12.08c.02.06.01.11-.02.15-.03.03-.08.05-.12.05m-6.56-5.43l2.1.16-1.04-2.86-1.06 2.7zm15.53 6.27h-.02l-7.2-.67c-.08-.01-.14-.07-.14-.15l-.07-11.81c0-.04.02-.08.06-.11a.16.16 0 0 1 .11-.04l2.17.2c.09.01.14.08.14.15l.04 9.36 4.91.45c.08 0 .14.08.14.15l.01 2.32c0 .04-.02.08-.05.11-.03.03-.06.04-.1.04"/></svg>